G04 #@! TF.GenerationSoftware,KiCad,Pcbnew,5.0.2-bee76a0~70~ubuntu18.04.1*
G04 #@! TF.CreationDate,2019-01-12T17:32:51-05:00*
G04 #@! TF.ProjectId,Master_Board,4d617374-6572-45f4-926f-6172642e6b69,rev?*
G04 #@! TF.SameCoordinates,Original*
G04 #@! TF.FileFunction,Profile,NP*
%FSLAX46Y46*%
G04 Gerber Fmt 4.6, Leading zero omitted, Abs format (unit mm)*
G04 Created by KiCad (PCBNEW 5.0.2-bee76a0~70~ubuntu18.04.1) date Sat 12 Jan 2019 05:32:51 PM EST*
%MOMM*%
%LPD*%
G01*
G04 APERTURE LIST*
%ADD10C,0.100000*%
G04 APERTURE END LIST*
D10*
X160147000Y-66368184D02*
X139827000Y-66368184D01*
X139827000Y-63828184D02*
X160147000Y-63828184D01*
X103632000Y-66368184D02*
G75*
G02X103632000Y-63828184I0J1270000D01*
G01*
X130937000Y-63828184D02*
G75*
G02X130937000Y-66368184I0J-1270000D01*
G01*
X139827000Y-66368184D02*
G75*
G02X139827000Y-63828184I0J1270000D01*
G01*
X169672000Y-58748184D02*
G75*
G02X167132000Y-58748184I-1270000J0D01*
G01*
X167132000Y-49223184D02*
G75*
G02X169672000Y-49223184I1270000J0D01*
G01*
X169672000Y-58748184D02*
X169672000Y-49223184D01*
X167132000Y-49223184D02*
X167132000Y-58748184D01*
X160147000Y-63828184D02*
G75*
G02X160147000Y-66368184I0J-1270000D01*
G01*
X103632000Y-66368184D02*
X130937000Y-66368184D01*
X103632000Y-63828184D02*
X130937000Y-63828184D01*
X221742000Y-124968000D02*
G75*
G02X212852000Y-133858000I-8890000J0D01*
G01*
X92202000Y-133858000D02*
G75*
G02X83312000Y-124968000I0J8890000D01*
G01*
X83312000Y-46228000D02*
G75*
G02X92202000Y-37338000I8890000J0D01*
G01*
X212852000Y-37338000D02*
G75*
G02X221742000Y-46228000I0J-8890000D01*
G01*
X212852000Y-37338000D02*
X92202000Y-37338000D01*
X221742000Y-124968000D02*
X221742000Y-46228000D01*
X92202000Y-133858000D02*
X212852000Y-133858000D01*
X83312000Y-46228000D02*
X83312000Y-124968000D01*
M02*
