G04 #@! TF.GenerationSoftware,KiCad,Pcbnew,5.0.2-bee76a0~70~ubuntu18.04.1*
G04 #@! TF.CreationDate,2019-01-12T17:32:51-05:00*
G04 #@! TF.ProjectId,Master_Board,4d617374-6572-45f4-926f-6172642e6b69,rev?*
G04 #@! TF.SameCoordinates,Original*
G04 #@! TF.FileFunction,Legend,Top*
G04 #@! TF.FilePolarity,Positive*
%FSLAX46Y46*%
G04 Gerber Fmt 4.6, Leading zero omitted, Abs format (unit mm)*
G04 Created by KiCad (PCBNEW 5.0.2-bee76a0~70~ubuntu18.04.1) date Sat 12 Jan 2019 05:32:51 PM EST*
%MOMM*%
%LPD*%
G01*
G04 APERTURE LIST*
%ADD10C,0.203200*%
%ADD11C,0.150000*%
%ADD12C,0.254000*%
%ADD13C,0.100000*%
%ADD14C,0.508000*%
%ADD15C,0.500000*%
%ADD16C,0.300000*%
%ADD17C,0.200000*%
G04 APERTURE END LIST*
D10*
X215392000Y-81426755D02*
X215331523Y-81487231D01*
X215150095Y-81547707D01*
X215029142Y-81547707D01*
X214847714Y-81487231D01*
X214726761Y-81366279D01*
X214666285Y-81245326D01*
X214605809Y-81003422D01*
X214605809Y-80821993D01*
X214666285Y-80580088D01*
X214726761Y-80459136D01*
X214847714Y-80338184D01*
X215029142Y-80277707D01*
X215150095Y-80277707D01*
X215331523Y-80338184D01*
X215392000Y-80398660D01*
X215875809Y-81184850D02*
X216480571Y-81184850D01*
X215754857Y-81547707D02*
X216178190Y-80277707D01*
X216601523Y-81547707D01*
X217024857Y-81547707D02*
X217024857Y-80277707D01*
X217750571Y-81547707D01*
X217750571Y-80277707D01*
X219988190Y-81547707D02*
X219262476Y-81547707D01*
X219625333Y-81547707D02*
X219625333Y-80277707D01*
X219504380Y-80459136D01*
X219383428Y-80580088D01*
X219262476Y-80640564D01*
X87757000Y-111271755D02*
X87696523Y-111332231D01*
X87515095Y-111392707D01*
X87394142Y-111392707D01*
X87212714Y-111332231D01*
X87091761Y-111211279D01*
X87031285Y-111090326D01*
X86970809Y-110848422D01*
X86970809Y-110666993D01*
X87031285Y-110425088D01*
X87091761Y-110304136D01*
X87212714Y-110183184D01*
X87394142Y-110122707D01*
X87515095Y-110122707D01*
X87696523Y-110183184D01*
X87757000Y-110243660D01*
X88240809Y-111029850D02*
X88845571Y-111029850D01*
X88119857Y-111392707D02*
X88543190Y-110122707D01*
X88966523Y-111392707D01*
X89389857Y-111392707D02*
X89389857Y-110122707D01*
X90115571Y-111392707D01*
X90115571Y-110122707D01*
X91627476Y-110243660D02*
X91687952Y-110183184D01*
X91808904Y-110122707D01*
X92111285Y-110122707D01*
X92232238Y-110183184D01*
X92292714Y-110243660D01*
X92353190Y-110364612D01*
X92353190Y-110485564D01*
X92292714Y-110666993D01*
X91567000Y-111392707D01*
X92353190Y-111392707D01*
X108107238Y-128537707D02*
X108107238Y-127267707D01*
X108530571Y-128174850D01*
X108953904Y-127267707D01*
X108953904Y-128537707D01*
X110102952Y-128537707D02*
X110102952Y-127872469D01*
X110042476Y-127751517D01*
X109921523Y-127691041D01*
X109679619Y-127691041D01*
X109558666Y-127751517D01*
X110102952Y-128477231D02*
X109982000Y-128537707D01*
X109679619Y-128537707D01*
X109558666Y-128477231D01*
X109498190Y-128356279D01*
X109498190Y-128235326D01*
X109558666Y-128114374D01*
X109679619Y-128053898D01*
X109982000Y-128053898D01*
X110102952Y-127993422D01*
X110707714Y-128537707D02*
X110707714Y-127691041D01*
X110707714Y-127267707D02*
X110647238Y-127328184D01*
X110707714Y-127388660D01*
X110768190Y-127328184D01*
X110707714Y-127267707D01*
X110707714Y-127388660D01*
X111312476Y-127691041D02*
X111312476Y-128537707D01*
X111312476Y-127811993D02*
X111372952Y-127751517D01*
X111493904Y-127691041D01*
X111675333Y-127691041D01*
X111796285Y-127751517D01*
X111856761Y-127872469D01*
X111856761Y-128537707D01*
X107744380Y-96787707D02*
X107744380Y-97815803D01*
X107804857Y-97936755D01*
X107865333Y-97997231D01*
X107986285Y-98057707D01*
X108228190Y-98057707D01*
X108349142Y-97997231D01*
X108409619Y-97936755D01*
X108470095Y-97815803D01*
X108470095Y-96787707D01*
X109014380Y-97997231D02*
X109195809Y-98057707D01*
X109498190Y-98057707D01*
X109619142Y-97997231D01*
X109679619Y-97936755D01*
X109740095Y-97815803D01*
X109740095Y-97694850D01*
X109679619Y-97573898D01*
X109619142Y-97513422D01*
X109498190Y-97452945D01*
X109256285Y-97392469D01*
X109135333Y-97331993D01*
X109074857Y-97271517D01*
X109014380Y-97150564D01*
X109014380Y-97029612D01*
X109074857Y-96908660D01*
X109135333Y-96848184D01*
X109256285Y-96787707D01*
X109558666Y-96787707D01*
X109740095Y-96848184D01*
X110707714Y-97392469D02*
X110889142Y-97452945D01*
X110949619Y-97513422D01*
X111010095Y-97634374D01*
X111010095Y-97815803D01*
X110949619Y-97936755D01*
X110889142Y-97997231D01*
X110768190Y-98057707D01*
X110284380Y-98057707D01*
X110284380Y-96787707D01*
X110707714Y-96787707D01*
X110828666Y-96848184D01*
X110889142Y-96908660D01*
X110949619Y-97029612D01*
X110949619Y-97150564D01*
X110889142Y-97271517D01*
X110828666Y-97331993D01*
X110707714Y-97392469D01*
X110284380Y-97392469D01*
X107998380Y-82817707D02*
X107998380Y-81547707D01*
X108421714Y-82454850D01*
X108845047Y-81547707D01*
X108845047Y-82817707D01*
X109994095Y-81971041D02*
X109994095Y-82817707D01*
X109449809Y-81971041D02*
X109449809Y-82636279D01*
X109510285Y-82757231D01*
X109631238Y-82817707D01*
X109812666Y-82817707D01*
X109933619Y-82757231D01*
X109994095Y-82696755D01*
X110538380Y-82757231D02*
X110659333Y-82817707D01*
X110901238Y-82817707D01*
X111022190Y-82757231D01*
X111082666Y-82636279D01*
X111082666Y-82575803D01*
X111022190Y-82454850D01*
X110901238Y-82394374D01*
X110719809Y-82394374D01*
X110598857Y-82333898D01*
X110538380Y-82212945D01*
X110538380Y-82152469D01*
X110598857Y-82031517D01*
X110719809Y-81971041D01*
X110901238Y-81971041D01*
X111022190Y-82031517D01*
X111626952Y-82817707D02*
X111626952Y-81547707D01*
X112171238Y-82817707D02*
X112171238Y-82152469D01*
X112110761Y-82031517D01*
X111989809Y-81971041D01*
X111808380Y-81971041D01*
X111687428Y-82031517D01*
X111626952Y-82091993D01*
X100650523Y-49162707D02*
X99380523Y-49162707D01*
X100650523Y-48436993D01*
X99380523Y-48436993D01*
X100590047Y-47348422D02*
X100650523Y-47469374D01*
X100650523Y-47711279D01*
X100590047Y-47832231D01*
X100469095Y-47892707D01*
X99985285Y-47892707D01*
X99864333Y-47832231D01*
X99803857Y-47711279D01*
X99803857Y-47469374D01*
X99864333Y-47348422D01*
X99985285Y-47287945D01*
X100106238Y-47287945D01*
X100227190Y-47892707D01*
X99803857Y-46199374D02*
X100831952Y-46199374D01*
X100952904Y-46259850D01*
X101013380Y-46320326D01*
X101073857Y-46441279D01*
X101073857Y-46622707D01*
X101013380Y-46743660D01*
X100590047Y-46199374D02*
X100650523Y-46320326D01*
X100650523Y-46562231D01*
X100590047Y-46683184D01*
X100529571Y-46743660D01*
X100408619Y-46804136D01*
X100045761Y-46804136D01*
X99924809Y-46743660D01*
X99864333Y-46683184D01*
X99803857Y-46562231D01*
X99803857Y-46320326D01*
X99864333Y-46199374D01*
X100650523Y-45050326D02*
X99985285Y-45050326D01*
X99864333Y-45110803D01*
X99803857Y-45231755D01*
X99803857Y-45473660D01*
X99864333Y-45594612D01*
X100590047Y-45050326D02*
X100650523Y-45171279D01*
X100650523Y-45473660D01*
X100590047Y-45594612D01*
X100469095Y-45655088D01*
X100348142Y-45655088D01*
X100227190Y-45594612D01*
X100166714Y-45473660D01*
X100166714Y-45171279D01*
X100106238Y-45050326D01*
X99803857Y-44626993D02*
X99803857Y-44143184D01*
X99380523Y-44445564D02*
X100469095Y-44445564D01*
X100590047Y-44385088D01*
X100650523Y-44264136D01*
X100650523Y-44143184D01*
X100650523Y-43719850D02*
X99803857Y-43719850D01*
X99380523Y-43719850D02*
X99441000Y-43780326D01*
X99501476Y-43719850D01*
X99441000Y-43659374D01*
X99380523Y-43719850D01*
X99501476Y-43719850D01*
X99803857Y-43236041D02*
X100650523Y-42933660D01*
X99803857Y-42631279D01*
X100590047Y-41663660D02*
X100650523Y-41784612D01*
X100650523Y-42026517D01*
X100590047Y-42147469D01*
X100469095Y-42207945D01*
X99985285Y-42207945D01*
X99864333Y-42147469D01*
X99803857Y-42026517D01*
X99803857Y-41784612D01*
X99864333Y-41663660D01*
X99985285Y-41603184D01*
X100106238Y-41603184D01*
X100227190Y-42207945D01*
X130622523Y-49114326D02*
X129352523Y-49114326D01*
X130259666Y-48690993D01*
X129352523Y-48267660D01*
X130622523Y-48267660D01*
X130622523Y-47662898D02*
X129352523Y-47662898D01*
X129352523Y-47179088D01*
X129413000Y-47058136D01*
X129473476Y-46997660D01*
X129594428Y-46937184D01*
X129775857Y-46937184D01*
X129896809Y-46997660D01*
X129957285Y-47058136D01*
X130017761Y-47179088D01*
X130017761Y-47662898D01*
X130622523Y-46392898D02*
X129352523Y-46392898D01*
X129352523Y-45909088D01*
X129413000Y-45788136D01*
X129473476Y-45727660D01*
X129594428Y-45667184D01*
X129775857Y-45667184D01*
X129896809Y-45727660D01*
X129957285Y-45788136D01*
X130017761Y-45909088D01*
X130017761Y-46392898D01*
X129352523Y-45304326D02*
X129352523Y-44578612D01*
X130622523Y-44941469D02*
X129352523Y-44941469D01*
X160467523Y-49084088D02*
X159197523Y-49084088D01*
X159197523Y-48600279D01*
X159258000Y-48479326D01*
X159318476Y-48418850D01*
X159439428Y-48358374D01*
X159620857Y-48358374D01*
X159741809Y-48418850D01*
X159802285Y-48479326D01*
X159862761Y-48600279D01*
X159862761Y-49084088D01*
X160467523Y-47632660D02*
X160407047Y-47753612D01*
X160346571Y-47814088D01*
X160225619Y-47874564D01*
X159862761Y-47874564D01*
X159741809Y-47814088D01*
X159681333Y-47753612D01*
X159620857Y-47632660D01*
X159620857Y-47451231D01*
X159681333Y-47330279D01*
X159741809Y-47269803D01*
X159862761Y-47209326D01*
X160225619Y-47209326D01*
X160346571Y-47269803D01*
X160407047Y-47330279D01*
X160467523Y-47451231D01*
X160467523Y-47632660D01*
X160407047Y-46725517D02*
X160467523Y-46604564D01*
X160467523Y-46362660D01*
X160407047Y-46241707D01*
X160286095Y-46181231D01*
X160225619Y-46181231D01*
X160104666Y-46241707D01*
X160044190Y-46362660D01*
X160044190Y-46544088D01*
X159983714Y-46665041D01*
X159862761Y-46725517D01*
X159802285Y-46725517D01*
X159681333Y-46665041D01*
X159620857Y-46544088D01*
X159620857Y-46362660D01*
X159681333Y-46241707D01*
X160467523Y-45636945D02*
X159620857Y-45636945D01*
X159197523Y-45636945D02*
X159258000Y-45697422D01*
X159318476Y-45636945D01*
X159258000Y-45576469D01*
X159197523Y-45636945D01*
X159318476Y-45636945D01*
X159620857Y-45213612D02*
X159620857Y-44729803D01*
X159197523Y-45032184D02*
X160286095Y-45032184D01*
X160407047Y-44971707D01*
X160467523Y-44850755D01*
X160467523Y-44729803D01*
X160467523Y-44306469D02*
X159620857Y-44306469D01*
X159197523Y-44306469D02*
X159258000Y-44366945D01*
X159318476Y-44306469D01*
X159258000Y-44245993D01*
X159197523Y-44306469D01*
X159318476Y-44306469D01*
X159620857Y-43822660D02*
X160467523Y-43520279D01*
X159620857Y-43217898D01*
X160407047Y-42250279D02*
X160467523Y-42371231D01*
X160467523Y-42613136D01*
X160407047Y-42734088D01*
X160286095Y-42794564D01*
X159802285Y-42794564D01*
X159681333Y-42734088D01*
X159620857Y-42613136D01*
X159620857Y-42371231D01*
X159681333Y-42250279D01*
X159802285Y-42189803D01*
X159923238Y-42189803D01*
X160044190Y-42794564D01*
X87678380Y-89167707D02*
X87678380Y-87897707D01*
X88101714Y-88804850D01*
X88525047Y-87897707D01*
X88525047Y-89167707D01*
X89674095Y-88321041D02*
X89674095Y-89167707D01*
X89129809Y-88321041D02*
X89129809Y-88986279D01*
X89190285Y-89107231D01*
X89311238Y-89167707D01*
X89492666Y-89167707D01*
X89613619Y-89107231D01*
X89674095Y-89046755D01*
X90218380Y-89107231D02*
X90339333Y-89167707D01*
X90581238Y-89167707D01*
X90702190Y-89107231D01*
X90762666Y-88986279D01*
X90762666Y-88925803D01*
X90702190Y-88804850D01*
X90581238Y-88744374D01*
X90399809Y-88744374D01*
X90278857Y-88683898D01*
X90218380Y-88562945D01*
X90218380Y-88502469D01*
X90278857Y-88381517D01*
X90399809Y-88321041D01*
X90581238Y-88321041D01*
X90702190Y-88381517D01*
X91306952Y-89167707D02*
X91306952Y-87897707D01*
X91851238Y-89167707D02*
X91851238Y-88502469D01*
X91790761Y-88381517D01*
X91669809Y-88321041D01*
X91488380Y-88321041D01*
X91367428Y-88381517D01*
X91306952Y-88441993D01*
X201210333Y-121230369D02*
X200787000Y-121230369D01*
X200787000Y-121895607D02*
X200787000Y-120625607D01*
X201391761Y-120625607D01*
X201815095Y-121532750D02*
X202419857Y-121532750D01*
X201694142Y-121895607D02*
X202117476Y-120625607D01*
X202540809Y-121895607D01*
X202964142Y-121895607D02*
X202964142Y-120625607D01*
X203689857Y-121895607D01*
X203689857Y-120625607D01*
X205806523Y-121048941D02*
X205806523Y-121895607D01*
X205504142Y-120565131D02*
X205201761Y-121472274D01*
X205987952Y-121472274D01*
X201337333Y-114118369D02*
X200914000Y-114118369D01*
X200914000Y-114783607D02*
X200914000Y-113513607D01*
X201518761Y-113513607D01*
X201942095Y-114420750D02*
X202546857Y-114420750D01*
X201821142Y-114783607D02*
X202244476Y-113513607D01*
X202667809Y-114783607D01*
X203091142Y-114783607D02*
X203091142Y-113513607D01*
X203816857Y-114783607D01*
X203816857Y-113513607D01*
X205268285Y-113513607D02*
X206054476Y-113513607D01*
X205631142Y-113997417D01*
X205812571Y-113997417D01*
X205933523Y-114057893D01*
X205994000Y-114118369D01*
X206054476Y-114239322D01*
X206054476Y-114541703D01*
X205994000Y-114662655D01*
X205933523Y-114723131D01*
X205812571Y-114783607D01*
X205449714Y-114783607D01*
X205328761Y-114723131D01*
X205268285Y-114662655D01*
X201591333Y-107298469D02*
X201168000Y-107298469D01*
X201168000Y-107963707D02*
X201168000Y-106693707D01*
X201772761Y-106693707D01*
X202196095Y-107600850D02*
X202800857Y-107600850D01*
X202075142Y-107963707D02*
X202498476Y-106693707D01*
X202921809Y-107963707D01*
X203345142Y-107963707D02*
X203345142Y-106693707D01*
X204070857Y-107963707D01*
X204070857Y-106693707D01*
X205582761Y-106814660D02*
X205643238Y-106754184D01*
X205764190Y-106693707D01*
X206066571Y-106693707D01*
X206187523Y-106754184D01*
X206248000Y-106814660D01*
X206308476Y-106935612D01*
X206308476Y-107056564D01*
X206248000Y-107237993D01*
X205522285Y-107963707D01*
X206308476Y-107963707D01*
X201464333Y-100059469D02*
X201041000Y-100059469D01*
X201041000Y-100724707D02*
X201041000Y-99454707D01*
X201645761Y-99454707D01*
X202069095Y-100361850D02*
X202673857Y-100361850D01*
X201948142Y-100724707D02*
X202371476Y-99454707D01*
X202794809Y-100724707D01*
X203218142Y-100724707D02*
X203218142Y-99454707D01*
X203943857Y-100724707D01*
X203943857Y-99454707D01*
X206181476Y-100724707D02*
X205455761Y-100724707D01*
X205818619Y-100724707D02*
X205818619Y-99454707D01*
X205697666Y-99636136D01*
X205576714Y-99757088D01*
X205455761Y-99817564D01*
X173757777Y-119832126D02*
X173757777Y-118932126D01*
X174057777Y-119574984D01*
X174357777Y-118932126D01*
X174357777Y-119832126D01*
X174743491Y-119574984D02*
X175172062Y-119574984D01*
X174657777Y-119832126D02*
X174957777Y-118932126D01*
X175257777Y-119832126D01*
X175514920Y-119789269D02*
X175643491Y-119832126D01*
X175857777Y-119832126D01*
X175943491Y-119789269D01*
X175986348Y-119746412D01*
X176029205Y-119660698D01*
X176029205Y-119574984D01*
X175986348Y-119489269D01*
X175943491Y-119446412D01*
X175857777Y-119403555D01*
X175686348Y-119360698D01*
X175600634Y-119317841D01*
X175557777Y-119274984D01*
X175514920Y-119189269D01*
X175514920Y-119103555D01*
X175557777Y-119017841D01*
X175600634Y-118974984D01*
X175686348Y-118932126D01*
X175900634Y-118932126D01*
X176029205Y-118974984D01*
X176286348Y-118932126D02*
X176800634Y-118932126D01*
X176543491Y-119832126D02*
X176543491Y-118932126D01*
X177100634Y-119360698D02*
X177400634Y-119360698D01*
X177529205Y-119832126D02*
X177100634Y-119832126D01*
X177100634Y-118932126D01*
X177529205Y-118932126D01*
X178429205Y-119832126D02*
X178129205Y-119403555D01*
X177914920Y-119832126D02*
X177914920Y-118932126D01*
X178257777Y-118932126D01*
X178343491Y-118974984D01*
X178386348Y-119017841D01*
X178429205Y-119103555D01*
X178429205Y-119232126D01*
X178386348Y-119317841D01*
X178343491Y-119360698D01*
X178257777Y-119403555D01*
X177914920Y-119403555D01*
X179372062Y-118932126D02*
X179672062Y-119832126D01*
X179972062Y-118932126D01*
X180743491Y-119832126D02*
X180229205Y-119832126D01*
X180486348Y-119832126D02*
X180486348Y-118932126D01*
X180400634Y-119060698D01*
X180314920Y-119146412D01*
X180229205Y-119189269D01*
X181814920Y-119360698D02*
X182114920Y-119360698D01*
X182243491Y-119832126D02*
X181814920Y-119832126D01*
X181814920Y-118932126D01*
X182243491Y-118932126D01*
X183100634Y-119832126D02*
X182586348Y-119832126D01*
X182843491Y-119832126D02*
X182843491Y-118932126D01*
X182757777Y-119060698D01*
X182672062Y-119146412D01*
X182586348Y-119189269D01*
X183657777Y-118932126D02*
X183743491Y-118932126D01*
X183829205Y-118974984D01*
X183872062Y-119017841D01*
X183914920Y-119103555D01*
X183957777Y-119274984D01*
X183957777Y-119489269D01*
X183914920Y-119660698D01*
X183872062Y-119746412D01*
X183829205Y-119789269D01*
X183743491Y-119832126D01*
X183657777Y-119832126D01*
X183572062Y-119789269D01*
X183529205Y-119746412D01*
X183486348Y-119660698D01*
X183443491Y-119489269D01*
X183443491Y-119274984D01*
X183486348Y-119103555D01*
X183529205Y-119017841D01*
X183572062Y-118974984D01*
X183657777Y-118932126D01*
X184343491Y-119746412D02*
X184386348Y-119789269D01*
X184343491Y-119832126D01*
X184300634Y-119789269D01*
X184343491Y-119746412D01*
X184343491Y-119832126D01*
X185243491Y-119832126D02*
X184729205Y-119832126D01*
X184986348Y-119832126D02*
X184986348Y-118932126D01*
X184900634Y-119060698D01*
X184814920Y-119146412D01*
X184729205Y-119189269D01*
X167672062Y-121385326D02*
X167672062Y-120485326D01*
X168014920Y-120485326D01*
X168100634Y-120528184D01*
X168143491Y-120571041D01*
X168186348Y-120656755D01*
X168186348Y-120785326D01*
X168143491Y-120871041D01*
X168100634Y-120913898D01*
X168014920Y-120956755D01*
X167672062Y-120956755D01*
X168572062Y-121385326D02*
X168572062Y-120485326D01*
X169000634Y-120913898D02*
X169300634Y-120913898D01*
X169429205Y-121385326D02*
X169000634Y-121385326D01*
X169000634Y-120485326D01*
X169429205Y-120485326D01*
X170329205Y-121385326D02*
X170029205Y-120956755D01*
X169814920Y-121385326D02*
X169814920Y-120485326D01*
X170157777Y-120485326D01*
X170243491Y-120528184D01*
X170286348Y-120571041D01*
X170329205Y-120656755D01*
X170329205Y-120785326D01*
X170286348Y-120871041D01*
X170243491Y-120913898D01*
X170157777Y-120956755D01*
X169814920Y-120956755D01*
X171229205Y-121385326D02*
X170929205Y-120956755D01*
X170714920Y-121385326D02*
X170714920Y-120485326D01*
X171057777Y-120485326D01*
X171143491Y-120528184D01*
X171186348Y-120571041D01*
X171229205Y-120656755D01*
X171229205Y-120785326D01*
X171186348Y-120871041D01*
X171143491Y-120913898D01*
X171057777Y-120956755D01*
X170714920Y-120956755D01*
X171614920Y-120913898D02*
X171914920Y-120913898D01*
X172043491Y-121385326D02*
X171614920Y-121385326D01*
X171614920Y-120485326D01*
X172043491Y-120485326D01*
X172429205Y-121042469D02*
X173114920Y-121042469D01*
X173714920Y-120485326D02*
X173886348Y-120485326D01*
X173972062Y-120528184D01*
X174057777Y-120613898D01*
X174100634Y-120785326D01*
X174100634Y-121085326D01*
X174057777Y-121256755D01*
X173972062Y-121342469D01*
X173886348Y-121385326D01*
X173714920Y-121385326D01*
X173629205Y-121342469D01*
X173543491Y-121256755D01*
X173500634Y-121085326D01*
X173500634Y-120785326D01*
X173543491Y-120613898D01*
X173629205Y-120528184D01*
X173714920Y-120485326D01*
X174914920Y-121385326D02*
X174486348Y-121385326D01*
X174486348Y-120485326D01*
X175214920Y-121385326D02*
X175214920Y-120485326D01*
X175514920Y-120485326D02*
X175814920Y-121385326D01*
X176114920Y-120485326D01*
X176414920Y-121385326D02*
X176414920Y-120485326D01*
X176843491Y-120913898D02*
X177143491Y-120913898D01*
X177272062Y-121385326D02*
X176843491Y-121385326D01*
X176843491Y-120485326D01*
X177272062Y-120485326D01*
X178172062Y-121385326D02*
X177872062Y-120956755D01*
X177657777Y-121385326D02*
X177657777Y-120485326D01*
X178000634Y-120485326D01*
X178086348Y-120528184D01*
X178129205Y-120571041D01*
X178172062Y-120656755D01*
X178172062Y-120785326D01*
X178129205Y-120871041D01*
X178086348Y-120913898D01*
X178000634Y-120956755D01*
X177657777Y-120956755D01*
X179243491Y-121385326D02*
X179243491Y-120485326D01*
X179543491Y-121128184D01*
X179843491Y-120485326D01*
X179843491Y-121385326D01*
X180272062Y-120913898D02*
X180572062Y-120913898D01*
X180700634Y-121385326D02*
X180272062Y-121385326D01*
X180272062Y-120485326D01*
X180700634Y-120485326D01*
X181086348Y-121385326D02*
X181086348Y-120485326D01*
X181943491Y-121385326D02*
X181514920Y-121385326D01*
X181514920Y-120485326D01*
X182672062Y-121385326D02*
X182243491Y-121385326D01*
X182243491Y-120485326D01*
X182972062Y-120913898D02*
X183272062Y-120913898D01*
X183400634Y-121385326D02*
X182972062Y-121385326D01*
X182972062Y-120485326D01*
X183400634Y-120485326D01*
X183786348Y-120485326D02*
X183786348Y-121213898D01*
X183829205Y-121299612D01*
X183872062Y-121342469D01*
X183957777Y-121385326D01*
X184129205Y-121385326D01*
X184214920Y-121342469D01*
X184257777Y-121299612D01*
X184300634Y-121213898D01*
X184300634Y-120485326D01*
X185243491Y-121385326D02*
X184943491Y-120956755D01*
X184729205Y-121385326D02*
X184729205Y-120485326D01*
X185072062Y-120485326D01*
X185157777Y-120528184D01*
X185200634Y-120571041D01*
X185243491Y-120656755D01*
X185243491Y-120785326D01*
X185200634Y-120871041D01*
X185157777Y-120913898D01*
X185072062Y-120956755D01*
X184729205Y-120956755D01*
X182157777Y-122124241D02*
X182200634Y-122081384D01*
X182286348Y-122038526D01*
X182500634Y-122038526D01*
X182586348Y-122081384D01*
X182629205Y-122124241D01*
X182672062Y-122209955D01*
X182672062Y-122295669D01*
X182629205Y-122424241D01*
X182114920Y-122938526D01*
X182672062Y-122938526D01*
X183229205Y-122038526D02*
X183314920Y-122038526D01*
X183400634Y-122081384D01*
X183443491Y-122124241D01*
X183486348Y-122209955D01*
X183529205Y-122381384D01*
X183529205Y-122595669D01*
X183486348Y-122767098D01*
X183443491Y-122852812D01*
X183400634Y-122895669D01*
X183314920Y-122938526D01*
X183229205Y-122938526D01*
X183143491Y-122895669D01*
X183100634Y-122852812D01*
X183057777Y-122767098D01*
X183014920Y-122595669D01*
X183014920Y-122381384D01*
X183057777Y-122209955D01*
X183100634Y-122124241D01*
X183143491Y-122081384D01*
X183229205Y-122038526D01*
X184386348Y-122938526D02*
X183872062Y-122938526D01*
X184129205Y-122938526D02*
X184129205Y-122038526D01*
X184043491Y-122167098D01*
X183957777Y-122252812D01*
X183872062Y-122295669D01*
X184900634Y-122424241D02*
X184814920Y-122381384D01*
X184772062Y-122338526D01*
X184729205Y-122252812D01*
X184729205Y-122209955D01*
X184772062Y-122124241D01*
X184814920Y-122081384D01*
X184900634Y-122038526D01*
X185072062Y-122038526D01*
X185157777Y-122081384D01*
X185200634Y-122124241D01*
X185243491Y-122209955D01*
X185243491Y-122252812D01*
X185200634Y-122338526D01*
X185157777Y-122381384D01*
X185072062Y-122424241D01*
X184900634Y-122424241D01*
X184814920Y-122467098D01*
X184772062Y-122509955D01*
X184729205Y-122595669D01*
X184729205Y-122767098D01*
X184772062Y-122852812D01*
X184814920Y-122895669D01*
X184900634Y-122938526D01*
X185072062Y-122938526D01*
X185157777Y-122895669D01*
X185200634Y-122852812D01*
X185243491Y-122767098D01*
X185243491Y-122595669D01*
X185200634Y-122509955D01*
X185157777Y-122467098D01*
X185072062Y-122424241D01*
X120531285Y-78840326D02*
X120531285Y-77940326D01*
X120874142Y-77940326D01*
X120959857Y-77983184D01*
X121002714Y-78026041D01*
X121045571Y-78111755D01*
X121045571Y-78240326D01*
X121002714Y-78326041D01*
X120959857Y-78368898D01*
X120874142Y-78411755D01*
X120531285Y-78411755D01*
X121945571Y-78754612D02*
X121902714Y-78797469D01*
X121774142Y-78840326D01*
X121688428Y-78840326D01*
X121559857Y-78797469D01*
X121474142Y-78711755D01*
X121431285Y-78626041D01*
X121388428Y-78454612D01*
X121388428Y-78326041D01*
X121431285Y-78154612D01*
X121474142Y-78068898D01*
X121559857Y-77983184D01*
X121688428Y-77940326D01*
X121774142Y-77940326D01*
X121902714Y-77983184D01*
X121945571Y-78026041D01*
X123017000Y-78840326D02*
X123017000Y-77940326D01*
X123317000Y-78583184D01*
X123617000Y-77940326D01*
X123617000Y-78840326D01*
X124045571Y-78840326D02*
X124045571Y-77940326D01*
X124388428Y-77940326D01*
X124474142Y-77983184D01*
X124517000Y-78026041D01*
X124559857Y-78111755D01*
X124559857Y-78240326D01*
X124517000Y-78326041D01*
X124474142Y-78368898D01*
X124388428Y-78411755D01*
X124045571Y-78411755D01*
X124945571Y-78840326D02*
X124945571Y-77940326D01*
X125288428Y-77940326D01*
X125374142Y-77983184D01*
X125417000Y-78026041D01*
X125459857Y-78111755D01*
X125459857Y-78240326D01*
X125417000Y-78326041D01*
X125374142Y-78368898D01*
X125288428Y-78411755D01*
X124945571Y-78411755D01*
X125717000Y-77940326D02*
X126231285Y-77940326D01*
X125974142Y-78840326D02*
X125974142Y-77940326D01*
X151860571Y-78840326D02*
X151860571Y-77940326D01*
X152203428Y-77940326D01*
X152289142Y-77983184D01*
X152332000Y-78026041D01*
X152374857Y-78111755D01*
X152374857Y-78240326D01*
X152332000Y-78326041D01*
X152289142Y-78368898D01*
X152203428Y-78411755D01*
X151860571Y-78411755D01*
X153274857Y-78754612D02*
X153232000Y-78797469D01*
X153103428Y-78840326D01*
X153017714Y-78840326D01*
X152889142Y-78797469D01*
X152803428Y-78711755D01*
X152760571Y-78626041D01*
X152717714Y-78454612D01*
X152717714Y-78326041D01*
X152760571Y-78154612D01*
X152803428Y-78068898D01*
X152889142Y-77983184D01*
X153017714Y-77940326D01*
X153103428Y-77940326D01*
X153232000Y-77983184D01*
X153274857Y-78026041D01*
X154346285Y-78840326D02*
X154346285Y-77940326D01*
X154646285Y-78583184D01*
X154946285Y-77940326D01*
X154946285Y-78840326D01*
X155760571Y-78840326D02*
X155760571Y-78368898D01*
X155717714Y-78283184D01*
X155632000Y-78240326D01*
X155460571Y-78240326D01*
X155374857Y-78283184D01*
X155760571Y-78797469D02*
X155674857Y-78840326D01*
X155460571Y-78840326D01*
X155374857Y-78797469D01*
X155332000Y-78711755D01*
X155332000Y-78626041D01*
X155374857Y-78540326D01*
X155460571Y-78497469D01*
X155674857Y-78497469D01*
X155760571Y-78454612D01*
X156189142Y-78840326D02*
X156189142Y-78240326D01*
X156189142Y-77940326D02*
X156146285Y-77983184D01*
X156189142Y-78026041D01*
X156232000Y-77983184D01*
X156189142Y-77940326D01*
X156189142Y-78026041D01*
X156617714Y-78240326D02*
X156617714Y-78840326D01*
X156617714Y-78326041D02*
X156660571Y-78283184D01*
X156746285Y-78240326D01*
X156874857Y-78240326D01*
X156960571Y-78283184D01*
X157003428Y-78368898D01*
X157003428Y-78840326D01*
X184639142Y-59790326D02*
X184639142Y-58890326D01*
X184939142Y-59533184D01*
X185239142Y-58890326D01*
X185239142Y-59790326D01*
X185667714Y-59790326D02*
X185667714Y-58890326D01*
X186010571Y-58890326D01*
X186096285Y-58933184D01*
X186139142Y-58976041D01*
X186182000Y-59061755D01*
X186182000Y-59190326D01*
X186139142Y-59276041D01*
X186096285Y-59318898D01*
X186010571Y-59361755D01*
X185667714Y-59361755D01*
X186567714Y-59790326D02*
X186567714Y-58890326D01*
X186910571Y-58890326D01*
X186996285Y-58933184D01*
X187039142Y-58976041D01*
X187082000Y-59061755D01*
X187082000Y-59190326D01*
X187039142Y-59276041D01*
X186996285Y-59318898D01*
X186910571Y-59361755D01*
X186567714Y-59361755D01*
X187339142Y-58890326D02*
X187853428Y-58890326D01*
X187596285Y-59790326D02*
X187596285Y-58890326D01*
X195825571Y-59790326D02*
X195825571Y-58890326D01*
X196168428Y-58890326D01*
X196254142Y-58933184D01*
X196297000Y-58976041D01*
X196339857Y-59061755D01*
X196339857Y-59190326D01*
X196297000Y-59276041D01*
X196254142Y-59318898D01*
X196168428Y-59361755D01*
X195825571Y-59361755D01*
X196854142Y-59790326D02*
X196768428Y-59747469D01*
X196725571Y-59704612D01*
X196682714Y-59618898D01*
X196682714Y-59361755D01*
X196725571Y-59276041D01*
X196768428Y-59233184D01*
X196854142Y-59190326D01*
X196982714Y-59190326D01*
X197068428Y-59233184D01*
X197111285Y-59276041D01*
X197154142Y-59361755D01*
X197154142Y-59618898D01*
X197111285Y-59704612D01*
X197068428Y-59747469D01*
X196982714Y-59790326D01*
X196854142Y-59790326D01*
X197497000Y-59747469D02*
X197582714Y-59790326D01*
X197754142Y-59790326D01*
X197839857Y-59747469D01*
X197882714Y-59661755D01*
X197882714Y-59618898D01*
X197839857Y-59533184D01*
X197754142Y-59490326D01*
X197625571Y-59490326D01*
X197539857Y-59447469D01*
X197497000Y-59361755D01*
X197497000Y-59318898D01*
X197539857Y-59233184D01*
X197625571Y-59190326D01*
X197754142Y-59190326D01*
X197839857Y-59233184D01*
X198268428Y-59790326D02*
X198268428Y-59190326D01*
X198268428Y-58890326D02*
X198225571Y-58933184D01*
X198268428Y-58976041D01*
X198311285Y-58933184D01*
X198268428Y-58890326D01*
X198268428Y-58976041D01*
X198568428Y-59190326D02*
X198911285Y-59190326D01*
X198697000Y-58890326D02*
X198697000Y-59661755D01*
X198739857Y-59747469D01*
X198825571Y-59790326D01*
X198911285Y-59790326D01*
X199211285Y-59790326D02*
X199211285Y-59190326D01*
X199211285Y-58890326D02*
X199168428Y-58933184D01*
X199211285Y-58976041D01*
X199254142Y-58933184D01*
X199211285Y-58890326D01*
X199211285Y-58976041D01*
X199554142Y-59190326D02*
X199768428Y-59790326D01*
X199982714Y-59190326D01*
X200668428Y-59747469D02*
X200582714Y-59790326D01*
X200411285Y-59790326D01*
X200325571Y-59747469D01*
X200282714Y-59661755D01*
X200282714Y-59318898D01*
X200325571Y-59233184D01*
X200411285Y-59190326D01*
X200582714Y-59190326D01*
X200668428Y-59233184D01*
X200711285Y-59318898D01*
X200711285Y-59404612D01*
X200282714Y-59490326D01*
X172729857Y-59790326D02*
X172729857Y-58890326D01*
X173244142Y-59790326D01*
X173244142Y-58890326D01*
X174015571Y-59747469D02*
X173929857Y-59790326D01*
X173758428Y-59790326D01*
X173672714Y-59747469D01*
X173629857Y-59661755D01*
X173629857Y-59318898D01*
X173672714Y-59233184D01*
X173758428Y-59190326D01*
X173929857Y-59190326D01*
X174015571Y-59233184D01*
X174058428Y-59318898D01*
X174058428Y-59404612D01*
X173629857Y-59490326D01*
X174829857Y-59190326D02*
X174829857Y-59918898D01*
X174787000Y-60004612D01*
X174744142Y-60047469D01*
X174658428Y-60090326D01*
X174529857Y-60090326D01*
X174444142Y-60047469D01*
X174829857Y-59747469D02*
X174744142Y-59790326D01*
X174572714Y-59790326D01*
X174487000Y-59747469D01*
X174444142Y-59704612D01*
X174401285Y-59618898D01*
X174401285Y-59361755D01*
X174444142Y-59276041D01*
X174487000Y-59233184D01*
X174572714Y-59190326D01*
X174744142Y-59190326D01*
X174829857Y-59233184D01*
X175644142Y-59790326D02*
X175644142Y-59318898D01*
X175601285Y-59233184D01*
X175515571Y-59190326D01*
X175344142Y-59190326D01*
X175258428Y-59233184D01*
X175644142Y-59747469D02*
X175558428Y-59790326D01*
X175344142Y-59790326D01*
X175258428Y-59747469D01*
X175215571Y-59661755D01*
X175215571Y-59576041D01*
X175258428Y-59490326D01*
X175344142Y-59447469D01*
X175558428Y-59447469D01*
X175644142Y-59404612D01*
X175944142Y-59190326D02*
X176287000Y-59190326D01*
X176072714Y-58890326D02*
X176072714Y-59661755D01*
X176115571Y-59747469D01*
X176201285Y-59790326D01*
X176287000Y-59790326D01*
X176587000Y-59790326D02*
X176587000Y-59190326D01*
X176587000Y-58890326D02*
X176544142Y-58933184D01*
X176587000Y-58976041D01*
X176629857Y-58933184D01*
X176587000Y-58890326D01*
X176587000Y-58976041D01*
X176929857Y-59190326D02*
X177144142Y-59790326D01*
X177358428Y-59190326D01*
X178044142Y-59747469D02*
X177958428Y-59790326D01*
X177787000Y-59790326D01*
X177701285Y-59747469D01*
X177658428Y-59661755D01*
X177658428Y-59318898D01*
X177701285Y-59233184D01*
X177787000Y-59190326D01*
X177958428Y-59190326D01*
X178044142Y-59233184D01*
X178087000Y-59318898D01*
X178087000Y-59404612D01*
X177658428Y-59490326D01*
X143364142Y-101435326D02*
X143364142Y-102163898D01*
X143407000Y-102249612D01*
X143449857Y-102292469D01*
X143535571Y-102335326D01*
X143707000Y-102335326D01*
X143792714Y-102292469D01*
X143835571Y-102249612D01*
X143878428Y-102163898D01*
X143878428Y-101435326D01*
X144264142Y-102292469D02*
X144392714Y-102335326D01*
X144607000Y-102335326D01*
X144692714Y-102292469D01*
X144735571Y-102249612D01*
X144778428Y-102163898D01*
X144778428Y-102078184D01*
X144735571Y-101992469D01*
X144692714Y-101949612D01*
X144607000Y-101906755D01*
X144435571Y-101863898D01*
X144349857Y-101821041D01*
X144307000Y-101778184D01*
X144264142Y-101692469D01*
X144264142Y-101606755D01*
X144307000Y-101521041D01*
X144349857Y-101478184D01*
X144435571Y-101435326D01*
X144649857Y-101435326D01*
X144778428Y-101478184D01*
X145164142Y-101863898D02*
X145464142Y-101863898D01*
X145592714Y-102335326D02*
X145164142Y-102335326D01*
X145164142Y-101435326D01*
X145592714Y-101435326D01*
X146492714Y-102335326D02*
X146192714Y-101906755D01*
X145978428Y-102335326D02*
X145978428Y-101435326D01*
X146321285Y-101435326D01*
X146407000Y-101478184D01*
X146449857Y-101521041D01*
X146492714Y-101606755D01*
X146492714Y-101735326D01*
X146449857Y-101821041D01*
X146407000Y-101863898D01*
X146321285Y-101906755D01*
X145978428Y-101906755D01*
X136614857Y-102335326D02*
X136314857Y-101906755D01*
X136100571Y-102335326D02*
X136100571Y-101435326D01*
X136443428Y-101435326D01*
X136529142Y-101478184D01*
X136572000Y-101521041D01*
X136614857Y-101606755D01*
X136614857Y-101735326D01*
X136572000Y-101821041D01*
X136529142Y-101863898D01*
X136443428Y-101906755D01*
X136100571Y-101906755D01*
X137000571Y-101863898D02*
X137300571Y-101863898D01*
X137429142Y-102335326D02*
X137000571Y-102335326D01*
X137000571Y-101435326D01*
X137429142Y-101435326D01*
X137772000Y-102292469D02*
X137900571Y-102335326D01*
X138114857Y-102335326D01*
X138200571Y-102292469D01*
X138243428Y-102249612D01*
X138286285Y-102163898D01*
X138286285Y-102078184D01*
X138243428Y-101992469D01*
X138200571Y-101949612D01*
X138114857Y-101906755D01*
X137943428Y-101863898D01*
X137857714Y-101821041D01*
X137814857Y-101778184D01*
X137772000Y-101692469D01*
X137772000Y-101606755D01*
X137814857Y-101521041D01*
X137857714Y-101478184D01*
X137943428Y-101435326D01*
X138157714Y-101435326D01*
X138286285Y-101478184D01*
X138672000Y-101863898D02*
X138972000Y-101863898D01*
X139100571Y-102335326D02*
X138672000Y-102335326D01*
X138672000Y-101435326D01*
X139100571Y-101435326D01*
X139357714Y-101435326D02*
X139872000Y-101435326D01*
X139614857Y-102335326D02*
X139614857Y-101435326D01*
X162636285Y-116718184D02*
X162550571Y-116675326D01*
X162422000Y-116675326D01*
X162293428Y-116718184D01*
X162207714Y-116803898D01*
X162164857Y-116889612D01*
X162122000Y-117061041D01*
X162122000Y-117189612D01*
X162164857Y-117361041D01*
X162207714Y-117446755D01*
X162293428Y-117532469D01*
X162422000Y-117575326D01*
X162507714Y-117575326D01*
X162636285Y-117532469D01*
X162679142Y-117489612D01*
X162679142Y-117189612D01*
X162507714Y-117189612D01*
X163064857Y-117575326D02*
X163064857Y-116675326D01*
X163579142Y-117575326D01*
X163579142Y-116675326D01*
X164007714Y-117575326D02*
X164007714Y-116675326D01*
X164222000Y-116675326D01*
X164350571Y-116718184D01*
X164436285Y-116803898D01*
X164479142Y-116889612D01*
X164522000Y-117061041D01*
X164522000Y-117189612D01*
X164479142Y-117361041D01*
X164436285Y-117446755D01*
X164350571Y-117532469D01*
X164222000Y-117575326D01*
X164007714Y-117575326D01*
X154502000Y-116675326D02*
X154802000Y-117575326D01*
X155102000Y-116675326D01*
X155402000Y-117575326D02*
X155402000Y-116675326D01*
X155616285Y-116675326D01*
X155744857Y-116718184D01*
X155830571Y-116803898D01*
X155873428Y-116889612D01*
X155916285Y-117061041D01*
X155916285Y-117189612D01*
X155873428Y-117361041D01*
X155830571Y-117446755D01*
X155744857Y-117532469D01*
X155616285Y-117575326D01*
X155402000Y-117575326D01*
X156302000Y-117575326D02*
X156302000Y-116675326D01*
X156516285Y-116675326D01*
X156644857Y-116718184D01*
X156730571Y-116803898D01*
X156773428Y-116889612D01*
X156816285Y-117061041D01*
X156816285Y-117189612D01*
X156773428Y-117361041D01*
X156730571Y-117446755D01*
X156644857Y-117532469D01*
X156516285Y-117575326D01*
X156302000Y-117575326D01*
X146967714Y-114135326D02*
X147524857Y-114135326D01*
X147224857Y-114478184D01*
X147353428Y-114478184D01*
X147439142Y-114521041D01*
X147482000Y-114563898D01*
X147524857Y-114649612D01*
X147524857Y-114863898D01*
X147482000Y-114949612D01*
X147439142Y-114992469D01*
X147353428Y-115035326D01*
X147096285Y-115035326D01*
X147010571Y-114992469D01*
X146967714Y-114949612D01*
X147782000Y-114135326D02*
X148082000Y-115035326D01*
X148382000Y-114135326D01*
X148596285Y-114135326D02*
X149153428Y-114135326D01*
X148853428Y-114478184D01*
X148982000Y-114478184D01*
X149067714Y-114521041D01*
X149110571Y-114563898D01*
X149153428Y-114649612D01*
X149153428Y-114863898D01*
X149110571Y-114949612D01*
X149067714Y-114992469D01*
X148982000Y-115035326D01*
X148724857Y-115035326D01*
X148639142Y-114992469D01*
X148596285Y-114949612D01*
X140290571Y-114135326D02*
X139862000Y-114135326D01*
X139819142Y-114563898D01*
X139862000Y-114521041D01*
X139947714Y-114478184D01*
X140162000Y-114478184D01*
X140247714Y-114521041D01*
X140290571Y-114563898D01*
X140333428Y-114649612D01*
X140333428Y-114863898D01*
X140290571Y-114949612D01*
X140247714Y-114992469D01*
X140162000Y-115035326D01*
X139947714Y-115035326D01*
X139862000Y-114992469D01*
X139819142Y-114949612D01*
X140590571Y-114135326D02*
X140890571Y-115035326D01*
X141190571Y-114135326D01*
X132284857Y-115035326D02*
X131770571Y-115035326D01*
X132027714Y-115035326D02*
X132027714Y-114135326D01*
X131942000Y-114263898D01*
X131856285Y-114349612D01*
X131770571Y-114392469D01*
X132627714Y-114221041D02*
X132670571Y-114178184D01*
X132756285Y-114135326D01*
X132970571Y-114135326D01*
X133056285Y-114178184D01*
X133099142Y-114221041D01*
X133142000Y-114306755D01*
X133142000Y-114392469D01*
X133099142Y-114521041D01*
X132584857Y-115035326D01*
X133142000Y-115035326D01*
X133399142Y-114135326D02*
X133699142Y-115035326D01*
X133999142Y-114135326D01*
X118087000Y-117575326D02*
X117787000Y-117146755D01*
X117572714Y-117575326D02*
X117572714Y-116675326D01*
X117915571Y-116675326D01*
X118001285Y-116718184D01*
X118044142Y-116761041D01*
X118087000Y-116846755D01*
X118087000Y-116975326D01*
X118044142Y-117061041D01*
X118001285Y-117103898D01*
X117915571Y-117146755D01*
X117572714Y-117146755D01*
X118387000Y-116675326D02*
X118987000Y-117575326D01*
X118987000Y-116675326D02*
X118387000Y-117575326D01*
X116466285Y-112409612D02*
X116423428Y-112452469D01*
X116294857Y-112495326D01*
X116209142Y-112495326D01*
X116080571Y-112452469D01*
X115994857Y-112366755D01*
X115952000Y-112281041D01*
X115909142Y-112109612D01*
X115909142Y-111981041D01*
X115952000Y-111809612D01*
X115994857Y-111723898D01*
X116080571Y-111638184D01*
X116209142Y-111595326D01*
X116294857Y-111595326D01*
X116423428Y-111638184D01*
X116466285Y-111681041D01*
X116809142Y-112238184D02*
X117237714Y-112238184D01*
X116723428Y-112495326D02*
X117023428Y-111595326D01*
X117323428Y-112495326D01*
X117623428Y-112495326D02*
X117623428Y-111595326D01*
X118137714Y-112495326D01*
X118137714Y-111595326D01*
X118566285Y-112152469D02*
X119252000Y-112152469D01*
X118909142Y-112495326D02*
X118909142Y-111809612D01*
X117551285Y-114135326D02*
X118065571Y-114135326D01*
X117808428Y-115035326D02*
X117808428Y-114135326D01*
X118279857Y-114135326D02*
X118879857Y-115035326D01*
X118879857Y-114135326D02*
X118279857Y-115035326D01*
X120404857Y-107329612D02*
X120362000Y-107372469D01*
X120233428Y-107415326D01*
X120147714Y-107415326D01*
X120019142Y-107372469D01*
X119933428Y-107286755D01*
X119890571Y-107201041D01*
X119847714Y-107029612D01*
X119847714Y-106901041D01*
X119890571Y-106729612D01*
X119933428Y-106643898D01*
X120019142Y-106558184D01*
X120147714Y-106515326D01*
X120233428Y-106515326D01*
X120362000Y-106558184D01*
X120404857Y-106601041D01*
X120747714Y-107158184D02*
X121176285Y-107158184D01*
X120662000Y-107415326D02*
X120962000Y-106515326D01*
X121262000Y-107415326D01*
X121562000Y-107415326D02*
X121562000Y-106515326D01*
X122076285Y-107415326D01*
X122076285Y-106515326D01*
X122976285Y-107415326D02*
X122462000Y-107415326D01*
X122719142Y-107415326D02*
X122719142Y-106515326D01*
X122633428Y-106643898D01*
X122547714Y-106729612D01*
X122462000Y-106772469D01*
X116466285Y-109869612D02*
X116423428Y-109912469D01*
X116294857Y-109955326D01*
X116209142Y-109955326D01*
X116080571Y-109912469D01*
X115994857Y-109826755D01*
X115952000Y-109741041D01*
X115909142Y-109569612D01*
X115909142Y-109441041D01*
X115952000Y-109269612D01*
X115994857Y-109183898D01*
X116080571Y-109098184D01*
X116209142Y-109055326D01*
X116294857Y-109055326D01*
X116423428Y-109098184D01*
X116466285Y-109141041D01*
X116809142Y-109698184D02*
X117237714Y-109698184D01*
X116723428Y-109955326D02*
X117023428Y-109055326D01*
X117323428Y-109955326D01*
X117623428Y-109955326D02*
X117623428Y-109055326D01*
X118137714Y-109955326D01*
X118137714Y-109055326D01*
X118566285Y-109612469D02*
X119252000Y-109612469D01*
X193429857Y-97169612D02*
X193387000Y-97212469D01*
X193258428Y-97255326D01*
X193172714Y-97255326D01*
X193044142Y-97212469D01*
X192958428Y-97126755D01*
X192915571Y-97041041D01*
X192872714Y-96869612D01*
X192872714Y-96741041D01*
X192915571Y-96569612D01*
X192958428Y-96483898D01*
X193044142Y-96398184D01*
X193172714Y-96355326D01*
X193258428Y-96355326D01*
X193387000Y-96398184D01*
X193429857Y-96441041D01*
X193772714Y-96998184D02*
X194201285Y-96998184D01*
X193687000Y-97255326D02*
X193987000Y-96355326D01*
X194287000Y-97255326D01*
X194587000Y-97255326D02*
X194587000Y-96355326D01*
X195101285Y-97255326D01*
X195101285Y-96355326D01*
X196001285Y-97255326D02*
X195487000Y-97255326D01*
X195744142Y-97255326D02*
X195744142Y-96355326D01*
X195658428Y-96483898D01*
X195572714Y-96569612D01*
X195487000Y-96612469D01*
X190399142Y-103983184D02*
X189970571Y-104283184D01*
X190399142Y-104497469D02*
X189499142Y-104497469D01*
X189499142Y-104154612D01*
X189542000Y-104068898D01*
X189584857Y-104026041D01*
X189670571Y-103983184D01*
X189799142Y-103983184D01*
X189884857Y-104026041D01*
X189927714Y-104068898D01*
X189970571Y-104154612D01*
X189970571Y-104497469D01*
X189499142Y-103683184D02*
X190399142Y-103083184D01*
X189499142Y-103083184D02*
X190399142Y-103683184D01*
X192039142Y-104518898D02*
X192039142Y-104004612D01*
X192939142Y-104261755D02*
X192039142Y-104261755D01*
X192039142Y-103790326D02*
X192939142Y-103190326D01*
X192039142Y-103190326D02*
X192939142Y-103790326D01*
X195393428Y-105603898D02*
X195436285Y-105646755D01*
X195479142Y-105775326D01*
X195479142Y-105861041D01*
X195436285Y-105989612D01*
X195350571Y-106075326D01*
X195264857Y-106118184D01*
X195093428Y-106161041D01*
X194964857Y-106161041D01*
X194793428Y-106118184D01*
X194707714Y-106075326D01*
X194622000Y-105989612D01*
X194579142Y-105861041D01*
X194579142Y-105775326D01*
X194622000Y-105646755D01*
X194664857Y-105603898D01*
X195222000Y-105261041D02*
X195222000Y-104832469D01*
X195479142Y-105346755D02*
X194579142Y-105046755D01*
X195479142Y-104746755D01*
X195479142Y-104446755D02*
X194579142Y-104446755D01*
X195479142Y-103932469D01*
X194579142Y-103932469D01*
X195136285Y-103503898D02*
X195136285Y-102818184D01*
X197933428Y-105603898D02*
X197976285Y-105646755D01*
X198019142Y-105775326D01*
X198019142Y-105861041D01*
X197976285Y-105989612D01*
X197890571Y-106075326D01*
X197804857Y-106118184D01*
X197633428Y-106161041D01*
X197504857Y-106161041D01*
X197333428Y-106118184D01*
X197247714Y-106075326D01*
X197162000Y-105989612D01*
X197119142Y-105861041D01*
X197119142Y-105775326D01*
X197162000Y-105646755D01*
X197204857Y-105603898D01*
X197762000Y-105261041D02*
X197762000Y-104832469D01*
X198019142Y-105346755D02*
X197119142Y-105046755D01*
X198019142Y-104746755D01*
X198019142Y-104446755D02*
X197119142Y-104446755D01*
X198019142Y-103932469D01*
X197119142Y-103932469D01*
X197676285Y-103503898D02*
X197676285Y-102818184D01*
X198019142Y-103161041D02*
X197333428Y-103161041D01*
X177539142Y-99530326D02*
X177539142Y-100258898D01*
X177582000Y-100344612D01*
X177624857Y-100387469D01*
X177710571Y-100430326D01*
X177882000Y-100430326D01*
X177967714Y-100387469D01*
X178010571Y-100344612D01*
X178053428Y-100258898D01*
X178053428Y-99530326D01*
X178439142Y-100387469D02*
X178567714Y-100430326D01*
X178782000Y-100430326D01*
X178867714Y-100387469D01*
X178910571Y-100344612D01*
X178953428Y-100258898D01*
X178953428Y-100173184D01*
X178910571Y-100087469D01*
X178867714Y-100044612D01*
X178782000Y-100001755D01*
X178610571Y-99958898D01*
X178524857Y-99916041D01*
X178482000Y-99873184D01*
X178439142Y-99787469D01*
X178439142Y-99701755D01*
X178482000Y-99616041D01*
X178524857Y-99573184D01*
X178610571Y-99530326D01*
X178824857Y-99530326D01*
X178953428Y-99573184D01*
X179296285Y-100173184D02*
X179724857Y-100173184D01*
X179210571Y-100430326D02*
X179510571Y-99530326D01*
X179810571Y-100430326D01*
X180624857Y-100430326D02*
X180324857Y-100001755D01*
X180110571Y-100430326D02*
X180110571Y-99530326D01*
X180453428Y-99530326D01*
X180539142Y-99573184D01*
X180582000Y-99616041D01*
X180624857Y-99701755D01*
X180624857Y-99830326D01*
X180582000Y-99916041D01*
X180539142Y-99958898D01*
X180453428Y-100001755D01*
X180110571Y-100001755D01*
X180882000Y-99530326D02*
X181396285Y-99530326D01*
X181139142Y-100430326D02*
X181139142Y-99530326D01*
X181653428Y-99616041D02*
X181696285Y-99573184D01*
X181782000Y-99530326D01*
X181996285Y-99530326D01*
X182082000Y-99573184D01*
X182124857Y-99616041D01*
X182167714Y-99701755D01*
X182167714Y-99787469D01*
X182124857Y-99916041D01*
X181610571Y-100430326D01*
X182167714Y-100430326D01*
X182779142Y-110333184D02*
X182350571Y-110633184D01*
X182779142Y-110847469D02*
X181879142Y-110847469D01*
X181879142Y-110504612D01*
X181922000Y-110418898D01*
X181964857Y-110376041D01*
X182050571Y-110333184D01*
X182179142Y-110333184D01*
X182264857Y-110376041D01*
X182307714Y-110418898D01*
X182350571Y-110504612D01*
X182350571Y-110847469D01*
X181879142Y-110033184D02*
X182779142Y-109433184D01*
X181879142Y-109433184D02*
X182779142Y-110033184D01*
X179339142Y-110868898D02*
X179339142Y-110354612D01*
X180239142Y-110611755D02*
X179339142Y-110611755D01*
X179339142Y-110140326D02*
X180239142Y-109540326D01*
X179339142Y-109540326D02*
X180239142Y-110140326D01*
X177699142Y-112425326D02*
X176799142Y-112425326D01*
X176799142Y-112211041D01*
X176842000Y-112082469D01*
X176927714Y-111996755D01*
X177013428Y-111953898D01*
X177184857Y-111911041D01*
X177313428Y-111911041D01*
X177484857Y-111953898D01*
X177570571Y-111996755D01*
X177656285Y-112082469D01*
X177699142Y-112211041D01*
X177699142Y-112425326D01*
X176842000Y-111053898D02*
X176799142Y-111139612D01*
X176799142Y-111268184D01*
X176842000Y-111396755D01*
X176927714Y-111482469D01*
X177013428Y-111525326D01*
X177184857Y-111568184D01*
X177313428Y-111568184D01*
X177484857Y-111525326D01*
X177570571Y-111482469D01*
X177656285Y-111396755D01*
X177699142Y-111268184D01*
X177699142Y-111182469D01*
X177656285Y-111053898D01*
X177613428Y-111011041D01*
X177313428Y-111011041D01*
X177313428Y-111182469D01*
X177699142Y-110625326D02*
X176799142Y-110625326D01*
X177699142Y-110111041D01*
X176799142Y-110111041D01*
X177699142Y-109682469D02*
X176799142Y-109682469D01*
X176799142Y-109468184D01*
X176842000Y-109339612D01*
X176927714Y-109253898D01*
X177013428Y-109211041D01*
X177184857Y-109168184D01*
X177313428Y-109168184D01*
X177484857Y-109211041D01*
X177570571Y-109253898D01*
X177656285Y-109339612D01*
X177699142Y-109468184D01*
X177699142Y-109682469D01*
X133619142Y-96263898D02*
X133619142Y-95749612D01*
X134519142Y-96006755D02*
X133619142Y-96006755D01*
X133619142Y-95535326D02*
X134519142Y-94935326D01*
X133619142Y-94935326D02*
X134519142Y-95535326D01*
X131979142Y-95728184D02*
X131550571Y-96028184D01*
X131979142Y-96242469D02*
X131079142Y-96242469D01*
X131079142Y-95899612D01*
X131122000Y-95813898D01*
X131164857Y-95771041D01*
X131250571Y-95728184D01*
X131379142Y-95728184D01*
X131464857Y-95771041D01*
X131507714Y-95813898D01*
X131550571Y-95899612D01*
X131550571Y-96242469D01*
X131079142Y-95428184D02*
X131979142Y-94828184D01*
X131079142Y-94828184D02*
X131979142Y-95428184D01*
X129439142Y-97820326D02*
X128539142Y-97820326D01*
X128539142Y-97606041D01*
X128582000Y-97477469D01*
X128667714Y-97391755D01*
X128753428Y-97348898D01*
X128924857Y-97306041D01*
X129053428Y-97306041D01*
X129224857Y-97348898D01*
X129310571Y-97391755D01*
X129396285Y-97477469D01*
X129439142Y-97606041D01*
X129439142Y-97820326D01*
X128582000Y-96448898D02*
X128539142Y-96534612D01*
X128539142Y-96663184D01*
X128582000Y-96791755D01*
X128667714Y-96877469D01*
X128753428Y-96920326D01*
X128924857Y-96963184D01*
X129053428Y-96963184D01*
X129224857Y-96920326D01*
X129310571Y-96877469D01*
X129396285Y-96791755D01*
X129439142Y-96663184D01*
X129439142Y-96577469D01*
X129396285Y-96448898D01*
X129353428Y-96406041D01*
X129053428Y-96406041D01*
X129053428Y-96577469D01*
X129439142Y-96020326D02*
X128539142Y-96020326D01*
X129439142Y-95506041D01*
X128539142Y-95506041D01*
X129439142Y-95077469D02*
X128539142Y-95077469D01*
X128539142Y-94863184D01*
X128582000Y-94734612D01*
X128667714Y-94648898D01*
X128753428Y-94606041D01*
X128924857Y-94563184D01*
X129053428Y-94563184D01*
X129224857Y-94606041D01*
X129310571Y-94648898D01*
X129396285Y-94734612D01*
X129439142Y-94863184D01*
X129439142Y-95077469D01*
X129279142Y-88100326D02*
X129279142Y-88828898D01*
X129322000Y-88914612D01*
X129364857Y-88957469D01*
X129450571Y-89000326D01*
X129622000Y-89000326D01*
X129707714Y-88957469D01*
X129750571Y-88914612D01*
X129793428Y-88828898D01*
X129793428Y-88100326D01*
X130179142Y-88957469D02*
X130307714Y-89000326D01*
X130522000Y-89000326D01*
X130607714Y-88957469D01*
X130650571Y-88914612D01*
X130693428Y-88828898D01*
X130693428Y-88743184D01*
X130650571Y-88657469D01*
X130607714Y-88614612D01*
X130522000Y-88571755D01*
X130350571Y-88528898D01*
X130264857Y-88486041D01*
X130222000Y-88443184D01*
X130179142Y-88357469D01*
X130179142Y-88271755D01*
X130222000Y-88186041D01*
X130264857Y-88143184D01*
X130350571Y-88100326D01*
X130564857Y-88100326D01*
X130693428Y-88143184D01*
X131036285Y-88743184D02*
X131464857Y-88743184D01*
X130950571Y-89000326D02*
X131250571Y-88100326D01*
X131550571Y-89000326D01*
X132364857Y-89000326D02*
X132064857Y-88571755D01*
X131850571Y-89000326D02*
X131850571Y-88100326D01*
X132193428Y-88100326D01*
X132279142Y-88143184D01*
X132322000Y-88186041D01*
X132364857Y-88271755D01*
X132364857Y-88400326D01*
X132322000Y-88486041D01*
X132279142Y-88528898D01*
X132193428Y-88571755D01*
X131850571Y-88571755D01*
X132622000Y-88100326D02*
X133136285Y-88100326D01*
X132879142Y-89000326D02*
X132879142Y-88100326D01*
X133907714Y-89000326D02*
X133393428Y-89000326D01*
X133650571Y-89000326D02*
X133650571Y-88100326D01*
X133564857Y-88228898D01*
X133479142Y-88314612D01*
X133393428Y-88357469D01*
D11*
G04 #@! TO.C,U902*
X92202000Y-53848000D02*
X92202000Y-56388000D01*
X99822000Y-56388000D02*
X99822000Y-53848000D01*
X99822000Y-76708000D02*
X99822000Y-56388000D01*
X92202000Y-56388000D02*
X92202000Y-76708000D01*
X92202000Y-76708000D02*
X99822000Y-76708000D01*
X92202000Y-53848000D02*
X99822000Y-53848000D01*
G04 #@! TO.C,R701*
X114747000Y-40968184D02*
X123637000Y-40968184D01*
X114747000Y-38428184D02*
X114747000Y-40968184D01*
X123637000Y-38428184D02*
X114747000Y-38428184D01*
X123637000Y-40968184D02*
X123637000Y-38428184D01*
G04 #@! TO.C,R702*
X144907000Y-41148000D02*
X153797000Y-41148000D01*
X144907000Y-38608000D02*
X144907000Y-41148000D01*
X153797000Y-38608000D02*
X144907000Y-38608000D01*
X153797000Y-41148000D02*
X153797000Y-38608000D01*
G04 #@! TO.C,C903*
X90372000Y-62948000D02*
X89372000Y-62948000D01*
X89872000Y-63448000D02*
X89872000Y-62448000D01*
X89872000Y-60198000D02*
G75*
G03X89872000Y-60198000I-2750000J0D01*
G01*
G04 #@! TO.C,C910*
X83872000Y-70148000D02*
X84872000Y-70148000D01*
X84372000Y-69648000D02*
X84372000Y-70648000D01*
X89872000Y-72898000D02*
G75*
G03X89872000Y-72898000I-2750000J0D01*
G01*
D12*
G04 #@! TO.C,D201*
X185531000Y-91870691D02*
X185531000Y-91020691D01*
X183531000Y-91870691D02*
X183531000Y-91020691D01*
D10*
X185932980Y-92670691D02*
G75*
G03X185932980Y-92670691I-101980J0D01*
G01*
D12*
G04 #@! TO.C,D202*
X180451000Y-91870691D02*
X180451000Y-91020691D01*
X178451000Y-91870691D02*
X178451000Y-91020691D01*
D10*
X180852980Y-92670691D02*
G75*
G03X180852980Y-92670691I-101980J0D01*
G01*
D12*
G04 #@! TO.C,D203*
X175371000Y-91870691D02*
X175371000Y-91020691D01*
X173371000Y-91870691D02*
X173371000Y-91020691D01*
D10*
X175772980Y-92670691D02*
G75*
G03X175772980Y-92670691I-101980J0D01*
G01*
D11*
G04 #@! TO.C,F301*
X116220000Y-132540184D02*
X107569000Y-132540184D01*
X107554000Y-132540184D02*
X107554000Y-128974184D01*
X116205000Y-128979184D02*
X107569000Y-128979184D01*
X116205000Y-132535184D02*
X116205000Y-128979184D01*
G04 #@! TO.C,F601*
X116220000Y-86619000D02*
X107569000Y-86619000D01*
X107554000Y-86619000D02*
X107554000Y-83053000D01*
X116205000Y-83058000D02*
X107569000Y-83058000D01*
X116205000Y-86614000D02*
X116205000Y-83058000D01*
G04 #@! TO.C,F1001*
X116220000Y-102113000D02*
X107569000Y-102113000D01*
X107554000Y-102113000D02*
X107554000Y-98547000D01*
X116205000Y-98552000D02*
X107569000Y-98552000D01*
X116205000Y-102108000D02*
X116205000Y-98552000D01*
G04 #@! TO.C,FL1001*
X110744000Y-95631000D02*
G75*
G03X110744000Y-95631000I0J0D01*
G01*
D13*
X111823500Y-95567500D02*
X112204500Y-95567500D01*
X111823500Y-96456500D02*
X112204500Y-96456500D01*
X113157000Y-95821500D02*
X113157000Y-96202500D01*
X110871000Y-95821500D02*
X110871000Y-96202500D01*
D10*
G04 #@! TO.C,J101*
X107017000Y-49143184D02*
X107017000Y-37343184D01*
X101517000Y-49143184D02*
X101517000Y-37343184D01*
X107017000Y-37343184D02*
X101517000Y-37343184D01*
X107017000Y-49143184D02*
X101517000Y-49143184D01*
D14*
X101977000Y-51503184D02*
G75*
G03X101977000Y-51503184I-250000J0D01*
G01*
D10*
G04 #@! TO.C,J102*
X136862000Y-49143184D02*
X136862000Y-37343184D01*
X131362000Y-49143184D02*
X131362000Y-37343184D01*
X136862000Y-37343184D02*
X131362000Y-37343184D01*
X136862000Y-49143184D02*
X131362000Y-49143184D01*
D14*
X131822000Y-51503184D02*
G75*
G03X131822000Y-51503184I-250000J0D01*
G01*
D10*
G04 #@! TO.C,J103*
X166707000Y-49143184D02*
X166707000Y-37343184D01*
X161207000Y-49143184D02*
X161207000Y-37343184D01*
X166707000Y-37343184D02*
X161207000Y-37343184D01*
X166707000Y-49143184D02*
X161207000Y-49143184D01*
D14*
X161667000Y-51503184D02*
G75*
G03X161667000Y-51503184I-250000J0D01*
G01*
D12*
G04 #@! TO.C,J201*
X183872000Y-101063184D02*
X175792000Y-101063184D01*
X183872000Y-104063184D02*
X183872000Y-101063184D01*
X175792000Y-104063184D02*
X183872000Y-104063184D01*
X175792000Y-101063184D02*
X175792000Y-104063184D01*
D14*
X177546000Y-105103184D02*
G75*
G03X177546000Y-105103184I-254000J0D01*
G01*
D12*
G04 #@! TO.C,J202*
X185142000Y-127098184D02*
X169442000Y-127098184D01*
X185142000Y-130098184D02*
X185142000Y-127098184D01*
X169442000Y-130098184D02*
X185142000Y-130098184D01*
X169442000Y-127098184D02*
X169442000Y-130098184D01*
D14*
X171196000Y-131138184D02*
G75*
G03X171196000Y-131138184I-254000J0D01*
G01*
D12*
G04 #@! TO.C,J301*
X161187000Y-124738000D02*
X161187000Y-130278000D01*
X164187000Y-124738000D02*
X161187000Y-124738000D01*
X164187000Y-130278000D02*
X164187000Y-124738000D01*
X161187000Y-130278000D02*
X164187000Y-130278000D01*
D14*
X165481000Y-128778000D02*
G75*
G03X165481000Y-128778000I-254000J0D01*
G01*
D11*
G04 #@! TO.C,J401*
X221583600Y-96028184D02*
X210583600Y-96028184D01*
X221583600Y-96028184D02*
X210583600Y-96028184D01*
X221583600Y-96028184D02*
X210583600Y-96028184D01*
X221583600Y-96028184D02*
X210583600Y-96028184D01*
X210583600Y-82028184D02*
X210583600Y-96028184D01*
X210583600Y-82028184D02*
X210583600Y-96028184D01*
X210583600Y-82028184D02*
X210583600Y-96028184D01*
X221583600Y-82028184D02*
X221583600Y-96028184D01*
X221583600Y-82028184D02*
X221583600Y-96028184D01*
X221583600Y-82028184D02*
X221583600Y-96028184D01*
X221583600Y-82028184D02*
X221583600Y-96028184D01*
X210583600Y-82028184D02*
X210583600Y-96028184D01*
X210583600Y-82028184D02*
X221583600Y-82028184D01*
X210583600Y-82028184D02*
X221583600Y-82028184D01*
X210583600Y-82028184D02*
X221583600Y-82028184D01*
X210583600Y-82028184D02*
X221583600Y-82028184D01*
X210583600Y-82028184D02*
X221583600Y-82028184D01*
X210583600Y-82028184D02*
X210583600Y-96028184D01*
X210583600Y-82028184D02*
X210583600Y-96028184D01*
X221583600Y-82028184D02*
X221583600Y-96028184D01*
X221583600Y-82028184D02*
X221583600Y-96028184D01*
X221583600Y-96028184D02*
X210583600Y-96028184D01*
X210583600Y-82028184D02*
X221583600Y-82028184D01*
X221583600Y-96028184D02*
X210583600Y-96028184D01*
X221583600Y-96028184D02*
X210583600Y-96028184D01*
X210583600Y-82028184D02*
X210583600Y-96028184D01*
X221583600Y-82028184D02*
X221583600Y-96028184D01*
X210583600Y-82028184D02*
X221583600Y-82028184D01*
X210583600Y-82028184D02*
X221583600Y-82028184D01*
X221583600Y-96028184D02*
X210583600Y-96028184D01*
X210583600Y-82028184D02*
X210583600Y-96028184D01*
X221583600Y-82028184D02*
X221583600Y-96028184D01*
D10*
G04 #@! TO.C,J601*
X179602000Y-37343184D02*
X169902000Y-37343184D01*
X179602000Y-49143184D02*
X179602000Y-37343184D01*
X169902000Y-49143184D02*
X169902000Y-37343184D01*
X179602000Y-49143184D02*
X169902000Y-49143184D01*
G04 #@! TO.C,J602*
X202462000Y-37343184D02*
X192762000Y-37343184D01*
X202462000Y-49143184D02*
X202462000Y-37343184D01*
X192762000Y-49143184D02*
X192762000Y-37343184D01*
X202462000Y-49143184D02*
X192762000Y-49143184D01*
G04 #@! TO.C,J603*
X191032000Y-37343184D02*
X181332000Y-37343184D01*
X191032000Y-49143184D02*
X191032000Y-37343184D01*
X181332000Y-49143184D02*
X181332000Y-37343184D01*
X191032000Y-49143184D02*
X181332000Y-49143184D01*
G04 #@! TO.C,J605*
X95297000Y-82086000D02*
X83497000Y-82086000D01*
X95297000Y-87586000D02*
X83497000Y-87586000D01*
X83497000Y-82086000D02*
X83497000Y-87586000D01*
X95297000Y-82086000D02*
X95297000Y-87586000D01*
D14*
X97907000Y-87376000D02*
G75*
G03X97907000Y-87376000I-250000J0D01*
G01*
D10*
G04 #@! TO.C,J801*
X209757000Y-105493000D02*
X221557000Y-105493000D01*
X209757000Y-99993000D02*
X221557000Y-99993000D01*
X221557000Y-105493000D02*
X221557000Y-99993000D01*
X209757000Y-105493000D02*
X209757000Y-99993000D01*
D14*
X207647000Y-100203000D02*
G75*
G03X207647000Y-100203000I-250000J0D01*
G01*
D10*
G04 #@! TO.C,J802*
X209757000Y-112478000D02*
X221557000Y-112478000D01*
X209757000Y-106978000D02*
X221557000Y-106978000D01*
X221557000Y-112478000D02*
X221557000Y-106978000D01*
X209757000Y-112478000D02*
X209757000Y-106978000D01*
D14*
X207647000Y-107188000D02*
G75*
G03X207647000Y-107188000I-250000J0D01*
G01*
D10*
G04 #@! TO.C,J803*
X209757000Y-119463000D02*
X221557000Y-119463000D01*
X209757000Y-113963000D02*
X221557000Y-113963000D01*
X221557000Y-119463000D02*
X221557000Y-113963000D01*
X209757000Y-119463000D02*
X209757000Y-113963000D01*
D14*
X207647000Y-114173000D02*
G75*
G03X207647000Y-114173000I-250000J0D01*
G01*
D10*
G04 #@! TO.C,J804*
X209757000Y-126448000D02*
X221557000Y-126448000D01*
X209757000Y-120948000D02*
X221557000Y-120948000D01*
X221557000Y-126448000D02*
X221557000Y-120948000D01*
X209757000Y-126448000D02*
X209757000Y-120948000D01*
D14*
X207647000Y-121158000D02*
G75*
G03X207647000Y-121158000I-250000J0D01*
G01*
D11*
G04 #@! TO.C,RL701*
X117602000Y-74168000D02*
X117602000Y-51308000D01*
X117602000Y-51308000D02*
X130302000Y-51308000D01*
X130302000Y-51308000D02*
X130302000Y-74168000D01*
X130302000Y-74168000D02*
X117602000Y-74168000D01*
G04 #@! TO.C,RL702*
X147447000Y-74168000D02*
X147447000Y-51308000D01*
X147447000Y-51308000D02*
X160147000Y-51308000D01*
X160147000Y-51308000D02*
X160147000Y-74168000D01*
X160147000Y-74168000D02*
X147447000Y-74168000D01*
D10*
G04 #@! TO.C,SW201*
X134818116Y-105944810D02*
X134818116Y-109944810D01*
X140818116Y-105944810D02*
X140818116Y-109944810D01*
X139232330Y-107944810D02*
G75*
G03X139232330Y-107944810I-1414214J0D01*
G01*
G04 #@! TO.C,SW202*
X147785035Y-109944810D02*
X147785035Y-105944810D01*
X141785035Y-109944810D02*
X141785035Y-105944810D01*
X146199249Y-107944810D02*
G75*
G03X146199249Y-107944810I-1414214J0D01*
G01*
D14*
G04 #@! TO.C,U201*
X159689416Y-90594580D02*
G75*
G03X159689416Y-90594580I-254001J0D01*
G01*
D10*
X145426216Y-91313000D02*
X151892000Y-97778784D01*
X151892000Y-84847216D02*
X145426216Y-91313000D01*
X158357784Y-91313000D02*
X151892000Y-84847216D01*
X151892000Y-97778784D02*
X158357784Y-91313000D01*
D15*
G04 #@! TO.C,U301*
X127127000Y-129545692D02*
G75*
G03X127127000Y-129545692I-254000J0D01*
G01*
D10*
X128167000Y-121555692D02*
X128167000Y-132455692D01*
X145167000Y-121555692D02*
X128167000Y-121555692D01*
X145167000Y-132455692D02*
X145167000Y-121555692D01*
X128143000Y-132455692D02*
X145167000Y-132455692D01*
G04 #@! TO.C,U302*
X154377000Y-124158000D02*
X150677000Y-124158000D01*
X154377000Y-130858000D02*
X150677000Y-130858000D01*
X154377000Y-124158000D02*
X154377000Y-125308000D01*
X154377000Y-129708000D02*
X154377000Y-130858000D01*
D15*
X149748215Y-123444000D02*
G75*
G03X149748215Y-123444000I-142215J0D01*
G01*
D10*
G04 #@! TO.C,U401*
X192437000Y-91982184D02*
X196437000Y-91982184D01*
X192437000Y-86474184D02*
X196437000Y-86474184D01*
D16*
X191880178Y-86048184D02*
G75*
G03X191880178Y-86048184I-143178J0D01*
G01*
D10*
G04 #@! TO.C,U501*
X111982000Y-116499000D02*
X107982000Y-116499000D01*
X111982000Y-122007000D02*
X107982000Y-122007000D01*
D16*
X112825178Y-122433000D02*
G75*
G03X112825178Y-122433000I-143178J0D01*
G01*
D15*
G04 #@! TO.C,U601*
X169545000Y-77216000D02*
G75*
G03X169545000Y-77216000I0J0D01*
G01*
D11*
X171399905Y-75311000D02*
G75*
G03X171399905Y-75311000I-457905J0D01*
G01*
X169926000Y-69596000D02*
X169926000Y-76200000D01*
X177038000Y-69596000D02*
X177038000Y-76200000D01*
X169926000Y-76200000D02*
X177046000Y-76200000D01*
X169922000Y-69596000D02*
X177042000Y-69596000D01*
D15*
G04 #@! TO.C,U602*
X178435000Y-77216000D02*
G75*
G03X178435000Y-77216000I0J0D01*
G01*
D11*
X180289905Y-75311000D02*
G75*
G03X180289905Y-75311000I-457905J0D01*
G01*
X178816000Y-69596000D02*
X178816000Y-76200000D01*
X185928000Y-69596000D02*
X185928000Y-76200000D01*
X178816000Y-76200000D02*
X185936000Y-76200000D01*
X178812000Y-69596000D02*
X185932000Y-69596000D01*
D15*
G04 #@! TO.C,U603*
X196215000Y-77216000D02*
G75*
G03X196215000Y-77216000I0J0D01*
G01*
D11*
X198069905Y-75311000D02*
G75*
G03X198069905Y-75311000I-457905J0D01*
G01*
X196596000Y-69596000D02*
X196596000Y-76200000D01*
X203708000Y-69596000D02*
X203708000Y-76200000D01*
X196596000Y-76200000D02*
X203716000Y-76200000D01*
X196592000Y-69596000D02*
X203712000Y-69596000D01*
D15*
G04 #@! TO.C,U604*
X187325000Y-77216000D02*
G75*
G03X187325000Y-77216000I0J0D01*
G01*
D11*
X189179905Y-75311000D02*
G75*
G03X189179905Y-75311000I-457905J0D01*
G01*
X187706000Y-69596000D02*
X187706000Y-76200000D01*
X194818000Y-69596000D02*
X194818000Y-76200000D01*
X187706000Y-76200000D02*
X194826000Y-76200000D01*
X187702000Y-69596000D02*
X194822000Y-69596000D01*
G04 #@! TO.C,U606*
X121285000Y-84963000D02*
G75*
G03X121285000Y-84963000I-254000J0D01*
G01*
X120269000Y-84201000D02*
X120269000Y-88265000D01*
X120269000Y-88265000D02*
X123825000Y-88265000D01*
X123825000Y-88265000D02*
X123825000Y-84201000D01*
X123825000Y-84201000D02*
X120269000Y-84201000D01*
G04 #@! TO.C,U901*
X117715178Y-61678000D02*
G75*
G03X117715178Y-61678000I-143178J0D01*
G01*
X110792000Y-69278000D02*
X110792000Y-61278000D01*
X116792000Y-69278000D02*
X116792000Y-61278000D01*
G04 #@! TO.C,U903*
X147560178Y-61678000D02*
G75*
G03X147560178Y-61678000I-143178J0D01*
G01*
X140637000Y-69278000D02*
X140637000Y-61278000D01*
X146637000Y-69278000D02*
X146637000Y-61278000D01*
D10*
G04 #@! TO.C,U905*
X112917000Y-77090000D02*
X114667000Y-77090000D01*
X112917000Y-73786000D02*
X114667000Y-73786000D01*
D17*
X115279703Y-77388000D02*
G75*
G03X115279703Y-77388000I-107703J0D01*
G01*
D10*
G04 #@! TO.C,U906*
X142762000Y-77090000D02*
X144512000Y-77090000D01*
X142762000Y-73786000D02*
X144512000Y-73786000D01*
D17*
X145124703Y-77388000D02*
G75*
G03X145124703Y-77388000I-107703J0D01*
G01*
D11*
G04 #@! TO.C,U904*
X107696000Y-64262000D02*
G75*
G03X107696000Y-64262000I-254000J0D01*
G01*
X108204000Y-63500000D02*
X104140000Y-63500000D01*
X104140000Y-63500000D02*
X104140000Y-67056000D01*
X104140000Y-67056000D02*
X108204000Y-67056000D01*
X108204000Y-67056000D02*
X108204000Y-63500000D01*
D10*
G04 #@! TO.C,J604*
X213892000Y-37343184D02*
X204192000Y-37343184D01*
X213892000Y-49143184D02*
X213892000Y-37343184D01*
X204192000Y-49143184D02*
X204192000Y-37343184D01*
X213892000Y-49143184D02*
X204192000Y-49143184D01*
D15*
G04 #@! TO.C,U605*
X205105000Y-77216000D02*
G75*
G03X205105000Y-77216000I0J0D01*
G01*
D11*
X206959905Y-75311000D02*
G75*
G03X206959905Y-75311000I-457905J0D01*
G01*
X205486000Y-69596000D02*
X205486000Y-76200000D01*
X212598000Y-69596000D02*
X212598000Y-76200000D01*
X205486000Y-76200000D02*
X212606000Y-76200000D01*
X205482000Y-69596000D02*
X212602000Y-69596000D01*
D12*
G04 #@! TO.C,D602*
X197704000Y-62288184D02*
X198554000Y-62288184D01*
X197704000Y-60288184D02*
X198554000Y-60288184D01*
D10*
X197005980Y-62588184D02*
G75*
G03X197005980Y-62588184I-101980J0D01*
G01*
D12*
G04 #@! TO.C,D603*
X185512000Y-62288184D02*
X186362000Y-62288184D01*
X185512000Y-60288184D02*
X186362000Y-60288184D01*
D10*
X184813980Y-62588184D02*
G75*
G03X184813980Y-62588184I-101980J0D01*
G01*
D12*
G04 #@! TO.C,D604*
X209388000Y-62288184D02*
X210238000Y-62288184D01*
X209388000Y-60288184D02*
X210238000Y-60288184D01*
D10*
X208689980Y-62588184D02*
G75*
G03X208689980Y-62588184I-101980J0D01*
G01*
D12*
G04 #@! TO.C,D301*
X132426000Y-117660184D02*
X133276000Y-117660184D01*
X132426000Y-115660184D02*
X133276000Y-115660184D01*
D10*
X131727980Y-117960184D02*
G75*
G03X131727980Y-117960184I-101980J0D01*
G01*
D12*
G04 #@! TO.C,D302*
X140046000Y-117660184D02*
X140896000Y-117660184D01*
X140046000Y-115660184D02*
X140896000Y-115660184D01*
D10*
X139347980Y-117960184D02*
G75*
G03X139347980Y-117960184I-101980J0D01*
G01*
G04 #@! TO.C,D303*
X146568980Y-118013000D02*
G75*
G03X146568980Y-118013000I-101980J0D01*
G01*
D12*
X147267000Y-115713000D02*
X148117000Y-115713000D01*
X147267000Y-117713000D02*
X148117000Y-117713000D01*
D10*
G04 #@! TO.C,D601*
X173891980Y-62588184D02*
G75*
G03X173891980Y-62588184I-101980J0D01*
G01*
D12*
X174590000Y-60288184D02*
X175440000Y-60288184D01*
X174590000Y-62288184D02*
X175440000Y-62288184D01*
D10*
G04 #@! TO.C,D705*
X155368980Y-74974184D02*
G75*
G03X155368980Y-74974184I-101980J0D01*
G01*
D12*
X154467000Y-77274184D02*
X153617000Y-77274184D01*
X154467000Y-75274184D02*
X153617000Y-75274184D01*
G04 #@! TO.C,D706*
X123987000Y-75528184D02*
X123137000Y-75528184D01*
X123987000Y-77528184D02*
X123137000Y-77528184D01*
D10*
X124888980Y-75228184D02*
G75*
G03X124888980Y-75228184I-101980J0D01*
G01*
D11*
G04 #@! TO.C,J501*
X83408000Y-126146184D02*
X83408000Y-112146184D01*
X94408000Y-126146184D02*
X94408000Y-112146184D01*
X83408000Y-112146184D02*
X94408000Y-112146184D01*
X94408000Y-126146184D02*
X83408000Y-126146184D01*
X94408000Y-126146184D02*
X83408000Y-126146184D01*
X83408000Y-126146184D02*
X83408000Y-112146184D01*
X94408000Y-126146184D02*
X94408000Y-112146184D01*
X83408000Y-112146184D02*
X94408000Y-112146184D01*
X83408000Y-112146184D02*
X94408000Y-112146184D01*
X94408000Y-126146184D02*
X83408000Y-126146184D01*
X83408000Y-112146184D02*
X94408000Y-112146184D01*
X83408000Y-126146184D02*
X83408000Y-112146184D01*
X83408000Y-126146184D02*
X83408000Y-112146184D01*
X94408000Y-126146184D02*
X94408000Y-112146184D01*
X94408000Y-126146184D02*
X94408000Y-112146184D01*
X94408000Y-126146184D02*
X83408000Y-126146184D01*
X94408000Y-126146184D02*
X83408000Y-126146184D01*
X94408000Y-126146184D02*
X83408000Y-126146184D01*
X94408000Y-126146184D02*
X83408000Y-126146184D01*
X94408000Y-126146184D02*
X83408000Y-126146184D01*
X94408000Y-126146184D02*
X94408000Y-112146184D01*
X83408000Y-126146184D02*
X83408000Y-112146184D01*
X83408000Y-126146184D02*
X83408000Y-112146184D01*
X83408000Y-126146184D02*
X83408000Y-112146184D01*
X83408000Y-126146184D02*
X83408000Y-112146184D01*
X94408000Y-126146184D02*
X94408000Y-112146184D01*
X94408000Y-126146184D02*
X94408000Y-112146184D01*
X94408000Y-126146184D02*
X94408000Y-112146184D01*
X83408000Y-112146184D02*
X94408000Y-112146184D01*
X83408000Y-112146184D02*
X94408000Y-112146184D01*
X83408000Y-112146184D02*
X94408000Y-112146184D01*
X83408000Y-112146184D02*
X94408000Y-112146184D01*
D12*
G04 #@! TO.C,C916*
X139227000Y-77528184D02*
X138377000Y-77528184D01*
X139227000Y-75528184D02*
X138377000Y-75528184D01*
G04 #@! TO.C,C917*
X108982000Y-77128184D02*
X108982000Y-77978184D01*
X110982000Y-77128184D02*
X110982000Y-77978184D01*
D11*
G04 #@! TO.C,J1001*
X90908000Y-93254000D02*
X90908000Y-105334000D01*
X102108000Y-93254000D02*
X102108000Y-105334000D01*
X90908000Y-93254000D02*
X102108000Y-93254000D01*
X90908000Y-105334000D02*
X102108000Y-105334000D01*
G04 #@! TO.C,U902*
D10*
X94469142Y-77305326D02*
X94469142Y-78033898D01*
X94512000Y-78119612D01*
X94554857Y-78162469D01*
X94640571Y-78205326D01*
X94812000Y-78205326D01*
X94897714Y-78162469D01*
X94940571Y-78119612D01*
X94983428Y-78033898D01*
X94983428Y-77305326D01*
X95454857Y-78205326D02*
X95626285Y-78205326D01*
X95712000Y-78162469D01*
X95754857Y-78119612D01*
X95840571Y-77991041D01*
X95883428Y-77819612D01*
X95883428Y-77476755D01*
X95840571Y-77391041D01*
X95797714Y-77348184D01*
X95712000Y-77305326D01*
X95540571Y-77305326D01*
X95454857Y-77348184D01*
X95412000Y-77391041D01*
X95369142Y-77476755D01*
X95369142Y-77691041D01*
X95412000Y-77776755D01*
X95454857Y-77819612D01*
X95540571Y-77862469D01*
X95712000Y-77862469D01*
X95797714Y-77819612D01*
X95840571Y-77776755D01*
X95883428Y-77691041D01*
X96440571Y-77305326D02*
X96526285Y-77305326D01*
X96612000Y-77348184D01*
X96654857Y-77391041D01*
X96697714Y-77476755D01*
X96740571Y-77648184D01*
X96740571Y-77862469D01*
X96697714Y-78033898D01*
X96654857Y-78119612D01*
X96612000Y-78162469D01*
X96526285Y-78205326D01*
X96440571Y-78205326D01*
X96354857Y-78162469D01*
X96312000Y-78119612D01*
X96269142Y-78033898D01*
X96226285Y-77862469D01*
X96226285Y-77648184D01*
X96269142Y-77476755D01*
X96312000Y-77391041D01*
X96354857Y-77348184D01*
X96440571Y-77305326D01*
X97083428Y-77391041D02*
X97126285Y-77348184D01*
X97212000Y-77305326D01*
X97426285Y-77305326D01*
X97512000Y-77348184D01*
X97554857Y-77391041D01*
X97597714Y-77476755D01*
X97597714Y-77562469D01*
X97554857Y-77691041D01*
X97040571Y-78205326D01*
X97597714Y-78205326D01*
G04 #@! TO.C,R701*
X118184857Y-42645326D02*
X117884857Y-42216755D01*
X117670571Y-42645326D02*
X117670571Y-41745326D01*
X118013428Y-41745326D01*
X118099142Y-41788184D01*
X118142000Y-41831041D01*
X118184857Y-41916755D01*
X118184857Y-42045326D01*
X118142000Y-42131041D01*
X118099142Y-42173898D01*
X118013428Y-42216755D01*
X117670571Y-42216755D01*
X118484857Y-41745326D02*
X119084857Y-41745326D01*
X118699142Y-42645326D01*
X119599142Y-41745326D02*
X119684857Y-41745326D01*
X119770571Y-41788184D01*
X119813428Y-41831041D01*
X119856285Y-41916755D01*
X119899142Y-42088184D01*
X119899142Y-42302469D01*
X119856285Y-42473898D01*
X119813428Y-42559612D01*
X119770571Y-42602469D01*
X119684857Y-42645326D01*
X119599142Y-42645326D01*
X119513428Y-42602469D01*
X119470571Y-42559612D01*
X119427714Y-42473898D01*
X119384857Y-42302469D01*
X119384857Y-42088184D01*
X119427714Y-41916755D01*
X119470571Y-41831041D01*
X119513428Y-41788184D01*
X119599142Y-41745326D01*
X120756285Y-42645326D02*
X120242000Y-42645326D01*
X120499142Y-42645326D02*
X120499142Y-41745326D01*
X120413428Y-41873898D01*
X120327714Y-41959612D01*
X120242000Y-42002469D01*
G04 #@! TO.C,R702*
X148344857Y-42645326D02*
X148044857Y-42216755D01*
X147830571Y-42645326D02*
X147830571Y-41745326D01*
X148173428Y-41745326D01*
X148259142Y-41788184D01*
X148302000Y-41831041D01*
X148344857Y-41916755D01*
X148344857Y-42045326D01*
X148302000Y-42131041D01*
X148259142Y-42173898D01*
X148173428Y-42216755D01*
X147830571Y-42216755D01*
X148644857Y-41745326D02*
X149244857Y-41745326D01*
X148859142Y-42645326D01*
X149759142Y-41745326D02*
X149844857Y-41745326D01*
X149930571Y-41788184D01*
X149973428Y-41831041D01*
X150016285Y-41916755D01*
X150059142Y-42088184D01*
X150059142Y-42302469D01*
X150016285Y-42473898D01*
X149973428Y-42559612D01*
X149930571Y-42602469D01*
X149844857Y-42645326D01*
X149759142Y-42645326D01*
X149673428Y-42602469D01*
X149630571Y-42559612D01*
X149587714Y-42473898D01*
X149544857Y-42302469D01*
X149544857Y-42088184D01*
X149587714Y-41916755D01*
X149630571Y-41831041D01*
X149673428Y-41788184D01*
X149759142Y-41745326D01*
X150402000Y-41831041D02*
X150444857Y-41788184D01*
X150530571Y-41745326D01*
X150744857Y-41745326D01*
X150830571Y-41788184D01*
X150873428Y-41831041D01*
X150916285Y-41916755D01*
X150916285Y-42002469D01*
X150873428Y-42131041D01*
X150359142Y-42645326D01*
X150916285Y-42645326D01*
G04 #@! TO.C,C903*
X86114857Y-57164612D02*
X86072000Y-57207469D01*
X85943428Y-57250326D01*
X85857714Y-57250326D01*
X85729142Y-57207469D01*
X85643428Y-57121755D01*
X85600571Y-57036041D01*
X85557714Y-56864612D01*
X85557714Y-56736041D01*
X85600571Y-56564612D01*
X85643428Y-56478898D01*
X85729142Y-56393184D01*
X85857714Y-56350326D01*
X85943428Y-56350326D01*
X86072000Y-56393184D01*
X86114857Y-56436041D01*
X86543428Y-57250326D02*
X86714857Y-57250326D01*
X86800571Y-57207469D01*
X86843428Y-57164612D01*
X86929142Y-57036041D01*
X86972000Y-56864612D01*
X86972000Y-56521755D01*
X86929142Y-56436041D01*
X86886285Y-56393184D01*
X86800571Y-56350326D01*
X86629142Y-56350326D01*
X86543428Y-56393184D01*
X86500571Y-56436041D01*
X86457714Y-56521755D01*
X86457714Y-56736041D01*
X86500571Y-56821755D01*
X86543428Y-56864612D01*
X86629142Y-56907469D01*
X86800571Y-56907469D01*
X86886285Y-56864612D01*
X86929142Y-56821755D01*
X86972000Y-56736041D01*
X87529142Y-56350326D02*
X87614857Y-56350326D01*
X87700571Y-56393184D01*
X87743428Y-56436041D01*
X87786285Y-56521755D01*
X87829142Y-56693184D01*
X87829142Y-56907469D01*
X87786285Y-57078898D01*
X87743428Y-57164612D01*
X87700571Y-57207469D01*
X87614857Y-57250326D01*
X87529142Y-57250326D01*
X87443428Y-57207469D01*
X87400571Y-57164612D01*
X87357714Y-57078898D01*
X87314857Y-56907469D01*
X87314857Y-56693184D01*
X87357714Y-56521755D01*
X87400571Y-56436041D01*
X87443428Y-56393184D01*
X87529142Y-56350326D01*
X88129142Y-56350326D02*
X88686285Y-56350326D01*
X88386285Y-56693184D01*
X88514857Y-56693184D01*
X88600571Y-56736041D01*
X88643428Y-56778898D01*
X88686285Y-56864612D01*
X88686285Y-57078898D01*
X88643428Y-57164612D01*
X88600571Y-57207469D01*
X88514857Y-57250326D01*
X88257714Y-57250326D01*
X88172000Y-57207469D01*
X88129142Y-57164612D01*
G04 #@! TO.C,C910*
X86114857Y-76849612D02*
X86072000Y-76892469D01*
X85943428Y-76935326D01*
X85857714Y-76935326D01*
X85729142Y-76892469D01*
X85643428Y-76806755D01*
X85600571Y-76721041D01*
X85557714Y-76549612D01*
X85557714Y-76421041D01*
X85600571Y-76249612D01*
X85643428Y-76163898D01*
X85729142Y-76078184D01*
X85857714Y-76035326D01*
X85943428Y-76035326D01*
X86072000Y-76078184D01*
X86114857Y-76121041D01*
X86543428Y-76935326D02*
X86714857Y-76935326D01*
X86800571Y-76892469D01*
X86843428Y-76849612D01*
X86929142Y-76721041D01*
X86972000Y-76549612D01*
X86972000Y-76206755D01*
X86929142Y-76121041D01*
X86886285Y-76078184D01*
X86800571Y-76035326D01*
X86629142Y-76035326D01*
X86543428Y-76078184D01*
X86500571Y-76121041D01*
X86457714Y-76206755D01*
X86457714Y-76421041D01*
X86500571Y-76506755D01*
X86543428Y-76549612D01*
X86629142Y-76592469D01*
X86800571Y-76592469D01*
X86886285Y-76549612D01*
X86929142Y-76506755D01*
X86972000Y-76421041D01*
X87829142Y-76935326D02*
X87314857Y-76935326D01*
X87572000Y-76935326D02*
X87572000Y-76035326D01*
X87486285Y-76163898D01*
X87400571Y-76249612D01*
X87314857Y-76292469D01*
X88386285Y-76035326D02*
X88472000Y-76035326D01*
X88557714Y-76078184D01*
X88600571Y-76121041D01*
X88643428Y-76206755D01*
X88686285Y-76378184D01*
X88686285Y-76592469D01*
X88643428Y-76763898D01*
X88600571Y-76849612D01*
X88557714Y-76892469D01*
X88472000Y-76935326D01*
X88386285Y-76935326D01*
X88300571Y-76892469D01*
X88257714Y-76849612D01*
X88214857Y-76763898D01*
X88172000Y-76592469D01*
X88172000Y-76378184D01*
X88214857Y-76206755D01*
X88257714Y-76121041D01*
X88300571Y-76078184D01*
X88386285Y-76035326D01*
G04 #@! TO.C,D201*
X182888142Y-92202119D02*
X181988142Y-92202119D01*
X181988142Y-91987833D01*
X182031000Y-91859262D01*
X182116714Y-91773548D01*
X182202428Y-91730691D01*
X182373857Y-91687833D01*
X182502428Y-91687833D01*
X182673857Y-91730691D01*
X182759571Y-91773548D01*
X182845285Y-91859262D01*
X182888142Y-91987833D01*
X182888142Y-92202119D01*
X182073857Y-91344976D02*
X182031000Y-91302119D01*
X181988142Y-91216405D01*
X181988142Y-91002119D01*
X182031000Y-90916405D01*
X182073857Y-90873548D01*
X182159571Y-90830691D01*
X182245285Y-90830691D01*
X182373857Y-90873548D01*
X182888142Y-91387833D01*
X182888142Y-90830691D01*
X181988142Y-90273548D02*
X181988142Y-90187833D01*
X182031000Y-90102119D01*
X182073857Y-90059262D01*
X182159571Y-90016405D01*
X182331000Y-89973548D01*
X182545285Y-89973548D01*
X182716714Y-90016405D01*
X182802428Y-90059262D01*
X182845285Y-90102119D01*
X182888142Y-90187833D01*
X182888142Y-90273548D01*
X182845285Y-90359262D01*
X182802428Y-90402119D01*
X182716714Y-90444976D01*
X182545285Y-90487833D01*
X182331000Y-90487833D01*
X182159571Y-90444976D01*
X182073857Y-90402119D01*
X182031000Y-90359262D01*
X181988142Y-90273548D01*
X182888142Y-89116405D02*
X182888142Y-89630691D01*
X182888142Y-89373548D02*
X181988142Y-89373548D01*
X182116714Y-89459262D01*
X182202428Y-89544976D01*
X182245285Y-89630691D01*
G04 #@! TO.C,D202*
X177808142Y-92202119D02*
X176908142Y-92202119D01*
X176908142Y-91987833D01*
X176951000Y-91859262D01*
X177036714Y-91773548D01*
X177122428Y-91730691D01*
X177293857Y-91687833D01*
X177422428Y-91687833D01*
X177593857Y-91730691D01*
X177679571Y-91773548D01*
X177765285Y-91859262D01*
X177808142Y-91987833D01*
X177808142Y-92202119D01*
X176993857Y-91344976D02*
X176951000Y-91302119D01*
X176908142Y-91216405D01*
X176908142Y-91002119D01*
X176951000Y-90916405D01*
X176993857Y-90873548D01*
X177079571Y-90830691D01*
X177165285Y-90830691D01*
X177293857Y-90873548D01*
X177808142Y-91387833D01*
X177808142Y-90830691D01*
X176908142Y-90273548D02*
X176908142Y-90187833D01*
X176951000Y-90102119D01*
X176993857Y-90059262D01*
X177079571Y-90016405D01*
X177251000Y-89973548D01*
X177465285Y-89973548D01*
X177636714Y-90016405D01*
X177722428Y-90059262D01*
X177765285Y-90102119D01*
X177808142Y-90187833D01*
X177808142Y-90273548D01*
X177765285Y-90359262D01*
X177722428Y-90402119D01*
X177636714Y-90444976D01*
X177465285Y-90487833D01*
X177251000Y-90487833D01*
X177079571Y-90444976D01*
X176993857Y-90402119D01*
X176951000Y-90359262D01*
X176908142Y-90273548D01*
X176993857Y-89630691D02*
X176951000Y-89587833D01*
X176908142Y-89502119D01*
X176908142Y-89287833D01*
X176951000Y-89202119D01*
X176993857Y-89159262D01*
X177079571Y-89116405D01*
X177165285Y-89116405D01*
X177293857Y-89159262D01*
X177808142Y-89673548D01*
X177808142Y-89116405D01*
G04 #@! TO.C,D203*
X172728142Y-92202119D02*
X171828142Y-92202119D01*
X171828142Y-91987833D01*
X171871000Y-91859262D01*
X171956714Y-91773548D01*
X172042428Y-91730691D01*
X172213857Y-91687833D01*
X172342428Y-91687833D01*
X172513857Y-91730691D01*
X172599571Y-91773548D01*
X172685285Y-91859262D01*
X172728142Y-91987833D01*
X172728142Y-92202119D01*
X171913857Y-91344976D02*
X171871000Y-91302119D01*
X171828142Y-91216405D01*
X171828142Y-91002119D01*
X171871000Y-90916405D01*
X171913857Y-90873548D01*
X171999571Y-90830691D01*
X172085285Y-90830691D01*
X172213857Y-90873548D01*
X172728142Y-91387833D01*
X172728142Y-90830691D01*
X171828142Y-90273548D02*
X171828142Y-90187833D01*
X171871000Y-90102119D01*
X171913857Y-90059262D01*
X171999571Y-90016405D01*
X172171000Y-89973548D01*
X172385285Y-89973548D01*
X172556714Y-90016405D01*
X172642428Y-90059262D01*
X172685285Y-90102119D01*
X172728142Y-90187833D01*
X172728142Y-90273548D01*
X172685285Y-90359262D01*
X172642428Y-90402119D01*
X172556714Y-90444976D01*
X172385285Y-90487833D01*
X172171000Y-90487833D01*
X171999571Y-90444976D01*
X171913857Y-90402119D01*
X171871000Y-90359262D01*
X171828142Y-90273548D01*
X171828142Y-89673548D02*
X171828142Y-89116405D01*
X172171000Y-89416405D01*
X172171000Y-89287833D01*
X172213857Y-89202119D01*
X172256714Y-89159262D01*
X172342428Y-89116405D01*
X172556714Y-89116405D01*
X172642428Y-89159262D01*
X172685285Y-89202119D01*
X172728142Y-89287833D01*
X172728142Y-89544976D01*
X172685285Y-89630691D01*
X172642428Y-89673548D01*
G04 #@! TO.C,F301*
X113269857Y-127973082D02*
X112969857Y-127973082D01*
X112969857Y-128444510D02*
X112969857Y-127544510D01*
X113398428Y-127544510D01*
X113655571Y-127544510D02*
X114212714Y-127544510D01*
X113912714Y-127887368D01*
X114041285Y-127887368D01*
X114127000Y-127930225D01*
X114169857Y-127973082D01*
X114212714Y-128058796D01*
X114212714Y-128273082D01*
X114169857Y-128358796D01*
X114127000Y-128401653D01*
X114041285Y-128444510D01*
X113784142Y-128444510D01*
X113698428Y-128401653D01*
X113655571Y-128358796D01*
X114769857Y-127544510D02*
X114855571Y-127544510D01*
X114941285Y-127587368D01*
X114984142Y-127630225D01*
X115027000Y-127715939D01*
X115069857Y-127887368D01*
X115069857Y-128101653D01*
X115027000Y-128273082D01*
X114984142Y-128358796D01*
X114941285Y-128401653D01*
X114855571Y-128444510D01*
X114769857Y-128444510D01*
X114684142Y-128401653D01*
X114641285Y-128358796D01*
X114598428Y-128273082D01*
X114555571Y-128101653D01*
X114555571Y-127887368D01*
X114598428Y-127715939D01*
X114641285Y-127630225D01*
X114684142Y-127587368D01*
X114769857Y-127544510D01*
X115927000Y-128444510D02*
X115412714Y-128444510D01*
X115669857Y-128444510D02*
X115669857Y-127544510D01*
X115584142Y-127673082D01*
X115498428Y-127758796D01*
X115412714Y-127801653D01*
G04 #@! TO.C,F601*
X113269857Y-82178898D02*
X112969857Y-82178898D01*
X112969857Y-82650326D02*
X112969857Y-81750326D01*
X113398428Y-81750326D01*
X114127000Y-81750326D02*
X113955571Y-81750326D01*
X113869857Y-81793184D01*
X113827000Y-81836041D01*
X113741285Y-81964612D01*
X113698428Y-82136041D01*
X113698428Y-82478898D01*
X113741285Y-82564612D01*
X113784142Y-82607469D01*
X113869857Y-82650326D01*
X114041285Y-82650326D01*
X114127000Y-82607469D01*
X114169857Y-82564612D01*
X114212714Y-82478898D01*
X114212714Y-82264612D01*
X114169857Y-82178898D01*
X114127000Y-82136041D01*
X114041285Y-82093184D01*
X113869857Y-82093184D01*
X113784142Y-82136041D01*
X113741285Y-82178898D01*
X113698428Y-82264612D01*
X114769857Y-81750326D02*
X114855571Y-81750326D01*
X114941285Y-81793184D01*
X114984142Y-81836041D01*
X115027000Y-81921755D01*
X115069857Y-82093184D01*
X115069857Y-82307469D01*
X115027000Y-82478898D01*
X114984142Y-82564612D01*
X114941285Y-82607469D01*
X114855571Y-82650326D01*
X114769857Y-82650326D01*
X114684142Y-82607469D01*
X114641285Y-82564612D01*
X114598428Y-82478898D01*
X114555571Y-82307469D01*
X114555571Y-82093184D01*
X114598428Y-81921755D01*
X114641285Y-81836041D01*
X114684142Y-81793184D01*
X114769857Y-81750326D01*
X115927000Y-82650326D02*
X115412714Y-82650326D01*
X115669857Y-82650326D02*
X115669857Y-81750326D01*
X115584142Y-81878898D01*
X115498428Y-81964612D01*
X115412714Y-82007469D01*
G04 #@! TO.C,F1001*
X112206285Y-97418898D02*
X111906285Y-97418898D01*
X111906285Y-97890326D02*
X111906285Y-96990326D01*
X112334857Y-96990326D01*
X113149142Y-97890326D02*
X112634857Y-97890326D01*
X112892000Y-97890326D02*
X112892000Y-96990326D01*
X112806285Y-97118898D01*
X112720571Y-97204612D01*
X112634857Y-97247469D01*
X113706285Y-96990326D02*
X113792000Y-96990326D01*
X113877714Y-97033184D01*
X113920571Y-97076041D01*
X113963428Y-97161755D01*
X114006285Y-97333184D01*
X114006285Y-97547469D01*
X113963428Y-97718898D01*
X113920571Y-97804612D01*
X113877714Y-97847469D01*
X113792000Y-97890326D01*
X113706285Y-97890326D01*
X113620571Y-97847469D01*
X113577714Y-97804612D01*
X113534857Y-97718898D01*
X113492000Y-97547469D01*
X113492000Y-97333184D01*
X113534857Y-97161755D01*
X113577714Y-97076041D01*
X113620571Y-97033184D01*
X113706285Y-96990326D01*
X114563428Y-96990326D02*
X114649142Y-96990326D01*
X114734857Y-97033184D01*
X114777714Y-97076041D01*
X114820571Y-97161755D01*
X114863428Y-97333184D01*
X114863428Y-97547469D01*
X114820571Y-97718898D01*
X114777714Y-97804612D01*
X114734857Y-97847469D01*
X114649142Y-97890326D01*
X114563428Y-97890326D01*
X114477714Y-97847469D01*
X114434857Y-97804612D01*
X114392000Y-97718898D01*
X114349142Y-97547469D01*
X114349142Y-97333184D01*
X114392000Y-97161755D01*
X114434857Y-97076041D01*
X114477714Y-97033184D01*
X114563428Y-96990326D01*
X115720571Y-97890326D02*
X115206285Y-97890326D01*
X115463428Y-97890326D02*
X115463428Y-96990326D01*
X115377714Y-97118898D01*
X115292000Y-97204612D01*
X115206285Y-97247469D01*
G04 #@! TO.C,FL1001*
X109302000Y-94243898D02*
X109002000Y-94243898D01*
X109002000Y-94715326D02*
X109002000Y-93815326D01*
X109430571Y-93815326D01*
X110202000Y-94715326D02*
X109773428Y-94715326D01*
X109773428Y-93815326D01*
X110973428Y-94715326D02*
X110459142Y-94715326D01*
X110716285Y-94715326D02*
X110716285Y-93815326D01*
X110630571Y-93943898D01*
X110544857Y-94029612D01*
X110459142Y-94072469D01*
X111530571Y-93815326D02*
X111616285Y-93815326D01*
X111702000Y-93858184D01*
X111744857Y-93901041D01*
X111787714Y-93986755D01*
X111830571Y-94158184D01*
X111830571Y-94372469D01*
X111787714Y-94543898D01*
X111744857Y-94629612D01*
X111702000Y-94672469D01*
X111616285Y-94715326D01*
X111530571Y-94715326D01*
X111444857Y-94672469D01*
X111402000Y-94629612D01*
X111359142Y-94543898D01*
X111316285Y-94372469D01*
X111316285Y-94158184D01*
X111359142Y-93986755D01*
X111402000Y-93901041D01*
X111444857Y-93858184D01*
X111530571Y-93815326D01*
X112387714Y-93815326D02*
X112473428Y-93815326D01*
X112559142Y-93858184D01*
X112602000Y-93901041D01*
X112644857Y-93986755D01*
X112687714Y-94158184D01*
X112687714Y-94372469D01*
X112644857Y-94543898D01*
X112602000Y-94629612D01*
X112559142Y-94672469D01*
X112473428Y-94715326D01*
X112387714Y-94715326D01*
X112302000Y-94672469D01*
X112259142Y-94629612D01*
X112216285Y-94543898D01*
X112173428Y-94372469D01*
X112173428Y-94158184D01*
X112216285Y-93986755D01*
X112259142Y-93901041D01*
X112302000Y-93858184D01*
X112387714Y-93815326D01*
X113544857Y-94715326D02*
X113030571Y-94715326D01*
X113287714Y-94715326D02*
X113287714Y-93815326D01*
X113202000Y-93943898D01*
X113116285Y-94029612D01*
X113030571Y-94072469D01*
G04 #@! TO.C,J101*
X106568142Y-55968326D02*
X107211000Y-55968326D01*
X107339571Y-56011184D01*
X107425285Y-56096898D01*
X107468142Y-56225469D01*
X107468142Y-56311184D01*
X107468142Y-55068326D02*
X107468142Y-55582612D01*
X107468142Y-55325469D02*
X106568142Y-55325469D01*
X106696714Y-55411184D01*
X106782428Y-55496898D01*
X106825285Y-55582612D01*
X106568142Y-54511184D02*
X106568142Y-54425469D01*
X106611000Y-54339755D01*
X106653857Y-54296898D01*
X106739571Y-54254041D01*
X106911000Y-54211184D01*
X107125285Y-54211184D01*
X107296714Y-54254041D01*
X107382428Y-54296898D01*
X107425285Y-54339755D01*
X107468142Y-54425469D01*
X107468142Y-54511184D01*
X107425285Y-54596898D01*
X107382428Y-54639755D01*
X107296714Y-54682612D01*
X107125285Y-54725469D01*
X106911000Y-54725469D01*
X106739571Y-54682612D01*
X106653857Y-54639755D01*
X106611000Y-54596898D01*
X106568142Y-54511184D01*
X107468142Y-53354041D02*
X107468142Y-53868326D01*
X107468142Y-53611184D02*
X106568142Y-53611184D01*
X106696714Y-53696898D01*
X106782428Y-53782612D01*
X106825285Y-53868326D01*
G04 #@! TO.C,J102*
X136413142Y-55968326D02*
X137056000Y-55968326D01*
X137184571Y-56011184D01*
X137270285Y-56096898D01*
X137313142Y-56225469D01*
X137313142Y-56311184D01*
X137313142Y-55068326D02*
X137313142Y-55582612D01*
X137313142Y-55325469D02*
X136413142Y-55325469D01*
X136541714Y-55411184D01*
X136627428Y-55496898D01*
X136670285Y-55582612D01*
X136413142Y-54511184D02*
X136413142Y-54425469D01*
X136456000Y-54339755D01*
X136498857Y-54296898D01*
X136584571Y-54254041D01*
X136756000Y-54211184D01*
X136970285Y-54211184D01*
X137141714Y-54254041D01*
X137227428Y-54296898D01*
X137270285Y-54339755D01*
X137313142Y-54425469D01*
X137313142Y-54511184D01*
X137270285Y-54596898D01*
X137227428Y-54639755D01*
X137141714Y-54682612D01*
X136970285Y-54725469D01*
X136756000Y-54725469D01*
X136584571Y-54682612D01*
X136498857Y-54639755D01*
X136456000Y-54596898D01*
X136413142Y-54511184D01*
X136498857Y-53868326D02*
X136456000Y-53825469D01*
X136413142Y-53739755D01*
X136413142Y-53525469D01*
X136456000Y-53439755D01*
X136498857Y-53396898D01*
X136584571Y-53354041D01*
X136670285Y-53354041D01*
X136798857Y-53396898D01*
X137313142Y-53911184D01*
X137313142Y-53354041D01*
G04 #@! TO.C,J103*
X160924142Y-55460326D02*
X161567000Y-55460326D01*
X161695571Y-55503184D01*
X161781285Y-55588898D01*
X161824142Y-55717469D01*
X161824142Y-55803184D01*
X161824142Y-54560326D02*
X161824142Y-55074612D01*
X161824142Y-54817469D02*
X160924142Y-54817469D01*
X161052714Y-54903184D01*
X161138428Y-54988898D01*
X161181285Y-55074612D01*
X160924142Y-54003184D02*
X160924142Y-53917469D01*
X160967000Y-53831755D01*
X161009857Y-53788898D01*
X161095571Y-53746041D01*
X161267000Y-53703184D01*
X161481285Y-53703184D01*
X161652714Y-53746041D01*
X161738428Y-53788898D01*
X161781285Y-53831755D01*
X161824142Y-53917469D01*
X161824142Y-54003184D01*
X161781285Y-54088898D01*
X161738428Y-54131755D01*
X161652714Y-54174612D01*
X161481285Y-54217469D01*
X161267000Y-54217469D01*
X161095571Y-54174612D01*
X161009857Y-54131755D01*
X160967000Y-54088898D01*
X160924142Y-54003184D01*
X160924142Y-53403184D02*
X160924142Y-52846041D01*
X161267000Y-53146041D01*
X161267000Y-53017469D01*
X161309857Y-52931755D01*
X161352714Y-52888898D01*
X161438428Y-52846041D01*
X161652714Y-52846041D01*
X161738428Y-52888898D01*
X161781285Y-52931755D01*
X161824142Y-53017469D01*
X161824142Y-53274612D01*
X161781285Y-53360326D01*
X161738428Y-53403184D01*
G04 #@! TO.C,J201*
X172959857Y-102070326D02*
X172959857Y-102713184D01*
X172917000Y-102841755D01*
X172831285Y-102927469D01*
X172702714Y-102970326D01*
X172617000Y-102970326D01*
X173345571Y-102156041D02*
X173388428Y-102113184D01*
X173474142Y-102070326D01*
X173688428Y-102070326D01*
X173774142Y-102113184D01*
X173817000Y-102156041D01*
X173859857Y-102241755D01*
X173859857Y-102327469D01*
X173817000Y-102456041D01*
X173302714Y-102970326D01*
X173859857Y-102970326D01*
X174417000Y-102070326D02*
X174502714Y-102070326D01*
X174588428Y-102113184D01*
X174631285Y-102156041D01*
X174674142Y-102241755D01*
X174717000Y-102413184D01*
X174717000Y-102627469D01*
X174674142Y-102798898D01*
X174631285Y-102884612D01*
X174588428Y-102927469D01*
X174502714Y-102970326D01*
X174417000Y-102970326D01*
X174331285Y-102927469D01*
X174288428Y-102884612D01*
X174245571Y-102798898D01*
X174202714Y-102627469D01*
X174202714Y-102413184D01*
X174245571Y-102241755D01*
X174288428Y-102156041D01*
X174331285Y-102113184D01*
X174417000Y-102070326D01*
X175574142Y-102970326D02*
X175059857Y-102970326D01*
X175317000Y-102970326D02*
X175317000Y-102070326D01*
X175231285Y-102198898D01*
X175145571Y-102284612D01*
X175059857Y-102327469D01*
G04 #@! TO.C,J202*
X176134857Y-125565326D02*
X176134857Y-126208184D01*
X176092000Y-126336755D01*
X176006285Y-126422469D01*
X175877714Y-126465326D01*
X175792000Y-126465326D01*
X176520571Y-125651041D02*
X176563428Y-125608184D01*
X176649142Y-125565326D01*
X176863428Y-125565326D01*
X176949142Y-125608184D01*
X176992000Y-125651041D01*
X177034857Y-125736755D01*
X177034857Y-125822469D01*
X176992000Y-125951041D01*
X176477714Y-126465326D01*
X177034857Y-126465326D01*
X177592000Y-125565326D02*
X177677714Y-125565326D01*
X177763428Y-125608184D01*
X177806285Y-125651041D01*
X177849142Y-125736755D01*
X177892000Y-125908184D01*
X177892000Y-126122469D01*
X177849142Y-126293898D01*
X177806285Y-126379612D01*
X177763428Y-126422469D01*
X177677714Y-126465326D01*
X177592000Y-126465326D01*
X177506285Y-126422469D01*
X177463428Y-126379612D01*
X177420571Y-126293898D01*
X177377714Y-126122469D01*
X177377714Y-125908184D01*
X177420571Y-125736755D01*
X177463428Y-125651041D01*
X177506285Y-125608184D01*
X177592000Y-125565326D01*
X178234857Y-125651041D02*
X178277714Y-125608184D01*
X178363428Y-125565326D01*
X178577714Y-125565326D01*
X178663428Y-125608184D01*
X178706285Y-125651041D01*
X178749142Y-125736755D01*
X178749142Y-125822469D01*
X178706285Y-125951041D01*
X178192000Y-126465326D01*
X178749142Y-126465326D01*
G04 #@! TO.C,J301*
X161529857Y-123025326D02*
X161529857Y-123668184D01*
X161487000Y-123796755D01*
X161401285Y-123882469D01*
X161272714Y-123925326D01*
X161187000Y-123925326D01*
X161872714Y-123025326D02*
X162429857Y-123025326D01*
X162129857Y-123368184D01*
X162258428Y-123368184D01*
X162344142Y-123411041D01*
X162387000Y-123453898D01*
X162429857Y-123539612D01*
X162429857Y-123753898D01*
X162387000Y-123839612D01*
X162344142Y-123882469D01*
X162258428Y-123925326D01*
X162001285Y-123925326D01*
X161915571Y-123882469D01*
X161872714Y-123839612D01*
X162987000Y-123025326D02*
X163072714Y-123025326D01*
X163158428Y-123068184D01*
X163201285Y-123111041D01*
X163244142Y-123196755D01*
X163287000Y-123368184D01*
X163287000Y-123582469D01*
X163244142Y-123753898D01*
X163201285Y-123839612D01*
X163158428Y-123882469D01*
X163072714Y-123925326D01*
X162987000Y-123925326D01*
X162901285Y-123882469D01*
X162858428Y-123839612D01*
X162815571Y-123753898D01*
X162772714Y-123582469D01*
X162772714Y-123368184D01*
X162815571Y-123196755D01*
X162858428Y-123111041D01*
X162901285Y-123068184D01*
X162987000Y-123025326D01*
X164144142Y-123925326D02*
X163629857Y-123925326D01*
X163887000Y-123925326D02*
X163887000Y-123025326D01*
X163801285Y-123153898D01*
X163715571Y-123239612D01*
X163629857Y-123282469D01*
G04 #@! TO.C,J401*
X211694857Y-80480326D02*
X211694857Y-81123184D01*
X211652000Y-81251755D01*
X211566285Y-81337469D01*
X211437714Y-81380326D01*
X211352000Y-81380326D01*
X212509142Y-80780326D02*
X212509142Y-81380326D01*
X212294857Y-80437469D02*
X212080571Y-81080326D01*
X212637714Y-81080326D01*
X213152000Y-80480326D02*
X213237714Y-80480326D01*
X213323428Y-80523184D01*
X213366285Y-80566041D01*
X213409142Y-80651755D01*
X213452000Y-80823184D01*
X213452000Y-81037469D01*
X213409142Y-81208898D01*
X213366285Y-81294612D01*
X213323428Y-81337469D01*
X213237714Y-81380326D01*
X213152000Y-81380326D01*
X213066285Y-81337469D01*
X213023428Y-81294612D01*
X212980571Y-81208898D01*
X212937714Y-81037469D01*
X212937714Y-80823184D01*
X212980571Y-80651755D01*
X213023428Y-80566041D01*
X213066285Y-80523184D01*
X213152000Y-80480326D01*
X214309142Y-81380326D02*
X213794857Y-81380326D01*
X214052000Y-81380326D02*
X214052000Y-80480326D01*
X213966285Y-80608898D01*
X213880571Y-80694612D01*
X213794857Y-80737469D01*
G04 #@! TO.C,J601*
X176769857Y-53810326D02*
X176769857Y-54453184D01*
X176727000Y-54581755D01*
X176641285Y-54667469D01*
X176512714Y-54710326D01*
X176427000Y-54710326D01*
X177584142Y-53810326D02*
X177412714Y-53810326D01*
X177327000Y-53853184D01*
X177284142Y-53896041D01*
X177198428Y-54024612D01*
X177155571Y-54196041D01*
X177155571Y-54538898D01*
X177198428Y-54624612D01*
X177241285Y-54667469D01*
X177327000Y-54710326D01*
X177498428Y-54710326D01*
X177584142Y-54667469D01*
X177627000Y-54624612D01*
X177669857Y-54538898D01*
X177669857Y-54324612D01*
X177627000Y-54238898D01*
X177584142Y-54196041D01*
X177498428Y-54153184D01*
X177327000Y-54153184D01*
X177241285Y-54196041D01*
X177198428Y-54238898D01*
X177155571Y-54324612D01*
X178227000Y-53810326D02*
X178312714Y-53810326D01*
X178398428Y-53853184D01*
X178441285Y-53896041D01*
X178484142Y-53981755D01*
X178527000Y-54153184D01*
X178527000Y-54367469D01*
X178484142Y-54538898D01*
X178441285Y-54624612D01*
X178398428Y-54667469D01*
X178312714Y-54710326D01*
X178227000Y-54710326D01*
X178141285Y-54667469D01*
X178098428Y-54624612D01*
X178055571Y-54538898D01*
X178012714Y-54367469D01*
X178012714Y-54153184D01*
X178055571Y-53981755D01*
X178098428Y-53896041D01*
X178141285Y-53853184D01*
X178227000Y-53810326D01*
X179384142Y-54710326D02*
X178869857Y-54710326D01*
X179127000Y-54710326D02*
X179127000Y-53810326D01*
X179041285Y-53938898D01*
X178955571Y-54024612D01*
X178869857Y-54067469D01*
G04 #@! TO.C,J602*
X199629857Y-53810326D02*
X199629857Y-54453184D01*
X199587000Y-54581755D01*
X199501285Y-54667469D01*
X199372714Y-54710326D01*
X199287000Y-54710326D01*
X200444142Y-53810326D02*
X200272714Y-53810326D01*
X200187000Y-53853184D01*
X200144142Y-53896041D01*
X200058428Y-54024612D01*
X200015571Y-54196041D01*
X200015571Y-54538898D01*
X200058428Y-54624612D01*
X200101285Y-54667469D01*
X200187000Y-54710326D01*
X200358428Y-54710326D01*
X200444142Y-54667469D01*
X200487000Y-54624612D01*
X200529857Y-54538898D01*
X200529857Y-54324612D01*
X200487000Y-54238898D01*
X200444142Y-54196041D01*
X200358428Y-54153184D01*
X200187000Y-54153184D01*
X200101285Y-54196041D01*
X200058428Y-54238898D01*
X200015571Y-54324612D01*
X201087000Y-53810326D02*
X201172714Y-53810326D01*
X201258428Y-53853184D01*
X201301285Y-53896041D01*
X201344142Y-53981755D01*
X201387000Y-54153184D01*
X201387000Y-54367469D01*
X201344142Y-54538898D01*
X201301285Y-54624612D01*
X201258428Y-54667469D01*
X201172714Y-54710326D01*
X201087000Y-54710326D01*
X201001285Y-54667469D01*
X200958428Y-54624612D01*
X200915571Y-54538898D01*
X200872714Y-54367469D01*
X200872714Y-54153184D01*
X200915571Y-53981755D01*
X200958428Y-53896041D01*
X201001285Y-53853184D01*
X201087000Y-53810326D01*
X201729857Y-53896041D02*
X201772714Y-53853184D01*
X201858428Y-53810326D01*
X202072714Y-53810326D01*
X202158428Y-53853184D01*
X202201285Y-53896041D01*
X202244142Y-53981755D01*
X202244142Y-54067469D01*
X202201285Y-54196041D01*
X201687000Y-54710326D01*
X202244142Y-54710326D01*
G04 #@! TO.C,J603*
X188199857Y-53810326D02*
X188199857Y-54453184D01*
X188157000Y-54581755D01*
X188071285Y-54667469D01*
X187942714Y-54710326D01*
X187857000Y-54710326D01*
X189014142Y-53810326D02*
X188842714Y-53810326D01*
X188757000Y-53853184D01*
X188714142Y-53896041D01*
X188628428Y-54024612D01*
X188585571Y-54196041D01*
X188585571Y-54538898D01*
X188628428Y-54624612D01*
X188671285Y-54667469D01*
X188757000Y-54710326D01*
X188928428Y-54710326D01*
X189014142Y-54667469D01*
X189057000Y-54624612D01*
X189099857Y-54538898D01*
X189099857Y-54324612D01*
X189057000Y-54238898D01*
X189014142Y-54196041D01*
X188928428Y-54153184D01*
X188757000Y-54153184D01*
X188671285Y-54196041D01*
X188628428Y-54238898D01*
X188585571Y-54324612D01*
X189657000Y-53810326D02*
X189742714Y-53810326D01*
X189828428Y-53853184D01*
X189871285Y-53896041D01*
X189914142Y-53981755D01*
X189957000Y-54153184D01*
X189957000Y-54367469D01*
X189914142Y-54538898D01*
X189871285Y-54624612D01*
X189828428Y-54667469D01*
X189742714Y-54710326D01*
X189657000Y-54710326D01*
X189571285Y-54667469D01*
X189528428Y-54624612D01*
X189485571Y-54538898D01*
X189442714Y-54367469D01*
X189442714Y-54153184D01*
X189485571Y-53981755D01*
X189528428Y-53896041D01*
X189571285Y-53853184D01*
X189657000Y-53810326D01*
X190257000Y-53810326D02*
X190814142Y-53810326D01*
X190514142Y-54153184D01*
X190642714Y-54153184D01*
X190728428Y-54196041D01*
X190771285Y-54238898D01*
X190814142Y-54324612D01*
X190814142Y-54538898D01*
X190771285Y-54624612D01*
X190728428Y-54667469D01*
X190642714Y-54710326D01*
X190385571Y-54710326D01*
X190299857Y-54667469D01*
X190257000Y-54624612D01*
G04 #@! TO.C,J605*
X89139857Y-80480326D02*
X89139857Y-81123184D01*
X89097000Y-81251755D01*
X89011285Y-81337469D01*
X88882714Y-81380326D01*
X88797000Y-81380326D01*
X89954142Y-80480326D02*
X89782714Y-80480326D01*
X89697000Y-80523184D01*
X89654142Y-80566041D01*
X89568428Y-80694612D01*
X89525571Y-80866041D01*
X89525571Y-81208898D01*
X89568428Y-81294612D01*
X89611285Y-81337469D01*
X89697000Y-81380326D01*
X89868428Y-81380326D01*
X89954142Y-81337469D01*
X89997000Y-81294612D01*
X90039857Y-81208898D01*
X90039857Y-80994612D01*
X89997000Y-80908898D01*
X89954142Y-80866041D01*
X89868428Y-80823184D01*
X89697000Y-80823184D01*
X89611285Y-80866041D01*
X89568428Y-80908898D01*
X89525571Y-80994612D01*
X90597000Y-80480326D02*
X90682714Y-80480326D01*
X90768428Y-80523184D01*
X90811285Y-80566041D01*
X90854142Y-80651755D01*
X90897000Y-80823184D01*
X90897000Y-81037469D01*
X90854142Y-81208898D01*
X90811285Y-81294612D01*
X90768428Y-81337469D01*
X90682714Y-81380326D01*
X90597000Y-81380326D01*
X90511285Y-81337469D01*
X90468428Y-81294612D01*
X90425571Y-81208898D01*
X90382714Y-81037469D01*
X90382714Y-80823184D01*
X90425571Y-80651755D01*
X90468428Y-80566041D01*
X90511285Y-80523184D01*
X90597000Y-80480326D01*
X91711285Y-80480326D02*
X91282714Y-80480326D01*
X91239857Y-80908898D01*
X91282714Y-80866041D01*
X91368428Y-80823184D01*
X91582714Y-80823184D01*
X91668428Y-80866041D01*
X91711285Y-80908898D01*
X91754142Y-80994612D01*
X91754142Y-81208898D01*
X91711285Y-81294612D01*
X91668428Y-81337469D01*
X91582714Y-81380326D01*
X91368428Y-81380326D01*
X91282714Y-81337469D01*
X91239857Y-81294612D01*
G04 #@! TO.C,J801*
X202931857Y-105044142D02*
X202931857Y-105687000D01*
X202889000Y-105815571D01*
X202803285Y-105901285D01*
X202674714Y-105944142D01*
X202589000Y-105944142D01*
X203489000Y-105429857D02*
X203403285Y-105387000D01*
X203360428Y-105344142D01*
X203317571Y-105258428D01*
X203317571Y-105215571D01*
X203360428Y-105129857D01*
X203403285Y-105087000D01*
X203489000Y-105044142D01*
X203660428Y-105044142D01*
X203746142Y-105087000D01*
X203789000Y-105129857D01*
X203831857Y-105215571D01*
X203831857Y-105258428D01*
X203789000Y-105344142D01*
X203746142Y-105387000D01*
X203660428Y-105429857D01*
X203489000Y-105429857D01*
X203403285Y-105472714D01*
X203360428Y-105515571D01*
X203317571Y-105601285D01*
X203317571Y-105772714D01*
X203360428Y-105858428D01*
X203403285Y-105901285D01*
X203489000Y-105944142D01*
X203660428Y-105944142D01*
X203746142Y-105901285D01*
X203789000Y-105858428D01*
X203831857Y-105772714D01*
X203831857Y-105601285D01*
X203789000Y-105515571D01*
X203746142Y-105472714D01*
X203660428Y-105429857D01*
X204389000Y-105044142D02*
X204474714Y-105044142D01*
X204560428Y-105087000D01*
X204603285Y-105129857D01*
X204646142Y-105215571D01*
X204689000Y-105387000D01*
X204689000Y-105601285D01*
X204646142Y-105772714D01*
X204603285Y-105858428D01*
X204560428Y-105901285D01*
X204474714Y-105944142D01*
X204389000Y-105944142D01*
X204303285Y-105901285D01*
X204260428Y-105858428D01*
X204217571Y-105772714D01*
X204174714Y-105601285D01*
X204174714Y-105387000D01*
X204217571Y-105215571D01*
X204260428Y-105129857D01*
X204303285Y-105087000D01*
X204389000Y-105044142D01*
X205546142Y-105944142D02*
X205031857Y-105944142D01*
X205289000Y-105944142D02*
X205289000Y-105044142D01*
X205203285Y-105172714D01*
X205117571Y-105258428D01*
X205031857Y-105301285D01*
G04 #@! TO.C,J802*
X202931857Y-112029142D02*
X202931857Y-112672000D01*
X202889000Y-112800571D01*
X202803285Y-112886285D01*
X202674714Y-112929142D01*
X202589000Y-112929142D01*
X203489000Y-112414857D02*
X203403285Y-112372000D01*
X203360428Y-112329142D01*
X203317571Y-112243428D01*
X203317571Y-112200571D01*
X203360428Y-112114857D01*
X203403285Y-112072000D01*
X203489000Y-112029142D01*
X203660428Y-112029142D01*
X203746142Y-112072000D01*
X203789000Y-112114857D01*
X203831857Y-112200571D01*
X203831857Y-112243428D01*
X203789000Y-112329142D01*
X203746142Y-112372000D01*
X203660428Y-112414857D01*
X203489000Y-112414857D01*
X203403285Y-112457714D01*
X203360428Y-112500571D01*
X203317571Y-112586285D01*
X203317571Y-112757714D01*
X203360428Y-112843428D01*
X203403285Y-112886285D01*
X203489000Y-112929142D01*
X203660428Y-112929142D01*
X203746142Y-112886285D01*
X203789000Y-112843428D01*
X203831857Y-112757714D01*
X203831857Y-112586285D01*
X203789000Y-112500571D01*
X203746142Y-112457714D01*
X203660428Y-112414857D01*
X204389000Y-112029142D02*
X204474714Y-112029142D01*
X204560428Y-112072000D01*
X204603285Y-112114857D01*
X204646142Y-112200571D01*
X204689000Y-112372000D01*
X204689000Y-112586285D01*
X204646142Y-112757714D01*
X204603285Y-112843428D01*
X204560428Y-112886285D01*
X204474714Y-112929142D01*
X204389000Y-112929142D01*
X204303285Y-112886285D01*
X204260428Y-112843428D01*
X204217571Y-112757714D01*
X204174714Y-112586285D01*
X204174714Y-112372000D01*
X204217571Y-112200571D01*
X204260428Y-112114857D01*
X204303285Y-112072000D01*
X204389000Y-112029142D01*
X205031857Y-112114857D02*
X205074714Y-112072000D01*
X205160428Y-112029142D01*
X205374714Y-112029142D01*
X205460428Y-112072000D01*
X205503285Y-112114857D01*
X205546142Y-112200571D01*
X205546142Y-112286285D01*
X205503285Y-112414857D01*
X204989000Y-112929142D01*
X205546142Y-112929142D01*
G04 #@! TO.C,J803*
X202931857Y-119014142D02*
X202931857Y-119657000D01*
X202889000Y-119785571D01*
X202803285Y-119871285D01*
X202674714Y-119914142D01*
X202589000Y-119914142D01*
X203489000Y-119399857D02*
X203403285Y-119357000D01*
X203360428Y-119314142D01*
X203317571Y-119228428D01*
X203317571Y-119185571D01*
X203360428Y-119099857D01*
X203403285Y-119057000D01*
X203489000Y-119014142D01*
X203660428Y-119014142D01*
X203746142Y-119057000D01*
X203789000Y-119099857D01*
X203831857Y-119185571D01*
X203831857Y-119228428D01*
X203789000Y-119314142D01*
X203746142Y-119357000D01*
X203660428Y-119399857D01*
X203489000Y-119399857D01*
X203403285Y-119442714D01*
X203360428Y-119485571D01*
X203317571Y-119571285D01*
X203317571Y-119742714D01*
X203360428Y-119828428D01*
X203403285Y-119871285D01*
X203489000Y-119914142D01*
X203660428Y-119914142D01*
X203746142Y-119871285D01*
X203789000Y-119828428D01*
X203831857Y-119742714D01*
X203831857Y-119571285D01*
X203789000Y-119485571D01*
X203746142Y-119442714D01*
X203660428Y-119399857D01*
X204389000Y-119014142D02*
X204474714Y-119014142D01*
X204560428Y-119057000D01*
X204603285Y-119099857D01*
X204646142Y-119185571D01*
X204689000Y-119357000D01*
X204689000Y-119571285D01*
X204646142Y-119742714D01*
X204603285Y-119828428D01*
X204560428Y-119871285D01*
X204474714Y-119914142D01*
X204389000Y-119914142D01*
X204303285Y-119871285D01*
X204260428Y-119828428D01*
X204217571Y-119742714D01*
X204174714Y-119571285D01*
X204174714Y-119357000D01*
X204217571Y-119185571D01*
X204260428Y-119099857D01*
X204303285Y-119057000D01*
X204389000Y-119014142D01*
X204989000Y-119014142D02*
X205546142Y-119014142D01*
X205246142Y-119357000D01*
X205374714Y-119357000D01*
X205460428Y-119399857D01*
X205503285Y-119442714D01*
X205546142Y-119528428D01*
X205546142Y-119742714D01*
X205503285Y-119828428D01*
X205460428Y-119871285D01*
X205374714Y-119914142D01*
X205117571Y-119914142D01*
X205031857Y-119871285D01*
X204989000Y-119828428D01*
G04 #@! TO.C,J804*
X203439857Y-125565326D02*
X203439857Y-126208184D01*
X203397000Y-126336755D01*
X203311285Y-126422469D01*
X203182714Y-126465326D01*
X203097000Y-126465326D01*
X203997000Y-125951041D02*
X203911285Y-125908184D01*
X203868428Y-125865326D01*
X203825571Y-125779612D01*
X203825571Y-125736755D01*
X203868428Y-125651041D01*
X203911285Y-125608184D01*
X203997000Y-125565326D01*
X204168428Y-125565326D01*
X204254142Y-125608184D01*
X204297000Y-125651041D01*
X204339857Y-125736755D01*
X204339857Y-125779612D01*
X204297000Y-125865326D01*
X204254142Y-125908184D01*
X204168428Y-125951041D01*
X203997000Y-125951041D01*
X203911285Y-125993898D01*
X203868428Y-126036755D01*
X203825571Y-126122469D01*
X203825571Y-126293898D01*
X203868428Y-126379612D01*
X203911285Y-126422469D01*
X203997000Y-126465326D01*
X204168428Y-126465326D01*
X204254142Y-126422469D01*
X204297000Y-126379612D01*
X204339857Y-126293898D01*
X204339857Y-126122469D01*
X204297000Y-126036755D01*
X204254142Y-125993898D01*
X204168428Y-125951041D01*
X204897000Y-125565326D02*
X204982714Y-125565326D01*
X205068428Y-125608184D01*
X205111285Y-125651041D01*
X205154142Y-125736755D01*
X205197000Y-125908184D01*
X205197000Y-126122469D01*
X205154142Y-126293898D01*
X205111285Y-126379612D01*
X205068428Y-126422469D01*
X204982714Y-126465326D01*
X204897000Y-126465326D01*
X204811285Y-126422469D01*
X204768428Y-126379612D01*
X204725571Y-126293898D01*
X204682714Y-126122469D01*
X204682714Y-125908184D01*
X204725571Y-125736755D01*
X204768428Y-125651041D01*
X204811285Y-125608184D01*
X204897000Y-125565326D01*
X205968428Y-125865326D02*
X205968428Y-126465326D01*
X205754142Y-125522469D02*
X205539857Y-126165326D01*
X206097000Y-126165326D01*
G04 #@! TO.C,RL701*
X122580571Y-50900326D02*
X122280571Y-50471755D01*
X122066285Y-50900326D02*
X122066285Y-50000326D01*
X122409142Y-50000326D01*
X122494857Y-50043184D01*
X122537714Y-50086041D01*
X122580571Y-50171755D01*
X122580571Y-50300326D01*
X122537714Y-50386041D01*
X122494857Y-50428898D01*
X122409142Y-50471755D01*
X122066285Y-50471755D01*
X123394857Y-50900326D02*
X122966285Y-50900326D01*
X122966285Y-50000326D01*
X123609142Y-50000326D02*
X124209142Y-50000326D01*
X123823428Y-50900326D01*
X124723428Y-50000326D02*
X124809142Y-50000326D01*
X124894857Y-50043184D01*
X124937714Y-50086041D01*
X124980571Y-50171755D01*
X125023428Y-50343184D01*
X125023428Y-50557469D01*
X124980571Y-50728898D01*
X124937714Y-50814612D01*
X124894857Y-50857469D01*
X124809142Y-50900326D01*
X124723428Y-50900326D01*
X124637714Y-50857469D01*
X124594857Y-50814612D01*
X124552000Y-50728898D01*
X124509142Y-50557469D01*
X124509142Y-50343184D01*
X124552000Y-50171755D01*
X124594857Y-50086041D01*
X124637714Y-50043184D01*
X124723428Y-50000326D01*
X125880571Y-50900326D02*
X125366285Y-50900326D01*
X125623428Y-50900326D02*
X125623428Y-50000326D01*
X125537714Y-50128898D01*
X125452000Y-50214612D01*
X125366285Y-50257469D01*
G04 #@! TO.C,RL702*
X152425571Y-50900326D02*
X152125571Y-50471755D01*
X151911285Y-50900326D02*
X151911285Y-50000326D01*
X152254142Y-50000326D01*
X152339857Y-50043184D01*
X152382714Y-50086041D01*
X152425571Y-50171755D01*
X152425571Y-50300326D01*
X152382714Y-50386041D01*
X152339857Y-50428898D01*
X152254142Y-50471755D01*
X151911285Y-50471755D01*
X153239857Y-50900326D02*
X152811285Y-50900326D01*
X152811285Y-50000326D01*
X153454142Y-50000326D02*
X154054142Y-50000326D01*
X153668428Y-50900326D01*
X154568428Y-50000326D02*
X154654142Y-50000326D01*
X154739857Y-50043184D01*
X154782714Y-50086041D01*
X154825571Y-50171755D01*
X154868428Y-50343184D01*
X154868428Y-50557469D01*
X154825571Y-50728898D01*
X154782714Y-50814612D01*
X154739857Y-50857469D01*
X154654142Y-50900326D01*
X154568428Y-50900326D01*
X154482714Y-50857469D01*
X154439857Y-50814612D01*
X154397000Y-50728898D01*
X154354142Y-50557469D01*
X154354142Y-50343184D01*
X154397000Y-50171755D01*
X154439857Y-50086041D01*
X154482714Y-50043184D01*
X154568428Y-50000326D01*
X155211285Y-50086041D02*
X155254142Y-50043184D01*
X155339857Y-50000326D01*
X155554142Y-50000326D01*
X155639857Y-50043184D01*
X155682714Y-50086041D01*
X155725571Y-50171755D01*
X155725571Y-50257469D01*
X155682714Y-50386041D01*
X155168428Y-50900326D01*
X155725571Y-50900326D01*
G04 #@! TO.C,SW201*
X133864401Y-110001952D02*
X133907258Y-109873381D01*
X133907258Y-109659095D01*
X133864401Y-109573381D01*
X133821544Y-109530524D01*
X133735830Y-109487667D01*
X133650116Y-109487667D01*
X133564401Y-109530524D01*
X133521544Y-109573381D01*
X133478687Y-109659095D01*
X133435830Y-109830524D01*
X133392973Y-109916238D01*
X133350116Y-109959095D01*
X133264401Y-110001952D01*
X133178687Y-110001952D01*
X133092973Y-109959095D01*
X133050116Y-109916238D01*
X133007258Y-109830524D01*
X133007258Y-109616238D01*
X133050116Y-109487667D01*
X133007258Y-109187667D02*
X133907258Y-108973381D01*
X133264401Y-108801952D01*
X133907258Y-108630524D01*
X133007258Y-108416238D01*
X133092973Y-108116238D02*
X133050116Y-108073381D01*
X133007258Y-107987667D01*
X133007258Y-107773381D01*
X133050116Y-107687667D01*
X133092973Y-107644810D01*
X133178687Y-107601952D01*
X133264401Y-107601952D01*
X133392973Y-107644810D01*
X133907258Y-108159095D01*
X133907258Y-107601952D01*
X133007258Y-107044810D02*
X133007258Y-106959095D01*
X133050116Y-106873381D01*
X133092973Y-106830524D01*
X133178687Y-106787667D01*
X133350116Y-106744810D01*
X133564401Y-106744810D01*
X133735830Y-106787667D01*
X133821544Y-106830524D01*
X133864401Y-106873381D01*
X133907258Y-106959095D01*
X133907258Y-107044810D01*
X133864401Y-107130524D01*
X133821544Y-107173381D01*
X133735830Y-107216238D01*
X133564401Y-107259095D01*
X133350116Y-107259095D01*
X133178687Y-107216238D01*
X133092973Y-107173381D01*
X133050116Y-107130524D01*
X133007258Y-107044810D01*
X133907258Y-105887667D02*
X133907258Y-106401952D01*
X133907258Y-106144810D02*
X133007258Y-106144810D01*
X133135830Y-106230524D01*
X133221544Y-106316238D01*
X133264401Y-106401952D01*
G04 #@! TO.C,SW202*
X149467320Y-110001952D02*
X149510177Y-109873381D01*
X149510177Y-109659095D01*
X149467320Y-109573381D01*
X149424463Y-109530524D01*
X149338749Y-109487667D01*
X149253035Y-109487667D01*
X149167320Y-109530524D01*
X149124463Y-109573381D01*
X149081606Y-109659095D01*
X149038749Y-109830524D01*
X148995892Y-109916238D01*
X148953035Y-109959095D01*
X148867320Y-110001952D01*
X148781606Y-110001952D01*
X148695892Y-109959095D01*
X148653035Y-109916238D01*
X148610177Y-109830524D01*
X148610177Y-109616238D01*
X148653035Y-109487667D01*
X148610177Y-109187667D02*
X149510177Y-108973381D01*
X148867320Y-108801952D01*
X149510177Y-108630524D01*
X148610177Y-108416238D01*
X148695892Y-108116238D02*
X148653035Y-108073381D01*
X148610177Y-107987667D01*
X148610177Y-107773381D01*
X148653035Y-107687667D01*
X148695892Y-107644810D01*
X148781606Y-107601952D01*
X148867320Y-107601952D01*
X148995892Y-107644810D01*
X149510177Y-108159095D01*
X149510177Y-107601952D01*
X148610177Y-107044810D02*
X148610177Y-106959095D01*
X148653035Y-106873381D01*
X148695892Y-106830524D01*
X148781606Y-106787667D01*
X148953035Y-106744810D01*
X149167320Y-106744810D01*
X149338749Y-106787667D01*
X149424463Y-106830524D01*
X149467320Y-106873381D01*
X149510177Y-106959095D01*
X149510177Y-107044810D01*
X149467320Y-107130524D01*
X149424463Y-107173381D01*
X149338749Y-107216238D01*
X149167320Y-107259095D01*
X148953035Y-107259095D01*
X148781606Y-107216238D01*
X148695892Y-107173381D01*
X148653035Y-107130524D01*
X148610177Y-107044810D01*
X148695892Y-106401952D02*
X148653035Y-106359095D01*
X148610177Y-106273381D01*
X148610177Y-106059095D01*
X148653035Y-105973381D01*
X148695892Y-105930524D01*
X148781606Y-105887667D01*
X148867320Y-105887667D01*
X148995892Y-105930524D01*
X149510177Y-106444810D01*
X149510177Y-105887667D01*
G04 #@! TO.C,U201*
X150349142Y-82385325D02*
X150349142Y-83113897D01*
X150392000Y-83199611D01*
X150434857Y-83242468D01*
X150520571Y-83285325D01*
X150692000Y-83285325D01*
X150777714Y-83242468D01*
X150820571Y-83199611D01*
X150863428Y-83113897D01*
X150863428Y-82385325D01*
X151249142Y-82471040D02*
X151292000Y-82428183D01*
X151377714Y-82385325D01*
X151592000Y-82385325D01*
X151677714Y-82428183D01*
X151720571Y-82471040D01*
X151763428Y-82556754D01*
X151763428Y-82642468D01*
X151720571Y-82771040D01*
X151206285Y-83285325D01*
X151763428Y-83285325D01*
X152320571Y-82385325D02*
X152406285Y-82385325D01*
X152492000Y-82428183D01*
X152534857Y-82471040D01*
X152577714Y-82556754D01*
X152620571Y-82728183D01*
X152620571Y-82942468D01*
X152577714Y-83113897D01*
X152534857Y-83199611D01*
X152492000Y-83242468D01*
X152406285Y-83285325D01*
X152320571Y-83285325D01*
X152234857Y-83242468D01*
X152192000Y-83199611D01*
X152149142Y-83113897D01*
X152106285Y-82942468D01*
X152106285Y-82728183D01*
X152149142Y-82556754D01*
X152192000Y-82471040D01*
X152234857Y-82428183D01*
X152320571Y-82385325D01*
X153477714Y-83285325D02*
X152963428Y-83285325D01*
X153220571Y-83285325D02*
X153220571Y-82385325D01*
X153134857Y-82513897D01*
X153049142Y-82599611D01*
X152963428Y-82642468D01*
G04 #@! TO.C,U301*
X135109142Y-120485326D02*
X135109142Y-121213898D01*
X135152000Y-121299612D01*
X135194857Y-121342469D01*
X135280571Y-121385326D01*
X135452000Y-121385326D01*
X135537714Y-121342469D01*
X135580571Y-121299612D01*
X135623428Y-121213898D01*
X135623428Y-120485326D01*
X135966285Y-120485326D02*
X136523428Y-120485326D01*
X136223428Y-120828184D01*
X136352000Y-120828184D01*
X136437714Y-120871041D01*
X136480571Y-120913898D01*
X136523428Y-120999612D01*
X136523428Y-121213898D01*
X136480571Y-121299612D01*
X136437714Y-121342469D01*
X136352000Y-121385326D01*
X136094857Y-121385326D01*
X136009142Y-121342469D01*
X135966285Y-121299612D01*
X137080571Y-120485326D02*
X137166285Y-120485326D01*
X137252000Y-120528184D01*
X137294857Y-120571041D01*
X137337714Y-120656755D01*
X137380571Y-120828184D01*
X137380571Y-121042469D01*
X137337714Y-121213898D01*
X137294857Y-121299612D01*
X137252000Y-121342469D01*
X137166285Y-121385326D01*
X137080571Y-121385326D01*
X136994857Y-121342469D01*
X136952000Y-121299612D01*
X136909142Y-121213898D01*
X136866285Y-121042469D01*
X136866285Y-120828184D01*
X136909142Y-120656755D01*
X136952000Y-120571041D01*
X136994857Y-120528184D01*
X137080571Y-120485326D01*
X138237714Y-121385326D02*
X137723428Y-121385326D01*
X137980571Y-121385326D02*
X137980571Y-120485326D01*
X137894857Y-120613898D01*
X137809142Y-120699612D01*
X137723428Y-120742469D01*
G04 #@! TO.C,U302*
X150984142Y-123025326D02*
X150984142Y-123753898D01*
X151027000Y-123839612D01*
X151069857Y-123882469D01*
X151155571Y-123925326D01*
X151327000Y-123925326D01*
X151412714Y-123882469D01*
X151455571Y-123839612D01*
X151498428Y-123753898D01*
X151498428Y-123025326D01*
X151841285Y-123025326D02*
X152398428Y-123025326D01*
X152098428Y-123368184D01*
X152227000Y-123368184D01*
X152312714Y-123411041D01*
X152355571Y-123453898D01*
X152398428Y-123539612D01*
X152398428Y-123753898D01*
X152355571Y-123839612D01*
X152312714Y-123882469D01*
X152227000Y-123925326D01*
X151969857Y-123925326D01*
X151884142Y-123882469D01*
X151841285Y-123839612D01*
X152955571Y-123025326D02*
X153041285Y-123025326D01*
X153127000Y-123068184D01*
X153169857Y-123111041D01*
X153212714Y-123196755D01*
X153255571Y-123368184D01*
X153255571Y-123582469D01*
X153212714Y-123753898D01*
X153169857Y-123839612D01*
X153127000Y-123882469D01*
X153041285Y-123925326D01*
X152955571Y-123925326D01*
X152869857Y-123882469D01*
X152827000Y-123839612D01*
X152784142Y-123753898D01*
X152741285Y-123582469D01*
X152741285Y-123368184D01*
X152784142Y-123196755D01*
X152827000Y-123111041D01*
X152869857Y-123068184D01*
X152955571Y-123025326D01*
X153598428Y-123111041D02*
X153641285Y-123068184D01*
X153727000Y-123025326D01*
X153941285Y-123025326D01*
X154027000Y-123068184D01*
X154069857Y-123111041D01*
X154112714Y-123196755D01*
X154112714Y-123282469D01*
X154069857Y-123411041D01*
X153555571Y-123925326D01*
X154112714Y-123925326D01*
G04 #@! TO.C,U401*
X192894142Y-84925326D02*
X192894142Y-85653898D01*
X192937000Y-85739612D01*
X192979857Y-85782469D01*
X193065571Y-85825326D01*
X193237000Y-85825326D01*
X193322714Y-85782469D01*
X193365571Y-85739612D01*
X193408428Y-85653898D01*
X193408428Y-84925326D01*
X194222714Y-85225326D02*
X194222714Y-85825326D01*
X194008428Y-84882469D02*
X193794142Y-85525326D01*
X194351285Y-85525326D01*
X194865571Y-84925326D02*
X194951285Y-84925326D01*
X195037000Y-84968184D01*
X195079857Y-85011041D01*
X195122714Y-85096755D01*
X195165571Y-85268184D01*
X195165571Y-85482469D01*
X195122714Y-85653898D01*
X195079857Y-85739612D01*
X195037000Y-85782469D01*
X194951285Y-85825326D01*
X194865571Y-85825326D01*
X194779857Y-85782469D01*
X194737000Y-85739612D01*
X194694142Y-85653898D01*
X194651285Y-85482469D01*
X194651285Y-85268184D01*
X194694142Y-85096755D01*
X194737000Y-85011041D01*
X194779857Y-84968184D01*
X194865571Y-84925326D01*
X196022714Y-85825326D02*
X195508428Y-85825326D01*
X195765571Y-85825326D02*
X195765571Y-84925326D01*
X195679857Y-85053898D01*
X195594142Y-85139612D01*
X195508428Y-85182469D01*
G04 #@! TO.C,U501*
X108439142Y-114770326D02*
X108439142Y-115498898D01*
X108482000Y-115584612D01*
X108524857Y-115627469D01*
X108610571Y-115670326D01*
X108782000Y-115670326D01*
X108867714Y-115627469D01*
X108910571Y-115584612D01*
X108953428Y-115498898D01*
X108953428Y-114770326D01*
X109810571Y-114770326D02*
X109382000Y-114770326D01*
X109339142Y-115198898D01*
X109382000Y-115156041D01*
X109467714Y-115113184D01*
X109682000Y-115113184D01*
X109767714Y-115156041D01*
X109810571Y-115198898D01*
X109853428Y-115284612D01*
X109853428Y-115498898D01*
X109810571Y-115584612D01*
X109767714Y-115627469D01*
X109682000Y-115670326D01*
X109467714Y-115670326D01*
X109382000Y-115627469D01*
X109339142Y-115584612D01*
X110410571Y-114770326D02*
X110496285Y-114770326D01*
X110582000Y-114813184D01*
X110624857Y-114856041D01*
X110667714Y-114941755D01*
X110710571Y-115113184D01*
X110710571Y-115327469D01*
X110667714Y-115498898D01*
X110624857Y-115584612D01*
X110582000Y-115627469D01*
X110496285Y-115670326D01*
X110410571Y-115670326D01*
X110324857Y-115627469D01*
X110282000Y-115584612D01*
X110239142Y-115498898D01*
X110196285Y-115327469D01*
X110196285Y-115113184D01*
X110239142Y-114941755D01*
X110282000Y-114856041D01*
X110324857Y-114813184D01*
X110410571Y-114770326D01*
X111567714Y-115670326D02*
X111053428Y-115670326D01*
X111310571Y-115670326D02*
X111310571Y-114770326D01*
X111224857Y-114898898D01*
X111139142Y-114984612D01*
X111053428Y-115027469D01*
G04 #@! TO.C,U601*
X171939142Y-66428142D02*
X171939142Y-67156714D01*
X171982000Y-67242428D01*
X172024857Y-67285285D01*
X172110571Y-67328142D01*
X172282000Y-67328142D01*
X172367714Y-67285285D01*
X172410571Y-67242428D01*
X172453428Y-67156714D01*
X172453428Y-66428142D01*
X173267714Y-66428142D02*
X173096285Y-66428142D01*
X173010571Y-66471000D01*
X172967714Y-66513857D01*
X172882000Y-66642428D01*
X172839142Y-66813857D01*
X172839142Y-67156714D01*
X172882000Y-67242428D01*
X172924857Y-67285285D01*
X173010571Y-67328142D01*
X173182000Y-67328142D01*
X173267714Y-67285285D01*
X173310571Y-67242428D01*
X173353428Y-67156714D01*
X173353428Y-66942428D01*
X173310571Y-66856714D01*
X173267714Y-66813857D01*
X173182000Y-66771000D01*
X173010571Y-66771000D01*
X172924857Y-66813857D01*
X172882000Y-66856714D01*
X172839142Y-66942428D01*
X173910571Y-66428142D02*
X173996285Y-66428142D01*
X174082000Y-66471000D01*
X174124857Y-66513857D01*
X174167714Y-66599571D01*
X174210571Y-66771000D01*
X174210571Y-66985285D01*
X174167714Y-67156714D01*
X174124857Y-67242428D01*
X174082000Y-67285285D01*
X173996285Y-67328142D01*
X173910571Y-67328142D01*
X173824857Y-67285285D01*
X173782000Y-67242428D01*
X173739142Y-67156714D01*
X173696285Y-66985285D01*
X173696285Y-66771000D01*
X173739142Y-66599571D01*
X173782000Y-66513857D01*
X173824857Y-66471000D01*
X173910571Y-66428142D01*
X175067714Y-67328142D02*
X174553428Y-67328142D01*
X174810571Y-67328142D02*
X174810571Y-66428142D01*
X174724857Y-66556714D01*
X174639142Y-66642428D01*
X174553428Y-66685285D01*
G04 #@! TO.C,U602*
X180829142Y-66428142D02*
X180829142Y-67156714D01*
X180872000Y-67242428D01*
X180914857Y-67285285D01*
X181000571Y-67328142D01*
X181172000Y-67328142D01*
X181257714Y-67285285D01*
X181300571Y-67242428D01*
X181343428Y-67156714D01*
X181343428Y-66428142D01*
X182157714Y-66428142D02*
X181986285Y-66428142D01*
X181900571Y-66471000D01*
X181857714Y-66513857D01*
X181772000Y-66642428D01*
X181729142Y-66813857D01*
X181729142Y-67156714D01*
X181772000Y-67242428D01*
X181814857Y-67285285D01*
X181900571Y-67328142D01*
X182072000Y-67328142D01*
X182157714Y-67285285D01*
X182200571Y-67242428D01*
X182243428Y-67156714D01*
X182243428Y-66942428D01*
X182200571Y-66856714D01*
X182157714Y-66813857D01*
X182072000Y-66771000D01*
X181900571Y-66771000D01*
X181814857Y-66813857D01*
X181772000Y-66856714D01*
X181729142Y-66942428D01*
X182800571Y-66428142D02*
X182886285Y-66428142D01*
X182972000Y-66471000D01*
X183014857Y-66513857D01*
X183057714Y-66599571D01*
X183100571Y-66771000D01*
X183100571Y-66985285D01*
X183057714Y-67156714D01*
X183014857Y-67242428D01*
X182972000Y-67285285D01*
X182886285Y-67328142D01*
X182800571Y-67328142D01*
X182714857Y-67285285D01*
X182672000Y-67242428D01*
X182629142Y-67156714D01*
X182586285Y-66985285D01*
X182586285Y-66771000D01*
X182629142Y-66599571D01*
X182672000Y-66513857D01*
X182714857Y-66471000D01*
X182800571Y-66428142D01*
X183443428Y-66513857D02*
X183486285Y-66471000D01*
X183572000Y-66428142D01*
X183786285Y-66428142D01*
X183872000Y-66471000D01*
X183914857Y-66513857D01*
X183957714Y-66599571D01*
X183957714Y-66685285D01*
X183914857Y-66813857D01*
X183400571Y-67328142D01*
X183957714Y-67328142D01*
G04 #@! TO.C,U603*
X198609142Y-66428142D02*
X198609142Y-67156714D01*
X198652000Y-67242428D01*
X198694857Y-67285285D01*
X198780571Y-67328142D01*
X198952000Y-67328142D01*
X199037714Y-67285285D01*
X199080571Y-67242428D01*
X199123428Y-67156714D01*
X199123428Y-66428142D01*
X199937714Y-66428142D02*
X199766285Y-66428142D01*
X199680571Y-66471000D01*
X199637714Y-66513857D01*
X199552000Y-66642428D01*
X199509142Y-66813857D01*
X199509142Y-67156714D01*
X199552000Y-67242428D01*
X199594857Y-67285285D01*
X199680571Y-67328142D01*
X199852000Y-67328142D01*
X199937714Y-67285285D01*
X199980571Y-67242428D01*
X200023428Y-67156714D01*
X200023428Y-66942428D01*
X199980571Y-66856714D01*
X199937714Y-66813857D01*
X199852000Y-66771000D01*
X199680571Y-66771000D01*
X199594857Y-66813857D01*
X199552000Y-66856714D01*
X199509142Y-66942428D01*
X200580571Y-66428142D02*
X200666285Y-66428142D01*
X200752000Y-66471000D01*
X200794857Y-66513857D01*
X200837714Y-66599571D01*
X200880571Y-66771000D01*
X200880571Y-66985285D01*
X200837714Y-67156714D01*
X200794857Y-67242428D01*
X200752000Y-67285285D01*
X200666285Y-67328142D01*
X200580571Y-67328142D01*
X200494857Y-67285285D01*
X200452000Y-67242428D01*
X200409142Y-67156714D01*
X200366285Y-66985285D01*
X200366285Y-66771000D01*
X200409142Y-66599571D01*
X200452000Y-66513857D01*
X200494857Y-66471000D01*
X200580571Y-66428142D01*
X201180571Y-66428142D02*
X201737714Y-66428142D01*
X201437714Y-66771000D01*
X201566285Y-66771000D01*
X201652000Y-66813857D01*
X201694857Y-66856714D01*
X201737714Y-66942428D01*
X201737714Y-67156714D01*
X201694857Y-67242428D01*
X201652000Y-67285285D01*
X201566285Y-67328142D01*
X201309142Y-67328142D01*
X201223428Y-67285285D01*
X201180571Y-67242428D01*
G04 #@! TO.C,U604*
X189719142Y-66428142D02*
X189719142Y-67156714D01*
X189762000Y-67242428D01*
X189804857Y-67285285D01*
X189890571Y-67328142D01*
X190062000Y-67328142D01*
X190147714Y-67285285D01*
X190190571Y-67242428D01*
X190233428Y-67156714D01*
X190233428Y-66428142D01*
X191047714Y-66428142D02*
X190876285Y-66428142D01*
X190790571Y-66471000D01*
X190747714Y-66513857D01*
X190662000Y-66642428D01*
X190619142Y-66813857D01*
X190619142Y-67156714D01*
X190662000Y-67242428D01*
X190704857Y-67285285D01*
X190790571Y-67328142D01*
X190962000Y-67328142D01*
X191047714Y-67285285D01*
X191090571Y-67242428D01*
X191133428Y-67156714D01*
X191133428Y-66942428D01*
X191090571Y-66856714D01*
X191047714Y-66813857D01*
X190962000Y-66771000D01*
X190790571Y-66771000D01*
X190704857Y-66813857D01*
X190662000Y-66856714D01*
X190619142Y-66942428D01*
X191690571Y-66428142D02*
X191776285Y-66428142D01*
X191862000Y-66471000D01*
X191904857Y-66513857D01*
X191947714Y-66599571D01*
X191990571Y-66771000D01*
X191990571Y-66985285D01*
X191947714Y-67156714D01*
X191904857Y-67242428D01*
X191862000Y-67285285D01*
X191776285Y-67328142D01*
X191690571Y-67328142D01*
X191604857Y-67285285D01*
X191562000Y-67242428D01*
X191519142Y-67156714D01*
X191476285Y-66985285D01*
X191476285Y-66771000D01*
X191519142Y-66599571D01*
X191562000Y-66513857D01*
X191604857Y-66471000D01*
X191690571Y-66428142D01*
X192762000Y-66728142D02*
X192762000Y-67328142D01*
X192547714Y-66385285D02*
X192333428Y-67028142D01*
X192890571Y-67028142D01*
G04 #@! TO.C,U606*
X120504142Y-83020326D02*
X120504142Y-83748898D01*
X120547000Y-83834612D01*
X120589857Y-83877469D01*
X120675571Y-83920326D01*
X120847000Y-83920326D01*
X120932714Y-83877469D01*
X120975571Y-83834612D01*
X121018428Y-83748898D01*
X121018428Y-83020326D01*
X121832714Y-83020326D02*
X121661285Y-83020326D01*
X121575571Y-83063184D01*
X121532714Y-83106041D01*
X121447000Y-83234612D01*
X121404142Y-83406041D01*
X121404142Y-83748898D01*
X121447000Y-83834612D01*
X121489857Y-83877469D01*
X121575571Y-83920326D01*
X121747000Y-83920326D01*
X121832714Y-83877469D01*
X121875571Y-83834612D01*
X121918428Y-83748898D01*
X121918428Y-83534612D01*
X121875571Y-83448898D01*
X121832714Y-83406041D01*
X121747000Y-83363184D01*
X121575571Y-83363184D01*
X121489857Y-83406041D01*
X121447000Y-83448898D01*
X121404142Y-83534612D01*
X122475571Y-83020326D02*
X122561285Y-83020326D01*
X122647000Y-83063184D01*
X122689857Y-83106041D01*
X122732714Y-83191755D01*
X122775571Y-83363184D01*
X122775571Y-83577469D01*
X122732714Y-83748898D01*
X122689857Y-83834612D01*
X122647000Y-83877469D01*
X122561285Y-83920326D01*
X122475571Y-83920326D01*
X122389857Y-83877469D01*
X122347000Y-83834612D01*
X122304142Y-83748898D01*
X122261285Y-83577469D01*
X122261285Y-83363184D01*
X122304142Y-83191755D01*
X122347000Y-83106041D01*
X122389857Y-83063184D01*
X122475571Y-83020326D01*
X123547000Y-83020326D02*
X123375571Y-83020326D01*
X123289857Y-83063184D01*
X123247000Y-83106041D01*
X123161285Y-83234612D01*
X123118428Y-83406041D01*
X123118428Y-83748898D01*
X123161285Y-83834612D01*
X123204142Y-83877469D01*
X123289857Y-83920326D01*
X123461285Y-83920326D01*
X123547000Y-83877469D01*
X123589857Y-83834612D01*
X123632714Y-83748898D01*
X123632714Y-83534612D01*
X123589857Y-83448898D01*
X123547000Y-83406041D01*
X123461285Y-83363184D01*
X123289857Y-83363184D01*
X123204142Y-83406041D01*
X123161285Y-83448898D01*
X123118428Y-83534612D01*
G04 #@! TO.C,U901*
X112249142Y-72225326D02*
X112249142Y-72953898D01*
X112292000Y-73039612D01*
X112334857Y-73082469D01*
X112420571Y-73125326D01*
X112592000Y-73125326D01*
X112677714Y-73082469D01*
X112720571Y-73039612D01*
X112763428Y-72953898D01*
X112763428Y-72225326D01*
X113234857Y-73125326D02*
X113406285Y-73125326D01*
X113492000Y-73082469D01*
X113534857Y-73039612D01*
X113620571Y-72911041D01*
X113663428Y-72739612D01*
X113663428Y-72396755D01*
X113620571Y-72311041D01*
X113577714Y-72268184D01*
X113492000Y-72225326D01*
X113320571Y-72225326D01*
X113234857Y-72268184D01*
X113192000Y-72311041D01*
X113149142Y-72396755D01*
X113149142Y-72611041D01*
X113192000Y-72696755D01*
X113234857Y-72739612D01*
X113320571Y-72782469D01*
X113492000Y-72782469D01*
X113577714Y-72739612D01*
X113620571Y-72696755D01*
X113663428Y-72611041D01*
X114220571Y-72225326D02*
X114306285Y-72225326D01*
X114392000Y-72268184D01*
X114434857Y-72311041D01*
X114477714Y-72396755D01*
X114520571Y-72568184D01*
X114520571Y-72782469D01*
X114477714Y-72953898D01*
X114434857Y-73039612D01*
X114392000Y-73082469D01*
X114306285Y-73125326D01*
X114220571Y-73125326D01*
X114134857Y-73082469D01*
X114092000Y-73039612D01*
X114049142Y-72953898D01*
X114006285Y-72782469D01*
X114006285Y-72568184D01*
X114049142Y-72396755D01*
X114092000Y-72311041D01*
X114134857Y-72268184D01*
X114220571Y-72225326D01*
X115377714Y-73125326D02*
X114863428Y-73125326D01*
X115120571Y-73125326D02*
X115120571Y-72225326D01*
X115034857Y-72353898D01*
X114949142Y-72439612D01*
X114863428Y-72482469D01*
G04 #@! TO.C,U903*
X142094142Y-72225326D02*
X142094142Y-72953898D01*
X142137000Y-73039612D01*
X142179857Y-73082469D01*
X142265571Y-73125326D01*
X142437000Y-73125326D01*
X142522714Y-73082469D01*
X142565571Y-73039612D01*
X142608428Y-72953898D01*
X142608428Y-72225326D01*
X143079857Y-73125326D02*
X143251285Y-73125326D01*
X143337000Y-73082469D01*
X143379857Y-73039612D01*
X143465571Y-72911041D01*
X143508428Y-72739612D01*
X143508428Y-72396755D01*
X143465571Y-72311041D01*
X143422714Y-72268184D01*
X143337000Y-72225326D01*
X143165571Y-72225326D01*
X143079857Y-72268184D01*
X143037000Y-72311041D01*
X142994142Y-72396755D01*
X142994142Y-72611041D01*
X143037000Y-72696755D01*
X143079857Y-72739612D01*
X143165571Y-72782469D01*
X143337000Y-72782469D01*
X143422714Y-72739612D01*
X143465571Y-72696755D01*
X143508428Y-72611041D01*
X144065571Y-72225326D02*
X144151285Y-72225326D01*
X144237000Y-72268184D01*
X144279857Y-72311041D01*
X144322714Y-72396755D01*
X144365571Y-72568184D01*
X144365571Y-72782469D01*
X144322714Y-72953898D01*
X144279857Y-73039612D01*
X144237000Y-73082469D01*
X144151285Y-73125326D01*
X144065571Y-73125326D01*
X143979857Y-73082469D01*
X143937000Y-73039612D01*
X143894142Y-72953898D01*
X143851285Y-72782469D01*
X143851285Y-72568184D01*
X143894142Y-72396755D01*
X143937000Y-72311041D01*
X143979857Y-72268184D01*
X144065571Y-72225326D01*
X144665571Y-72225326D02*
X145222714Y-72225326D01*
X144922714Y-72568184D01*
X145051285Y-72568184D01*
X145137000Y-72611041D01*
X145179857Y-72653898D01*
X145222714Y-72739612D01*
X145222714Y-72953898D01*
X145179857Y-73039612D01*
X145137000Y-73082469D01*
X145051285Y-73125326D01*
X144794142Y-73125326D01*
X144708428Y-73082469D01*
X144665571Y-73039612D01*
G04 #@! TO.C,U905*
X112249142Y-77940326D02*
X112249142Y-78668898D01*
X112292000Y-78754612D01*
X112334857Y-78797469D01*
X112420571Y-78840326D01*
X112592000Y-78840326D01*
X112677714Y-78797469D01*
X112720571Y-78754612D01*
X112763428Y-78668898D01*
X112763428Y-77940326D01*
X113234857Y-78840326D02*
X113406285Y-78840326D01*
X113492000Y-78797469D01*
X113534857Y-78754612D01*
X113620571Y-78626041D01*
X113663428Y-78454612D01*
X113663428Y-78111755D01*
X113620571Y-78026041D01*
X113577714Y-77983184D01*
X113492000Y-77940326D01*
X113320571Y-77940326D01*
X113234857Y-77983184D01*
X113192000Y-78026041D01*
X113149142Y-78111755D01*
X113149142Y-78326041D01*
X113192000Y-78411755D01*
X113234857Y-78454612D01*
X113320571Y-78497469D01*
X113492000Y-78497469D01*
X113577714Y-78454612D01*
X113620571Y-78411755D01*
X113663428Y-78326041D01*
X114220571Y-77940326D02*
X114306285Y-77940326D01*
X114392000Y-77983184D01*
X114434857Y-78026041D01*
X114477714Y-78111755D01*
X114520571Y-78283184D01*
X114520571Y-78497469D01*
X114477714Y-78668898D01*
X114434857Y-78754612D01*
X114392000Y-78797469D01*
X114306285Y-78840326D01*
X114220571Y-78840326D01*
X114134857Y-78797469D01*
X114092000Y-78754612D01*
X114049142Y-78668898D01*
X114006285Y-78497469D01*
X114006285Y-78283184D01*
X114049142Y-78111755D01*
X114092000Y-78026041D01*
X114134857Y-77983184D01*
X114220571Y-77940326D01*
X115334857Y-77940326D02*
X114906285Y-77940326D01*
X114863428Y-78368898D01*
X114906285Y-78326041D01*
X114992000Y-78283184D01*
X115206285Y-78283184D01*
X115292000Y-78326041D01*
X115334857Y-78368898D01*
X115377714Y-78454612D01*
X115377714Y-78668898D01*
X115334857Y-78754612D01*
X115292000Y-78797469D01*
X115206285Y-78840326D01*
X114992000Y-78840326D01*
X114906285Y-78797469D01*
X114863428Y-78754612D01*
G04 #@! TO.C,U906*
X142094142Y-77940326D02*
X142094142Y-78668898D01*
X142137000Y-78754612D01*
X142179857Y-78797469D01*
X142265571Y-78840326D01*
X142437000Y-78840326D01*
X142522714Y-78797469D01*
X142565571Y-78754612D01*
X142608428Y-78668898D01*
X142608428Y-77940326D01*
X143079857Y-78840326D02*
X143251285Y-78840326D01*
X143337000Y-78797469D01*
X143379857Y-78754612D01*
X143465571Y-78626041D01*
X143508428Y-78454612D01*
X143508428Y-78111755D01*
X143465571Y-78026041D01*
X143422714Y-77983184D01*
X143337000Y-77940326D01*
X143165571Y-77940326D01*
X143079857Y-77983184D01*
X143037000Y-78026041D01*
X142994142Y-78111755D01*
X142994142Y-78326041D01*
X143037000Y-78411755D01*
X143079857Y-78454612D01*
X143165571Y-78497469D01*
X143337000Y-78497469D01*
X143422714Y-78454612D01*
X143465571Y-78411755D01*
X143508428Y-78326041D01*
X144065571Y-77940326D02*
X144151285Y-77940326D01*
X144237000Y-77983184D01*
X144279857Y-78026041D01*
X144322714Y-78111755D01*
X144365571Y-78283184D01*
X144365571Y-78497469D01*
X144322714Y-78668898D01*
X144279857Y-78754612D01*
X144237000Y-78797469D01*
X144151285Y-78840326D01*
X144065571Y-78840326D01*
X143979857Y-78797469D01*
X143937000Y-78754612D01*
X143894142Y-78668898D01*
X143851285Y-78497469D01*
X143851285Y-78283184D01*
X143894142Y-78111755D01*
X143937000Y-78026041D01*
X143979857Y-77983184D01*
X144065571Y-77940326D01*
X145137000Y-77940326D02*
X144965571Y-77940326D01*
X144879857Y-77983184D01*
X144837000Y-78026041D01*
X144751285Y-78154612D01*
X144708428Y-78326041D01*
X144708428Y-78668898D01*
X144751285Y-78754612D01*
X144794142Y-78797469D01*
X144879857Y-78840326D01*
X145051285Y-78840326D01*
X145137000Y-78797469D01*
X145179857Y-78754612D01*
X145222714Y-78668898D01*
X145222714Y-78454612D01*
X145179857Y-78368898D01*
X145137000Y-78326041D01*
X145051285Y-78283184D01*
X144879857Y-78283184D01*
X144794142Y-78326041D01*
X144751285Y-78368898D01*
X144708428Y-78454612D01*
G04 #@! TO.C,U904*
X104629142Y-69685326D02*
X104629142Y-70413898D01*
X104672000Y-70499612D01*
X104714857Y-70542469D01*
X104800571Y-70585326D01*
X104972000Y-70585326D01*
X105057714Y-70542469D01*
X105100571Y-70499612D01*
X105143428Y-70413898D01*
X105143428Y-69685326D01*
X105614857Y-70585326D02*
X105786285Y-70585326D01*
X105872000Y-70542469D01*
X105914857Y-70499612D01*
X106000571Y-70371041D01*
X106043428Y-70199612D01*
X106043428Y-69856755D01*
X106000571Y-69771041D01*
X105957714Y-69728184D01*
X105872000Y-69685326D01*
X105700571Y-69685326D01*
X105614857Y-69728184D01*
X105572000Y-69771041D01*
X105529142Y-69856755D01*
X105529142Y-70071041D01*
X105572000Y-70156755D01*
X105614857Y-70199612D01*
X105700571Y-70242469D01*
X105872000Y-70242469D01*
X105957714Y-70199612D01*
X106000571Y-70156755D01*
X106043428Y-70071041D01*
X106600571Y-69685326D02*
X106686285Y-69685326D01*
X106772000Y-69728184D01*
X106814857Y-69771041D01*
X106857714Y-69856755D01*
X106900571Y-70028184D01*
X106900571Y-70242469D01*
X106857714Y-70413898D01*
X106814857Y-70499612D01*
X106772000Y-70542469D01*
X106686285Y-70585326D01*
X106600571Y-70585326D01*
X106514857Y-70542469D01*
X106472000Y-70499612D01*
X106429142Y-70413898D01*
X106386285Y-70242469D01*
X106386285Y-70028184D01*
X106429142Y-69856755D01*
X106472000Y-69771041D01*
X106514857Y-69728184D01*
X106600571Y-69685326D01*
X107672000Y-69985326D02*
X107672000Y-70585326D01*
X107457714Y-69642469D02*
X107243428Y-70285326D01*
X107800571Y-70285326D01*
G04 #@! TO.C,J604*
X211059857Y-53810326D02*
X211059857Y-54453184D01*
X211017000Y-54581755D01*
X210931285Y-54667469D01*
X210802714Y-54710326D01*
X210717000Y-54710326D01*
X211874142Y-53810326D02*
X211702714Y-53810326D01*
X211617000Y-53853184D01*
X211574142Y-53896041D01*
X211488428Y-54024612D01*
X211445571Y-54196041D01*
X211445571Y-54538898D01*
X211488428Y-54624612D01*
X211531285Y-54667469D01*
X211617000Y-54710326D01*
X211788428Y-54710326D01*
X211874142Y-54667469D01*
X211917000Y-54624612D01*
X211959857Y-54538898D01*
X211959857Y-54324612D01*
X211917000Y-54238898D01*
X211874142Y-54196041D01*
X211788428Y-54153184D01*
X211617000Y-54153184D01*
X211531285Y-54196041D01*
X211488428Y-54238898D01*
X211445571Y-54324612D01*
X212517000Y-53810326D02*
X212602714Y-53810326D01*
X212688428Y-53853184D01*
X212731285Y-53896041D01*
X212774142Y-53981755D01*
X212817000Y-54153184D01*
X212817000Y-54367469D01*
X212774142Y-54538898D01*
X212731285Y-54624612D01*
X212688428Y-54667469D01*
X212602714Y-54710326D01*
X212517000Y-54710326D01*
X212431285Y-54667469D01*
X212388428Y-54624612D01*
X212345571Y-54538898D01*
X212302714Y-54367469D01*
X212302714Y-54153184D01*
X212345571Y-53981755D01*
X212388428Y-53896041D01*
X212431285Y-53853184D01*
X212517000Y-53810326D01*
X213588428Y-54110326D02*
X213588428Y-54710326D01*
X213374142Y-53767469D02*
X213159857Y-54410326D01*
X213717000Y-54410326D01*
G04 #@! TO.C,U605*
X207499142Y-66428142D02*
X207499142Y-67156714D01*
X207542000Y-67242428D01*
X207584857Y-67285285D01*
X207670571Y-67328142D01*
X207842000Y-67328142D01*
X207927714Y-67285285D01*
X207970571Y-67242428D01*
X208013428Y-67156714D01*
X208013428Y-66428142D01*
X208827714Y-66428142D02*
X208656285Y-66428142D01*
X208570571Y-66471000D01*
X208527714Y-66513857D01*
X208442000Y-66642428D01*
X208399142Y-66813857D01*
X208399142Y-67156714D01*
X208442000Y-67242428D01*
X208484857Y-67285285D01*
X208570571Y-67328142D01*
X208742000Y-67328142D01*
X208827714Y-67285285D01*
X208870571Y-67242428D01*
X208913428Y-67156714D01*
X208913428Y-66942428D01*
X208870571Y-66856714D01*
X208827714Y-66813857D01*
X208742000Y-66771000D01*
X208570571Y-66771000D01*
X208484857Y-66813857D01*
X208442000Y-66856714D01*
X208399142Y-66942428D01*
X209470571Y-66428142D02*
X209556285Y-66428142D01*
X209642000Y-66471000D01*
X209684857Y-66513857D01*
X209727714Y-66599571D01*
X209770571Y-66771000D01*
X209770571Y-66985285D01*
X209727714Y-67156714D01*
X209684857Y-67242428D01*
X209642000Y-67285285D01*
X209556285Y-67328142D01*
X209470571Y-67328142D01*
X209384857Y-67285285D01*
X209342000Y-67242428D01*
X209299142Y-67156714D01*
X209256285Y-66985285D01*
X209256285Y-66771000D01*
X209299142Y-66599571D01*
X209342000Y-66513857D01*
X209384857Y-66471000D01*
X209470571Y-66428142D01*
X210584857Y-66428142D02*
X210156285Y-66428142D01*
X210113428Y-66856714D01*
X210156285Y-66813857D01*
X210242000Y-66771000D01*
X210456285Y-66771000D01*
X210542000Y-66813857D01*
X210584857Y-66856714D01*
X210627714Y-66942428D01*
X210627714Y-67156714D01*
X210584857Y-67242428D01*
X210542000Y-67285285D01*
X210456285Y-67328142D01*
X210242000Y-67328142D01*
X210156285Y-67285285D01*
X210113428Y-67242428D01*
G04 #@! TO.C,J501*
X105679142Y-124103326D02*
X106322000Y-124103326D01*
X106450571Y-124146184D01*
X106536285Y-124231898D01*
X106579142Y-124360469D01*
X106579142Y-124446184D01*
X105679142Y-123246184D02*
X105679142Y-123674755D01*
X106107714Y-123717612D01*
X106064857Y-123674755D01*
X106022000Y-123589041D01*
X106022000Y-123374755D01*
X106064857Y-123289041D01*
X106107714Y-123246184D01*
X106193428Y-123203326D01*
X106407714Y-123203326D01*
X106493428Y-123246184D01*
X106536285Y-123289041D01*
X106579142Y-123374755D01*
X106579142Y-123589041D01*
X106536285Y-123674755D01*
X106493428Y-123717612D01*
X105679142Y-122646184D02*
X105679142Y-122560469D01*
X105722000Y-122474755D01*
X105764857Y-122431898D01*
X105850571Y-122389041D01*
X106022000Y-122346184D01*
X106236285Y-122346184D01*
X106407714Y-122389041D01*
X106493428Y-122431898D01*
X106536285Y-122474755D01*
X106579142Y-122560469D01*
X106579142Y-122646184D01*
X106536285Y-122731898D01*
X106493428Y-122774755D01*
X106407714Y-122817612D01*
X106236285Y-122860469D01*
X106022000Y-122860469D01*
X105850571Y-122817612D01*
X105764857Y-122774755D01*
X105722000Y-122731898D01*
X105679142Y-122646184D01*
X106579142Y-121489041D02*
X106579142Y-122003326D01*
X106579142Y-121746184D02*
X105679142Y-121746184D01*
X105807714Y-121831898D01*
X105893428Y-121917612D01*
X105936285Y-122003326D01*
G04 #@! TO.C,C916*
X137262809Y-79031755D02*
X137202333Y-79092231D01*
X137020904Y-79152707D01*
X136899952Y-79152707D01*
X136718523Y-79092231D01*
X136597571Y-78971279D01*
X136537095Y-78850326D01*
X136476619Y-78608422D01*
X136476619Y-78426993D01*
X136537095Y-78185088D01*
X136597571Y-78064136D01*
X136718523Y-77943184D01*
X136899952Y-77882707D01*
X137020904Y-77882707D01*
X137202333Y-77943184D01*
X137262809Y-78003660D01*
X137867571Y-79152707D02*
X138109476Y-79152707D01*
X138230428Y-79092231D01*
X138290904Y-79031755D01*
X138411857Y-78850326D01*
X138472333Y-78608422D01*
X138472333Y-78124612D01*
X138411857Y-78003660D01*
X138351380Y-77943184D01*
X138230428Y-77882707D01*
X137988523Y-77882707D01*
X137867571Y-77943184D01*
X137807095Y-78003660D01*
X137746619Y-78124612D01*
X137746619Y-78426993D01*
X137807095Y-78547945D01*
X137867571Y-78608422D01*
X137988523Y-78668898D01*
X138230428Y-78668898D01*
X138351380Y-78608422D01*
X138411857Y-78547945D01*
X138472333Y-78426993D01*
X139681857Y-79152707D02*
X138956142Y-79152707D01*
X139319000Y-79152707D02*
X139319000Y-77882707D01*
X139198047Y-78064136D01*
X139077095Y-78185088D01*
X138956142Y-78245564D01*
X140770428Y-77882707D02*
X140528523Y-77882707D01*
X140407571Y-77943184D01*
X140347095Y-78003660D01*
X140226142Y-78185088D01*
X140165666Y-78426993D01*
X140165666Y-78910803D01*
X140226142Y-79031755D01*
X140286619Y-79092231D01*
X140407571Y-79152707D01*
X140649476Y-79152707D01*
X140770428Y-79092231D01*
X140830904Y-79031755D01*
X140891380Y-78910803D01*
X140891380Y-78608422D01*
X140830904Y-78487469D01*
X140770428Y-78426993D01*
X140649476Y-78366517D01*
X140407571Y-78366517D01*
X140286619Y-78426993D01*
X140226142Y-78487469D01*
X140165666Y-78608422D01*
G04 #@! TO.C,C917*
X108149571Y-78711374D02*
X108210047Y-78771850D01*
X108270523Y-78953279D01*
X108270523Y-79074231D01*
X108210047Y-79255660D01*
X108089095Y-79376612D01*
X107968142Y-79437088D01*
X107726238Y-79497564D01*
X107544809Y-79497564D01*
X107302904Y-79437088D01*
X107181952Y-79376612D01*
X107061000Y-79255660D01*
X107000523Y-79074231D01*
X107000523Y-78953279D01*
X107061000Y-78771850D01*
X107121476Y-78711374D01*
X108270523Y-78106612D02*
X108270523Y-77864707D01*
X108210047Y-77743755D01*
X108149571Y-77683279D01*
X107968142Y-77562326D01*
X107726238Y-77501850D01*
X107242428Y-77501850D01*
X107121476Y-77562326D01*
X107061000Y-77622803D01*
X107000523Y-77743755D01*
X107000523Y-77985660D01*
X107061000Y-78106612D01*
X107121476Y-78167088D01*
X107242428Y-78227564D01*
X107544809Y-78227564D01*
X107665761Y-78167088D01*
X107726238Y-78106612D01*
X107786714Y-77985660D01*
X107786714Y-77743755D01*
X107726238Y-77622803D01*
X107665761Y-77562326D01*
X107544809Y-77501850D01*
X108270523Y-76292326D02*
X108270523Y-77018041D01*
X108270523Y-76655184D02*
X107000523Y-76655184D01*
X107181952Y-76776136D01*
X107302904Y-76897088D01*
X107363380Y-77018041D01*
X107000523Y-75868993D02*
X107000523Y-75022326D01*
X108270523Y-75566612D01*
G04 #@! TO.C,J1001*
D12*
X115957047Y-103154238D02*
X117771333Y-103154238D01*
X118134190Y-103275190D01*
X118376095Y-103517095D01*
X118497047Y-103879952D01*
X118497047Y-104121857D01*
X118497047Y-100614238D02*
X118497047Y-102065666D01*
X118497047Y-101339952D02*
X115957047Y-101339952D01*
X116319904Y-101581857D01*
X116561809Y-101823761D01*
X116682761Y-102065666D01*
X115957047Y-99041857D02*
X115957047Y-98799952D01*
X116078000Y-98558047D01*
X116198952Y-98437095D01*
X116440857Y-98316142D01*
X116924666Y-98195190D01*
X117529428Y-98195190D01*
X118013238Y-98316142D01*
X118255142Y-98437095D01*
X118376095Y-98558047D01*
X118497047Y-98799952D01*
X118497047Y-99041857D01*
X118376095Y-99283761D01*
X118255142Y-99404714D01*
X118013238Y-99525666D01*
X117529428Y-99646619D01*
X116924666Y-99646619D01*
X116440857Y-99525666D01*
X116198952Y-99404714D01*
X116078000Y-99283761D01*
X115957047Y-99041857D01*
X115957047Y-96622809D02*
X115957047Y-96380904D01*
X116078000Y-96139000D01*
X116198952Y-96018047D01*
X116440857Y-95897095D01*
X116924666Y-95776142D01*
X117529428Y-95776142D01*
X118013238Y-95897095D01*
X118255142Y-96018047D01*
X118376095Y-96139000D01*
X118497047Y-96380904D01*
X118497047Y-96622809D01*
X118376095Y-96864714D01*
X118255142Y-96985666D01*
X118013238Y-97106619D01*
X117529428Y-97227571D01*
X116924666Y-97227571D01*
X116440857Y-97106619D01*
X116198952Y-96985666D01*
X116078000Y-96864714D01*
X115957047Y-96622809D01*
X118497047Y-93357095D02*
X118497047Y-94808523D01*
X118497047Y-94082809D02*
X115957047Y-94082809D01*
X116319904Y-94324714D01*
X116561809Y-94566619D01*
X116682761Y-94808523D01*
G04 #@! TD*
M02*
