M48
;DRILL file {KiCad 5.0.2-bee76a0~70~ubuntu18.04.1} date Sat 12 Jan 2019 05:19:30 PM EST
;FORMAT={-:-/ absolute / inch / decimal}
FMAT,2
INCH,TZ
T1C0.0118
T2C0.0157
T3C0.0330
T4C0.0354
T5C0.0360
T6C0.0362
T7C0.0394
T8C0.0433
T9C0.0465
T10C0.0492
T11C0.0591
T12C0.0709
T13C0.0906
T14C0.1181
T15C0.1378
%
G90
G05
T1
X3.48Y-1.5629
X3.48Y-1.9629
X3.48Y-2.3629
X3.48Y-2.7629
X3.48Y-3.1629
X3.48Y-3.5629
X3.48Y-3.9629
X3.48Y-4.7629
X3.68Y-1.7629
X3.68Y-2.1629
X3.68Y-2.9629
X3.68Y-3.7629
X3.68Y-4.9629
X3.705Y-4.3629
X3.88Y-1.5629
X3.88Y-1.9629
X3.88Y-3.5629
X4.08Y-2.1629
X4.08Y-4.3629
X4.13Y-2.72
X4.1417Y-4.745
X4.1476Y-4.67
X4.28Y-1.5629
X4.28Y-1.9629
X4.28Y-2.3629
X4.28Y-3.5629
X4.28Y-3.7629
X4.28Y-3.7929
X4.28Y-4.1629
X4.28Y-4.4879
X4.355Y-4.895
X4.38Y-2.845
X4.405Y-4.5629
X4.455Y-2.72
X4.455Y-4.3679
X4.48Y-1.7629
X4.48Y-3.7629
X4.48Y-3.7925
X4.48Y-4.4629
X4.505Y-2.725
X4.54Y-4.3629
X4.555Y-3.0879
X4.63Y-2.87
X4.68Y-1.5629
X4.68Y-1.9629
X4.68Y-2.3629
X4.68Y-3.5629
X4.68Y-4.3629
X4.68Y-4.4629
X4.68Y-4.5629
X4.88Y-1.7629
X4.88Y-2.1629
X4.88Y-3.1629
X4.88Y-3.6629
X4.98Y-4.1629
X4.98Y-4.4629
X5.08Y-1.5629
X5.08Y-3.9129
X5.18Y-4.3629
X5.28Y-3.1629
X5.28Y-5.1629
X5.38Y-4.5629
X5.455Y-3.8279
X5.48Y-1.5629
X5.48Y-1.9629
X5.48Y-2.3629
X5.48Y-4.2629
X5.48Y-5.0629
X5.63Y-2.72
X5.68Y-1.7629
X5.68Y-2.725
X5.68Y-4.2629
X5.68Y-4.3629
X5.68Y-4.5629
X5.68Y-4.8629
X5.68Y-5.1629
X5.73Y-2.67
X5.805Y-2.9129
X5.805Y-3.0879
X5.83Y-3.9629
X5.88Y-1.5629
X5.88Y-1.9629
X5.88Y-2.3629
X5.88Y-2.6629
X5.88Y-4.3629
X6.08Y-1.7629
X6.08Y-2.1629
X6.08Y-4.4629
X6.105Y-3.3129
X6.18Y-4.1629
X6.18Y-4.8629
X6.23Y-3.9102
X6.23Y-3.9399
X6.23Y-3.9695
X6.23Y-3.9991
X6.23Y-3.8806
X6.255Y-3.4629
X6.28Y-1.5629
X6.28Y-1.9629
X6.28Y-2.3629
X6.28Y-3.0629
X6.28Y-3.1629
X6.28Y-4.5629
X6.28Y-5.1629
X6.33Y-3.4629
X6.355Y-4.0129
X6.38Y-4.3629
X6.455Y-3.4629
X6.48Y-2.8629
X6.48Y-3.1629
X6.48Y-3.3629
X6.58Y-2.6629
X6.58Y-4.5629
X6.58Y-5.1629
X6.605Y-3.4629
X6.605Y-3.5879
X6.68Y-1.5629
X6.68Y-3.1629
X6.68Y-3.8629
X6.68Y-4.1629
X6.68Y-4.5629
X6.78Y-4.8629
X6.855Y-3.3379
X6.88Y-2.5629
X6.88Y-3.8629
X6.88Y-4.3629
X6.98Y-4.8629
X7.08Y-1.5629
X7.08Y-1.7629
X7.08Y-1.9629
X7.08Y-3.1629
X7.155Y-3.2629
X7.18Y-4.9629
X7.28Y-2.5629
X7.28Y-4.2629
X7.355Y-4.8879
X7.38Y-3.9629
X7.38Y-5.0629
X7.405Y-3.1629
X7.405Y-3.2629
X7.43Y-4.9629
X7.48Y-1.5629
X7.48Y-1.7629
X7.48Y-1.9629
X7.48Y-4.1629
X7.58Y-3.1629
X7.58Y-3.2629
X7.58Y-4.9629
X7.655Y-3.4829
X7.655Y-3.5429
X7.68Y-2.5629
X7.68Y-4.2629
X7.68Y-5.0629
X7.76Y-5.0258
X7.78Y-4.8879
X7.88Y-1.5629
X7.88Y-1.7629
X7.93Y-3.7629
X7.93Y-4.7379
X8.08Y-2.5629
X8.08Y-3.7629
X8.205Y-4.9629
X8.23Y-3.7629
X8.23Y-3.9379
X8.255Y-4.2879
X8.255Y-4.4629
X8.255Y-4.5629
X8.255Y-4.7129
X8.255Y-4.8379
X8.28Y-1.5629
X8.36Y-5.2258
X8.38Y-3.9129
X8.48Y-2.1629
X8.48Y-2.5629
X8.48Y-2.9629
X8.48Y-4.1629
X8.56Y-5.0258
X8.68Y-1.9629
X8.68Y-2.3629
X8.68Y-2.7629
X8.68Y-3.1629
X8.68Y-3.5629
X8.68Y-3.9129
X8.68Y-4.0629
X8.68Y-4.3629
X8.68Y-4.7629
T2
X4.23Y-2.37
X4.305Y-2.7879
X4.38Y-3.4629
X4.43Y-3.1629
X4.53Y-2.245
X4.53Y-2.4879
X4.555Y-2.67
X4.63Y-4.6629
X4.63Y-5.0879
X4.76Y-3.45
X4.78Y-4.9379
X4.78Y-5.0879
X4.83Y-4.7879
X4.85Y-3.35
X4.88Y-2.945
X4.88Y-3.8629
X5.Y-4.5829
X5.005Y-3.0129
X5.055Y-4.7129
X5.18Y-4.1329
X5.33Y-3.8629
X5.33Y-4.595
X5.4009Y-4.0892
X5.43Y-3.9122
X5.46Y-3.1729
X5.505Y-2.9129
X5.6282Y-3.7747
X5.63Y-4.595
X5.67Y-3.7887
X5.68Y-2.4879
X5.68Y-3.4429
X5.705Y-2.245
X5.7252Y-4.0946
X5.73Y-3.2129
X5.73Y-3.5879
X5.755Y-3.3387
X5.76Y-3.9429
X5.79Y-3.615
X5.8Y-3.2729
X5.8Y-3.5329
X5.8657Y-3.1879
X5.905Y-4.595
X5.93Y-4.1379
X5.9403Y-3.7929
X5.955Y-3.3918
X5.98Y-5.12
X6.005Y-5.02
X6.055Y-2.945
X6.055Y-4.0379
X6.08Y-3.5879
X6.105Y-3.5129
X6.105Y-3.6379
X6.13Y-4.0129
X6.1315Y-3.5394
X6.32Y-3.6929
X6.38Y-3.5379
X6.38Y-4.1229
X6.44Y-3.9729
X6.5015Y-4.1986
X6.52Y-3.8929
X6.52Y-3.9329
X6.53Y-4.2329
X6.83Y-2.97
X6.855Y-3.72
X7.005Y-2.42
X7.055Y-3.72
X7.18Y-2.97
X7.255Y-3.72
X7.405Y-3.7887
X7.43Y-2.42
X7.455Y-3.7887
X7.53Y-2.97
X7.55Y-3.3629
X7.605Y-3.5379
X7.6293Y-3.5879
X7.72Y-5.1479
X7.755Y-3.12
X7.88Y-2.97
X7.88Y-3.9729
X7.905Y-2.42
X8.23Y-2.9629
X8.355Y-2.4129
T3
X3.43Y-2.3306
X3.43Y-2.4094
X3.43Y-2.8306
X3.43Y-2.9094
T4
X6.98Y-4.0379
X7.08Y-4.0379
X7.18Y-4.0379
X6.73Y-5.0629
X6.83Y-5.0629
X6.93Y-5.0629
X7.03Y-5.0629
X7.13Y-5.0629
X7.23Y-5.0629
X6.405Y-4.97
X6.405Y-5.07
T5
X4.73Y-2.82
X5.03Y-2.12
X5.03Y-2.42
X5.03Y-2.82
X5.905Y-2.82
X6.205Y-2.12
X6.205Y-2.42
X6.205Y-2.82
T6
X3.744Y-3.86
X3.744Y-3.9584
X3.87Y-3.86
X3.87Y-3.9584
T7
X5.105Y-4.9002
X5.105Y-5.0002
X5.105Y-5.1002
T8
X6.405Y-4.695
X5.205Y-4.695
X4.7592Y-4.3085
X6.98Y-4.1629
X4.7592Y-4.4085
X4.7592Y-4.5098
X7.08Y-4.1629
X7.6796Y-3.9112
X5.17Y-3.5929
X7.7796Y-3.9112
X5.07Y-3.5929
X6.105Y-4.695
X5.27Y-3.5929
X7.18Y-4.1629
X7.5796Y-3.9112
X5.805Y-4.695
X4.7592Y-4.6085
X7.4796Y-3.9112
X5.505Y-4.695
T9
X4.5926Y-1.5629
X4.7926Y-1.5629
X5.78Y-1.57
X5.98Y-1.57
T10
X3.73Y-2.32
X3.73Y-2.42
X3.73Y-2.72
X3.73Y-2.82
X3.73Y-2.92
T11
X4.305Y-5.1479
X4.505Y-5.1479
X4.305Y-3.34
X4.505Y-3.34
X4.305Y-3.95
X4.505Y-3.95
T12
X6.455Y-2.0253
X6.455Y-2.2419
X4.105Y-2.0253
X4.105Y-2.2419
X7.2473Y-2.0253
X7.2473Y-2.2419
X7.4127Y-2.0253
X7.4127Y-2.2419
X7.9511Y-4.32
X8.1676Y-4.32
X6.7973Y-2.0253
X6.7973Y-2.2419
X6.9627Y-2.0253
X6.9627Y-2.2419
X8.1473Y-2.0253
X8.1473Y-2.2419
X8.3127Y-2.0253
X8.3127Y-2.2419
X7.9511Y-4.045
X8.1676Y-4.045
X7.9511Y-4.87
X8.1676Y-4.87
X5.28Y-2.0253
X5.28Y-2.2419
X3.8074Y-4.5176
X3.8074Y-4.5176
X3.8074Y-4.5176
X3.8074Y-4.5176
X3.8074Y-4.5176
X3.8074Y-4.5176
X3.8074Y-4.5176
X3.8074Y-4.5176
X3.8074Y-4.6829
X3.8074Y-4.6829
X3.8074Y-4.6829
X3.8074Y-4.6829
X3.8074Y-4.6829
X3.8074Y-4.6829
X3.8074Y-4.6829
X3.8074Y-4.6829
X3.8074Y-4.8483
X3.8074Y-4.8483
X3.8074Y-4.8483
X3.8074Y-4.8483
X3.8074Y-4.8483
X3.8074Y-4.8483
X3.8074Y-4.8483
X3.8074Y-4.8483
X4.0239Y-4.5176
X4.0239Y-4.5176
X4.0239Y-4.5176
X4.0239Y-4.5176
X4.0239Y-4.5176
X4.0239Y-4.5176
X4.0239Y-4.5176
X4.0239Y-4.5176
X4.0239Y-4.6829
X4.0239Y-4.6829
X4.0239Y-4.6829
X4.0239Y-4.6829
X4.0239Y-4.6829
X4.0239Y-4.6829
X4.0239Y-4.6829
X4.0239Y-4.6829
X4.0239Y-4.8483
X4.0239Y-4.8483
X4.0239Y-4.8483
X4.0239Y-4.8483
X4.0239Y-4.8483
X4.0239Y-4.8483
X4.0239Y-4.8483
X4.0239Y-4.8483
X7.6973Y-2.0253
X7.6973Y-2.2419
X7.8627Y-2.0253
X7.8627Y-2.2419
X7.9511Y-4.595
X8.1676Y-4.595
X7.9836Y-3.3476
X7.9836Y-3.3476
X7.9836Y-3.3476
X7.9836Y-3.3476
X7.9836Y-3.3476
X7.9836Y-3.3476
X7.9836Y-3.3476
X7.9836Y-3.3476
X7.9836Y-3.5129
X7.9836Y-3.5129
X7.9836Y-3.5129
X7.9836Y-3.5129
X7.9836Y-3.5129
X7.9836Y-3.5129
X7.9836Y-3.5129
X7.9836Y-3.5129
X7.9836Y-3.6783
X7.9836Y-3.6783
X7.9836Y-3.6783
X7.9836Y-3.6783
X7.9836Y-3.6783
X7.9836Y-3.6783
X7.9836Y-3.6783
X7.9836Y-3.6783
X8.2001Y-3.3476
X8.2001Y-3.3476
X8.2001Y-3.3476
X8.2001Y-3.3476
X8.2001Y-3.3476
X8.2001Y-3.3476
X8.2001Y-3.3476
X8.2001Y-3.3476
X8.2001Y-3.5129
X8.2001Y-3.5129
X8.2001Y-3.5129
X8.2001Y-3.5129
X8.2001Y-3.5129
X8.2001Y-3.5129
X8.2001Y-3.5129
X8.2001Y-3.5129
X8.2001Y-3.6783
X8.2001Y-3.6783
X8.2001Y-3.6783
X8.2001Y-3.6783
X8.2001Y-3.6783
X8.2001Y-3.6783
X8.2001Y-3.6783
X8.2001Y-3.6783
X3.8424Y-3.34
X4.0589Y-3.34
T13
X3.7637Y-3.6714
X3.7637Y-4.147
T14
X7.33Y-1.7379
X8.455Y-4.32
X6.88Y-1.7379
X8.23Y-1.7379
X8.455Y-4.045
X8.455Y-4.87
X5.28Y-1.7379
X3.52Y-4.5176
X3.52Y-4.5176
X3.52Y-4.5176
X3.52Y-4.5176
X3.52Y-4.5176
X3.52Y-4.5176
X3.52Y-4.5176
X3.52Y-4.5176
X3.52Y-4.8483
X3.52Y-4.8483
X3.52Y-4.8483
X3.52Y-4.8483
X3.52Y-4.8483
X3.52Y-4.8483
X3.52Y-4.8483
X3.52Y-4.8483
X7.78Y-1.7379
X8.455Y-4.595
X8.4875Y-3.3476
X8.4875Y-3.3476
X8.4875Y-3.3476
X8.4875Y-3.3476
X8.4875Y-3.3476
X8.4875Y-3.3476
X8.4875Y-3.3476
X8.4875Y-3.3476
X8.4875Y-3.6783
X8.4875Y-3.6783
X8.4875Y-3.6783
X8.4875Y-3.6783
X8.4875Y-3.6783
X8.4875Y-3.6783
X8.4875Y-3.6783
X8.4875Y-3.6783
X3.555Y-3.34
X6.455Y-1.7379
X4.105Y-1.7379
T15
X3.53Y-1.7129
X8.555Y-1.7129
X8.455Y-5.1129
X3.53Y-5.1129
T0
M30
