G04 #@! TF.FileFunction,Legend,Bot*
%FSLAX46Y46*%
G04 Gerber Fmt 4.6, Leading zero omitted, Abs format (unit mm)*
G04 Created by KiCad (PCBNEW 4.0.5+dfsg1-4) date Thu Jul  6 10:43:40 2017*
%MOMM*%
%LPD*%
G01*
G04 APERTURE LIST*
%ADD10C,0.100000*%
%ADD11C,0.254000*%
%ADD12C,0.250000*%
%ADD13C,0.203200*%
%ADD14C,0.500000*%
G04 APERTURE END LIST*
D10*
D11*
X137086000Y-83582000D02*
X136236000Y-83582000D01*
X137086000Y-85582000D02*
X136236000Y-85582000D01*
X137086000Y-86122000D02*
X136236000Y-86122000D01*
X137086000Y-88122000D02*
X136236000Y-88122000D01*
X128940000Y-79137000D02*
X128090000Y-79137000D01*
X128940000Y-81137000D02*
X128090000Y-81137000D01*
X128108000Y-78724000D02*
X128958000Y-78724000D01*
X128108000Y-76724000D02*
X128958000Y-76724000D01*
X132064000Y-91112000D02*
X132064000Y-90262000D01*
X130064000Y-91112000D02*
X130064000Y-90262000D01*
X133022000Y-81804000D02*
X132172000Y-81804000D01*
X133022000Y-83804000D02*
X132172000Y-83804000D01*
X128450000Y-81804000D02*
X127600000Y-81804000D01*
X128450000Y-83804000D02*
X127600000Y-83804000D01*
X129487000Y-74152000D02*
X130337000Y-74152000D01*
X129487000Y-72152000D02*
X130337000Y-72152000D01*
X127455000Y-76311000D02*
X128305000Y-76311000D01*
X127455000Y-74311000D02*
X128305000Y-74311000D01*
X167116000Y-83238000D02*
X167116000Y-82388000D01*
X165116000Y-83238000D02*
X165116000Y-82388000D01*
X201584000Y-111522000D02*
X200734000Y-111522000D01*
X201584000Y-113522000D02*
X200734000Y-113522000D01*
X191717000Y-113522000D02*
X192567000Y-113522000D01*
X191717000Y-111522000D02*
X192567000Y-111522000D01*
X156734000Y-87958000D02*
X156734000Y-88808000D01*
X158734000Y-87958000D02*
X158734000Y-88808000D01*
X161655000Y-83347000D02*
X161655000Y-82497000D01*
X159655000Y-83347000D02*
X159655000Y-82497000D01*
X176133000Y-83093000D02*
X176133000Y-82243000D01*
X174133000Y-83093000D02*
X174133000Y-82243000D01*
X155940000Y-88826000D02*
X155940000Y-87976000D01*
X153940000Y-88826000D02*
X153940000Y-87976000D01*
X166698000Y-79867000D02*
X167548000Y-79867000D01*
X166698000Y-77867000D02*
X167548000Y-77867000D01*
X176583000Y-111776000D02*
X175733000Y-111776000D01*
X176583000Y-113776000D02*
X175733000Y-113776000D01*
X166825000Y-113776000D02*
X167675000Y-113776000D01*
X166825000Y-111776000D02*
X167675000Y-111776000D01*
X188103000Y-69982000D02*
X188103000Y-70682000D01*
X190103000Y-69982000D02*
X190103000Y-70682000D01*
X185436000Y-69982000D02*
X185436000Y-70682000D01*
X187436000Y-69982000D02*
X187436000Y-70682000D01*
X182769000Y-69982000D02*
X182769000Y-70682000D01*
X184769000Y-69982000D02*
X184769000Y-70682000D01*
X194188000Y-93456000D02*
X194888000Y-93456000D01*
X194188000Y-91456000D02*
X194888000Y-91456000D01*
X197469000Y-83307000D02*
X197469000Y-82607000D01*
X195469000Y-83307000D02*
X195469000Y-82607000D01*
X188103000Y-64521000D02*
X188103000Y-65221000D01*
X190103000Y-64521000D02*
X190103000Y-65221000D01*
X185436000Y-64521000D02*
X185436000Y-65221000D01*
X187436000Y-64521000D02*
X187436000Y-65221000D01*
X182769000Y-64521000D02*
X182769000Y-65221000D01*
X184769000Y-64521000D02*
X184769000Y-65221000D01*
X189341000Y-82984000D02*
X189341000Y-82134000D01*
X187341000Y-82984000D02*
X187341000Y-82134000D01*
X172482000Y-70432000D02*
X172482000Y-71282000D01*
X174482000Y-70432000D02*
X174482000Y-71282000D01*
X168240000Y-72882000D02*
X169090000Y-72882000D01*
X168240000Y-70882000D02*
X169090000Y-70882000D01*
X164264000Y-72406000D02*
X163414000Y-72406000D01*
X164264000Y-74406000D02*
X163414000Y-74406000D01*
X164264000Y-69866000D02*
X163414000Y-69866000D01*
X164264000Y-71866000D02*
X163414000Y-71866000D01*
X157046000Y-72628000D02*
X157896000Y-72628000D01*
X157046000Y-70628000D02*
X157896000Y-70628000D01*
X136160000Y-105375000D02*
X136160000Y-106225000D01*
X138160000Y-105375000D02*
X138160000Y-106225000D01*
X138700000Y-106119000D02*
X138700000Y-106969000D01*
X140700000Y-106119000D02*
X140700000Y-106969000D01*
X139266000Y-97139000D02*
X140116000Y-97139000D01*
X139266000Y-95139000D02*
X140116000Y-95139000D01*
X144727000Y-111363000D02*
X145577000Y-111363000D01*
X144727000Y-109363000D02*
X145577000Y-109363000D01*
X144727000Y-108950000D02*
X145577000Y-108950000D01*
X144727000Y-106950000D02*
X145577000Y-106950000D01*
X150098000Y-110144000D02*
X150098000Y-109294000D01*
X148098000Y-110144000D02*
X148098000Y-109294000D01*
X150130000Y-99406000D02*
X150130000Y-100256000D01*
X152130000Y-99406000D02*
X152130000Y-100256000D01*
X147844000Y-97374000D02*
X147844000Y-98224000D01*
X149844000Y-97374000D02*
X149844000Y-98224000D01*
X148098000Y-104976000D02*
X148098000Y-105826000D01*
X150098000Y-104976000D02*
X150098000Y-105826000D01*
X119581000Y-121015000D02*
X120431000Y-121015000D01*
X119581000Y-119015000D02*
X120431000Y-119015000D01*
D12*
X194900803Y-112522000D02*
G75*
G03X194900803Y-112522000I-111803J0D01*
G01*
D13*
X198289000Y-114272000D02*
X198289000Y-113622000D01*
X195289000Y-114272000D02*
X195289000Y-113622000D01*
X195773000Y-114272000D02*
X195289000Y-114272000D01*
X197805000Y-114272000D02*
X198289000Y-114272000D01*
D12*
X169754803Y-112903000D02*
G75*
G03X169754803Y-112903000I-111803J0D01*
G01*
D13*
X173143000Y-114653000D02*
X173143000Y-114003000D01*
X170143000Y-114653000D02*
X170143000Y-114003000D01*
X170627000Y-114653000D02*
X170143000Y-114653000D01*
X172659000Y-114653000D02*
X173143000Y-114653000D01*
D11*
X132477000Y-90244000D02*
X132477000Y-91094000D01*
X134731000Y-90244000D02*
X134731000Y-91094000D01*
X137017000Y-81968000D02*
X137017000Y-81118000D01*
X134763000Y-81968000D02*
X134763000Y-81118000D01*
X169688000Y-83005000D02*
X169688000Y-83855000D01*
X171942000Y-83005000D02*
X171942000Y-83855000D01*
X174895000Y-70432000D02*
X174895000Y-71282000D01*
X177149000Y-70432000D02*
X177149000Y-71282000D01*
X189791000Y-77867000D02*
X188941000Y-77867000D01*
X189791000Y-80121000D02*
X188941000Y-80121000D01*
X174895000Y-63955000D02*
X174895000Y-64805000D01*
X177149000Y-63955000D02*
X177149000Y-64805000D01*
X153773596Y-111090000D02*
X153773596Y-111940000D01*
X156027596Y-111090000D02*
X156027596Y-111940000D01*
X156480000Y-111090000D02*
X156480000Y-111940000D01*
X158734000Y-111090000D02*
X158734000Y-111940000D01*
X159147000Y-111090000D02*
X159147000Y-111940000D01*
X161401000Y-111090000D02*
X161401000Y-111940000D01*
D14*
X175765072Y-89916000D02*
G75*
G03X175765072Y-89916000I-251072J0D01*
G01*
D13*
X170743000Y-96180000D02*
X170743000Y-97330000D01*
X170743000Y-90630000D02*
X170743000Y-91780000D01*
X170743000Y-97330000D02*
X174443000Y-97330000D01*
X170743000Y-90630000D02*
X174443000Y-90630000D01*
D11*
X129524000Y-91094000D02*
X129524000Y-90244000D01*
X127524000Y-91094000D02*
X127524000Y-90244000D01*
D13*
X143153191Y-83765571D02*
X143213667Y-83826048D01*
X143395096Y-83886524D01*
X143516048Y-83886524D01*
X143697476Y-83826048D01*
X143818429Y-83705095D01*
X143878905Y-83584143D01*
X143939381Y-83342238D01*
X143939381Y-83160810D01*
X143878905Y-82918905D01*
X143818429Y-82797952D01*
X143697476Y-82677000D01*
X143516048Y-82616524D01*
X143395096Y-82616524D01*
X143213667Y-82677000D01*
X143153191Y-82737476D01*
X142669381Y-82737476D02*
X142608905Y-82677000D01*
X142487953Y-82616524D01*
X142185572Y-82616524D01*
X142064619Y-82677000D01*
X142004143Y-82737476D01*
X141943667Y-82858429D01*
X141943667Y-82979381D01*
X142004143Y-83160810D01*
X142729857Y-83886524D01*
X141943667Y-83886524D01*
X141157476Y-82616524D02*
X141036524Y-82616524D01*
X140915572Y-82677000D01*
X140855095Y-82737476D01*
X140794619Y-82858429D01*
X140734143Y-83100333D01*
X140734143Y-83402714D01*
X140794619Y-83644619D01*
X140855095Y-83765571D01*
X140915572Y-83826048D01*
X141036524Y-83886524D01*
X141157476Y-83886524D01*
X141278429Y-83826048D01*
X141338905Y-83765571D01*
X141399381Y-83644619D01*
X141459857Y-83402714D01*
X141459857Y-83100333D01*
X141399381Y-82858429D01*
X141338905Y-82737476D01*
X141278429Y-82677000D01*
X141157476Y-82616524D01*
X139524619Y-83886524D02*
X140250333Y-83886524D01*
X139887476Y-83886524D02*
X139887476Y-82616524D01*
X140008428Y-82797952D01*
X140129381Y-82918905D01*
X140250333Y-82979381D01*
X138581191Y-89734571D02*
X138641667Y-89795048D01*
X138823096Y-89855524D01*
X138944048Y-89855524D01*
X139125476Y-89795048D01*
X139246429Y-89674095D01*
X139306905Y-89553143D01*
X139367381Y-89311238D01*
X139367381Y-89129810D01*
X139306905Y-88887905D01*
X139246429Y-88766952D01*
X139125476Y-88646000D01*
X138944048Y-88585524D01*
X138823096Y-88585524D01*
X138641667Y-88646000D01*
X138581191Y-88706476D01*
X138097381Y-88706476D02*
X138036905Y-88646000D01*
X137915953Y-88585524D01*
X137613572Y-88585524D01*
X137492619Y-88646000D01*
X137432143Y-88706476D01*
X137371667Y-88827429D01*
X137371667Y-88948381D01*
X137432143Y-89129810D01*
X138157857Y-89855524D01*
X137371667Y-89855524D01*
X136585476Y-88585524D02*
X136464524Y-88585524D01*
X136343572Y-88646000D01*
X136283095Y-88706476D01*
X136222619Y-88827429D01*
X136162143Y-89069333D01*
X136162143Y-89371714D01*
X136222619Y-89613619D01*
X136283095Y-89734571D01*
X136343572Y-89795048D01*
X136464524Y-89855524D01*
X136585476Y-89855524D01*
X136706429Y-89795048D01*
X136766905Y-89734571D01*
X136827381Y-89613619D01*
X136887857Y-89371714D01*
X136887857Y-89069333D01*
X136827381Y-88827429D01*
X136766905Y-88706476D01*
X136706429Y-88646000D01*
X136585476Y-88585524D01*
X135678333Y-88706476D02*
X135617857Y-88646000D01*
X135496905Y-88585524D01*
X135194524Y-88585524D01*
X135073571Y-88646000D01*
X135013095Y-88706476D01*
X134952619Y-88827429D01*
X134952619Y-88948381D01*
X135013095Y-89129810D01*
X135738809Y-89855524D01*
X134952619Y-89855524D01*
X124865191Y-80463571D02*
X124925667Y-80524048D01*
X125107096Y-80584524D01*
X125228048Y-80584524D01*
X125409476Y-80524048D01*
X125530429Y-80403095D01*
X125590905Y-80282143D01*
X125651381Y-80040238D01*
X125651381Y-79858810D01*
X125590905Y-79616905D01*
X125530429Y-79495952D01*
X125409476Y-79375000D01*
X125228048Y-79314524D01*
X125107096Y-79314524D01*
X124925667Y-79375000D01*
X124865191Y-79435476D01*
X124381381Y-79435476D02*
X124320905Y-79375000D01*
X124199953Y-79314524D01*
X123897572Y-79314524D01*
X123776619Y-79375000D01*
X123716143Y-79435476D01*
X123655667Y-79556429D01*
X123655667Y-79677381D01*
X123716143Y-79858810D01*
X124441857Y-80584524D01*
X123655667Y-80584524D01*
X122869476Y-79314524D02*
X122748524Y-79314524D01*
X122627572Y-79375000D01*
X122567095Y-79435476D01*
X122506619Y-79556429D01*
X122446143Y-79798333D01*
X122446143Y-80100714D01*
X122506619Y-80342619D01*
X122567095Y-80463571D01*
X122627572Y-80524048D01*
X122748524Y-80584524D01*
X122869476Y-80584524D01*
X122990429Y-80524048D01*
X123050905Y-80463571D01*
X123111381Y-80342619D01*
X123171857Y-80100714D01*
X123171857Y-79798333D01*
X123111381Y-79556429D01*
X123050905Y-79435476D01*
X122990429Y-79375000D01*
X122869476Y-79314524D01*
X122022809Y-79314524D02*
X121236619Y-79314524D01*
X121659952Y-79798333D01*
X121478524Y-79798333D01*
X121357571Y-79858810D01*
X121297095Y-79919286D01*
X121236619Y-80040238D01*
X121236619Y-80342619D01*
X121297095Y-80463571D01*
X121357571Y-80524048D01*
X121478524Y-80584524D01*
X121841381Y-80584524D01*
X121962333Y-80524048D01*
X122022809Y-80463571D01*
X125119191Y-78304571D02*
X125179667Y-78365048D01*
X125361096Y-78425524D01*
X125482048Y-78425524D01*
X125663476Y-78365048D01*
X125784429Y-78244095D01*
X125844905Y-78123143D01*
X125905381Y-77881238D01*
X125905381Y-77699810D01*
X125844905Y-77457905D01*
X125784429Y-77336952D01*
X125663476Y-77216000D01*
X125482048Y-77155524D01*
X125361096Y-77155524D01*
X125179667Y-77216000D01*
X125119191Y-77276476D01*
X124635381Y-77276476D02*
X124574905Y-77216000D01*
X124453953Y-77155524D01*
X124151572Y-77155524D01*
X124030619Y-77216000D01*
X123970143Y-77276476D01*
X123909667Y-77397429D01*
X123909667Y-77518381D01*
X123970143Y-77699810D01*
X124695857Y-78425524D01*
X123909667Y-78425524D01*
X123123476Y-77155524D02*
X123002524Y-77155524D01*
X122881572Y-77216000D01*
X122821095Y-77276476D01*
X122760619Y-77397429D01*
X122700143Y-77639333D01*
X122700143Y-77941714D01*
X122760619Y-78183619D01*
X122821095Y-78304571D01*
X122881572Y-78365048D01*
X123002524Y-78425524D01*
X123123476Y-78425524D01*
X123244429Y-78365048D01*
X123304905Y-78304571D01*
X123365381Y-78183619D01*
X123425857Y-77941714D01*
X123425857Y-77639333D01*
X123365381Y-77397429D01*
X123304905Y-77276476D01*
X123244429Y-77216000D01*
X123123476Y-77155524D01*
X121611571Y-77578857D02*
X121611571Y-78425524D01*
X121913952Y-77095048D02*
X122216333Y-78002190D01*
X121430143Y-78002190D01*
X131390571Y-93828809D02*
X131451048Y-93768333D01*
X131511524Y-93586904D01*
X131511524Y-93465952D01*
X131451048Y-93284524D01*
X131330095Y-93163571D01*
X131209143Y-93103095D01*
X130967238Y-93042619D01*
X130785810Y-93042619D01*
X130543905Y-93103095D01*
X130422952Y-93163571D01*
X130302000Y-93284524D01*
X130241524Y-93465952D01*
X130241524Y-93586904D01*
X130302000Y-93768333D01*
X130362476Y-93828809D01*
X130362476Y-94312619D02*
X130302000Y-94373095D01*
X130241524Y-94494047D01*
X130241524Y-94796428D01*
X130302000Y-94917381D01*
X130362476Y-94977857D01*
X130483429Y-95038333D01*
X130604381Y-95038333D01*
X130785810Y-94977857D01*
X131511524Y-94252143D01*
X131511524Y-95038333D01*
X130241524Y-95824524D02*
X130241524Y-95945476D01*
X130302000Y-96066428D01*
X130362476Y-96126905D01*
X130483429Y-96187381D01*
X130725333Y-96247857D01*
X131027714Y-96247857D01*
X131269619Y-96187381D01*
X131390571Y-96126905D01*
X131451048Y-96066428D01*
X131511524Y-95945476D01*
X131511524Y-95824524D01*
X131451048Y-95703571D01*
X131390571Y-95643095D01*
X131269619Y-95582619D01*
X131027714Y-95522143D01*
X130725333Y-95522143D01*
X130483429Y-95582619D01*
X130362476Y-95643095D01*
X130302000Y-95703571D01*
X130241524Y-95824524D01*
X130241524Y-97396905D02*
X130241524Y-96792143D01*
X130846286Y-96731667D01*
X130785810Y-96792143D01*
X130725333Y-96913095D01*
X130725333Y-97215476D01*
X130785810Y-97336429D01*
X130846286Y-97396905D01*
X130967238Y-97457381D01*
X131269619Y-97457381D01*
X131390571Y-97396905D01*
X131451048Y-97336429D01*
X131511524Y-97215476D01*
X131511524Y-96913095D01*
X131451048Y-96792143D01*
X131390571Y-96731667D01*
X133247191Y-85543571D02*
X133307667Y-85604048D01*
X133489096Y-85664524D01*
X133610048Y-85664524D01*
X133791476Y-85604048D01*
X133912429Y-85483095D01*
X133972905Y-85362143D01*
X134033381Y-85120238D01*
X134033381Y-84938810D01*
X133972905Y-84696905D01*
X133912429Y-84575952D01*
X133791476Y-84455000D01*
X133610048Y-84394524D01*
X133489096Y-84394524D01*
X133307667Y-84455000D01*
X133247191Y-84515476D01*
X132763381Y-84515476D02*
X132702905Y-84455000D01*
X132581953Y-84394524D01*
X132279572Y-84394524D01*
X132158619Y-84455000D01*
X132098143Y-84515476D01*
X132037667Y-84636429D01*
X132037667Y-84757381D01*
X132098143Y-84938810D01*
X132823857Y-85664524D01*
X132037667Y-85664524D01*
X131251476Y-84394524D02*
X131130524Y-84394524D01*
X131009572Y-84455000D01*
X130949095Y-84515476D01*
X130888619Y-84636429D01*
X130828143Y-84878333D01*
X130828143Y-85180714D01*
X130888619Y-85422619D01*
X130949095Y-85543571D01*
X131009572Y-85604048D01*
X131130524Y-85664524D01*
X131251476Y-85664524D01*
X131372429Y-85604048D01*
X131432905Y-85543571D01*
X131493381Y-85422619D01*
X131553857Y-85180714D01*
X131553857Y-84878333D01*
X131493381Y-84636429D01*
X131432905Y-84515476D01*
X131372429Y-84455000D01*
X131251476Y-84394524D01*
X129739571Y-84394524D02*
X129981476Y-84394524D01*
X130102428Y-84455000D01*
X130162905Y-84515476D01*
X130283857Y-84696905D01*
X130344333Y-84938810D01*
X130344333Y-85422619D01*
X130283857Y-85543571D01*
X130223381Y-85604048D01*
X130102428Y-85664524D01*
X129860524Y-85664524D01*
X129739571Y-85604048D01*
X129679095Y-85543571D01*
X129618619Y-85422619D01*
X129618619Y-85120238D01*
X129679095Y-84999286D01*
X129739571Y-84938810D01*
X129860524Y-84878333D01*
X130102428Y-84878333D01*
X130223381Y-84938810D01*
X130283857Y-84999286D01*
X130344333Y-85120238D01*
X126262191Y-85543571D02*
X126322667Y-85604048D01*
X126504096Y-85664524D01*
X126625048Y-85664524D01*
X126806476Y-85604048D01*
X126927429Y-85483095D01*
X126987905Y-85362143D01*
X127048381Y-85120238D01*
X127048381Y-84938810D01*
X126987905Y-84696905D01*
X126927429Y-84575952D01*
X126806476Y-84455000D01*
X126625048Y-84394524D01*
X126504096Y-84394524D01*
X126322667Y-84455000D01*
X126262191Y-84515476D01*
X125778381Y-84515476D02*
X125717905Y-84455000D01*
X125596953Y-84394524D01*
X125294572Y-84394524D01*
X125173619Y-84455000D01*
X125113143Y-84515476D01*
X125052667Y-84636429D01*
X125052667Y-84757381D01*
X125113143Y-84938810D01*
X125838857Y-85664524D01*
X125052667Y-85664524D01*
X124266476Y-84394524D02*
X124145524Y-84394524D01*
X124024572Y-84455000D01*
X123964095Y-84515476D01*
X123903619Y-84636429D01*
X123843143Y-84878333D01*
X123843143Y-85180714D01*
X123903619Y-85422619D01*
X123964095Y-85543571D01*
X124024572Y-85604048D01*
X124145524Y-85664524D01*
X124266476Y-85664524D01*
X124387429Y-85604048D01*
X124447905Y-85543571D01*
X124508381Y-85422619D01*
X124568857Y-85180714D01*
X124568857Y-84878333D01*
X124508381Y-84636429D01*
X124447905Y-84515476D01*
X124387429Y-84455000D01*
X124266476Y-84394524D01*
X123419809Y-84394524D02*
X122573143Y-84394524D01*
X123117428Y-85664524D01*
X131469191Y-71573571D02*
X131529667Y-71634048D01*
X131711096Y-71694524D01*
X131832048Y-71694524D01*
X132013476Y-71634048D01*
X132134429Y-71513095D01*
X132194905Y-71392143D01*
X132255381Y-71150238D01*
X132255381Y-70968810D01*
X132194905Y-70726905D01*
X132134429Y-70605952D01*
X132013476Y-70485000D01*
X131832048Y-70424524D01*
X131711096Y-70424524D01*
X131529667Y-70485000D01*
X131469191Y-70545476D01*
X130985381Y-70545476D02*
X130924905Y-70485000D01*
X130803953Y-70424524D01*
X130501572Y-70424524D01*
X130380619Y-70485000D01*
X130320143Y-70545476D01*
X130259667Y-70666429D01*
X130259667Y-70787381D01*
X130320143Y-70968810D01*
X131045857Y-71694524D01*
X130259667Y-71694524D01*
X129473476Y-70424524D02*
X129352524Y-70424524D01*
X129231572Y-70485000D01*
X129171095Y-70545476D01*
X129110619Y-70666429D01*
X129050143Y-70908333D01*
X129050143Y-71210714D01*
X129110619Y-71452619D01*
X129171095Y-71573571D01*
X129231572Y-71634048D01*
X129352524Y-71694524D01*
X129473476Y-71694524D01*
X129594429Y-71634048D01*
X129654905Y-71573571D01*
X129715381Y-71452619D01*
X129775857Y-71210714D01*
X129775857Y-70908333D01*
X129715381Y-70666429D01*
X129654905Y-70545476D01*
X129594429Y-70485000D01*
X129473476Y-70424524D01*
X128324428Y-70968810D02*
X128445381Y-70908333D01*
X128505857Y-70847857D01*
X128566333Y-70726905D01*
X128566333Y-70666429D01*
X128505857Y-70545476D01*
X128445381Y-70485000D01*
X128324428Y-70424524D01*
X128082524Y-70424524D01*
X127961571Y-70485000D01*
X127901095Y-70545476D01*
X127840619Y-70666429D01*
X127840619Y-70726905D01*
X127901095Y-70847857D01*
X127961571Y-70908333D01*
X128082524Y-70968810D01*
X128324428Y-70968810D01*
X128445381Y-71029286D01*
X128505857Y-71089762D01*
X128566333Y-71210714D01*
X128566333Y-71452619D01*
X128505857Y-71573571D01*
X128445381Y-71634048D01*
X128324428Y-71694524D01*
X128082524Y-71694524D01*
X127961571Y-71634048D01*
X127901095Y-71573571D01*
X127840619Y-71452619D01*
X127840619Y-71210714D01*
X127901095Y-71089762D01*
X127961571Y-71029286D01*
X128082524Y-70968810D01*
X124865191Y-75637571D02*
X124925667Y-75698048D01*
X125107096Y-75758524D01*
X125228048Y-75758524D01*
X125409476Y-75698048D01*
X125530429Y-75577095D01*
X125590905Y-75456143D01*
X125651381Y-75214238D01*
X125651381Y-75032810D01*
X125590905Y-74790905D01*
X125530429Y-74669952D01*
X125409476Y-74549000D01*
X125228048Y-74488524D01*
X125107096Y-74488524D01*
X124925667Y-74549000D01*
X124865191Y-74609476D01*
X124381381Y-74609476D02*
X124320905Y-74549000D01*
X124199953Y-74488524D01*
X123897572Y-74488524D01*
X123776619Y-74549000D01*
X123716143Y-74609476D01*
X123655667Y-74730429D01*
X123655667Y-74851381D01*
X123716143Y-75032810D01*
X124441857Y-75758524D01*
X123655667Y-75758524D01*
X122869476Y-74488524D02*
X122748524Y-74488524D01*
X122627572Y-74549000D01*
X122567095Y-74609476D01*
X122506619Y-74730429D01*
X122446143Y-74972333D01*
X122446143Y-75274714D01*
X122506619Y-75516619D01*
X122567095Y-75637571D01*
X122627572Y-75698048D01*
X122748524Y-75758524D01*
X122869476Y-75758524D01*
X122990429Y-75698048D01*
X123050905Y-75637571D01*
X123111381Y-75516619D01*
X123171857Y-75274714D01*
X123171857Y-74972333D01*
X123111381Y-74730429D01*
X123050905Y-74609476D01*
X122990429Y-74549000D01*
X122869476Y-74488524D01*
X121841381Y-75758524D02*
X121599476Y-75758524D01*
X121478524Y-75698048D01*
X121418048Y-75637571D01*
X121297095Y-75456143D01*
X121236619Y-75214238D01*
X121236619Y-74730429D01*
X121297095Y-74609476D01*
X121357571Y-74549000D01*
X121478524Y-74488524D01*
X121720428Y-74488524D01*
X121841381Y-74549000D01*
X121901857Y-74609476D01*
X121962333Y-74730429D01*
X121962333Y-75032810D01*
X121901857Y-75153762D01*
X121841381Y-75214238D01*
X121720428Y-75274714D01*
X121478524Y-75274714D01*
X121357571Y-75214238D01*
X121297095Y-75153762D01*
X121236619Y-75032810D01*
X164410571Y-81763809D02*
X164471048Y-81703333D01*
X164531524Y-81521904D01*
X164531524Y-81400952D01*
X164471048Y-81219524D01*
X164350095Y-81098571D01*
X164229143Y-81038095D01*
X163987238Y-80977619D01*
X163805810Y-80977619D01*
X163563905Y-81038095D01*
X163442952Y-81098571D01*
X163322000Y-81219524D01*
X163261524Y-81400952D01*
X163261524Y-81521904D01*
X163322000Y-81703333D01*
X163382476Y-81763809D01*
X163261524Y-82187143D02*
X163261524Y-82973333D01*
X163745333Y-82550000D01*
X163745333Y-82731428D01*
X163805810Y-82852381D01*
X163866286Y-82912857D01*
X163987238Y-82973333D01*
X164289619Y-82973333D01*
X164410571Y-82912857D01*
X164471048Y-82852381D01*
X164531524Y-82731428D01*
X164531524Y-82368571D01*
X164471048Y-82247619D01*
X164410571Y-82187143D01*
X163261524Y-83759524D02*
X163261524Y-83880476D01*
X163322000Y-84001428D01*
X163382476Y-84061905D01*
X163503429Y-84122381D01*
X163745333Y-84182857D01*
X164047714Y-84182857D01*
X164289619Y-84122381D01*
X164410571Y-84061905D01*
X164471048Y-84001428D01*
X164531524Y-83880476D01*
X164531524Y-83759524D01*
X164471048Y-83638571D01*
X164410571Y-83578095D01*
X164289619Y-83517619D01*
X164047714Y-83457143D01*
X163745333Y-83457143D01*
X163503429Y-83517619D01*
X163382476Y-83578095D01*
X163322000Y-83638571D01*
X163261524Y-83759524D01*
X164531524Y-85392381D02*
X164531524Y-84666667D01*
X164531524Y-85029524D02*
X163261524Y-85029524D01*
X163442952Y-84908572D01*
X163563905Y-84787619D01*
X163624381Y-84666667D01*
X203399571Y-107417809D02*
X203460048Y-107357333D01*
X203520524Y-107175904D01*
X203520524Y-107054952D01*
X203460048Y-106873524D01*
X203339095Y-106752571D01*
X203218143Y-106692095D01*
X202976238Y-106631619D01*
X202794810Y-106631619D01*
X202552905Y-106692095D01*
X202431952Y-106752571D01*
X202311000Y-106873524D01*
X202250524Y-107054952D01*
X202250524Y-107175904D01*
X202311000Y-107357333D01*
X202371476Y-107417809D01*
X202250524Y-107841143D02*
X202250524Y-108627333D01*
X202734333Y-108204000D01*
X202734333Y-108385428D01*
X202794810Y-108506381D01*
X202855286Y-108566857D01*
X202976238Y-108627333D01*
X203278619Y-108627333D01*
X203399571Y-108566857D01*
X203460048Y-108506381D01*
X203520524Y-108385428D01*
X203520524Y-108022571D01*
X203460048Y-107901619D01*
X203399571Y-107841143D01*
X202250524Y-109413524D02*
X202250524Y-109534476D01*
X202311000Y-109655428D01*
X202371476Y-109715905D01*
X202492429Y-109776381D01*
X202734333Y-109836857D01*
X203036714Y-109836857D01*
X203278619Y-109776381D01*
X203399571Y-109715905D01*
X203460048Y-109655428D01*
X203520524Y-109534476D01*
X203520524Y-109413524D01*
X203460048Y-109292571D01*
X203399571Y-109232095D01*
X203278619Y-109171619D01*
X203036714Y-109111143D01*
X202734333Y-109111143D01*
X202492429Y-109171619D01*
X202371476Y-109232095D01*
X202311000Y-109292571D01*
X202250524Y-109413524D01*
X202371476Y-110320667D02*
X202311000Y-110381143D01*
X202250524Y-110502095D01*
X202250524Y-110804476D01*
X202311000Y-110925429D01*
X202371476Y-110985905D01*
X202492429Y-111046381D01*
X202613381Y-111046381D01*
X202794810Y-110985905D01*
X203520524Y-110260191D01*
X203520524Y-111046381D01*
X189127191Y-112975571D02*
X189187667Y-113036048D01*
X189369096Y-113096524D01*
X189490048Y-113096524D01*
X189671476Y-113036048D01*
X189792429Y-112915095D01*
X189852905Y-112794143D01*
X189913381Y-112552238D01*
X189913381Y-112370810D01*
X189852905Y-112128905D01*
X189792429Y-112007952D01*
X189671476Y-111887000D01*
X189490048Y-111826524D01*
X189369096Y-111826524D01*
X189187667Y-111887000D01*
X189127191Y-111947476D01*
X188703857Y-111826524D02*
X187917667Y-111826524D01*
X188341000Y-112310333D01*
X188159572Y-112310333D01*
X188038619Y-112370810D01*
X187978143Y-112431286D01*
X187917667Y-112552238D01*
X187917667Y-112854619D01*
X187978143Y-112975571D01*
X188038619Y-113036048D01*
X188159572Y-113096524D01*
X188522429Y-113096524D01*
X188643381Y-113036048D01*
X188703857Y-112975571D01*
X187131476Y-111826524D02*
X187010524Y-111826524D01*
X186889572Y-111887000D01*
X186829095Y-111947476D01*
X186768619Y-112068429D01*
X186708143Y-112310333D01*
X186708143Y-112612714D01*
X186768619Y-112854619D01*
X186829095Y-112975571D01*
X186889572Y-113036048D01*
X187010524Y-113096524D01*
X187131476Y-113096524D01*
X187252429Y-113036048D01*
X187312905Y-112975571D01*
X187373381Y-112854619D01*
X187433857Y-112612714D01*
X187433857Y-112310333D01*
X187373381Y-112068429D01*
X187312905Y-111947476D01*
X187252429Y-111887000D01*
X187131476Y-111826524D01*
X186284809Y-111826524D02*
X185498619Y-111826524D01*
X185921952Y-112310333D01*
X185740524Y-112310333D01*
X185619571Y-112370810D01*
X185559095Y-112431286D01*
X185498619Y-112552238D01*
X185498619Y-112854619D01*
X185559095Y-112975571D01*
X185619571Y-113036048D01*
X185740524Y-113096524D01*
X186103381Y-113096524D01*
X186224333Y-113036048D01*
X186284809Y-112975571D01*
X158314571Y-91542809D02*
X158375048Y-91482333D01*
X158435524Y-91300904D01*
X158435524Y-91179952D01*
X158375048Y-90998524D01*
X158254095Y-90877571D01*
X158133143Y-90817095D01*
X157891238Y-90756619D01*
X157709810Y-90756619D01*
X157467905Y-90817095D01*
X157346952Y-90877571D01*
X157226000Y-90998524D01*
X157165524Y-91179952D01*
X157165524Y-91300904D01*
X157226000Y-91482333D01*
X157286476Y-91542809D01*
X157165524Y-91966143D02*
X157165524Y-92752333D01*
X157649333Y-92329000D01*
X157649333Y-92510428D01*
X157709810Y-92631381D01*
X157770286Y-92691857D01*
X157891238Y-92752333D01*
X158193619Y-92752333D01*
X158314571Y-92691857D01*
X158375048Y-92631381D01*
X158435524Y-92510428D01*
X158435524Y-92147571D01*
X158375048Y-92026619D01*
X158314571Y-91966143D01*
X157165524Y-93538524D02*
X157165524Y-93659476D01*
X157226000Y-93780428D01*
X157286476Y-93840905D01*
X157407429Y-93901381D01*
X157649333Y-93961857D01*
X157951714Y-93961857D01*
X158193619Y-93901381D01*
X158314571Y-93840905D01*
X158375048Y-93780428D01*
X158435524Y-93659476D01*
X158435524Y-93538524D01*
X158375048Y-93417571D01*
X158314571Y-93357095D01*
X158193619Y-93296619D01*
X157951714Y-93236143D01*
X157649333Y-93236143D01*
X157407429Y-93296619D01*
X157286476Y-93357095D01*
X157226000Y-93417571D01*
X157165524Y-93538524D01*
X157588857Y-95050429D02*
X158435524Y-95050429D01*
X157105048Y-94748048D02*
X158012190Y-94445667D01*
X158012190Y-95231857D01*
X158949571Y-81763809D02*
X159010048Y-81703333D01*
X159070524Y-81521904D01*
X159070524Y-81400952D01*
X159010048Y-81219524D01*
X158889095Y-81098571D01*
X158768143Y-81038095D01*
X158526238Y-80977619D01*
X158344810Y-80977619D01*
X158102905Y-81038095D01*
X157981952Y-81098571D01*
X157861000Y-81219524D01*
X157800524Y-81400952D01*
X157800524Y-81521904D01*
X157861000Y-81703333D01*
X157921476Y-81763809D01*
X157800524Y-82187143D02*
X157800524Y-82973333D01*
X158284333Y-82550000D01*
X158284333Y-82731428D01*
X158344810Y-82852381D01*
X158405286Y-82912857D01*
X158526238Y-82973333D01*
X158828619Y-82973333D01*
X158949571Y-82912857D01*
X159010048Y-82852381D01*
X159070524Y-82731428D01*
X159070524Y-82368571D01*
X159010048Y-82247619D01*
X158949571Y-82187143D01*
X157800524Y-83759524D02*
X157800524Y-83880476D01*
X157861000Y-84001428D01*
X157921476Y-84061905D01*
X158042429Y-84122381D01*
X158284333Y-84182857D01*
X158586714Y-84182857D01*
X158828619Y-84122381D01*
X158949571Y-84061905D01*
X159010048Y-84001428D01*
X159070524Y-83880476D01*
X159070524Y-83759524D01*
X159010048Y-83638571D01*
X158949571Y-83578095D01*
X158828619Y-83517619D01*
X158586714Y-83457143D01*
X158284333Y-83457143D01*
X158042429Y-83517619D01*
X157921476Y-83578095D01*
X157861000Y-83638571D01*
X157800524Y-83759524D01*
X157800524Y-85331905D02*
X157800524Y-84727143D01*
X158405286Y-84666667D01*
X158344810Y-84727143D01*
X158284333Y-84848095D01*
X158284333Y-85150476D01*
X158344810Y-85271429D01*
X158405286Y-85331905D01*
X158526238Y-85392381D01*
X158828619Y-85392381D01*
X158949571Y-85331905D01*
X159010048Y-85271429D01*
X159070524Y-85150476D01*
X159070524Y-84848095D01*
X159010048Y-84727143D01*
X158949571Y-84666667D01*
X177872571Y-81255809D02*
X177933048Y-81195333D01*
X177993524Y-81013904D01*
X177993524Y-80892952D01*
X177933048Y-80711524D01*
X177812095Y-80590571D01*
X177691143Y-80530095D01*
X177449238Y-80469619D01*
X177267810Y-80469619D01*
X177025905Y-80530095D01*
X176904952Y-80590571D01*
X176784000Y-80711524D01*
X176723524Y-80892952D01*
X176723524Y-81013904D01*
X176784000Y-81195333D01*
X176844476Y-81255809D01*
X176723524Y-81679143D02*
X176723524Y-82465333D01*
X177207333Y-82042000D01*
X177207333Y-82223428D01*
X177267810Y-82344381D01*
X177328286Y-82404857D01*
X177449238Y-82465333D01*
X177751619Y-82465333D01*
X177872571Y-82404857D01*
X177933048Y-82344381D01*
X177993524Y-82223428D01*
X177993524Y-81860571D01*
X177933048Y-81739619D01*
X177872571Y-81679143D01*
X176723524Y-83251524D02*
X176723524Y-83372476D01*
X176784000Y-83493428D01*
X176844476Y-83553905D01*
X176965429Y-83614381D01*
X177207333Y-83674857D01*
X177509714Y-83674857D01*
X177751619Y-83614381D01*
X177872571Y-83553905D01*
X177933048Y-83493428D01*
X177993524Y-83372476D01*
X177993524Y-83251524D01*
X177933048Y-83130571D01*
X177872571Y-83070095D01*
X177751619Y-83009619D01*
X177509714Y-82949143D01*
X177207333Y-82949143D01*
X176965429Y-83009619D01*
X176844476Y-83070095D01*
X176784000Y-83130571D01*
X176723524Y-83251524D01*
X176723524Y-84763429D02*
X176723524Y-84521524D01*
X176784000Y-84400572D01*
X176844476Y-84340095D01*
X177025905Y-84219143D01*
X177267810Y-84158667D01*
X177751619Y-84158667D01*
X177872571Y-84219143D01*
X177933048Y-84279619D01*
X177993524Y-84400572D01*
X177993524Y-84642476D01*
X177933048Y-84763429D01*
X177872571Y-84823905D01*
X177751619Y-84884381D01*
X177449238Y-84884381D01*
X177328286Y-84823905D01*
X177267810Y-84763429D01*
X177207333Y-84642476D01*
X177207333Y-84400572D01*
X177267810Y-84279619D01*
X177328286Y-84219143D01*
X177449238Y-84158667D01*
X155520571Y-91542809D02*
X155581048Y-91482333D01*
X155641524Y-91300904D01*
X155641524Y-91179952D01*
X155581048Y-90998524D01*
X155460095Y-90877571D01*
X155339143Y-90817095D01*
X155097238Y-90756619D01*
X154915810Y-90756619D01*
X154673905Y-90817095D01*
X154552952Y-90877571D01*
X154432000Y-90998524D01*
X154371524Y-91179952D01*
X154371524Y-91300904D01*
X154432000Y-91482333D01*
X154492476Y-91542809D01*
X154371524Y-91966143D02*
X154371524Y-92752333D01*
X154855333Y-92329000D01*
X154855333Y-92510428D01*
X154915810Y-92631381D01*
X154976286Y-92691857D01*
X155097238Y-92752333D01*
X155399619Y-92752333D01*
X155520571Y-92691857D01*
X155581048Y-92631381D01*
X155641524Y-92510428D01*
X155641524Y-92147571D01*
X155581048Y-92026619D01*
X155520571Y-91966143D01*
X154371524Y-93538524D02*
X154371524Y-93659476D01*
X154432000Y-93780428D01*
X154492476Y-93840905D01*
X154613429Y-93901381D01*
X154855333Y-93961857D01*
X155157714Y-93961857D01*
X155399619Y-93901381D01*
X155520571Y-93840905D01*
X155581048Y-93780428D01*
X155641524Y-93659476D01*
X155641524Y-93538524D01*
X155581048Y-93417571D01*
X155520571Y-93357095D01*
X155399619Y-93296619D01*
X155157714Y-93236143D01*
X154855333Y-93236143D01*
X154613429Y-93296619D01*
X154492476Y-93357095D01*
X154432000Y-93417571D01*
X154371524Y-93538524D01*
X154915810Y-94687572D02*
X154855333Y-94566619D01*
X154794857Y-94506143D01*
X154673905Y-94445667D01*
X154613429Y-94445667D01*
X154492476Y-94506143D01*
X154432000Y-94566619D01*
X154371524Y-94687572D01*
X154371524Y-94929476D01*
X154432000Y-95050429D01*
X154492476Y-95110905D01*
X154613429Y-95171381D01*
X154673905Y-95171381D01*
X154794857Y-95110905D01*
X154855333Y-95050429D01*
X154915810Y-94929476D01*
X154915810Y-94687572D01*
X154976286Y-94566619D01*
X155036762Y-94506143D01*
X155157714Y-94445667D01*
X155399619Y-94445667D01*
X155520571Y-94506143D01*
X155581048Y-94566619D01*
X155641524Y-94687572D01*
X155641524Y-94929476D01*
X155581048Y-95050429D01*
X155520571Y-95110905D01*
X155399619Y-95171381D01*
X155157714Y-95171381D01*
X155036762Y-95110905D01*
X154976286Y-95050429D01*
X154915810Y-94929476D01*
X173125191Y-79320571D02*
X173185667Y-79381048D01*
X173367096Y-79441524D01*
X173488048Y-79441524D01*
X173669476Y-79381048D01*
X173790429Y-79260095D01*
X173850905Y-79139143D01*
X173911381Y-78897238D01*
X173911381Y-78715810D01*
X173850905Y-78473905D01*
X173790429Y-78352952D01*
X173669476Y-78232000D01*
X173488048Y-78171524D01*
X173367096Y-78171524D01*
X173185667Y-78232000D01*
X173125191Y-78292476D01*
X172701857Y-78171524D02*
X171915667Y-78171524D01*
X172339000Y-78655333D01*
X172157572Y-78655333D01*
X172036619Y-78715810D01*
X171976143Y-78776286D01*
X171915667Y-78897238D01*
X171915667Y-79199619D01*
X171976143Y-79320571D01*
X172036619Y-79381048D01*
X172157572Y-79441524D01*
X172520429Y-79441524D01*
X172641381Y-79381048D01*
X172701857Y-79320571D01*
X171129476Y-78171524D02*
X171008524Y-78171524D01*
X170887572Y-78232000D01*
X170827095Y-78292476D01*
X170766619Y-78413429D01*
X170706143Y-78655333D01*
X170706143Y-78957714D01*
X170766619Y-79199619D01*
X170827095Y-79320571D01*
X170887572Y-79381048D01*
X171008524Y-79441524D01*
X171129476Y-79441524D01*
X171250429Y-79381048D01*
X171310905Y-79320571D01*
X171371381Y-79199619D01*
X171431857Y-78957714D01*
X171431857Y-78655333D01*
X171371381Y-78413429D01*
X171310905Y-78292476D01*
X171250429Y-78232000D01*
X171129476Y-78171524D01*
X170101381Y-79441524D02*
X169859476Y-79441524D01*
X169738524Y-79381048D01*
X169678048Y-79320571D01*
X169557095Y-79139143D01*
X169496619Y-78897238D01*
X169496619Y-78413429D01*
X169557095Y-78292476D01*
X169617571Y-78232000D01*
X169738524Y-78171524D01*
X169980428Y-78171524D01*
X170101381Y-78232000D01*
X170161857Y-78292476D01*
X170222333Y-78413429D01*
X170222333Y-78715810D01*
X170161857Y-78836762D01*
X170101381Y-78897238D01*
X169980428Y-78957714D01*
X169738524Y-78957714D01*
X169617571Y-78897238D01*
X169557095Y-78836762D01*
X169496619Y-78715810D01*
X179650571Y-111227809D02*
X179711048Y-111167333D01*
X179771524Y-110985904D01*
X179771524Y-110864952D01*
X179711048Y-110683524D01*
X179590095Y-110562571D01*
X179469143Y-110502095D01*
X179227238Y-110441619D01*
X179045810Y-110441619D01*
X178803905Y-110502095D01*
X178682952Y-110562571D01*
X178562000Y-110683524D01*
X178501524Y-110864952D01*
X178501524Y-110985904D01*
X178562000Y-111167333D01*
X178622476Y-111227809D01*
X178501524Y-111651143D02*
X178501524Y-112437333D01*
X178985333Y-112014000D01*
X178985333Y-112195428D01*
X179045810Y-112316381D01*
X179106286Y-112376857D01*
X179227238Y-112437333D01*
X179529619Y-112437333D01*
X179650571Y-112376857D01*
X179711048Y-112316381D01*
X179771524Y-112195428D01*
X179771524Y-111832571D01*
X179711048Y-111711619D01*
X179650571Y-111651143D01*
X179771524Y-113646857D02*
X179771524Y-112921143D01*
X179771524Y-113284000D02*
X178501524Y-113284000D01*
X178682952Y-113163048D01*
X178803905Y-113042095D01*
X178864381Y-112921143D01*
X178501524Y-114433048D02*
X178501524Y-114554000D01*
X178562000Y-114674952D01*
X178622476Y-114735429D01*
X178743429Y-114795905D01*
X178985333Y-114856381D01*
X179287714Y-114856381D01*
X179529619Y-114795905D01*
X179650571Y-114735429D01*
X179711048Y-114674952D01*
X179771524Y-114554000D01*
X179771524Y-114433048D01*
X179711048Y-114312095D01*
X179650571Y-114251619D01*
X179529619Y-114191143D01*
X179287714Y-114130667D01*
X178985333Y-114130667D01*
X178743429Y-114191143D01*
X178622476Y-114251619D01*
X178562000Y-114312095D01*
X178501524Y-114433048D01*
X164664571Y-111354809D02*
X164725048Y-111294333D01*
X164785524Y-111112904D01*
X164785524Y-110991952D01*
X164725048Y-110810524D01*
X164604095Y-110689571D01*
X164483143Y-110629095D01*
X164241238Y-110568619D01*
X164059810Y-110568619D01*
X163817905Y-110629095D01*
X163696952Y-110689571D01*
X163576000Y-110810524D01*
X163515524Y-110991952D01*
X163515524Y-111112904D01*
X163576000Y-111294333D01*
X163636476Y-111354809D01*
X163515524Y-111778143D02*
X163515524Y-112564333D01*
X163999333Y-112141000D01*
X163999333Y-112322428D01*
X164059810Y-112443381D01*
X164120286Y-112503857D01*
X164241238Y-112564333D01*
X164543619Y-112564333D01*
X164664571Y-112503857D01*
X164725048Y-112443381D01*
X164785524Y-112322428D01*
X164785524Y-111959571D01*
X164725048Y-111838619D01*
X164664571Y-111778143D01*
X164785524Y-113773857D02*
X164785524Y-113048143D01*
X164785524Y-113411000D02*
X163515524Y-113411000D01*
X163696952Y-113290048D01*
X163817905Y-113169095D01*
X163878381Y-113048143D01*
X164785524Y-114983381D02*
X164785524Y-114257667D01*
X164785524Y-114620524D02*
X163515524Y-114620524D01*
X163696952Y-114499572D01*
X163817905Y-114378619D01*
X163878381Y-114257667D01*
X199843571Y-69190809D02*
X199904048Y-69130333D01*
X199964524Y-68948904D01*
X199964524Y-68827952D01*
X199904048Y-68646524D01*
X199783095Y-68525571D01*
X199662143Y-68465095D01*
X199420238Y-68404619D01*
X199238810Y-68404619D01*
X198996905Y-68465095D01*
X198875952Y-68525571D01*
X198755000Y-68646524D01*
X198694524Y-68827952D01*
X198694524Y-68948904D01*
X198755000Y-69130333D01*
X198815476Y-69190809D01*
X199117857Y-70279381D02*
X199964524Y-70279381D01*
X198634048Y-69977000D02*
X199541190Y-69674619D01*
X199541190Y-70460809D01*
X198694524Y-71186524D02*
X198694524Y-71307476D01*
X198755000Y-71428428D01*
X198815476Y-71488905D01*
X198936429Y-71549381D01*
X199178333Y-71609857D01*
X199480714Y-71609857D01*
X199722619Y-71549381D01*
X199843571Y-71488905D01*
X199904048Y-71428428D01*
X199964524Y-71307476D01*
X199964524Y-71186524D01*
X199904048Y-71065571D01*
X199843571Y-71005095D01*
X199722619Y-70944619D01*
X199480714Y-70884143D01*
X199178333Y-70884143D01*
X198936429Y-70944619D01*
X198815476Y-71005095D01*
X198755000Y-71065571D01*
X198694524Y-71186524D01*
X199964524Y-72819381D02*
X199964524Y-72093667D01*
X199964524Y-72456524D02*
X198694524Y-72456524D01*
X198875952Y-72335572D01*
X198996905Y-72214619D01*
X199057381Y-72093667D01*
X197938571Y-69190809D02*
X197999048Y-69130333D01*
X198059524Y-68948904D01*
X198059524Y-68827952D01*
X197999048Y-68646524D01*
X197878095Y-68525571D01*
X197757143Y-68465095D01*
X197515238Y-68404619D01*
X197333810Y-68404619D01*
X197091905Y-68465095D01*
X196970952Y-68525571D01*
X196850000Y-68646524D01*
X196789524Y-68827952D01*
X196789524Y-68948904D01*
X196850000Y-69130333D01*
X196910476Y-69190809D01*
X197212857Y-70279381D02*
X198059524Y-70279381D01*
X196729048Y-69977000D02*
X197636190Y-69674619D01*
X197636190Y-70460809D01*
X196789524Y-71186524D02*
X196789524Y-71307476D01*
X196850000Y-71428428D01*
X196910476Y-71488905D01*
X197031429Y-71549381D01*
X197273333Y-71609857D01*
X197575714Y-71609857D01*
X197817619Y-71549381D01*
X197938571Y-71488905D01*
X197999048Y-71428428D01*
X198059524Y-71307476D01*
X198059524Y-71186524D01*
X197999048Y-71065571D01*
X197938571Y-71005095D01*
X197817619Y-70944619D01*
X197575714Y-70884143D01*
X197273333Y-70884143D01*
X197031429Y-70944619D01*
X196910476Y-71005095D01*
X196850000Y-71065571D01*
X196789524Y-71186524D01*
X196910476Y-72093667D02*
X196850000Y-72154143D01*
X196789524Y-72275095D01*
X196789524Y-72577476D01*
X196850000Y-72698429D01*
X196910476Y-72758905D01*
X197031429Y-72819381D01*
X197152381Y-72819381D01*
X197333810Y-72758905D01*
X198059524Y-72033191D01*
X198059524Y-72819381D01*
X196033571Y-69190809D02*
X196094048Y-69130333D01*
X196154524Y-68948904D01*
X196154524Y-68827952D01*
X196094048Y-68646524D01*
X195973095Y-68525571D01*
X195852143Y-68465095D01*
X195610238Y-68404619D01*
X195428810Y-68404619D01*
X195186905Y-68465095D01*
X195065952Y-68525571D01*
X194945000Y-68646524D01*
X194884524Y-68827952D01*
X194884524Y-68948904D01*
X194945000Y-69130333D01*
X195005476Y-69190809D01*
X195307857Y-70279381D02*
X196154524Y-70279381D01*
X194824048Y-69977000D02*
X195731190Y-69674619D01*
X195731190Y-70460809D01*
X194884524Y-71186524D02*
X194884524Y-71307476D01*
X194945000Y-71428428D01*
X195005476Y-71488905D01*
X195126429Y-71549381D01*
X195368333Y-71609857D01*
X195670714Y-71609857D01*
X195912619Y-71549381D01*
X196033571Y-71488905D01*
X196094048Y-71428428D01*
X196154524Y-71307476D01*
X196154524Y-71186524D01*
X196094048Y-71065571D01*
X196033571Y-71005095D01*
X195912619Y-70944619D01*
X195670714Y-70884143D01*
X195368333Y-70884143D01*
X195126429Y-70944619D01*
X195005476Y-71005095D01*
X194945000Y-71065571D01*
X194884524Y-71186524D01*
X194884524Y-72033191D02*
X194884524Y-72819381D01*
X195368333Y-72396048D01*
X195368333Y-72577476D01*
X195428810Y-72698429D01*
X195489286Y-72758905D01*
X195610238Y-72819381D01*
X195912619Y-72819381D01*
X196033571Y-72758905D01*
X196094048Y-72698429D01*
X196154524Y-72577476D01*
X196154524Y-72214619D01*
X196094048Y-72093667D01*
X196033571Y-72033191D01*
X195985191Y-95449571D02*
X196045667Y-95510048D01*
X196227096Y-95570524D01*
X196348048Y-95570524D01*
X196529476Y-95510048D01*
X196650429Y-95389095D01*
X196710905Y-95268143D01*
X196771381Y-95026238D01*
X196771381Y-94844810D01*
X196710905Y-94602905D01*
X196650429Y-94481952D01*
X196529476Y-94361000D01*
X196348048Y-94300524D01*
X196227096Y-94300524D01*
X196045667Y-94361000D01*
X195985191Y-94421476D01*
X194896619Y-94723857D02*
X194896619Y-95570524D01*
X195199000Y-94240048D02*
X195501381Y-95147190D01*
X194715191Y-95147190D01*
X193989476Y-94300524D02*
X193868524Y-94300524D01*
X193747572Y-94361000D01*
X193687095Y-94421476D01*
X193626619Y-94542429D01*
X193566143Y-94784333D01*
X193566143Y-95086714D01*
X193626619Y-95328619D01*
X193687095Y-95449571D01*
X193747572Y-95510048D01*
X193868524Y-95570524D01*
X193989476Y-95570524D01*
X194110429Y-95510048D01*
X194170905Y-95449571D01*
X194231381Y-95328619D01*
X194291857Y-95086714D01*
X194291857Y-94784333D01*
X194231381Y-94542429D01*
X194170905Y-94421476D01*
X194110429Y-94361000D01*
X193989476Y-94300524D01*
X192477571Y-94300524D02*
X192719476Y-94300524D01*
X192840428Y-94361000D01*
X192900905Y-94421476D01*
X193021857Y-94602905D01*
X193082333Y-94844810D01*
X193082333Y-95328619D01*
X193021857Y-95449571D01*
X192961381Y-95510048D01*
X192840428Y-95570524D01*
X192598524Y-95570524D01*
X192477571Y-95510048D01*
X192417095Y-95449571D01*
X192356619Y-95328619D01*
X192356619Y-95026238D01*
X192417095Y-94905286D01*
X192477571Y-94844810D01*
X192598524Y-94784333D01*
X192840428Y-94784333D01*
X192961381Y-94844810D01*
X193021857Y-94905286D01*
X193082333Y-95026238D01*
X199208571Y-81382809D02*
X199269048Y-81322333D01*
X199329524Y-81140904D01*
X199329524Y-81019952D01*
X199269048Y-80838524D01*
X199148095Y-80717571D01*
X199027143Y-80657095D01*
X198785238Y-80596619D01*
X198603810Y-80596619D01*
X198361905Y-80657095D01*
X198240952Y-80717571D01*
X198120000Y-80838524D01*
X198059524Y-81019952D01*
X198059524Y-81140904D01*
X198120000Y-81322333D01*
X198180476Y-81382809D01*
X198482857Y-82471381D02*
X199329524Y-82471381D01*
X197999048Y-82169000D02*
X198906190Y-81866619D01*
X198906190Y-82652809D01*
X198059524Y-83378524D02*
X198059524Y-83499476D01*
X198120000Y-83620428D01*
X198180476Y-83680905D01*
X198301429Y-83741381D01*
X198543333Y-83801857D01*
X198845714Y-83801857D01*
X199087619Y-83741381D01*
X199208571Y-83680905D01*
X199269048Y-83620428D01*
X199329524Y-83499476D01*
X199329524Y-83378524D01*
X199269048Y-83257571D01*
X199208571Y-83197095D01*
X199087619Y-83136619D01*
X198845714Y-83076143D01*
X198543333Y-83076143D01*
X198301429Y-83136619D01*
X198180476Y-83197095D01*
X198120000Y-83257571D01*
X198059524Y-83378524D01*
X198059524Y-84225191D02*
X198059524Y-85071857D01*
X199329524Y-84527572D01*
X199843571Y-63475809D02*
X199904048Y-63415333D01*
X199964524Y-63233904D01*
X199964524Y-63112952D01*
X199904048Y-62931524D01*
X199783095Y-62810571D01*
X199662143Y-62750095D01*
X199420238Y-62689619D01*
X199238810Y-62689619D01*
X198996905Y-62750095D01*
X198875952Y-62810571D01*
X198755000Y-62931524D01*
X198694524Y-63112952D01*
X198694524Y-63233904D01*
X198755000Y-63415333D01*
X198815476Y-63475809D01*
X199117857Y-64564381D02*
X199964524Y-64564381D01*
X198634048Y-64262000D02*
X199541190Y-63959619D01*
X199541190Y-64745809D01*
X198694524Y-65471524D02*
X198694524Y-65592476D01*
X198755000Y-65713428D01*
X198815476Y-65773905D01*
X198936429Y-65834381D01*
X199178333Y-65894857D01*
X199480714Y-65894857D01*
X199722619Y-65834381D01*
X199843571Y-65773905D01*
X199904048Y-65713428D01*
X199964524Y-65592476D01*
X199964524Y-65471524D01*
X199904048Y-65350571D01*
X199843571Y-65290095D01*
X199722619Y-65229619D01*
X199480714Y-65169143D01*
X199178333Y-65169143D01*
X198936429Y-65229619D01*
X198815476Y-65290095D01*
X198755000Y-65350571D01*
X198694524Y-65471524D01*
X199238810Y-66620572D02*
X199178333Y-66499619D01*
X199117857Y-66439143D01*
X198996905Y-66378667D01*
X198936429Y-66378667D01*
X198815476Y-66439143D01*
X198755000Y-66499619D01*
X198694524Y-66620572D01*
X198694524Y-66862476D01*
X198755000Y-66983429D01*
X198815476Y-67043905D01*
X198936429Y-67104381D01*
X198996905Y-67104381D01*
X199117857Y-67043905D01*
X199178333Y-66983429D01*
X199238810Y-66862476D01*
X199238810Y-66620572D01*
X199299286Y-66499619D01*
X199359762Y-66439143D01*
X199480714Y-66378667D01*
X199722619Y-66378667D01*
X199843571Y-66439143D01*
X199904048Y-66499619D01*
X199964524Y-66620572D01*
X199964524Y-66862476D01*
X199904048Y-66983429D01*
X199843571Y-67043905D01*
X199722619Y-67104381D01*
X199480714Y-67104381D01*
X199359762Y-67043905D01*
X199299286Y-66983429D01*
X199238810Y-66862476D01*
X197811571Y-63475809D02*
X197872048Y-63415333D01*
X197932524Y-63233904D01*
X197932524Y-63112952D01*
X197872048Y-62931524D01*
X197751095Y-62810571D01*
X197630143Y-62750095D01*
X197388238Y-62689619D01*
X197206810Y-62689619D01*
X196964905Y-62750095D01*
X196843952Y-62810571D01*
X196723000Y-62931524D01*
X196662524Y-63112952D01*
X196662524Y-63233904D01*
X196723000Y-63415333D01*
X196783476Y-63475809D01*
X197085857Y-64564381D02*
X197932524Y-64564381D01*
X196602048Y-64262000D02*
X197509190Y-63959619D01*
X197509190Y-64745809D01*
X196662524Y-65471524D02*
X196662524Y-65592476D01*
X196723000Y-65713428D01*
X196783476Y-65773905D01*
X196904429Y-65834381D01*
X197146333Y-65894857D01*
X197448714Y-65894857D01*
X197690619Y-65834381D01*
X197811571Y-65773905D01*
X197872048Y-65713428D01*
X197932524Y-65592476D01*
X197932524Y-65471524D01*
X197872048Y-65350571D01*
X197811571Y-65290095D01*
X197690619Y-65229619D01*
X197448714Y-65169143D01*
X197146333Y-65169143D01*
X196904429Y-65229619D01*
X196783476Y-65290095D01*
X196723000Y-65350571D01*
X196662524Y-65471524D01*
X197932524Y-66499619D02*
X197932524Y-66741524D01*
X197872048Y-66862476D01*
X197811571Y-66922952D01*
X197630143Y-67043905D01*
X197388238Y-67104381D01*
X196904429Y-67104381D01*
X196783476Y-67043905D01*
X196723000Y-66983429D01*
X196662524Y-66862476D01*
X196662524Y-66620572D01*
X196723000Y-66499619D01*
X196783476Y-66439143D01*
X196904429Y-66378667D01*
X197206810Y-66378667D01*
X197327762Y-66439143D01*
X197388238Y-66499619D01*
X197448714Y-66620572D01*
X197448714Y-66862476D01*
X197388238Y-66983429D01*
X197327762Y-67043905D01*
X197206810Y-67104381D01*
X195906571Y-63475809D02*
X195967048Y-63415333D01*
X196027524Y-63233904D01*
X196027524Y-63112952D01*
X195967048Y-62931524D01*
X195846095Y-62810571D01*
X195725143Y-62750095D01*
X195483238Y-62689619D01*
X195301810Y-62689619D01*
X195059905Y-62750095D01*
X194938952Y-62810571D01*
X194818000Y-62931524D01*
X194757524Y-63112952D01*
X194757524Y-63233904D01*
X194818000Y-63415333D01*
X194878476Y-63475809D01*
X195180857Y-64564381D02*
X196027524Y-64564381D01*
X194697048Y-64262000D02*
X195604190Y-63959619D01*
X195604190Y-64745809D01*
X196027524Y-65894857D02*
X196027524Y-65169143D01*
X196027524Y-65532000D02*
X194757524Y-65532000D01*
X194938952Y-65411048D01*
X195059905Y-65290095D01*
X195120381Y-65169143D01*
X194757524Y-66681048D02*
X194757524Y-66802000D01*
X194818000Y-66922952D01*
X194878476Y-66983429D01*
X194999429Y-67043905D01*
X195241333Y-67104381D01*
X195543714Y-67104381D01*
X195785619Y-67043905D01*
X195906571Y-66983429D01*
X195967048Y-66922952D01*
X196027524Y-66802000D01*
X196027524Y-66681048D01*
X195967048Y-66560095D01*
X195906571Y-66499619D01*
X195785619Y-66439143D01*
X195543714Y-66378667D01*
X195241333Y-66378667D01*
X194999429Y-66439143D01*
X194878476Y-66499619D01*
X194818000Y-66560095D01*
X194757524Y-66681048D01*
X186635571Y-81382809D02*
X186696048Y-81322333D01*
X186756524Y-81140904D01*
X186756524Y-81019952D01*
X186696048Y-80838524D01*
X186575095Y-80717571D01*
X186454143Y-80657095D01*
X186212238Y-80596619D01*
X186030810Y-80596619D01*
X185788905Y-80657095D01*
X185667952Y-80717571D01*
X185547000Y-80838524D01*
X185486524Y-81019952D01*
X185486524Y-81140904D01*
X185547000Y-81322333D01*
X185607476Y-81382809D01*
X185909857Y-82471381D02*
X186756524Y-82471381D01*
X185426048Y-82169000D02*
X186333190Y-81866619D01*
X186333190Y-82652809D01*
X186756524Y-83801857D02*
X186756524Y-83076143D01*
X186756524Y-83439000D02*
X185486524Y-83439000D01*
X185667952Y-83318048D01*
X185788905Y-83197095D01*
X185849381Y-83076143D01*
X186756524Y-85011381D02*
X186756524Y-84285667D01*
X186756524Y-84648524D02*
X185486524Y-84648524D01*
X185667952Y-84527572D01*
X185788905Y-84406619D01*
X185849381Y-84285667D01*
X174062571Y-73762809D02*
X174123048Y-73702333D01*
X174183524Y-73520904D01*
X174183524Y-73399952D01*
X174123048Y-73218524D01*
X174002095Y-73097571D01*
X173881143Y-73037095D01*
X173639238Y-72976619D01*
X173457810Y-72976619D01*
X173215905Y-73037095D01*
X173094952Y-73097571D01*
X172974000Y-73218524D01*
X172913524Y-73399952D01*
X172913524Y-73520904D01*
X172974000Y-73702333D01*
X173034476Y-73762809D01*
X173336857Y-74851381D02*
X174183524Y-74851381D01*
X172853048Y-74549000D02*
X173760190Y-74246619D01*
X173760190Y-75032809D01*
X174183524Y-76181857D02*
X174183524Y-75456143D01*
X174183524Y-75819000D02*
X172913524Y-75819000D01*
X173094952Y-75698048D01*
X173215905Y-75577095D01*
X173276381Y-75456143D01*
X172913524Y-77330905D02*
X172913524Y-76726143D01*
X173518286Y-76665667D01*
X173457810Y-76726143D01*
X173397333Y-76847095D01*
X173397333Y-77149476D01*
X173457810Y-77270429D01*
X173518286Y-77330905D01*
X173639238Y-77391381D01*
X173941619Y-77391381D01*
X174062571Y-77330905D01*
X174123048Y-77270429D01*
X174183524Y-77149476D01*
X174183524Y-76847095D01*
X174123048Y-76726143D01*
X174062571Y-76665667D01*
X170585191Y-69922571D02*
X170645667Y-69983048D01*
X170827096Y-70043524D01*
X170948048Y-70043524D01*
X171129476Y-69983048D01*
X171250429Y-69862095D01*
X171310905Y-69741143D01*
X171371381Y-69499238D01*
X171371381Y-69317810D01*
X171310905Y-69075905D01*
X171250429Y-68954952D01*
X171129476Y-68834000D01*
X170948048Y-68773524D01*
X170827096Y-68773524D01*
X170645667Y-68834000D01*
X170585191Y-68894476D01*
X169496619Y-69196857D02*
X169496619Y-70043524D01*
X169799000Y-68713048D02*
X170101381Y-69620190D01*
X169315191Y-69620190D01*
X168166143Y-70043524D02*
X168891857Y-70043524D01*
X168529000Y-70043524D02*
X168529000Y-68773524D01*
X168649952Y-68954952D01*
X168770905Y-69075905D01*
X168891857Y-69136381D01*
X167742809Y-68773524D02*
X166896143Y-68773524D01*
X167440428Y-70043524D01*
X165759191Y-76018571D02*
X165819667Y-76079048D01*
X166001096Y-76139524D01*
X166122048Y-76139524D01*
X166303476Y-76079048D01*
X166424429Y-75958095D01*
X166484905Y-75837143D01*
X166545381Y-75595238D01*
X166545381Y-75413810D01*
X166484905Y-75171905D01*
X166424429Y-75050952D01*
X166303476Y-74930000D01*
X166122048Y-74869524D01*
X166001096Y-74869524D01*
X165819667Y-74930000D01*
X165759191Y-74990476D01*
X164670619Y-75292857D02*
X164670619Y-76139524D01*
X164973000Y-74809048D02*
X165275381Y-75716190D01*
X164489191Y-75716190D01*
X163340143Y-76139524D02*
X164065857Y-76139524D01*
X163703000Y-76139524D02*
X163703000Y-74869524D01*
X163823952Y-75050952D01*
X163944905Y-75171905D01*
X164065857Y-75232381D01*
X162614428Y-75413810D02*
X162735381Y-75353333D01*
X162795857Y-75292857D01*
X162856333Y-75171905D01*
X162856333Y-75111429D01*
X162795857Y-74990476D01*
X162735381Y-74930000D01*
X162614428Y-74869524D01*
X162372524Y-74869524D01*
X162251571Y-74930000D01*
X162191095Y-74990476D01*
X162130619Y-75111429D01*
X162130619Y-75171905D01*
X162191095Y-75292857D01*
X162251571Y-75353333D01*
X162372524Y-75413810D01*
X162614428Y-75413810D01*
X162735381Y-75474286D01*
X162795857Y-75534762D01*
X162856333Y-75655714D01*
X162856333Y-75897619D01*
X162795857Y-76018571D01*
X162735381Y-76079048D01*
X162614428Y-76139524D01*
X162372524Y-76139524D01*
X162251571Y-76079048D01*
X162191095Y-76018571D01*
X162130619Y-75897619D01*
X162130619Y-75655714D01*
X162191095Y-75534762D01*
X162251571Y-75474286D01*
X162372524Y-75413810D01*
X162457191Y-69287571D02*
X162517667Y-69348048D01*
X162699096Y-69408524D01*
X162820048Y-69408524D01*
X163001476Y-69348048D01*
X163122429Y-69227095D01*
X163182905Y-69106143D01*
X163243381Y-68864238D01*
X163243381Y-68682810D01*
X163182905Y-68440905D01*
X163122429Y-68319952D01*
X163001476Y-68199000D01*
X162820048Y-68138524D01*
X162699096Y-68138524D01*
X162517667Y-68199000D01*
X162457191Y-68259476D01*
X161368619Y-68561857D02*
X161368619Y-69408524D01*
X161671000Y-68078048D02*
X161973381Y-68985190D01*
X161187191Y-68985190D01*
X160038143Y-69408524D02*
X160763857Y-69408524D01*
X160401000Y-69408524D02*
X160401000Y-68138524D01*
X160521952Y-68319952D01*
X160642905Y-68440905D01*
X160763857Y-68501381D01*
X159433381Y-69408524D02*
X159191476Y-69408524D01*
X159070524Y-69348048D01*
X159010048Y-69287571D01*
X158889095Y-69106143D01*
X158828619Y-68864238D01*
X158828619Y-68380429D01*
X158889095Y-68259476D01*
X158949571Y-68199000D01*
X159070524Y-68138524D01*
X159312428Y-68138524D01*
X159433381Y-68199000D01*
X159493857Y-68259476D01*
X159554333Y-68380429D01*
X159554333Y-68682810D01*
X159493857Y-68803762D01*
X159433381Y-68864238D01*
X159312428Y-68924714D01*
X159070524Y-68924714D01*
X158949571Y-68864238D01*
X158889095Y-68803762D01*
X158828619Y-68682810D01*
X159028191Y-74367571D02*
X159088667Y-74428048D01*
X159270096Y-74488524D01*
X159391048Y-74488524D01*
X159572476Y-74428048D01*
X159693429Y-74307095D01*
X159753905Y-74186143D01*
X159814381Y-73944238D01*
X159814381Y-73762810D01*
X159753905Y-73520905D01*
X159693429Y-73399952D01*
X159572476Y-73279000D01*
X159391048Y-73218524D01*
X159270096Y-73218524D01*
X159088667Y-73279000D01*
X159028191Y-73339476D01*
X157939619Y-73641857D02*
X157939619Y-74488524D01*
X158242000Y-73158048D02*
X158544381Y-74065190D01*
X157758191Y-74065190D01*
X157334857Y-73339476D02*
X157274381Y-73279000D01*
X157153429Y-73218524D01*
X156851048Y-73218524D01*
X156730095Y-73279000D01*
X156669619Y-73339476D01*
X156609143Y-73460429D01*
X156609143Y-73581381D01*
X156669619Y-73762810D01*
X157395333Y-74488524D01*
X156609143Y-74488524D01*
X155822952Y-73218524D02*
X155702000Y-73218524D01*
X155581048Y-73279000D01*
X155520571Y-73339476D01*
X155460095Y-73460429D01*
X155399619Y-73702333D01*
X155399619Y-74004714D01*
X155460095Y-74246619D01*
X155520571Y-74367571D01*
X155581048Y-74428048D01*
X155702000Y-74488524D01*
X155822952Y-74488524D01*
X155943905Y-74428048D01*
X156004381Y-74367571D01*
X156064857Y-74246619D01*
X156125333Y-74004714D01*
X156125333Y-73702333D01*
X156064857Y-73460429D01*
X156004381Y-73339476D01*
X155943905Y-73279000D01*
X155822952Y-73218524D01*
X137740571Y-109068809D02*
X137801048Y-109008333D01*
X137861524Y-108826904D01*
X137861524Y-108705952D01*
X137801048Y-108524524D01*
X137680095Y-108403571D01*
X137559143Y-108343095D01*
X137317238Y-108282619D01*
X137135810Y-108282619D01*
X136893905Y-108343095D01*
X136772952Y-108403571D01*
X136652000Y-108524524D01*
X136591524Y-108705952D01*
X136591524Y-108826904D01*
X136652000Y-109008333D01*
X136712476Y-109068809D01*
X136591524Y-110217857D02*
X136591524Y-109613095D01*
X137196286Y-109552619D01*
X137135810Y-109613095D01*
X137075333Y-109734047D01*
X137075333Y-110036428D01*
X137135810Y-110157381D01*
X137196286Y-110217857D01*
X137317238Y-110278333D01*
X137619619Y-110278333D01*
X137740571Y-110217857D01*
X137801048Y-110157381D01*
X137861524Y-110036428D01*
X137861524Y-109734047D01*
X137801048Y-109613095D01*
X137740571Y-109552619D01*
X136591524Y-111064524D02*
X136591524Y-111185476D01*
X136652000Y-111306428D01*
X136712476Y-111366905D01*
X136833429Y-111427381D01*
X137075333Y-111487857D01*
X137377714Y-111487857D01*
X137619619Y-111427381D01*
X137740571Y-111366905D01*
X137801048Y-111306428D01*
X137861524Y-111185476D01*
X137861524Y-111064524D01*
X137801048Y-110943571D01*
X137740571Y-110883095D01*
X137619619Y-110822619D01*
X137377714Y-110762143D01*
X137075333Y-110762143D01*
X136833429Y-110822619D01*
X136712476Y-110883095D01*
X136652000Y-110943571D01*
X136591524Y-111064524D01*
X136591524Y-111911191D02*
X136591524Y-112697381D01*
X137075333Y-112274048D01*
X137075333Y-112455476D01*
X137135810Y-112576429D01*
X137196286Y-112636905D01*
X137317238Y-112697381D01*
X137619619Y-112697381D01*
X137740571Y-112636905D01*
X137801048Y-112576429D01*
X137861524Y-112455476D01*
X137861524Y-112092619D01*
X137801048Y-111971667D01*
X137740571Y-111911191D01*
X140153571Y-109957809D02*
X140214048Y-109897333D01*
X140274524Y-109715904D01*
X140274524Y-109594952D01*
X140214048Y-109413524D01*
X140093095Y-109292571D01*
X139972143Y-109232095D01*
X139730238Y-109171619D01*
X139548810Y-109171619D01*
X139306905Y-109232095D01*
X139185952Y-109292571D01*
X139065000Y-109413524D01*
X139004524Y-109594952D01*
X139004524Y-109715904D01*
X139065000Y-109897333D01*
X139125476Y-109957809D01*
X139004524Y-111106857D02*
X139004524Y-110502095D01*
X139609286Y-110441619D01*
X139548810Y-110502095D01*
X139488333Y-110623047D01*
X139488333Y-110925428D01*
X139548810Y-111046381D01*
X139609286Y-111106857D01*
X139730238Y-111167333D01*
X140032619Y-111167333D01*
X140153571Y-111106857D01*
X140214048Y-111046381D01*
X140274524Y-110925428D01*
X140274524Y-110623047D01*
X140214048Y-110502095D01*
X140153571Y-110441619D01*
X139004524Y-111953524D02*
X139004524Y-112074476D01*
X139065000Y-112195428D01*
X139125476Y-112255905D01*
X139246429Y-112316381D01*
X139488333Y-112376857D01*
X139790714Y-112376857D01*
X140032619Y-112316381D01*
X140153571Y-112255905D01*
X140214048Y-112195428D01*
X140274524Y-112074476D01*
X140274524Y-111953524D01*
X140214048Y-111832571D01*
X140153571Y-111772095D01*
X140032619Y-111711619D01*
X139790714Y-111651143D01*
X139488333Y-111651143D01*
X139246429Y-111711619D01*
X139125476Y-111772095D01*
X139065000Y-111832571D01*
X139004524Y-111953524D01*
X139427857Y-113465429D02*
X140274524Y-113465429D01*
X138944048Y-113163048D02*
X139851190Y-112860667D01*
X139851190Y-113646857D01*
X141121191Y-94560571D02*
X141181667Y-94621048D01*
X141363096Y-94681524D01*
X141484048Y-94681524D01*
X141665476Y-94621048D01*
X141786429Y-94500095D01*
X141846905Y-94379143D01*
X141907381Y-94137238D01*
X141907381Y-93955810D01*
X141846905Y-93713905D01*
X141786429Y-93592952D01*
X141665476Y-93472000D01*
X141484048Y-93411524D01*
X141363096Y-93411524D01*
X141181667Y-93472000D01*
X141121191Y-93532476D01*
X139972143Y-93411524D02*
X140576905Y-93411524D01*
X140637381Y-94016286D01*
X140576905Y-93955810D01*
X140455953Y-93895333D01*
X140153572Y-93895333D01*
X140032619Y-93955810D01*
X139972143Y-94016286D01*
X139911667Y-94137238D01*
X139911667Y-94439619D01*
X139972143Y-94560571D01*
X140032619Y-94621048D01*
X140153572Y-94681524D01*
X140455953Y-94681524D01*
X140576905Y-94621048D01*
X140637381Y-94560571D01*
X139125476Y-93411524D02*
X139004524Y-93411524D01*
X138883572Y-93472000D01*
X138823095Y-93532476D01*
X138762619Y-93653429D01*
X138702143Y-93895333D01*
X138702143Y-94197714D01*
X138762619Y-94439619D01*
X138823095Y-94560571D01*
X138883572Y-94621048D01*
X139004524Y-94681524D01*
X139125476Y-94681524D01*
X139246429Y-94621048D01*
X139306905Y-94560571D01*
X139367381Y-94439619D01*
X139427857Y-94197714D01*
X139427857Y-93895333D01*
X139367381Y-93653429D01*
X139306905Y-93532476D01*
X139246429Y-93472000D01*
X139125476Y-93411524D01*
X138278809Y-93411524D02*
X137432143Y-93411524D01*
X137976428Y-94681524D01*
X146709191Y-112975571D02*
X146769667Y-113036048D01*
X146951096Y-113096524D01*
X147072048Y-113096524D01*
X147253476Y-113036048D01*
X147374429Y-112915095D01*
X147434905Y-112794143D01*
X147495381Y-112552238D01*
X147495381Y-112370810D01*
X147434905Y-112128905D01*
X147374429Y-112007952D01*
X147253476Y-111887000D01*
X147072048Y-111826524D01*
X146951096Y-111826524D01*
X146769667Y-111887000D01*
X146709191Y-111947476D01*
X145560143Y-111826524D02*
X146164905Y-111826524D01*
X146225381Y-112431286D01*
X146164905Y-112370810D01*
X146043953Y-112310333D01*
X145741572Y-112310333D01*
X145620619Y-112370810D01*
X145560143Y-112431286D01*
X145499667Y-112552238D01*
X145499667Y-112854619D01*
X145560143Y-112975571D01*
X145620619Y-113036048D01*
X145741572Y-113096524D01*
X146043953Y-113096524D01*
X146164905Y-113036048D01*
X146225381Y-112975571D01*
X144713476Y-111826524D02*
X144592524Y-111826524D01*
X144471572Y-111887000D01*
X144411095Y-111947476D01*
X144350619Y-112068429D01*
X144290143Y-112310333D01*
X144290143Y-112612714D01*
X144350619Y-112854619D01*
X144411095Y-112975571D01*
X144471572Y-113036048D01*
X144592524Y-113096524D01*
X144713476Y-113096524D01*
X144834429Y-113036048D01*
X144894905Y-112975571D01*
X144955381Y-112854619D01*
X145015857Y-112612714D01*
X145015857Y-112310333D01*
X144955381Y-112068429D01*
X144894905Y-111947476D01*
X144834429Y-111887000D01*
X144713476Y-111826524D01*
X143564428Y-112370810D02*
X143685381Y-112310333D01*
X143745857Y-112249857D01*
X143806333Y-112128905D01*
X143806333Y-112068429D01*
X143745857Y-111947476D01*
X143685381Y-111887000D01*
X143564428Y-111826524D01*
X143322524Y-111826524D01*
X143201571Y-111887000D01*
X143141095Y-111947476D01*
X143080619Y-112068429D01*
X143080619Y-112128905D01*
X143141095Y-112249857D01*
X143201571Y-112310333D01*
X143322524Y-112370810D01*
X143564428Y-112370810D01*
X143685381Y-112431286D01*
X143745857Y-112491762D01*
X143806333Y-112612714D01*
X143806333Y-112854619D01*
X143745857Y-112975571D01*
X143685381Y-113036048D01*
X143564428Y-113096524D01*
X143322524Y-113096524D01*
X143201571Y-113036048D01*
X143141095Y-112975571D01*
X143080619Y-112854619D01*
X143080619Y-112612714D01*
X143141095Y-112491762D01*
X143201571Y-112431286D01*
X143322524Y-112370810D01*
X146074191Y-106371571D02*
X146134667Y-106432048D01*
X146316096Y-106492524D01*
X146437048Y-106492524D01*
X146618476Y-106432048D01*
X146739429Y-106311095D01*
X146799905Y-106190143D01*
X146860381Y-105948238D01*
X146860381Y-105766810D01*
X146799905Y-105524905D01*
X146739429Y-105403952D01*
X146618476Y-105283000D01*
X146437048Y-105222524D01*
X146316096Y-105222524D01*
X146134667Y-105283000D01*
X146074191Y-105343476D01*
X144925143Y-105222524D02*
X145529905Y-105222524D01*
X145590381Y-105827286D01*
X145529905Y-105766810D01*
X145408953Y-105706333D01*
X145106572Y-105706333D01*
X144985619Y-105766810D01*
X144925143Y-105827286D01*
X144864667Y-105948238D01*
X144864667Y-106250619D01*
X144925143Y-106371571D01*
X144985619Y-106432048D01*
X145106572Y-106492524D01*
X145408953Y-106492524D01*
X145529905Y-106432048D01*
X145590381Y-106371571D01*
X144078476Y-105222524D02*
X143957524Y-105222524D01*
X143836572Y-105283000D01*
X143776095Y-105343476D01*
X143715619Y-105464429D01*
X143655143Y-105706333D01*
X143655143Y-106008714D01*
X143715619Y-106250619D01*
X143776095Y-106371571D01*
X143836572Y-106432048D01*
X143957524Y-106492524D01*
X144078476Y-106492524D01*
X144199429Y-106432048D01*
X144259905Y-106371571D01*
X144320381Y-106250619D01*
X144380857Y-106008714D01*
X144380857Y-105706333D01*
X144320381Y-105464429D01*
X144259905Y-105343476D01*
X144199429Y-105283000D01*
X144078476Y-105222524D01*
X143050381Y-106492524D02*
X142808476Y-106492524D01*
X142687524Y-106432048D01*
X142627048Y-106371571D01*
X142506095Y-106190143D01*
X142445619Y-105948238D01*
X142445619Y-105464429D01*
X142506095Y-105343476D01*
X142566571Y-105283000D01*
X142687524Y-105222524D01*
X142929428Y-105222524D01*
X143050381Y-105283000D01*
X143110857Y-105343476D01*
X143171333Y-105464429D01*
X143171333Y-105766810D01*
X143110857Y-105887762D01*
X143050381Y-105948238D01*
X142929428Y-106008714D01*
X142687524Y-106008714D01*
X142566571Y-105948238D01*
X142506095Y-105887762D01*
X142445619Y-105766810D01*
X151710571Y-108560809D02*
X151771048Y-108500333D01*
X151831524Y-108318904D01*
X151831524Y-108197952D01*
X151771048Y-108016524D01*
X151650095Y-107895571D01*
X151529143Y-107835095D01*
X151287238Y-107774619D01*
X151105810Y-107774619D01*
X150863905Y-107835095D01*
X150742952Y-107895571D01*
X150622000Y-108016524D01*
X150561524Y-108197952D01*
X150561524Y-108318904D01*
X150622000Y-108500333D01*
X150682476Y-108560809D01*
X150561524Y-109709857D02*
X150561524Y-109105095D01*
X151166286Y-109044619D01*
X151105810Y-109105095D01*
X151045333Y-109226047D01*
X151045333Y-109528428D01*
X151105810Y-109649381D01*
X151166286Y-109709857D01*
X151287238Y-109770333D01*
X151589619Y-109770333D01*
X151710571Y-109709857D01*
X151771048Y-109649381D01*
X151831524Y-109528428D01*
X151831524Y-109226047D01*
X151771048Y-109105095D01*
X151710571Y-109044619D01*
X151831524Y-110979857D02*
X151831524Y-110254143D01*
X151831524Y-110617000D02*
X150561524Y-110617000D01*
X150742952Y-110496048D01*
X150863905Y-110375095D01*
X150924381Y-110254143D01*
X150561524Y-111766048D02*
X150561524Y-111887000D01*
X150622000Y-112007952D01*
X150682476Y-112068429D01*
X150803429Y-112128905D01*
X151045333Y-112189381D01*
X151347714Y-112189381D01*
X151589619Y-112128905D01*
X151710571Y-112068429D01*
X151771048Y-112007952D01*
X151831524Y-111887000D01*
X151831524Y-111766048D01*
X151771048Y-111645095D01*
X151710571Y-111584619D01*
X151589619Y-111524143D01*
X151347714Y-111463667D01*
X151045333Y-111463667D01*
X150803429Y-111524143D01*
X150682476Y-111584619D01*
X150622000Y-111645095D01*
X150561524Y-111766048D01*
X151583571Y-93828809D02*
X151644048Y-93768333D01*
X151704524Y-93586904D01*
X151704524Y-93465952D01*
X151644048Y-93284524D01*
X151523095Y-93163571D01*
X151402143Y-93103095D01*
X151160238Y-93042619D01*
X150978810Y-93042619D01*
X150736905Y-93103095D01*
X150615952Y-93163571D01*
X150495000Y-93284524D01*
X150434524Y-93465952D01*
X150434524Y-93586904D01*
X150495000Y-93768333D01*
X150555476Y-93828809D01*
X150434524Y-94977857D02*
X150434524Y-94373095D01*
X151039286Y-94312619D01*
X150978810Y-94373095D01*
X150918333Y-94494047D01*
X150918333Y-94796428D01*
X150978810Y-94917381D01*
X151039286Y-94977857D01*
X151160238Y-95038333D01*
X151462619Y-95038333D01*
X151583571Y-94977857D01*
X151644048Y-94917381D01*
X151704524Y-94796428D01*
X151704524Y-94494047D01*
X151644048Y-94373095D01*
X151583571Y-94312619D01*
X151704524Y-96247857D02*
X151704524Y-95522143D01*
X151704524Y-95885000D02*
X150434524Y-95885000D01*
X150615952Y-95764048D01*
X150736905Y-95643095D01*
X150797381Y-95522143D01*
X151704524Y-97457381D02*
X151704524Y-96731667D01*
X151704524Y-97094524D02*
X150434524Y-97094524D01*
X150615952Y-96973572D01*
X150736905Y-96852619D01*
X150797381Y-96731667D01*
X147138571Y-96368809D02*
X147199048Y-96308333D01*
X147259524Y-96126904D01*
X147259524Y-96005952D01*
X147199048Y-95824524D01*
X147078095Y-95703571D01*
X146957143Y-95643095D01*
X146715238Y-95582619D01*
X146533810Y-95582619D01*
X146291905Y-95643095D01*
X146170952Y-95703571D01*
X146050000Y-95824524D01*
X145989524Y-96005952D01*
X145989524Y-96126904D01*
X146050000Y-96308333D01*
X146110476Y-96368809D01*
X145989524Y-97517857D02*
X145989524Y-96913095D01*
X146594286Y-96852619D01*
X146533810Y-96913095D01*
X146473333Y-97034047D01*
X146473333Y-97336428D01*
X146533810Y-97457381D01*
X146594286Y-97517857D01*
X146715238Y-97578333D01*
X147017619Y-97578333D01*
X147138571Y-97517857D01*
X147199048Y-97457381D01*
X147259524Y-97336428D01*
X147259524Y-97034047D01*
X147199048Y-96913095D01*
X147138571Y-96852619D01*
X147259524Y-98787857D02*
X147259524Y-98062143D01*
X147259524Y-98425000D02*
X145989524Y-98425000D01*
X146170952Y-98304048D01*
X146291905Y-98183095D01*
X146352381Y-98062143D01*
X146110476Y-99271667D02*
X146050000Y-99332143D01*
X145989524Y-99453095D01*
X145989524Y-99755476D01*
X146050000Y-99876429D01*
X146110476Y-99936905D01*
X146231429Y-99997381D01*
X146352381Y-99997381D01*
X146533810Y-99936905D01*
X147259524Y-99211191D01*
X147259524Y-99997381D01*
X151710571Y-102718809D02*
X151771048Y-102658333D01*
X151831524Y-102476904D01*
X151831524Y-102355952D01*
X151771048Y-102174524D01*
X151650095Y-102053571D01*
X151529143Y-101993095D01*
X151287238Y-101932619D01*
X151105810Y-101932619D01*
X150863905Y-101993095D01*
X150742952Y-102053571D01*
X150622000Y-102174524D01*
X150561524Y-102355952D01*
X150561524Y-102476904D01*
X150622000Y-102658333D01*
X150682476Y-102718809D01*
X150561524Y-103867857D02*
X150561524Y-103263095D01*
X151166286Y-103202619D01*
X151105810Y-103263095D01*
X151045333Y-103384047D01*
X151045333Y-103686428D01*
X151105810Y-103807381D01*
X151166286Y-103867857D01*
X151287238Y-103928333D01*
X151589619Y-103928333D01*
X151710571Y-103867857D01*
X151771048Y-103807381D01*
X151831524Y-103686428D01*
X151831524Y-103384047D01*
X151771048Y-103263095D01*
X151710571Y-103202619D01*
X151831524Y-105137857D02*
X151831524Y-104412143D01*
X151831524Y-104775000D02*
X150561524Y-104775000D01*
X150742952Y-104654048D01*
X150863905Y-104533095D01*
X150924381Y-104412143D01*
X150561524Y-105561191D02*
X150561524Y-106347381D01*
X151045333Y-105924048D01*
X151045333Y-106105476D01*
X151105810Y-106226429D01*
X151166286Y-106286905D01*
X151287238Y-106347381D01*
X151589619Y-106347381D01*
X151710571Y-106286905D01*
X151771048Y-106226429D01*
X151831524Y-106105476D01*
X151831524Y-105742619D01*
X151771048Y-105621667D01*
X151710571Y-105561191D01*
X121436191Y-118309571D02*
X121496667Y-118370048D01*
X121678096Y-118430524D01*
X121799048Y-118430524D01*
X121980476Y-118370048D01*
X122101429Y-118249095D01*
X122161905Y-118128143D01*
X122222381Y-117886238D01*
X122222381Y-117704810D01*
X122161905Y-117462905D01*
X122101429Y-117341952D01*
X121980476Y-117221000D01*
X121799048Y-117160524D01*
X121678096Y-117160524D01*
X121496667Y-117221000D01*
X121436191Y-117281476D01*
X120287143Y-117160524D02*
X120891905Y-117160524D01*
X120952381Y-117765286D01*
X120891905Y-117704810D01*
X120770953Y-117644333D01*
X120468572Y-117644333D01*
X120347619Y-117704810D01*
X120287143Y-117765286D01*
X120226667Y-117886238D01*
X120226667Y-118188619D01*
X120287143Y-118309571D01*
X120347619Y-118370048D01*
X120468572Y-118430524D01*
X120770953Y-118430524D01*
X120891905Y-118370048D01*
X120952381Y-118309571D01*
X119017143Y-118430524D02*
X119742857Y-118430524D01*
X119380000Y-118430524D02*
X119380000Y-117160524D01*
X119500952Y-117341952D01*
X119621905Y-117462905D01*
X119742857Y-117523381D01*
X117868095Y-117160524D02*
X118472857Y-117160524D01*
X118533333Y-117765286D01*
X118472857Y-117704810D01*
X118351905Y-117644333D01*
X118049524Y-117644333D01*
X117928571Y-117704810D01*
X117868095Y-117765286D01*
X117807619Y-117886238D01*
X117807619Y-118188619D01*
X117868095Y-118309571D01*
X117928571Y-118370048D01*
X118049524Y-118430524D01*
X118351905Y-118430524D01*
X118472857Y-118370048D01*
X118533333Y-118309571D01*
X197424524Y-116217095D02*
X196154524Y-116217095D01*
X196154524Y-116519476D01*
X196215000Y-116700904D01*
X196335952Y-116821857D01*
X196456905Y-116882333D01*
X196698810Y-116942809D01*
X196880238Y-116942809D01*
X197122143Y-116882333D01*
X197243095Y-116821857D01*
X197364048Y-116700904D01*
X197424524Y-116519476D01*
X197424524Y-116217095D01*
X196154524Y-117366143D02*
X196154524Y-118152333D01*
X196638333Y-117729000D01*
X196638333Y-117910428D01*
X196698810Y-118031381D01*
X196759286Y-118091857D01*
X196880238Y-118152333D01*
X197182619Y-118152333D01*
X197303571Y-118091857D01*
X197364048Y-118031381D01*
X197424524Y-117910428D01*
X197424524Y-117547571D01*
X197364048Y-117426619D01*
X197303571Y-117366143D01*
X196154524Y-118938524D02*
X196154524Y-119059476D01*
X196215000Y-119180428D01*
X196275476Y-119240905D01*
X196396429Y-119301381D01*
X196638333Y-119361857D01*
X196940714Y-119361857D01*
X197182619Y-119301381D01*
X197303571Y-119240905D01*
X197364048Y-119180428D01*
X197424524Y-119059476D01*
X197424524Y-118938524D01*
X197364048Y-118817571D01*
X197303571Y-118757095D01*
X197182619Y-118696619D01*
X196940714Y-118636143D01*
X196638333Y-118636143D01*
X196396429Y-118696619D01*
X196275476Y-118757095D01*
X196215000Y-118817571D01*
X196154524Y-118938524D01*
X197424524Y-120571381D02*
X197424524Y-119845667D01*
X197424524Y-120208524D02*
X196154524Y-120208524D01*
X196335952Y-120087572D01*
X196456905Y-119966619D01*
X196517381Y-119845667D01*
X170881524Y-116471095D02*
X169611524Y-116471095D01*
X169611524Y-116773476D01*
X169672000Y-116954904D01*
X169792952Y-117075857D01*
X169913905Y-117136333D01*
X170155810Y-117196809D01*
X170337238Y-117196809D01*
X170579143Y-117136333D01*
X170700095Y-117075857D01*
X170821048Y-116954904D01*
X170881524Y-116773476D01*
X170881524Y-116471095D01*
X169611524Y-117620143D02*
X169611524Y-118406333D01*
X170095333Y-117983000D01*
X170095333Y-118164428D01*
X170155810Y-118285381D01*
X170216286Y-118345857D01*
X170337238Y-118406333D01*
X170639619Y-118406333D01*
X170760571Y-118345857D01*
X170821048Y-118285381D01*
X170881524Y-118164428D01*
X170881524Y-117801571D01*
X170821048Y-117680619D01*
X170760571Y-117620143D01*
X169611524Y-119192524D02*
X169611524Y-119313476D01*
X169672000Y-119434428D01*
X169732476Y-119494905D01*
X169853429Y-119555381D01*
X170095333Y-119615857D01*
X170397714Y-119615857D01*
X170639619Y-119555381D01*
X170760571Y-119494905D01*
X170821048Y-119434428D01*
X170881524Y-119313476D01*
X170881524Y-119192524D01*
X170821048Y-119071571D01*
X170760571Y-119011095D01*
X170639619Y-118950619D01*
X170397714Y-118890143D01*
X170095333Y-118890143D01*
X169853429Y-118950619D01*
X169732476Y-119011095D01*
X169672000Y-119071571D01*
X169611524Y-119192524D01*
X169732476Y-120099667D02*
X169672000Y-120160143D01*
X169611524Y-120281095D01*
X169611524Y-120583476D01*
X169672000Y-120704429D01*
X169732476Y-120764905D01*
X169853429Y-120825381D01*
X169974381Y-120825381D01*
X170155810Y-120764905D01*
X170881524Y-120039191D01*
X170881524Y-120825381D01*
X134178524Y-94844809D02*
X133573762Y-94421476D01*
X134178524Y-94119095D02*
X132908524Y-94119095D01*
X132908524Y-94602904D01*
X132969000Y-94723857D01*
X133029476Y-94784333D01*
X133150429Y-94844809D01*
X133331857Y-94844809D01*
X133452810Y-94784333D01*
X133513286Y-94723857D01*
X133573762Y-94602904D01*
X133573762Y-94119095D01*
X133029476Y-95328619D02*
X132969000Y-95389095D01*
X132908524Y-95510047D01*
X132908524Y-95812428D01*
X132969000Y-95933381D01*
X133029476Y-95993857D01*
X133150429Y-96054333D01*
X133271381Y-96054333D01*
X133452810Y-95993857D01*
X134178524Y-95268143D01*
X134178524Y-96054333D01*
X132908524Y-96840524D02*
X132908524Y-96961476D01*
X132969000Y-97082428D01*
X133029476Y-97142905D01*
X133150429Y-97203381D01*
X133392333Y-97263857D01*
X133694714Y-97263857D01*
X133936619Y-97203381D01*
X134057571Y-97142905D01*
X134118048Y-97082428D01*
X134178524Y-96961476D01*
X134178524Y-96840524D01*
X134118048Y-96719571D01*
X134057571Y-96659095D01*
X133936619Y-96598619D01*
X133694714Y-96538143D01*
X133392333Y-96538143D01*
X133150429Y-96598619D01*
X133029476Y-96659095D01*
X132969000Y-96719571D01*
X132908524Y-96840524D01*
X134178524Y-98473381D02*
X134178524Y-97747667D01*
X134178524Y-98110524D02*
X132908524Y-98110524D01*
X133089952Y-97989572D01*
X133210905Y-97868619D01*
X133271381Y-97747667D01*
X138750524Y-79495809D02*
X138145762Y-79072476D01*
X138750524Y-78770095D02*
X137480524Y-78770095D01*
X137480524Y-79253904D01*
X137541000Y-79374857D01*
X137601476Y-79435333D01*
X137722429Y-79495809D01*
X137903857Y-79495809D01*
X138024810Y-79435333D01*
X138085286Y-79374857D01*
X138145762Y-79253904D01*
X138145762Y-78770095D01*
X137601476Y-79979619D02*
X137541000Y-80040095D01*
X137480524Y-80161047D01*
X137480524Y-80463428D01*
X137541000Y-80584381D01*
X137601476Y-80644857D01*
X137722429Y-80705333D01*
X137843381Y-80705333D01*
X138024810Y-80644857D01*
X138750524Y-79919143D01*
X138750524Y-80705333D01*
X137480524Y-81491524D02*
X137480524Y-81612476D01*
X137541000Y-81733428D01*
X137601476Y-81793905D01*
X137722429Y-81854381D01*
X137964333Y-81914857D01*
X138266714Y-81914857D01*
X138508619Y-81854381D01*
X138629571Y-81793905D01*
X138690048Y-81733428D01*
X138750524Y-81612476D01*
X138750524Y-81491524D01*
X138690048Y-81370571D01*
X138629571Y-81310095D01*
X138508619Y-81249619D01*
X138266714Y-81189143D01*
X137964333Y-81189143D01*
X137722429Y-81249619D01*
X137601476Y-81310095D01*
X137541000Y-81370571D01*
X137480524Y-81491524D01*
X137480524Y-82338191D02*
X137480524Y-83124381D01*
X137964333Y-82701048D01*
X137964333Y-82882476D01*
X138024810Y-83003429D01*
X138085286Y-83063905D01*
X138206238Y-83124381D01*
X138508619Y-83124381D01*
X138629571Y-83063905D01*
X138690048Y-83003429D01*
X138750524Y-82882476D01*
X138750524Y-82519619D01*
X138690048Y-82398667D01*
X138629571Y-82338191D01*
X169230524Y-81763809D02*
X168625762Y-81340476D01*
X169230524Y-81038095D02*
X167960524Y-81038095D01*
X167960524Y-81521904D01*
X168021000Y-81642857D01*
X168081476Y-81703333D01*
X168202429Y-81763809D01*
X168383857Y-81763809D01*
X168504810Y-81703333D01*
X168565286Y-81642857D01*
X168625762Y-81521904D01*
X168625762Y-81038095D01*
X167960524Y-82187143D02*
X167960524Y-82973333D01*
X168444333Y-82550000D01*
X168444333Y-82731428D01*
X168504810Y-82852381D01*
X168565286Y-82912857D01*
X168686238Y-82973333D01*
X168988619Y-82973333D01*
X169109571Y-82912857D01*
X169170048Y-82852381D01*
X169230524Y-82731428D01*
X169230524Y-82368571D01*
X169170048Y-82247619D01*
X169109571Y-82187143D01*
X167960524Y-83759524D02*
X167960524Y-83880476D01*
X168021000Y-84001428D01*
X168081476Y-84061905D01*
X168202429Y-84122381D01*
X168444333Y-84182857D01*
X168746714Y-84182857D01*
X168988619Y-84122381D01*
X169109571Y-84061905D01*
X169170048Y-84001428D01*
X169230524Y-83880476D01*
X169230524Y-83759524D01*
X169170048Y-83638571D01*
X169109571Y-83578095D01*
X168988619Y-83517619D01*
X168746714Y-83457143D01*
X168444333Y-83457143D01*
X168202429Y-83517619D01*
X168081476Y-83578095D01*
X168021000Y-83638571D01*
X167960524Y-83759524D01*
X167960524Y-85271429D02*
X167960524Y-85029524D01*
X168021000Y-84908572D01*
X168081476Y-84848095D01*
X168262905Y-84727143D01*
X168504810Y-84666667D01*
X168988619Y-84666667D01*
X169109571Y-84727143D01*
X169170048Y-84787619D01*
X169230524Y-84908572D01*
X169230524Y-85150476D01*
X169170048Y-85271429D01*
X169109571Y-85331905D01*
X168988619Y-85392381D01*
X168686238Y-85392381D01*
X168565286Y-85331905D01*
X168504810Y-85271429D01*
X168444333Y-85150476D01*
X168444333Y-84908572D01*
X168504810Y-84787619D01*
X168565286Y-84727143D01*
X168686238Y-84666667D01*
X176723524Y-73889809D02*
X176118762Y-73466476D01*
X176723524Y-73164095D02*
X175453524Y-73164095D01*
X175453524Y-73647904D01*
X175514000Y-73768857D01*
X175574476Y-73829333D01*
X175695429Y-73889809D01*
X175876857Y-73889809D01*
X175997810Y-73829333D01*
X176058286Y-73768857D01*
X176118762Y-73647904D01*
X176118762Y-73164095D01*
X175876857Y-74978381D02*
X176723524Y-74978381D01*
X175393048Y-74676000D02*
X176300190Y-74373619D01*
X176300190Y-75159809D01*
X175453524Y-75885524D02*
X175453524Y-76006476D01*
X175514000Y-76127428D01*
X175574476Y-76187905D01*
X175695429Y-76248381D01*
X175937333Y-76308857D01*
X176239714Y-76308857D01*
X176481619Y-76248381D01*
X176602571Y-76187905D01*
X176663048Y-76127428D01*
X176723524Y-76006476D01*
X176723524Y-75885524D01*
X176663048Y-75764571D01*
X176602571Y-75704095D01*
X176481619Y-75643619D01*
X176239714Y-75583143D01*
X175937333Y-75583143D01*
X175695429Y-75643619D01*
X175574476Y-75704095D01*
X175514000Y-75764571D01*
X175453524Y-75885524D01*
X176723524Y-77518381D02*
X176723524Y-76792667D01*
X176723524Y-77155524D02*
X175453524Y-77155524D01*
X175634952Y-77034572D01*
X175755905Y-76913619D01*
X175816381Y-76792667D01*
X190778191Y-77282524D02*
X191201524Y-76677762D01*
X191503905Y-77282524D02*
X191503905Y-76012524D01*
X191020096Y-76012524D01*
X190899143Y-76073000D01*
X190838667Y-76133476D01*
X190778191Y-76254429D01*
X190778191Y-76435857D01*
X190838667Y-76556810D01*
X190899143Y-76617286D01*
X191020096Y-76677762D01*
X191503905Y-76677762D01*
X189689619Y-76435857D02*
X189689619Y-77282524D01*
X189992000Y-75952048D02*
X190294381Y-76859190D01*
X189508191Y-76859190D01*
X188782476Y-76012524D02*
X188661524Y-76012524D01*
X188540572Y-76073000D01*
X188480095Y-76133476D01*
X188419619Y-76254429D01*
X188359143Y-76496333D01*
X188359143Y-76798714D01*
X188419619Y-77040619D01*
X188480095Y-77161571D01*
X188540572Y-77222048D01*
X188661524Y-77282524D01*
X188782476Y-77282524D01*
X188903429Y-77222048D01*
X188963905Y-77161571D01*
X189024381Y-77040619D01*
X189084857Y-76798714D01*
X189084857Y-76496333D01*
X189024381Y-76254429D01*
X188963905Y-76133476D01*
X188903429Y-76073000D01*
X188782476Y-76012524D01*
X187875333Y-76133476D02*
X187814857Y-76073000D01*
X187693905Y-76012524D01*
X187391524Y-76012524D01*
X187270571Y-76073000D01*
X187210095Y-76133476D01*
X187149619Y-76254429D01*
X187149619Y-76375381D01*
X187210095Y-76556810D01*
X187935809Y-77282524D01*
X187149619Y-77282524D01*
X174437524Y-63475809D02*
X173832762Y-63052476D01*
X174437524Y-62750095D02*
X173167524Y-62750095D01*
X173167524Y-63233904D01*
X173228000Y-63354857D01*
X173288476Y-63415333D01*
X173409429Y-63475809D01*
X173590857Y-63475809D01*
X173711810Y-63415333D01*
X173772286Y-63354857D01*
X173832762Y-63233904D01*
X173832762Y-62750095D01*
X173590857Y-64564381D02*
X174437524Y-64564381D01*
X173107048Y-64262000D02*
X174014190Y-63959619D01*
X174014190Y-64745809D01*
X173167524Y-65471524D02*
X173167524Y-65592476D01*
X173228000Y-65713428D01*
X173288476Y-65773905D01*
X173409429Y-65834381D01*
X173651333Y-65894857D01*
X173953714Y-65894857D01*
X174195619Y-65834381D01*
X174316571Y-65773905D01*
X174377048Y-65713428D01*
X174437524Y-65592476D01*
X174437524Y-65471524D01*
X174377048Y-65350571D01*
X174316571Y-65290095D01*
X174195619Y-65229619D01*
X173953714Y-65169143D01*
X173651333Y-65169143D01*
X173409429Y-65229619D01*
X173288476Y-65290095D01*
X173228000Y-65350571D01*
X173167524Y-65471524D01*
X173167524Y-66318191D02*
X173167524Y-67104381D01*
X173651333Y-66681048D01*
X173651333Y-66862476D01*
X173711810Y-66983429D01*
X173772286Y-67043905D01*
X173893238Y-67104381D01*
X174195619Y-67104381D01*
X174316571Y-67043905D01*
X174377048Y-66983429D01*
X174437524Y-66862476D01*
X174437524Y-66499619D01*
X174377048Y-66378667D01*
X174316571Y-66318191D01*
X155514524Y-105258809D02*
X154909762Y-104835476D01*
X155514524Y-104533095D02*
X154244524Y-104533095D01*
X154244524Y-105016904D01*
X154305000Y-105137857D01*
X154365476Y-105198333D01*
X154486429Y-105258809D01*
X154667857Y-105258809D01*
X154788810Y-105198333D01*
X154849286Y-105137857D01*
X154909762Y-105016904D01*
X154909762Y-104533095D01*
X154244524Y-106407857D02*
X154244524Y-105803095D01*
X154849286Y-105742619D01*
X154788810Y-105803095D01*
X154728333Y-105924047D01*
X154728333Y-106226428D01*
X154788810Y-106347381D01*
X154849286Y-106407857D01*
X154970238Y-106468333D01*
X155272619Y-106468333D01*
X155393571Y-106407857D01*
X155454048Y-106347381D01*
X155514524Y-106226428D01*
X155514524Y-105924047D01*
X155454048Y-105803095D01*
X155393571Y-105742619D01*
X154244524Y-107254524D02*
X154244524Y-107375476D01*
X154305000Y-107496428D01*
X154365476Y-107556905D01*
X154486429Y-107617381D01*
X154728333Y-107677857D01*
X155030714Y-107677857D01*
X155272619Y-107617381D01*
X155393571Y-107556905D01*
X155454048Y-107496428D01*
X155514524Y-107375476D01*
X155514524Y-107254524D01*
X155454048Y-107133571D01*
X155393571Y-107073095D01*
X155272619Y-107012619D01*
X155030714Y-106952143D01*
X154728333Y-106952143D01*
X154486429Y-107012619D01*
X154365476Y-107073095D01*
X154305000Y-107133571D01*
X154244524Y-107254524D01*
X154788810Y-108403572D02*
X154728333Y-108282619D01*
X154667857Y-108222143D01*
X154546905Y-108161667D01*
X154486429Y-108161667D01*
X154365476Y-108222143D01*
X154305000Y-108282619D01*
X154244524Y-108403572D01*
X154244524Y-108645476D01*
X154305000Y-108766429D01*
X154365476Y-108826905D01*
X154486429Y-108887381D01*
X154546905Y-108887381D01*
X154667857Y-108826905D01*
X154728333Y-108766429D01*
X154788810Y-108645476D01*
X154788810Y-108403572D01*
X154849286Y-108282619D01*
X154909762Y-108222143D01*
X155030714Y-108161667D01*
X155272619Y-108161667D01*
X155393571Y-108222143D01*
X155454048Y-108282619D01*
X155514524Y-108403572D01*
X155514524Y-108645476D01*
X155454048Y-108766429D01*
X155393571Y-108826905D01*
X155272619Y-108887381D01*
X155030714Y-108887381D01*
X154909762Y-108826905D01*
X154849286Y-108766429D01*
X154788810Y-108645476D01*
X158181524Y-105258809D02*
X157576762Y-104835476D01*
X158181524Y-104533095D02*
X156911524Y-104533095D01*
X156911524Y-105016904D01*
X156972000Y-105137857D01*
X157032476Y-105198333D01*
X157153429Y-105258809D01*
X157334857Y-105258809D01*
X157455810Y-105198333D01*
X157516286Y-105137857D01*
X157576762Y-105016904D01*
X157576762Y-104533095D01*
X156911524Y-106407857D02*
X156911524Y-105803095D01*
X157516286Y-105742619D01*
X157455810Y-105803095D01*
X157395333Y-105924047D01*
X157395333Y-106226428D01*
X157455810Y-106347381D01*
X157516286Y-106407857D01*
X157637238Y-106468333D01*
X157939619Y-106468333D01*
X158060571Y-106407857D01*
X158121048Y-106347381D01*
X158181524Y-106226428D01*
X158181524Y-105924047D01*
X158121048Y-105803095D01*
X158060571Y-105742619D01*
X156911524Y-107254524D02*
X156911524Y-107375476D01*
X156972000Y-107496428D01*
X157032476Y-107556905D01*
X157153429Y-107617381D01*
X157395333Y-107677857D01*
X157697714Y-107677857D01*
X157939619Y-107617381D01*
X158060571Y-107556905D01*
X158121048Y-107496428D01*
X158181524Y-107375476D01*
X158181524Y-107254524D01*
X158121048Y-107133571D01*
X158060571Y-107073095D01*
X157939619Y-107012619D01*
X157697714Y-106952143D01*
X157395333Y-106952143D01*
X157153429Y-107012619D01*
X157032476Y-107073095D01*
X156972000Y-107133571D01*
X156911524Y-107254524D01*
X158181524Y-108282619D02*
X158181524Y-108524524D01*
X158121048Y-108645476D01*
X158060571Y-108705952D01*
X157879143Y-108826905D01*
X157637238Y-108887381D01*
X157153429Y-108887381D01*
X157032476Y-108826905D01*
X156972000Y-108766429D01*
X156911524Y-108645476D01*
X156911524Y-108403572D01*
X156972000Y-108282619D01*
X157032476Y-108222143D01*
X157153429Y-108161667D01*
X157455810Y-108161667D01*
X157576762Y-108222143D01*
X157637238Y-108282619D01*
X157697714Y-108403572D01*
X157697714Y-108645476D01*
X157637238Y-108766429D01*
X157576762Y-108826905D01*
X157455810Y-108887381D01*
X160848524Y-105258809D02*
X160243762Y-104835476D01*
X160848524Y-104533095D02*
X159578524Y-104533095D01*
X159578524Y-105016904D01*
X159639000Y-105137857D01*
X159699476Y-105198333D01*
X159820429Y-105258809D01*
X160001857Y-105258809D01*
X160122810Y-105198333D01*
X160183286Y-105137857D01*
X160243762Y-105016904D01*
X160243762Y-104533095D01*
X159578524Y-106407857D02*
X159578524Y-105803095D01*
X160183286Y-105742619D01*
X160122810Y-105803095D01*
X160062333Y-105924047D01*
X160062333Y-106226428D01*
X160122810Y-106347381D01*
X160183286Y-106407857D01*
X160304238Y-106468333D01*
X160606619Y-106468333D01*
X160727571Y-106407857D01*
X160788048Y-106347381D01*
X160848524Y-106226428D01*
X160848524Y-105924047D01*
X160788048Y-105803095D01*
X160727571Y-105742619D01*
X160848524Y-107677857D02*
X160848524Y-106952143D01*
X160848524Y-107315000D02*
X159578524Y-107315000D01*
X159759952Y-107194048D01*
X159880905Y-107073095D01*
X159941381Y-106952143D01*
X159578524Y-108464048D02*
X159578524Y-108585000D01*
X159639000Y-108705952D01*
X159699476Y-108766429D01*
X159820429Y-108826905D01*
X160062333Y-108887381D01*
X160364714Y-108887381D01*
X160606619Y-108826905D01*
X160727571Y-108766429D01*
X160788048Y-108705952D01*
X160848524Y-108585000D01*
X160848524Y-108464048D01*
X160788048Y-108343095D01*
X160727571Y-108282619D01*
X160606619Y-108222143D01*
X160364714Y-108161667D01*
X160062333Y-108161667D01*
X159820429Y-108222143D01*
X159699476Y-108282619D01*
X159639000Y-108343095D01*
X159578524Y-108464048D01*
X166667524Y-91802857D02*
X167695619Y-91802857D01*
X167816571Y-91863333D01*
X167877048Y-91923809D01*
X167937524Y-92044762D01*
X167937524Y-92286666D01*
X167877048Y-92407619D01*
X167816571Y-92468095D01*
X167695619Y-92528571D01*
X166667524Y-92528571D01*
X167090857Y-93677619D02*
X167937524Y-93677619D01*
X166607048Y-93375238D02*
X167514190Y-93072857D01*
X167514190Y-93859047D01*
X166667524Y-94584762D02*
X166667524Y-94705714D01*
X166728000Y-94826666D01*
X166788476Y-94887143D01*
X166909429Y-94947619D01*
X167151333Y-95008095D01*
X167453714Y-95008095D01*
X167695619Y-94947619D01*
X167816571Y-94887143D01*
X167877048Y-94826666D01*
X167937524Y-94705714D01*
X167937524Y-94584762D01*
X167877048Y-94463809D01*
X167816571Y-94403333D01*
X167695619Y-94342857D01*
X167453714Y-94282381D01*
X167151333Y-94282381D01*
X166909429Y-94342857D01*
X166788476Y-94403333D01*
X166728000Y-94463809D01*
X166667524Y-94584762D01*
X166788476Y-95491905D02*
X166728000Y-95552381D01*
X166667524Y-95673333D01*
X166667524Y-95975714D01*
X166728000Y-96096667D01*
X166788476Y-96157143D01*
X166909429Y-96217619D01*
X167030381Y-96217619D01*
X167211810Y-96157143D01*
X167937524Y-95431429D01*
X167937524Y-96217619D01*
X128977571Y-93701809D02*
X129038048Y-93641333D01*
X129098524Y-93459904D01*
X129098524Y-93338952D01*
X129038048Y-93157524D01*
X128917095Y-93036571D01*
X128796143Y-92976095D01*
X128554238Y-92915619D01*
X128372810Y-92915619D01*
X128130905Y-92976095D01*
X128009952Y-93036571D01*
X127889000Y-93157524D01*
X127828524Y-93338952D01*
X127828524Y-93459904D01*
X127889000Y-93641333D01*
X127949476Y-93701809D01*
X127949476Y-94185619D02*
X127889000Y-94246095D01*
X127828524Y-94367047D01*
X127828524Y-94669428D01*
X127889000Y-94790381D01*
X127949476Y-94850857D01*
X128070429Y-94911333D01*
X128191381Y-94911333D01*
X128372810Y-94850857D01*
X129098524Y-94125143D01*
X129098524Y-94911333D01*
X129098524Y-96120857D02*
X129098524Y-95395143D01*
X129098524Y-95758000D02*
X127828524Y-95758000D01*
X128009952Y-95637048D01*
X128130905Y-95516095D01*
X128191381Y-95395143D01*
X127828524Y-96907048D02*
X127828524Y-97028000D01*
X127889000Y-97148952D01*
X127949476Y-97209429D01*
X128070429Y-97269905D01*
X128312333Y-97330381D01*
X128614714Y-97330381D01*
X128856619Y-97269905D01*
X128977571Y-97209429D01*
X129038048Y-97148952D01*
X129098524Y-97028000D01*
X129098524Y-96907048D01*
X129038048Y-96786095D01*
X128977571Y-96725619D01*
X128856619Y-96665143D01*
X128614714Y-96604667D01*
X128312333Y-96604667D01*
X128070429Y-96665143D01*
X127949476Y-96725619D01*
X127889000Y-96786095D01*
X127828524Y-96907048D01*
M02*
