G04 #@! TF.FileFunction,Copper,L1,Top,Signal*
%FSLAX46Y46*%
G04 Gerber Fmt 4.6, Leading zero omitted, Abs format (unit mm)*
G04 Created by KiCad (PCBNEW 4.0.5+dfsg1-4) date Wed Aug 23 12:04:20 2017*
%MOMM*%
%LPD*%
G01*
G04 APERTURE LIST*
%ADD10C,0.100000*%
%ADD11R,1.400000X1.500000*%
%ADD12R,1.600000X1.900000*%
%ADD13R,1.500000X1.400000*%
%ADD14R,1.000000X1.500000*%
%ADD15R,2.000000X2.000000*%
%ADD16C,2.000000*%
%ADD17R,1.300000X2.000000*%
%ADD18R,4.000000X2.000000*%
%ADD19R,2.000000X4.000000*%
%ADD20R,1.400000X1.000000*%
%ADD21R,1.500000X0.350000*%
%ADD22R,2.000000X0.750000*%
%ADD23R,1.000000X2.250000*%
%ADD24R,3.500000X2.250000*%
%ADD25R,0.300000X1.500000*%
%ADD26R,1.500000X0.300000*%
%ADD27R,1.600000X2.000000*%
%ADD28R,6.600000X2.500000*%
%ADD29C,2.500000*%
%ADD30R,2.500000X2.500000*%
%ADD31C,3.508000*%
%ADD32R,1.800000X1.800000*%
%ADD33C,1.800000*%
%ADD34R,0.300000X2.000000*%
%ADD35C,4.000000*%
%ADD36C,1.016000*%
%ADD37C,0.254000*%
%ADD38C,0.203200*%
%ADD39C,0.508000*%
%ADD40C,2.032000*%
G04 APERTURE END LIST*
D10*
D11*
X166116000Y-78867000D03*
X168166000Y-78867000D03*
D12*
X192988000Y-93853000D03*
X196088000Y-93853000D03*
X192988000Y-91059000D03*
X196088000Y-91059000D03*
D13*
X175260000Y-92946000D03*
X175260000Y-94996000D03*
X172720000Y-92946000D03*
X172720000Y-94996000D03*
X169926000Y-92946000D03*
X169926000Y-94996000D03*
X174752000Y-69832000D03*
X174752000Y-71882000D03*
D11*
X124823000Y-115316000D03*
X126873000Y-115316000D03*
X127018000Y-106426000D03*
X124968000Y-106426000D03*
D13*
X148844000Y-118618000D03*
X148844000Y-116568000D03*
X129159000Y-116586000D03*
X129159000Y-118636000D03*
X118999000Y-91331000D03*
X118999000Y-89281000D03*
D14*
X188849000Y-78688000D03*
X188849000Y-81788000D03*
D13*
X154900596Y-112576082D03*
X154900596Y-110526082D03*
X157607000Y-112540000D03*
X157607000Y-110490000D03*
X160274000Y-112540000D03*
X160274000Y-110490000D03*
D15*
X111760000Y-114935000D03*
D16*
X111760000Y-117475000D03*
X111760000Y-120015000D03*
D12*
X185876000Y-71374000D03*
X188976000Y-71374000D03*
X192988000Y-88265000D03*
X196088000Y-88265000D03*
X186003000Y-66294000D03*
X189103000Y-66294000D03*
D13*
X135890000Y-82786000D03*
X135890000Y-84836000D03*
X135890000Y-73297000D03*
X135890000Y-71247000D03*
D11*
X129304000Y-73660000D03*
X127254000Y-73660000D03*
D13*
X132461000Y-95141000D03*
X132461000Y-97191000D03*
X129794000Y-95141000D03*
X129794000Y-97191000D03*
X127127000Y-95123000D03*
X127127000Y-97173000D03*
X133223000Y-71229000D03*
X133223000Y-73279000D03*
X123190000Y-74785000D03*
X123190000Y-76835000D03*
D11*
X191897000Y-100457000D03*
X189847000Y-100457000D03*
D13*
X157734000Y-89426000D03*
X157734000Y-87376000D03*
X170815000Y-83584000D03*
X170815000Y-81534000D03*
D12*
X182574000Y-89281000D03*
X185674000Y-89281000D03*
D13*
X154940000Y-87358000D03*
X154940000Y-89408000D03*
X167005000Y-100330000D03*
X167005000Y-98280000D03*
X129794000Y-110744000D03*
X129794000Y-112794000D03*
D11*
X141968000Y-112522000D03*
X144018000Y-112522000D03*
X111869000Y-65659000D03*
X113919000Y-65659000D03*
D13*
X119507000Y-75692000D03*
X119507000Y-77742000D03*
X111633000Y-91313000D03*
X111633000Y-93363000D03*
D11*
X114173000Y-91313000D03*
X116223000Y-91313000D03*
X118981000Y-120015000D03*
X121031000Y-120015000D03*
X116949000Y-117475000D03*
X118999000Y-117475000D03*
D17*
X116423000Y-68517000D03*
X111923000Y-68517000D03*
X111923000Y-76517000D03*
X116423000Y-76517000D03*
X116423000Y-80582000D03*
X111923000Y-80582000D03*
X111923000Y-88582000D03*
X116423000Y-88582000D03*
D18*
X141670000Y-89027000D03*
X141670000Y-85598000D03*
D19*
X160782000Y-88330000D03*
X188722000Y-90362000D03*
X160655000Y-77532000D03*
X179451000Y-90362000D03*
D18*
X179767000Y-71882000D03*
X200090000Y-88265000D03*
X179767000Y-67691000D03*
D19*
X183769000Y-113857000D03*
X166370000Y-89346000D03*
X164846000Y-66994000D03*
X153162000Y-66740000D03*
D20*
X138006000Y-88138000D03*
X135806000Y-89088000D03*
X135806000Y-87188000D03*
D21*
X133302000Y-76211000D03*
X133302000Y-76861000D03*
X133302000Y-77511000D03*
X133302000Y-78161000D03*
X133302000Y-78811000D03*
X133302000Y-79461000D03*
X133302000Y-80111000D03*
X133302000Y-80761000D03*
X127302000Y-78811000D03*
X127302000Y-79461000D03*
X127302000Y-80111000D03*
X127302000Y-80761000D03*
X127302000Y-78161000D03*
X127302000Y-77511000D03*
X127302000Y-76861000D03*
X127302000Y-76211000D03*
D22*
X160749000Y-81026000D03*
X160749000Y-82296000D03*
X160749000Y-83566000D03*
X160749000Y-84836000D03*
X166149000Y-81026000D03*
X166149000Y-82296000D03*
X166149000Y-83566000D03*
X166149000Y-84836000D03*
X180246000Y-84455000D03*
X180246000Y-83185000D03*
X180246000Y-81915000D03*
X180246000Y-80645000D03*
X174846000Y-84455000D03*
X174846000Y-83185000D03*
X174846000Y-81915000D03*
X174846000Y-80645000D03*
D23*
X171972000Y-71734000D03*
X169672000Y-71734000D03*
D24*
X169672000Y-65934000D03*
D23*
X167372000Y-71734000D03*
X160796000Y-71734000D03*
X158496000Y-71734000D03*
D24*
X158496000Y-65934000D03*
D23*
X156196000Y-71734000D03*
D25*
X139321000Y-107941000D03*
X139821000Y-107941000D03*
X140321000Y-107941000D03*
X140821000Y-107941000D03*
X141321000Y-107941000D03*
X141821000Y-107941000D03*
X142321000Y-107941000D03*
X142821000Y-107941000D03*
X143321000Y-107941000D03*
X143821000Y-107941000D03*
X144321000Y-107941000D03*
X144821000Y-107941000D03*
X145321000Y-107941000D03*
X145821000Y-107941000D03*
X146321000Y-107941000D03*
X146821000Y-107941000D03*
X146321000Y-96141000D03*
X145821000Y-96141000D03*
X145321000Y-96141000D03*
X144821000Y-96141000D03*
X144321000Y-96141000D03*
X143821000Y-96141000D03*
X143321000Y-96141000D03*
X142821000Y-96141000D03*
X142321000Y-96141000D03*
X141821000Y-96141000D03*
X141321000Y-96141000D03*
X140821000Y-96141000D03*
X140321000Y-96141000D03*
X139821000Y-96141000D03*
X139321000Y-96141000D03*
X146821000Y-96141000D03*
D26*
X148971000Y-105791000D03*
X148971000Y-105291000D03*
X148971000Y-104791000D03*
X148971000Y-104291000D03*
X148971000Y-103791000D03*
X148971000Y-103291000D03*
X148971000Y-102791000D03*
X148971000Y-102291000D03*
X148971000Y-101791000D03*
X148971000Y-101291000D03*
X148971000Y-100791000D03*
X148971000Y-100291000D03*
X148971000Y-99791000D03*
X148971000Y-99291000D03*
X148971000Y-98791000D03*
X148971000Y-98291000D03*
X137171000Y-98291000D03*
X137171000Y-98791000D03*
X137171000Y-99291000D03*
X137171000Y-99791000D03*
X137171000Y-100291000D03*
X137171000Y-100791000D03*
X137171000Y-101291000D03*
X137171000Y-101791000D03*
X137171000Y-102291000D03*
X137171000Y-102791000D03*
X137171000Y-103291000D03*
X137171000Y-103791000D03*
X137171000Y-104291000D03*
X137171000Y-104791000D03*
X137171000Y-105291000D03*
X137171000Y-105791000D03*
D27*
X127062000Y-109220000D03*
X121412000Y-109220000D03*
X121412000Y-112520000D03*
X127062000Y-112520000D03*
D28*
X143985000Y-116586000D03*
X133985000Y-116586000D03*
D29*
X140843000Y-80811000D03*
D30*
X140843000Y-75311000D03*
D31*
X140843000Y-68011000D03*
X191888000Y-116459000D03*
D29*
X191888000Y-103659000D03*
X196088000Y-103659000D03*
X200288000Y-103659000D03*
D30*
X200288000Y-109159000D03*
D29*
X196088000Y-109159000D03*
X191888000Y-109159000D03*
D31*
X200288000Y-116459000D03*
X166996000Y-116459000D03*
D29*
X166996000Y-103659000D03*
X171196000Y-103659000D03*
X175396000Y-103659000D03*
D30*
X175396000Y-109159000D03*
D29*
X171196000Y-109159000D03*
X166996000Y-109159000D03*
D31*
X175396000Y-116459000D03*
D32*
X193167000Y-84074000D03*
D33*
X193167000Y-81534000D03*
X193167000Y-78994000D03*
X193167000Y-73914000D03*
X193167000Y-71374000D03*
X193167000Y-68834000D03*
X193167000Y-66294000D03*
D18*
X179767000Y-63373000D03*
D11*
X133622000Y-82804000D03*
X131572000Y-82804000D03*
X127000000Y-82804000D03*
X129050000Y-82804000D03*
D34*
X131302000Y-91608000D03*
X130802000Y-91608000D03*
X129302000Y-87208000D03*
X130302000Y-91608000D03*
X129802000Y-91608000D03*
X129302000Y-91608000D03*
X129802000Y-87208000D03*
X130302000Y-87208000D03*
X130802000Y-87208000D03*
X131302000Y-87208000D03*
D29*
X179959000Y-100203000D03*
X185039000Y-100203000D03*
D13*
X151511000Y-80899000D03*
X151511000Y-78849000D03*
X146812000Y-80899000D03*
X146812000Y-78849000D03*
X151511000Y-76581000D03*
X151511000Y-74531000D03*
X146812000Y-76581000D03*
X146812000Y-74531000D03*
D35*
X207000000Y-64770000D03*
X207000000Y-118110000D03*
X106000000Y-118110000D03*
X106000000Y-64770000D03*
D15*
X111633000Y-96266000D03*
D16*
X111633000Y-98806000D03*
X111633000Y-101346000D03*
X111633000Y-103886000D03*
X111633000Y-106426000D03*
X111633000Y-108966000D03*
D15*
X149352000Y-66040000D03*
D16*
X149352000Y-68580000D03*
D36*
X151511000Y-82677000D03*
X146812000Y-82677000D03*
X144018000Y-75311000D03*
X147193000Y-105791000D03*
X144145000Y-105791000D03*
X153162000Y-98806000D03*
X139827000Y-98171000D03*
X136779000Y-90805000D03*
X123190000Y-106426000D03*
X122682000Y-115316000D03*
X131318000Y-119126000D03*
X146431000Y-119126000D03*
X175006000Y-67818000D03*
X167259000Y-74168000D03*
X155448000Y-74041000D03*
X158369000Y-80899000D03*
X115824000Y-70866000D03*
X123190000Y-72898000D03*
X118999000Y-87376000D03*
X132969000Y-105791000D03*
X135255000Y-78867000D03*
X128397000Y-85471000D03*
X133604000Y-87249000D03*
X131318000Y-80137000D03*
X135001000Y-75184000D03*
X131699000Y-78232000D03*
X125603000Y-85471000D03*
X121539000Y-84963000D03*
X150581349Y-87448651D03*
X148209000Y-87757000D03*
X145796000Y-89535000D03*
X139065000Y-91440000D03*
X162814000Y-75057000D03*
X153670000Y-84836000D03*
X158623000Y-84836000D03*
X169672000Y-74168000D03*
X125603000Y-73660000D03*
X133604000Y-93345000D03*
X131318000Y-84582000D03*
X129540000Y-84455000D03*
X131191000Y-74930000D03*
X168275000Y-84963000D03*
X172847000Y-83185000D03*
X169926000Y-97028000D03*
X178308000Y-94234000D03*
X166497000Y-96393000D03*
X164846000Y-112776000D03*
X166116000Y-77089000D03*
X191008000Y-93853000D03*
X188087000Y-100457000D03*
X171577000Y-116713000D03*
X175641000Y-78613000D03*
X197739000Y-117729000D03*
X172720000Y-117348000D03*
X195453000Y-117348000D03*
X173228000Y-118999000D03*
X168656000Y-82296000D03*
X175260000Y-98044000D03*
X196088006Y-95885000D03*
X186436000Y-81534000D03*
X157480000Y-73914000D03*
X139700016Y-92710000D03*
X150876030Y-96774000D03*
X145796000Y-105791000D03*
X151384000Y-105664000D03*
X136906000Y-96774000D03*
X117856000Y-94107000D03*
X120396000Y-94107000D03*
X114300000Y-79629000D03*
X114300000Y-77216000D03*
X116586000Y-97663000D03*
X117856000Y-99060000D03*
X119634000Y-101092000D03*
X122174000Y-102743000D03*
X125984000Y-104013000D03*
X149225000Y-94107000D03*
X149225000Y-90805000D03*
X134112000Y-107188000D03*
X138684000Y-109855000D03*
X148336000Y-113284000D03*
X153035000Y-100965000D03*
X118999000Y-96520000D03*
X122301000Y-99568000D03*
X122936000Y-120015000D03*
X186436000Y-78740000D03*
X154940000Y-114300000D03*
X157607000Y-114300000D03*
X160274000Y-114300000D03*
X135127996Y-97536000D03*
X120142000Y-97663000D03*
X136144000Y-95504000D03*
X121412000Y-96647000D03*
X131191000Y-101727000D03*
X122428000Y-101219000D03*
X137668000Y-80518000D03*
X172720000Y-84455000D03*
X134048500Y-102615999D03*
X134048500Y-98425006D03*
X153162000Y-89408000D03*
D37*
X151511000Y-80899000D02*
X151511000Y-82677000D01*
X146812000Y-80899000D02*
X146812000Y-82677000D01*
D38*
X142296200Y-75311000D02*
X144018000Y-75311000D01*
X140843000Y-75311000D02*
X142296200Y-75311000D01*
X148971000Y-105291000D02*
X147693000Y-105291000D01*
X147693000Y-105291000D02*
X147193000Y-105791000D01*
X144821000Y-107941000D02*
X144821000Y-106467000D01*
X144821000Y-106467000D02*
X144145000Y-105791000D01*
X148971000Y-98791000D02*
X153147000Y-98791000D01*
X153147000Y-98791000D02*
X153162000Y-98806000D01*
X139821000Y-96141000D02*
X139821000Y-98165000D01*
X139821000Y-98165000D02*
X139827000Y-98171000D01*
D39*
X135806000Y-89088000D02*
X135806000Y-89832000D01*
X135806000Y-89832000D02*
X136779000Y-90805000D01*
X124968000Y-106426000D02*
X123190000Y-106426000D01*
X124823000Y-115316000D02*
X122682000Y-115316000D01*
X129159000Y-118636000D02*
X130828000Y-118636000D01*
X130828000Y-118636000D02*
X131318000Y-119126000D01*
X148844000Y-118618000D02*
X146939000Y-118618000D01*
X146939000Y-118618000D02*
X146431000Y-119126000D01*
X174752000Y-69832000D02*
X174752000Y-68072000D01*
X174752000Y-68072000D02*
X175006000Y-67818000D01*
X167372000Y-71734000D02*
X167372000Y-74055000D01*
X167372000Y-74055000D02*
X167259000Y-74168000D01*
X156196000Y-71734000D02*
X156196000Y-73293000D01*
X156196000Y-73293000D02*
X155448000Y-74041000D01*
X160749000Y-81026000D02*
X158496000Y-81026000D01*
X158496000Y-81026000D02*
X158369000Y-80899000D01*
X116423000Y-68517000D02*
X116423000Y-70267000D01*
X116423000Y-70267000D02*
X115824000Y-70866000D01*
X123190000Y-74785000D02*
X123190000Y-72898000D01*
X116423000Y-88582000D02*
X118300000Y-88582000D01*
X118300000Y-88582000D02*
X118999000Y-89281000D01*
X118999000Y-89281000D02*
X118999000Y-87376000D01*
D38*
X136209800Y-105283000D02*
X133477000Y-105283000D01*
X133477000Y-105283000D02*
X132969000Y-105791000D01*
X137171000Y-105291000D02*
X136217800Y-105291000D01*
X136217800Y-105291000D02*
X136209800Y-105283000D01*
D37*
X135199000Y-78811000D02*
X135255000Y-78867000D01*
X133302000Y-78811000D02*
X135199000Y-78811000D01*
X137515000Y-76861000D02*
X139065000Y-75311000D01*
X139065000Y-75311000D02*
X140843000Y-75311000D01*
X133302000Y-76861000D02*
X137515000Y-76861000D01*
X129802000Y-87208000D02*
X129802000Y-85606000D01*
X129802000Y-85606000D02*
X129667000Y-85471000D01*
X129667000Y-85471000D02*
X129286000Y-85471000D01*
X129286000Y-85471000D02*
X128397000Y-85471000D01*
X129286000Y-85471000D02*
X129302000Y-85487000D01*
X129302000Y-85487000D02*
X129302000Y-87208000D01*
X135806000Y-87188000D02*
X139004000Y-87188000D01*
X139004000Y-87188000D02*
X140843000Y-89027000D01*
X140843000Y-89027000D02*
X140970000Y-89027000D01*
X135890000Y-84836000D02*
X135890000Y-87104000D01*
X135890000Y-87104000D02*
X135806000Y-87188000D01*
X133604000Y-87249000D02*
X131343000Y-87249000D01*
X131343000Y-87249000D02*
X131302000Y-87208000D01*
X133604000Y-87249000D02*
X135745000Y-87249000D01*
X135745000Y-87249000D02*
X135806000Y-87188000D01*
X129304000Y-79393000D02*
X130048000Y-80137000D01*
X130048000Y-80137000D02*
X131318000Y-80137000D01*
X129304000Y-73660000D02*
X129304000Y-79393000D01*
X133302000Y-79461000D02*
X131994000Y-79461000D01*
X131994000Y-79461000D02*
X131318000Y-80137000D01*
X135001000Y-75184000D02*
X135001000Y-74186000D01*
X135001000Y-74186000D02*
X135890000Y-73297000D01*
X133302000Y-78161000D02*
X131770000Y-78161000D01*
X131770000Y-78161000D02*
X131699000Y-78232000D01*
X151511000Y-74531000D02*
X153525000Y-74531000D01*
X153525000Y-74531000D02*
X156210000Y-77216000D01*
X156210000Y-77216000D02*
X155702000Y-77724000D01*
D39*
X153670000Y-79756000D02*
X155702000Y-77724000D01*
X155702000Y-77724000D02*
X160796000Y-72630000D01*
X132588000Y-89535000D02*
X133604000Y-90551000D01*
X133604000Y-90551000D02*
X133604000Y-93345000D01*
X128948580Y-89535000D02*
X132588000Y-89535000D01*
X125603000Y-85471000D02*
X125603000Y-86189420D01*
X125603000Y-86189420D02*
X128948580Y-89535000D01*
X121412000Y-71882000D02*
X121412000Y-84836000D01*
X121412000Y-84836000D02*
X121539000Y-84963000D01*
X122174000Y-71120000D02*
X121412000Y-71882000D01*
X123781420Y-71120000D02*
X122174000Y-71120000D01*
X125603000Y-73660000D02*
X125603000Y-72941580D01*
X125603000Y-72941580D02*
X123781420Y-71120000D01*
X150581349Y-87448651D02*
X151057349Y-87448651D01*
X151057349Y-87448651D02*
X153670000Y-84836000D01*
X145796000Y-89535000D02*
X146431000Y-89535000D01*
X146431000Y-89535000D02*
X148209000Y-87757000D01*
X137160000Y-93345000D02*
X139065000Y-91440000D01*
X134322420Y-93345000D02*
X137160000Y-93345000D01*
X133604000Y-93345000D02*
X134322420Y-93345000D01*
X153670000Y-84836000D02*
X153670000Y-79756000D01*
X160796000Y-72630000D02*
X160796000Y-71734000D01*
X162814000Y-75057000D02*
X162560000Y-74803000D01*
X162560000Y-74803000D02*
X162560000Y-71882000D01*
X162560000Y-71882000D02*
X162412000Y-71734000D01*
X162412000Y-71734000D02*
X160796000Y-71734000D01*
X160796000Y-71734000D02*
X162560000Y-71734000D01*
X162560000Y-71734000D02*
X162560000Y-67183000D01*
X162560000Y-67183000D02*
X163449000Y-66294000D01*
X163449000Y-66294000D02*
X164846000Y-66294000D01*
X160749000Y-84836000D02*
X158623000Y-84836000D01*
X169672000Y-74168000D02*
X169672000Y-71734000D01*
X169672000Y-71734000D02*
X169672000Y-65934000D01*
X169672000Y-65934000D02*
X165206000Y-65934000D01*
X165206000Y-65934000D02*
X164846000Y-66294000D01*
D37*
X127254000Y-73660000D02*
X127254000Y-76163000D01*
X127254000Y-76163000D02*
X127302000Y-76211000D01*
X125603000Y-73660000D02*
X127254000Y-73660000D01*
D38*
X131302000Y-91608000D02*
X131302000Y-93176590D01*
X131302000Y-93176590D02*
X131318000Y-93192590D01*
X130937000Y-93192590D02*
X131318000Y-93192590D01*
X131318000Y-93192590D02*
X133451590Y-93192590D01*
X133451590Y-93192590D02*
X133604000Y-93345000D01*
X130802000Y-93057590D02*
X130937000Y-93192590D01*
X130802000Y-91608000D02*
X130802000Y-93057590D01*
D37*
X130802000Y-87208000D02*
X130802000Y-85098000D01*
X130802000Y-85098000D02*
X131572000Y-84328000D01*
X131572000Y-84328000D02*
X131572000Y-82804000D01*
X130302000Y-85217000D02*
X129540000Y-84455000D01*
X129050000Y-82804000D02*
X129050000Y-83965000D01*
X129050000Y-83965000D02*
X129540000Y-84455000D01*
X129540000Y-83294000D02*
X129050000Y-82804000D01*
X130302000Y-87208000D02*
X130302000Y-85217000D01*
X133223000Y-73279000D02*
X133173000Y-73279000D01*
X133173000Y-73279000D02*
X131522000Y-74930000D01*
X131522000Y-74930000D02*
X131191000Y-74930000D01*
X133302000Y-76211000D02*
X133302000Y-73358000D01*
X133302000Y-73358000D02*
X133223000Y-73279000D01*
D38*
X166149000Y-84836000D02*
X168148000Y-84836000D01*
X168148000Y-84836000D02*
X168275000Y-84963000D01*
X172847000Y-83185000D02*
X174846000Y-83185000D01*
D39*
X177038000Y-85725000D02*
X174117000Y-88646000D01*
X174117000Y-88646000D02*
X166370000Y-88646000D01*
X177038000Y-83869000D02*
X177038000Y-85725000D01*
X174846000Y-83185000D02*
X176354000Y-83185000D01*
X176354000Y-83185000D02*
X177038000Y-83869000D01*
X166149000Y-84836000D02*
X166149000Y-88425000D01*
X166149000Y-88425000D02*
X166370000Y-88646000D01*
X166370000Y-93726000D02*
X167640000Y-94996000D01*
X167640000Y-94996000D02*
X169926000Y-94996000D01*
X166370000Y-88646000D02*
X166370000Y-93726000D01*
X169926000Y-94996000D02*
X169926000Y-97028000D01*
X172720000Y-92946000D02*
X175260000Y-92946000D01*
X169926000Y-92946000D02*
X172720000Y-92946000D01*
X178308000Y-94234000D02*
X177020000Y-92946000D01*
X177020000Y-92946000D02*
X175260000Y-92946000D01*
X167005000Y-98280000D02*
X167005000Y-96901000D01*
X167005000Y-96901000D02*
X166497000Y-96393000D01*
X175396000Y-109159000D02*
X175396000Y-109846000D01*
X175396000Y-109846000D02*
X171577000Y-113665000D01*
X171577000Y-113665000D02*
X171577000Y-116713000D01*
X171577000Y-113538000D02*
X170815000Y-112776000D01*
X170815000Y-112776000D02*
X164846000Y-112776000D01*
X171577000Y-116713000D02*
X171577000Y-113538000D01*
X200288000Y-109159000D02*
X200288000Y-107401000D01*
X199390000Y-98044000D02*
X196469000Y-98044000D01*
X200288000Y-107401000D02*
X201136000Y-106553000D01*
X201136000Y-106553000D02*
X201168000Y-106553000D01*
X194437000Y-96012000D02*
X193689000Y-96012000D01*
X201168000Y-106553000D02*
X202438000Y-105283000D01*
X202438000Y-105283000D02*
X202438000Y-101092000D01*
X202438000Y-101092000D02*
X199390000Y-98044000D01*
X196469000Y-98044000D02*
X194437000Y-96012000D01*
X193689000Y-96012000D02*
X192988000Y-95311000D01*
X192988000Y-95311000D02*
X192988000Y-93853000D01*
X166116000Y-78867000D02*
X166116000Y-77089000D01*
X166149000Y-81026000D02*
X166149000Y-78900000D01*
X166149000Y-78900000D02*
X166116000Y-78867000D01*
X192988000Y-91059000D02*
X192988000Y-93853000D01*
X192988000Y-93853000D02*
X191008000Y-93853000D01*
X189847000Y-100457000D02*
X188087000Y-100457000D01*
X176784000Y-81485000D02*
X176784000Y-79756000D01*
X176784000Y-79756000D02*
X175641000Y-78613000D01*
X174846000Y-81915000D02*
X176354000Y-81915000D01*
X176354000Y-81915000D02*
X176784000Y-81485000D01*
D37*
X172720000Y-118066420D02*
X172212000Y-118574420D01*
X172212000Y-118574420D02*
X172212000Y-119761000D01*
X172212000Y-119761000D02*
X172593000Y-120142000D01*
X172593000Y-120142000D02*
X195199000Y-120142000D01*
X172720000Y-117348000D02*
X172720000Y-118066420D01*
X195199000Y-120142000D02*
X197612000Y-117729000D01*
X197612000Y-117729000D02*
X197739000Y-117729000D01*
X185674000Y-89281000D02*
X185674000Y-90706000D01*
X184356000Y-93603904D02*
X187802096Y-97050000D01*
X185674000Y-90706000D02*
X184356000Y-92024000D01*
X194332000Y-97050000D02*
X200288000Y-103006000D01*
X184356000Y-92024000D02*
X184356000Y-93603904D01*
X187802096Y-97050000D02*
X194332000Y-97050000D01*
X200288000Y-103006000D02*
X200288000Y-103659000D01*
X183230096Y-82318000D02*
X184356000Y-83443904D01*
X184356000Y-83443904D02*
X184356000Y-86538000D01*
X184356000Y-86538000D02*
X185674000Y-87856000D01*
X185674000Y-87856000D02*
X185674000Y-89281000D01*
X182149000Y-82318000D02*
X183230096Y-82318000D01*
X180246000Y-81915000D02*
X181746000Y-81915000D01*
X181746000Y-81915000D02*
X182149000Y-82318000D01*
D39*
X185674000Y-89281000D02*
X188341000Y-89281000D01*
X188341000Y-89281000D02*
X188722000Y-89662000D01*
D37*
X195453000Y-117348000D02*
X195453000Y-119126000D01*
X195453000Y-119126000D02*
X194945000Y-119634000D01*
X194945000Y-119634000D02*
X173863000Y-119634000D01*
X173863000Y-119634000D02*
X173228000Y-118999000D01*
X182574000Y-89281000D02*
X182574000Y-90706000D01*
X182574000Y-90706000D02*
X183892000Y-92024000D01*
X183892000Y-92024000D02*
X183892000Y-93796096D01*
X183892000Y-93796096D02*
X187609904Y-97514000D01*
X187609904Y-97514000D02*
X194086904Y-97514000D01*
X194086904Y-97514000D02*
X198120000Y-101547096D01*
X198120000Y-101547096D02*
X198120000Y-107188000D01*
X198120000Y-107188000D02*
X196149000Y-109159000D01*
X196149000Y-109159000D02*
X196088000Y-109159000D01*
X183037904Y-82782000D02*
X183892000Y-83636096D01*
X183892000Y-83636096D02*
X183892000Y-86538000D01*
X183892000Y-86538000D02*
X182574000Y-87856000D01*
X182574000Y-87856000D02*
X182574000Y-89281000D01*
X182149000Y-82782000D02*
X183037904Y-82782000D01*
X180246000Y-83185000D02*
X181746000Y-83185000D01*
X181746000Y-83185000D02*
X182149000Y-82782000D01*
D39*
X182574000Y-89281000D02*
X179832000Y-89281000D01*
X179832000Y-89281000D02*
X179451000Y-89662000D01*
D37*
X160749000Y-83566000D02*
X158369000Y-83566000D01*
X158369000Y-83566000D02*
X157734000Y-84201000D01*
X157734000Y-84201000D02*
X157734000Y-87376000D01*
X157734000Y-87376000D02*
X160528000Y-87376000D01*
X160528000Y-87376000D02*
X160782000Y-87630000D01*
X168166000Y-78867000D02*
X170053000Y-78867000D01*
X170053000Y-78867000D02*
X170815000Y-79629000D01*
X170815000Y-79629000D02*
X170815000Y-80580000D01*
X170815000Y-80580000D02*
X170815000Y-81534000D01*
X170815000Y-81534000D02*
X172212000Y-81534000D01*
X172212000Y-81534000D02*
X173101000Y-80645000D01*
X173101000Y-80645000D02*
X173592000Y-80645000D01*
X173592000Y-80645000D02*
X174846000Y-80645000D01*
X166149000Y-82296000D02*
X168656000Y-82296000D01*
D39*
X180467000Y-71882000D02*
X180975000Y-71374000D01*
X180975000Y-71374000D02*
X185876000Y-71374000D01*
X171972000Y-71734000D02*
X171972000Y-69455000D01*
X171972000Y-69455000D02*
X173228000Y-68199000D01*
X173228000Y-68199000D02*
X173228000Y-64135000D01*
X173228000Y-64135000D02*
X172466000Y-63373000D01*
X172466000Y-63373000D02*
X138811000Y-63373000D01*
X138811000Y-63373000D02*
X135890000Y-66294000D01*
X135890000Y-66294000D02*
X135890000Y-71247000D01*
X171972000Y-71734000D02*
X174604000Y-71734000D01*
X174604000Y-71734000D02*
X174752000Y-71882000D01*
X180467000Y-71882000D02*
X174752000Y-71882000D01*
X185039000Y-100203000D02*
X185039000Y-98435234D01*
X185039000Y-98435234D02*
X184647766Y-98044000D01*
X184647766Y-98044000D02*
X175978420Y-98044000D01*
X175978420Y-98044000D02*
X175260000Y-98044000D01*
X175260000Y-94996000D02*
X175260000Y-98044000D01*
X172720000Y-94996000D02*
X175260000Y-94996000D01*
X196088000Y-95884994D02*
X196088006Y-95885000D01*
X196088000Y-93853000D02*
X196088000Y-95884994D01*
X196088000Y-91059000D02*
X196088000Y-93853000D01*
X196088000Y-88265000D02*
X196088000Y-91059000D01*
X199390000Y-88265000D02*
X196088000Y-88265000D01*
X192988000Y-88265000D02*
X191680000Y-88265000D01*
X191680000Y-88265000D02*
X191008000Y-87593000D01*
X191008000Y-87593000D02*
X191008000Y-82420208D01*
X191008000Y-82420208D02*
X191894208Y-81534000D01*
X191894208Y-81534000D02*
X193167000Y-81534000D01*
X186003000Y-66294000D02*
X186003000Y-64836000D01*
X186003000Y-64836000D02*
X184540000Y-63373000D01*
X184540000Y-63373000D02*
X180467000Y-63373000D01*
X133223000Y-71229000D02*
X133223000Y-67310000D01*
X179705000Y-62611000D02*
X180467000Y-63373000D01*
X133223000Y-67310000D02*
X137922000Y-62611000D01*
X137922000Y-62611000D02*
X179705000Y-62611000D01*
X188849000Y-81788000D02*
X186690000Y-81788000D01*
X186690000Y-81788000D02*
X186436000Y-81534000D01*
X158496000Y-71734000D02*
X158496000Y-72359000D01*
X157480000Y-73375000D02*
X157480000Y-73914000D01*
X158496000Y-72359000D02*
X157480000Y-73375000D01*
X149352000Y-66040000D02*
X153162000Y-66040000D01*
X153162000Y-66040000D02*
X153268000Y-65934000D01*
X153268000Y-65934000D02*
X158496000Y-65934000D01*
X158496000Y-71734000D02*
X158496000Y-70101000D01*
X158496000Y-70101000D02*
X158496000Y-65934000D01*
X127062000Y-112520000D02*
X127062000Y-115127000D01*
X127062000Y-115127000D02*
X126873000Y-115316000D01*
X127062000Y-112520000D02*
X129520000Y-112520000D01*
X129520000Y-112520000D02*
X129794000Y-112794000D01*
D38*
X135661410Y-111404410D02*
X133477000Y-109220000D01*
X133477000Y-109220000D02*
X127062000Y-109220000D01*
X140321000Y-110885000D02*
X139801590Y-111404410D01*
X139801590Y-111404410D02*
X135661410Y-111404410D01*
X140321000Y-107941000D02*
X140321000Y-110885000D01*
D39*
X127018000Y-106426000D02*
X127018000Y-109176000D01*
X127018000Y-109176000D02*
X127062000Y-109220000D01*
X140208015Y-92202001D02*
X139700016Y-92710000D01*
X141605016Y-90805000D02*
X140208015Y-92202001D01*
X149225000Y-90805000D02*
X141605016Y-90805000D01*
D37*
X146812000Y-69596000D02*
X147828000Y-68580000D01*
X147828000Y-68580000D02*
X149352000Y-68580000D01*
X146812000Y-74531000D02*
X146812000Y-69596000D01*
D38*
X149571000Y-98291000D02*
X150876030Y-96985970D01*
X150876030Y-96985970D02*
X150876030Y-96774000D01*
X148971000Y-98291000D02*
X149571000Y-98291000D01*
X147320000Y-98298000D02*
X144983199Y-100634801D01*
X144983199Y-100634801D02*
X144983199Y-104978199D01*
X148010800Y-98298000D02*
X147320000Y-98298000D01*
X148971000Y-98291000D02*
X148017800Y-98291000D01*
X148017800Y-98291000D02*
X148010800Y-98298000D01*
X145796000Y-105791000D02*
X146796000Y-104791000D01*
X146796000Y-104791000D02*
X148971000Y-104791000D01*
X137171000Y-105791000D02*
X138124200Y-105791000D01*
X138124200Y-105791000D02*
X138937001Y-104978199D01*
X145288001Y-105283001D02*
X145796000Y-105791000D01*
X138937001Y-104978199D02*
X144983199Y-104978199D01*
X144983199Y-104978199D02*
X145288001Y-105283001D01*
X145321000Y-107941000D02*
X145321000Y-106266000D01*
X145321000Y-106266000D02*
X145796000Y-105791000D01*
X148971000Y-104791000D02*
X150511000Y-104791000D01*
X150511000Y-104791000D02*
X151384000Y-105664000D01*
X139321000Y-96141000D02*
X137539000Y-96141000D01*
X137539000Y-96141000D02*
X136906000Y-96774000D01*
D39*
X116459000Y-94107000D02*
X115715000Y-93363000D01*
X115715000Y-93363000D02*
X111633000Y-93363000D01*
X117856000Y-94107000D02*
X116459000Y-94107000D01*
X121285000Y-87249000D02*
X121285000Y-93218000D01*
X121285000Y-93218000D02*
X120396000Y-94107000D01*
X119761000Y-85725000D02*
X121285000Y-87249000D01*
X117221000Y-85725000D02*
X119761000Y-85725000D01*
X114300000Y-82804000D02*
X117221000Y-85725000D01*
X114300000Y-80347420D02*
X114300000Y-82804000D01*
X114300000Y-79629000D02*
X114300000Y-80347420D01*
X115443000Y-73025000D02*
X114300000Y-74168000D01*
X114300000Y-74168000D02*
X114300000Y-77216000D01*
X116713000Y-73025000D02*
X115443000Y-73025000D01*
X119126000Y-70612000D02*
X116713000Y-73025000D01*
X119126000Y-67183000D02*
X119126000Y-70612000D01*
X117602000Y-65659000D02*
X119126000Y-67183000D01*
X115127000Y-65659000D02*
X117602000Y-65659000D01*
X113919000Y-65659000D02*
X115127000Y-65659000D01*
X116586000Y-97663000D02*
X115189000Y-96266000D01*
X115189000Y-96266000D02*
X111633000Y-96266000D01*
X119634000Y-101092000D02*
X119634000Y-100838000D01*
X119634000Y-100838000D02*
X117856000Y-99060000D01*
X125984000Y-104013000D02*
X123444000Y-104013000D01*
X123444000Y-104013000D02*
X122174000Y-102743000D01*
X149225000Y-70121213D02*
X149225000Y-90805000D01*
X149352000Y-68580000D02*
X149352000Y-69994213D01*
X149352000Y-69994213D02*
X149225000Y-70121213D01*
D38*
X134112000Y-107188000D02*
X135509000Y-105791000D01*
X135509000Y-105791000D02*
X137171000Y-105791000D01*
D39*
X111633000Y-93363000D02*
X111633000Y-96266000D01*
D38*
X139319000Y-108896200D02*
X139319000Y-109220000D01*
X139319000Y-109220000D02*
X138684000Y-109855000D01*
X139321000Y-107941000D02*
X139321000Y-108894200D01*
X139321000Y-108894200D02*
X139319000Y-108896200D01*
D37*
X148844000Y-116568000D02*
X144003000Y-116568000D01*
X144003000Y-116568000D02*
X143985000Y-116586000D01*
D39*
X144000000Y-116601000D02*
X143985000Y-116586000D01*
X144018000Y-112522000D02*
X144018000Y-116553000D01*
X144018000Y-116553000D02*
X143985000Y-116586000D01*
D37*
X129159000Y-116586000D02*
X130163000Y-116586000D01*
X130163000Y-116586000D02*
X133985000Y-116586000D01*
D39*
X134003000Y-116604000D02*
X133985000Y-116586000D01*
D38*
X141321000Y-107941000D02*
X141321000Y-111034500D01*
X141321000Y-111034500D02*
X140087500Y-112268000D01*
X140087500Y-112268000D02*
X135128000Y-112268000D01*
X135128000Y-112268000D02*
X133985000Y-113411000D01*
X133985000Y-113411000D02*
X133985000Y-116586000D01*
D37*
X109347000Y-106807000D02*
X109728000Y-106426000D01*
X110744000Y-111633000D02*
X109347000Y-110236000D01*
X120777000Y-116840000D02*
X115570000Y-111633000D01*
X124308670Y-116840000D02*
X120777000Y-116840000D01*
X127737670Y-120269000D02*
X124308670Y-116840000D01*
X109347000Y-110236000D02*
X109347000Y-106807000D01*
X150368000Y-120269000D02*
X127737670Y-120269000D01*
X151333190Y-119303810D02*
X150368000Y-120269000D01*
X151333190Y-114630190D02*
X151333190Y-119303810D01*
X115570000Y-111633000D02*
X110744000Y-111633000D01*
X149987000Y-113284000D02*
X151333190Y-114630190D01*
X148336000Y-113284000D02*
X149987000Y-113284000D01*
X119507000Y-77742000D02*
X118503000Y-77742000D01*
X118503000Y-77742000D02*
X117759000Y-78486000D01*
X117759000Y-78486000D02*
X110871000Y-78486000D01*
X110871000Y-78486000D02*
X109728000Y-79629000D01*
X109728000Y-79629000D02*
X109728000Y-106426000D01*
X109728000Y-106426000D02*
X111633000Y-106426000D01*
D38*
X142321000Y-107941000D02*
X142321000Y-109555000D01*
X145796000Y-110744000D02*
X148336000Y-113284000D01*
X142321000Y-109555000D02*
X143510000Y-110744000D01*
X143510000Y-110744000D02*
X145796000Y-110744000D01*
X151869000Y-99291000D02*
X153035000Y-100457000D01*
X153035000Y-100457000D02*
X153035000Y-100965000D01*
X148971000Y-99291000D02*
X151869000Y-99291000D01*
X139821000Y-107941000D02*
X139821000Y-110623000D01*
X130429000Y-105283000D02*
X128711250Y-105283000D01*
X139821000Y-110623000D02*
X139446000Y-110998000D01*
X128711250Y-105283000D02*
X122996250Y-99568000D01*
X139446000Y-110998000D02*
X136144000Y-110998000D01*
X136144000Y-110998000D02*
X130429000Y-105283000D01*
X122996250Y-99568000D02*
X122301000Y-99568000D01*
X118999000Y-96520000D02*
X118999000Y-95801580D01*
X118999000Y-95801580D02*
X118999000Y-91331000D01*
D39*
X116223000Y-91313000D02*
X118981000Y-91313000D01*
X118981000Y-91313000D02*
X118999000Y-91331000D01*
D38*
X148971000Y-105791000D02*
X148971000Y-108458000D01*
X148971000Y-108458000D02*
X152908000Y-112395000D01*
X152908000Y-112395000D02*
X152908000Y-120269000D01*
X152908000Y-120269000D02*
X151765000Y-121412000D01*
X151765000Y-121412000D02*
X126873000Y-121412000D01*
X126873000Y-121412000D02*
X125476000Y-120015000D01*
X125476000Y-120015000D02*
X122936000Y-120015000D01*
X122936000Y-120015000D02*
X121031000Y-120015000D01*
D39*
X188849000Y-78688000D02*
X186488000Y-78688000D01*
X186488000Y-78688000D02*
X186436000Y-78740000D01*
D37*
X154900596Y-112576082D02*
X154900596Y-114260596D01*
X154900596Y-114260596D02*
X154940000Y-114300000D01*
D38*
X148971000Y-103791000D02*
X150908000Y-103791000D01*
X154940000Y-107823000D02*
X154940000Y-110490000D01*
X150908000Y-103791000D02*
X154940000Y-107823000D01*
D37*
X157607000Y-114300000D02*
X157607000Y-112540000D01*
D38*
X148971000Y-103291000D02*
X153202000Y-103291000D01*
X153202000Y-103291000D02*
X157607000Y-107696000D01*
X157607000Y-107696000D02*
X157607000Y-110490000D01*
D37*
X160274000Y-112540000D02*
X160274000Y-114300000D01*
D38*
X148971000Y-102791000D02*
X155369000Y-102791000D01*
X155369000Y-102791000D02*
X160274000Y-107696000D01*
X160274000Y-107696000D02*
X160274000Y-110490000D01*
X135635995Y-98043999D02*
X135127996Y-97536000D01*
X135882996Y-98291000D02*
X135635995Y-98043999D01*
X137171000Y-98291000D02*
X135882996Y-98291000D01*
X120142000Y-97663000D02*
X117983000Y-97663000D01*
X117983000Y-97663000D02*
X116840000Y-98806000D01*
X116840000Y-98806000D02*
X111633000Y-98806000D01*
X136651999Y-94996001D02*
X136144000Y-95504000D01*
X139494200Y-94361000D02*
X137287000Y-94361000D01*
X140321000Y-95187800D02*
X139494200Y-94361000D01*
X140321000Y-96141000D02*
X140321000Y-95187800D01*
X137287000Y-94361000D02*
X136651999Y-94996001D01*
X121412000Y-96647000D02*
X121412000Y-100711000D01*
X121412000Y-100711000D02*
X118237000Y-103886000D01*
X118237000Y-103886000D02*
X111633000Y-103886000D01*
X137171000Y-101291000D02*
X131627000Y-101291000D01*
X131627000Y-101291000D02*
X131191000Y-101727000D01*
X114681000Y-108966000D02*
X122428000Y-101219000D01*
X111633000Y-108966000D02*
X114681000Y-108966000D01*
D39*
X111760000Y-117475000D02*
X116949000Y-117475000D01*
X118872000Y-120015000D02*
X111760000Y-120015000D01*
X188976000Y-71374000D02*
X193167000Y-71374000D01*
X189103000Y-66294000D02*
X193167000Y-66294000D01*
D37*
X137668000Y-80518000D02*
X137668000Y-82768000D01*
X137668000Y-82768000D02*
X137650000Y-82786000D01*
X140970000Y-85598000D02*
X140716000Y-85598000D01*
X140716000Y-85598000D02*
X137904000Y-82786000D01*
X137904000Y-82786000D02*
X135890000Y-82786000D01*
X137650000Y-82786000D02*
X135890000Y-82786000D01*
X135890000Y-82786000D02*
X135890000Y-80899000D01*
X135890000Y-80899000D02*
X135102000Y-80111000D01*
X135102000Y-80111000D02*
X133302000Y-80111000D01*
X133622000Y-82804000D02*
X133350000Y-82804000D01*
X133350000Y-82804000D02*
X133350000Y-80809000D01*
X133350000Y-80809000D02*
X133302000Y-80761000D01*
D38*
X132080000Y-93599000D02*
X132461000Y-93980000D01*
X132461000Y-93980000D02*
X132461000Y-95141000D01*
X130683000Y-93599000D02*
X132080000Y-93599000D01*
X130302000Y-93218000D02*
X130683000Y-93599000D01*
X130302000Y-91608000D02*
X130302000Y-93218000D01*
X137171000Y-99291000D02*
X133073000Y-99291000D01*
X133073000Y-99291000D02*
X132461000Y-98679000D01*
X132461000Y-98679000D02*
X132461000Y-97191000D01*
X129802000Y-91608000D02*
X129802000Y-95133000D01*
X129802000Y-95133000D02*
X129794000Y-95141000D01*
X129802000Y-94498000D02*
X129794000Y-94506000D01*
X137171000Y-99791000D02*
X130568580Y-99791000D01*
X130568580Y-99791000D02*
X129794000Y-99016420D01*
X129794000Y-99016420D02*
X129794000Y-97191000D01*
D37*
X127302000Y-80761000D02*
X127302000Y-82502000D01*
X127302000Y-82502000D02*
X127000000Y-82804000D01*
D38*
X127381000Y-93599000D02*
X127127000Y-93853000D01*
X127127000Y-93853000D02*
X127127000Y-95123000D01*
X128905000Y-93599000D02*
X127381000Y-93599000D01*
X129286000Y-93218000D02*
X128905000Y-93599000D01*
X129286000Y-92827200D02*
X129286000Y-93218000D01*
X129302000Y-91608000D02*
X129302000Y-92811200D01*
X129302000Y-92811200D02*
X129286000Y-92827200D01*
X137171000Y-100291000D02*
X128231000Y-100291000D01*
X128231000Y-100291000D02*
X127127000Y-99187000D01*
X127127000Y-97173000D02*
X127127000Y-99187000D01*
X122427952Y-98424952D02*
X128794000Y-104791000D01*
X122427952Y-79883048D02*
X122427952Y-98424952D01*
X123190000Y-76835000D02*
X123190000Y-79121000D01*
X123190000Y-79121000D02*
X122427952Y-79883048D01*
X128794000Y-104791000D02*
X137171000Y-104791000D01*
X127302000Y-76861000D02*
X123216000Y-76861000D01*
X123216000Y-76861000D02*
X123190000Y-76835000D01*
D39*
X191888000Y-103659000D02*
X191888000Y-100466000D01*
X191888000Y-100466000D02*
X191897000Y-100457000D01*
D37*
X166149000Y-83566000D02*
X170797000Y-83566000D01*
X170797000Y-83566000D02*
X170815000Y-83584000D01*
X156972000Y-82296000D02*
X157480000Y-82296000D01*
X157480000Y-82296000D02*
X160749000Y-82296000D01*
X158115000Y-78232000D02*
X157480000Y-78867000D01*
X157480000Y-78867000D02*
X157480000Y-82296000D01*
X160655000Y-78232000D02*
X158115000Y-78232000D01*
X154940000Y-87358000D02*
X154940000Y-84328000D01*
X154940000Y-84328000D02*
X156972000Y-82296000D01*
X174846000Y-84455000D02*
X172720000Y-84455000D01*
D38*
X129794000Y-110744000D02*
X134426250Y-110744000D01*
X134426250Y-110744000D02*
X135493070Y-111810820D01*
X135493070Y-111810820D02*
X139969931Y-111810819D01*
X139969931Y-111810819D02*
X140821000Y-110959750D01*
X140821000Y-110959750D02*
X140821000Y-107941000D01*
X141821000Y-107941000D02*
X141859000Y-107979000D01*
X141859000Y-107979000D02*
X141859000Y-112413000D01*
X141859000Y-112413000D02*
X141968000Y-112522000D01*
D39*
X112522000Y-63119000D02*
X111869000Y-63772000D01*
X111869000Y-63772000D02*
X111869000Y-65659000D01*
X117094000Y-63119000D02*
X112522000Y-63119000D01*
X120015000Y-66040000D02*
X117094000Y-63119000D01*
X120015000Y-73976000D02*
X120015000Y-66040000D01*
X119507000Y-75692000D02*
X119507000Y-74484000D01*
X119507000Y-74484000D02*
X120015000Y-73976000D01*
X111923000Y-68517000D02*
X111923000Y-65713000D01*
X111923000Y-65713000D02*
X111869000Y-65659000D01*
X111923000Y-88582000D02*
X111923000Y-91023000D01*
X111923000Y-91023000D02*
X111633000Y-91313000D01*
X111633000Y-91313000D02*
X114173000Y-91313000D01*
D38*
X146821000Y-107941000D02*
X146821000Y-108894200D01*
X146821000Y-108894200D02*
X152146000Y-114219200D01*
X152146000Y-114219200D02*
X152146000Y-119888000D01*
X152146000Y-119888000D02*
X151130000Y-120904000D01*
X151130000Y-120904000D02*
X127381000Y-120904000D01*
X127381000Y-120904000D02*
X123952000Y-117475000D01*
X123952000Y-117475000D02*
X118999000Y-117475000D01*
D37*
X133302000Y-77511000D02*
X137543000Y-77511000D01*
X137543000Y-77511000D02*
X140843000Y-80811000D01*
D38*
X137171000Y-102791000D02*
X135128262Y-102791000D01*
X135128262Y-102791000D02*
X134477761Y-103441501D01*
X134477761Y-103441501D02*
X129168751Y-103441501D01*
X129168751Y-103441501D02*
X123647185Y-97919935D01*
X123647185Y-97919935D02*
X123647185Y-80568815D01*
X123647185Y-80568815D02*
X125405000Y-78811000D01*
X125405000Y-78811000D02*
X126348800Y-78811000D01*
X126348800Y-78811000D02*
X127302000Y-78811000D01*
X134414261Y-101790497D02*
X134414764Y-101791000D01*
X129349501Y-102933501D02*
X132539735Y-102933501D01*
X124053596Y-80797404D02*
X124053596Y-97637596D01*
X125390000Y-79461000D02*
X124053596Y-80797404D01*
X132539735Y-102933501D02*
X133682739Y-101790497D01*
X127302000Y-79461000D02*
X125390000Y-79461000D01*
X134414764Y-101791000D02*
X136217800Y-101791000D01*
X133682739Y-101790497D02*
X134414261Y-101790497D01*
X124053596Y-97637596D02*
X129349501Y-102933501D01*
X136217800Y-101791000D02*
X137171000Y-101791000D01*
X137171000Y-100791000D02*
X136217800Y-100791000D01*
X136217800Y-100791000D02*
X136201800Y-100775000D01*
X125502000Y-80111000D02*
X127302000Y-80111000D01*
X136201800Y-100775000D02*
X127699000Y-100775000D01*
X127699000Y-100775000D02*
X124460000Y-97536000D01*
X124460000Y-97536000D02*
X124460000Y-81153000D01*
X124460000Y-81153000D02*
X125502000Y-80111000D01*
X127302000Y-78161000D02*
X125420000Y-78161000D01*
X125420000Y-78161000D02*
X123240774Y-80340226D01*
X123240774Y-80340226D02*
X123240774Y-98088274D01*
X136217800Y-103291000D02*
X137171000Y-103291000D01*
X123240774Y-98088274D02*
X129038500Y-103886000D01*
X129038500Y-103886000D02*
X135128000Y-103886000D01*
X135128000Y-103886000D02*
X135723000Y-103291000D01*
X135723000Y-103291000D02*
X136217800Y-103291000D01*
X122834363Y-98256613D02*
X122834363Y-80111637D01*
X125435000Y-77511000D02*
X126348800Y-77511000D01*
X122834363Y-80111637D02*
X125435000Y-77511000D01*
X128868750Y-104291000D02*
X122834363Y-98256613D01*
X137171000Y-104291000D02*
X128868750Y-104291000D01*
X126348800Y-77511000D02*
X127302000Y-77511000D01*
X146321000Y-94471000D02*
X147701000Y-93091000D01*
X147701000Y-93091000D02*
X156210000Y-93091000D01*
X146321000Y-96141000D02*
X146321000Y-94471000D01*
X156210000Y-93091000D02*
X157734000Y-91567000D01*
X157734000Y-91567000D02*
X157734000Y-89426000D01*
D39*
X167005000Y-100330000D02*
X167005000Y-103650000D01*
X167005000Y-103650000D02*
X166996000Y-103659000D01*
X166996000Y-109159000D02*
X166996000Y-103659000D01*
D40*
X172195234Y-106426000D02*
X179959000Y-106426000D01*
X179959000Y-106426000D02*
X194691000Y-106426000D01*
X179959000Y-100203000D02*
X179959000Y-101970766D01*
X179959000Y-101970766D02*
X179959000Y-106426000D01*
X171196000Y-103659000D02*
X171196000Y-105426766D01*
X171196000Y-105426766D02*
X172195234Y-106426000D01*
X194691000Y-106426000D02*
X196088000Y-105029000D01*
X196088000Y-105029000D02*
X196088000Y-103659000D01*
D37*
X151511000Y-76581000D02*
X151511000Y-78849000D01*
X146812000Y-76581000D02*
X146812000Y-78849000D01*
D38*
X137171000Y-102291000D02*
X134373499Y-102291000D01*
X134373499Y-102291000D02*
X134048500Y-102615999D01*
X134048500Y-97706586D02*
X134048500Y-98425006D01*
X134048500Y-95059500D02*
X134048500Y-97706586D01*
X140716000Y-93980000D02*
X135128000Y-93980000D01*
X150684800Y-92710000D02*
X141986000Y-92710000D01*
X153986800Y-89408000D02*
X150684800Y-92710000D01*
X154940000Y-89408000D02*
X153986800Y-89408000D01*
X135128000Y-93980000D02*
X134048500Y-95059500D01*
X141986000Y-92710000D02*
X140716000Y-93980000D01*
D37*
X153162000Y-89408000D02*
X154940000Y-89408000D01*
M02*
