M48
;DRILL file {KiCad 4.0.5+dfsg1-4} date Tue Aug 22 17:14:33 2017
;FORMAT={3:3/ absolute / metric / keep zeros}
FMAT,2
METRIC,TZ
T1C0.330
T2C0.900
T3C1.000
T4C1.100
T5C1.500
T6C1.800
T7C3.000
T8C3.500
%
G90
G05
M71
T1
X114300Y-077216
X114300Y-079629
X115824Y-070866
X116586Y-097663
X117856Y-094107
X117856Y-099060
X118999Y-087376
X118999Y-096520
X119634Y-101092
X120142Y-097663
X120396Y-094107
X121412Y-096647
X121539Y-084963
X122174Y-102743
X122301Y-099568
X122428Y-101219
X122682Y-115316
X122936Y-120015
X123190Y-072898
X123190Y-106426
X125603Y-073660
X125603Y-085471
X125984Y-104013
X128397Y-085471
X129540Y-084455
X131191Y-074930
X131318Y-080137
X131318Y-084582
X131318Y-119126
X131699Y-078232
X132969Y-105791
X133604Y-087249
X133604Y-093345
X134112Y-107188
X134493Y-096139
X134620Y-097663
X135001Y-075184
X135255Y-078867
X136779Y-090805
X136906Y-096774
X137668Y-080518
X138684Y-109855
X138811Y-093345
X138938Y-101346
X139065Y-091440
X139827Y-098171
X143129Y-094107
X144018Y-075311
X144145Y-105791
X144780Y-092075
X145796Y-089535
X145796Y-105791
X146431Y-119126
X146812Y-082677
X147193Y-105791
X148209Y-087757
X148336Y-113284
X149225Y-090805
X149225Y-094107
X150581Y-087449
X150876Y-096774
X151384Y-105664
X151511Y-082677
X153035Y-100965
X153162Y-089408
X153162Y-098806
X153670Y-084836
X154940Y-114300
X155448Y-074041
X157480Y-073914
X157607Y-114300
X158369Y-080899
X158623Y-084836
X160274Y-114300
X162814Y-075057
X164846Y-112776
X166116Y-077089
X166497Y-096393
X167259Y-074168
X168275Y-084963
X168656Y-082296
X169672Y-074168
X169926Y-097028
X171577Y-116713
X172720Y-084455
X172720Y-117348
X172847Y-083185
X173228Y-118999
X175006Y-067818
X175260Y-098044
X175641Y-078613
X178308Y-094234
X186436Y-078740
X186436Y-081534
X188087Y-100457
X191008Y-093853
X195453Y-117348
X196088Y-095885
X197739Y-117729
T2
X111633Y-096266
X111633Y-098806
X111633Y-101346
X111633Y-103886
X111633Y-106426
X111633Y-108966
X111760Y-114935
X111760Y-117475
X111760Y-120015
X149352Y-066040
X149352Y-068580
T3
X193167Y-066294
X193167Y-068834
X193167Y-071374
X193167Y-073914
X193167Y-078994
X193167Y-081534
X193167Y-084074
T4
X140970Y-085598
X140970Y-089027
X153162Y-066040
X160655Y-078232
X160782Y-087630
X164846Y-066294
X166370Y-088646
X179451Y-089662
X180467Y-063373
X180467Y-067691
X180467Y-071882
X183769Y-113157
X188722Y-089662
X199390Y-088265
T5
X179959Y-100203
X185039Y-100203
T6
X140843Y-075311
X140843Y-080811
X166996Y-103659
X166996Y-109159
X171196Y-103659
X171196Y-109159
X175396Y-103659
X175396Y-109159
X191888Y-103659
X191888Y-109159
X196088Y-103659
X196088Y-109159
X200288Y-103659
X200288Y-109159
T7
X140843Y-068011
X166996Y-116459
X175396Y-116459
X191888Y-116459
X200288Y-116459
T8
X106000Y-064770
X106000Y-118110
X207000Y-064770
X207000Y-118110
T0
M30
