G04 #@! TF.FileFunction,Legend,Top*
%FSLAX46Y46*%
G04 Gerber Fmt 4.6, Leading zero omitted, Abs format (unit mm)*
G04 Created by KiCad (PCBNEW 4.0.5+dfsg1-4) date Wed Aug 23 12:04:20 2017*
%MOMM*%
%LPD*%
G01*
G04 APERTURE LIST*
%ADD10C,0.100000*%
%ADD11C,0.203200*%
%ADD12C,0.300000*%
%ADD13C,0.200000*%
%ADD14C,0.254000*%
%ADD15C,0.127000*%
%ADD16C,0.508000*%
%ADD17C,0.250000*%
%ADD18C,0.350000*%
%ADD19C,0.500000*%
%ADD20C,0.150000*%
G04 APERTURE END LIST*
D10*
D11*
X151541239Y-62804524D02*
X152327429Y-62804524D01*
X151904096Y-63288333D01*
X152085524Y-63288333D01*
X152206477Y-63348810D01*
X152266953Y-63409286D01*
X152327429Y-63530238D01*
X152327429Y-63832619D01*
X152266953Y-63953571D01*
X152206477Y-64014048D01*
X152085524Y-64074524D01*
X151722667Y-64074524D01*
X151601715Y-64014048D01*
X151541239Y-63953571D01*
X152871715Y-63953571D02*
X152932191Y-64014048D01*
X152871715Y-64074524D01*
X152811239Y-64014048D01*
X152871715Y-63953571D01*
X152871715Y-64074524D01*
X153355525Y-62804524D02*
X154141715Y-62804524D01*
X153718382Y-63288333D01*
X153899810Y-63288333D01*
X154020763Y-63348810D01*
X154081239Y-63409286D01*
X154141715Y-63530238D01*
X154141715Y-63832619D01*
X154081239Y-63953571D01*
X154020763Y-64014048D01*
X153899810Y-64074524D01*
X153536953Y-64074524D01*
X153416001Y-64014048D01*
X153355525Y-63953571D01*
X154504572Y-62804524D02*
X154927906Y-64074524D01*
X155351239Y-62804524D01*
X164604096Y-63058524D02*
X163999334Y-63058524D01*
X163938858Y-63663286D01*
X163999334Y-63602810D01*
X164120286Y-63542333D01*
X164422667Y-63542333D01*
X164543620Y-63602810D01*
X164604096Y-63663286D01*
X164664572Y-63784238D01*
X164664572Y-64086619D01*
X164604096Y-64207571D01*
X164543620Y-64268048D01*
X164422667Y-64328524D01*
X164120286Y-64328524D01*
X163999334Y-64268048D01*
X163938858Y-64207571D01*
X165027429Y-63058524D02*
X165450763Y-64328524D01*
X165874096Y-63058524D01*
X178864381Y-69215000D02*
X178743429Y-69154524D01*
X178562000Y-69154524D01*
X178380572Y-69215000D01*
X178259619Y-69335952D01*
X178199143Y-69456905D01*
X178138667Y-69698810D01*
X178138667Y-69880238D01*
X178199143Y-70122143D01*
X178259619Y-70243095D01*
X178380572Y-70364048D01*
X178562000Y-70424524D01*
X178682952Y-70424524D01*
X178864381Y-70364048D01*
X178924857Y-70303571D01*
X178924857Y-69880238D01*
X178682952Y-69880238D01*
X179469143Y-70424524D02*
X179469143Y-69154524D01*
X180194857Y-70424524D01*
X180194857Y-69154524D01*
X180799619Y-70424524D02*
X180799619Y-69154524D01*
X181102000Y-69154524D01*
X181283428Y-69215000D01*
X181404381Y-69335952D01*
X181464857Y-69456905D01*
X181525333Y-69698810D01*
X181525333Y-69880238D01*
X181464857Y-70122143D01*
X181404381Y-70243095D01*
X181283428Y-70364048D01*
X181102000Y-70424524D01*
X180799619Y-70424524D01*
X177340381Y-65622714D02*
X178308000Y-65622714D01*
X179578000Y-66106524D02*
X178852286Y-66106524D01*
X179215143Y-66106524D02*
X179215143Y-64836524D01*
X179094191Y-65017952D01*
X178973238Y-65138905D01*
X178852286Y-65199381D01*
X180727048Y-64836524D02*
X180122286Y-64836524D01*
X180061810Y-65441286D01*
X180122286Y-65380810D01*
X180243238Y-65320333D01*
X180545619Y-65320333D01*
X180666572Y-65380810D01*
X180727048Y-65441286D01*
X180787524Y-65562238D01*
X180787524Y-65864619D01*
X180727048Y-65985571D01*
X180666572Y-66046048D01*
X180545619Y-66106524D01*
X180243238Y-66106524D01*
X180122286Y-66046048D01*
X180061810Y-65985571D01*
X181150381Y-64836524D02*
X181573715Y-66106524D01*
X181997048Y-64836524D01*
X179045810Y-74996524D02*
X178320096Y-74996524D01*
X178682953Y-74996524D02*
X178682953Y-73726524D01*
X178562001Y-73907952D01*
X178441048Y-74028905D01*
X178320096Y-74089381D01*
X180194858Y-73726524D02*
X179590096Y-73726524D01*
X179529620Y-74331286D01*
X179590096Y-74270810D01*
X179711048Y-74210333D01*
X180013429Y-74210333D01*
X180134382Y-74270810D01*
X180194858Y-74331286D01*
X180255334Y-74452238D01*
X180255334Y-74754619D01*
X180194858Y-74875571D01*
X180134382Y-74936048D01*
X180013429Y-74996524D01*
X179711048Y-74996524D01*
X179590096Y-74936048D01*
X179529620Y-74875571D01*
X180618191Y-73726524D02*
X181041525Y-74996524D01*
X181464858Y-73726524D01*
D12*
X182499143Y-117106000D02*
X182356286Y-117034571D01*
X182142000Y-117034571D01*
X181927715Y-117106000D01*
X181784857Y-117248857D01*
X181713429Y-117391714D01*
X181642000Y-117677429D01*
X181642000Y-117891714D01*
X181713429Y-118177429D01*
X181784857Y-118320286D01*
X181927715Y-118463143D01*
X182142000Y-118534571D01*
X182284857Y-118534571D01*
X182499143Y-118463143D01*
X182570572Y-118391714D01*
X182570572Y-117891714D01*
X182284857Y-117891714D01*
X183213429Y-118534571D02*
X183213429Y-117034571D01*
X184070572Y-118534571D01*
X184070572Y-117034571D01*
X184784858Y-118534571D02*
X184784858Y-117034571D01*
X185142001Y-117034571D01*
X185356286Y-117106000D01*
X185499144Y-117248857D01*
X185570572Y-117391714D01*
X185642001Y-117677429D01*
X185642001Y-117891714D01*
X185570572Y-118177429D01*
X185499144Y-118320286D01*
X185356286Y-118463143D01*
X185142001Y-118534571D01*
X184784858Y-118534571D01*
X160420857Y-122102143D02*
X160420857Y-121602143D01*
X161206571Y-121387857D02*
X161206571Y-122102143D01*
X159706571Y-122102143D01*
X159706571Y-121387857D01*
X161206571Y-119887857D02*
X160492286Y-120387857D01*
X161206571Y-120745000D02*
X159706571Y-120745000D01*
X159706571Y-120173572D01*
X159778000Y-120030714D01*
X159849429Y-119959286D01*
X159992286Y-119887857D01*
X160206571Y-119887857D01*
X160349429Y-119959286D01*
X160420857Y-120030714D01*
X160492286Y-120173572D01*
X160492286Y-120745000D01*
X161206571Y-118387857D02*
X160492286Y-118887857D01*
X161206571Y-119245000D02*
X159706571Y-119245000D01*
X159706571Y-118673572D01*
X159778000Y-118530714D01*
X159849429Y-118459286D01*
X159992286Y-118387857D01*
X160206571Y-118387857D01*
X160349429Y-118459286D01*
X160420857Y-118530714D01*
X160492286Y-118673572D01*
X160492286Y-119245000D01*
X159706571Y-117459286D02*
X159706571Y-117173572D01*
X159778000Y-117030714D01*
X159920857Y-116887857D01*
X160206571Y-116816429D01*
X160706571Y-116816429D01*
X160992286Y-116887857D01*
X161135143Y-117030714D01*
X161206571Y-117173572D01*
X161206571Y-117459286D01*
X161135143Y-117602143D01*
X160992286Y-117745000D01*
X160706571Y-117816429D01*
X160206571Y-117816429D01*
X159920857Y-117745000D01*
X159778000Y-117602143D01*
X159706571Y-117459286D01*
X161206571Y-115316428D02*
X160492286Y-115816428D01*
X161206571Y-116173571D02*
X159706571Y-116173571D01*
X159706571Y-115602143D01*
X159778000Y-115459285D01*
X159849429Y-115387857D01*
X159992286Y-115316428D01*
X160206571Y-115316428D01*
X160349429Y-115387857D01*
X160420857Y-115459285D01*
X160492286Y-115602143D01*
X160492286Y-116173571D01*
X158412571Y-122102143D02*
X156912571Y-122102143D01*
X156912571Y-121745000D01*
X156984000Y-121530715D01*
X157126857Y-121387857D01*
X157269714Y-121316429D01*
X157555429Y-121245000D01*
X157769714Y-121245000D01*
X158055429Y-121316429D01*
X158198286Y-121387857D01*
X158341143Y-121530715D01*
X158412571Y-121745000D01*
X158412571Y-122102143D01*
X157626857Y-120602143D02*
X157626857Y-120102143D01*
X158412571Y-119887857D02*
X158412571Y-120602143D01*
X156912571Y-120602143D01*
X156912571Y-119887857D01*
X157626857Y-118745000D02*
X157698286Y-118530714D01*
X157769714Y-118459286D01*
X157912571Y-118387857D01*
X158126857Y-118387857D01*
X158269714Y-118459286D01*
X158341143Y-118530714D01*
X158412571Y-118673572D01*
X158412571Y-119245000D01*
X156912571Y-119245000D01*
X156912571Y-118745000D01*
X156984000Y-118602143D01*
X157055429Y-118530714D01*
X157198286Y-118459286D01*
X157341143Y-118459286D01*
X157484000Y-118530714D01*
X157555429Y-118602143D01*
X157626857Y-118745000D01*
X157626857Y-119245000D01*
X156912571Y-117745000D02*
X158126857Y-117745000D01*
X158269714Y-117673572D01*
X158341143Y-117602143D01*
X158412571Y-117459286D01*
X158412571Y-117173572D01*
X158341143Y-117030714D01*
X158269714Y-116959286D01*
X158126857Y-116887857D01*
X156912571Y-116887857D01*
X156984000Y-115387857D02*
X156912571Y-115530714D01*
X156912571Y-115745000D01*
X156984000Y-115959285D01*
X157126857Y-116102143D01*
X157269714Y-116173571D01*
X157555429Y-116245000D01*
X157769714Y-116245000D01*
X158055429Y-116173571D01*
X158198286Y-116102143D01*
X158341143Y-115959285D01*
X158412571Y-115745000D01*
X158412571Y-115602143D01*
X158341143Y-115387857D01*
X158269714Y-115316428D01*
X157769714Y-115316428D01*
X157769714Y-115602143D01*
X154959857Y-121645857D02*
X155031286Y-121431571D01*
X155102714Y-121360143D01*
X155245571Y-121288714D01*
X155459857Y-121288714D01*
X155602714Y-121360143D01*
X155674143Y-121431571D01*
X155745571Y-121574429D01*
X155745571Y-122145857D01*
X154245571Y-122145857D01*
X154245571Y-121645857D01*
X154317000Y-121503000D01*
X154388429Y-121431571D01*
X154531286Y-121360143D01*
X154674143Y-121360143D01*
X154817000Y-121431571D01*
X154888429Y-121503000D01*
X154959857Y-121645857D01*
X154959857Y-122145857D01*
X155745571Y-119931571D02*
X155745571Y-120645857D01*
X154245571Y-120645857D01*
X155745571Y-119431571D02*
X154245571Y-119431571D01*
X155745571Y-118717285D02*
X154245571Y-118717285D01*
X155745571Y-117860142D01*
X154245571Y-117860142D01*
X155745571Y-117145856D02*
X154245571Y-117145856D01*
X155745571Y-116288713D02*
X154888429Y-116931570D01*
X154245571Y-116288713D02*
X155102714Y-117145856D01*
X110422429Y-79332000D02*
X109208143Y-79332000D01*
X109065286Y-79403428D01*
X108993857Y-79474857D01*
X108922429Y-79617714D01*
X108922429Y-79903428D01*
X108993857Y-80046286D01*
X109065286Y-80117714D01*
X109208143Y-80189143D01*
X110422429Y-80189143D01*
X108993857Y-80832000D02*
X108922429Y-81046286D01*
X108922429Y-81403429D01*
X108993857Y-81546286D01*
X109065286Y-81617715D01*
X109208143Y-81689143D01*
X109351000Y-81689143D01*
X109493857Y-81617715D01*
X109565286Y-81546286D01*
X109636714Y-81403429D01*
X109708143Y-81117715D01*
X109779571Y-80974857D01*
X109851000Y-80903429D01*
X109993857Y-80832000D01*
X110136714Y-80832000D01*
X110279571Y-80903429D01*
X110351000Y-80974857D01*
X110422429Y-81117715D01*
X110422429Y-81474857D01*
X110351000Y-81689143D01*
X109708143Y-82332000D02*
X109708143Y-82832000D01*
X108922429Y-83046286D02*
X108922429Y-82332000D01*
X110422429Y-82332000D01*
X110422429Y-83046286D01*
X108922429Y-84546286D02*
X109636714Y-84046286D01*
X108922429Y-83689143D02*
X110422429Y-83689143D01*
X110422429Y-84260571D01*
X110351000Y-84403429D01*
X110279571Y-84474857D01*
X110136714Y-84546286D01*
X109922429Y-84546286D01*
X109779571Y-84474857D01*
X109708143Y-84403429D01*
X109636714Y-84260571D01*
X109636714Y-83689143D01*
X109708143Y-86832000D02*
X109636714Y-87046286D01*
X109565286Y-87117714D01*
X109422429Y-87189143D01*
X109208143Y-87189143D01*
X109065286Y-87117714D01*
X108993857Y-87046286D01*
X108922429Y-86903428D01*
X108922429Y-86332000D01*
X110422429Y-86332000D01*
X110422429Y-86832000D01*
X110351000Y-86974857D01*
X110279571Y-87046286D01*
X110136714Y-87117714D01*
X109993857Y-87117714D01*
X109851000Y-87046286D01*
X109779571Y-86974857D01*
X109708143Y-86832000D01*
X109708143Y-86332000D01*
X110422429Y-87617714D02*
X110422429Y-88474857D01*
X108922429Y-88046286D02*
X110422429Y-88046286D01*
X108922429Y-88974857D02*
X110422429Y-88974857D01*
X108922429Y-89832000D01*
X110422429Y-89832000D01*
X108922429Y-70338429D02*
X109636714Y-69838429D01*
X108922429Y-69481286D02*
X110422429Y-69481286D01*
X110422429Y-70052714D01*
X110351000Y-70195572D01*
X110279571Y-70267000D01*
X110136714Y-70338429D01*
X109922429Y-70338429D01*
X109779571Y-70267000D01*
X109708143Y-70195572D01*
X109636714Y-70052714D01*
X109636714Y-69481286D01*
X109708143Y-70981286D02*
X109708143Y-71481286D01*
X108922429Y-71695572D02*
X108922429Y-70981286D01*
X110422429Y-70981286D01*
X110422429Y-71695572D01*
X108993857Y-72267000D02*
X108922429Y-72481286D01*
X108922429Y-72838429D01*
X108993857Y-72981286D01*
X109065286Y-73052715D01*
X109208143Y-73124143D01*
X109351000Y-73124143D01*
X109493857Y-73052715D01*
X109565286Y-72981286D01*
X109636714Y-72838429D01*
X109708143Y-72552715D01*
X109779571Y-72409857D01*
X109851000Y-72338429D01*
X109993857Y-72267000D01*
X110136714Y-72267000D01*
X110279571Y-72338429D01*
X110351000Y-72409857D01*
X110422429Y-72552715D01*
X110422429Y-72909857D01*
X110351000Y-73124143D01*
X109708143Y-73767000D02*
X109708143Y-74267000D01*
X108922429Y-74481286D02*
X108922429Y-73767000D01*
X110422429Y-73767000D01*
X110422429Y-74481286D01*
X110422429Y-74909857D02*
X110422429Y-75767000D01*
X108922429Y-75338429D02*
X110422429Y-75338429D01*
D11*
X108506381Y-120099667D02*
X108990190Y-119761001D01*
X108506381Y-119519096D02*
X109522381Y-119519096D01*
X109522381Y-119906143D01*
X109474000Y-120002905D01*
X109425619Y-120051286D01*
X109328857Y-120099667D01*
X109183714Y-120099667D01*
X109086952Y-120051286D01*
X109038571Y-120002905D01*
X108990190Y-119906143D01*
X108990190Y-119519096D01*
X109522381Y-120438334D02*
X108506381Y-121115667D01*
X109522381Y-121115667D02*
X108506381Y-120438334D01*
X109522381Y-116700905D02*
X109522381Y-117281476D01*
X108506381Y-116991191D02*
X109522381Y-116991191D01*
X109522381Y-117523381D02*
X108506381Y-118200714D01*
X109522381Y-118200714D02*
X108506381Y-117523381D01*
D12*
X115629429Y-113653572D02*
X114415143Y-113653572D01*
X114272286Y-113725000D01*
X114200857Y-113796429D01*
X114129429Y-113939286D01*
X114129429Y-114225000D01*
X114200857Y-114367858D01*
X114272286Y-114439286D01*
X114415143Y-114510715D01*
X115629429Y-114510715D01*
X114200857Y-115153572D02*
X114129429Y-115367858D01*
X114129429Y-115725001D01*
X114200857Y-115867858D01*
X114272286Y-115939287D01*
X114415143Y-116010715D01*
X114558000Y-116010715D01*
X114700857Y-115939287D01*
X114772286Y-115867858D01*
X114843714Y-115725001D01*
X114915143Y-115439287D01*
X114986571Y-115296429D01*
X115058000Y-115225001D01*
X115200857Y-115153572D01*
X115343714Y-115153572D01*
X115486571Y-115225001D01*
X115558000Y-115296429D01*
X115629429Y-115439287D01*
X115629429Y-115796429D01*
X115558000Y-116010715D01*
X114558000Y-116582143D02*
X114558000Y-117296429D01*
X114129429Y-116439286D02*
X115629429Y-116939286D01*
X114129429Y-117439286D01*
X114129429Y-118796429D02*
X114843714Y-118296429D01*
X114129429Y-117939286D02*
X115629429Y-117939286D01*
X115629429Y-118510714D01*
X115558000Y-118653572D01*
X115486571Y-118725000D01*
X115343714Y-118796429D01*
X115129429Y-118796429D01*
X114986571Y-118725000D01*
X114915143Y-118653572D01*
X114843714Y-118510714D01*
X114843714Y-117939286D01*
X115629429Y-119225000D02*
X115629429Y-120082143D01*
X114129429Y-119653572D02*
X115629429Y-119653572D01*
X115486571Y-120510714D02*
X115558000Y-120582143D01*
X115629429Y-120725000D01*
X115629429Y-121082143D01*
X115558000Y-121225000D01*
X115486571Y-121296429D01*
X115343714Y-121367857D01*
X115200857Y-121367857D01*
X114986571Y-121296429D01*
X114129429Y-120439286D01*
X114129429Y-121367857D01*
X114073857Y-100326286D02*
X114002429Y-100540572D01*
X114002429Y-100897715D01*
X114073857Y-101040572D01*
X114145286Y-101112001D01*
X114288143Y-101183429D01*
X114431000Y-101183429D01*
X114573857Y-101112001D01*
X114645286Y-101040572D01*
X114716714Y-100897715D01*
X114788143Y-100612001D01*
X114859571Y-100469143D01*
X114931000Y-100397715D01*
X115073857Y-100326286D01*
X115216714Y-100326286D01*
X115359571Y-100397715D01*
X115431000Y-100469143D01*
X115502429Y-100612001D01*
X115502429Y-100969143D01*
X115431000Y-101183429D01*
X115502429Y-101683429D02*
X114002429Y-102040572D01*
X115073857Y-102326286D01*
X114002429Y-102612000D01*
X115502429Y-102969143D01*
X114002429Y-103540572D02*
X115502429Y-103540572D01*
X115502429Y-103897715D01*
X115431000Y-104112000D01*
X115288143Y-104254858D01*
X115145286Y-104326286D01*
X114859571Y-104397715D01*
X114645286Y-104397715D01*
X114359571Y-104326286D01*
X114216714Y-104254858D01*
X114073857Y-104112000D01*
X114002429Y-103897715D01*
X114002429Y-103540572D01*
D13*
X127127000Y-66548000D02*
X127127000Y-69088000D01*
X125857000Y-67818000D02*
X128397000Y-67818000D01*
X125857000Y-64008000D02*
X128397000Y-64008000D01*
X128397000Y-70485000D02*
X128397000Y-69723000D01*
X125857000Y-70485000D02*
X128397000Y-70485000D01*
X125857000Y-69723000D02*
X125857000Y-70485000D01*
X123317000Y-65913000D02*
X130937000Y-65913000D01*
X123317000Y-69723000D02*
X123317000Y-62103000D01*
X130937000Y-69723000D02*
X123317000Y-69723000D01*
X130937000Y-62103000D02*
X130937000Y-69723000D01*
X123317000Y-62103000D02*
X130937000Y-62103000D01*
D14*
X166716000Y-77867000D02*
X167566000Y-77867000D01*
X166716000Y-79867000D02*
X167566000Y-79867000D01*
X194188000Y-92853000D02*
X194888000Y-92853000D01*
X194188000Y-94853000D02*
X194888000Y-94853000D01*
X194188000Y-90059000D02*
X194888000Y-90059000D01*
X194188000Y-92059000D02*
X194888000Y-92059000D01*
X176260000Y-93546000D02*
X176260000Y-94396000D01*
X174260000Y-93546000D02*
X174260000Y-94396000D01*
X173720000Y-93546000D02*
X173720000Y-94396000D01*
X171720000Y-93546000D02*
X171720000Y-94396000D01*
X170926000Y-93546000D02*
X170926000Y-94396000D01*
X168926000Y-93546000D02*
X168926000Y-94396000D01*
X175752000Y-70432000D02*
X175752000Y-71282000D01*
X173752000Y-70432000D02*
X173752000Y-71282000D01*
X125423000Y-114316000D02*
X126273000Y-114316000D01*
X125423000Y-116316000D02*
X126273000Y-116316000D01*
X126418000Y-107426000D02*
X125568000Y-107426000D01*
X126418000Y-105426000D02*
X125568000Y-105426000D01*
X147844000Y-118018000D02*
X147844000Y-117168000D01*
X149844000Y-118018000D02*
X149844000Y-117168000D01*
X130159000Y-117186000D02*
X130159000Y-118036000D01*
X128159000Y-117186000D02*
X128159000Y-118036000D01*
X117999000Y-90731000D02*
X117999000Y-89881000D01*
X119999000Y-90731000D02*
X119999000Y-89881000D01*
X190244300Y-78714000D02*
G75*
G03X190244300Y-78714000I-125300J0D01*
G01*
D15*
X188049000Y-79588000D02*
X188049000Y-80888000D01*
X189649000Y-80888000D02*
X189649000Y-79588000D01*
D11*
X156302576Y-112776082D02*
G75*
G03X156302576Y-112776082I-101980J0D01*
G01*
D14*
X153900596Y-111976082D02*
X153900596Y-111126082D01*
X155900596Y-111976082D02*
X155900596Y-111126082D01*
D11*
X159008980Y-112740000D02*
G75*
G03X159008980Y-112740000I-101980J0D01*
G01*
D14*
X156607000Y-111940000D02*
X156607000Y-111090000D01*
X158607000Y-111940000D02*
X158607000Y-111090000D01*
D11*
X161675980Y-112740000D02*
G75*
G03X161675980Y-112740000I-101980J0D01*
G01*
D14*
X159274000Y-111940000D02*
X159274000Y-111090000D01*
X161274000Y-111940000D02*
X161274000Y-111090000D01*
D16*
X109474000Y-114935000D02*
G75*
G03X109474000Y-114935000I-254000J0D01*
G01*
D14*
X113260000Y-113435000D02*
X110260000Y-113435000D01*
X110260000Y-113435000D02*
X110260000Y-121515000D01*
X110260000Y-121515000D02*
X113260000Y-121515000D01*
X113260000Y-121515000D02*
X113260000Y-113435000D01*
X187076000Y-70374000D02*
X187776000Y-70374000D01*
X187076000Y-72374000D02*
X187776000Y-72374000D01*
X194188000Y-87265000D02*
X194888000Y-87265000D01*
X194188000Y-89265000D02*
X194888000Y-89265000D01*
X187203000Y-65294000D02*
X187903000Y-65294000D01*
X187203000Y-67294000D02*
X187903000Y-67294000D01*
X137017000Y-83386000D02*
X137017000Y-84236000D01*
X134763000Y-83386000D02*
X134763000Y-84236000D01*
X134763000Y-72697000D02*
X134763000Y-71847000D01*
X137017000Y-72697000D02*
X137017000Y-71847000D01*
X128704000Y-74787000D02*
X127854000Y-74787000D01*
X128704000Y-72533000D02*
X127854000Y-72533000D01*
X133588000Y-95741000D02*
X133588000Y-96591000D01*
X131334000Y-95741000D02*
X131334000Y-96591000D01*
X130921000Y-95741000D02*
X130921000Y-96591000D01*
X128667000Y-95741000D02*
X128667000Y-96591000D01*
X128254000Y-95723000D02*
X128254000Y-96573000D01*
X126000000Y-95723000D02*
X126000000Y-96573000D01*
X134350000Y-71829000D02*
X134350000Y-72679000D01*
X132096000Y-71829000D02*
X132096000Y-72679000D01*
X124317000Y-75385000D02*
X124317000Y-76235000D01*
X122063000Y-75385000D02*
X122063000Y-76235000D01*
X191297000Y-101584000D02*
X190447000Y-101584000D01*
X191297000Y-99330000D02*
X190447000Y-99330000D01*
X156607000Y-88826000D02*
X156607000Y-87976000D01*
X158861000Y-88826000D02*
X158861000Y-87976000D01*
X169688000Y-82984000D02*
X169688000Y-82134000D01*
X171942000Y-82984000D02*
X171942000Y-82134000D01*
X183774000Y-88281000D02*
X184474000Y-88281000D01*
X183774000Y-90281000D02*
X184474000Y-90281000D01*
X156067000Y-87958000D02*
X156067000Y-88808000D01*
X153813000Y-87958000D02*
X153813000Y-88808000D01*
X165878000Y-99730000D02*
X165878000Y-98880000D01*
X168132000Y-99730000D02*
X168132000Y-98880000D01*
X130921000Y-111344000D02*
X130921000Y-112194000D01*
X128667000Y-111344000D02*
X128667000Y-112194000D01*
X142568000Y-111395000D02*
X143418000Y-111395000D01*
X142568000Y-113649000D02*
X143418000Y-113649000D01*
X112469000Y-64532000D02*
X113319000Y-64532000D01*
X112469000Y-66786000D02*
X113319000Y-66786000D01*
X120634000Y-76292000D02*
X120634000Y-77142000D01*
X118380000Y-76292000D02*
X118380000Y-77142000D01*
X112760000Y-91913000D02*
X112760000Y-92763000D01*
X110506000Y-91913000D02*
X110506000Y-92763000D01*
X114773000Y-90186000D02*
X115623000Y-90186000D01*
X114773000Y-92440000D02*
X115623000Y-92440000D01*
X119581000Y-118888000D02*
X120431000Y-118888000D01*
X119581000Y-121142000D02*
X120431000Y-121142000D01*
X117549000Y-116348000D02*
X118399000Y-116348000D01*
X117549000Y-118602000D02*
X118399000Y-118602000D01*
D11*
X115587214Y-72517000D02*
G75*
G03X115587214Y-72517000I-1414214J0D01*
G01*
X117173000Y-70517000D02*
X117173000Y-74517000D01*
X111173000Y-70517000D02*
X111173000Y-74517000D01*
X115587214Y-84582000D02*
G75*
G03X115587214Y-84582000I-1414214J0D01*
G01*
X117173000Y-82582000D02*
X117173000Y-86582000D01*
X111173000Y-82582000D02*
X111173000Y-86582000D01*
D17*
X135917803Y-86138000D02*
G75*
G03X135917803Y-86138000I-111803J0D01*
G01*
D11*
X137556000Y-89638000D02*
X136906000Y-89638000D01*
X137556000Y-86638000D02*
X136906000Y-86638000D01*
X137556000Y-87122000D02*
X137556000Y-86638000D01*
X137556000Y-89154000D02*
X137556000Y-89638000D01*
D18*
X127373300Y-75232000D02*
G75*
G03X127373300Y-75232000I-125300J0D01*
G01*
D11*
X128052000Y-75609000D02*
X132552000Y-75609000D01*
X128052000Y-81363000D02*
X132552000Y-81363000D01*
D12*
X166292178Y-86111000D02*
G75*
G03X166292178Y-86111000I-143178J0D01*
G01*
D11*
X165449000Y-85685000D02*
X161449000Y-85685000D01*
X165449000Y-80177000D02*
X161449000Y-80177000D01*
D12*
X174989178Y-79370000D02*
G75*
G03X174989178Y-79370000I-143178J0D01*
G01*
D11*
X175546000Y-79796000D02*
X179546000Y-79796000D01*
X175546000Y-85304000D02*
X179546000Y-85304000D01*
D19*
X165859072Y-71755000D02*
G75*
G03X165859072Y-71755000I-251072J0D01*
G01*
D11*
X171872000Y-66984000D02*
X173022000Y-66984000D01*
X166322000Y-66984000D02*
X167472000Y-66984000D01*
X173022000Y-66984000D02*
X173022000Y-70684000D01*
X166322000Y-66984000D02*
X166322000Y-70684000D01*
D19*
X154683072Y-71755000D02*
G75*
G03X154683072Y-71755000I-251072J0D01*
G01*
D11*
X160696000Y-66984000D02*
X161846000Y-66984000D01*
X155146000Y-66984000D02*
X156296000Y-66984000D01*
X161846000Y-66984000D02*
X161846000Y-70684000D01*
X155146000Y-66984000D02*
X155146000Y-70684000D01*
X138499000Y-97469000D02*
X138499000Y-106613000D01*
X138499000Y-106613000D02*
X147643000Y-106613000D01*
X147643000Y-106613000D02*
X147643000Y-97469000D01*
X147643000Y-97469000D02*
X138499000Y-97469000D01*
D16*
X138499000Y-107883000D02*
G75*
G03X138499000Y-107883000I-254000J0D01*
G01*
D19*
X129444000Y-109092000D02*
G75*
G03X129444000Y-109092000I-254000J0D01*
G01*
D11*
X125737000Y-108870000D02*
X122737000Y-108870000D01*
X128237000Y-112470000D02*
X128237000Y-109270000D01*
X122737000Y-112870000D02*
X125737000Y-112870000D01*
X120237000Y-109270000D02*
X120237000Y-112470000D01*
X144685000Y-114786000D02*
X144685000Y-114236000D01*
X144685000Y-114236000D02*
X133285000Y-114236000D01*
X133285000Y-114236000D02*
X133285000Y-114786000D01*
X144685000Y-118936000D02*
X144685000Y-118386000D01*
X133285000Y-118386000D02*
X133285000Y-118936000D01*
X144685000Y-118936000D02*
X133285000Y-118936000D01*
D16*
X138553000Y-75371000D02*
G75*
G03X138553000Y-75371000I-250000J0D01*
G01*
D11*
X143593000Y-73011000D02*
X138093000Y-73011000D01*
X143593000Y-61211000D02*
X138093000Y-61211000D01*
X138093000Y-73011000D02*
X138093000Y-61211000D01*
X143593000Y-73011000D02*
X143593000Y-61211000D01*
D20*
X203288000Y-122459000D02*
X189288000Y-122459000D01*
X203288000Y-111459000D02*
X189288000Y-111459000D01*
X189288000Y-122459000D02*
X189288000Y-111459000D01*
X203288000Y-111459000D02*
X203288000Y-122459000D01*
X178396000Y-122459000D02*
X164396000Y-122459000D01*
X178396000Y-111459000D02*
X164396000Y-111459000D01*
X164396000Y-122459000D02*
X164396000Y-111459000D01*
X178396000Y-111459000D02*
X178396000Y-122459000D01*
D16*
X201549000Y-84074000D02*
G75*
G03X201549000Y-84074000I-254000J0D01*
G01*
D11*
X190667000Y-86074000D02*
X200167000Y-86074000D01*
X190667000Y-64074000D02*
X190667000Y-86074000D01*
X190667000Y-64074000D02*
X200167000Y-64074000D01*
X200167000Y-86074000D02*
X200167000Y-64074000D01*
D14*
X133022000Y-83931000D02*
X132172000Y-83931000D01*
X133022000Y-81677000D02*
X132172000Y-81677000D01*
X127600000Y-81677000D02*
X128450000Y-81677000D01*
X127600000Y-83931000D02*
X128450000Y-83931000D01*
D18*
X132268433Y-87208000D02*
G75*
G03X132268433Y-87208000I-166433J0D01*
G01*
D11*
X131852000Y-87858000D02*
X131852000Y-90958000D01*
X128752000Y-87858000D02*
X128752000Y-90958000D01*
D20*
X186817000Y-101981000D02*
X186817000Y-98425000D01*
X186817000Y-98425000D02*
X178181000Y-98425000D01*
X178166000Y-101986000D02*
X178166000Y-98420000D01*
X186832000Y-101986000D02*
X178181000Y-101986000D01*
D11*
X152912980Y-81099000D02*
G75*
G03X152912980Y-81099000I-101980J0D01*
G01*
D14*
X150511000Y-80299000D02*
X150511000Y-79449000D01*
X152511000Y-80299000D02*
X152511000Y-79449000D01*
D11*
X148213980Y-81099000D02*
G75*
G03X148213980Y-81099000I-101980J0D01*
G01*
D14*
X145812000Y-80299000D02*
X145812000Y-79449000D01*
X147812000Y-80299000D02*
X147812000Y-79449000D01*
X150384000Y-75981000D02*
X150384000Y-75131000D01*
X152638000Y-75981000D02*
X152638000Y-75131000D01*
X145685000Y-75981000D02*
X145685000Y-75131000D01*
X147939000Y-75981000D02*
X147939000Y-75131000D01*
D16*
X109347000Y-96266000D02*
G75*
G03X109347000Y-96266000I-254000J0D01*
G01*
D14*
X113133000Y-94766000D02*
X110133000Y-94766000D01*
X110133000Y-94766000D02*
X110133000Y-110466000D01*
X110133000Y-110466000D02*
X113133000Y-110466000D01*
X113133000Y-110466000D02*
X113133000Y-94766000D01*
D16*
X147066000Y-66040000D02*
G75*
G03X147066000Y-66040000I-254000J0D01*
G01*
D14*
X150852000Y-64540000D02*
X147852000Y-64540000D01*
X147852000Y-64540000D02*
X147852000Y-70080000D01*
X147852000Y-70080000D02*
X150852000Y-70080000D01*
X150852000Y-70080000D02*
X150852000Y-64540000D01*
D11*
X165964809Y-77270571D02*
X165904333Y-77331048D01*
X165722904Y-77391524D01*
X165601952Y-77391524D01*
X165420524Y-77331048D01*
X165299571Y-77210095D01*
X165239095Y-77089143D01*
X165178619Y-76847238D01*
X165178619Y-76665810D01*
X165239095Y-76423905D01*
X165299571Y-76302952D01*
X165420524Y-76182000D01*
X165601952Y-76121524D01*
X165722904Y-76121524D01*
X165904333Y-76182000D01*
X165964809Y-76242476D01*
X166388143Y-76121524D02*
X167174333Y-76121524D01*
X166751000Y-76605333D01*
X166932428Y-76605333D01*
X167053381Y-76665810D01*
X167113857Y-76726286D01*
X167174333Y-76847238D01*
X167174333Y-77149619D01*
X167113857Y-77270571D01*
X167053381Y-77331048D01*
X166932428Y-77391524D01*
X166569571Y-77391524D01*
X166448619Y-77331048D01*
X166388143Y-77270571D01*
X167960524Y-76121524D02*
X168081476Y-76121524D01*
X168202428Y-76182000D01*
X168262905Y-76242476D01*
X168323381Y-76363429D01*
X168383857Y-76605333D01*
X168383857Y-76907714D01*
X168323381Y-77149619D01*
X168262905Y-77270571D01*
X168202428Y-77331048D01*
X168081476Y-77391524D01*
X167960524Y-77391524D01*
X167839571Y-77331048D01*
X167779095Y-77270571D01*
X167718619Y-77149619D01*
X167658143Y-76907714D01*
X167658143Y-76605333D01*
X167718619Y-76363429D01*
X167779095Y-76242476D01*
X167839571Y-76182000D01*
X167960524Y-76121524D01*
X168807191Y-76121524D02*
X169653857Y-76121524D01*
X169109572Y-77391524D01*
X198603809Y-95195571D02*
X198543333Y-95256048D01*
X198361904Y-95316524D01*
X198240952Y-95316524D01*
X198059524Y-95256048D01*
X197938571Y-95135095D01*
X197878095Y-95014143D01*
X197817619Y-94772238D01*
X197817619Y-94590810D01*
X197878095Y-94348905D01*
X197938571Y-94227952D01*
X198059524Y-94107000D01*
X198240952Y-94046524D01*
X198361904Y-94046524D01*
X198543333Y-94107000D01*
X198603809Y-94167476D01*
X199692381Y-94469857D02*
X199692381Y-95316524D01*
X199390000Y-93986048D02*
X199087619Y-94893190D01*
X199873809Y-94893190D01*
X200599524Y-94046524D02*
X200720476Y-94046524D01*
X200841428Y-94107000D01*
X200901905Y-94167476D01*
X200962381Y-94288429D01*
X201022857Y-94530333D01*
X201022857Y-94832714D01*
X200962381Y-95074619D01*
X200901905Y-95195571D01*
X200841428Y-95256048D01*
X200720476Y-95316524D01*
X200599524Y-95316524D01*
X200478571Y-95256048D01*
X200418095Y-95195571D01*
X200357619Y-95074619D01*
X200297143Y-94832714D01*
X200297143Y-94530333D01*
X200357619Y-94288429D01*
X200418095Y-94167476D01*
X200478571Y-94107000D01*
X200599524Y-94046524D01*
X202111429Y-94469857D02*
X202111429Y-95316524D01*
X201809048Y-93986048D02*
X201506667Y-94893190D01*
X202292857Y-94893190D01*
X198603809Y-93290571D02*
X198543333Y-93351048D01*
X198361904Y-93411524D01*
X198240952Y-93411524D01*
X198059524Y-93351048D01*
X197938571Y-93230095D01*
X197878095Y-93109143D01*
X197817619Y-92867238D01*
X197817619Y-92685810D01*
X197878095Y-92443905D01*
X197938571Y-92322952D01*
X198059524Y-92202000D01*
X198240952Y-92141524D01*
X198361904Y-92141524D01*
X198543333Y-92202000D01*
X198603809Y-92262476D01*
X199692381Y-92564857D02*
X199692381Y-93411524D01*
X199390000Y-92081048D02*
X199087619Y-92988190D01*
X199873809Y-92988190D01*
X200599524Y-92141524D02*
X200720476Y-92141524D01*
X200841428Y-92202000D01*
X200901905Y-92262476D01*
X200962381Y-92383429D01*
X201022857Y-92625333D01*
X201022857Y-92927714D01*
X200962381Y-93169619D01*
X200901905Y-93290571D01*
X200841428Y-93351048D01*
X200720476Y-93411524D01*
X200599524Y-93411524D01*
X200478571Y-93351048D01*
X200418095Y-93290571D01*
X200357619Y-93169619D01*
X200297143Y-92927714D01*
X200297143Y-92625333D01*
X200357619Y-92383429D01*
X200418095Y-92262476D01*
X200478571Y-92202000D01*
X200599524Y-92141524D01*
X202171905Y-92141524D02*
X201567143Y-92141524D01*
X201506667Y-92746286D01*
X201567143Y-92685810D01*
X201688095Y-92625333D01*
X201990476Y-92625333D01*
X202111429Y-92685810D01*
X202171905Y-92746286D01*
X202232381Y-92867238D01*
X202232381Y-93169619D01*
X202171905Y-93290571D01*
X202111429Y-93351048D01*
X201990476Y-93411524D01*
X201688095Y-93411524D01*
X201567143Y-93351048D01*
X201506667Y-93290571D01*
X175713571Y-90702191D02*
X175774048Y-90762667D01*
X175834524Y-90944096D01*
X175834524Y-91065048D01*
X175774048Y-91246476D01*
X175653095Y-91367429D01*
X175532143Y-91427905D01*
X175290238Y-91488381D01*
X175108810Y-91488381D01*
X174866905Y-91427905D01*
X174745952Y-91367429D01*
X174625000Y-91246476D01*
X174564524Y-91065048D01*
X174564524Y-90944096D01*
X174625000Y-90762667D01*
X174685476Y-90702191D01*
X174987857Y-89613619D02*
X175834524Y-89613619D01*
X174504048Y-89916000D02*
X175411190Y-90218381D01*
X175411190Y-89432191D01*
X175834524Y-88283143D02*
X175834524Y-89008857D01*
X175834524Y-88646000D02*
X174564524Y-88646000D01*
X174745952Y-88766952D01*
X174866905Y-88887905D01*
X174927381Y-89008857D01*
X174685476Y-87799333D02*
X174625000Y-87738857D01*
X174564524Y-87617905D01*
X174564524Y-87315524D01*
X174625000Y-87194571D01*
X174685476Y-87134095D01*
X174806429Y-87073619D01*
X174927381Y-87073619D01*
X175108810Y-87134095D01*
X175834524Y-87859809D01*
X175834524Y-87073619D01*
X173173571Y-90702191D02*
X173234048Y-90762667D01*
X173294524Y-90944096D01*
X173294524Y-91065048D01*
X173234048Y-91246476D01*
X173113095Y-91367429D01*
X172992143Y-91427905D01*
X172750238Y-91488381D01*
X172568810Y-91488381D01*
X172326905Y-91427905D01*
X172205952Y-91367429D01*
X172085000Y-91246476D01*
X172024524Y-91065048D01*
X172024524Y-90944096D01*
X172085000Y-90762667D01*
X172145476Y-90702191D01*
X172447857Y-89613619D02*
X173294524Y-89613619D01*
X171964048Y-89916000D02*
X172871190Y-90218381D01*
X172871190Y-89432191D01*
X173294524Y-88283143D02*
X173294524Y-89008857D01*
X173294524Y-88646000D02*
X172024524Y-88646000D01*
X172205952Y-88766952D01*
X172326905Y-88887905D01*
X172387381Y-89008857D01*
X172024524Y-87859809D02*
X172024524Y-87073619D01*
X172508333Y-87496952D01*
X172508333Y-87315524D01*
X172568810Y-87194571D01*
X172629286Y-87134095D01*
X172750238Y-87073619D01*
X173052619Y-87073619D01*
X173173571Y-87134095D01*
X173234048Y-87194571D01*
X173294524Y-87315524D01*
X173294524Y-87678381D01*
X173234048Y-87799333D01*
X173173571Y-87859809D01*
X170379571Y-90702191D02*
X170440048Y-90762667D01*
X170500524Y-90944096D01*
X170500524Y-91065048D01*
X170440048Y-91246476D01*
X170319095Y-91367429D01*
X170198143Y-91427905D01*
X169956238Y-91488381D01*
X169774810Y-91488381D01*
X169532905Y-91427905D01*
X169411952Y-91367429D01*
X169291000Y-91246476D01*
X169230524Y-91065048D01*
X169230524Y-90944096D01*
X169291000Y-90762667D01*
X169351476Y-90702191D01*
X169653857Y-89613619D02*
X170500524Y-89613619D01*
X169170048Y-89916000D02*
X170077190Y-90218381D01*
X170077190Y-89432191D01*
X170500524Y-88283143D02*
X170500524Y-89008857D01*
X170500524Y-88646000D02*
X169230524Y-88646000D01*
X169411952Y-88766952D01*
X169532905Y-88887905D01*
X169593381Y-89008857D01*
X169653857Y-87194571D02*
X170500524Y-87194571D01*
X169170048Y-87496952D02*
X170077190Y-87799333D01*
X170077190Y-87013143D01*
X175205571Y-76732191D02*
X175266048Y-76792667D01*
X175326524Y-76974096D01*
X175326524Y-77095048D01*
X175266048Y-77276476D01*
X175145095Y-77397429D01*
X175024143Y-77457905D01*
X174782238Y-77518381D01*
X174600810Y-77518381D01*
X174358905Y-77457905D01*
X174237952Y-77397429D01*
X174117000Y-77276476D01*
X174056524Y-77095048D01*
X174056524Y-76974096D01*
X174117000Y-76792667D01*
X174177476Y-76732191D01*
X174479857Y-75643619D02*
X175326524Y-75643619D01*
X173996048Y-75946000D02*
X174903190Y-76248381D01*
X174903190Y-75462191D01*
X175326524Y-74313143D02*
X175326524Y-75038857D01*
X175326524Y-74676000D02*
X174056524Y-74676000D01*
X174237952Y-74796952D01*
X174358905Y-74917905D01*
X174419381Y-75038857D01*
X174056524Y-73224571D02*
X174056524Y-73466476D01*
X174117000Y-73587428D01*
X174177476Y-73647905D01*
X174358905Y-73768857D01*
X174600810Y-73829333D01*
X175084619Y-73829333D01*
X175205571Y-73768857D01*
X175266048Y-73708381D01*
X175326524Y-73587428D01*
X175326524Y-73345524D01*
X175266048Y-73224571D01*
X175205571Y-73164095D01*
X175084619Y-73103619D01*
X174782238Y-73103619D01*
X174661286Y-73164095D01*
X174600810Y-73224571D01*
X174540333Y-73345524D01*
X174540333Y-73587428D01*
X174600810Y-73708381D01*
X174661286Y-73768857D01*
X174782238Y-73829333D01*
X119863809Y-115769571D02*
X119803333Y-115830048D01*
X119621904Y-115890524D01*
X119500952Y-115890524D01*
X119319524Y-115830048D01*
X119198571Y-115709095D01*
X119138095Y-115588143D01*
X119077619Y-115346238D01*
X119077619Y-115164810D01*
X119138095Y-114922905D01*
X119198571Y-114801952D01*
X119319524Y-114681000D01*
X119500952Y-114620524D01*
X119621904Y-114620524D01*
X119803333Y-114681000D01*
X119863809Y-114741476D01*
X121012857Y-114620524D02*
X120408095Y-114620524D01*
X120347619Y-115225286D01*
X120408095Y-115164810D01*
X120529047Y-115104333D01*
X120831428Y-115104333D01*
X120952381Y-115164810D01*
X121012857Y-115225286D01*
X121073333Y-115346238D01*
X121073333Y-115648619D01*
X121012857Y-115769571D01*
X120952381Y-115830048D01*
X120831428Y-115890524D01*
X120529047Y-115890524D01*
X120408095Y-115830048D01*
X120347619Y-115769571D01*
X121859524Y-114620524D02*
X121980476Y-114620524D01*
X122101428Y-114681000D01*
X122161905Y-114741476D01*
X122222381Y-114862429D01*
X122282857Y-115104333D01*
X122282857Y-115406714D01*
X122222381Y-115648619D01*
X122161905Y-115769571D01*
X122101428Y-115830048D01*
X121980476Y-115890524D01*
X121859524Y-115890524D01*
X121738571Y-115830048D01*
X121678095Y-115769571D01*
X121617619Y-115648619D01*
X121557143Y-115406714D01*
X121557143Y-115104333D01*
X121617619Y-114862429D01*
X121678095Y-114741476D01*
X121738571Y-114681000D01*
X121859524Y-114620524D01*
X123492381Y-115890524D02*
X122766667Y-115890524D01*
X123129524Y-115890524D02*
X123129524Y-114620524D01*
X123008572Y-114801952D01*
X122887619Y-114922905D01*
X122766667Y-114983381D01*
X124435809Y-104847571D02*
X124375333Y-104908048D01*
X124193904Y-104968524D01*
X124072952Y-104968524D01*
X123891524Y-104908048D01*
X123770571Y-104787095D01*
X123710095Y-104666143D01*
X123649619Y-104424238D01*
X123649619Y-104242810D01*
X123710095Y-104000905D01*
X123770571Y-103879952D01*
X123891524Y-103759000D01*
X124072952Y-103698524D01*
X124193904Y-103698524D01*
X124375333Y-103759000D01*
X124435809Y-103819476D01*
X125584857Y-103698524D02*
X124980095Y-103698524D01*
X124919619Y-104303286D01*
X124980095Y-104242810D01*
X125101047Y-104182333D01*
X125403428Y-104182333D01*
X125524381Y-104242810D01*
X125584857Y-104303286D01*
X125645333Y-104424238D01*
X125645333Y-104726619D01*
X125584857Y-104847571D01*
X125524381Y-104908048D01*
X125403428Y-104968524D01*
X125101047Y-104968524D01*
X124980095Y-104908048D01*
X124919619Y-104847571D01*
X126431524Y-103698524D02*
X126552476Y-103698524D01*
X126673428Y-103759000D01*
X126733905Y-103819476D01*
X126794381Y-103940429D01*
X126854857Y-104182333D01*
X126854857Y-104484714D01*
X126794381Y-104726619D01*
X126733905Y-104847571D01*
X126673428Y-104908048D01*
X126552476Y-104968524D01*
X126431524Y-104968524D01*
X126310571Y-104908048D01*
X126250095Y-104847571D01*
X126189619Y-104726619D01*
X126129143Y-104484714D01*
X126129143Y-104182333D01*
X126189619Y-103940429D01*
X126250095Y-103819476D01*
X126310571Y-103759000D01*
X126431524Y-103698524D01*
X127338667Y-103819476D02*
X127399143Y-103759000D01*
X127520095Y-103698524D01*
X127822476Y-103698524D01*
X127943429Y-103759000D01*
X128003905Y-103819476D01*
X128064381Y-103940429D01*
X128064381Y-104061381D01*
X128003905Y-104242810D01*
X127278191Y-104968524D01*
X128064381Y-104968524D01*
X151456571Y-118769191D02*
X151517048Y-118829667D01*
X151577524Y-119011096D01*
X151577524Y-119132048D01*
X151517048Y-119313476D01*
X151396095Y-119434429D01*
X151275143Y-119494905D01*
X151033238Y-119555381D01*
X150851810Y-119555381D01*
X150609905Y-119494905D01*
X150488952Y-119434429D01*
X150368000Y-119313476D01*
X150307524Y-119132048D01*
X150307524Y-119011096D01*
X150368000Y-118829667D01*
X150428476Y-118769191D01*
X150307524Y-117620143D02*
X150307524Y-118224905D01*
X150912286Y-118285381D01*
X150851810Y-118224905D01*
X150791333Y-118103953D01*
X150791333Y-117801572D01*
X150851810Y-117680619D01*
X150912286Y-117620143D01*
X151033238Y-117559667D01*
X151335619Y-117559667D01*
X151456571Y-117620143D01*
X151517048Y-117680619D01*
X151577524Y-117801572D01*
X151577524Y-118103953D01*
X151517048Y-118224905D01*
X151456571Y-118285381D01*
X150307524Y-116773476D02*
X150307524Y-116652524D01*
X150368000Y-116531572D01*
X150428476Y-116471095D01*
X150549429Y-116410619D01*
X150791333Y-116350143D01*
X151093714Y-116350143D01*
X151335619Y-116410619D01*
X151456571Y-116471095D01*
X151517048Y-116531572D01*
X151577524Y-116652524D01*
X151577524Y-116773476D01*
X151517048Y-116894429D01*
X151456571Y-116954905D01*
X151335619Y-117015381D01*
X151093714Y-117075857D01*
X150791333Y-117075857D01*
X150549429Y-117015381D01*
X150428476Y-116954905D01*
X150368000Y-116894429D01*
X150307524Y-116773476D01*
X150307524Y-115201095D02*
X150307524Y-115805857D01*
X150912286Y-115866333D01*
X150851810Y-115805857D01*
X150791333Y-115684905D01*
X150791333Y-115382524D01*
X150851810Y-115261571D01*
X150912286Y-115201095D01*
X151033238Y-115140619D01*
X151335619Y-115140619D01*
X151456571Y-115201095D01*
X151517048Y-115261571D01*
X151577524Y-115382524D01*
X151577524Y-115684905D01*
X151517048Y-115805857D01*
X151456571Y-115866333D01*
X128499809Y-121103571D02*
X128439333Y-121164048D01*
X128257904Y-121224524D01*
X128136952Y-121224524D01*
X127955524Y-121164048D01*
X127834571Y-121043095D01*
X127774095Y-120922143D01*
X127713619Y-120680238D01*
X127713619Y-120498810D01*
X127774095Y-120256905D01*
X127834571Y-120135952D01*
X127955524Y-120015000D01*
X128136952Y-119954524D01*
X128257904Y-119954524D01*
X128439333Y-120015000D01*
X128499809Y-120075476D01*
X129648857Y-119954524D02*
X129044095Y-119954524D01*
X128983619Y-120559286D01*
X129044095Y-120498810D01*
X129165047Y-120438333D01*
X129467428Y-120438333D01*
X129588381Y-120498810D01*
X129648857Y-120559286D01*
X129709333Y-120680238D01*
X129709333Y-120982619D01*
X129648857Y-121103571D01*
X129588381Y-121164048D01*
X129467428Y-121224524D01*
X129165047Y-121224524D01*
X129044095Y-121164048D01*
X128983619Y-121103571D01*
X130495524Y-119954524D02*
X130616476Y-119954524D01*
X130737428Y-120015000D01*
X130797905Y-120075476D01*
X130858381Y-120196429D01*
X130918857Y-120438333D01*
X130918857Y-120740714D01*
X130858381Y-120982619D01*
X130797905Y-121103571D01*
X130737428Y-121164048D01*
X130616476Y-121224524D01*
X130495524Y-121224524D01*
X130374571Y-121164048D01*
X130314095Y-121103571D01*
X130253619Y-120982619D01*
X130193143Y-120740714D01*
X130193143Y-120438333D01*
X130253619Y-120196429D01*
X130314095Y-120075476D01*
X130374571Y-120015000D01*
X130495524Y-119954524D01*
X132007429Y-119954524D02*
X131765524Y-119954524D01*
X131644572Y-120015000D01*
X131584095Y-120075476D01*
X131463143Y-120256905D01*
X131402667Y-120498810D01*
X131402667Y-120982619D01*
X131463143Y-121103571D01*
X131523619Y-121164048D01*
X131644572Y-121224524D01*
X131886476Y-121224524D01*
X132007429Y-121164048D01*
X132067905Y-121103571D01*
X132128381Y-120982619D01*
X132128381Y-120680238D01*
X132067905Y-120559286D01*
X132007429Y-120498810D01*
X131886476Y-120438333D01*
X131644572Y-120438333D01*
X131523619Y-120498810D01*
X131463143Y-120559286D01*
X131402667Y-120680238D01*
X121738571Y-91845191D02*
X121799048Y-91905667D01*
X121859524Y-92087096D01*
X121859524Y-92208048D01*
X121799048Y-92389476D01*
X121678095Y-92510429D01*
X121557143Y-92570905D01*
X121315238Y-92631381D01*
X121133810Y-92631381D01*
X120891905Y-92570905D01*
X120770952Y-92510429D01*
X120650000Y-92389476D01*
X120589524Y-92208048D01*
X120589524Y-92087096D01*
X120650000Y-91905667D01*
X120710476Y-91845191D01*
X120589524Y-90696143D02*
X120589524Y-91300905D01*
X121194286Y-91361381D01*
X121133810Y-91300905D01*
X121073333Y-91179953D01*
X121073333Y-90877572D01*
X121133810Y-90756619D01*
X121194286Y-90696143D01*
X121315238Y-90635667D01*
X121617619Y-90635667D01*
X121738571Y-90696143D01*
X121799048Y-90756619D01*
X121859524Y-90877572D01*
X121859524Y-91179953D01*
X121799048Y-91300905D01*
X121738571Y-91361381D01*
X121859524Y-89426143D02*
X121859524Y-90151857D01*
X121859524Y-89789000D02*
X120589524Y-89789000D01*
X120770952Y-89909952D01*
X120891905Y-90030905D01*
X120952381Y-90151857D01*
X121012857Y-88337571D02*
X121859524Y-88337571D01*
X120529048Y-88639952D02*
X121436190Y-88942333D01*
X121436190Y-88156143D01*
X187264524Y-82283905D02*
X185994524Y-82283905D01*
X185994524Y-81981524D01*
X186055000Y-81800096D01*
X186175952Y-81679143D01*
X186296905Y-81618667D01*
X186538810Y-81558191D01*
X186720238Y-81558191D01*
X186962143Y-81618667D01*
X187083095Y-81679143D01*
X187204048Y-81800096D01*
X187264524Y-81981524D01*
X187264524Y-82283905D01*
X186417857Y-80469619D02*
X187264524Y-80469619D01*
X185934048Y-80772000D02*
X186841190Y-81074381D01*
X186841190Y-80288191D01*
X185994524Y-79562476D02*
X185994524Y-79441524D01*
X186055000Y-79320572D01*
X186115476Y-79260095D01*
X186236429Y-79199619D01*
X186478333Y-79139143D01*
X186780714Y-79139143D01*
X187022619Y-79199619D01*
X187143571Y-79260095D01*
X187204048Y-79320572D01*
X187264524Y-79441524D01*
X187264524Y-79562476D01*
X187204048Y-79683429D01*
X187143571Y-79743905D01*
X187022619Y-79804381D01*
X186780714Y-79864857D01*
X186478333Y-79864857D01*
X186236429Y-79804381D01*
X186115476Y-79743905D01*
X186055000Y-79683429D01*
X185994524Y-79562476D01*
X187264524Y-77929619D02*
X187264524Y-78655333D01*
X187264524Y-78292476D02*
X185994524Y-78292476D01*
X186175952Y-78413428D01*
X186296905Y-78534381D01*
X186357381Y-78655333D01*
X155514524Y-108826905D02*
X154244524Y-108826905D01*
X154244524Y-108524524D01*
X154305000Y-108343096D01*
X154425952Y-108222143D01*
X154546905Y-108161667D01*
X154788810Y-108101191D01*
X154970238Y-108101191D01*
X155212143Y-108161667D01*
X155333095Y-108222143D01*
X155454048Y-108343096D01*
X155514524Y-108524524D01*
X155514524Y-108826905D01*
X154244524Y-106952143D02*
X154244524Y-107556905D01*
X154849286Y-107617381D01*
X154788810Y-107556905D01*
X154728333Y-107435953D01*
X154728333Y-107133572D01*
X154788810Y-107012619D01*
X154849286Y-106952143D01*
X154970238Y-106891667D01*
X155272619Y-106891667D01*
X155393571Y-106952143D01*
X155454048Y-107012619D01*
X155514524Y-107133572D01*
X155514524Y-107435953D01*
X155454048Y-107556905D01*
X155393571Y-107617381D01*
X154244524Y-106105476D02*
X154244524Y-105984524D01*
X154305000Y-105863572D01*
X154365476Y-105803095D01*
X154486429Y-105742619D01*
X154728333Y-105682143D01*
X155030714Y-105682143D01*
X155272619Y-105742619D01*
X155393571Y-105803095D01*
X155454048Y-105863572D01*
X155514524Y-105984524D01*
X155514524Y-106105476D01*
X155454048Y-106226429D01*
X155393571Y-106286905D01*
X155272619Y-106347381D01*
X155030714Y-106407857D01*
X154728333Y-106407857D01*
X154486429Y-106347381D01*
X154365476Y-106286905D01*
X154305000Y-106226429D01*
X154244524Y-106105476D01*
X155514524Y-104472619D02*
X155514524Y-105198333D01*
X155514524Y-104835476D02*
X154244524Y-104835476D01*
X154425952Y-104956428D01*
X154546905Y-105077381D01*
X154607381Y-105198333D01*
X158308524Y-108826905D02*
X157038524Y-108826905D01*
X157038524Y-108524524D01*
X157099000Y-108343096D01*
X157219952Y-108222143D01*
X157340905Y-108161667D01*
X157582810Y-108101191D01*
X157764238Y-108101191D01*
X158006143Y-108161667D01*
X158127095Y-108222143D01*
X158248048Y-108343096D01*
X158308524Y-108524524D01*
X158308524Y-108826905D01*
X157038524Y-106952143D02*
X157038524Y-107556905D01*
X157643286Y-107617381D01*
X157582810Y-107556905D01*
X157522333Y-107435953D01*
X157522333Y-107133572D01*
X157582810Y-107012619D01*
X157643286Y-106952143D01*
X157764238Y-106891667D01*
X158066619Y-106891667D01*
X158187571Y-106952143D01*
X158248048Y-107012619D01*
X158308524Y-107133572D01*
X158308524Y-107435953D01*
X158248048Y-107556905D01*
X158187571Y-107617381D01*
X157038524Y-106105476D02*
X157038524Y-105984524D01*
X157099000Y-105863572D01*
X157159476Y-105803095D01*
X157280429Y-105742619D01*
X157522333Y-105682143D01*
X157824714Y-105682143D01*
X158066619Y-105742619D01*
X158187571Y-105803095D01*
X158248048Y-105863572D01*
X158308524Y-105984524D01*
X158308524Y-106105476D01*
X158248048Y-106226429D01*
X158187571Y-106286905D01*
X158066619Y-106347381D01*
X157824714Y-106407857D01*
X157522333Y-106407857D01*
X157280429Y-106347381D01*
X157159476Y-106286905D01*
X157099000Y-106226429D01*
X157038524Y-106105476D01*
X157159476Y-105198333D02*
X157099000Y-105137857D01*
X157038524Y-105016905D01*
X157038524Y-104714524D01*
X157099000Y-104593571D01*
X157159476Y-104533095D01*
X157280429Y-104472619D01*
X157401381Y-104472619D01*
X157582810Y-104533095D01*
X158308524Y-105258809D01*
X158308524Y-104472619D01*
X160848524Y-108826905D02*
X159578524Y-108826905D01*
X159578524Y-108524524D01*
X159639000Y-108343096D01*
X159759952Y-108222143D01*
X159880905Y-108161667D01*
X160122810Y-108101191D01*
X160304238Y-108101191D01*
X160546143Y-108161667D01*
X160667095Y-108222143D01*
X160788048Y-108343096D01*
X160848524Y-108524524D01*
X160848524Y-108826905D01*
X159578524Y-106952143D02*
X159578524Y-107556905D01*
X160183286Y-107617381D01*
X160122810Y-107556905D01*
X160062333Y-107435953D01*
X160062333Y-107133572D01*
X160122810Y-107012619D01*
X160183286Y-106952143D01*
X160304238Y-106891667D01*
X160606619Y-106891667D01*
X160727571Y-106952143D01*
X160788048Y-107012619D01*
X160848524Y-107133572D01*
X160848524Y-107435953D01*
X160788048Y-107556905D01*
X160727571Y-107617381D01*
X159578524Y-106105476D02*
X159578524Y-105984524D01*
X159639000Y-105863572D01*
X159699476Y-105803095D01*
X159820429Y-105742619D01*
X160062333Y-105682143D01*
X160364714Y-105682143D01*
X160606619Y-105742619D01*
X160727571Y-105803095D01*
X160788048Y-105863572D01*
X160848524Y-105984524D01*
X160848524Y-106105476D01*
X160788048Y-106226429D01*
X160727571Y-106286905D01*
X160606619Y-106347381D01*
X160364714Y-106407857D01*
X160062333Y-106407857D01*
X159820429Y-106347381D01*
X159699476Y-106286905D01*
X159639000Y-106226429D01*
X159578524Y-106105476D01*
X159578524Y-105258809D02*
X159578524Y-104472619D01*
X160062333Y-104895952D01*
X160062333Y-104714524D01*
X160122810Y-104593571D01*
X160183286Y-104533095D01*
X160304238Y-104472619D01*
X160606619Y-104472619D01*
X160727571Y-104533095D01*
X160788048Y-104593571D01*
X160848524Y-104714524D01*
X160848524Y-105077381D01*
X160788048Y-105198333D01*
X160727571Y-105258809D01*
X110000143Y-111699524D02*
X110000143Y-112606667D01*
X109939667Y-112788095D01*
X109818715Y-112909048D01*
X109637286Y-112969524D01*
X109516334Y-112969524D01*
X111209667Y-111699524D02*
X110604905Y-111699524D01*
X110544429Y-112304286D01*
X110604905Y-112243810D01*
X110725857Y-112183333D01*
X111028238Y-112183333D01*
X111149191Y-112243810D01*
X111209667Y-112304286D01*
X111270143Y-112425238D01*
X111270143Y-112727619D01*
X111209667Y-112848571D01*
X111149191Y-112909048D01*
X111028238Y-112969524D01*
X110725857Y-112969524D01*
X110604905Y-112909048D01*
X110544429Y-112848571D01*
X112056334Y-111699524D02*
X112177286Y-111699524D01*
X112298238Y-111760000D01*
X112358715Y-111820476D01*
X112419191Y-111941429D01*
X112479667Y-112183333D01*
X112479667Y-112485714D01*
X112419191Y-112727619D01*
X112358715Y-112848571D01*
X112298238Y-112909048D01*
X112177286Y-112969524D01*
X112056334Y-112969524D01*
X111935381Y-112909048D01*
X111874905Y-112848571D01*
X111814429Y-112727619D01*
X111753953Y-112485714D01*
X111753953Y-112183333D01*
X111814429Y-111941429D01*
X111874905Y-111820476D01*
X111935381Y-111760000D01*
X112056334Y-111699524D01*
X112963477Y-111820476D02*
X113023953Y-111760000D01*
X113144905Y-111699524D01*
X113447286Y-111699524D01*
X113568239Y-111760000D01*
X113628715Y-111820476D01*
X113689191Y-111941429D01*
X113689191Y-112062381D01*
X113628715Y-112243810D01*
X112903001Y-112969524D01*
X113689191Y-112969524D01*
X186244810Y-69898524D02*
X185640048Y-69898524D01*
X185640048Y-68628524D01*
X187212429Y-69051857D02*
X187212429Y-69898524D01*
X186910048Y-68568048D02*
X186607667Y-69475190D01*
X187393857Y-69475190D01*
X188119572Y-68628524D02*
X188240524Y-68628524D01*
X188361476Y-68689000D01*
X188421953Y-68749476D01*
X188482429Y-68870429D01*
X188542905Y-69112333D01*
X188542905Y-69414714D01*
X188482429Y-69656619D01*
X188421953Y-69777571D01*
X188361476Y-69838048D01*
X188240524Y-69898524D01*
X188119572Y-69898524D01*
X187998619Y-69838048D01*
X187938143Y-69777571D01*
X187877667Y-69656619D01*
X187817191Y-69414714D01*
X187817191Y-69112333D01*
X187877667Y-68870429D01*
X187938143Y-68749476D01*
X187998619Y-68689000D01*
X188119572Y-68628524D01*
X189752429Y-69898524D02*
X189026715Y-69898524D01*
X189389572Y-69898524D02*
X189389572Y-68628524D01*
X189268620Y-68809952D01*
X189147667Y-68930905D01*
X189026715Y-68991381D01*
X188062810Y-87823524D02*
X187458048Y-87823524D01*
X187458048Y-86553524D01*
X189030429Y-86976857D02*
X189030429Y-87823524D01*
X188728048Y-86493048D02*
X188425667Y-87400190D01*
X189211857Y-87400190D01*
X189937572Y-86553524D02*
X190058524Y-86553524D01*
X190179476Y-86614000D01*
X190239953Y-86674476D01*
X190300429Y-86795429D01*
X190360905Y-87037333D01*
X190360905Y-87339714D01*
X190300429Y-87581619D01*
X190239953Y-87702571D01*
X190179476Y-87763048D01*
X190058524Y-87823524D01*
X189937572Y-87823524D01*
X189816619Y-87763048D01*
X189756143Y-87702571D01*
X189695667Y-87581619D01*
X189635191Y-87339714D01*
X189635191Y-87037333D01*
X189695667Y-86795429D01*
X189756143Y-86674476D01*
X189816619Y-86614000D01*
X189937572Y-86553524D01*
X190844715Y-86674476D02*
X190905191Y-86614000D01*
X191026143Y-86553524D01*
X191328524Y-86553524D01*
X191449477Y-86614000D01*
X191509953Y-86674476D01*
X191570429Y-86795429D01*
X191570429Y-86916381D01*
X191509953Y-87097810D01*
X190784239Y-87823524D01*
X191570429Y-87823524D01*
X186371810Y-64818524D02*
X185767048Y-64818524D01*
X185767048Y-63548524D01*
X187339429Y-63971857D02*
X187339429Y-64818524D01*
X187037048Y-63488048D02*
X186734667Y-64395190D01*
X187520857Y-64395190D01*
X188246572Y-63548524D02*
X188367524Y-63548524D01*
X188488476Y-63609000D01*
X188548953Y-63669476D01*
X188609429Y-63790429D01*
X188669905Y-64032333D01*
X188669905Y-64334714D01*
X188609429Y-64576619D01*
X188548953Y-64697571D01*
X188488476Y-64758048D01*
X188367524Y-64818524D01*
X188246572Y-64818524D01*
X188125619Y-64758048D01*
X188065143Y-64697571D01*
X188004667Y-64576619D01*
X187944191Y-64334714D01*
X187944191Y-64032333D01*
X188004667Y-63790429D01*
X188065143Y-63669476D01*
X188125619Y-63609000D01*
X188246572Y-63548524D01*
X189093239Y-63548524D02*
X189879429Y-63548524D01*
X189456096Y-64032333D01*
X189637524Y-64032333D01*
X189758477Y-64092810D01*
X189818953Y-64153286D01*
X189879429Y-64274238D01*
X189879429Y-64576619D01*
X189818953Y-64697571D01*
X189758477Y-64758048D01*
X189637524Y-64818524D01*
X189274667Y-64818524D01*
X189153715Y-64758048D01*
X189093239Y-64697571D01*
X139004524Y-85241191D02*
X138399762Y-85664524D01*
X139004524Y-85966905D02*
X137734524Y-85966905D01*
X137734524Y-85483096D01*
X137795000Y-85362143D01*
X137855476Y-85301667D01*
X137976429Y-85241191D01*
X138157857Y-85241191D01*
X138278810Y-85301667D01*
X138339286Y-85362143D01*
X138399762Y-85483096D01*
X138399762Y-85966905D01*
X137855476Y-84757381D02*
X137795000Y-84696905D01*
X137734524Y-84575953D01*
X137734524Y-84273572D01*
X137795000Y-84152619D01*
X137855476Y-84092143D01*
X137976429Y-84031667D01*
X138097381Y-84031667D01*
X138278810Y-84092143D01*
X139004524Y-84817857D01*
X139004524Y-84031667D01*
X137734524Y-83245476D02*
X137734524Y-83124524D01*
X137795000Y-83003572D01*
X137855476Y-82943095D01*
X137976429Y-82882619D01*
X138218333Y-82822143D01*
X138520714Y-82822143D01*
X138762619Y-82882619D01*
X138883571Y-82943095D01*
X138944048Y-83003572D01*
X139004524Y-83124524D01*
X139004524Y-83245476D01*
X138944048Y-83366429D01*
X138883571Y-83426905D01*
X138762619Y-83487381D01*
X138520714Y-83547857D01*
X138218333Y-83547857D01*
X137976429Y-83487381D01*
X137855476Y-83426905D01*
X137795000Y-83366429D01*
X137734524Y-83245476D01*
X137855476Y-82338333D02*
X137795000Y-82277857D01*
X137734524Y-82156905D01*
X137734524Y-81854524D01*
X137795000Y-81733571D01*
X137855476Y-81673095D01*
X137976429Y-81612619D01*
X138097381Y-81612619D01*
X138278810Y-81673095D01*
X139004524Y-82398809D01*
X139004524Y-81612619D01*
X136718524Y-68985191D02*
X136113762Y-69408524D01*
X136718524Y-69710905D02*
X135448524Y-69710905D01*
X135448524Y-69227096D01*
X135509000Y-69106143D01*
X135569476Y-69045667D01*
X135690429Y-68985191D01*
X135871857Y-68985191D01*
X135992810Y-69045667D01*
X136053286Y-69106143D01*
X136113762Y-69227096D01*
X136113762Y-69710905D01*
X135569476Y-68501381D02*
X135509000Y-68440905D01*
X135448524Y-68319953D01*
X135448524Y-68017572D01*
X135509000Y-67896619D01*
X135569476Y-67836143D01*
X135690429Y-67775667D01*
X135811381Y-67775667D01*
X135992810Y-67836143D01*
X136718524Y-68561857D01*
X136718524Y-67775667D01*
X135448524Y-66989476D02*
X135448524Y-66868524D01*
X135509000Y-66747572D01*
X135569476Y-66687095D01*
X135690429Y-66626619D01*
X135932333Y-66566143D01*
X136234714Y-66566143D01*
X136476619Y-66626619D01*
X136597571Y-66687095D01*
X136658048Y-66747572D01*
X136718524Y-66868524D01*
X136718524Y-66989476D01*
X136658048Y-67110429D01*
X136597571Y-67170905D01*
X136476619Y-67231381D01*
X136234714Y-67291857D01*
X135932333Y-67291857D01*
X135690429Y-67231381D01*
X135569476Y-67170905D01*
X135509000Y-67110429D01*
X135448524Y-66989476D01*
X135448524Y-65417095D02*
X135448524Y-66021857D01*
X136053286Y-66082333D01*
X135992810Y-66021857D01*
X135932333Y-65900905D01*
X135932333Y-65598524D01*
X135992810Y-65477571D01*
X136053286Y-65417095D01*
X136174238Y-65356619D01*
X136476619Y-65356619D01*
X136597571Y-65417095D01*
X136658048Y-65477571D01*
X136718524Y-65598524D01*
X136718524Y-65900905D01*
X136658048Y-66021857D01*
X136597571Y-66082333D01*
X126721809Y-72202524D02*
X126298476Y-71597762D01*
X125996095Y-72202524D02*
X125996095Y-70932524D01*
X126479904Y-70932524D01*
X126600857Y-70993000D01*
X126661333Y-71053476D01*
X126721809Y-71174429D01*
X126721809Y-71355857D01*
X126661333Y-71476810D01*
X126600857Y-71537286D01*
X126479904Y-71597762D01*
X125996095Y-71597762D01*
X127205619Y-71053476D02*
X127266095Y-70993000D01*
X127387047Y-70932524D01*
X127689428Y-70932524D01*
X127810381Y-70993000D01*
X127870857Y-71053476D01*
X127931333Y-71174429D01*
X127931333Y-71295381D01*
X127870857Y-71476810D01*
X127145143Y-72202524D01*
X127931333Y-72202524D01*
X128717524Y-70932524D02*
X128838476Y-70932524D01*
X128959428Y-70993000D01*
X129019905Y-71053476D01*
X129080381Y-71174429D01*
X129140857Y-71416333D01*
X129140857Y-71718714D01*
X129080381Y-71960619D01*
X129019905Y-72081571D01*
X128959428Y-72142048D01*
X128838476Y-72202524D01*
X128717524Y-72202524D01*
X128596571Y-72142048D01*
X128536095Y-72081571D01*
X128475619Y-71960619D01*
X128415143Y-71718714D01*
X128415143Y-71416333D01*
X128475619Y-71174429D01*
X128536095Y-71053476D01*
X128596571Y-70993000D01*
X128717524Y-70932524D01*
X130229429Y-70932524D02*
X129987524Y-70932524D01*
X129866572Y-70993000D01*
X129806095Y-71053476D01*
X129685143Y-71234905D01*
X129624667Y-71476810D01*
X129624667Y-71960619D01*
X129685143Y-72081571D01*
X129745619Y-72142048D01*
X129866572Y-72202524D01*
X130108476Y-72202524D01*
X130229429Y-72142048D01*
X130289905Y-72081571D01*
X130350381Y-71960619D01*
X130350381Y-71658238D01*
X130289905Y-71537286D01*
X130229429Y-71476810D01*
X130108476Y-71416333D01*
X129866572Y-71416333D01*
X129745619Y-71476810D01*
X129685143Y-71537286D01*
X129624667Y-71658238D01*
X133289524Y-102259191D02*
X132684762Y-102682524D01*
X133289524Y-102984905D02*
X132019524Y-102984905D01*
X132019524Y-102501096D01*
X132080000Y-102380143D01*
X132140476Y-102319667D01*
X132261429Y-102259191D01*
X132442857Y-102259191D01*
X132563810Y-102319667D01*
X132624286Y-102380143D01*
X132684762Y-102501096D01*
X132684762Y-102984905D01*
X132140476Y-101775381D02*
X132080000Y-101714905D01*
X132019524Y-101593953D01*
X132019524Y-101291572D01*
X132080000Y-101170619D01*
X132140476Y-101110143D01*
X132261429Y-101049667D01*
X132382381Y-101049667D01*
X132563810Y-101110143D01*
X133289524Y-101835857D01*
X133289524Y-101049667D01*
X132019524Y-100263476D02*
X132019524Y-100142524D01*
X132080000Y-100021572D01*
X132140476Y-99961095D01*
X132261429Y-99900619D01*
X132503333Y-99840143D01*
X132805714Y-99840143D01*
X133047619Y-99900619D01*
X133168571Y-99961095D01*
X133229048Y-100021572D01*
X133289524Y-100142524D01*
X133289524Y-100263476D01*
X133229048Y-100384429D01*
X133168571Y-100444905D01*
X133047619Y-100505381D01*
X132805714Y-100565857D01*
X132503333Y-100565857D01*
X132261429Y-100505381D01*
X132140476Y-100444905D01*
X132080000Y-100384429D01*
X132019524Y-100263476D01*
X132563810Y-99114428D02*
X132503333Y-99235381D01*
X132442857Y-99295857D01*
X132321905Y-99356333D01*
X132261429Y-99356333D01*
X132140476Y-99295857D01*
X132080000Y-99235381D01*
X132019524Y-99114428D01*
X132019524Y-98872524D01*
X132080000Y-98751571D01*
X132140476Y-98691095D01*
X132261429Y-98630619D01*
X132321905Y-98630619D01*
X132442857Y-98691095D01*
X132503333Y-98751571D01*
X132563810Y-98872524D01*
X132563810Y-99114428D01*
X132624286Y-99235381D01*
X132684762Y-99295857D01*
X132805714Y-99356333D01*
X133047619Y-99356333D01*
X133168571Y-99295857D01*
X133229048Y-99235381D01*
X133289524Y-99114428D01*
X133289524Y-98872524D01*
X133229048Y-98751571D01*
X133168571Y-98691095D01*
X133047619Y-98630619D01*
X132805714Y-98630619D01*
X132684762Y-98691095D01*
X132624286Y-98751571D01*
X132563810Y-98872524D01*
X130368524Y-102259191D02*
X129763762Y-102682524D01*
X130368524Y-102984905D02*
X129098524Y-102984905D01*
X129098524Y-102501096D01*
X129159000Y-102380143D01*
X129219476Y-102319667D01*
X129340429Y-102259191D01*
X129521857Y-102259191D01*
X129642810Y-102319667D01*
X129703286Y-102380143D01*
X129763762Y-102501096D01*
X129763762Y-102984905D01*
X129219476Y-101775381D02*
X129159000Y-101714905D01*
X129098524Y-101593953D01*
X129098524Y-101291572D01*
X129159000Y-101170619D01*
X129219476Y-101110143D01*
X129340429Y-101049667D01*
X129461381Y-101049667D01*
X129642810Y-101110143D01*
X130368524Y-101835857D01*
X130368524Y-101049667D01*
X129098524Y-100263476D02*
X129098524Y-100142524D01*
X129159000Y-100021572D01*
X129219476Y-99961095D01*
X129340429Y-99900619D01*
X129582333Y-99840143D01*
X129884714Y-99840143D01*
X130126619Y-99900619D01*
X130247571Y-99961095D01*
X130308048Y-100021572D01*
X130368524Y-100142524D01*
X130368524Y-100263476D01*
X130308048Y-100384429D01*
X130247571Y-100444905D01*
X130126619Y-100505381D01*
X129884714Y-100565857D01*
X129582333Y-100565857D01*
X129340429Y-100505381D01*
X129219476Y-100444905D01*
X129159000Y-100384429D01*
X129098524Y-100263476D01*
X130368524Y-99235381D02*
X130368524Y-98993476D01*
X130308048Y-98872524D01*
X130247571Y-98812048D01*
X130066143Y-98691095D01*
X129824238Y-98630619D01*
X129340429Y-98630619D01*
X129219476Y-98691095D01*
X129159000Y-98751571D01*
X129098524Y-98872524D01*
X129098524Y-99114428D01*
X129159000Y-99235381D01*
X129219476Y-99295857D01*
X129340429Y-99356333D01*
X129642810Y-99356333D01*
X129763762Y-99295857D01*
X129824238Y-99235381D01*
X129884714Y-99114428D01*
X129884714Y-98872524D01*
X129824238Y-98751571D01*
X129763762Y-98691095D01*
X129642810Y-98630619D01*
X127574524Y-102132191D02*
X126969762Y-102555524D01*
X127574524Y-102857905D02*
X126304524Y-102857905D01*
X126304524Y-102374096D01*
X126365000Y-102253143D01*
X126425476Y-102192667D01*
X126546429Y-102132191D01*
X126727857Y-102132191D01*
X126848810Y-102192667D01*
X126909286Y-102253143D01*
X126969762Y-102374096D01*
X126969762Y-102857905D01*
X126425476Y-101648381D02*
X126365000Y-101587905D01*
X126304524Y-101466953D01*
X126304524Y-101164572D01*
X126365000Y-101043619D01*
X126425476Y-100983143D01*
X126546429Y-100922667D01*
X126667381Y-100922667D01*
X126848810Y-100983143D01*
X127574524Y-101708857D01*
X127574524Y-100922667D01*
X127574524Y-99713143D02*
X127574524Y-100438857D01*
X127574524Y-100076000D02*
X126304524Y-100076000D01*
X126485952Y-100196952D01*
X126606905Y-100317905D01*
X126667381Y-100438857D01*
X127574524Y-98503619D02*
X127574524Y-99229333D01*
X127574524Y-98866476D02*
X126304524Y-98866476D01*
X126485952Y-98987428D01*
X126606905Y-99108381D01*
X126667381Y-99229333D01*
X134178524Y-69112191D02*
X133573762Y-69535524D01*
X134178524Y-69837905D02*
X132908524Y-69837905D01*
X132908524Y-69354096D01*
X132969000Y-69233143D01*
X133029476Y-69172667D01*
X133150429Y-69112191D01*
X133331857Y-69112191D01*
X133452810Y-69172667D01*
X133513286Y-69233143D01*
X133573762Y-69354096D01*
X133573762Y-69837905D01*
X133029476Y-68628381D02*
X132969000Y-68567905D01*
X132908524Y-68446953D01*
X132908524Y-68144572D01*
X132969000Y-68023619D01*
X133029476Y-67963143D01*
X133150429Y-67902667D01*
X133271381Y-67902667D01*
X133452810Y-67963143D01*
X134178524Y-68688857D01*
X134178524Y-67902667D01*
X134178524Y-66693143D02*
X134178524Y-67418857D01*
X134178524Y-67056000D02*
X132908524Y-67056000D01*
X133089952Y-67176952D01*
X133210905Y-67297905D01*
X133271381Y-67418857D01*
X133029476Y-66209333D02*
X132969000Y-66148857D01*
X132908524Y-66027905D01*
X132908524Y-65725524D01*
X132969000Y-65604571D01*
X133029476Y-65544095D01*
X133150429Y-65483619D01*
X133271381Y-65483619D01*
X133452810Y-65544095D01*
X134178524Y-66269809D01*
X134178524Y-65483619D01*
X123764524Y-81939191D02*
X123159762Y-82362524D01*
X123764524Y-82664905D02*
X122494524Y-82664905D01*
X122494524Y-82181096D01*
X122555000Y-82060143D01*
X122615476Y-81999667D01*
X122736429Y-81939191D01*
X122917857Y-81939191D01*
X123038810Y-81999667D01*
X123099286Y-82060143D01*
X123159762Y-82181096D01*
X123159762Y-82664905D01*
X122615476Y-81455381D02*
X122555000Y-81394905D01*
X122494524Y-81273953D01*
X122494524Y-80971572D01*
X122555000Y-80850619D01*
X122615476Y-80790143D01*
X122736429Y-80729667D01*
X122857381Y-80729667D01*
X123038810Y-80790143D01*
X123764524Y-81515857D01*
X123764524Y-80729667D01*
X123764524Y-79520143D02*
X123764524Y-80245857D01*
X123764524Y-79883000D02*
X122494524Y-79883000D01*
X122675952Y-80003952D01*
X122796905Y-80124905D01*
X122857381Y-80245857D01*
X122494524Y-79096809D02*
X122494524Y-78310619D01*
X122978333Y-78733952D01*
X122978333Y-78552524D01*
X123038810Y-78431571D01*
X123099286Y-78371095D01*
X123220238Y-78310619D01*
X123522619Y-78310619D01*
X123643571Y-78371095D01*
X123704048Y-78431571D01*
X123764524Y-78552524D01*
X123764524Y-78915381D01*
X123704048Y-79036333D01*
X123643571Y-79096809D01*
X189459809Y-98872524D02*
X189036476Y-98267762D01*
X188734095Y-98872524D02*
X188734095Y-97602524D01*
X189217904Y-97602524D01*
X189338857Y-97663000D01*
X189399333Y-97723476D01*
X189459809Y-97844429D01*
X189459809Y-98025857D01*
X189399333Y-98146810D01*
X189338857Y-98207286D01*
X189217904Y-98267762D01*
X188734095Y-98267762D01*
X189883143Y-97602524D02*
X190669333Y-97602524D01*
X190246000Y-98086333D01*
X190427428Y-98086333D01*
X190548381Y-98146810D01*
X190608857Y-98207286D01*
X190669333Y-98328238D01*
X190669333Y-98630619D01*
X190608857Y-98751571D01*
X190548381Y-98812048D01*
X190427428Y-98872524D01*
X190064571Y-98872524D01*
X189943619Y-98812048D01*
X189883143Y-98751571D01*
X191455524Y-97602524D02*
X191576476Y-97602524D01*
X191697428Y-97663000D01*
X191757905Y-97723476D01*
X191818381Y-97844429D01*
X191878857Y-98086333D01*
X191878857Y-98388714D01*
X191818381Y-98630619D01*
X191757905Y-98751571D01*
X191697428Y-98812048D01*
X191576476Y-98872524D01*
X191455524Y-98872524D01*
X191334571Y-98812048D01*
X191274095Y-98751571D01*
X191213619Y-98630619D01*
X191153143Y-98388714D01*
X191153143Y-98086333D01*
X191213619Y-97844429D01*
X191274095Y-97723476D01*
X191334571Y-97663000D01*
X191455524Y-97602524D01*
X193088381Y-98872524D02*
X192362667Y-98872524D01*
X192725524Y-98872524D02*
X192725524Y-97602524D01*
X192604572Y-97783952D01*
X192483619Y-97904905D01*
X192362667Y-97965381D01*
X158308524Y-94385191D02*
X157703762Y-94808524D01*
X158308524Y-95110905D02*
X157038524Y-95110905D01*
X157038524Y-94627096D01*
X157099000Y-94506143D01*
X157159476Y-94445667D01*
X157280429Y-94385191D01*
X157461857Y-94385191D01*
X157582810Y-94445667D01*
X157643286Y-94506143D01*
X157703762Y-94627096D01*
X157703762Y-95110905D01*
X157038524Y-93961857D02*
X157038524Y-93175667D01*
X157522333Y-93599000D01*
X157522333Y-93417572D01*
X157582810Y-93296619D01*
X157643286Y-93236143D01*
X157764238Y-93175667D01*
X158066619Y-93175667D01*
X158187571Y-93236143D01*
X158248048Y-93296619D01*
X158308524Y-93417572D01*
X158308524Y-93780429D01*
X158248048Y-93901381D01*
X158187571Y-93961857D01*
X157038524Y-92389476D02*
X157038524Y-92268524D01*
X157099000Y-92147572D01*
X157159476Y-92087095D01*
X157280429Y-92026619D01*
X157522333Y-91966143D01*
X157824714Y-91966143D01*
X158066619Y-92026619D01*
X158187571Y-92087095D01*
X158248048Y-92147572D01*
X158308524Y-92268524D01*
X158308524Y-92389476D01*
X158248048Y-92510429D01*
X158187571Y-92570905D01*
X158066619Y-92631381D01*
X157824714Y-92691857D01*
X157522333Y-92691857D01*
X157280429Y-92631381D01*
X157159476Y-92570905D01*
X157099000Y-92510429D01*
X157038524Y-92389476D01*
X157159476Y-91482333D02*
X157099000Y-91421857D01*
X157038524Y-91300905D01*
X157038524Y-90998524D01*
X157099000Y-90877571D01*
X157159476Y-90817095D01*
X157280429Y-90756619D01*
X157401381Y-90756619D01*
X157582810Y-90817095D01*
X158308524Y-91542809D01*
X158308524Y-90756619D01*
X171389524Y-79526191D02*
X170784762Y-79949524D01*
X171389524Y-80251905D02*
X170119524Y-80251905D01*
X170119524Y-79768096D01*
X170180000Y-79647143D01*
X170240476Y-79586667D01*
X170361429Y-79526191D01*
X170542857Y-79526191D01*
X170663810Y-79586667D01*
X170724286Y-79647143D01*
X170784762Y-79768096D01*
X170784762Y-80251905D01*
X170119524Y-79102857D02*
X170119524Y-78316667D01*
X170603333Y-78740000D01*
X170603333Y-78558572D01*
X170663810Y-78437619D01*
X170724286Y-78377143D01*
X170845238Y-78316667D01*
X171147619Y-78316667D01*
X171268571Y-78377143D01*
X171329048Y-78437619D01*
X171389524Y-78558572D01*
X171389524Y-78921429D01*
X171329048Y-79042381D01*
X171268571Y-79102857D01*
X170119524Y-77530476D02*
X170119524Y-77409524D01*
X170180000Y-77288572D01*
X170240476Y-77228095D01*
X170361429Y-77167619D01*
X170603333Y-77107143D01*
X170905714Y-77107143D01*
X171147619Y-77167619D01*
X171268571Y-77228095D01*
X171329048Y-77288572D01*
X171389524Y-77409524D01*
X171389524Y-77530476D01*
X171329048Y-77651429D01*
X171268571Y-77711905D01*
X171147619Y-77772381D01*
X170905714Y-77832857D01*
X170603333Y-77832857D01*
X170361429Y-77772381D01*
X170240476Y-77711905D01*
X170180000Y-77651429D01*
X170119524Y-77530476D01*
X170119524Y-76683809D02*
X170119524Y-75897619D01*
X170603333Y-76320952D01*
X170603333Y-76139524D01*
X170663810Y-76018571D01*
X170724286Y-75958095D01*
X170845238Y-75897619D01*
X171147619Y-75897619D01*
X171268571Y-75958095D01*
X171329048Y-76018571D01*
X171389524Y-76139524D01*
X171389524Y-76502381D01*
X171329048Y-76623333D01*
X171268571Y-76683809D01*
X182930809Y-87569524D02*
X182507476Y-86964762D01*
X182205095Y-87569524D02*
X182205095Y-86299524D01*
X182688904Y-86299524D01*
X182809857Y-86360000D01*
X182870333Y-86420476D01*
X182930809Y-86541429D01*
X182930809Y-86722857D01*
X182870333Y-86843810D01*
X182809857Y-86904286D01*
X182688904Y-86964762D01*
X182205095Y-86964762D01*
X183354143Y-86299524D02*
X184140333Y-86299524D01*
X183717000Y-86783333D01*
X183898428Y-86783333D01*
X184019381Y-86843810D01*
X184079857Y-86904286D01*
X184140333Y-87025238D01*
X184140333Y-87327619D01*
X184079857Y-87448571D01*
X184019381Y-87509048D01*
X183898428Y-87569524D01*
X183535571Y-87569524D01*
X183414619Y-87509048D01*
X183354143Y-87448571D01*
X184926524Y-86299524D02*
X185047476Y-86299524D01*
X185168428Y-86360000D01*
X185228905Y-86420476D01*
X185289381Y-86541429D01*
X185349857Y-86783333D01*
X185349857Y-87085714D01*
X185289381Y-87327619D01*
X185228905Y-87448571D01*
X185168428Y-87509048D01*
X185047476Y-87569524D01*
X184926524Y-87569524D01*
X184805571Y-87509048D01*
X184745095Y-87448571D01*
X184684619Y-87327619D01*
X184624143Y-87085714D01*
X184624143Y-86783333D01*
X184684619Y-86541429D01*
X184745095Y-86420476D01*
X184805571Y-86360000D01*
X184926524Y-86299524D01*
X186438429Y-86722857D02*
X186438429Y-87569524D01*
X186136048Y-86239048D02*
X185833667Y-87146190D01*
X186619857Y-87146190D01*
X155514524Y-94385191D02*
X154909762Y-94808524D01*
X155514524Y-95110905D02*
X154244524Y-95110905D01*
X154244524Y-94627096D01*
X154305000Y-94506143D01*
X154365476Y-94445667D01*
X154486429Y-94385191D01*
X154667857Y-94385191D01*
X154788810Y-94445667D01*
X154849286Y-94506143D01*
X154909762Y-94627096D01*
X154909762Y-95110905D01*
X154244524Y-93961857D02*
X154244524Y-93175667D01*
X154728333Y-93599000D01*
X154728333Y-93417572D01*
X154788810Y-93296619D01*
X154849286Y-93236143D01*
X154970238Y-93175667D01*
X155272619Y-93175667D01*
X155393571Y-93236143D01*
X155454048Y-93296619D01*
X155514524Y-93417572D01*
X155514524Y-93780429D01*
X155454048Y-93901381D01*
X155393571Y-93961857D01*
X154244524Y-92389476D02*
X154244524Y-92268524D01*
X154305000Y-92147572D01*
X154365476Y-92087095D01*
X154486429Y-92026619D01*
X154728333Y-91966143D01*
X155030714Y-91966143D01*
X155272619Y-92026619D01*
X155393571Y-92087095D01*
X155454048Y-92147572D01*
X155514524Y-92268524D01*
X155514524Y-92389476D01*
X155454048Y-92510429D01*
X155393571Y-92570905D01*
X155272619Y-92631381D01*
X155030714Y-92691857D01*
X154728333Y-92691857D01*
X154486429Y-92631381D01*
X154365476Y-92570905D01*
X154305000Y-92510429D01*
X154244524Y-92389476D01*
X154244524Y-90817095D02*
X154244524Y-91421857D01*
X154849286Y-91482333D01*
X154788810Y-91421857D01*
X154728333Y-91300905D01*
X154728333Y-90998524D01*
X154788810Y-90877571D01*
X154849286Y-90817095D01*
X154970238Y-90756619D01*
X155272619Y-90756619D01*
X155393571Y-90817095D01*
X155454048Y-90877571D01*
X155514524Y-90998524D01*
X155514524Y-91300905D01*
X155454048Y-91421857D01*
X155393571Y-91482333D01*
X165039524Y-100100191D02*
X164434762Y-100523524D01*
X165039524Y-100825905D02*
X163769524Y-100825905D01*
X163769524Y-100342096D01*
X163830000Y-100221143D01*
X163890476Y-100160667D01*
X164011429Y-100100191D01*
X164192857Y-100100191D01*
X164313810Y-100160667D01*
X164374286Y-100221143D01*
X164434762Y-100342096D01*
X164434762Y-100825905D01*
X163769524Y-99676857D02*
X163769524Y-98890667D01*
X164253333Y-99314000D01*
X164253333Y-99132572D01*
X164313810Y-99011619D01*
X164374286Y-98951143D01*
X164495238Y-98890667D01*
X164797619Y-98890667D01*
X164918571Y-98951143D01*
X164979048Y-99011619D01*
X165039524Y-99132572D01*
X165039524Y-99495429D01*
X164979048Y-99616381D01*
X164918571Y-99676857D01*
X163769524Y-98104476D02*
X163769524Y-97983524D01*
X163830000Y-97862572D01*
X163890476Y-97802095D01*
X164011429Y-97741619D01*
X164253333Y-97681143D01*
X164555714Y-97681143D01*
X164797619Y-97741619D01*
X164918571Y-97802095D01*
X164979048Y-97862572D01*
X165039524Y-97983524D01*
X165039524Y-98104476D01*
X164979048Y-98225429D01*
X164918571Y-98285905D01*
X164797619Y-98346381D01*
X164555714Y-98406857D01*
X164253333Y-98406857D01*
X164011429Y-98346381D01*
X163890476Y-98285905D01*
X163830000Y-98225429D01*
X163769524Y-98104476D01*
X163769524Y-97257809D02*
X163769524Y-96411143D01*
X165039524Y-96955428D01*
X132654524Y-113054191D02*
X132049762Y-113477524D01*
X132654524Y-113779905D02*
X131384524Y-113779905D01*
X131384524Y-113296096D01*
X131445000Y-113175143D01*
X131505476Y-113114667D01*
X131626429Y-113054191D01*
X131807857Y-113054191D01*
X131928810Y-113114667D01*
X131989286Y-113175143D01*
X132049762Y-113296096D01*
X132049762Y-113779905D01*
X131384524Y-111905143D02*
X131384524Y-112509905D01*
X131989286Y-112570381D01*
X131928810Y-112509905D01*
X131868333Y-112388953D01*
X131868333Y-112086572D01*
X131928810Y-111965619D01*
X131989286Y-111905143D01*
X132110238Y-111844667D01*
X132412619Y-111844667D01*
X132533571Y-111905143D01*
X132594048Y-111965619D01*
X132654524Y-112086572D01*
X132654524Y-112388953D01*
X132594048Y-112509905D01*
X132533571Y-112570381D01*
X131384524Y-111058476D02*
X131384524Y-110937524D01*
X131445000Y-110816572D01*
X131505476Y-110756095D01*
X131626429Y-110695619D01*
X131868333Y-110635143D01*
X132170714Y-110635143D01*
X132412619Y-110695619D01*
X132533571Y-110756095D01*
X132594048Y-110816572D01*
X132654524Y-110937524D01*
X132654524Y-111058476D01*
X132594048Y-111179429D01*
X132533571Y-111239905D01*
X132412619Y-111300381D01*
X132170714Y-111360857D01*
X131868333Y-111360857D01*
X131626429Y-111300381D01*
X131505476Y-111239905D01*
X131445000Y-111179429D01*
X131384524Y-111058476D01*
X132654524Y-109425619D02*
X132654524Y-110151333D01*
X132654524Y-109788476D02*
X131384524Y-109788476D01*
X131565952Y-109909428D01*
X131686905Y-110030381D01*
X131747381Y-110151333D01*
X142197809Y-110556524D02*
X141774476Y-109951762D01*
X141472095Y-110556524D02*
X141472095Y-109286524D01*
X141955904Y-109286524D01*
X142076857Y-109347000D01*
X142137333Y-109407476D01*
X142197809Y-109528429D01*
X142197809Y-109709857D01*
X142137333Y-109830810D01*
X142076857Y-109891286D01*
X141955904Y-109951762D01*
X141472095Y-109951762D01*
X143346857Y-109286524D02*
X142742095Y-109286524D01*
X142681619Y-109891286D01*
X142742095Y-109830810D01*
X142863047Y-109770333D01*
X143165428Y-109770333D01*
X143286381Y-109830810D01*
X143346857Y-109891286D01*
X143407333Y-110012238D01*
X143407333Y-110314619D01*
X143346857Y-110435571D01*
X143286381Y-110496048D01*
X143165428Y-110556524D01*
X142863047Y-110556524D01*
X142742095Y-110496048D01*
X142681619Y-110435571D01*
X144193524Y-109286524D02*
X144314476Y-109286524D01*
X144435428Y-109347000D01*
X144495905Y-109407476D01*
X144556381Y-109528429D01*
X144616857Y-109770333D01*
X144616857Y-110072714D01*
X144556381Y-110314619D01*
X144495905Y-110435571D01*
X144435428Y-110496048D01*
X144314476Y-110556524D01*
X144193524Y-110556524D01*
X144072571Y-110496048D01*
X144012095Y-110435571D01*
X143951619Y-110314619D01*
X143891143Y-110072714D01*
X143891143Y-109770333D01*
X143951619Y-109528429D01*
X144012095Y-109407476D01*
X144072571Y-109347000D01*
X144193524Y-109286524D01*
X145100667Y-109407476D02*
X145161143Y-109347000D01*
X145282095Y-109286524D01*
X145584476Y-109286524D01*
X145705429Y-109347000D01*
X145765905Y-109407476D01*
X145826381Y-109528429D01*
X145826381Y-109649381D01*
X145765905Y-109830810D01*
X145040191Y-110556524D01*
X145826381Y-110556524D01*
X112098809Y-63693524D02*
X111675476Y-63088762D01*
X111373095Y-63693524D02*
X111373095Y-62423524D01*
X111856904Y-62423524D01*
X111977857Y-62484000D01*
X112038333Y-62544476D01*
X112098809Y-62665429D01*
X112098809Y-62846857D01*
X112038333Y-62967810D01*
X111977857Y-63028286D01*
X111856904Y-63088762D01*
X111373095Y-63088762D01*
X113247857Y-62423524D02*
X112643095Y-62423524D01*
X112582619Y-63028286D01*
X112643095Y-62967810D01*
X112764047Y-62907333D01*
X113066428Y-62907333D01*
X113187381Y-62967810D01*
X113247857Y-63028286D01*
X113308333Y-63149238D01*
X113308333Y-63451619D01*
X113247857Y-63572571D01*
X113187381Y-63633048D01*
X113066428Y-63693524D01*
X112764047Y-63693524D01*
X112643095Y-63633048D01*
X112582619Y-63572571D01*
X114094524Y-62423524D02*
X114215476Y-62423524D01*
X114336428Y-62484000D01*
X114396905Y-62544476D01*
X114457381Y-62665429D01*
X114517857Y-62907333D01*
X114517857Y-63209714D01*
X114457381Y-63451619D01*
X114396905Y-63572571D01*
X114336428Y-63633048D01*
X114215476Y-63693524D01*
X114094524Y-63693524D01*
X113973571Y-63633048D01*
X113913095Y-63572571D01*
X113852619Y-63451619D01*
X113792143Y-63209714D01*
X113792143Y-62907333D01*
X113852619Y-62665429D01*
X113913095Y-62544476D01*
X113973571Y-62484000D01*
X114094524Y-62423524D01*
X114941191Y-62423524D02*
X115727381Y-62423524D01*
X115304048Y-62907333D01*
X115485476Y-62907333D01*
X115606429Y-62967810D01*
X115666905Y-63028286D01*
X115727381Y-63149238D01*
X115727381Y-63451619D01*
X115666905Y-63572571D01*
X115606429Y-63633048D01*
X115485476Y-63693524D01*
X115122619Y-63693524D01*
X115001667Y-63633048D01*
X114941191Y-63572571D01*
X121224524Y-73684191D02*
X120619762Y-74107524D01*
X121224524Y-74409905D02*
X119954524Y-74409905D01*
X119954524Y-73926096D01*
X120015000Y-73805143D01*
X120075476Y-73744667D01*
X120196429Y-73684191D01*
X120377857Y-73684191D01*
X120498810Y-73744667D01*
X120559286Y-73805143D01*
X120619762Y-73926096D01*
X120619762Y-74409905D01*
X119954524Y-72535143D02*
X119954524Y-73139905D01*
X120559286Y-73200381D01*
X120498810Y-73139905D01*
X120438333Y-73018953D01*
X120438333Y-72716572D01*
X120498810Y-72595619D01*
X120559286Y-72535143D01*
X120680238Y-72474667D01*
X120982619Y-72474667D01*
X121103571Y-72535143D01*
X121164048Y-72595619D01*
X121224524Y-72716572D01*
X121224524Y-73018953D01*
X121164048Y-73139905D01*
X121103571Y-73200381D01*
X119954524Y-71688476D02*
X119954524Y-71567524D01*
X120015000Y-71446572D01*
X120075476Y-71386095D01*
X120196429Y-71325619D01*
X120438333Y-71265143D01*
X120740714Y-71265143D01*
X120982619Y-71325619D01*
X121103571Y-71386095D01*
X121164048Y-71446572D01*
X121224524Y-71567524D01*
X121224524Y-71688476D01*
X121164048Y-71809429D01*
X121103571Y-71869905D01*
X120982619Y-71930381D01*
X120740714Y-71990857D01*
X120438333Y-71990857D01*
X120196429Y-71930381D01*
X120075476Y-71869905D01*
X120015000Y-71809429D01*
X119954524Y-71688476D01*
X120377857Y-70176571D02*
X121224524Y-70176571D01*
X119894048Y-70478952D02*
X120801190Y-70781333D01*
X120801190Y-69995143D01*
X117541524Y-98322191D02*
X116936762Y-98745524D01*
X117541524Y-99047905D02*
X116271524Y-99047905D01*
X116271524Y-98564096D01*
X116332000Y-98443143D01*
X116392476Y-98382667D01*
X116513429Y-98322191D01*
X116694857Y-98322191D01*
X116815810Y-98382667D01*
X116876286Y-98443143D01*
X116936762Y-98564096D01*
X116936762Y-99047905D01*
X116271524Y-97173143D02*
X116271524Y-97777905D01*
X116876286Y-97838381D01*
X116815810Y-97777905D01*
X116755333Y-97656953D01*
X116755333Y-97354572D01*
X116815810Y-97233619D01*
X116876286Y-97173143D01*
X116997238Y-97112667D01*
X117299619Y-97112667D01*
X117420571Y-97173143D01*
X117481048Y-97233619D01*
X117541524Y-97354572D01*
X117541524Y-97656953D01*
X117481048Y-97777905D01*
X117420571Y-97838381D01*
X116271524Y-96326476D02*
X116271524Y-96205524D01*
X116332000Y-96084572D01*
X116392476Y-96024095D01*
X116513429Y-95963619D01*
X116755333Y-95903143D01*
X117057714Y-95903143D01*
X117299619Y-95963619D01*
X117420571Y-96024095D01*
X117481048Y-96084572D01*
X117541524Y-96205524D01*
X117541524Y-96326476D01*
X117481048Y-96447429D01*
X117420571Y-96507905D01*
X117299619Y-96568381D01*
X117057714Y-96628857D01*
X116755333Y-96628857D01*
X116513429Y-96568381D01*
X116392476Y-96507905D01*
X116332000Y-96447429D01*
X116271524Y-96326476D01*
X116271524Y-94754095D02*
X116271524Y-95358857D01*
X116876286Y-95419333D01*
X116815810Y-95358857D01*
X116755333Y-95237905D01*
X116755333Y-94935524D01*
X116815810Y-94814571D01*
X116876286Y-94754095D01*
X116997238Y-94693619D01*
X117299619Y-94693619D01*
X117420571Y-94754095D01*
X117481048Y-94814571D01*
X117541524Y-94935524D01*
X117541524Y-95237905D01*
X117481048Y-95358857D01*
X117420571Y-95419333D01*
X116815809Y-94173524D02*
X116392476Y-93568762D01*
X116090095Y-94173524D02*
X116090095Y-92903524D01*
X116573904Y-92903524D01*
X116694857Y-92964000D01*
X116755333Y-93024476D01*
X116815809Y-93145429D01*
X116815809Y-93326857D01*
X116755333Y-93447810D01*
X116694857Y-93508286D01*
X116573904Y-93568762D01*
X116090095Y-93568762D01*
X117964857Y-92903524D02*
X117360095Y-92903524D01*
X117299619Y-93508286D01*
X117360095Y-93447810D01*
X117481047Y-93387333D01*
X117783428Y-93387333D01*
X117904381Y-93447810D01*
X117964857Y-93508286D01*
X118025333Y-93629238D01*
X118025333Y-93931619D01*
X117964857Y-94052571D01*
X117904381Y-94113048D01*
X117783428Y-94173524D01*
X117481047Y-94173524D01*
X117360095Y-94113048D01*
X117299619Y-94052571D01*
X118811524Y-92903524D02*
X118932476Y-92903524D01*
X119053428Y-92964000D01*
X119113905Y-93024476D01*
X119174381Y-93145429D01*
X119234857Y-93387333D01*
X119234857Y-93689714D01*
X119174381Y-93931619D01*
X119113905Y-94052571D01*
X119053428Y-94113048D01*
X118932476Y-94173524D01*
X118811524Y-94173524D01*
X118690571Y-94113048D01*
X118630095Y-94052571D01*
X118569619Y-93931619D01*
X118509143Y-93689714D01*
X118509143Y-93387333D01*
X118569619Y-93145429D01*
X118630095Y-93024476D01*
X118690571Y-92964000D01*
X118811524Y-92903524D01*
X120323429Y-92903524D02*
X120081524Y-92903524D01*
X119960572Y-92964000D01*
X119900095Y-93024476D01*
X119779143Y-93205905D01*
X119718667Y-93447810D01*
X119718667Y-93931619D01*
X119779143Y-94052571D01*
X119839619Y-94113048D01*
X119960572Y-94173524D01*
X120202476Y-94173524D01*
X120323429Y-94113048D01*
X120383905Y-94052571D01*
X120444381Y-93931619D01*
X120444381Y-93629238D01*
X120383905Y-93508286D01*
X120323429Y-93447810D01*
X120202476Y-93387333D01*
X119960572Y-93387333D01*
X119839619Y-93447810D01*
X119779143Y-93508286D01*
X119718667Y-93629238D01*
X123292809Y-120843524D02*
X122869476Y-120238762D01*
X122567095Y-120843524D02*
X122567095Y-119573524D01*
X123050904Y-119573524D01*
X123171857Y-119634000D01*
X123232333Y-119694476D01*
X123292809Y-119815429D01*
X123292809Y-119996857D01*
X123232333Y-120117810D01*
X123171857Y-120178286D01*
X123050904Y-120238762D01*
X122567095Y-120238762D01*
X124441857Y-119573524D02*
X123837095Y-119573524D01*
X123776619Y-120178286D01*
X123837095Y-120117810D01*
X123958047Y-120057333D01*
X124260428Y-120057333D01*
X124381381Y-120117810D01*
X124441857Y-120178286D01*
X124502333Y-120299238D01*
X124502333Y-120601619D01*
X124441857Y-120722571D01*
X124381381Y-120783048D01*
X124260428Y-120843524D01*
X123958047Y-120843524D01*
X123837095Y-120783048D01*
X123776619Y-120722571D01*
X125288524Y-119573524D02*
X125409476Y-119573524D01*
X125530428Y-119634000D01*
X125590905Y-119694476D01*
X125651381Y-119815429D01*
X125711857Y-120057333D01*
X125711857Y-120359714D01*
X125651381Y-120601619D01*
X125590905Y-120722571D01*
X125530428Y-120783048D01*
X125409476Y-120843524D01*
X125288524Y-120843524D01*
X125167571Y-120783048D01*
X125107095Y-120722571D01*
X125046619Y-120601619D01*
X124986143Y-120359714D01*
X124986143Y-120057333D01*
X125046619Y-119815429D01*
X125107095Y-119694476D01*
X125167571Y-119634000D01*
X125288524Y-119573524D01*
X126135191Y-119573524D02*
X126981857Y-119573524D01*
X126437572Y-120843524D01*
X121133809Y-118049524D02*
X120710476Y-117444762D01*
X120408095Y-118049524D02*
X120408095Y-116779524D01*
X120891904Y-116779524D01*
X121012857Y-116840000D01*
X121073333Y-116900476D01*
X121133809Y-117021429D01*
X121133809Y-117202857D01*
X121073333Y-117323810D01*
X121012857Y-117384286D01*
X120891904Y-117444762D01*
X120408095Y-117444762D01*
X122282857Y-116779524D02*
X121678095Y-116779524D01*
X121617619Y-117384286D01*
X121678095Y-117323810D01*
X121799047Y-117263333D01*
X122101428Y-117263333D01*
X122222381Y-117323810D01*
X122282857Y-117384286D01*
X122343333Y-117505238D01*
X122343333Y-117807619D01*
X122282857Y-117928571D01*
X122222381Y-117989048D01*
X122101428Y-118049524D01*
X121799047Y-118049524D01*
X121678095Y-117989048D01*
X121617619Y-117928571D01*
X123552857Y-118049524D02*
X122827143Y-118049524D01*
X123190000Y-118049524D02*
X123190000Y-116779524D01*
X123069048Y-116960952D01*
X122948095Y-117081905D01*
X122827143Y-117142381D01*
X124762381Y-118049524D02*
X124036667Y-118049524D01*
X124399524Y-118049524D02*
X124399524Y-116779524D01*
X124278572Y-116960952D01*
X124157619Y-117081905D01*
X124036667Y-117142381D01*
X119132048Y-73895857D02*
X119192524Y-73714429D01*
X119192524Y-73412048D01*
X119132048Y-73291095D01*
X119071571Y-73230619D01*
X118950619Y-73170143D01*
X118829667Y-73170143D01*
X118708714Y-73230619D01*
X118648238Y-73291095D01*
X118587762Y-73412048D01*
X118527286Y-73653952D01*
X118466810Y-73774905D01*
X118406333Y-73835381D01*
X118285381Y-73895857D01*
X118164429Y-73895857D01*
X118043476Y-73835381D01*
X117983000Y-73774905D01*
X117922524Y-73653952D01*
X117922524Y-73351572D01*
X117983000Y-73170143D01*
X117922524Y-72746809D02*
X119192524Y-72444428D01*
X118285381Y-72202524D01*
X119192524Y-71960619D01*
X117922524Y-71658238D01*
X117922524Y-70569666D02*
X117922524Y-71174428D01*
X118527286Y-71234904D01*
X118466810Y-71174428D01*
X118406333Y-71053476D01*
X118406333Y-70751095D01*
X118466810Y-70630142D01*
X118527286Y-70569666D01*
X118648238Y-70509190D01*
X118950619Y-70509190D01*
X119071571Y-70569666D01*
X119132048Y-70630142D01*
X119192524Y-70751095D01*
X119192524Y-71053476D01*
X119132048Y-71174428D01*
X119071571Y-71234904D01*
X117922524Y-69722999D02*
X117922524Y-69602047D01*
X117983000Y-69481095D01*
X118043476Y-69420618D01*
X118164429Y-69360142D01*
X118406333Y-69299666D01*
X118708714Y-69299666D01*
X118950619Y-69360142D01*
X119071571Y-69420618D01*
X119132048Y-69481095D01*
X119192524Y-69602047D01*
X119192524Y-69722999D01*
X119132048Y-69843952D01*
X119071571Y-69904428D01*
X118950619Y-69964904D01*
X118708714Y-70025380D01*
X118406333Y-70025380D01*
X118164429Y-69964904D01*
X118043476Y-69904428D01*
X117983000Y-69843952D01*
X117922524Y-69722999D01*
X119192524Y-68090142D02*
X119192524Y-68815856D01*
X119192524Y-68452999D02*
X117922524Y-68452999D01*
X118103952Y-68573951D01*
X118224905Y-68694904D01*
X118285381Y-68815856D01*
X119132048Y-86087857D02*
X119192524Y-85906429D01*
X119192524Y-85604048D01*
X119132048Y-85483095D01*
X119071571Y-85422619D01*
X118950619Y-85362143D01*
X118829667Y-85362143D01*
X118708714Y-85422619D01*
X118648238Y-85483095D01*
X118587762Y-85604048D01*
X118527286Y-85845952D01*
X118466810Y-85966905D01*
X118406333Y-86027381D01*
X118285381Y-86087857D01*
X118164429Y-86087857D01*
X118043476Y-86027381D01*
X117983000Y-85966905D01*
X117922524Y-85845952D01*
X117922524Y-85543572D01*
X117983000Y-85362143D01*
X117922524Y-84938809D02*
X119192524Y-84636428D01*
X118285381Y-84394524D01*
X119192524Y-84152619D01*
X117922524Y-83850238D01*
X117922524Y-82761666D02*
X117922524Y-83366428D01*
X118527286Y-83426904D01*
X118466810Y-83366428D01*
X118406333Y-83245476D01*
X118406333Y-82943095D01*
X118466810Y-82822142D01*
X118527286Y-82761666D01*
X118648238Y-82701190D01*
X118950619Y-82701190D01*
X119071571Y-82761666D01*
X119132048Y-82822142D01*
X119192524Y-82943095D01*
X119192524Y-83245476D01*
X119132048Y-83366428D01*
X119071571Y-83426904D01*
X117922524Y-81914999D02*
X117922524Y-81794047D01*
X117983000Y-81673095D01*
X118043476Y-81612618D01*
X118164429Y-81552142D01*
X118406333Y-81491666D01*
X118708714Y-81491666D01*
X118950619Y-81552142D01*
X119071571Y-81612618D01*
X119132048Y-81673095D01*
X119192524Y-81794047D01*
X119192524Y-81914999D01*
X119132048Y-82035952D01*
X119071571Y-82096428D01*
X118950619Y-82156904D01*
X118708714Y-82217380D01*
X118406333Y-82217380D01*
X118164429Y-82156904D01*
X118043476Y-82096428D01*
X117983000Y-82035952D01*
X117922524Y-81914999D01*
X118043476Y-81007856D02*
X117983000Y-80947380D01*
X117922524Y-80826428D01*
X117922524Y-80524047D01*
X117983000Y-80403094D01*
X118043476Y-80342618D01*
X118164429Y-80282142D01*
X118285381Y-80282142D01*
X118466810Y-80342618D01*
X119192524Y-81068332D01*
X119192524Y-80282142D01*
X144253857Y-88331524D02*
X144979572Y-88331524D01*
X144616715Y-89601524D02*
X144616715Y-88331524D01*
X145402905Y-89601524D02*
X145402905Y-88331524D01*
X145886714Y-88331524D01*
X146007667Y-88392000D01*
X146068143Y-88452476D01*
X146128619Y-88573429D01*
X146128619Y-88754857D01*
X146068143Y-88875810D01*
X146007667Y-88936286D01*
X145886714Y-88996762D01*
X145402905Y-88996762D01*
X146612429Y-88452476D02*
X146672905Y-88392000D01*
X146793857Y-88331524D01*
X147096238Y-88331524D01*
X147217191Y-88392000D01*
X147277667Y-88452476D01*
X147338143Y-88573429D01*
X147338143Y-88694381D01*
X147277667Y-88875810D01*
X146551953Y-89601524D01*
X147338143Y-89601524D01*
X148124334Y-88331524D02*
X148245286Y-88331524D01*
X148366238Y-88392000D01*
X148426715Y-88452476D01*
X148487191Y-88573429D01*
X148547667Y-88815333D01*
X148547667Y-89117714D01*
X148487191Y-89359619D01*
X148426715Y-89480571D01*
X148366238Y-89541048D01*
X148245286Y-89601524D01*
X148124334Y-89601524D01*
X148003381Y-89541048D01*
X147942905Y-89480571D01*
X147882429Y-89359619D01*
X147821953Y-89117714D01*
X147821953Y-88815333D01*
X147882429Y-88573429D01*
X147942905Y-88452476D01*
X148003381Y-88392000D01*
X148124334Y-88331524D01*
X149757191Y-89601524D02*
X149031477Y-89601524D01*
X149394334Y-89601524D02*
X149394334Y-88331524D01*
X149273382Y-88512952D01*
X149152429Y-88633905D01*
X149031477Y-88694381D01*
X144253857Y-84902524D02*
X144979572Y-84902524D01*
X144616715Y-86172524D02*
X144616715Y-84902524D01*
X145402905Y-86172524D02*
X145402905Y-84902524D01*
X145886714Y-84902524D01*
X146007667Y-84963000D01*
X146068143Y-85023476D01*
X146128619Y-85144429D01*
X146128619Y-85325857D01*
X146068143Y-85446810D01*
X146007667Y-85507286D01*
X145886714Y-85567762D01*
X145402905Y-85567762D01*
X146612429Y-85023476D02*
X146672905Y-84963000D01*
X146793857Y-84902524D01*
X147096238Y-84902524D01*
X147217191Y-84963000D01*
X147277667Y-85023476D01*
X147338143Y-85144429D01*
X147338143Y-85265381D01*
X147277667Y-85446810D01*
X146551953Y-86172524D01*
X147338143Y-86172524D01*
X148124334Y-84902524D02*
X148245286Y-84902524D01*
X148366238Y-84963000D01*
X148426715Y-85023476D01*
X148487191Y-85144429D01*
X148547667Y-85386333D01*
X148547667Y-85688714D01*
X148487191Y-85930619D01*
X148426715Y-86051571D01*
X148366238Y-86112048D01*
X148245286Y-86172524D01*
X148124334Y-86172524D01*
X148003381Y-86112048D01*
X147942905Y-86051571D01*
X147882429Y-85930619D01*
X147821953Y-85688714D01*
X147821953Y-85386333D01*
X147882429Y-85144429D01*
X147942905Y-85023476D01*
X148003381Y-84963000D01*
X148124334Y-84902524D01*
X149031477Y-85023476D02*
X149091953Y-84963000D01*
X149212905Y-84902524D01*
X149515286Y-84902524D01*
X149636239Y-84963000D01*
X149696715Y-85023476D01*
X149757191Y-85144429D01*
X149757191Y-85265381D01*
X149696715Y-85446810D01*
X148971001Y-86172524D01*
X149757191Y-86172524D01*
X159959524Y-96411143D02*
X159959524Y-95685428D01*
X161229524Y-96048285D02*
X159959524Y-96048285D01*
X161229524Y-95262095D02*
X159959524Y-95262095D01*
X159959524Y-94778286D01*
X160020000Y-94657333D01*
X160080476Y-94596857D01*
X160201429Y-94536381D01*
X160382857Y-94536381D01*
X160503810Y-94596857D01*
X160564286Y-94657333D01*
X160624762Y-94778286D01*
X160624762Y-95262095D01*
X159959524Y-94113047D02*
X159959524Y-93326857D01*
X160443333Y-93750190D01*
X160443333Y-93568762D01*
X160503810Y-93447809D01*
X160564286Y-93387333D01*
X160685238Y-93326857D01*
X160987619Y-93326857D01*
X161108571Y-93387333D01*
X161169048Y-93447809D01*
X161229524Y-93568762D01*
X161229524Y-93931619D01*
X161169048Y-94052571D01*
X161108571Y-94113047D01*
X159959524Y-92540666D02*
X159959524Y-92419714D01*
X160020000Y-92298762D01*
X160080476Y-92238285D01*
X160201429Y-92177809D01*
X160443333Y-92117333D01*
X160745714Y-92117333D01*
X160987619Y-92177809D01*
X161108571Y-92238285D01*
X161169048Y-92298762D01*
X161229524Y-92419714D01*
X161229524Y-92540666D01*
X161169048Y-92661619D01*
X161108571Y-92722095D01*
X160987619Y-92782571D01*
X160745714Y-92843047D01*
X160443333Y-92843047D01*
X160201429Y-92782571D01*
X160080476Y-92722095D01*
X160020000Y-92661619D01*
X159959524Y-92540666D01*
X161229524Y-90907809D02*
X161229524Y-91633523D01*
X161229524Y-91270666D02*
X159959524Y-91270666D01*
X160140952Y-91391618D01*
X160261905Y-91512571D01*
X160322381Y-91633523D01*
X184639857Y-93157524D02*
X185365572Y-93157524D01*
X185002715Y-94427524D02*
X185002715Y-93157524D01*
X185788905Y-94427524D02*
X185788905Y-93157524D01*
X186272714Y-93157524D01*
X186393667Y-93218000D01*
X186454143Y-93278476D01*
X186514619Y-93399429D01*
X186514619Y-93580857D01*
X186454143Y-93701810D01*
X186393667Y-93762286D01*
X186272714Y-93822762D01*
X185788905Y-93822762D01*
X186937953Y-93157524D02*
X187724143Y-93157524D01*
X187300810Y-93641333D01*
X187482238Y-93641333D01*
X187603191Y-93701810D01*
X187663667Y-93762286D01*
X187724143Y-93883238D01*
X187724143Y-94185619D01*
X187663667Y-94306571D01*
X187603191Y-94367048D01*
X187482238Y-94427524D01*
X187119381Y-94427524D01*
X186998429Y-94367048D01*
X186937953Y-94306571D01*
X188510334Y-93157524D02*
X188631286Y-93157524D01*
X188752238Y-93218000D01*
X188812715Y-93278476D01*
X188873191Y-93399429D01*
X188933667Y-93641333D01*
X188933667Y-93943714D01*
X188873191Y-94185619D01*
X188812715Y-94306571D01*
X188752238Y-94367048D01*
X188631286Y-94427524D01*
X188510334Y-94427524D01*
X188389381Y-94367048D01*
X188328905Y-94306571D01*
X188268429Y-94185619D01*
X188207953Y-93943714D01*
X188207953Y-93641333D01*
X188268429Y-93399429D01*
X188328905Y-93278476D01*
X188389381Y-93218000D01*
X188510334Y-93157524D01*
X189417477Y-93278476D02*
X189477953Y-93218000D01*
X189598905Y-93157524D01*
X189901286Y-93157524D01*
X190022239Y-93218000D01*
X190082715Y-93278476D01*
X190143191Y-93399429D01*
X190143191Y-93520381D01*
X190082715Y-93701810D01*
X189357001Y-94427524D01*
X190143191Y-94427524D01*
X157800524Y-80155143D02*
X157800524Y-79429428D01*
X159070524Y-79792285D02*
X157800524Y-79792285D01*
X159070524Y-79006095D02*
X157800524Y-79006095D01*
X157800524Y-78522286D01*
X157861000Y-78401333D01*
X157921476Y-78340857D01*
X158042429Y-78280381D01*
X158223857Y-78280381D01*
X158344810Y-78340857D01*
X158405286Y-78401333D01*
X158465762Y-78522286D01*
X158465762Y-79006095D01*
X157800524Y-77857047D02*
X157800524Y-77070857D01*
X158284333Y-77494190D01*
X158284333Y-77312762D01*
X158344810Y-77191809D01*
X158405286Y-77131333D01*
X158526238Y-77070857D01*
X158828619Y-77070857D01*
X158949571Y-77131333D01*
X159010048Y-77191809D01*
X159070524Y-77312762D01*
X159070524Y-77675619D01*
X159010048Y-77796571D01*
X158949571Y-77857047D01*
X157800524Y-76284666D02*
X157800524Y-76163714D01*
X157861000Y-76042762D01*
X157921476Y-75982285D01*
X158042429Y-75921809D01*
X158284333Y-75861333D01*
X158586714Y-75861333D01*
X158828619Y-75921809D01*
X158949571Y-75982285D01*
X159010048Y-76042762D01*
X159070524Y-76163714D01*
X159070524Y-76284666D01*
X159010048Y-76405619D01*
X158949571Y-76466095D01*
X158828619Y-76526571D01*
X158586714Y-76587047D01*
X158284333Y-76587047D01*
X158042429Y-76526571D01*
X157921476Y-76466095D01*
X157861000Y-76405619D01*
X157800524Y-76284666D01*
X157800524Y-75437999D02*
X157800524Y-74651809D01*
X158284333Y-75075142D01*
X158284333Y-74893714D01*
X158344810Y-74772761D01*
X158405286Y-74712285D01*
X158526238Y-74651809D01*
X158828619Y-74651809D01*
X158949571Y-74712285D01*
X159010048Y-74772761D01*
X159070524Y-74893714D01*
X159070524Y-75256571D01*
X159010048Y-75377523D01*
X158949571Y-75437999D01*
X177527857Y-93157524D02*
X178253572Y-93157524D01*
X177890715Y-94427524D02*
X177890715Y-93157524D01*
X178676905Y-94427524D02*
X178676905Y-93157524D01*
X179160714Y-93157524D01*
X179281667Y-93218000D01*
X179342143Y-93278476D01*
X179402619Y-93399429D01*
X179402619Y-93580857D01*
X179342143Y-93701810D01*
X179281667Y-93762286D01*
X179160714Y-93822762D01*
X178676905Y-93822762D01*
X179825953Y-93157524D02*
X180612143Y-93157524D01*
X180188810Y-93641333D01*
X180370238Y-93641333D01*
X180491191Y-93701810D01*
X180551667Y-93762286D01*
X180612143Y-93883238D01*
X180612143Y-94185619D01*
X180551667Y-94306571D01*
X180491191Y-94367048D01*
X180370238Y-94427524D01*
X180007381Y-94427524D01*
X179886429Y-94367048D01*
X179825953Y-94306571D01*
X181398334Y-93157524D02*
X181519286Y-93157524D01*
X181640238Y-93218000D01*
X181700715Y-93278476D01*
X181761191Y-93399429D01*
X181821667Y-93641333D01*
X181821667Y-93943714D01*
X181761191Y-94185619D01*
X181700715Y-94306571D01*
X181640238Y-94367048D01*
X181519286Y-94427524D01*
X181398334Y-94427524D01*
X181277381Y-94367048D01*
X181216905Y-94306571D01*
X181156429Y-94185619D01*
X181095953Y-93943714D01*
X181095953Y-93641333D01*
X181156429Y-93399429D01*
X181216905Y-93278476D01*
X181277381Y-93218000D01*
X181398334Y-93157524D01*
X182910239Y-93580857D02*
X182910239Y-94427524D01*
X182607858Y-93097048D02*
X182305477Y-94004190D01*
X183091667Y-94004190D01*
X197720857Y-89982524D02*
X198446572Y-89982524D01*
X198083715Y-91252524D02*
X198083715Y-89982524D01*
X198869905Y-91252524D02*
X198869905Y-89982524D01*
X199353714Y-89982524D01*
X199474667Y-90043000D01*
X199535143Y-90103476D01*
X199595619Y-90224429D01*
X199595619Y-90405857D01*
X199535143Y-90526810D01*
X199474667Y-90587286D01*
X199353714Y-90647762D01*
X198869905Y-90647762D01*
X200684191Y-90405857D02*
X200684191Y-91252524D01*
X200381810Y-89922048D02*
X200079429Y-90829190D01*
X200865619Y-90829190D01*
X201591334Y-89982524D02*
X201712286Y-89982524D01*
X201833238Y-90043000D01*
X201893715Y-90103476D01*
X201954191Y-90224429D01*
X202014667Y-90466333D01*
X202014667Y-90768714D01*
X201954191Y-91010619D01*
X201893715Y-91131571D01*
X201833238Y-91192048D01*
X201712286Y-91252524D01*
X201591334Y-91252524D01*
X201470381Y-91192048D01*
X201409905Y-91131571D01*
X201349429Y-91010619D01*
X201288953Y-90768714D01*
X201288953Y-90466333D01*
X201349429Y-90224429D01*
X201409905Y-90103476D01*
X201470381Y-90043000D01*
X201591334Y-89982524D01*
X202498477Y-90103476D02*
X202558953Y-90043000D01*
X202679905Y-89982524D01*
X202982286Y-89982524D01*
X203103239Y-90043000D01*
X203163715Y-90103476D01*
X203224191Y-90224429D01*
X203224191Y-90345381D01*
X203163715Y-90526810D01*
X202438001Y-91252524D01*
X203224191Y-91252524D01*
X163515524Y-92474143D02*
X163515524Y-91748428D01*
X164785524Y-92111285D02*
X163515524Y-92111285D01*
X164785524Y-91325095D02*
X163515524Y-91325095D01*
X163515524Y-90841286D01*
X163576000Y-90720333D01*
X163636476Y-90659857D01*
X163757429Y-90599381D01*
X163938857Y-90599381D01*
X164059810Y-90659857D01*
X164120286Y-90720333D01*
X164180762Y-90841286D01*
X164180762Y-91325095D01*
X163938857Y-89510809D02*
X164785524Y-89510809D01*
X163455048Y-89813190D02*
X164362190Y-90115571D01*
X164362190Y-89329381D01*
X163515524Y-88603666D02*
X163515524Y-88482714D01*
X163576000Y-88361762D01*
X163636476Y-88301285D01*
X163757429Y-88240809D01*
X163999333Y-88180333D01*
X164301714Y-88180333D01*
X164543619Y-88240809D01*
X164664571Y-88301285D01*
X164725048Y-88361762D01*
X164785524Y-88482714D01*
X164785524Y-88603666D01*
X164725048Y-88724619D01*
X164664571Y-88785095D01*
X164543619Y-88845571D01*
X164301714Y-88906047D01*
X163999333Y-88906047D01*
X163757429Y-88845571D01*
X163636476Y-88785095D01*
X163576000Y-88724619D01*
X163515524Y-88603666D01*
X163515524Y-87031285D02*
X163515524Y-87636047D01*
X164120286Y-87696523D01*
X164059810Y-87636047D01*
X163999333Y-87515095D01*
X163999333Y-87212714D01*
X164059810Y-87091761D01*
X164120286Y-87031285D01*
X164241238Y-86970809D01*
X164543619Y-86970809D01*
X164664571Y-87031285D01*
X164725048Y-87091761D01*
X164785524Y-87212714D01*
X164785524Y-87515095D01*
X164725048Y-87636047D01*
X164664571Y-87696523D01*
X135363857Y-90617524D02*
X135363857Y-91645619D01*
X135424333Y-91766571D01*
X135484809Y-91827048D01*
X135605762Y-91887524D01*
X135847666Y-91887524D01*
X135968619Y-91827048D01*
X136029095Y-91766571D01*
X136089571Y-91645619D01*
X136089571Y-90617524D01*
X136633857Y-90738476D02*
X136694333Y-90678000D01*
X136815285Y-90617524D01*
X137117666Y-90617524D01*
X137238619Y-90678000D01*
X137299095Y-90738476D01*
X137359571Y-90859429D01*
X137359571Y-90980381D01*
X137299095Y-91161810D01*
X136573381Y-91887524D01*
X137359571Y-91887524D01*
X138145762Y-90617524D02*
X138266714Y-90617524D01*
X138387666Y-90678000D01*
X138448143Y-90738476D01*
X138508619Y-90859429D01*
X138569095Y-91101333D01*
X138569095Y-91403714D01*
X138508619Y-91645619D01*
X138448143Y-91766571D01*
X138387666Y-91827048D01*
X138266714Y-91887524D01*
X138145762Y-91887524D01*
X138024809Y-91827048D01*
X137964333Y-91766571D01*
X137903857Y-91645619D01*
X137843381Y-91403714D01*
X137843381Y-91101333D01*
X137903857Y-90859429D01*
X137964333Y-90738476D01*
X138024809Y-90678000D01*
X138145762Y-90617524D01*
X139778619Y-91887524D02*
X139052905Y-91887524D01*
X139415762Y-91887524D02*
X139415762Y-90617524D01*
X139294810Y-90798952D01*
X139173857Y-90919905D01*
X139052905Y-90980381D01*
X135194524Y-79139143D02*
X136222619Y-79139143D01*
X136343571Y-79078667D01*
X136404048Y-79018191D01*
X136464524Y-78897238D01*
X136464524Y-78655334D01*
X136404048Y-78534381D01*
X136343571Y-78473905D01*
X136222619Y-78413429D01*
X135194524Y-78413429D01*
X135315476Y-77869143D02*
X135255000Y-77808667D01*
X135194524Y-77687715D01*
X135194524Y-77385334D01*
X135255000Y-77264381D01*
X135315476Y-77203905D01*
X135436429Y-77143429D01*
X135557381Y-77143429D01*
X135738810Y-77203905D01*
X136464524Y-77929619D01*
X136464524Y-77143429D01*
X135194524Y-76357238D02*
X135194524Y-76236286D01*
X135255000Y-76115334D01*
X135315476Y-76054857D01*
X135436429Y-75994381D01*
X135678333Y-75933905D01*
X135980714Y-75933905D01*
X136222619Y-75994381D01*
X136343571Y-76054857D01*
X136404048Y-76115334D01*
X136464524Y-76236286D01*
X136464524Y-76357238D01*
X136404048Y-76478191D01*
X136343571Y-76538667D01*
X136222619Y-76599143D01*
X135980714Y-76659619D01*
X135678333Y-76659619D01*
X135436429Y-76599143D01*
X135315476Y-76538667D01*
X135255000Y-76478191D01*
X135194524Y-76357238D01*
X135315476Y-75450095D02*
X135255000Y-75389619D01*
X135194524Y-75268667D01*
X135194524Y-74966286D01*
X135255000Y-74845333D01*
X135315476Y-74784857D01*
X135436429Y-74724381D01*
X135557381Y-74724381D01*
X135738810Y-74784857D01*
X136464524Y-75510571D01*
X136464524Y-74724381D01*
X156276524Y-85108143D02*
X157304619Y-85108143D01*
X157425571Y-85047667D01*
X157486048Y-84987191D01*
X157546524Y-84866238D01*
X157546524Y-84624334D01*
X157486048Y-84503381D01*
X157425571Y-84442905D01*
X157304619Y-84382429D01*
X156276524Y-84382429D01*
X156276524Y-83898619D02*
X156276524Y-83112429D01*
X156760333Y-83535762D01*
X156760333Y-83354334D01*
X156820810Y-83233381D01*
X156881286Y-83172905D01*
X157002238Y-83112429D01*
X157304619Y-83112429D01*
X157425571Y-83172905D01*
X157486048Y-83233381D01*
X157546524Y-83354334D01*
X157546524Y-83717191D01*
X157486048Y-83838143D01*
X157425571Y-83898619D01*
X156276524Y-82326238D02*
X156276524Y-82205286D01*
X156337000Y-82084334D01*
X156397476Y-82023857D01*
X156518429Y-81963381D01*
X156760333Y-81902905D01*
X157062714Y-81902905D01*
X157304619Y-81963381D01*
X157425571Y-82023857D01*
X157486048Y-82084334D01*
X157546524Y-82205286D01*
X157546524Y-82326238D01*
X157486048Y-82447191D01*
X157425571Y-82507667D01*
X157304619Y-82568143D01*
X157062714Y-82628619D01*
X156760333Y-82628619D01*
X156518429Y-82568143D01*
X156397476Y-82507667D01*
X156337000Y-82447191D01*
X156276524Y-82326238D01*
X157546524Y-80693381D02*
X157546524Y-81419095D01*
X157546524Y-81056238D02*
X156276524Y-81056238D01*
X156457952Y-81177190D01*
X156578905Y-81298143D01*
X156639381Y-81419095D01*
X182180524Y-84727143D02*
X183208619Y-84727143D01*
X183329571Y-84666667D01*
X183390048Y-84606191D01*
X183450524Y-84485238D01*
X183450524Y-84243334D01*
X183390048Y-84122381D01*
X183329571Y-84061905D01*
X183208619Y-84001429D01*
X182180524Y-84001429D01*
X182180524Y-83517619D02*
X182180524Y-82731429D01*
X182664333Y-83154762D01*
X182664333Y-82973334D01*
X182724810Y-82852381D01*
X182785286Y-82791905D01*
X182906238Y-82731429D01*
X183208619Y-82731429D01*
X183329571Y-82791905D01*
X183390048Y-82852381D01*
X183450524Y-82973334D01*
X183450524Y-83336191D01*
X183390048Y-83457143D01*
X183329571Y-83517619D01*
X182180524Y-81945238D02*
X182180524Y-81824286D01*
X182241000Y-81703334D01*
X182301476Y-81642857D01*
X182422429Y-81582381D01*
X182664333Y-81521905D01*
X182966714Y-81521905D01*
X183208619Y-81582381D01*
X183329571Y-81642857D01*
X183390048Y-81703334D01*
X183450524Y-81824286D01*
X183450524Y-81945238D01*
X183390048Y-82066191D01*
X183329571Y-82126667D01*
X183208619Y-82187143D01*
X182966714Y-82247619D01*
X182664333Y-82247619D01*
X182422429Y-82187143D01*
X182301476Y-82126667D01*
X182241000Y-82066191D01*
X182180524Y-81945238D01*
X182301476Y-81038095D02*
X182241000Y-80977619D01*
X182180524Y-80856667D01*
X182180524Y-80554286D01*
X182241000Y-80433333D01*
X182301476Y-80372857D01*
X182422429Y-80312381D01*
X182543381Y-80312381D01*
X182724810Y-80372857D01*
X183450524Y-81098571D01*
X183450524Y-80312381D01*
X167494857Y-62908524D02*
X167494857Y-63936619D01*
X167555333Y-64057571D01*
X167615809Y-64118048D01*
X167736762Y-64178524D01*
X167978666Y-64178524D01*
X168099619Y-64118048D01*
X168160095Y-64057571D01*
X168220571Y-63936619D01*
X168220571Y-62908524D01*
X169369619Y-63331857D02*
X169369619Y-64178524D01*
X169067238Y-62848048D02*
X168764857Y-63755190D01*
X169551047Y-63755190D01*
X170276762Y-62908524D02*
X170397714Y-62908524D01*
X170518666Y-62969000D01*
X170579143Y-63029476D01*
X170639619Y-63150429D01*
X170700095Y-63392333D01*
X170700095Y-63694714D01*
X170639619Y-63936619D01*
X170579143Y-64057571D01*
X170518666Y-64118048D01*
X170397714Y-64178524D01*
X170276762Y-64178524D01*
X170155809Y-64118048D01*
X170095333Y-64057571D01*
X170034857Y-63936619D01*
X169974381Y-63694714D01*
X169974381Y-63392333D01*
X170034857Y-63150429D01*
X170095333Y-63029476D01*
X170155809Y-62969000D01*
X170276762Y-62908524D01*
X171123429Y-62908524D02*
X171909619Y-62908524D01*
X171486286Y-63392333D01*
X171667714Y-63392333D01*
X171788667Y-63452810D01*
X171849143Y-63513286D01*
X171909619Y-63634238D01*
X171909619Y-63936619D01*
X171849143Y-64057571D01*
X171788667Y-64118048D01*
X171667714Y-64178524D01*
X171304857Y-64178524D01*
X171183905Y-64118048D01*
X171123429Y-64057571D01*
X156318857Y-62908524D02*
X156318857Y-63936619D01*
X156379333Y-64057571D01*
X156439809Y-64118048D01*
X156560762Y-64178524D01*
X156802666Y-64178524D01*
X156923619Y-64118048D01*
X156984095Y-64057571D01*
X157044571Y-63936619D01*
X157044571Y-62908524D01*
X158193619Y-63331857D02*
X158193619Y-64178524D01*
X157891238Y-62848048D02*
X157588857Y-63755190D01*
X158375047Y-63755190D01*
X159100762Y-62908524D02*
X159221714Y-62908524D01*
X159342666Y-62969000D01*
X159403143Y-63029476D01*
X159463619Y-63150429D01*
X159524095Y-63392333D01*
X159524095Y-63694714D01*
X159463619Y-63936619D01*
X159403143Y-64057571D01*
X159342666Y-64118048D01*
X159221714Y-64178524D01*
X159100762Y-64178524D01*
X158979809Y-64118048D01*
X158919333Y-64057571D01*
X158858857Y-63936619D01*
X158798381Y-63694714D01*
X158798381Y-63392333D01*
X158858857Y-63150429D01*
X158919333Y-63029476D01*
X158979809Y-62969000D01*
X159100762Y-62908524D01*
X160612667Y-63331857D02*
X160612667Y-64178524D01*
X160310286Y-62848048D02*
X160007905Y-63755190D01*
X160794095Y-63755190D01*
X140893857Y-93471524D02*
X140893857Y-94499619D01*
X140954333Y-94620571D01*
X141014809Y-94681048D01*
X141135762Y-94741524D01*
X141377666Y-94741524D01*
X141498619Y-94681048D01*
X141559095Y-94620571D01*
X141619571Y-94499619D01*
X141619571Y-93471524D01*
X142829095Y-93471524D02*
X142224333Y-93471524D01*
X142163857Y-94076286D01*
X142224333Y-94015810D01*
X142345285Y-93955333D01*
X142647666Y-93955333D01*
X142768619Y-94015810D01*
X142829095Y-94076286D01*
X142889571Y-94197238D01*
X142889571Y-94499619D01*
X142829095Y-94620571D01*
X142768619Y-94681048D01*
X142647666Y-94741524D01*
X142345285Y-94741524D01*
X142224333Y-94681048D01*
X142163857Y-94620571D01*
X143675762Y-93471524D02*
X143796714Y-93471524D01*
X143917666Y-93532000D01*
X143978143Y-93592476D01*
X144038619Y-93713429D01*
X144099095Y-93955333D01*
X144099095Y-94257714D01*
X144038619Y-94499619D01*
X143978143Y-94620571D01*
X143917666Y-94681048D01*
X143796714Y-94741524D01*
X143675762Y-94741524D01*
X143554809Y-94681048D01*
X143494333Y-94620571D01*
X143433857Y-94499619D01*
X143373381Y-94257714D01*
X143373381Y-93955333D01*
X143433857Y-93713429D01*
X143494333Y-93592476D01*
X143554809Y-93532000D01*
X143675762Y-93471524D01*
X145308619Y-94741524D02*
X144582905Y-94741524D01*
X144945762Y-94741524D02*
X144945762Y-93471524D01*
X144824810Y-93652952D01*
X144703857Y-93773905D01*
X144582905Y-93834381D01*
X118430524Y-114142761D02*
X119700524Y-113296095D01*
X118430524Y-113296095D02*
X119700524Y-114142761D01*
X118430524Y-112993714D02*
X118430524Y-112267999D01*
X119700524Y-112630856D02*
X118430524Y-112630856D01*
X119337667Y-111905142D02*
X119337667Y-111300380D01*
X119700524Y-112026095D02*
X118430524Y-111602761D01*
X119700524Y-111179428D01*
X119700524Y-110151333D02*
X119700524Y-110756095D01*
X118430524Y-110756095D01*
X118430524Y-109123238D02*
X118430524Y-109728000D01*
X119035286Y-109788476D01*
X118974810Y-109728000D01*
X118914333Y-109607048D01*
X118914333Y-109304667D01*
X118974810Y-109183714D01*
X119035286Y-109123238D01*
X119156238Y-109062762D01*
X119458619Y-109062762D01*
X119579571Y-109123238D01*
X119640048Y-109183714D01*
X119700524Y-109304667D01*
X119700524Y-109607048D01*
X119640048Y-109728000D01*
X119579571Y-109788476D01*
X118430524Y-108276571D02*
X118430524Y-108155619D01*
X118491000Y-108034667D01*
X118551476Y-107974190D01*
X118672429Y-107913714D01*
X118914333Y-107853238D01*
X119216714Y-107853238D01*
X119458619Y-107913714D01*
X119579571Y-107974190D01*
X119640048Y-108034667D01*
X119700524Y-108155619D01*
X119700524Y-108276571D01*
X119640048Y-108397524D01*
X119579571Y-108458000D01*
X119458619Y-108518476D01*
X119216714Y-108578952D01*
X118914333Y-108578952D01*
X118672429Y-108518476D01*
X118551476Y-108458000D01*
X118491000Y-108397524D01*
X118430524Y-108276571D01*
X119700524Y-106643714D02*
X119700524Y-107369428D01*
X119700524Y-107006571D02*
X118430524Y-107006571D01*
X118611952Y-107127523D01*
X118732905Y-107248476D01*
X118793381Y-107369428D01*
X135158239Y-119192524D02*
X136004905Y-120462524D01*
X136004905Y-119192524D02*
X135158239Y-120462524D01*
X136307286Y-119192524D02*
X137033001Y-119192524D01*
X136670144Y-120462524D02*
X136670144Y-119192524D01*
X137395858Y-120099667D02*
X138000620Y-120099667D01*
X137274905Y-120462524D02*
X137698239Y-119192524D01*
X138121572Y-120462524D01*
X139149667Y-120462524D02*
X138544905Y-120462524D01*
X138544905Y-119192524D01*
X140177762Y-119192524D02*
X139573000Y-119192524D01*
X139512524Y-119797286D01*
X139573000Y-119736810D01*
X139693952Y-119676333D01*
X139996333Y-119676333D01*
X140117286Y-119736810D01*
X140177762Y-119797286D01*
X140238238Y-119918238D01*
X140238238Y-120220619D01*
X140177762Y-120341571D01*
X140117286Y-120402048D01*
X139996333Y-120462524D01*
X139693952Y-120462524D01*
X139573000Y-120402048D01*
X139512524Y-120341571D01*
X141024429Y-119192524D02*
X141145381Y-119192524D01*
X141266333Y-119253000D01*
X141326810Y-119313476D01*
X141387286Y-119434429D01*
X141447762Y-119676333D01*
X141447762Y-119978714D01*
X141387286Y-120220619D01*
X141326810Y-120341571D01*
X141266333Y-120402048D01*
X141145381Y-120462524D01*
X141024429Y-120462524D01*
X140903476Y-120402048D01*
X140843000Y-120341571D01*
X140782524Y-120220619D01*
X140722048Y-119978714D01*
X140722048Y-119676333D01*
X140782524Y-119434429D01*
X140843000Y-119313476D01*
X140903476Y-119253000D01*
X141024429Y-119192524D01*
X141931572Y-119313476D02*
X141992048Y-119253000D01*
X142113000Y-119192524D01*
X142415381Y-119192524D01*
X142536334Y-119253000D01*
X142596810Y-119313476D01*
X142657286Y-119434429D01*
X142657286Y-119555381D01*
X142596810Y-119736810D01*
X141871096Y-120462524D01*
X142657286Y-120462524D01*
X144211524Y-65132857D02*
X145118667Y-65132857D01*
X145300095Y-65193333D01*
X145421048Y-65314285D01*
X145481524Y-65495714D01*
X145481524Y-65616666D01*
X144332476Y-64588571D02*
X144272000Y-64528095D01*
X144211524Y-64407143D01*
X144211524Y-64104762D01*
X144272000Y-63983809D01*
X144332476Y-63923333D01*
X144453429Y-63862857D01*
X144574381Y-63862857D01*
X144755810Y-63923333D01*
X145481524Y-64649047D01*
X145481524Y-63862857D01*
X144211524Y-63076666D02*
X144211524Y-62955714D01*
X144272000Y-62834762D01*
X144332476Y-62774285D01*
X144453429Y-62713809D01*
X144695333Y-62653333D01*
X144997714Y-62653333D01*
X145239619Y-62713809D01*
X145360571Y-62774285D01*
X145421048Y-62834762D01*
X145481524Y-62955714D01*
X145481524Y-63076666D01*
X145421048Y-63197619D01*
X145360571Y-63258095D01*
X145239619Y-63318571D01*
X144997714Y-63379047D01*
X144695333Y-63379047D01*
X144453429Y-63318571D01*
X144332476Y-63258095D01*
X144272000Y-63197619D01*
X144211524Y-63076666D01*
X144332476Y-62169523D02*
X144272000Y-62109047D01*
X144211524Y-61988095D01*
X144211524Y-61685714D01*
X144272000Y-61564761D01*
X144332476Y-61504285D01*
X144453429Y-61443809D01*
X144574381Y-61443809D01*
X144755810Y-61504285D01*
X145481524Y-62229999D01*
X145481524Y-61443809D01*
X187518524Y-115043857D02*
X188425667Y-115043857D01*
X188607095Y-115104333D01*
X188728048Y-115225285D01*
X188788524Y-115406714D01*
X188788524Y-115527666D01*
X187518524Y-114560047D02*
X187518524Y-113773857D01*
X188002333Y-114197190D01*
X188002333Y-114015762D01*
X188062810Y-113894809D01*
X188123286Y-113834333D01*
X188244238Y-113773857D01*
X188546619Y-113773857D01*
X188667571Y-113834333D01*
X188728048Y-113894809D01*
X188788524Y-114015762D01*
X188788524Y-114378619D01*
X188728048Y-114499571D01*
X188667571Y-114560047D01*
X187518524Y-112987666D02*
X187518524Y-112866714D01*
X187579000Y-112745762D01*
X187639476Y-112685285D01*
X187760429Y-112624809D01*
X188002333Y-112564333D01*
X188304714Y-112564333D01*
X188546619Y-112624809D01*
X188667571Y-112685285D01*
X188728048Y-112745762D01*
X188788524Y-112866714D01*
X188788524Y-112987666D01*
X188728048Y-113108619D01*
X188667571Y-113169095D01*
X188546619Y-113229571D01*
X188304714Y-113290047D01*
X188002333Y-113290047D01*
X187760429Y-113229571D01*
X187639476Y-113169095D01*
X187579000Y-113108619D01*
X187518524Y-112987666D01*
X188788524Y-111354809D02*
X188788524Y-112080523D01*
X188788524Y-111717666D02*
X187518524Y-111717666D01*
X187699952Y-111838618D01*
X187820905Y-111959571D01*
X187881381Y-112080523D01*
X178882524Y-115297857D02*
X179789667Y-115297857D01*
X179971095Y-115358333D01*
X180092048Y-115479285D01*
X180152524Y-115660714D01*
X180152524Y-115781666D01*
X178882524Y-114814047D02*
X178882524Y-114027857D01*
X179366333Y-114451190D01*
X179366333Y-114269762D01*
X179426810Y-114148809D01*
X179487286Y-114088333D01*
X179608238Y-114027857D01*
X179910619Y-114027857D01*
X180031571Y-114088333D01*
X180092048Y-114148809D01*
X180152524Y-114269762D01*
X180152524Y-114632619D01*
X180092048Y-114753571D01*
X180031571Y-114814047D01*
X178882524Y-113241666D02*
X178882524Y-113120714D01*
X178943000Y-112999762D01*
X179003476Y-112939285D01*
X179124429Y-112878809D01*
X179366333Y-112818333D01*
X179668714Y-112818333D01*
X179910619Y-112878809D01*
X180031571Y-112939285D01*
X180092048Y-112999762D01*
X180152524Y-113120714D01*
X180152524Y-113241666D01*
X180092048Y-113362619D01*
X180031571Y-113423095D01*
X179910619Y-113483571D01*
X179668714Y-113544047D01*
X179366333Y-113544047D01*
X179124429Y-113483571D01*
X179003476Y-113423095D01*
X178943000Y-113362619D01*
X178882524Y-113241666D01*
X179003476Y-112334523D02*
X178943000Y-112274047D01*
X178882524Y-112153095D01*
X178882524Y-111850714D01*
X178943000Y-111729761D01*
X179003476Y-111669285D01*
X179124429Y-111608809D01*
X179245381Y-111608809D01*
X179426810Y-111669285D01*
X180152524Y-112394999D01*
X180152524Y-111608809D01*
X188661524Y-77488143D02*
X189689619Y-77488143D01*
X189810571Y-77427667D01*
X189871048Y-77367191D01*
X189931524Y-77246238D01*
X189931524Y-77004334D01*
X189871048Y-76883381D01*
X189810571Y-76822905D01*
X189689619Y-76762429D01*
X188661524Y-76762429D01*
X189084857Y-75613381D02*
X189931524Y-75613381D01*
X188601048Y-75915762D02*
X189508190Y-76218143D01*
X189508190Y-75431953D01*
X188661524Y-74706238D02*
X188661524Y-74585286D01*
X188722000Y-74464334D01*
X188782476Y-74403857D01*
X188903429Y-74343381D01*
X189145333Y-74282905D01*
X189447714Y-74282905D01*
X189689619Y-74343381D01*
X189810571Y-74403857D01*
X189871048Y-74464334D01*
X189931524Y-74585286D01*
X189931524Y-74706238D01*
X189871048Y-74827191D01*
X189810571Y-74887667D01*
X189689619Y-74948143D01*
X189447714Y-75008619D01*
X189145333Y-75008619D01*
X188903429Y-74948143D01*
X188782476Y-74887667D01*
X188722000Y-74827191D01*
X188661524Y-74706238D01*
X189931524Y-73073381D02*
X189931524Y-73799095D01*
X189931524Y-73436238D02*
X188661524Y-73436238D01*
X188842952Y-73557190D01*
X188963905Y-73678143D01*
X189024381Y-73799095D01*
X130658809Y-85537524D02*
X130235476Y-84932762D01*
X129933095Y-85537524D02*
X129933095Y-84267524D01*
X130416904Y-84267524D01*
X130537857Y-84328000D01*
X130598333Y-84388476D01*
X130658809Y-84509429D01*
X130658809Y-84690857D01*
X130598333Y-84811810D01*
X130537857Y-84872286D01*
X130416904Y-84932762D01*
X129933095Y-84932762D01*
X131142619Y-84388476D02*
X131203095Y-84328000D01*
X131324047Y-84267524D01*
X131626428Y-84267524D01*
X131747381Y-84328000D01*
X131807857Y-84388476D01*
X131868333Y-84509429D01*
X131868333Y-84630381D01*
X131807857Y-84811810D01*
X131082143Y-85537524D01*
X131868333Y-85537524D01*
X132654524Y-84267524D02*
X132775476Y-84267524D01*
X132896428Y-84328000D01*
X132956905Y-84388476D01*
X133017381Y-84509429D01*
X133077857Y-84751333D01*
X133077857Y-85053714D01*
X133017381Y-85295619D01*
X132956905Y-85416571D01*
X132896428Y-85477048D01*
X132775476Y-85537524D01*
X132654524Y-85537524D01*
X132533571Y-85477048D01*
X132473095Y-85416571D01*
X132412619Y-85295619D01*
X132352143Y-85053714D01*
X132352143Y-84751333D01*
X132412619Y-84509429D01*
X132473095Y-84388476D01*
X132533571Y-84328000D01*
X132654524Y-84267524D01*
X133501191Y-84267524D02*
X134347857Y-84267524D01*
X133803572Y-85537524D01*
X124689809Y-85664524D02*
X124266476Y-85059762D01*
X123964095Y-85664524D02*
X123964095Y-84394524D01*
X124447904Y-84394524D01*
X124568857Y-84455000D01*
X124629333Y-84515476D01*
X124689809Y-84636429D01*
X124689809Y-84817857D01*
X124629333Y-84938810D01*
X124568857Y-84999286D01*
X124447904Y-85059762D01*
X123964095Y-85059762D01*
X125173619Y-84515476D02*
X125234095Y-84455000D01*
X125355047Y-84394524D01*
X125657428Y-84394524D01*
X125778381Y-84455000D01*
X125838857Y-84515476D01*
X125899333Y-84636429D01*
X125899333Y-84757381D01*
X125838857Y-84938810D01*
X125113143Y-85664524D01*
X125899333Y-85664524D01*
X127108857Y-85664524D02*
X126383143Y-85664524D01*
X126746000Y-85664524D02*
X126746000Y-84394524D01*
X126625048Y-84575952D01*
X126504095Y-84696905D01*
X126383143Y-84757381D01*
X127895048Y-84394524D02*
X128016000Y-84394524D01*
X128136952Y-84455000D01*
X128197429Y-84515476D01*
X128257905Y-84636429D01*
X128318381Y-84878333D01*
X128318381Y-85180714D01*
X128257905Y-85422619D01*
X128197429Y-85543571D01*
X128136952Y-85604048D01*
X128016000Y-85664524D01*
X127895048Y-85664524D01*
X127774095Y-85604048D01*
X127713619Y-85543571D01*
X127653143Y-85422619D01*
X127592667Y-85180714D01*
X127592667Y-84878333D01*
X127653143Y-84636429D01*
X127713619Y-84515476D01*
X127774095Y-84455000D01*
X127895048Y-84394524D01*
X126939524Y-91585143D02*
X127967619Y-91585143D01*
X128088571Y-91524667D01*
X128149048Y-91464191D01*
X128209524Y-91343238D01*
X128209524Y-91101334D01*
X128149048Y-90980381D01*
X128088571Y-90919905D01*
X127967619Y-90859429D01*
X126939524Y-90859429D01*
X127060476Y-90315143D02*
X127000000Y-90254667D01*
X126939524Y-90133715D01*
X126939524Y-89831334D01*
X127000000Y-89710381D01*
X127060476Y-89649905D01*
X127181429Y-89589429D01*
X127302381Y-89589429D01*
X127483810Y-89649905D01*
X128209524Y-90375619D01*
X128209524Y-89589429D01*
X126939524Y-88803238D02*
X126939524Y-88682286D01*
X127000000Y-88561334D01*
X127060476Y-88500857D01*
X127181429Y-88440381D01*
X127423333Y-88379905D01*
X127725714Y-88379905D01*
X127967619Y-88440381D01*
X128088571Y-88500857D01*
X128149048Y-88561334D01*
X128209524Y-88682286D01*
X128209524Y-88803238D01*
X128149048Y-88924191D01*
X128088571Y-88984667D01*
X127967619Y-89045143D01*
X127725714Y-89105619D01*
X127423333Y-89105619D01*
X127181429Y-89045143D01*
X127060476Y-88984667D01*
X127000000Y-88924191D01*
X126939524Y-88803238D01*
X126939524Y-87956571D02*
X126939524Y-87170381D01*
X127423333Y-87593714D01*
X127423333Y-87412286D01*
X127483810Y-87291333D01*
X127544286Y-87230857D01*
X127665238Y-87170381D01*
X127967619Y-87170381D01*
X128088571Y-87230857D01*
X128149048Y-87291333D01*
X128209524Y-87412286D01*
X128209524Y-87775143D01*
X128149048Y-87896095D01*
X128088571Y-87956571D01*
X180612143Y-97064286D02*
X180188810Y-97064286D01*
X180188810Y-97729524D02*
X180188810Y-96459524D01*
X180793572Y-96459524D01*
X181821667Y-96882857D02*
X181821667Y-97729524D01*
X181519286Y-96399048D02*
X181216905Y-97306190D01*
X182003095Y-97306190D01*
X182728810Y-96459524D02*
X182849762Y-96459524D01*
X182970714Y-96520000D01*
X183031191Y-96580476D01*
X183091667Y-96701429D01*
X183152143Y-96943333D01*
X183152143Y-97245714D01*
X183091667Y-97487619D01*
X183031191Y-97608571D01*
X182970714Y-97669048D01*
X182849762Y-97729524D01*
X182728810Y-97729524D01*
X182607857Y-97669048D01*
X182547381Y-97608571D01*
X182486905Y-97487619D01*
X182426429Y-97245714D01*
X182426429Y-96943333D01*
X182486905Y-96701429D01*
X182547381Y-96580476D01*
X182607857Y-96520000D01*
X182728810Y-96459524D01*
X184361667Y-97729524D02*
X183635953Y-97729524D01*
X183998810Y-97729524D02*
X183998810Y-96459524D01*
X183877858Y-96640952D01*
X183756905Y-96761905D01*
X183635953Y-96822381D01*
X150053524Y-82410905D02*
X148783524Y-82410905D01*
X148783524Y-82108524D01*
X148844000Y-81927096D01*
X148964952Y-81806143D01*
X149085905Y-81745667D01*
X149327810Y-81685191D01*
X149509238Y-81685191D01*
X149751143Y-81745667D01*
X149872095Y-81806143D01*
X149993048Y-81927096D01*
X150053524Y-82108524D01*
X150053524Y-82410905D01*
X149206857Y-80596619D02*
X150053524Y-80596619D01*
X148723048Y-80899000D02*
X149630190Y-81201381D01*
X149630190Y-80415191D01*
X148783524Y-79689476D02*
X148783524Y-79568524D01*
X148844000Y-79447572D01*
X148904476Y-79387095D01*
X149025429Y-79326619D01*
X149267333Y-79266143D01*
X149569714Y-79266143D01*
X149811619Y-79326619D01*
X149932571Y-79387095D01*
X149993048Y-79447572D01*
X150053524Y-79568524D01*
X150053524Y-79689476D01*
X149993048Y-79810429D01*
X149932571Y-79870905D01*
X149811619Y-79931381D01*
X149569714Y-79991857D01*
X149267333Y-79991857D01*
X149025429Y-79931381D01*
X148904476Y-79870905D01*
X148844000Y-79810429D01*
X148783524Y-79689476D01*
X148904476Y-78782333D02*
X148844000Y-78721857D01*
X148783524Y-78600905D01*
X148783524Y-78298524D01*
X148844000Y-78177571D01*
X148904476Y-78117095D01*
X149025429Y-78056619D01*
X149146381Y-78056619D01*
X149327810Y-78117095D01*
X150053524Y-78842809D01*
X150053524Y-78056619D01*
X145227524Y-82410905D02*
X143957524Y-82410905D01*
X143957524Y-82108524D01*
X144018000Y-81927096D01*
X144138952Y-81806143D01*
X144259905Y-81745667D01*
X144501810Y-81685191D01*
X144683238Y-81685191D01*
X144925143Y-81745667D01*
X145046095Y-81806143D01*
X145167048Y-81927096D01*
X145227524Y-82108524D01*
X145227524Y-82410905D01*
X144380857Y-80596619D02*
X145227524Y-80596619D01*
X143897048Y-80899000D02*
X144804190Y-81201381D01*
X144804190Y-80415191D01*
X143957524Y-79689476D02*
X143957524Y-79568524D01*
X144018000Y-79447572D01*
X144078476Y-79387095D01*
X144199429Y-79326619D01*
X144441333Y-79266143D01*
X144743714Y-79266143D01*
X144985619Y-79326619D01*
X145106571Y-79387095D01*
X145167048Y-79447572D01*
X145227524Y-79568524D01*
X145227524Y-79689476D01*
X145167048Y-79810429D01*
X145106571Y-79870905D01*
X144985619Y-79931381D01*
X144743714Y-79991857D01*
X144441333Y-79991857D01*
X144199429Y-79931381D01*
X144078476Y-79870905D01*
X144018000Y-79810429D01*
X143957524Y-79689476D01*
X143957524Y-78842809D02*
X143957524Y-78056619D01*
X144441333Y-78479952D01*
X144441333Y-78298524D01*
X144501810Y-78177571D01*
X144562286Y-78117095D01*
X144683238Y-78056619D01*
X144985619Y-78056619D01*
X145106571Y-78117095D01*
X145167048Y-78177571D01*
X145227524Y-78298524D01*
X145227524Y-78661381D01*
X145167048Y-78782333D01*
X145106571Y-78842809D01*
X150053524Y-76478191D02*
X149448762Y-76901524D01*
X150053524Y-77203905D02*
X148783524Y-77203905D01*
X148783524Y-76720096D01*
X148844000Y-76599143D01*
X148904476Y-76538667D01*
X149025429Y-76478191D01*
X149206857Y-76478191D01*
X149327810Y-76538667D01*
X149388286Y-76599143D01*
X149448762Y-76720096D01*
X149448762Y-77203905D01*
X149206857Y-75389619D02*
X150053524Y-75389619D01*
X148723048Y-75692000D02*
X149630190Y-75994381D01*
X149630190Y-75208191D01*
X148783524Y-74482476D02*
X148783524Y-74361524D01*
X148844000Y-74240572D01*
X148904476Y-74180095D01*
X149025429Y-74119619D01*
X149267333Y-74059143D01*
X149569714Y-74059143D01*
X149811619Y-74119619D01*
X149932571Y-74180095D01*
X149993048Y-74240572D01*
X150053524Y-74361524D01*
X150053524Y-74482476D01*
X149993048Y-74603429D01*
X149932571Y-74663905D01*
X149811619Y-74724381D01*
X149569714Y-74784857D01*
X149267333Y-74784857D01*
X149025429Y-74724381D01*
X148904476Y-74663905D01*
X148844000Y-74603429D01*
X148783524Y-74482476D01*
X149206857Y-72970571D02*
X150053524Y-72970571D01*
X148723048Y-73272952D02*
X149630190Y-73575333D01*
X149630190Y-72789143D01*
X145227524Y-76605191D02*
X144622762Y-77028524D01*
X145227524Y-77330905D02*
X143957524Y-77330905D01*
X143957524Y-76847096D01*
X144018000Y-76726143D01*
X144078476Y-76665667D01*
X144199429Y-76605191D01*
X144380857Y-76605191D01*
X144501810Y-76665667D01*
X144562286Y-76726143D01*
X144622762Y-76847096D01*
X144622762Y-77330905D01*
X144380857Y-75516619D02*
X145227524Y-75516619D01*
X143897048Y-75819000D02*
X144804190Y-76121381D01*
X144804190Y-75335191D01*
X143957524Y-74609476D02*
X143957524Y-74488524D01*
X144018000Y-74367572D01*
X144078476Y-74307095D01*
X144199429Y-74246619D01*
X144441333Y-74186143D01*
X144743714Y-74186143D01*
X144985619Y-74246619D01*
X145106571Y-74307095D01*
X145167048Y-74367572D01*
X145227524Y-74488524D01*
X145227524Y-74609476D01*
X145167048Y-74730429D01*
X145106571Y-74790905D01*
X144985619Y-74851381D01*
X144743714Y-74911857D01*
X144441333Y-74911857D01*
X144199429Y-74851381D01*
X144078476Y-74790905D01*
X144018000Y-74730429D01*
X143957524Y-74609476D01*
X143957524Y-73037095D02*
X143957524Y-73641857D01*
X144562286Y-73702333D01*
X144501810Y-73641857D01*
X144441333Y-73520905D01*
X144441333Y-73218524D01*
X144501810Y-73097571D01*
X144562286Y-73037095D01*
X144683238Y-72976619D01*
X144985619Y-72976619D01*
X145106571Y-73037095D01*
X145167048Y-73097571D01*
X145227524Y-73218524D01*
X145227524Y-73520905D01*
X145167048Y-73641857D01*
X145106571Y-73702333D01*
X113604524Y-110344857D02*
X114511667Y-110344857D01*
X114693095Y-110405333D01*
X114814048Y-110526285D01*
X114874524Y-110707714D01*
X114874524Y-110828666D01*
X113604524Y-109135333D02*
X113604524Y-109740095D01*
X114209286Y-109800571D01*
X114148810Y-109740095D01*
X114088333Y-109619143D01*
X114088333Y-109316762D01*
X114148810Y-109195809D01*
X114209286Y-109135333D01*
X114330238Y-109074857D01*
X114632619Y-109074857D01*
X114753571Y-109135333D01*
X114814048Y-109195809D01*
X114874524Y-109316762D01*
X114874524Y-109619143D01*
X114814048Y-109740095D01*
X114753571Y-109800571D01*
X113604524Y-108288666D02*
X113604524Y-108167714D01*
X113665000Y-108046762D01*
X113725476Y-107986285D01*
X113846429Y-107925809D01*
X114088333Y-107865333D01*
X114390714Y-107865333D01*
X114632619Y-107925809D01*
X114753571Y-107986285D01*
X114814048Y-108046762D01*
X114874524Y-108167714D01*
X114874524Y-108288666D01*
X114814048Y-108409619D01*
X114753571Y-108470095D01*
X114632619Y-108530571D01*
X114390714Y-108591047D01*
X114088333Y-108591047D01*
X113846429Y-108530571D01*
X113725476Y-108470095D01*
X113665000Y-108409619D01*
X113604524Y-108288666D01*
X114874524Y-106655809D02*
X114874524Y-107381523D01*
X114874524Y-107018666D02*
X113604524Y-107018666D01*
X113785952Y-107139618D01*
X113906905Y-107260571D01*
X113967381Y-107381523D01*
X146116524Y-70720857D02*
X147023667Y-70720857D01*
X147205095Y-70781333D01*
X147326048Y-70902285D01*
X147386524Y-71083714D01*
X147386524Y-71204666D01*
X146539857Y-69571809D02*
X147386524Y-69571809D01*
X146056048Y-69874190D02*
X146963190Y-70176571D01*
X146963190Y-69390381D01*
X146116524Y-68664666D02*
X146116524Y-68543714D01*
X146177000Y-68422762D01*
X146237476Y-68362285D01*
X146358429Y-68301809D01*
X146600333Y-68241333D01*
X146902714Y-68241333D01*
X147144619Y-68301809D01*
X147265571Y-68362285D01*
X147326048Y-68422762D01*
X147386524Y-68543714D01*
X147386524Y-68664666D01*
X147326048Y-68785619D01*
X147265571Y-68846095D01*
X147144619Y-68906571D01*
X146902714Y-68967047D01*
X146600333Y-68967047D01*
X146358429Y-68906571D01*
X146237476Y-68846095D01*
X146177000Y-68785619D01*
X146116524Y-68664666D01*
X147386524Y-67031809D02*
X147386524Y-67757523D01*
X147386524Y-67394666D02*
X146116524Y-67394666D01*
X146297952Y-67515618D01*
X146418905Y-67636571D01*
X146479381Y-67757523D01*
M02*
