G04 #@! TF.GenerationSoftware,KiCad,Pcbnew,5.1.2-f72e74a~84~ubuntu18.04.1*
G04 #@! TF.CreationDate,2019-05-31T10:47:24-04:00*
G04 #@! TF.ProjectId,Master_Board,4d617374-6572-45f4-926f-6172642e6b69,rev?*
G04 #@! TF.SameCoordinates,Original*
G04 #@! TF.FileFunction,Paste,Bot*
G04 #@! TF.FilePolarity,Positive*
%FSLAX46Y46*%
G04 Gerber Fmt 4.6, Leading zero omitted, Abs format (unit mm)*
G04 Created by KiCad (PCBNEW 5.1.2-f72e74a~84~ubuntu18.04.1) date 2019-05-31 10:47:24*
%MOMM*%
%LPD*%
G04 APERTURE LIST*
%ADD10R,1.400000X1.000000*%
%ADD11R,1.400000X1.500000*%
%ADD12R,1.500000X1.400000*%
%ADD13R,2.000000X3.000000*%
%ADD14R,1.500000X1.000000*%
%ADD15R,3.000000X2.000000*%
%ADD16R,6.300000X2.200000*%
%ADD17R,1.000000X1.400000*%
%ADD18R,1.600000X1.900000*%
%ADD19R,2.000000X1.600000*%
%ADD20C,0.100000*%
%ADD21C,0.850000*%
%ADD22C,1.700000*%
%ADD23C,1.400000*%
%ADD24C,1.000000*%
%ADD25R,2.000000X2.000000*%
G04 APERTURE END LIST*
D10*
X146982000Y-69858184D03*
X146982000Y-67958184D03*
X149182000Y-68908184D03*
X117772000Y-69858184D03*
X117772000Y-67958184D03*
X119972000Y-68908184D03*
D11*
X160708980Y-83286638D03*
X158658980Y-83286638D03*
D12*
X132738116Y-106404511D03*
X132738116Y-108454511D03*
D11*
X158513980Y-92176638D03*
X160563980Y-92176638D03*
D12*
X147152645Y-94292319D03*
X147152645Y-96342319D03*
X184673815Y-97795908D03*
X184673815Y-99845908D03*
X154432000Y-82388184D03*
X154432000Y-80338184D03*
X156508966Y-82458111D03*
X156508966Y-80408111D03*
X156042645Y-96487319D03*
X156042645Y-94437319D03*
X163957000Y-89718184D03*
X163957000Y-91768184D03*
D11*
X152672000Y-87958184D03*
X150622000Y-87958184D03*
X159367000Y-95578184D03*
X161417000Y-95578184D03*
X130828000Y-95070184D03*
X128778000Y-95070184D03*
X143147000Y-87958184D03*
X141097000Y-87958184D03*
X140952000Y-90498184D03*
X143002000Y-90498184D03*
X145397000Y-98753184D03*
X147447000Y-98753184D03*
D12*
X149865035Y-106541648D03*
X149865035Y-108591648D03*
X126492000Y-131463000D03*
X126492000Y-129413000D03*
X132842000Y-125458000D03*
X132842000Y-127508000D03*
X147447000Y-129558000D03*
X147447000Y-127508000D03*
X155702000Y-127363000D03*
X155702000Y-129413000D03*
X189992000Y-85563184D03*
X189992000Y-83513184D03*
X189357000Y-89780212D03*
X189357000Y-87730212D03*
X191791554Y-89780212D03*
X191791554Y-87730212D03*
X195072000Y-94453184D03*
X195072000Y-92403184D03*
X195072000Y-84003184D03*
X195072000Y-86053184D03*
D11*
X115207000Y-123063000D03*
X113157000Y-123063000D03*
D12*
X113157000Y-118473000D03*
X113157000Y-120523000D03*
X115697000Y-118473000D03*
X115697000Y-120523000D03*
X110617000Y-122573000D03*
X110617000Y-120523000D03*
X110617000Y-116568000D03*
X110617000Y-118618000D03*
D11*
X113012000Y-58928000D03*
X115062000Y-58928000D03*
X142857000Y-58928000D03*
X144907000Y-58928000D03*
X115062000Y-61468000D03*
X113012000Y-61468000D03*
X144907000Y-61468000D03*
X142857000Y-61468000D03*
D12*
X98552000Y-59418000D03*
X98552000Y-61468000D03*
X99822000Y-76853000D03*
X99822000Y-74803000D03*
D11*
X114572000Y-67818000D03*
X112522000Y-67818000D03*
X144417000Y-67818000D03*
X142367000Y-67818000D03*
X97772000Y-79883000D03*
X99822000Y-79883000D03*
X142313317Y-74954153D03*
X144363317Y-74954153D03*
X114258431Y-75046929D03*
X112208431Y-75046929D03*
D12*
X148717000Y-74923098D03*
X148717000Y-76973098D03*
X116650023Y-74377967D03*
X116650023Y-76427967D03*
D10*
X195877000Y-90178184D03*
X195877000Y-88278184D03*
X198077000Y-89228184D03*
X105072000Y-129548184D03*
X105072000Y-127648184D03*
X107272000Y-128598184D03*
D13*
X126327000Y-46228000D03*
X121577000Y-46228000D03*
X156172000Y-46228000D03*
X151422000Y-46228000D03*
D14*
X155347000Y-69088000D03*
X152247000Y-69088000D03*
X125502000Y-69088000D03*
X122402000Y-69088000D03*
D15*
X113792000Y-46393000D03*
X113792000Y-51143000D03*
X143637000Y-46393000D03*
X143637000Y-51143000D03*
D11*
X100602000Y-70993000D03*
X98552000Y-70993000D03*
D16*
X104902000Y-74843000D03*
X104902000Y-79843000D03*
D10*
X168572000Y-72578000D03*
X168572000Y-70678000D03*
X170772000Y-71628000D03*
X177462000Y-72578000D03*
X177462000Y-70678000D03*
X179662000Y-71628000D03*
X195242000Y-72578000D03*
X195242000Y-70678000D03*
X197442000Y-71628000D03*
X186352000Y-72578000D03*
X186352000Y-70678000D03*
X188552000Y-71628000D03*
X159342000Y-74236817D03*
X159342000Y-76136817D03*
X157142000Y-75186817D03*
X129497000Y-74488000D03*
X129497000Y-76388000D03*
X127297000Y-75438000D03*
D17*
X203647000Y-126228184D03*
X205547000Y-126228184D03*
X204597000Y-128428184D03*
X203647000Y-105273184D03*
X205547000Y-105273184D03*
X204597000Y-107473184D03*
X203647000Y-112258184D03*
X205547000Y-112258184D03*
X204597000Y-114458184D03*
X203647000Y-119243184D03*
X205547000Y-119243184D03*
X204597000Y-121443184D03*
D11*
X133228116Y-103864511D03*
X135278116Y-103864511D03*
D12*
X156337000Y-85908184D03*
X156337000Y-87958184D03*
X135278116Y-108454511D03*
X135278116Y-106404511D03*
X182451315Y-97795908D03*
X182451315Y-99845908D03*
X180228815Y-97795908D03*
X180228815Y-99845908D03*
D11*
X150817645Y-91262319D03*
X152867645Y-91262319D03*
X131082000Y-88720184D03*
X129032000Y-88720184D03*
D12*
X136398000Y-90480184D03*
X136398000Y-92530184D03*
X184531000Y-92982000D03*
X184531000Y-90932000D03*
X179451000Y-92982000D03*
X179451000Y-90932000D03*
X147325035Y-108591648D03*
X147325035Y-106541648D03*
D11*
X149375035Y-104001648D03*
X147325035Y-104001648D03*
D12*
X174371000Y-92982000D03*
X174371000Y-90932000D03*
D11*
X166352000Y-101420184D03*
X168402000Y-101420184D03*
X132062000Y-116713000D03*
X134112000Y-116713000D03*
X139682000Y-116713000D03*
X141732000Y-116713000D03*
X146667000Y-116713000D03*
X148717000Y-116713000D03*
X187597000Y-85418184D03*
X185547000Y-85418184D03*
D18*
X207062000Y-81608184D03*
X203962000Y-81608184D03*
D12*
X212852000Y-87813184D03*
X212852000Y-89863184D03*
D11*
X113157000Y-125603000D03*
X115207000Y-125603000D03*
D18*
X99262000Y-127508000D03*
X102362000Y-127508000D03*
D12*
X168402000Y-75928000D03*
X168402000Y-77978000D03*
X177292000Y-75928000D03*
X177292000Y-77978000D03*
X195072000Y-75928000D03*
X195072000Y-77978000D03*
X186182000Y-75928000D03*
X186182000Y-77978000D03*
X173482000Y-73678000D03*
X173482000Y-71628000D03*
X182372000Y-73678000D03*
X182372000Y-71628000D03*
X200152000Y-73678000D03*
X200152000Y-71628000D03*
X191262000Y-73678000D03*
X191262000Y-71628000D03*
D11*
X176802000Y-61468000D03*
X174752000Y-61468000D03*
X199662000Y-61468000D03*
X197612000Y-61468000D03*
X187452000Y-61468000D03*
X185402000Y-61468000D03*
X124732000Y-87630000D03*
X122682000Y-87630000D03*
D12*
X124587000Y-85108000D03*
X124587000Y-83058000D03*
X153797000Y-73678000D03*
X153797000Y-71628000D03*
X123952000Y-73678000D03*
X123952000Y-71628000D03*
X162052000Y-76218000D03*
X162052000Y-74168000D03*
X132207000Y-76218000D03*
X132207000Y-74168000D03*
D11*
X199027000Y-126693184D03*
X196977000Y-126693184D03*
D12*
X117602000Y-53358000D03*
X117602000Y-51308000D03*
D11*
X113012000Y-55118000D03*
X115062000Y-55118000D03*
D12*
X147447000Y-53358000D03*
X147447000Y-51308000D03*
D11*
X142857000Y-55118000D03*
X144907000Y-55118000D03*
D12*
X115062000Y-72408000D03*
X115062000Y-70358000D03*
X112522000Y-72408000D03*
X112522000Y-70358000D03*
X144907000Y-72408000D03*
X144907000Y-70358000D03*
X142367000Y-72408000D03*
X142367000Y-70358000D03*
D11*
X114258431Y-77343000D03*
X112208431Y-77343000D03*
X144363317Y-77343000D03*
X142313317Y-77343000D03*
D12*
X146327744Y-76968098D03*
X146327744Y-74918098D03*
X118946094Y-76427967D03*
X118946094Y-74377967D03*
D11*
X105682000Y-70993000D03*
X103632000Y-70993000D03*
X106952000Y-61468000D03*
X104902000Y-61468000D03*
X106952000Y-67818000D03*
X104902000Y-67818000D03*
D12*
X92202000Y-108423184D03*
X92202000Y-106373184D03*
D11*
X199027000Y-105103184D03*
X196977000Y-105103184D03*
X199027000Y-112299850D03*
X196977000Y-112299850D03*
X199027000Y-119496516D03*
X196977000Y-119496516D03*
X117112000Y-97155000D03*
X115062000Y-97155000D03*
X117112000Y-94742000D03*
X115062000Y-94742000D03*
D19*
X149947645Y-94787319D03*
X149947645Y-100437319D03*
X153247645Y-100437319D03*
X153247645Y-94787319D03*
D20*
G36*
X119770329Y-99906023D02*
G01*
X119790957Y-99909083D01*
X119811185Y-99914150D01*
X119830820Y-99921176D01*
X119849672Y-99930092D01*
X119867559Y-99940813D01*
X119884309Y-99953235D01*
X119899760Y-99967240D01*
X119913765Y-99982691D01*
X119926187Y-99999441D01*
X119936908Y-100017328D01*
X119945824Y-100036180D01*
X119952850Y-100055815D01*
X119957917Y-100076043D01*
X119960977Y-100096671D01*
X119962000Y-100117500D01*
X119962000Y-100542500D01*
X119960977Y-100563329D01*
X119957917Y-100583957D01*
X119952850Y-100604185D01*
X119945824Y-100623820D01*
X119936908Y-100642672D01*
X119926187Y-100660559D01*
X119913765Y-100677309D01*
X119899760Y-100692760D01*
X119884309Y-100706765D01*
X119867559Y-100719187D01*
X119849672Y-100729908D01*
X119830820Y-100738824D01*
X119811185Y-100745850D01*
X119790957Y-100750917D01*
X119770329Y-100753977D01*
X119749500Y-100755000D01*
X119324500Y-100755000D01*
X119303671Y-100753977D01*
X119283043Y-100750917D01*
X119262815Y-100745850D01*
X119243180Y-100738824D01*
X119224328Y-100729908D01*
X119206441Y-100719187D01*
X119189691Y-100706765D01*
X119174240Y-100692760D01*
X119160235Y-100677309D01*
X119147813Y-100660559D01*
X119137092Y-100642672D01*
X119128176Y-100623820D01*
X119121150Y-100604185D01*
X119116083Y-100583957D01*
X119113023Y-100563329D01*
X119112000Y-100542500D01*
X119112000Y-100117500D01*
X119113023Y-100096671D01*
X119116083Y-100076043D01*
X119121150Y-100055815D01*
X119128176Y-100036180D01*
X119137092Y-100017328D01*
X119147813Y-99999441D01*
X119160235Y-99982691D01*
X119174240Y-99967240D01*
X119189691Y-99953235D01*
X119206441Y-99940813D01*
X119224328Y-99930092D01*
X119243180Y-99921176D01*
X119262815Y-99914150D01*
X119283043Y-99909083D01*
X119303671Y-99906023D01*
X119324500Y-99905000D01*
X119749500Y-99905000D01*
X119770329Y-99906023D01*
X119770329Y-99906023D01*
G37*
D21*
X119537000Y-100330000D03*
D20*
G36*
X118470329Y-99906023D02*
G01*
X118490957Y-99909083D01*
X118511185Y-99914150D01*
X118530820Y-99921176D01*
X118549672Y-99930092D01*
X118567559Y-99940813D01*
X118584309Y-99953235D01*
X118599760Y-99967240D01*
X118613765Y-99982691D01*
X118626187Y-99999441D01*
X118636908Y-100017328D01*
X118645824Y-100036180D01*
X118652850Y-100055815D01*
X118657917Y-100076043D01*
X118660977Y-100096671D01*
X118662000Y-100117500D01*
X118662000Y-100542500D01*
X118660977Y-100563329D01*
X118657917Y-100583957D01*
X118652850Y-100604185D01*
X118645824Y-100623820D01*
X118636908Y-100642672D01*
X118626187Y-100660559D01*
X118613765Y-100677309D01*
X118599760Y-100692760D01*
X118584309Y-100706765D01*
X118567559Y-100719187D01*
X118549672Y-100729908D01*
X118530820Y-100738824D01*
X118511185Y-100745850D01*
X118490957Y-100750917D01*
X118470329Y-100753977D01*
X118449500Y-100755000D01*
X118024500Y-100755000D01*
X118003671Y-100753977D01*
X117983043Y-100750917D01*
X117962815Y-100745850D01*
X117943180Y-100738824D01*
X117924328Y-100729908D01*
X117906441Y-100719187D01*
X117889691Y-100706765D01*
X117874240Y-100692760D01*
X117860235Y-100677309D01*
X117847813Y-100660559D01*
X117837092Y-100642672D01*
X117828176Y-100623820D01*
X117821150Y-100604185D01*
X117816083Y-100583957D01*
X117813023Y-100563329D01*
X117812000Y-100542500D01*
X117812000Y-100117500D01*
X117813023Y-100096671D01*
X117816083Y-100076043D01*
X117821150Y-100055815D01*
X117828176Y-100036180D01*
X117837092Y-100017328D01*
X117847813Y-99999441D01*
X117860235Y-99982691D01*
X117874240Y-99967240D01*
X117889691Y-99953235D01*
X117906441Y-99940813D01*
X117924328Y-99930092D01*
X117943180Y-99921176D01*
X117962815Y-99914150D01*
X117983043Y-99909083D01*
X118003671Y-99906023D01*
X118024500Y-99905000D01*
X118449500Y-99905000D01*
X118470329Y-99906023D01*
X118470329Y-99906023D01*
G37*
D21*
X118237000Y-100330000D03*
D20*
G36*
X160565821Y-88733684D02*
G01*
X160607077Y-88739804D01*
X160647535Y-88749938D01*
X160686804Y-88763989D01*
X160724508Y-88781821D01*
X160760281Y-88803263D01*
X160793781Y-88828109D01*
X160824684Y-88856118D01*
X160852693Y-88887021D01*
X160877539Y-88920521D01*
X160898981Y-88956294D01*
X160916813Y-88993998D01*
X160930864Y-89033267D01*
X160940998Y-89073725D01*
X160947118Y-89114981D01*
X160949164Y-89156638D01*
X160949164Y-90006638D01*
X160947118Y-90048295D01*
X160940998Y-90089551D01*
X160930864Y-90130009D01*
X160916813Y-90169278D01*
X160898981Y-90206982D01*
X160877539Y-90242755D01*
X160852693Y-90276255D01*
X160824684Y-90307158D01*
X160793781Y-90335167D01*
X160760281Y-90360013D01*
X160724508Y-90381455D01*
X160686804Y-90399287D01*
X160647535Y-90413338D01*
X160607077Y-90423472D01*
X160565821Y-90429592D01*
X160524164Y-90431638D01*
X158974164Y-90431638D01*
X158932507Y-90429592D01*
X158891251Y-90423472D01*
X158850793Y-90413338D01*
X158811524Y-90399287D01*
X158773820Y-90381455D01*
X158738047Y-90360013D01*
X158704547Y-90335167D01*
X158673644Y-90307158D01*
X158645635Y-90276255D01*
X158620789Y-90242755D01*
X158599347Y-90206982D01*
X158581515Y-90169278D01*
X158567464Y-90130009D01*
X158557330Y-90089551D01*
X158551210Y-90048295D01*
X158549164Y-90006638D01*
X158549164Y-89156638D01*
X158551210Y-89114981D01*
X158557330Y-89073725D01*
X158567464Y-89033267D01*
X158581515Y-88993998D01*
X158599347Y-88956294D01*
X158620789Y-88920521D01*
X158645635Y-88887021D01*
X158673644Y-88856118D01*
X158704547Y-88828109D01*
X158738047Y-88803263D01*
X158773820Y-88781821D01*
X158811524Y-88763989D01*
X158850793Y-88749938D01*
X158891251Y-88739804D01*
X158932507Y-88733684D01*
X158974164Y-88731638D01*
X160524164Y-88731638D01*
X160565821Y-88733684D01*
X160565821Y-88733684D01*
G37*
D22*
X159749164Y-89581638D03*
D20*
G36*
X160565821Y-85033684D02*
G01*
X160607077Y-85039804D01*
X160647535Y-85049938D01*
X160686804Y-85063989D01*
X160724508Y-85081821D01*
X160760281Y-85103263D01*
X160793781Y-85128109D01*
X160824684Y-85156118D01*
X160852693Y-85187021D01*
X160877539Y-85220521D01*
X160898981Y-85256294D01*
X160916813Y-85293998D01*
X160930864Y-85333267D01*
X160940998Y-85373725D01*
X160947118Y-85414981D01*
X160949164Y-85456638D01*
X160949164Y-86306638D01*
X160947118Y-86348295D01*
X160940998Y-86389551D01*
X160930864Y-86430009D01*
X160916813Y-86469278D01*
X160898981Y-86506982D01*
X160877539Y-86542755D01*
X160852693Y-86576255D01*
X160824684Y-86607158D01*
X160793781Y-86635167D01*
X160760281Y-86660013D01*
X160724508Y-86681455D01*
X160686804Y-86699287D01*
X160647535Y-86713338D01*
X160607077Y-86723472D01*
X160565821Y-86729592D01*
X160524164Y-86731638D01*
X158974164Y-86731638D01*
X158932507Y-86729592D01*
X158891251Y-86723472D01*
X158850793Y-86713338D01*
X158811524Y-86699287D01*
X158773820Y-86681455D01*
X158738047Y-86660013D01*
X158704547Y-86635167D01*
X158673644Y-86607158D01*
X158645635Y-86576255D01*
X158620789Y-86542755D01*
X158599347Y-86506982D01*
X158581515Y-86469278D01*
X158567464Y-86430009D01*
X158557330Y-86389551D01*
X158551210Y-86348295D01*
X158549164Y-86306638D01*
X158549164Y-85456638D01*
X158551210Y-85414981D01*
X158557330Y-85373725D01*
X158567464Y-85333267D01*
X158581515Y-85293998D01*
X158599347Y-85256294D01*
X158620789Y-85220521D01*
X158645635Y-85187021D01*
X158673644Y-85156118D01*
X158704547Y-85128109D01*
X158738047Y-85103263D01*
X158773820Y-85081821D01*
X158811524Y-85063989D01*
X158850793Y-85049938D01*
X158891251Y-85039804D01*
X158932507Y-85033684D01*
X158974164Y-85031638D01*
X160524164Y-85031638D01*
X160565821Y-85033684D01*
X160565821Y-85033684D01*
G37*
D22*
X159749164Y-85881638D03*
D10*
X204132000Y-72398184D03*
X204132000Y-70498184D03*
X206332000Y-71448184D03*
D12*
X203962000Y-76383184D03*
X203962000Y-78433184D03*
X209042000Y-73498184D03*
X209042000Y-71448184D03*
D11*
X211092000Y-61288184D03*
X209042000Y-61288184D03*
D20*
G36*
X105921306Y-94244869D02*
G01*
X105955282Y-94249909D01*
X105988600Y-94258255D01*
X106020939Y-94269826D01*
X106051989Y-94284512D01*
X106081450Y-94302170D01*
X106109038Y-94322630D01*
X106134487Y-94345697D01*
X106157554Y-94371146D01*
X106178014Y-94398734D01*
X106195672Y-94428195D01*
X106210358Y-94459245D01*
X106221929Y-94491584D01*
X106230275Y-94524902D01*
X106235315Y-94558878D01*
X106237000Y-94593184D01*
X106237000Y-95293184D01*
X106235315Y-95327490D01*
X106230275Y-95361466D01*
X106221929Y-95394784D01*
X106210358Y-95427123D01*
X106195672Y-95458173D01*
X106178014Y-95487634D01*
X106157554Y-95515222D01*
X106134487Y-95540671D01*
X106109038Y-95563738D01*
X106081450Y-95584198D01*
X106051989Y-95601856D01*
X106020939Y-95616542D01*
X105988600Y-95628113D01*
X105955282Y-95636459D01*
X105921306Y-95641499D01*
X105887000Y-95643184D01*
X105187000Y-95643184D01*
X105152694Y-95641499D01*
X105118718Y-95636459D01*
X105085400Y-95628113D01*
X105053061Y-95616542D01*
X105022011Y-95601856D01*
X104992550Y-95584198D01*
X104964962Y-95563738D01*
X104939513Y-95540671D01*
X104916446Y-95515222D01*
X104895986Y-95487634D01*
X104878328Y-95458173D01*
X104863642Y-95427123D01*
X104852071Y-95394784D01*
X104843725Y-95361466D01*
X104838685Y-95327490D01*
X104837000Y-95293184D01*
X104837000Y-94593184D01*
X104838685Y-94558878D01*
X104843725Y-94524902D01*
X104852071Y-94491584D01*
X104863642Y-94459245D01*
X104878328Y-94428195D01*
X104895986Y-94398734D01*
X104916446Y-94371146D01*
X104939513Y-94345697D01*
X104964962Y-94322630D01*
X104992550Y-94302170D01*
X105022011Y-94284512D01*
X105053061Y-94269826D01*
X105085400Y-94258255D01*
X105118718Y-94249909D01*
X105152694Y-94244869D01*
X105187000Y-94243184D01*
X105887000Y-94243184D01*
X105921306Y-94244869D01*
X105921306Y-94244869D01*
G37*
D23*
X105537000Y-94943184D03*
D20*
G36*
X107511504Y-94244388D02*
G01*
X107535773Y-94247988D01*
X107559571Y-94253949D01*
X107582671Y-94262214D01*
X107604849Y-94272704D01*
X107625893Y-94285317D01*
X107645598Y-94299931D01*
X107663777Y-94316407D01*
X107680253Y-94334586D01*
X107694867Y-94354291D01*
X107707480Y-94375335D01*
X107717970Y-94397513D01*
X107726235Y-94420613D01*
X107732196Y-94444411D01*
X107735796Y-94468680D01*
X107737000Y-94493184D01*
X107737000Y-95393184D01*
X107735796Y-95417688D01*
X107732196Y-95441957D01*
X107726235Y-95465755D01*
X107717970Y-95488855D01*
X107707480Y-95511033D01*
X107694867Y-95532077D01*
X107680253Y-95551782D01*
X107663777Y-95569961D01*
X107645598Y-95586437D01*
X107625893Y-95601051D01*
X107604849Y-95613664D01*
X107582671Y-95624154D01*
X107559571Y-95632419D01*
X107535773Y-95638380D01*
X107511504Y-95641980D01*
X107487000Y-95643184D01*
X106987000Y-95643184D01*
X106962496Y-95641980D01*
X106938227Y-95638380D01*
X106914429Y-95632419D01*
X106891329Y-95624154D01*
X106869151Y-95613664D01*
X106848107Y-95601051D01*
X106828402Y-95586437D01*
X106810223Y-95569961D01*
X106793747Y-95551782D01*
X106779133Y-95532077D01*
X106766520Y-95511033D01*
X106756030Y-95488855D01*
X106747765Y-95465755D01*
X106741804Y-95441957D01*
X106738204Y-95417688D01*
X106737000Y-95393184D01*
X106737000Y-94493184D01*
X106738204Y-94468680D01*
X106741804Y-94444411D01*
X106747765Y-94420613D01*
X106756030Y-94397513D01*
X106766520Y-94375335D01*
X106779133Y-94354291D01*
X106793747Y-94334586D01*
X106810223Y-94316407D01*
X106828402Y-94299931D01*
X106848107Y-94285317D01*
X106869151Y-94272704D01*
X106891329Y-94262214D01*
X106914429Y-94253949D01*
X106938227Y-94247988D01*
X106962496Y-94244388D01*
X106987000Y-94243184D01*
X107487000Y-94243184D01*
X107511504Y-94244388D01*
X107511504Y-94244388D01*
G37*
D24*
X107237000Y-94943184D03*
D20*
G36*
X107511504Y-96444388D02*
G01*
X107535773Y-96447988D01*
X107559571Y-96453949D01*
X107582671Y-96462214D01*
X107604849Y-96472704D01*
X107625893Y-96485317D01*
X107645598Y-96499931D01*
X107663777Y-96516407D01*
X107680253Y-96534586D01*
X107694867Y-96554291D01*
X107707480Y-96575335D01*
X107717970Y-96597513D01*
X107726235Y-96620613D01*
X107732196Y-96644411D01*
X107735796Y-96668680D01*
X107737000Y-96693184D01*
X107737000Y-97593184D01*
X107735796Y-97617688D01*
X107732196Y-97641957D01*
X107726235Y-97665755D01*
X107717970Y-97688855D01*
X107707480Y-97711033D01*
X107694867Y-97732077D01*
X107680253Y-97751782D01*
X107663777Y-97769961D01*
X107645598Y-97786437D01*
X107625893Y-97801051D01*
X107604849Y-97813664D01*
X107582671Y-97824154D01*
X107559571Y-97832419D01*
X107535773Y-97838380D01*
X107511504Y-97841980D01*
X107487000Y-97843184D01*
X106987000Y-97843184D01*
X106962496Y-97841980D01*
X106938227Y-97838380D01*
X106914429Y-97832419D01*
X106891329Y-97824154D01*
X106869151Y-97813664D01*
X106848107Y-97801051D01*
X106828402Y-97786437D01*
X106810223Y-97769961D01*
X106793747Y-97751782D01*
X106779133Y-97732077D01*
X106766520Y-97711033D01*
X106756030Y-97688855D01*
X106747765Y-97665755D01*
X106741804Y-97641957D01*
X106738204Y-97617688D01*
X106737000Y-97593184D01*
X106737000Y-96693184D01*
X106738204Y-96668680D01*
X106741804Y-96644411D01*
X106747765Y-96620613D01*
X106756030Y-96597513D01*
X106766520Y-96575335D01*
X106779133Y-96554291D01*
X106793747Y-96534586D01*
X106810223Y-96516407D01*
X106828402Y-96499931D01*
X106848107Y-96485317D01*
X106869151Y-96472704D01*
X106891329Y-96462214D01*
X106914429Y-96453949D01*
X106938227Y-96447988D01*
X106962496Y-96444388D01*
X106987000Y-96443184D01*
X107487000Y-96443184D01*
X107511504Y-96444388D01*
X107511504Y-96444388D01*
G37*
D24*
X107237000Y-97143184D03*
D20*
G36*
X105611504Y-96444388D02*
G01*
X105635773Y-96447988D01*
X105659571Y-96453949D01*
X105682671Y-96462214D01*
X105704849Y-96472704D01*
X105725893Y-96485317D01*
X105745598Y-96499931D01*
X105763777Y-96516407D01*
X105780253Y-96534586D01*
X105794867Y-96554291D01*
X105807480Y-96575335D01*
X105817970Y-96597513D01*
X105826235Y-96620613D01*
X105832196Y-96644411D01*
X105835796Y-96668680D01*
X105837000Y-96693184D01*
X105837000Y-97593184D01*
X105835796Y-97617688D01*
X105832196Y-97641957D01*
X105826235Y-97665755D01*
X105817970Y-97688855D01*
X105807480Y-97711033D01*
X105794867Y-97732077D01*
X105780253Y-97751782D01*
X105763777Y-97769961D01*
X105745598Y-97786437D01*
X105725893Y-97801051D01*
X105704849Y-97813664D01*
X105682671Y-97824154D01*
X105659571Y-97832419D01*
X105635773Y-97838380D01*
X105611504Y-97841980D01*
X105587000Y-97843184D01*
X105087000Y-97843184D01*
X105062496Y-97841980D01*
X105038227Y-97838380D01*
X105014429Y-97832419D01*
X104991329Y-97824154D01*
X104969151Y-97813664D01*
X104948107Y-97801051D01*
X104928402Y-97786437D01*
X104910223Y-97769961D01*
X104893747Y-97751782D01*
X104879133Y-97732077D01*
X104866520Y-97711033D01*
X104856030Y-97688855D01*
X104847765Y-97665755D01*
X104841804Y-97641957D01*
X104838204Y-97617688D01*
X104837000Y-97593184D01*
X104837000Y-96693184D01*
X104838204Y-96668680D01*
X104841804Y-96644411D01*
X104847765Y-96620613D01*
X104856030Y-96597513D01*
X104866520Y-96575335D01*
X104879133Y-96554291D01*
X104893747Y-96534586D01*
X104910223Y-96516407D01*
X104928402Y-96499931D01*
X104948107Y-96485317D01*
X104969151Y-96472704D01*
X104991329Y-96462214D01*
X105014429Y-96453949D01*
X105038227Y-96447988D01*
X105062496Y-96444388D01*
X105087000Y-96443184D01*
X105587000Y-96443184D01*
X105611504Y-96444388D01*
X105611504Y-96444388D01*
G37*
D24*
X105337000Y-97143184D03*
D11*
X98951000Y-109929184D03*
X96901000Y-109929184D03*
X99187000Y-88212184D03*
X101237000Y-88212184D03*
D25*
X121072000Y-104468184D03*
X116672000Y-104468184D03*
D10*
X111295614Y-104906226D03*
X113495614Y-105856226D03*
X113495614Y-103956226D03*
D11*
X113495614Y-108081226D03*
X111445614Y-108081226D03*
M02*
