G04 #@! TF.GenerationSoftware,KiCad,Pcbnew,5.1.2-f72e74a~84~ubuntu18.04.1*
G04 #@! TF.CreationDate,2019-05-31T10:47:24-04:00*
G04 #@! TF.ProjectId,Master_Board,4d617374-6572-45f4-926f-6172642e6b69,rev?*
G04 #@! TF.SameCoordinates,Original*
G04 #@! TF.FileFunction,Soldermask,Bot*
G04 #@! TF.FilePolarity,Negative*
%FSLAX46Y46*%
G04 Gerber Fmt 4.6, Leading zero omitted, Abs format (unit mm)*
G04 Created by KiCad (PCBNEW 5.1.2-f72e74a~84~ubuntu18.04.1) date 2019-05-31 10:47:24*
%MOMM*%
%LPD*%
G04 APERTURE LIST*
%ADD10C,0.100000*%
G04 APERTURE END LIST*
D10*
G36*
X215486222Y-127464257D02*
G01*
X215918119Y-127643155D01*
X215941194Y-127652713D01*
X216054144Y-127728184D01*
X216350656Y-127926307D01*
X216698877Y-128274528D01*
X216972472Y-128683992D01*
X217160927Y-129138962D01*
X217257000Y-129621954D01*
X217257000Y-130114414D01*
X217160927Y-130597406D01*
X217043749Y-130880298D01*
X216972471Y-131052378D01*
X216926088Y-131121795D01*
X216698877Y-131461840D01*
X216350656Y-131810061D01*
X216147315Y-131945929D01*
X215941194Y-132083655D01*
X215941193Y-132083656D01*
X215941192Y-132083656D01*
X215486222Y-132272111D01*
X215003230Y-132368184D01*
X214510770Y-132368184D01*
X214027778Y-132272111D01*
X213572808Y-132083656D01*
X213572807Y-132083656D01*
X213572806Y-132083655D01*
X213366685Y-131945929D01*
X213163344Y-131810061D01*
X212815123Y-131461840D01*
X212587912Y-131121795D01*
X212541529Y-131052378D01*
X212470251Y-130880298D01*
X212353073Y-130597406D01*
X212257000Y-130114414D01*
X212257000Y-129621954D01*
X212353073Y-129138962D01*
X212541528Y-128683992D01*
X212815123Y-128274528D01*
X213163344Y-127926307D01*
X213459856Y-127728184D01*
X213572806Y-127652713D01*
X213595881Y-127643155D01*
X214027778Y-127464257D01*
X214510770Y-127368184D01*
X215003230Y-127368184D01*
X215486222Y-127464257D01*
X215486222Y-127464257D01*
G37*
G36*
X90137222Y-127464257D02*
G01*
X90569119Y-127643155D01*
X90592194Y-127652713D01*
X90705144Y-127728184D01*
X91001656Y-127926307D01*
X91349877Y-128274528D01*
X91623472Y-128683992D01*
X91811927Y-129138962D01*
X91908000Y-129621954D01*
X91908000Y-130114414D01*
X91811927Y-130597406D01*
X91694749Y-130880298D01*
X91623471Y-131052378D01*
X91577088Y-131121795D01*
X91349877Y-131461840D01*
X91001656Y-131810061D01*
X90798315Y-131945929D01*
X90592194Y-132083655D01*
X90592193Y-132083656D01*
X90592192Y-132083656D01*
X90137222Y-132272111D01*
X89654230Y-132368184D01*
X89161770Y-132368184D01*
X88678778Y-132272111D01*
X88223808Y-132083656D01*
X88223807Y-132083656D01*
X88223806Y-132083655D01*
X88017685Y-131945929D01*
X87814344Y-131810061D01*
X87466123Y-131461840D01*
X87238912Y-131121795D01*
X87192529Y-131052378D01*
X87121251Y-130880298D01*
X87004073Y-130597406D01*
X86908000Y-130114414D01*
X86908000Y-129621954D01*
X87004073Y-129138962D01*
X87192528Y-128683992D01*
X87466123Y-128274528D01*
X87814344Y-127926307D01*
X88110856Y-127728184D01*
X88223806Y-127652713D01*
X88246881Y-127643155D01*
X88678778Y-127464257D01*
X89161770Y-127368184D01*
X89654230Y-127368184D01*
X90137222Y-127464257D01*
X90137222Y-127464257D01*
G37*
G36*
X127242000Y-132163000D02*
G01*
X125742000Y-132163000D01*
X125742000Y-130763000D01*
X127242000Y-130763000D01*
X127242000Y-132163000D01*
X127242000Y-132163000D01*
G37*
G36*
X114791610Y-129555220D02*
G01*
X115019095Y-129649448D01*
X115019097Y-129649449D01*
X115223828Y-129786246D01*
X115397938Y-129960356D01*
X115499932Y-130113000D01*
X115534736Y-130165089D01*
X115628964Y-130392574D01*
X115677000Y-130634068D01*
X115677000Y-130880300D01*
X115628964Y-131121794D01*
X115534736Y-131349279D01*
X115534735Y-131349281D01*
X115397938Y-131554012D01*
X115223828Y-131728122D01*
X115019097Y-131864919D01*
X115019096Y-131864920D01*
X115019095Y-131864920D01*
X114791610Y-131959148D01*
X114550116Y-132007184D01*
X114303884Y-132007184D01*
X114062390Y-131959148D01*
X113834905Y-131864920D01*
X113834904Y-131864920D01*
X113834903Y-131864919D01*
X113630172Y-131728122D01*
X113456062Y-131554012D01*
X113319265Y-131349281D01*
X113319264Y-131349279D01*
X113225036Y-131121794D01*
X113177000Y-130880300D01*
X113177000Y-130634068D01*
X113225036Y-130392574D01*
X113319264Y-130165089D01*
X113354069Y-130113000D01*
X113456062Y-129960356D01*
X113630172Y-129786246D01*
X113834903Y-129649449D01*
X113834905Y-129649448D01*
X114062390Y-129555220D01*
X114303884Y-129507184D01*
X114550116Y-129507184D01*
X114791610Y-129555220D01*
X114791610Y-129555220D01*
G37*
G36*
X109711610Y-129555220D02*
G01*
X109939095Y-129649448D01*
X109939097Y-129649449D01*
X110143828Y-129786246D01*
X110317938Y-129960356D01*
X110419932Y-130113000D01*
X110454736Y-130165089D01*
X110548964Y-130392574D01*
X110597000Y-130634068D01*
X110597000Y-130880300D01*
X110548964Y-131121794D01*
X110454736Y-131349279D01*
X110454735Y-131349281D01*
X110317938Y-131554012D01*
X110143828Y-131728122D01*
X109939097Y-131864919D01*
X109939096Y-131864920D01*
X109939095Y-131864920D01*
X109711610Y-131959148D01*
X109470116Y-132007184D01*
X109223884Y-132007184D01*
X108982390Y-131959148D01*
X108754905Y-131864920D01*
X108754904Y-131864920D01*
X108754903Y-131864919D01*
X108550172Y-131728122D01*
X108376062Y-131554012D01*
X108239265Y-131349281D01*
X108239264Y-131349279D01*
X108145036Y-131121794D01*
X108097000Y-130880300D01*
X108097000Y-130634068D01*
X108145036Y-130392574D01*
X108239264Y-130165089D01*
X108274069Y-130113000D01*
X108376062Y-129960356D01*
X108550172Y-129786246D01*
X108754903Y-129649449D01*
X108754905Y-129649448D01*
X108982390Y-129555220D01*
X109223884Y-129507184D01*
X109470116Y-129507184D01*
X109711610Y-129555220D01*
X109711610Y-129555220D01*
G37*
G36*
X130667000Y-130545692D02*
G01*
X128667000Y-130545692D01*
X128667000Y-128545692D01*
X130667000Y-128545692D01*
X130667000Y-130545692D01*
X130667000Y-130545692D01*
G37*
G36*
X148197000Y-130258000D02*
G01*
X146697000Y-130258000D01*
X146697000Y-128858000D01*
X148197000Y-128858000D01*
X148197000Y-130258000D01*
X148197000Y-130258000D01*
G37*
G36*
X127242000Y-130113000D02*
G01*
X125742000Y-130113000D01*
X125742000Y-128713000D01*
X127242000Y-128713000D01*
X127242000Y-130113000D01*
X127242000Y-130113000D01*
G37*
G36*
X156452000Y-130113000D02*
G01*
X154952000Y-130113000D01*
X154952000Y-128713000D01*
X156452000Y-128713000D01*
X156452000Y-130113000D01*
X156452000Y-130113000D01*
G37*
G36*
X105772000Y-130048184D02*
G01*
X104372000Y-130048184D01*
X104372000Y-129048184D01*
X105772000Y-129048184D01*
X105772000Y-130048184D01*
X105772000Y-130048184D01*
G37*
G36*
X163687000Y-129778000D02*
G01*
X161687000Y-129778000D01*
X161687000Y-127778000D01*
X163687000Y-127778000D01*
X163687000Y-129778000D01*
X163687000Y-129778000D01*
G37*
G36*
X171942000Y-129598184D02*
G01*
X169942000Y-129598184D01*
X169942000Y-127598184D01*
X171942000Y-127598184D01*
X171942000Y-129598184D01*
X171942000Y-129598184D01*
G37*
G36*
X173709290Y-127623803D02*
G01*
X173773689Y-127636613D01*
X173955678Y-127711995D01*
X174119463Y-127821433D01*
X174258751Y-127960721D01*
X174368189Y-128124506D01*
X174443571Y-128306495D01*
X174482000Y-128499693D01*
X174482000Y-128696675D01*
X174443571Y-128889873D01*
X174368189Y-129071862D01*
X174258751Y-129235647D01*
X174119463Y-129374935D01*
X173955678Y-129484373D01*
X173773689Y-129559755D01*
X173709290Y-129572565D01*
X173580493Y-129598184D01*
X173383507Y-129598184D01*
X173254710Y-129572565D01*
X173190311Y-129559755D01*
X173008322Y-129484373D01*
X172844537Y-129374935D01*
X172705249Y-129235647D01*
X172595811Y-129071862D01*
X172520429Y-128889873D01*
X172482000Y-128696675D01*
X172482000Y-128499693D01*
X172520429Y-128306495D01*
X172595811Y-128124506D01*
X172705249Y-127960721D01*
X172844537Y-127821433D01*
X173008322Y-127711995D01*
X173190311Y-127636613D01*
X173254710Y-127623803D01*
X173383507Y-127598184D01*
X173580493Y-127598184D01*
X173709290Y-127623803D01*
X173709290Y-127623803D01*
G37*
G36*
X176249290Y-127623803D02*
G01*
X176313689Y-127636613D01*
X176495678Y-127711995D01*
X176659463Y-127821433D01*
X176798751Y-127960721D01*
X176908189Y-128124506D01*
X176983571Y-128306495D01*
X177022000Y-128499693D01*
X177022000Y-128696675D01*
X176983571Y-128889873D01*
X176908189Y-129071862D01*
X176798751Y-129235647D01*
X176659463Y-129374935D01*
X176495678Y-129484373D01*
X176313689Y-129559755D01*
X176249290Y-129572565D01*
X176120493Y-129598184D01*
X175923507Y-129598184D01*
X175794710Y-129572565D01*
X175730311Y-129559755D01*
X175548322Y-129484373D01*
X175384537Y-129374935D01*
X175245249Y-129235647D01*
X175135811Y-129071862D01*
X175060429Y-128889873D01*
X175022000Y-128696675D01*
X175022000Y-128499693D01*
X175060429Y-128306495D01*
X175135811Y-128124506D01*
X175245249Y-127960721D01*
X175384537Y-127821433D01*
X175548322Y-127711995D01*
X175730311Y-127636613D01*
X175794710Y-127623803D01*
X175923507Y-127598184D01*
X176120493Y-127598184D01*
X176249290Y-127623803D01*
X176249290Y-127623803D01*
G37*
G36*
X178789290Y-127623803D02*
G01*
X178853689Y-127636613D01*
X179035678Y-127711995D01*
X179199463Y-127821433D01*
X179338751Y-127960721D01*
X179448189Y-128124506D01*
X179523571Y-128306495D01*
X179562000Y-128499693D01*
X179562000Y-128696675D01*
X179523571Y-128889873D01*
X179448189Y-129071862D01*
X179338751Y-129235647D01*
X179199463Y-129374935D01*
X179035678Y-129484373D01*
X178853689Y-129559755D01*
X178789290Y-129572565D01*
X178660493Y-129598184D01*
X178463507Y-129598184D01*
X178334710Y-129572565D01*
X178270311Y-129559755D01*
X178088322Y-129484373D01*
X177924537Y-129374935D01*
X177785249Y-129235647D01*
X177675811Y-129071862D01*
X177600429Y-128889873D01*
X177562000Y-128696675D01*
X177562000Y-128499693D01*
X177600429Y-128306495D01*
X177675811Y-128124506D01*
X177785249Y-127960721D01*
X177924537Y-127821433D01*
X178088322Y-127711995D01*
X178270311Y-127636613D01*
X178334710Y-127623803D01*
X178463507Y-127598184D01*
X178660493Y-127598184D01*
X178789290Y-127623803D01*
X178789290Y-127623803D01*
G37*
G36*
X181329290Y-127623803D02*
G01*
X181393689Y-127636613D01*
X181575678Y-127711995D01*
X181739463Y-127821433D01*
X181878751Y-127960721D01*
X181988189Y-128124506D01*
X182063571Y-128306495D01*
X182102000Y-128499693D01*
X182102000Y-128696675D01*
X182063571Y-128889873D01*
X181988189Y-129071862D01*
X181878751Y-129235647D01*
X181739463Y-129374935D01*
X181575678Y-129484373D01*
X181393689Y-129559755D01*
X181329290Y-129572565D01*
X181200493Y-129598184D01*
X181003507Y-129598184D01*
X180874710Y-129572565D01*
X180810311Y-129559755D01*
X180628322Y-129484373D01*
X180464537Y-129374935D01*
X180325249Y-129235647D01*
X180215811Y-129071862D01*
X180140429Y-128889873D01*
X180102000Y-128696675D01*
X180102000Y-128499693D01*
X180140429Y-128306495D01*
X180215811Y-128124506D01*
X180325249Y-127960721D01*
X180464537Y-127821433D01*
X180628322Y-127711995D01*
X180810311Y-127636613D01*
X180874710Y-127623803D01*
X181003507Y-127598184D01*
X181200493Y-127598184D01*
X181329290Y-127623803D01*
X181329290Y-127623803D01*
G37*
G36*
X183869290Y-127623803D02*
G01*
X183933689Y-127636613D01*
X184115678Y-127711995D01*
X184279463Y-127821433D01*
X184418751Y-127960721D01*
X184528189Y-128124506D01*
X184603571Y-128306495D01*
X184642000Y-128499693D01*
X184642000Y-128696675D01*
X184603571Y-128889873D01*
X184528189Y-129071862D01*
X184418751Y-129235647D01*
X184279463Y-129374935D01*
X184115678Y-129484373D01*
X183933689Y-129559755D01*
X183869290Y-129572565D01*
X183740493Y-129598184D01*
X183543507Y-129598184D01*
X183414710Y-129572565D01*
X183350311Y-129559755D01*
X183168322Y-129484373D01*
X183004537Y-129374935D01*
X182865249Y-129235647D01*
X182755811Y-129071862D01*
X182680429Y-128889873D01*
X182642000Y-128696675D01*
X182642000Y-128499693D01*
X182680429Y-128306495D01*
X182755811Y-128124506D01*
X182865249Y-127960721D01*
X183004537Y-127821433D01*
X183168322Y-127711995D01*
X183350311Y-127636613D01*
X183414710Y-127623803D01*
X183543507Y-127598184D01*
X183740493Y-127598184D01*
X183869290Y-127623803D01*
X183869290Y-127623803D01*
G37*
G36*
X205097000Y-129128184D02*
G01*
X204097000Y-129128184D01*
X204097000Y-127728184D01*
X205097000Y-127728184D01*
X205097000Y-129128184D01*
X205097000Y-129128184D01*
G37*
G36*
X107972000Y-129098184D02*
G01*
X106572000Y-129098184D01*
X106572000Y-128098184D01*
X107972000Y-128098184D01*
X107972000Y-129098184D01*
X107972000Y-129098184D01*
G37*
G36*
X103162000Y-128458000D02*
G01*
X101562000Y-128458000D01*
X101562000Y-126558000D01*
X103162000Y-126558000D01*
X103162000Y-128458000D01*
X103162000Y-128458000D01*
G37*
G36*
X100062000Y-128458000D02*
G01*
X98462000Y-128458000D01*
X98462000Y-126558000D01*
X100062000Y-126558000D01*
X100062000Y-128458000D01*
X100062000Y-128458000D01*
G37*
G36*
X133592000Y-128208000D02*
G01*
X132092000Y-128208000D01*
X132092000Y-126808000D01*
X133592000Y-126808000D01*
X133592000Y-128208000D01*
X133592000Y-128208000D01*
G37*
G36*
X148197000Y-128208000D02*
G01*
X146697000Y-128208000D01*
X146697000Y-126808000D01*
X148197000Y-126808000D01*
X148197000Y-128208000D01*
X148197000Y-128208000D01*
G37*
G36*
X105772000Y-128148184D02*
G01*
X104372000Y-128148184D01*
X104372000Y-127148184D01*
X105772000Y-127148184D01*
X105772000Y-128148184D01*
X105772000Y-128148184D01*
G37*
G36*
X156452000Y-128063000D02*
G01*
X154952000Y-128063000D01*
X154952000Y-126663000D01*
X156452000Y-126663000D01*
X156452000Y-128063000D01*
X156452000Y-128063000D01*
G37*
G36*
X129894290Y-126031311D02*
G01*
X129958689Y-126044121D01*
X130140678Y-126119503D01*
X130304463Y-126228941D01*
X130443751Y-126368229D01*
X130553189Y-126532014D01*
X130628571Y-126714003D01*
X130667000Y-126907201D01*
X130667000Y-127104183D01*
X130628571Y-127297381D01*
X130553189Y-127479370D01*
X130443751Y-127643155D01*
X130304463Y-127782443D01*
X130140678Y-127891881D01*
X129958689Y-127967263D01*
X129894290Y-127980073D01*
X129765493Y-128005692D01*
X129568507Y-128005692D01*
X129439710Y-127980073D01*
X129375311Y-127967263D01*
X129193322Y-127891881D01*
X129029537Y-127782443D01*
X128890249Y-127643155D01*
X128780811Y-127479370D01*
X128705429Y-127297381D01*
X128667000Y-127104183D01*
X128667000Y-126907201D01*
X128705429Y-126714003D01*
X128780811Y-126532014D01*
X128890249Y-126368229D01*
X129029537Y-126228941D01*
X129193322Y-126119503D01*
X129375311Y-126044121D01*
X129439710Y-126031311D01*
X129568507Y-126005692D01*
X129765493Y-126005692D01*
X129894290Y-126031311D01*
X129894290Y-126031311D01*
G37*
G36*
X199727000Y-127443184D02*
G01*
X198327000Y-127443184D01*
X198327000Y-125943184D01*
X199727000Y-125943184D01*
X199727000Y-127443184D01*
X199727000Y-127443184D01*
G37*
G36*
X197677000Y-127443184D02*
G01*
X196277000Y-127443184D01*
X196277000Y-125943184D01*
X197677000Y-125943184D01*
X197677000Y-127443184D01*
X197677000Y-127443184D01*
G37*
G36*
X162914290Y-125263619D02*
G01*
X162978689Y-125276429D01*
X163160678Y-125351811D01*
X163324463Y-125461249D01*
X163463751Y-125600537D01*
X163573189Y-125764322D01*
X163648571Y-125946311D01*
X163648571Y-125946312D01*
X163687000Y-126139507D01*
X163687000Y-126336493D01*
X163680687Y-126368229D01*
X163648571Y-126529689D01*
X163573189Y-126711678D01*
X163463751Y-126875463D01*
X163324463Y-127014751D01*
X163160678Y-127124189D01*
X162978689Y-127199571D01*
X162914290Y-127212381D01*
X162785493Y-127238000D01*
X162588507Y-127238000D01*
X162459710Y-127212381D01*
X162395311Y-127199571D01*
X162213322Y-127124189D01*
X162049537Y-127014751D01*
X161910249Y-126875463D01*
X161800811Y-126711678D01*
X161725429Y-126529689D01*
X161693313Y-126368229D01*
X161687000Y-126336493D01*
X161687000Y-126139507D01*
X161725429Y-125946312D01*
X161725429Y-125946311D01*
X161800811Y-125764322D01*
X161910249Y-125600537D01*
X162049537Y-125461249D01*
X162213322Y-125351811D01*
X162395311Y-125276429D01*
X162459710Y-125263619D01*
X162588507Y-125238000D01*
X162785493Y-125238000D01*
X162914290Y-125263619D01*
X162914290Y-125263619D01*
G37*
G36*
X206047000Y-126928184D02*
G01*
X205047000Y-126928184D01*
X205047000Y-125528184D01*
X206047000Y-125528184D01*
X206047000Y-126928184D01*
X206047000Y-126928184D01*
G37*
G36*
X204147000Y-126928184D02*
G01*
X203147000Y-126928184D01*
X203147000Y-125528184D01*
X204147000Y-125528184D01*
X204147000Y-126928184D01*
X204147000Y-126928184D01*
G37*
G36*
X113857000Y-126353000D02*
G01*
X112457000Y-126353000D01*
X112457000Y-124853000D01*
X113857000Y-124853000D01*
X113857000Y-126353000D01*
X113857000Y-126353000D01*
G37*
G36*
X115907000Y-126353000D02*
G01*
X114507000Y-126353000D01*
X114507000Y-124853000D01*
X115907000Y-124853000D01*
X115907000Y-126353000D01*
X115907000Y-126353000D01*
G37*
G36*
X133592000Y-126158000D02*
G01*
X132092000Y-126158000D01*
X132092000Y-124758000D01*
X133592000Y-124758000D01*
X133592000Y-126158000D01*
X133592000Y-126158000D01*
G37*
G36*
X129894290Y-123491311D02*
G01*
X129958689Y-123504121D01*
X130140678Y-123579503D01*
X130304463Y-123688941D01*
X130443751Y-123828229D01*
X130553189Y-123992014D01*
X130605010Y-124117122D01*
X130628571Y-124174004D01*
X130663211Y-124348148D01*
X130667000Y-124367201D01*
X130667000Y-124564183D01*
X130628571Y-124757381D01*
X130553189Y-124939370D01*
X130443751Y-125103155D01*
X130304463Y-125242443D01*
X130140678Y-125351881D01*
X129958689Y-125427263D01*
X129894290Y-125440073D01*
X129765493Y-125465692D01*
X129568507Y-125465692D01*
X129439710Y-125440073D01*
X129375311Y-125427263D01*
X129193322Y-125351881D01*
X129029537Y-125242443D01*
X128890249Y-125103155D01*
X128780811Y-124939370D01*
X128705429Y-124757381D01*
X128667000Y-124564183D01*
X128667000Y-124367201D01*
X128670790Y-124348148D01*
X128705429Y-124174004D01*
X128728990Y-124117122D01*
X128780811Y-123992014D01*
X128890249Y-123828229D01*
X129029537Y-123688941D01*
X129193322Y-123579503D01*
X129375311Y-123504121D01*
X129439710Y-123491311D01*
X129568507Y-123465692D01*
X129765493Y-123465692D01*
X129894290Y-123491311D01*
X129894290Y-123491311D01*
G37*
G36*
X215268623Y-122011405D02*
G01*
X215586767Y-122143184D01*
X215587831Y-122143625D01*
X215875110Y-122335579D01*
X216119421Y-122579890D01*
X216126353Y-122590265D01*
X216311376Y-122867171D01*
X216443595Y-123186377D01*
X216511000Y-123525245D01*
X216511000Y-123870755D01*
X216443595Y-124209623D01*
X216319753Y-124508606D01*
X216311375Y-124528831D01*
X216119421Y-124816110D01*
X215875110Y-125060421D01*
X215587831Y-125252375D01*
X215587830Y-125252376D01*
X215587829Y-125252376D01*
X215268623Y-125384595D01*
X214929755Y-125452000D01*
X214584245Y-125452000D01*
X214245377Y-125384595D01*
X213926171Y-125252376D01*
X213926170Y-125252376D01*
X213926169Y-125252375D01*
X213638890Y-125060421D01*
X213394579Y-124816110D01*
X213202625Y-124528831D01*
X213194248Y-124508606D01*
X213070405Y-124209623D01*
X213003000Y-123870755D01*
X213003000Y-123525245D01*
X213070405Y-123186377D01*
X213202624Y-122867171D01*
X213387647Y-122590265D01*
X213394579Y-122579890D01*
X213638890Y-122335579D01*
X213926169Y-122143625D01*
X213927234Y-122143184D01*
X214245377Y-122011405D01*
X214584245Y-121944000D01*
X214929755Y-121944000D01*
X215268623Y-122011405D01*
X215268623Y-122011405D01*
G37*
G36*
X202321610Y-122496036D02*
G01*
X202549095Y-122590264D01*
X202549097Y-122590265D01*
X202753828Y-122727062D01*
X202927938Y-122901172D01*
X203064736Y-123105905D01*
X203158964Y-123333390D01*
X203207000Y-123574884D01*
X203207000Y-123821116D01*
X203158964Y-124062610D01*
X203079720Y-124253920D01*
X203064735Y-124290097D01*
X202927938Y-124494828D01*
X202753828Y-124668938D01*
X202549097Y-124805735D01*
X202549096Y-124805736D01*
X202549095Y-124805736D01*
X202321610Y-124899964D01*
X202080116Y-124948000D01*
X201833884Y-124948000D01*
X201592390Y-124899964D01*
X201364905Y-124805736D01*
X201364904Y-124805736D01*
X201364903Y-124805735D01*
X201160172Y-124668938D01*
X200986062Y-124494828D01*
X200849265Y-124290097D01*
X200834280Y-124253920D01*
X200755036Y-124062610D01*
X200707000Y-123821116D01*
X200707000Y-123574884D01*
X200755036Y-123333390D01*
X200849264Y-123105905D01*
X200986062Y-122901172D01*
X201160172Y-122727062D01*
X201364903Y-122590265D01*
X201364905Y-122590264D01*
X201592390Y-122496036D01*
X201833884Y-122448000D01*
X202080116Y-122448000D01*
X202321610Y-122496036D01*
X202321610Y-122496036D01*
G37*
G36*
X208707000Y-124948000D02*
G01*
X206207000Y-124948000D01*
X206207000Y-122448000D01*
X208707000Y-122448000D01*
X208707000Y-124948000D01*
X208707000Y-124948000D01*
G37*
G36*
X89919623Y-121459589D02*
G01*
X90238831Y-121591809D01*
X90526110Y-121783763D01*
X90770421Y-122028074D01*
X90962375Y-122315353D01*
X90962376Y-122315355D01*
X91094595Y-122634561D01*
X91162000Y-122973429D01*
X91162000Y-123318939D01*
X91094595Y-123657807D01*
X90976460Y-123943012D01*
X90962375Y-123977015D01*
X90770421Y-124264294D01*
X90526110Y-124508605D01*
X90238831Y-124700559D01*
X90238830Y-124700560D01*
X90238829Y-124700560D01*
X89919623Y-124832779D01*
X89580755Y-124900184D01*
X89235245Y-124900184D01*
X88896377Y-124832779D01*
X88577171Y-124700560D01*
X88577170Y-124700560D01*
X88577169Y-124700559D01*
X88289890Y-124508605D01*
X88045579Y-124264294D01*
X87853625Y-123977015D01*
X87839541Y-123943012D01*
X87721405Y-123657807D01*
X87654000Y-123318939D01*
X87654000Y-122973429D01*
X87721405Y-122634561D01*
X87853624Y-122315355D01*
X87853625Y-122315353D01*
X88045579Y-122028074D01*
X88289890Y-121783763D01*
X88577169Y-121591809D01*
X88896377Y-121459589D01*
X89235245Y-121392184D01*
X89580755Y-121392184D01*
X89919623Y-121459589D01*
X89919623Y-121459589D01*
G37*
G36*
X102572610Y-121944220D02*
G01*
X102800095Y-122038448D01*
X102800097Y-122038449D01*
X103004828Y-122175246D01*
X103178938Y-122349356D01*
X103276947Y-122496036D01*
X103315736Y-122554089D01*
X103409964Y-122781574D01*
X103458000Y-123023068D01*
X103458000Y-123269300D01*
X103409964Y-123510794D01*
X103315736Y-123738279D01*
X103315735Y-123738281D01*
X103178938Y-123943012D01*
X103004828Y-124117122D01*
X102800097Y-124253919D01*
X102800096Y-124253920D01*
X102800095Y-124253920D01*
X102572610Y-124348148D01*
X102331116Y-124396184D01*
X102084884Y-124396184D01*
X101843390Y-124348148D01*
X101615905Y-124253920D01*
X101615904Y-124253920D01*
X101615903Y-124253919D01*
X101411172Y-124117122D01*
X101237062Y-123943012D01*
X101100265Y-123738281D01*
X101100264Y-123738279D01*
X101006036Y-123510794D01*
X100958000Y-123269300D01*
X100958000Y-123023068D01*
X101006036Y-122781574D01*
X101100264Y-122554089D01*
X101139054Y-122496036D01*
X101237062Y-122349356D01*
X101411172Y-122175246D01*
X101615903Y-122038449D01*
X101615905Y-122038448D01*
X101843390Y-121944220D01*
X102084884Y-121896184D01*
X102331116Y-121896184D01*
X102572610Y-121944220D01*
X102572610Y-121944220D01*
G37*
G36*
X97958000Y-124396184D02*
G01*
X95458000Y-124396184D01*
X95458000Y-121896184D01*
X97958000Y-121896184D01*
X97958000Y-124396184D01*
X97958000Y-124396184D01*
G37*
G36*
X115907000Y-123813000D02*
G01*
X114507000Y-123813000D01*
X114507000Y-122313000D01*
X115907000Y-122313000D01*
X115907000Y-123813000D01*
X115907000Y-123813000D01*
G37*
G36*
X113857000Y-123813000D02*
G01*
X112457000Y-123813000D01*
X112457000Y-122313000D01*
X113857000Y-122313000D01*
X113857000Y-123813000D01*
X113857000Y-123813000D01*
G37*
G36*
X111367000Y-123273000D02*
G01*
X109867000Y-123273000D01*
X109867000Y-121873000D01*
X111367000Y-121873000D01*
X111367000Y-123273000D01*
X111367000Y-123273000D01*
G37*
G36*
X205097000Y-122143184D02*
G01*
X204097000Y-122143184D01*
X204097000Y-120743184D01*
X205097000Y-120743184D01*
X205097000Y-122143184D01*
X205097000Y-122143184D01*
G37*
G36*
X111367000Y-121223000D02*
G01*
X109867000Y-121223000D01*
X109867000Y-119823000D01*
X111367000Y-119823000D01*
X111367000Y-121223000D01*
X111367000Y-121223000D01*
G37*
G36*
X116447000Y-121223000D02*
G01*
X114947000Y-121223000D01*
X114947000Y-119823000D01*
X116447000Y-119823000D01*
X116447000Y-121223000D01*
X116447000Y-121223000D01*
G37*
G36*
X113907000Y-121223000D02*
G01*
X112407000Y-121223000D01*
X112407000Y-119823000D01*
X113907000Y-119823000D01*
X113907000Y-121223000D01*
X113907000Y-121223000D01*
G37*
G36*
X157767000Y-120253000D02*
G01*
X153767000Y-120253000D01*
X153767000Y-118253000D01*
X157767000Y-118253000D01*
X157767000Y-120253000D01*
X157767000Y-120253000D01*
G37*
G36*
X150147000Y-120253000D02*
G01*
X146147000Y-120253000D01*
X146147000Y-118253000D01*
X150147000Y-118253000D01*
X150147000Y-120253000D01*
X150147000Y-120253000D01*
G37*
G36*
X165387000Y-120253000D02*
G01*
X161387000Y-120253000D01*
X161387000Y-118253000D01*
X165387000Y-118253000D01*
X165387000Y-120253000D01*
X165387000Y-120253000D01*
G37*
G36*
X142527000Y-120253000D02*
G01*
X138527000Y-120253000D01*
X138527000Y-118253000D01*
X142527000Y-118253000D01*
X142527000Y-120253000D01*
X142527000Y-120253000D01*
G37*
G36*
X134907000Y-120253000D02*
G01*
X130907000Y-120253000D01*
X130907000Y-118253000D01*
X134907000Y-118253000D01*
X134907000Y-120253000D01*
X134907000Y-120253000D01*
G37*
G36*
X197677000Y-120246516D02*
G01*
X196277000Y-120246516D01*
X196277000Y-118746516D01*
X197677000Y-118746516D01*
X197677000Y-120246516D01*
X197677000Y-120246516D01*
G37*
G36*
X199727000Y-120246516D02*
G01*
X198327000Y-120246516D01*
X198327000Y-118746516D01*
X199727000Y-118746516D01*
X199727000Y-120246516D01*
X199727000Y-120246516D01*
G37*
G36*
X97072610Y-117744220D02*
G01*
X97300095Y-117838448D01*
X97300097Y-117838449D01*
X97504828Y-117975246D01*
X97678938Y-118149356D01*
X97757797Y-118267376D01*
X97815736Y-118354089D01*
X97909964Y-118581574D01*
X97958000Y-118823068D01*
X97958000Y-119069300D01*
X97909964Y-119310794D01*
X97906979Y-119318000D01*
X97815735Y-119538281D01*
X97678938Y-119743012D01*
X97504828Y-119917122D01*
X97300097Y-120053919D01*
X97300096Y-120053920D01*
X97300095Y-120053920D01*
X97072610Y-120148148D01*
X96831116Y-120196184D01*
X96584884Y-120196184D01*
X96343390Y-120148148D01*
X96115905Y-120053920D01*
X96115904Y-120053920D01*
X96115903Y-120053919D01*
X95911172Y-119917122D01*
X95737062Y-119743012D01*
X95600265Y-119538281D01*
X95509021Y-119318000D01*
X95506036Y-119310794D01*
X95458000Y-119069300D01*
X95458000Y-118823068D01*
X95506036Y-118581574D01*
X95600264Y-118354089D01*
X95658204Y-118267376D01*
X95737062Y-118149356D01*
X95911172Y-117975246D01*
X96115903Y-117838449D01*
X96115905Y-117838448D01*
X96343390Y-117744220D01*
X96584884Y-117696184D01*
X96831116Y-117696184D01*
X97072610Y-117744220D01*
X97072610Y-117744220D01*
G37*
G36*
X102572610Y-117744220D02*
G01*
X102800095Y-117838448D01*
X102800097Y-117838449D01*
X103004828Y-117975246D01*
X103178938Y-118149356D01*
X103257797Y-118267376D01*
X103315736Y-118354089D01*
X103409964Y-118581574D01*
X103458000Y-118823068D01*
X103458000Y-119069300D01*
X103409964Y-119310794D01*
X103406979Y-119318000D01*
X103315735Y-119538281D01*
X103178938Y-119743012D01*
X103004828Y-119917122D01*
X102800097Y-120053919D01*
X102800096Y-120053920D01*
X102800095Y-120053920D01*
X102572610Y-120148148D01*
X102331116Y-120196184D01*
X102084884Y-120196184D01*
X101843390Y-120148148D01*
X101615905Y-120053920D01*
X101615904Y-120053920D01*
X101615903Y-120053919D01*
X101411172Y-119917122D01*
X101237062Y-119743012D01*
X101100265Y-119538281D01*
X101009021Y-119318000D01*
X101006036Y-119310794D01*
X100958000Y-119069300D01*
X100958000Y-118823068D01*
X101006036Y-118581574D01*
X101100264Y-118354089D01*
X101158204Y-118267376D01*
X101237062Y-118149356D01*
X101411172Y-117975246D01*
X101615903Y-117838449D01*
X101615905Y-117838448D01*
X101843390Y-117744220D01*
X102084884Y-117696184D01*
X102331116Y-117696184D01*
X102572610Y-117744220D01*
X102572610Y-117744220D01*
G37*
G36*
X206047000Y-119943184D02*
G01*
X205047000Y-119943184D01*
X205047000Y-118543184D01*
X206047000Y-118543184D01*
X206047000Y-119943184D01*
X206047000Y-119943184D01*
G37*
G36*
X204147000Y-119943184D02*
G01*
X203147000Y-119943184D01*
X203147000Y-118543184D01*
X204147000Y-118543184D01*
X204147000Y-119943184D01*
X204147000Y-119943184D01*
G37*
G36*
X111367000Y-119318000D02*
G01*
X109867000Y-119318000D01*
X109867000Y-117918000D01*
X111367000Y-117918000D01*
X111367000Y-119318000D01*
X111367000Y-119318000D01*
G37*
G36*
X113907000Y-119173000D02*
G01*
X112407000Y-119173000D01*
X112407000Y-117773000D01*
X113907000Y-117773000D01*
X113907000Y-119173000D01*
X113907000Y-119173000D01*
G37*
G36*
X116447000Y-119173000D02*
G01*
X114947000Y-119173000D01*
X114947000Y-117773000D01*
X116447000Y-117773000D01*
X116447000Y-119173000D01*
X116447000Y-119173000D01*
G37*
G36*
X215268623Y-115026405D02*
G01*
X215586767Y-115158184D01*
X215587831Y-115158625D01*
X215875110Y-115350579D01*
X216119421Y-115594890D01*
X216311375Y-115882169D01*
X216311376Y-115882171D01*
X216443595Y-116201377D01*
X216511000Y-116540245D01*
X216511000Y-116885755D01*
X216443595Y-117224623D01*
X216325460Y-117509828D01*
X216311375Y-117543831D01*
X216119421Y-117831110D01*
X215875110Y-118075421D01*
X215587831Y-118267375D01*
X215587830Y-118267376D01*
X215587829Y-118267376D01*
X215268623Y-118399595D01*
X214929755Y-118467000D01*
X214584245Y-118467000D01*
X214245377Y-118399595D01*
X213926171Y-118267376D01*
X213926170Y-118267376D01*
X213926169Y-118267375D01*
X213638890Y-118075421D01*
X213394579Y-117831110D01*
X213202625Y-117543831D01*
X213188541Y-117509828D01*
X213070405Y-117224623D01*
X213003000Y-116885755D01*
X213003000Y-116540245D01*
X213070405Y-116201377D01*
X213202624Y-115882171D01*
X213202625Y-115882169D01*
X213394579Y-115594890D01*
X213638890Y-115350579D01*
X213926169Y-115158625D01*
X213927234Y-115158184D01*
X214245377Y-115026405D01*
X214584245Y-114959000D01*
X214929755Y-114959000D01*
X215268623Y-115026405D01*
X215268623Y-115026405D01*
G37*
G36*
X123584089Y-118056840D02*
G01*
X119584089Y-118056840D01*
X119584089Y-116056840D01*
X123584089Y-116056840D01*
X123584089Y-118056840D01*
X123584089Y-118056840D01*
G37*
G36*
X208707000Y-117963000D02*
G01*
X206207000Y-117963000D01*
X206207000Y-115463000D01*
X208707000Y-115463000D01*
X208707000Y-117963000D01*
X208707000Y-117963000D01*
G37*
G36*
X202321610Y-115511036D02*
G01*
X202549095Y-115605264D01*
X202549097Y-115605265D01*
X202753828Y-115742062D01*
X202927938Y-115916172D01*
X203056518Y-116108605D01*
X203064736Y-116120905D01*
X203158964Y-116348390D01*
X203207000Y-116589884D01*
X203207000Y-116836116D01*
X203158964Y-117077610D01*
X203080101Y-117268000D01*
X203064735Y-117305097D01*
X202927938Y-117509828D01*
X202753828Y-117683938D01*
X202549097Y-117820735D01*
X202549096Y-117820736D01*
X202549095Y-117820736D01*
X202321610Y-117914964D01*
X202080116Y-117963000D01*
X201833884Y-117963000D01*
X201592390Y-117914964D01*
X201364905Y-117820736D01*
X201364904Y-117820736D01*
X201364903Y-117820735D01*
X201160172Y-117683938D01*
X200986062Y-117509828D01*
X200849265Y-117305097D01*
X200833899Y-117268000D01*
X200755036Y-117077610D01*
X200707000Y-116836116D01*
X200707000Y-116589884D01*
X200755036Y-116348390D01*
X200849264Y-116120905D01*
X200857483Y-116108605D01*
X200986062Y-115916172D01*
X201160172Y-115742062D01*
X201364903Y-115605265D01*
X201364905Y-115605264D01*
X201592390Y-115511036D01*
X201833884Y-115463000D01*
X202080116Y-115463000D01*
X202321610Y-115511036D01*
X202321610Y-115511036D01*
G37*
G36*
X147367000Y-117463000D02*
G01*
X145967000Y-117463000D01*
X145967000Y-115963000D01*
X147367000Y-115963000D01*
X147367000Y-117463000D01*
X147367000Y-117463000D01*
G37*
G36*
X142432000Y-117463000D02*
G01*
X141032000Y-117463000D01*
X141032000Y-115963000D01*
X142432000Y-115963000D01*
X142432000Y-117463000D01*
X142432000Y-117463000D01*
G37*
G36*
X140382000Y-117463000D02*
G01*
X138982000Y-117463000D01*
X138982000Y-115963000D01*
X140382000Y-115963000D01*
X140382000Y-117463000D01*
X140382000Y-117463000D01*
G37*
G36*
X134812000Y-117463000D02*
G01*
X133412000Y-117463000D01*
X133412000Y-115963000D01*
X134812000Y-115963000D01*
X134812000Y-117463000D01*
X134812000Y-117463000D01*
G37*
G36*
X132762000Y-117463000D02*
G01*
X131362000Y-117463000D01*
X131362000Y-115963000D01*
X132762000Y-115963000D01*
X132762000Y-117463000D01*
X132762000Y-117463000D01*
G37*
G36*
X149417000Y-117463000D02*
G01*
X148017000Y-117463000D01*
X148017000Y-115963000D01*
X149417000Y-115963000D01*
X149417000Y-117463000D01*
X149417000Y-117463000D01*
G37*
G36*
X111367000Y-117268000D02*
G01*
X109867000Y-117268000D01*
X109867000Y-115868000D01*
X111367000Y-115868000D01*
X111367000Y-117268000D01*
X111367000Y-117268000D01*
G37*
G36*
X89870662Y-113049850D02*
G01*
X89919623Y-113059589D01*
X90238831Y-113191809D01*
X90526110Y-113383763D01*
X90770421Y-113628074D01*
X90777353Y-113638449D01*
X90962376Y-113915355D01*
X91094595Y-114234561D01*
X91162000Y-114573429D01*
X91162000Y-114918939D01*
X91094595Y-115257807D01*
X90976460Y-115543012D01*
X90962375Y-115577015D01*
X90770421Y-115864294D01*
X90526110Y-116108605D01*
X90238831Y-116300559D01*
X90238830Y-116300560D01*
X90238829Y-116300560D01*
X89919623Y-116432779D01*
X89580755Y-116500184D01*
X89235245Y-116500184D01*
X88896377Y-116432779D01*
X88577171Y-116300560D01*
X88577170Y-116300560D01*
X88577169Y-116300559D01*
X88289890Y-116108605D01*
X88045579Y-115864294D01*
X87853625Y-115577015D01*
X87839541Y-115543012D01*
X87721405Y-115257807D01*
X87654000Y-114918939D01*
X87654000Y-114573429D01*
X87721405Y-114234561D01*
X87853624Y-113915355D01*
X88038647Y-113638449D01*
X88045579Y-113628074D01*
X88289890Y-113383763D01*
X88577169Y-113191809D01*
X88896377Y-113059589D01*
X88945338Y-113049850D01*
X89235245Y-112992184D01*
X89580755Y-112992184D01*
X89870662Y-113049850D01*
X89870662Y-113049850D01*
G37*
G36*
X102572610Y-113544220D02*
G01*
X102800095Y-113638448D01*
X102800097Y-113638449D01*
X102979293Y-113758184D01*
X103004828Y-113775246D01*
X103178938Y-113949356D01*
X103315736Y-114154089D01*
X103409964Y-114381574D01*
X103458000Y-114623068D01*
X103458000Y-114869300D01*
X103409964Y-115110794D01*
X103315736Y-115338279D01*
X103315735Y-115338281D01*
X103178938Y-115543012D01*
X103004828Y-115717122D01*
X102800097Y-115853919D01*
X102800096Y-115853920D01*
X102800095Y-115853920D01*
X102572610Y-115948148D01*
X102331116Y-115996184D01*
X102084884Y-115996184D01*
X101843390Y-115948148D01*
X101615905Y-115853920D01*
X101615904Y-115853920D01*
X101615903Y-115853919D01*
X101411172Y-115717122D01*
X101237062Y-115543012D01*
X101100265Y-115338281D01*
X101100264Y-115338279D01*
X101006036Y-115110794D01*
X100958000Y-114869300D01*
X100958000Y-114623068D01*
X101006036Y-114381574D01*
X101100264Y-114154089D01*
X101237062Y-113949356D01*
X101411172Y-113775246D01*
X101436707Y-113758184D01*
X101615903Y-113638449D01*
X101615905Y-113638448D01*
X101843390Y-113544220D01*
X102084884Y-113496184D01*
X102331116Y-113496184D01*
X102572610Y-113544220D01*
X102572610Y-113544220D01*
G37*
G36*
X97072610Y-113544220D02*
G01*
X97300095Y-113638448D01*
X97300097Y-113638449D01*
X97479293Y-113758184D01*
X97504828Y-113775246D01*
X97678938Y-113949356D01*
X97815736Y-114154089D01*
X97909964Y-114381574D01*
X97958000Y-114623068D01*
X97958000Y-114869300D01*
X97909964Y-115110794D01*
X97815736Y-115338279D01*
X97815735Y-115338281D01*
X97678938Y-115543012D01*
X97504828Y-115717122D01*
X97300097Y-115853919D01*
X97300096Y-115853920D01*
X97300095Y-115853920D01*
X97072610Y-115948148D01*
X96831116Y-115996184D01*
X96584884Y-115996184D01*
X96343390Y-115948148D01*
X96115905Y-115853920D01*
X96115904Y-115853920D01*
X96115903Y-115853919D01*
X95911172Y-115717122D01*
X95737062Y-115543012D01*
X95600265Y-115338281D01*
X95600264Y-115338279D01*
X95506036Y-115110794D01*
X95458000Y-114869300D01*
X95458000Y-114623068D01*
X95506036Y-114381574D01*
X95600264Y-114154089D01*
X95737062Y-113949356D01*
X95911172Y-113775246D01*
X95936707Y-113758184D01*
X96115903Y-113638449D01*
X96115905Y-113638448D01*
X96343390Y-113544220D01*
X96584884Y-113496184D01*
X96831116Y-113496184D01*
X97072610Y-113544220D01*
X97072610Y-113544220D01*
G37*
G36*
X123584089Y-115549923D02*
G01*
X119584089Y-115549923D01*
X119584089Y-113549923D01*
X123584089Y-113549923D01*
X123584089Y-115549923D01*
X123584089Y-115549923D01*
G37*
G36*
X205097000Y-115158184D02*
G01*
X204097000Y-115158184D01*
X204097000Y-113758184D01*
X205097000Y-113758184D01*
X205097000Y-115158184D01*
X205097000Y-115158184D01*
G37*
G36*
X197677000Y-113049850D02*
G01*
X196277000Y-113049850D01*
X196277000Y-111549850D01*
X197677000Y-111549850D01*
X197677000Y-113049850D01*
X197677000Y-113049850D01*
G37*
G36*
X199727000Y-113049850D02*
G01*
X198327000Y-113049850D01*
X198327000Y-111549850D01*
X199727000Y-111549850D01*
X199727000Y-113049850D01*
X199727000Y-113049850D01*
G37*
G36*
X123584089Y-112976840D02*
G01*
X119584089Y-112976840D01*
X119584089Y-110976840D01*
X123584089Y-110976840D01*
X123584089Y-112976840D01*
X123584089Y-112976840D01*
G37*
G36*
X206047000Y-112958184D02*
G01*
X205047000Y-112958184D01*
X205047000Y-111558184D01*
X206047000Y-111558184D01*
X206047000Y-112958184D01*
X206047000Y-112958184D01*
G37*
G36*
X204147000Y-112958184D02*
G01*
X203147000Y-112958184D01*
X203147000Y-111558184D01*
X204147000Y-111558184D01*
X204147000Y-112958184D01*
X204147000Y-112958184D01*
G37*
G36*
X215268623Y-108041405D02*
G01*
X215586767Y-108173184D01*
X215587831Y-108173625D01*
X215875110Y-108365579D01*
X216119421Y-108609890D01*
X216126353Y-108620265D01*
X216311376Y-108897171D01*
X216443595Y-109216377D01*
X216511000Y-109555245D01*
X216511000Y-109900755D01*
X216443595Y-110239623D01*
X216325460Y-110524828D01*
X216311375Y-110558831D01*
X216119421Y-110846110D01*
X215875110Y-111090421D01*
X215587831Y-111282375D01*
X215587830Y-111282376D01*
X215587829Y-111282376D01*
X215268623Y-111414595D01*
X214929755Y-111482000D01*
X214584245Y-111482000D01*
X214245377Y-111414595D01*
X213926171Y-111282376D01*
X213926170Y-111282376D01*
X213926169Y-111282375D01*
X213638890Y-111090421D01*
X213394579Y-110846110D01*
X213202625Y-110558831D01*
X213188541Y-110524828D01*
X213070405Y-110239623D01*
X213003000Y-109900755D01*
X213003000Y-109555245D01*
X213070405Y-109216377D01*
X213202624Y-108897171D01*
X213387647Y-108620265D01*
X213394579Y-108609890D01*
X213638890Y-108365579D01*
X213926169Y-108173625D01*
X213927234Y-108173184D01*
X214245377Y-108041405D01*
X214584245Y-107974000D01*
X214929755Y-107974000D01*
X215268623Y-108041405D01*
X215268623Y-108041405D01*
G37*
G36*
X202321610Y-108526036D02*
G01*
X202549095Y-108620264D01*
X202549097Y-108620265D01*
X202753828Y-108757062D01*
X202927938Y-108931172D01*
X203064736Y-109135905D01*
X203158964Y-109363390D01*
X203207000Y-109604884D01*
X203207000Y-109851116D01*
X203158964Y-110092610D01*
X203064736Y-110320095D01*
X203064735Y-110320097D01*
X202927938Y-110524828D01*
X202753828Y-110698938D01*
X202549097Y-110835735D01*
X202549096Y-110835736D01*
X202549095Y-110835736D01*
X202321610Y-110929964D01*
X202080116Y-110978000D01*
X201833884Y-110978000D01*
X201592390Y-110929964D01*
X201364905Y-110835736D01*
X201364904Y-110835736D01*
X201364903Y-110835735D01*
X201160172Y-110698938D01*
X200986062Y-110524828D01*
X200849265Y-110320097D01*
X200849264Y-110320095D01*
X200755036Y-110092610D01*
X200707000Y-109851116D01*
X200707000Y-109604884D01*
X200755036Y-109363390D01*
X200849264Y-109135905D01*
X200986062Y-108931172D01*
X201160172Y-108757062D01*
X201364903Y-108620265D01*
X201364905Y-108620264D01*
X201592390Y-108526036D01*
X201833884Y-108478000D01*
X202080116Y-108478000D01*
X202321610Y-108526036D01*
X202321610Y-108526036D01*
G37*
G36*
X208707000Y-110978000D02*
G01*
X206207000Y-110978000D01*
X206207000Y-108478000D01*
X208707000Y-108478000D01*
X208707000Y-110978000D01*
X208707000Y-110978000D01*
G37*
G36*
X99651000Y-110679184D02*
G01*
X98251000Y-110679184D01*
X98251000Y-109179184D01*
X99651000Y-109179184D01*
X99651000Y-110679184D01*
X99651000Y-110679184D01*
G37*
G36*
X97601000Y-110679184D02*
G01*
X96201000Y-110679184D01*
X96201000Y-109179184D01*
X97601000Y-109179184D01*
X97601000Y-110679184D01*
X97601000Y-110679184D01*
G37*
G36*
X123584089Y-110436840D02*
G01*
X119584089Y-110436840D01*
X119584089Y-108436840D01*
X123584089Y-108436840D01*
X123584089Y-110436840D01*
X123584089Y-110436840D01*
G37*
G36*
X150615035Y-109291648D02*
G01*
X149115035Y-109291648D01*
X149115035Y-107891648D01*
X150615035Y-107891648D01*
X150615035Y-109291648D01*
X150615035Y-109291648D01*
G37*
G36*
X148075035Y-109291648D02*
G01*
X146575035Y-109291648D01*
X146575035Y-107891648D01*
X148075035Y-107891648D01*
X148075035Y-109291648D01*
X148075035Y-109291648D01*
G37*
G36*
X133488116Y-109154511D02*
G01*
X131988116Y-109154511D01*
X131988116Y-107754511D01*
X133488116Y-107754511D01*
X133488116Y-109154511D01*
X133488116Y-109154511D01*
G37*
G36*
X136028116Y-109154511D02*
G01*
X134528116Y-109154511D01*
X134528116Y-107754511D01*
X136028116Y-107754511D01*
X136028116Y-109154511D01*
X136028116Y-109154511D01*
G37*
G36*
X92952000Y-109123184D02*
G01*
X91452000Y-109123184D01*
X91452000Y-107723184D01*
X92952000Y-107723184D01*
X92952000Y-109123184D01*
X92952000Y-109123184D01*
G37*
G36*
X112145614Y-108831226D02*
G01*
X110745614Y-108831226D01*
X110745614Y-107331226D01*
X112145614Y-107331226D01*
X112145614Y-108831226D01*
X112145614Y-108831226D01*
G37*
G36*
X114195614Y-108831226D02*
G01*
X112795614Y-108831226D01*
X112795614Y-107331226D01*
X114195614Y-107331226D01*
X114195614Y-108831226D01*
X114195614Y-108831226D01*
G37*
G36*
X178292000Y-108438184D02*
G01*
X176292000Y-108438184D01*
X176292000Y-104438184D01*
X178292000Y-104438184D01*
X178292000Y-108438184D01*
X178292000Y-108438184D01*
G37*
G36*
X183372000Y-108438184D02*
G01*
X181372000Y-108438184D01*
X181372000Y-104438184D01*
X183372000Y-104438184D01*
X183372000Y-108438184D01*
X183372000Y-108438184D01*
G37*
G36*
X180832000Y-108438184D02*
G01*
X178832000Y-108438184D01*
X178832000Y-104438184D01*
X180832000Y-104438184D01*
X180832000Y-108438184D01*
X180832000Y-108438184D01*
G37*
G36*
X205097000Y-108173184D02*
G01*
X204097000Y-108173184D01*
X204097000Y-106773184D01*
X205097000Y-106773184D01*
X205097000Y-108173184D01*
X205097000Y-108173184D01*
G37*
G36*
X150615035Y-107241648D02*
G01*
X149115035Y-107241648D01*
X149115035Y-105841648D01*
X150615035Y-105841648D01*
X150615035Y-107241648D01*
X150615035Y-107241648D01*
G37*
G36*
X148075035Y-107241648D02*
G01*
X146575035Y-107241648D01*
X146575035Y-105841648D01*
X148075035Y-105841648D01*
X148075035Y-107241648D01*
X148075035Y-107241648D01*
G37*
G36*
X136028116Y-107104511D02*
G01*
X134528116Y-107104511D01*
X134528116Y-105704511D01*
X136028116Y-105704511D01*
X136028116Y-107104511D01*
X136028116Y-107104511D01*
G37*
G36*
X133488116Y-107104511D02*
G01*
X131988116Y-107104511D01*
X131988116Y-105704511D01*
X133488116Y-105704511D01*
X133488116Y-107104511D01*
X133488116Y-107104511D01*
G37*
G36*
X95939408Y-103617625D02*
G01*
X96108456Y-103651251D01*
X96426936Y-103783170D01*
X96713560Y-103974686D01*
X96957314Y-104218440D01*
X97148830Y-104505064D01*
X97280749Y-104823544D01*
X97348000Y-105161640D01*
X97348000Y-105506360D01*
X97280749Y-105844456D01*
X97148830Y-106162936D01*
X96957314Y-106449560D01*
X96713560Y-106693314D01*
X96426936Y-106884830D01*
X96108456Y-107016749D01*
X95939408Y-107050374D01*
X95770361Y-107084000D01*
X95425639Y-107084000D01*
X95256592Y-107050374D01*
X95087544Y-107016749D01*
X94769064Y-106884830D01*
X94482440Y-106693314D01*
X94238686Y-106449560D01*
X94047170Y-106162936D01*
X93915251Y-105844456D01*
X93848000Y-105506360D01*
X93848000Y-105161640D01*
X93915251Y-104823544D01*
X94047170Y-104505064D01*
X94238686Y-104218440D01*
X94482440Y-103974686D01*
X94769064Y-103783170D01*
X95087544Y-103651251D01*
X95256592Y-103617625D01*
X95425639Y-103584000D01*
X95770361Y-103584000D01*
X95939408Y-103617625D01*
X95939408Y-103617625D01*
G37*
G36*
X92952000Y-107073184D02*
G01*
X91452000Y-107073184D01*
X91452000Y-105673184D01*
X92952000Y-105673184D01*
X92952000Y-107073184D01*
X92952000Y-107073184D01*
G37*
G36*
X114195614Y-106356226D02*
G01*
X112795614Y-106356226D01*
X112795614Y-105356226D01*
X114195614Y-105356226D01*
X114195614Y-106356226D01*
X114195614Y-106356226D01*
G37*
G36*
X204147000Y-105973184D02*
G01*
X203147000Y-105973184D01*
X203147000Y-104573184D01*
X204147000Y-104573184D01*
X204147000Y-105973184D01*
X204147000Y-105973184D01*
G37*
G36*
X206047000Y-105973184D02*
G01*
X205047000Y-105973184D01*
X205047000Y-104573184D01*
X206047000Y-104573184D01*
X206047000Y-105973184D01*
X206047000Y-105973184D01*
G37*
G36*
X199727000Y-105853184D02*
G01*
X198327000Y-105853184D01*
X198327000Y-104353184D01*
X199727000Y-104353184D01*
X199727000Y-105853184D01*
X199727000Y-105853184D01*
G37*
G36*
X197677000Y-105853184D02*
G01*
X196277000Y-105853184D01*
X196277000Y-104353184D01*
X197677000Y-104353184D01*
X197677000Y-105853184D01*
X197677000Y-105853184D01*
G37*
G36*
X122072000Y-105468184D02*
G01*
X120072000Y-105468184D01*
X120072000Y-103468184D01*
X122072000Y-103468184D01*
X122072000Y-105468184D01*
X122072000Y-105468184D01*
G37*
G36*
X117672000Y-105468184D02*
G01*
X115672000Y-105468184D01*
X115672000Y-103468184D01*
X117672000Y-103468184D01*
X117672000Y-105468184D01*
X117672000Y-105468184D01*
G37*
G36*
X111995614Y-105406226D02*
G01*
X110595614Y-105406226D01*
X110595614Y-104406226D01*
X111995614Y-104406226D01*
X111995614Y-105406226D01*
X111995614Y-105406226D01*
G37*
G36*
X150075035Y-104751648D02*
G01*
X148675035Y-104751648D01*
X148675035Y-103251648D01*
X150075035Y-103251648D01*
X150075035Y-104751648D01*
X150075035Y-104751648D01*
G37*
G36*
X148025035Y-104751648D02*
G01*
X146625035Y-104751648D01*
X146625035Y-103251648D01*
X148025035Y-103251648D01*
X148025035Y-104751648D01*
X148025035Y-104751648D01*
G37*
G36*
X135978116Y-104614511D02*
G01*
X134578116Y-104614511D01*
X134578116Y-103114511D01*
X135978116Y-103114511D01*
X135978116Y-104614511D01*
X135978116Y-104614511D01*
G37*
G36*
X133928116Y-104614511D02*
G01*
X132528116Y-104614511D01*
X132528116Y-103114511D01*
X133928116Y-103114511D01*
X133928116Y-104614511D01*
X133928116Y-104614511D01*
G37*
G36*
X215268623Y-101056405D02*
G01*
X215587831Y-101188625D01*
X215875110Y-101380579D01*
X216119421Y-101624890D01*
X216311375Y-101912169D01*
X216311376Y-101912171D01*
X216443595Y-102231377D01*
X216511000Y-102570245D01*
X216511000Y-102915755D01*
X216443595Y-103254623D01*
X216325460Y-103539828D01*
X216311375Y-103573831D01*
X216119421Y-103861110D01*
X215875110Y-104105421D01*
X215587831Y-104297375D01*
X215587830Y-104297376D01*
X215587829Y-104297376D01*
X215268623Y-104429595D01*
X214929755Y-104497000D01*
X214584245Y-104497000D01*
X214245377Y-104429595D01*
X213926171Y-104297376D01*
X213926170Y-104297376D01*
X213926169Y-104297375D01*
X213638890Y-104105421D01*
X213394579Y-103861110D01*
X213202625Y-103573831D01*
X213188541Y-103539828D01*
X213070405Y-103254623D01*
X213003000Y-102915755D01*
X213003000Y-102570245D01*
X213070405Y-102231377D01*
X213202624Y-101912171D01*
X213202625Y-101912169D01*
X213394579Y-101624890D01*
X213638890Y-101380579D01*
X213926169Y-101188625D01*
X214245377Y-101056405D01*
X214584245Y-100989000D01*
X214929755Y-100989000D01*
X215268623Y-101056405D01*
X215268623Y-101056405D01*
G37*
G36*
X114195614Y-104456226D02*
G01*
X112795614Y-104456226D01*
X112795614Y-103456226D01*
X114195614Y-103456226D01*
X114195614Y-104456226D01*
X114195614Y-104456226D01*
G37*
G36*
X208707000Y-103993000D02*
G01*
X206207000Y-103993000D01*
X206207000Y-101493000D01*
X208707000Y-101493000D01*
X208707000Y-103993000D01*
X208707000Y-103993000D01*
G37*
G36*
X202321610Y-101541036D02*
G01*
X202549095Y-101635264D01*
X202549097Y-101635265D01*
X202611550Y-101676995D01*
X202753828Y-101772062D01*
X202927938Y-101946172D01*
X203064736Y-102150905D01*
X203158964Y-102378390D01*
X203207000Y-102619884D01*
X203207000Y-102866116D01*
X203158964Y-103107610D01*
X203064736Y-103335095D01*
X203064735Y-103335097D01*
X202927938Y-103539828D01*
X202753828Y-103713938D01*
X202549097Y-103850735D01*
X202549096Y-103850736D01*
X202549095Y-103850736D01*
X202321610Y-103944964D01*
X202080116Y-103993000D01*
X201833884Y-103993000D01*
X201592390Y-103944964D01*
X201364905Y-103850736D01*
X201364904Y-103850736D01*
X201364903Y-103850735D01*
X201160172Y-103713938D01*
X200986062Y-103539828D01*
X200849265Y-103335097D01*
X200849264Y-103335095D01*
X200755036Y-103107610D01*
X200707000Y-102866116D01*
X200707000Y-102619884D01*
X200755036Y-102378390D01*
X200849264Y-102150905D01*
X200986062Y-101946172D01*
X201160172Y-101772062D01*
X201302450Y-101676995D01*
X201364903Y-101635265D01*
X201364905Y-101635264D01*
X201592390Y-101541036D01*
X201833884Y-101493000D01*
X202080116Y-101493000D01*
X202321610Y-101541036D01*
X202321610Y-101541036D01*
G37*
G36*
X182555032Y-101580000D02*
G01*
X182663689Y-101601613D01*
X182845678Y-101676995D01*
X183009463Y-101786433D01*
X183148751Y-101925721D01*
X183258189Y-102089506D01*
X183333571Y-102271495D01*
X183333571Y-102271496D01*
X183354834Y-102378390D01*
X183372000Y-102464693D01*
X183372000Y-102661675D01*
X183333571Y-102854873D01*
X183258189Y-103036862D01*
X183148751Y-103200647D01*
X183009463Y-103339935D01*
X182845678Y-103449373D01*
X182663689Y-103524755D01*
X182599290Y-103537565D01*
X182470493Y-103563184D01*
X182273507Y-103563184D01*
X182144710Y-103537565D01*
X182080311Y-103524755D01*
X181898322Y-103449373D01*
X181734537Y-103339935D01*
X181595249Y-103200647D01*
X181485811Y-103036862D01*
X181410429Y-102854873D01*
X181372000Y-102661675D01*
X181372000Y-102464693D01*
X181389167Y-102378390D01*
X181410429Y-102271496D01*
X181410429Y-102271495D01*
X181485811Y-102089506D01*
X181595249Y-101925721D01*
X181734537Y-101786433D01*
X181898322Y-101676995D01*
X182080311Y-101601613D01*
X182188968Y-101580000D01*
X182273507Y-101563184D01*
X182470493Y-101563184D01*
X182555032Y-101580000D01*
X182555032Y-101580000D01*
G37*
G36*
X178292000Y-103563184D02*
G01*
X176292000Y-103563184D01*
X176292000Y-101563184D01*
X178292000Y-101563184D01*
X178292000Y-103563184D01*
X178292000Y-103563184D01*
G37*
G36*
X180015032Y-101580000D02*
G01*
X180123689Y-101601613D01*
X180305678Y-101676995D01*
X180469463Y-101786433D01*
X180608751Y-101925721D01*
X180718189Y-102089506D01*
X180793571Y-102271495D01*
X180793571Y-102271496D01*
X180814834Y-102378390D01*
X180832000Y-102464693D01*
X180832000Y-102661675D01*
X180793571Y-102854873D01*
X180718189Y-103036862D01*
X180608751Y-103200647D01*
X180469463Y-103339935D01*
X180305678Y-103449373D01*
X180123689Y-103524755D01*
X180059290Y-103537565D01*
X179930493Y-103563184D01*
X179733507Y-103563184D01*
X179604710Y-103537565D01*
X179540311Y-103524755D01*
X179358322Y-103449373D01*
X179194537Y-103339935D01*
X179055249Y-103200647D01*
X178945811Y-103036862D01*
X178870429Y-102854873D01*
X178832000Y-102661675D01*
X178832000Y-102464693D01*
X178849167Y-102378390D01*
X178870429Y-102271496D01*
X178870429Y-102271495D01*
X178945811Y-102089506D01*
X179055249Y-101925721D01*
X179194537Y-101786433D01*
X179358322Y-101676995D01*
X179540311Y-101601613D01*
X179648968Y-101580000D01*
X179733507Y-101563184D01*
X179930493Y-101563184D01*
X180015032Y-101580000D01*
X180015032Y-101580000D01*
G37*
G36*
X169102000Y-102170184D02*
G01*
X167702000Y-102170184D01*
X167702000Y-100670184D01*
X169102000Y-100670184D01*
X169102000Y-102170184D01*
X169102000Y-102170184D01*
G37*
G36*
X167052000Y-102170184D02*
G01*
X165652000Y-102170184D01*
X165652000Y-100670184D01*
X167052000Y-100670184D01*
X167052000Y-102170184D01*
X167052000Y-102170184D01*
G37*
G36*
X193522653Y-102043845D02*
G01*
X191522653Y-102043845D01*
X191522653Y-98043845D01*
X193522653Y-98043845D01*
X193522653Y-102043845D01*
X193522653Y-102043845D01*
G37*
G36*
X196062653Y-102043845D02*
G01*
X194062653Y-102043845D01*
X194062653Y-98043845D01*
X196062653Y-98043845D01*
X196062653Y-102043845D01*
X196062653Y-102043845D01*
G37*
G36*
X198602653Y-102043845D02*
G01*
X196602653Y-102043845D01*
X196602653Y-98043845D01*
X198602653Y-98043845D01*
X198602653Y-102043845D01*
X198602653Y-102043845D01*
G37*
G36*
X190982653Y-102043845D02*
G01*
X188982653Y-102043845D01*
X188982653Y-98043845D01*
X190982653Y-98043845D01*
X190982653Y-102043845D01*
X190982653Y-102043845D01*
G37*
G36*
X114791610Y-99128036D02*
G01*
X115019095Y-99222264D01*
X115019097Y-99222265D01*
X115223828Y-99359062D01*
X115397938Y-99533172D01*
X115534736Y-99737905D01*
X115628964Y-99965390D01*
X115677000Y-100206884D01*
X115677000Y-100453116D01*
X115628964Y-100694610D01*
X115600732Y-100762767D01*
X115534735Y-100922097D01*
X115397938Y-101126828D01*
X115223828Y-101300938D01*
X115019097Y-101437735D01*
X115019096Y-101437736D01*
X115019095Y-101437736D01*
X114791610Y-101531964D01*
X114550116Y-101580000D01*
X114303884Y-101580000D01*
X114062390Y-101531964D01*
X113834905Y-101437736D01*
X113834904Y-101437736D01*
X113834903Y-101437735D01*
X113630172Y-101300938D01*
X113456062Y-101126828D01*
X113319265Y-100922097D01*
X113253268Y-100762767D01*
X113225036Y-100694610D01*
X113177000Y-100453116D01*
X113177000Y-100206884D01*
X113225036Y-99965390D01*
X113319264Y-99737905D01*
X113456062Y-99533172D01*
X113630172Y-99359062D01*
X113834903Y-99222265D01*
X113834905Y-99222264D01*
X114062390Y-99128036D01*
X114303884Y-99080000D01*
X114550116Y-99080000D01*
X114791610Y-99128036D01*
X114791610Y-99128036D01*
G37*
G36*
X109711610Y-99128036D02*
G01*
X109939095Y-99222264D01*
X109939097Y-99222265D01*
X110143828Y-99359062D01*
X110317938Y-99533172D01*
X110454736Y-99737905D01*
X110548964Y-99965390D01*
X110597000Y-100206884D01*
X110597000Y-100453116D01*
X110548964Y-100694610D01*
X110520732Y-100762767D01*
X110454735Y-100922097D01*
X110317938Y-101126828D01*
X110143828Y-101300938D01*
X109939097Y-101437735D01*
X109939096Y-101437736D01*
X109939095Y-101437736D01*
X109711610Y-101531964D01*
X109470116Y-101580000D01*
X109223884Y-101580000D01*
X108982390Y-101531964D01*
X108754905Y-101437736D01*
X108754904Y-101437736D01*
X108754903Y-101437735D01*
X108550172Y-101300938D01*
X108376062Y-101126828D01*
X108239265Y-100922097D01*
X108173268Y-100762767D01*
X108145036Y-100694610D01*
X108097000Y-100453116D01*
X108097000Y-100206884D01*
X108145036Y-99965390D01*
X108239264Y-99737905D01*
X108376062Y-99533172D01*
X108550172Y-99359062D01*
X108754903Y-99222265D01*
X108754905Y-99222264D01*
X108982390Y-99128036D01*
X109223884Y-99080000D01*
X109470116Y-99080000D01*
X109711610Y-99128036D01*
X109711610Y-99128036D01*
G37*
G36*
X99048000Y-101294000D02*
G01*
X97548000Y-101294000D01*
X97548000Y-99794000D01*
X99048000Y-99794000D01*
X99048000Y-101294000D01*
X99048000Y-101294000D01*
G37*
G36*
X95316766Y-99822821D02*
G01*
X95453257Y-99879358D01*
X95576097Y-99961437D01*
X95680563Y-100065903D01*
X95762642Y-100188743D01*
X95819179Y-100325234D01*
X95848000Y-100470130D01*
X95848000Y-100617870D01*
X95819179Y-100762766D01*
X95762642Y-100899257D01*
X95680563Y-101022097D01*
X95576097Y-101126563D01*
X95453257Y-101208642D01*
X95316766Y-101265179D01*
X95171870Y-101294000D01*
X95024130Y-101294000D01*
X94879234Y-101265179D01*
X94742743Y-101208642D01*
X94619903Y-101126563D01*
X94515437Y-101022097D01*
X94433358Y-100899257D01*
X94376821Y-100762766D01*
X94348000Y-100617870D01*
X94348000Y-100470130D01*
X94376821Y-100325234D01*
X94433358Y-100188743D01*
X94515437Y-100065903D01*
X94619903Y-99961437D01*
X94742743Y-99879358D01*
X94879234Y-99822821D01*
X95024130Y-99794000D01*
X95171870Y-99794000D01*
X95316766Y-99822821D01*
X95316766Y-99822821D01*
G37*
G36*
X150947645Y-101237319D02*
G01*
X148947645Y-101237319D01*
X148947645Y-99637319D01*
X150947645Y-99637319D01*
X150947645Y-101237319D01*
X150947645Y-101237319D01*
G37*
G36*
X154247645Y-101237319D02*
G01*
X152247645Y-101237319D01*
X152247645Y-99637319D01*
X154247645Y-99637319D01*
X154247645Y-101237319D01*
X154247645Y-101237319D01*
G37*
G36*
X118541144Y-99908475D02*
G01*
X118569171Y-99916977D01*
X118595000Y-99930783D01*
X118617638Y-99949362D01*
X118636217Y-99972000D01*
X118650023Y-99997829D01*
X118658525Y-100025856D01*
X118662000Y-100061140D01*
X118662000Y-100598860D01*
X118658525Y-100634144D01*
X118650023Y-100662171D01*
X118636217Y-100688000D01*
X118617638Y-100710638D01*
X118595000Y-100729217D01*
X118569171Y-100743023D01*
X118541144Y-100751525D01*
X118505860Y-100755000D01*
X117968140Y-100755000D01*
X117932856Y-100751525D01*
X117904829Y-100743023D01*
X117879000Y-100729217D01*
X117856362Y-100710638D01*
X117837783Y-100688000D01*
X117823977Y-100662171D01*
X117815475Y-100634144D01*
X117812000Y-100598860D01*
X117812000Y-100061140D01*
X117815475Y-100025856D01*
X117823977Y-99997829D01*
X117837783Y-99972000D01*
X117856362Y-99949362D01*
X117879000Y-99930783D01*
X117904829Y-99916977D01*
X117932856Y-99908475D01*
X117968140Y-99905000D01*
X118505860Y-99905000D01*
X118541144Y-99908475D01*
X118541144Y-99908475D01*
G37*
G36*
X119841144Y-99908475D02*
G01*
X119869171Y-99916977D01*
X119895000Y-99930783D01*
X119917638Y-99949362D01*
X119936217Y-99972000D01*
X119950023Y-99997829D01*
X119958525Y-100025856D01*
X119962000Y-100061140D01*
X119962000Y-100598860D01*
X119958525Y-100634144D01*
X119950023Y-100662171D01*
X119936217Y-100688000D01*
X119917638Y-100710638D01*
X119895000Y-100729217D01*
X119869171Y-100743023D01*
X119841144Y-100751525D01*
X119805860Y-100755000D01*
X119268140Y-100755000D01*
X119232856Y-100751525D01*
X119204829Y-100743023D01*
X119179000Y-100729217D01*
X119156362Y-100710638D01*
X119137783Y-100688000D01*
X119123977Y-100662171D01*
X119115475Y-100634144D01*
X119112000Y-100598860D01*
X119112000Y-100061140D01*
X119115475Y-100025856D01*
X119123977Y-99997829D01*
X119137783Y-99972000D01*
X119156362Y-99949362D01*
X119179000Y-99930783D01*
X119204829Y-99916977D01*
X119232856Y-99908475D01*
X119268140Y-99905000D01*
X119805860Y-99905000D01*
X119841144Y-99908475D01*
X119841144Y-99908475D01*
G37*
G36*
X180978815Y-100545908D02*
G01*
X179478815Y-100545908D01*
X179478815Y-99145908D01*
X180978815Y-99145908D01*
X180978815Y-100545908D01*
X180978815Y-100545908D01*
G37*
G36*
X185423815Y-100545908D02*
G01*
X183923815Y-100545908D01*
X183923815Y-99145908D01*
X185423815Y-99145908D01*
X185423815Y-100545908D01*
X185423815Y-100545908D01*
G37*
G36*
X183201315Y-100545908D02*
G01*
X181701315Y-100545908D01*
X181701315Y-99145908D01*
X183201315Y-99145908D01*
X183201315Y-100545908D01*
X183201315Y-100545908D01*
G37*
G36*
X146097000Y-99503184D02*
G01*
X144697000Y-99503184D01*
X144697000Y-98003184D01*
X146097000Y-98003184D01*
X146097000Y-99503184D01*
X146097000Y-99503184D01*
G37*
G36*
X148147000Y-99503184D02*
G01*
X146747000Y-99503184D01*
X146747000Y-98003184D01*
X148147000Y-98003184D01*
X148147000Y-99503184D01*
X148147000Y-99503184D01*
G37*
G36*
X95316766Y-97322821D02*
G01*
X95453257Y-97379358D01*
X95576097Y-97461437D01*
X95680563Y-97565903D01*
X95762642Y-97688743D01*
X95819179Y-97825234D01*
X95848000Y-97970130D01*
X95848000Y-98117870D01*
X95819179Y-98262766D01*
X95762642Y-98399257D01*
X95680563Y-98522097D01*
X95576097Y-98626563D01*
X95453257Y-98708642D01*
X95316766Y-98765179D01*
X95171870Y-98794000D01*
X95024130Y-98794000D01*
X94879234Y-98765179D01*
X94742743Y-98708642D01*
X94619903Y-98626563D01*
X94515437Y-98522097D01*
X94433358Y-98399257D01*
X94376821Y-98262766D01*
X94348000Y-98117870D01*
X94348000Y-97970130D01*
X94376821Y-97825234D01*
X94433358Y-97688743D01*
X94515437Y-97565903D01*
X94619903Y-97461437D01*
X94742743Y-97379358D01*
X94879234Y-97322821D01*
X95024130Y-97294000D01*
X95171870Y-97294000D01*
X95316766Y-97322821D01*
X95316766Y-97322821D01*
G37*
G36*
X98516766Y-97322821D02*
G01*
X98653257Y-97379358D01*
X98776097Y-97461437D01*
X98880563Y-97565903D01*
X98962642Y-97688743D01*
X99019179Y-97825234D01*
X99048000Y-97970130D01*
X99048000Y-98117870D01*
X99019179Y-98262766D01*
X98962642Y-98399257D01*
X98880563Y-98522097D01*
X98776097Y-98626563D01*
X98653257Y-98708642D01*
X98516766Y-98765179D01*
X98371870Y-98794000D01*
X98224130Y-98794000D01*
X98079234Y-98765179D01*
X97942743Y-98708642D01*
X97819903Y-98626563D01*
X97715437Y-98522097D01*
X97633358Y-98399257D01*
X97576821Y-98262766D01*
X97548000Y-98117870D01*
X97548000Y-97970130D01*
X97576821Y-97825234D01*
X97633358Y-97688743D01*
X97715437Y-97565903D01*
X97819903Y-97461437D01*
X97942743Y-97379358D01*
X98079234Y-97322821D01*
X98224130Y-97294000D01*
X98371870Y-97294000D01*
X98516766Y-97322821D01*
X98516766Y-97322821D01*
G37*
G36*
X180978815Y-98495908D02*
G01*
X179478815Y-98495908D01*
X179478815Y-97095908D01*
X180978815Y-97095908D01*
X180978815Y-98495908D01*
X180978815Y-98495908D01*
G37*
G36*
X183201315Y-98495908D02*
G01*
X181701315Y-98495908D01*
X181701315Y-97095908D01*
X183201315Y-97095908D01*
X183201315Y-98495908D01*
X183201315Y-98495908D01*
G37*
G36*
X185423815Y-98495908D02*
G01*
X183923815Y-98495908D01*
X183923815Y-97095908D01*
X185423815Y-97095908D01*
X185423815Y-98495908D01*
X185423815Y-98495908D01*
G37*
G36*
X115762000Y-97905000D02*
G01*
X114362000Y-97905000D01*
X114362000Y-96405000D01*
X115762000Y-96405000D01*
X115762000Y-97905000D01*
X115762000Y-97905000D01*
G37*
G36*
X117812000Y-97905000D02*
G01*
X116412000Y-97905000D01*
X116412000Y-96405000D01*
X117812000Y-96405000D01*
X117812000Y-97905000D01*
X117812000Y-97905000D01*
G37*
G36*
X107585963Y-96447380D02*
G01*
X107621021Y-96458015D01*
X107653332Y-96475286D01*
X107681655Y-96498529D01*
X107704898Y-96526852D01*
X107722169Y-96559163D01*
X107732804Y-96594221D01*
X107737000Y-96636825D01*
X107737000Y-97649543D01*
X107732804Y-97692147D01*
X107722169Y-97727205D01*
X107704898Y-97759516D01*
X107681655Y-97787839D01*
X107653332Y-97811082D01*
X107621021Y-97828353D01*
X107585963Y-97838988D01*
X107543359Y-97843184D01*
X106930641Y-97843184D01*
X106888037Y-97838988D01*
X106852979Y-97828353D01*
X106820668Y-97811082D01*
X106792345Y-97787839D01*
X106769102Y-97759516D01*
X106751831Y-97727205D01*
X106741196Y-97692147D01*
X106737000Y-97649543D01*
X106737000Y-96636825D01*
X106741196Y-96594221D01*
X106751831Y-96559163D01*
X106769102Y-96526852D01*
X106792345Y-96498529D01*
X106820668Y-96475286D01*
X106852979Y-96458015D01*
X106888037Y-96447380D01*
X106930641Y-96443184D01*
X107543359Y-96443184D01*
X107585963Y-96447380D01*
X107585963Y-96447380D01*
G37*
G36*
X105685963Y-96447380D02*
G01*
X105721021Y-96458015D01*
X105753332Y-96475286D01*
X105781655Y-96498529D01*
X105804898Y-96526852D01*
X105822169Y-96559163D01*
X105832804Y-96594221D01*
X105837000Y-96636825D01*
X105837000Y-97649543D01*
X105832804Y-97692147D01*
X105822169Y-97727205D01*
X105804898Y-97759516D01*
X105781655Y-97787839D01*
X105753332Y-97811082D01*
X105721021Y-97828353D01*
X105685963Y-97838988D01*
X105643359Y-97843184D01*
X105030641Y-97843184D01*
X104988037Y-97838988D01*
X104952979Y-97828353D01*
X104920668Y-97811082D01*
X104892345Y-97787839D01*
X104869102Y-97759516D01*
X104851831Y-97727205D01*
X104841196Y-97692147D01*
X104837000Y-97649543D01*
X104837000Y-96636825D01*
X104841196Y-96594221D01*
X104851831Y-96559163D01*
X104869102Y-96526852D01*
X104892345Y-96498529D01*
X104920668Y-96475286D01*
X104952979Y-96458015D01*
X104988037Y-96447380D01*
X105030641Y-96443184D01*
X105643359Y-96443184D01*
X105685963Y-96447380D01*
X105685963Y-96447380D01*
G37*
G36*
X156792645Y-97187319D02*
G01*
X155292645Y-97187319D01*
X155292645Y-95787319D01*
X156792645Y-95787319D01*
X156792645Y-97187319D01*
X156792645Y-97187319D01*
G37*
G36*
X147902645Y-97042319D02*
G01*
X146402645Y-97042319D01*
X146402645Y-95642319D01*
X147902645Y-95642319D01*
X147902645Y-97042319D01*
X147902645Y-97042319D01*
G37*
G36*
X160067000Y-96328184D02*
G01*
X158667000Y-96328184D01*
X158667000Y-94828184D01*
X160067000Y-94828184D01*
X160067000Y-96328184D01*
X160067000Y-96328184D01*
G37*
G36*
X162117000Y-96328184D02*
G01*
X160717000Y-96328184D01*
X160717000Y-94828184D01*
X162117000Y-94828184D01*
X162117000Y-96328184D01*
X162117000Y-96328184D01*
G37*
G36*
X131528000Y-95820184D02*
G01*
X130128000Y-95820184D01*
X130128000Y-94320184D01*
X131528000Y-94320184D01*
X131528000Y-95820184D01*
X131528000Y-95820184D01*
G37*
G36*
X129478000Y-95820184D02*
G01*
X128078000Y-95820184D01*
X128078000Y-94320184D01*
X129478000Y-94320184D01*
X129478000Y-95820184D01*
X129478000Y-95820184D01*
G37*
G36*
X107585963Y-94247380D02*
G01*
X107621021Y-94258015D01*
X107653332Y-94275286D01*
X107681655Y-94298529D01*
X107704898Y-94326852D01*
X107722169Y-94359163D01*
X107732804Y-94394221D01*
X107737000Y-94436825D01*
X107737000Y-95449543D01*
X107732804Y-95492147D01*
X107722169Y-95527205D01*
X107704898Y-95559516D01*
X107681655Y-95587839D01*
X107653332Y-95611082D01*
X107621021Y-95628353D01*
X107585963Y-95638988D01*
X107543359Y-95643184D01*
X106930641Y-95643184D01*
X106888037Y-95638988D01*
X106852979Y-95628353D01*
X106820668Y-95611082D01*
X106792345Y-95587839D01*
X106769102Y-95559516D01*
X106751831Y-95527205D01*
X106741196Y-95492147D01*
X106737000Y-95449543D01*
X106737000Y-94436825D01*
X106741196Y-94394221D01*
X106751831Y-94359163D01*
X106769102Y-94326852D01*
X106792345Y-94298529D01*
X106820668Y-94275286D01*
X106852979Y-94258015D01*
X106888037Y-94247380D01*
X106930641Y-94243184D01*
X107543359Y-94243184D01*
X107585963Y-94247380D01*
X107585963Y-94247380D01*
G37*
G36*
X106005472Y-94249301D02*
G01*
X106059288Y-94265626D01*
X106108891Y-94292140D01*
X106152366Y-94327818D01*
X106188044Y-94371293D01*
X106214558Y-94420896D01*
X106230883Y-94474712D01*
X106237000Y-94536824D01*
X106237000Y-95349544D01*
X106230883Y-95411656D01*
X106214558Y-95465472D01*
X106188044Y-95515075D01*
X106152366Y-95558550D01*
X106108891Y-95594228D01*
X106059288Y-95620742D01*
X106005472Y-95637067D01*
X105943360Y-95643184D01*
X105130640Y-95643184D01*
X105068528Y-95637067D01*
X105014712Y-95620742D01*
X104965109Y-95594228D01*
X104921634Y-95558550D01*
X104885956Y-95515075D01*
X104859442Y-95465472D01*
X104843117Y-95411656D01*
X104837000Y-95349544D01*
X104837000Y-94536824D01*
X104843117Y-94474712D01*
X104859442Y-94420896D01*
X104885956Y-94371293D01*
X104921634Y-94327818D01*
X104965109Y-94292140D01*
X105014712Y-94265626D01*
X105068528Y-94249301D01*
X105130640Y-94243184D01*
X105943360Y-94243184D01*
X106005472Y-94249301D01*
X106005472Y-94249301D01*
G37*
G36*
X154247645Y-95587319D02*
G01*
X152247645Y-95587319D01*
X152247645Y-93987319D01*
X154247645Y-93987319D01*
X154247645Y-95587319D01*
X154247645Y-95587319D01*
G37*
G36*
X150947645Y-95587319D02*
G01*
X148947645Y-95587319D01*
X148947645Y-93987319D01*
X150947645Y-93987319D01*
X150947645Y-95587319D01*
X150947645Y-95587319D01*
G37*
G36*
X115762000Y-95492000D02*
G01*
X114362000Y-95492000D01*
X114362000Y-93992000D01*
X115762000Y-93992000D01*
X115762000Y-95492000D01*
X115762000Y-95492000D01*
G37*
G36*
X117812000Y-95492000D02*
G01*
X116412000Y-95492000D01*
X116412000Y-93992000D01*
X117812000Y-93992000D01*
X117812000Y-95492000D01*
X117812000Y-95492000D01*
G37*
G36*
X216095223Y-91741589D02*
G01*
X216414431Y-91873809D01*
X216701710Y-92065763D01*
X216946021Y-92310074D01*
X216952953Y-92320449D01*
X217137976Y-92597355D01*
X217270195Y-92916561D01*
X217337600Y-93255429D01*
X217337600Y-93600939D01*
X217270195Y-93939807D01*
X217142795Y-94247380D01*
X217137975Y-94259015D01*
X216946021Y-94546294D01*
X216701710Y-94790605D01*
X216414431Y-94982559D01*
X216414430Y-94982560D01*
X216414429Y-94982560D01*
X216095223Y-95114779D01*
X215756355Y-95182184D01*
X215410845Y-95182184D01*
X215071977Y-95114779D01*
X214752771Y-94982560D01*
X214752770Y-94982560D01*
X214752769Y-94982559D01*
X214465490Y-94790605D01*
X214221179Y-94546294D01*
X214029225Y-94259015D01*
X214024406Y-94247380D01*
X213897005Y-93939807D01*
X213829600Y-93600939D01*
X213829600Y-93255429D01*
X213897005Y-92916561D01*
X214029224Y-92597355D01*
X214214247Y-92320449D01*
X214221179Y-92310074D01*
X214465490Y-92065763D01*
X214752769Y-91873809D01*
X215071977Y-91741589D01*
X215410845Y-91674184D01*
X215756355Y-91674184D01*
X216095223Y-91741589D01*
X216095223Y-91741589D01*
G37*
G36*
X195822000Y-95153184D02*
G01*
X194322000Y-95153184D01*
X194322000Y-93753184D01*
X195822000Y-93753184D01*
X195822000Y-95153184D01*
X195822000Y-95153184D01*
G37*
G36*
X156792645Y-95137319D02*
G01*
X155292645Y-95137319D01*
X155292645Y-93737319D01*
X156792645Y-93737319D01*
X156792645Y-95137319D01*
X156792645Y-95137319D01*
G37*
G36*
X95939408Y-91537626D02*
G01*
X96108456Y-91571251D01*
X96426936Y-91703170D01*
X96713560Y-91894686D01*
X96957314Y-92138440D01*
X97148830Y-92425064D01*
X97220195Y-92597355D01*
X97280749Y-92743545D01*
X97348000Y-93081639D01*
X97348000Y-93426361D01*
X97323148Y-93551300D01*
X97280749Y-93764456D01*
X97148830Y-94082936D01*
X96957314Y-94369560D01*
X96713560Y-94613314D01*
X96426936Y-94804830D01*
X96108456Y-94936749D01*
X95939408Y-94970375D01*
X95770361Y-95004000D01*
X95425639Y-95004000D01*
X95256592Y-94970375D01*
X95087544Y-94936749D01*
X94769064Y-94804830D01*
X94482440Y-94613314D01*
X94238686Y-94369560D01*
X94047170Y-94082936D01*
X93915251Y-93764456D01*
X93872852Y-93551300D01*
X93848000Y-93426361D01*
X93848000Y-93081639D01*
X93915251Y-92743545D01*
X93975805Y-92597355D01*
X94047170Y-92425064D01*
X94238686Y-92138440D01*
X94482440Y-91894686D01*
X94769064Y-91703170D01*
X95087544Y-91571251D01*
X95256592Y-91537625D01*
X95425639Y-91504000D01*
X95770361Y-91504000D01*
X95939408Y-91537626D01*
X95939408Y-91537626D01*
G37*
G36*
X147902645Y-94992319D02*
G01*
X146402645Y-94992319D01*
X146402645Y-93592319D01*
X147902645Y-93592319D01*
X147902645Y-94992319D01*
X147902645Y-94992319D01*
G37*
G36*
X208648210Y-92226220D02*
G01*
X208875695Y-92320448D01*
X208875697Y-92320449D01*
X209032264Y-92425064D01*
X209080428Y-92457246D01*
X209254538Y-92631356D01*
X209391336Y-92836089D01*
X209485564Y-93063574D01*
X209533600Y-93305068D01*
X209533600Y-93551300D01*
X209485564Y-93792794D01*
X209391336Y-94020279D01*
X209391335Y-94020281D01*
X209254538Y-94225012D01*
X209080428Y-94399122D01*
X208875697Y-94535919D01*
X208875696Y-94535920D01*
X208875695Y-94535920D01*
X208648210Y-94630148D01*
X208406716Y-94678184D01*
X208160484Y-94678184D01*
X207918990Y-94630148D01*
X207691505Y-94535920D01*
X207691504Y-94535920D01*
X207691503Y-94535919D01*
X207486772Y-94399122D01*
X207312662Y-94225012D01*
X207175865Y-94020281D01*
X207175864Y-94020279D01*
X207081636Y-93792794D01*
X207033600Y-93551300D01*
X207033600Y-93305068D01*
X207081636Y-93063574D01*
X207175864Y-92836089D01*
X207312662Y-92631356D01*
X207486772Y-92457246D01*
X207534936Y-92425064D01*
X207691503Y-92320449D01*
X207691505Y-92320448D01*
X207918990Y-92226220D01*
X208160484Y-92178184D01*
X208406716Y-92178184D01*
X208648210Y-92226220D01*
X208648210Y-92226220D01*
G37*
G36*
X203148210Y-92226220D02*
G01*
X203375695Y-92320448D01*
X203375697Y-92320449D01*
X203532264Y-92425064D01*
X203580428Y-92457246D01*
X203754538Y-92631356D01*
X203891336Y-92836089D01*
X203985564Y-93063574D01*
X204033600Y-93305068D01*
X204033600Y-93551300D01*
X203985564Y-93792794D01*
X203891336Y-94020279D01*
X203891335Y-94020281D01*
X203754538Y-94225012D01*
X203580428Y-94399122D01*
X203375697Y-94535919D01*
X203375696Y-94535920D01*
X203375695Y-94535920D01*
X203148210Y-94630148D01*
X202906716Y-94678184D01*
X202660484Y-94678184D01*
X202418990Y-94630148D01*
X202191505Y-94535920D01*
X202191504Y-94535920D01*
X202191503Y-94535919D01*
X201986772Y-94399122D01*
X201812662Y-94225012D01*
X201675865Y-94020281D01*
X201675864Y-94020279D01*
X201581636Y-93792794D01*
X201533600Y-93551300D01*
X201533600Y-93305068D01*
X201581636Y-93063574D01*
X201675864Y-92836089D01*
X201812662Y-92631356D01*
X201986772Y-92457246D01*
X202034936Y-92425064D01*
X202191503Y-92320449D01*
X202191505Y-92320448D01*
X202418990Y-92226220D01*
X202660484Y-92178184D01*
X202906716Y-92178184D01*
X203148210Y-92226220D01*
X203148210Y-92226220D01*
G37*
G36*
X129778000Y-93960184D02*
G01*
X127778000Y-93960184D01*
X127778000Y-89960184D01*
X129778000Y-89960184D01*
X129778000Y-93960184D01*
X129778000Y-93960184D01*
G37*
G36*
X132318000Y-93960184D02*
G01*
X130318000Y-93960184D01*
X130318000Y-89960184D01*
X132318000Y-89960184D01*
X132318000Y-93960184D01*
X132318000Y-93960184D01*
G37*
G36*
X134858000Y-93960184D02*
G01*
X132858000Y-93960184D01*
X132858000Y-89960184D01*
X134858000Y-89960184D01*
X134858000Y-93960184D01*
X134858000Y-93960184D01*
G37*
G36*
X185281000Y-93682000D02*
G01*
X183781000Y-93682000D01*
X183781000Y-92282000D01*
X185281000Y-92282000D01*
X185281000Y-93682000D01*
X185281000Y-93682000D01*
G37*
G36*
X180201000Y-93682000D02*
G01*
X178701000Y-93682000D01*
X178701000Y-92282000D01*
X180201000Y-92282000D01*
X180201000Y-93682000D01*
X180201000Y-93682000D01*
G37*
G36*
X175121000Y-93682000D02*
G01*
X173621000Y-93682000D01*
X173621000Y-92282000D01*
X175121000Y-92282000D01*
X175121000Y-93682000D01*
X175121000Y-93682000D01*
G37*
G36*
X137148000Y-93230184D02*
G01*
X135648000Y-93230184D01*
X135648000Y-91830184D01*
X137148000Y-91830184D01*
X137148000Y-93230184D01*
X137148000Y-93230184D01*
G37*
G36*
X195822000Y-93103184D02*
G01*
X194322000Y-93103184D01*
X194322000Y-91703184D01*
X195822000Y-91703184D01*
X195822000Y-93103184D01*
X195822000Y-93103184D01*
G37*
G36*
X161263980Y-92926638D02*
G01*
X159863980Y-92926638D01*
X159863980Y-91426638D01*
X161263980Y-91426638D01*
X161263980Y-92926638D01*
X161263980Y-92926638D01*
G37*
G36*
X159213980Y-92926638D02*
G01*
X157813980Y-92926638D01*
X157813980Y-91426638D01*
X159213980Y-91426638D01*
X159213980Y-92926638D01*
X159213980Y-92926638D01*
G37*
G36*
X164707000Y-92468184D02*
G01*
X163207000Y-92468184D01*
X163207000Y-91068184D01*
X164707000Y-91068184D01*
X164707000Y-92468184D01*
X164707000Y-92468184D01*
G37*
G36*
X153567645Y-92012319D02*
G01*
X152167645Y-92012319D01*
X152167645Y-90512319D01*
X153567645Y-90512319D01*
X153567645Y-92012319D01*
X153567645Y-92012319D01*
G37*
G36*
X151517645Y-92012319D02*
G01*
X150117645Y-92012319D01*
X150117645Y-90512319D01*
X151517645Y-90512319D01*
X151517645Y-92012319D01*
X151517645Y-92012319D01*
G37*
G36*
X185281000Y-91632000D02*
G01*
X183781000Y-91632000D01*
X183781000Y-90232000D01*
X185281000Y-90232000D01*
X185281000Y-91632000D01*
X185281000Y-91632000D01*
G37*
G36*
X180201000Y-91632000D02*
G01*
X178701000Y-91632000D01*
X178701000Y-90232000D01*
X180201000Y-90232000D01*
X180201000Y-91632000D01*
X180201000Y-91632000D01*
G37*
G36*
X175121000Y-91632000D02*
G01*
X173621000Y-91632000D01*
X173621000Y-90232000D01*
X175121000Y-90232000D01*
X175121000Y-91632000D01*
X175121000Y-91632000D01*
G37*
G36*
X141652000Y-91248184D02*
G01*
X140252000Y-91248184D01*
X140252000Y-89748184D01*
X141652000Y-89748184D01*
X141652000Y-91248184D01*
X141652000Y-91248184D01*
G37*
G36*
X143702000Y-91248184D02*
G01*
X142302000Y-91248184D01*
X142302000Y-89748184D01*
X143702000Y-89748184D01*
X143702000Y-91248184D01*
X143702000Y-91248184D01*
G37*
G36*
X137148000Y-91180184D02*
G01*
X135648000Y-91180184D01*
X135648000Y-89780184D01*
X137148000Y-89780184D01*
X137148000Y-91180184D01*
X137148000Y-91180184D01*
G37*
G36*
X196577000Y-90678184D02*
G01*
X195177000Y-90678184D01*
X195177000Y-89678184D01*
X196577000Y-89678184D01*
X196577000Y-90678184D01*
X196577000Y-90678184D01*
G37*
G36*
X213602000Y-90563184D02*
G01*
X212102000Y-90563184D01*
X212102000Y-89163184D01*
X213602000Y-89163184D01*
X213602000Y-90563184D01*
X213602000Y-90563184D01*
G37*
G36*
X192541554Y-90480212D02*
G01*
X191041554Y-90480212D01*
X191041554Y-89080212D01*
X192541554Y-89080212D01*
X192541554Y-90480212D01*
X192541554Y-90480212D01*
G37*
G36*
X190107000Y-90480212D02*
G01*
X188607000Y-90480212D01*
X188607000Y-89080212D01*
X190107000Y-89080212D01*
X190107000Y-90480212D01*
X190107000Y-90480212D01*
G37*
G36*
X208648210Y-88026220D02*
G01*
X208875695Y-88120448D01*
X208875697Y-88120449D01*
X209080428Y-88257246D01*
X209254538Y-88431356D01*
X209391336Y-88636089D01*
X209485564Y-88863574D01*
X209533600Y-89105068D01*
X209533600Y-89351300D01*
X209485564Y-89592794D01*
X209450194Y-89678184D01*
X209391335Y-89820281D01*
X209254538Y-90025012D01*
X209080428Y-90199122D01*
X208875697Y-90335919D01*
X208875696Y-90335920D01*
X208875695Y-90335920D01*
X208648210Y-90430148D01*
X208406716Y-90478184D01*
X208160484Y-90478184D01*
X207918990Y-90430148D01*
X207691505Y-90335920D01*
X207691504Y-90335920D01*
X207691503Y-90335919D01*
X207486772Y-90199122D01*
X207312662Y-90025012D01*
X207175865Y-89820281D01*
X207117006Y-89678184D01*
X207081636Y-89592794D01*
X207033600Y-89351300D01*
X207033600Y-89105068D01*
X207081636Y-88863574D01*
X207175864Y-88636089D01*
X207312662Y-88431356D01*
X207486772Y-88257246D01*
X207691503Y-88120449D01*
X207691505Y-88120448D01*
X207918990Y-88026220D01*
X208160484Y-87978184D01*
X208406716Y-87978184D01*
X208648210Y-88026220D01*
X208648210Y-88026220D01*
G37*
G36*
X203148210Y-88026220D02*
G01*
X203375695Y-88120448D01*
X203375697Y-88120449D01*
X203580428Y-88257246D01*
X203754538Y-88431356D01*
X203891336Y-88636089D01*
X203985564Y-88863574D01*
X204033600Y-89105068D01*
X204033600Y-89351300D01*
X203985564Y-89592794D01*
X203950194Y-89678184D01*
X203891335Y-89820281D01*
X203754538Y-90025012D01*
X203580428Y-90199122D01*
X203375697Y-90335919D01*
X203375696Y-90335920D01*
X203375695Y-90335920D01*
X203148210Y-90430148D01*
X202906716Y-90478184D01*
X202660484Y-90478184D01*
X202418990Y-90430148D01*
X202191505Y-90335920D01*
X202191504Y-90335920D01*
X202191503Y-90335919D01*
X201986772Y-90199122D01*
X201812662Y-90025012D01*
X201675865Y-89820281D01*
X201617006Y-89678184D01*
X201581636Y-89592794D01*
X201533600Y-89351300D01*
X201533600Y-89105068D01*
X201581636Y-88863574D01*
X201675864Y-88636089D01*
X201812662Y-88431356D01*
X201986772Y-88257246D01*
X202191503Y-88120449D01*
X202191505Y-88120448D01*
X202418990Y-88026220D01*
X202660484Y-87978184D01*
X202906716Y-87978184D01*
X203148210Y-88026220D01*
X203148210Y-88026220D01*
G37*
G36*
X160657267Y-88739196D02*
G01*
X160725154Y-88759790D01*
X160787723Y-88793234D01*
X160842563Y-88838239D01*
X160887568Y-88893079D01*
X160921012Y-88955648D01*
X160941606Y-89023535D01*
X160949164Y-89100278D01*
X160949164Y-90062998D01*
X160941606Y-90139741D01*
X160921012Y-90207628D01*
X160887568Y-90270197D01*
X160842563Y-90325037D01*
X160787723Y-90370042D01*
X160725154Y-90403486D01*
X160657267Y-90424080D01*
X160580524Y-90431638D01*
X158917804Y-90431638D01*
X158841061Y-90424080D01*
X158773174Y-90403486D01*
X158710605Y-90370042D01*
X158655765Y-90325037D01*
X158610760Y-90270197D01*
X158577316Y-90207628D01*
X158556722Y-90139741D01*
X158549164Y-90062998D01*
X158549164Y-89100278D01*
X158556722Y-89023535D01*
X158577316Y-88955648D01*
X158610760Y-88893079D01*
X158655765Y-88838239D01*
X158710605Y-88793234D01*
X158773174Y-88759790D01*
X158841061Y-88739196D01*
X158917804Y-88731638D01*
X160580524Y-88731638D01*
X160657267Y-88739196D01*
X160657267Y-88739196D01*
G37*
G36*
X164707000Y-90418184D02*
G01*
X163207000Y-90418184D01*
X163207000Y-89018184D01*
X164707000Y-89018184D01*
X164707000Y-90418184D01*
X164707000Y-90418184D01*
G37*
G36*
X198777000Y-89728184D02*
G01*
X197377000Y-89728184D01*
X197377000Y-88728184D01*
X198777000Y-88728184D01*
X198777000Y-89728184D01*
X198777000Y-89728184D01*
G37*
G36*
X131782000Y-89470184D02*
G01*
X130382000Y-89470184D01*
X130382000Y-87970184D01*
X131782000Y-87970184D01*
X131782000Y-89470184D01*
X131782000Y-89470184D01*
G37*
G36*
X129732000Y-89470184D02*
G01*
X128332000Y-89470184D01*
X128332000Y-87970184D01*
X129732000Y-87970184D01*
X129732000Y-89470184D01*
X129732000Y-89470184D01*
G37*
G36*
X101937000Y-88962184D02*
G01*
X100537000Y-88962184D01*
X100537000Y-87462184D01*
X101937000Y-87462184D01*
X101937000Y-88962184D01*
X101937000Y-88962184D01*
G37*
G36*
X99887000Y-88962184D02*
G01*
X98487000Y-88962184D01*
X98487000Y-87462184D01*
X99887000Y-87462184D01*
X99887000Y-88962184D01*
X99887000Y-88962184D01*
G37*
G36*
X196577000Y-88778184D02*
G01*
X195177000Y-88778184D01*
X195177000Y-87778184D01*
X196577000Y-87778184D01*
X196577000Y-88778184D01*
X196577000Y-88778184D01*
G37*
G36*
X153372000Y-88708184D02*
G01*
X151972000Y-88708184D01*
X151972000Y-87208184D01*
X153372000Y-87208184D01*
X153372000Y-88708184D01*
X153372000Y-88708184D01*
G37*
G36*
X151322000Y-88708184D02*
G01*
X149922000Y-88708184D01*
X149922000Y-87208184D01*
X151322000Y-87208184D01*
X151322000Y-88708184D01*
X151322000Y-88708184D01*
G37*
G36*
X143847000Y-88708184D02*
G01*
X142447000Y-88708184D01*
X142447000Y-87208184D01*
X143847000Y-87208184D01*
X143847000Y-88708184D01*
X143847000Y-88708184D01*
G37*
G36*
X141797000Y-88708184D02*
G01*
X140397000Y-88708184D01*
X140397000Y-87208184D01*
X141797000Y-87208184D01*
X141797000Y-88708184D01*
X141797000Y-88708184D01*
G37*
G36*
X157087000Y-88658184D02*
G01*
X155587000Y-88658184D01*
X155587000Y-87258184D01*
X157087000Y-87258184D01*
X157087000Y-88658184D01*
X157087000Y-88658184D01*
G37*
G36*
X213602000Y-88513184D02*
G01*
X212102000Y-88513184D01*
X212102000Y-87113184D01*
X213602000Y-87113184D01*
X213602000Y-88513184D01*
X213602000Y-88513184D01*
G37*
G36*
X192541554Y-88430212D02*
G01*
X191041554Y-88430212D01*
X191041554Y-87030212D01*
X192541554Y-87030212D01*
X192541554Y-88430212D01*
X192541554Y-88430212D01*
G37*
G36*
X190107000Y-88430212D02*
G01*
X188607000Y-88430212D01*
X188607000Y-87030212D01*
X190107000Y-87030212D01*
X190107000Y-88430212D01*
X190107000Y-88430212D01*
G37*
G36*
X125432000Y-88380000D02*
G01*
X124032000Y-88380000D01*
X124032000Y-86880000D01*
X125432000Y-86880000D01*
X125432000Y-88380000D01*
X125432000Y-88380000D01*
G37*
G36*
X123382000Y-88380000D02*
G01*
X121982000Y-88380000D01*
X121982000Y-86880000D01*
X123382000Y-86880000D01*
X123382000Y-88380000D01*
X123382000Y-88380000D01*
G37*
G36*
X216095223Y-83341589D02*
G01*
X216413874Y-83473578D01*
X216414431Y-83473809D01*
X216701710Y-83665763D01*
X216946021Y-83910074D01*
X217044358Y-84057246D01*
X217137976Y-84197355D01*
X217270195Y-84516561D01*
X217337600Y-84855429D01*
X217337600Y-85200939D01*
X217270195Y-85539807D01*
X217152060Y-85825012D01*
X217137975Y-85859015D01*
X216946021Y-86146294D01*
X216701710Y-86390605D01*
X216414431Y-86582559D01*
X216414430Y-86582560D01*
X216414429Y-86582560D01*
X216095223Y-86714779D01*
X215756355Y-86782184D01*
X215410845Y-86782184D01*
X215071977Y-86714779D01*
X214752771Y-86582560D01*
X214752770Y-86582560D01*
X214752769Y-86582559D01*
X214465490Y-86390605D01*
X214221179Y-86146294D01*
X214029225Y-85859015D01*
X214015141Y-85825012D01*
X213897005Y-85539807D01*
X213829600Y-85200939D01*
X213829600Y-84855429D01*
X213897005Y-84516561D01*
X214029224Y-84197355D01*
X214122842Y-84057246D01*
X214221179Y-83910074D01*
X214465490Y-83665763D01*
X214752769Y-83473809D01*
X214753327Y-83473578D01*
X215071977Y-83341589D01*
X215410845Y-83274184D01*
X215756355Y-83274184D01*
X216095223Y-83341589D01*
X216095223Y-83341589D01*
G37*
G36*
X195822000Y-86753184D02*
G01*
X194322000Y-86753184D01*
X194322000Y-85353184D01*
X195822000Y-85353184D01*
X195822000Y-86753184D01*
X195822000Y-86753184D01*
G37*
G36*
X160657267Y-85039196D02*
G01*
X160725154Y-85059790D01*
X160787723Y-85093234D01*
X160842563Y-85138239D01*
X160887568Y-85193079D01*
X160921012Y-85255648D01*
X160941606Y-85323535D01*
X160949164Y-85400278D01*
X160949164Y-86362998D01*
X160941606Y-86439741D01*
X160921012Y-86507628D01*
X160887568Y-86570197D01*
X160842563Y-86625037D01*
X160787723Y-86670042D01*
X160725154Y-86703486D01*
X160657267Y-86724080D01*
X160580524Y-86731638D01*
X158917804Y-86731638D01*
X158841061Y-86724080D01*
X158773174Y-86703486D01*
X158710605Y-86670042D01*
X158655765Y-86625037D01*
X158610760Y-86570197D01*
X158577316Y-86507628D01*
X158556722Y-86439741D01*
X158549164Y-86362998D01*
X158549164Y-85400278D01*
X158556722Y-85323535D01*
X158577316Y-85255648D01*
X158610760Y-85193079D01*
X158655765Y-85138239D01*
X158710605Y-85093234D01*
X158773174Y-85059790D01*
X158841061Y-85039196D01*
X158917804Y-85031638D01*
X160580524Y-85031638D01*
X160657267Y-85039196D01*
X160657267Y-85039196D01*
G37*
G36*
X157087000Y-86608184D02*
G01*
X155587000Y-86608184D01*
X155587000Y-85208184D01*
X157087000Y-85208184D01*
X157087000Y-86608184D01*
X157087000Y-86608184D01*
G37*
G36*
X90808623Y-83149405D02*
G01*
X91127831Y-83281625D01*
X91415110Y-83473579D01*
X91659421Y-83717890D01*
X91851375Y-84005169D01*
X91851376Y-84005171D01*
X91983595Y-84324377D01*
X92051000Y-84663245D01*
X92051000Y-85008755D01*
X91983595Y-85347623D01*
X91865460Y-85632828D01*
X91851375Y-85666831D01*
X91659421Y-85954110D01*
X91415110Y-86198421D01*
X91127831Y-86390375D01*
X91127830Y-86390376D01*
X91127829Y-86390376D01*
X90808623Y-86522595D01*
X90469755Y-86590000D01*
X90124245Y-86590000D01*
X89785377Y-86522595D01*
X89466171Y-86390376D01*
X89466170Y-86390376D01*
X89466169Y-86390375D01*
X89178890Y-86198421D01*
X88934579Y-85954110D01*
X88742625Y-85666831D01*
X88728541Y-85632828D01*
X88610405Y-85347623D01*
X88543000Y-85008755D01*
X88543000Y-84663245D01*
X88610405Y-84324377D01*
X88742624Y-84005171D01*
X88742625Y-84005169D01*
X88934579Y-83717890D01*
X89178890Y-83473579D01*
X89466169Y-83281625D01*
X89785377Y-83149405D01*
X90124245Y-83082000D01*
X90469755Y-83082000D01*
X90808623Y-83149405D01*
X90808623Y-83149405D01*
G37*
G36*
X203148210Y-83826220D02*
G01*
X203375695Y-83920448D01*
X203375697Y-83920449D01*
X203502489Y-84005169D01*
X203580428Y-84057246D01*
X203754538Y-84231356D01*
X203891336Y-84436089D01*
X203985564Y-84663574D01*
X204033600Y-84905068D01*
X204033600Y-85151300D01*
X203985564Y-85392794D01*
X203891336Y-85620279D01*
X203891335Y-85620281D01*
X203754538Y-85825012D01*
X203580428Y-85999122D01*
X203375697Y-86135919D01*
X203375696Y-86135920D01*
X203375695Y-86135920D01*
X203148210Y-86230148D01*
X202906716Y-86278184D01*
X202660484Y-86278184D01*
X202418990Y-86230148D01*
X202191505Y-86135920D01*
X202191504Y-86135920D01*
X202191503Y-86135919D01*
X201986772Y-85999122D01*
X201812662Y-85825012D01*
X201675865Y-85620281D01*
X201675864Y-85620279D01*
X201581636Y-85392794D01*
X201533600Y-85151300D01*
X201533600Y-84905068D01*
X201581636Y-84663574D01*
X201675864Y-84436089D01*
X201812662Y-84231356D01*
X201986772Y-84057246D01*
X202064711Y-84005169D01*
X202191503Y-83920449D01*
X202191505Y-83920448D01*
X202418990Y-83826220D01*
X202660484Y-83778184D01*
X202906716Y-83778184D01*
X203148210Y-83826220D01*
X203148210Y-83826220D01*
G37*
G36*
X209533600Y-86278184D02*
G01*
X207033600Y-86278184D01*
X207033600Y-83778184D01*
X209533600Y-83778184D01*
X209533600Y-86278184D01*
X209533600Y-86278184D01*
G37*
G36*
X190742000Y-86263184D02*
G01*
X189242000Y-86263184D01*
X189242000Y-84863184D01*
X190742000Y-84863184D01*
X190742000Y-86263184D01*
X190742000Y-86263184D01*
G37*
G36*
X186247000Y-86168184D02*
G01*
X184847000Y-86168184D01*
X184847000Y-84668184D01*
X186247000Y-84668184D01*
X186247000Y-86168184D01*
X186247000Y-86168184D01*
G37*
G36*
X188297000Y-86168184D02*
G01*
X186897000Y-86168184D01*
X186897000Y-84668184D01*
X188297000Y-84668184D01*
X188297000Y-86168184D01*
X188297000Y-86168184D01*
G37*
G36*
X98847000Y-86086000D02*
G01*
X96347000Y-86086000D01*
X96347000Y-83586000D01*
X98847000Y-83586000D01*
X98847000Y-86086000D01*
X98847000Y-86086000D01*
G37*
G36*
X103461610Y-83634036D02*
G01*
X103689095Y-83728264D01*
X103689097Y-83728265D01*
X103893828Y-83865062D01*
X104067938Y-84039172D01*
X104173633Y-84197355D01*
X104204736Y-84243905D01*
X104298964Y-84471390D01*
X104347000Y-84712884D01*
X104347000Y-84959116D01*
X104298964Y-85200610D01*
X104235765Y-85353184D01*
X104204735Y-85428097D01*
X104067938Y-85632828D01*
X103893828Y-85806938D01*
X103689097Y-85943735D01*
X103689096Y-85943736D01*
X103689095Y-85943736D01*
X103461610Y-86037964D01*
X103220116Y-86086000D01*
X102973884Y-86086000D01*
X102732390Y-86037964D01*
X102504905Y-85943736D01*
X102504904Y-85943736D01*
X102504903Y-85943735D01*
X102300172Y-85806938D01*
X102126062Y-85632828D01*
X101989265Y-85428097D01*
X101958235Y-85353184D01*
X101895036Y-85200610D01*
X101847000Y-84959116D01*
X101847000Y-84712884D01*
X101895036Y-84471390D01*
X101989264Y-84243905D01*
X102020368Y-84197355D01*
X102126062Y-84039172D01*
X102300172Y-83865062D01*
X102504903Y-83728265D01*
X102504905Y-83728264D01*
X102732390Y-83634036D01*
X102973884Y-83586000D01*
X103220116Y-83586000D01*
X103461610Y-83634036D01*
X103461610Y-83634036D01*
G37*
G36*
X114791610Y-83634036D02*
G01*
X115019095Y-83728264D01*
X115019097Y-83728265D01*
X115223828Y-83865062D01*
X115397938Y-84039172D01*
X115503633Y-84197355D01*
X115534736Y-84243905D01*
X115628964Y-84471390D01*
X115677000Y-84712884D01*
X115677000Y-84959116D01*
X115628964Y-85200610D01*
X115565765Y-85353184D01*
X115534735Y-85428097D01*
X115397938Y-85632828D01*
X115223828Y-85806938D01*
X115019097Y-85943735D01*
X115019096Y-85943736D01*
X115019095Y-85943736D01*
X114791610Y-86037964D01*
X114550116Y-86086000D01*
X114303884Y-86086000D01*
X114062390Y-86037964D01*
X113834905Y-85943736D01*
X113834904Y-85943736D01*
X113834903Y-85943735D01*
X113630172Y-85806938D01*
X113456062Y-85632828D01*
X113319265Y-85428097D01*
X113288235Y-85353184D01*
X113225036Y-85200610D01*
X113177000Y-84959116D01*
X113177000Y-84712884D01*
X113225036Y-84471390D01*
X113319264Y-84243905D01*
X113350368Y-84197355D01*
X113456062Y-84039172D01*
X113630172Y-83865062D01*
X113834903Y-83728265D01*
X113834905Y-83728264D01*
X114062390Y-83634036D01*
X114303884Y-83586000D01*
X114550116Y-83586000D01*
X114791610Y-83634036D01*
X114791610Y-83634036D01*
G37*
G36*
X109711610Y-83634036D02*
G01*
X109939095Y-83728264D01*
X109939097Y-83728265D01*
X110143828Y-83865062D01*
X110317938Y-84039172D01*
X110423633Y-84197355D01*
X110454736Y-84243905D01*
X110548964Y-84471390D01*
X110597000Y-84712884D01*
X110597000Y-84959116D01*
X110548964Y-85200610D01*
X110485765Y-85353184D01*
X110454735Y-85428097D01*
X110317938Y-85632828D01*
X110143828Y-85806938D01*
X109939097Y-85943735D01*
X109939096Y-85943736D01*
X109939095Y-85943736D01*
X109711610Y-86037964D01*
X109470116Y-86086000D01*
X109223884Y-86086000D01*
X108982390Y-86037964D01*
X108754905Y-85943736D01*
X108754904Y-85943736D01*
X108754903Y-85943735D01*
X108550172Y-85806938D01*
X108376062Y-85632828D01*
X108239265Y-85428097D01*
X108208235Y-85353184D01*
X108145036Y-85200610D01*
X108097000Y-84959116D01*
X108097000Y-84712884D01*
X108145036Y-84471390D01*
X108239264Y-84243905D01*
X108270368Y-84197355D01*
X108376062Y-84039172D01*
X108550172Y-83865062D01*
X108754903Y-83728265D01*
X108754905Y-83728264D01*
X108982390Y-83634036D01*
X109223884Y-83586000D01*
X109470116Y-83586000D01*
X109711610Y-83634036D01*
X109711610Y-83634036D01*
G37*
G36*
X125337000Y-85808000D02*
G01*
X123837000Y-85808000D01*
X123837000Y-84408000D01*
X125337000Y-84408000D01*
X125337000Y-85808000D01*
X125337000Y-85808000D01*
G37*
G36*
X195822000Y-84703184D02*
G01*
X194322000Y-84703184D01*
X194322000Y-83303184D01*
X195822000Y-83303184D01*
X195822000Y-84703184D01*
X195822000Y-84703184D01*
G37*
G36*
X190742000Y-84213184D02*
G01*
X189242000Y-84213184D01*
X189242000Y-82813184D01*
X190742000Y-82813184D01*
X190742000Y-84213184D01*
X190742000Y-84213184D01*
G37*
G36*
X161408980Y-84036638D02*
G01*
X160008980Y-84036638D01*
X160008980Y-82536638D01*
X161408980Y-82536638D01*
X161408980Y-84036638D01*
X161408980Y-84036638D01*
G37*
G36*
X159358980Y-84036638D02*
G01*
X157958980Y-84036638D01*
X157958980Y-82536638D01*
X159358980Y-82536638D01*
X159358980Y-84036638D01*
X159358980Y-84036638D01*
G37*
G36*
X125337000Y-83758000D02*
G01*
X123837000Y-83758000D01*
X123837000Y-82358000D01*
X125337000Y-82358000D01*
X125337000Y-83758000D01*
X125337000Y-83758000D01*
G37*
G36*
X157258966Y-83158111D02*
G01*
X155758966Y-83158111D01*
X155758966Y-81758111D01*
X157258966Y-81758111D01*
X157258966Y-83158111D01*
X157258966Y-83158111D01*
G37*
G36*
X155182000Y-83088184D02*
G01*
X153682000Y-83088184D01*
X153682000Y-81688184D01*
X155182000Y-81688184D01*
X155182000Y-83088184D01*
X155182000Y-83088184D01*
G37*
G36*
X207862000Y-82558184D02*
G01*
X206262000Y-82558184D01*
X206262000Y-80658184D01*
X207862000Y-80658184D01*
X207862000Y-82558184D01*
X207862000Y-82558184D01*
G37*
G36*
X204762000Y-82558184D02*
G01*
X203162000Y-82558184D01*
X203162000Y-80658184D01*
X204762000Y-80658184D01*
X204762000Y-82558184D01*
X204762000Y-82558184D01*
G37*
G36*
X157258966Y-81108111D02*
G01*
X155758966Y-81108111D01*
X155758966Y-79708111D01*
X157258966Y-79708111D01*
X157258966Y-81108111D01*
X157258966Y-81108111D01*
G37*
G36*
X155182000Y-81038184D02*
G01*
X153682000Y-81038184D01*
X153682000Y-79638184D01*
X155182000Y-79638184D01*
X155182000Y-81038184D01*
X155182000Y-81038184D01*
G37*
G36*
X108052000Y-80943000D02*
G01*
X101752000Y-80943000D01*
X101752000Y-78743000D01*
X108052000Y-78743000D01*
X108052000Y-80943000D01*
X108052000Y-80943000D01*
G37*
G36*
X98472000Y-80633000D02*
G01*
X97072000Y-80633000D01*
X97072000Y-79133000D01*
X98472000Y-79133000D01*
X98472000Y-80633000D01*
X98472000Y-80633000D01*
G37*
G36*
X100522000Y-80633000D02*
G01*
X99122000Y-80633000D01*
X99122000Y-79133000D01*
X100522000Y-79133000D01*
X100522000Y-80633000D01*
X100522000Y-80633000D01*
G37*
G36*
X204712000Y-79133184D02*
G01*
X203212000Y-79133184D01*
X203212000Y-77733184D01*
X204712000Y-77733184D01*
X204712000Y-79133184D01*
X204712000Y-79133184D01*
G37*
G36*
X169152000Y-78678000D02*
G01*
X167652000Y-78678000D01*
X167652000Y-77278000D01*
X169152000Y-77278000D01*
X169152000Y-78678000D01*
X169152000Y-78678000D01*
G37*
G36*
X178042000Y-78678000D02*
G01*
X176542000Y-78678000D01*
X176542000Y-77278000D01*
X178042000Y-77278000D01*
X178042000Y-78678000D01*
X178042000Y-78678000D01*
G37*
G36*
X186932000Y-78678000D02*
G01*
X185432000Y-78678000D01*
X185432000Y-77278000D01*
X186932000Y-77278000D01*
X186932000Y-78678000D01*
X186932000Y-78678000D01*
G37*
G36*
X195822000Y-78678000D02*
G01*
X194322000Y-78678000D01*
X194322000Y-77278000D01*
X195822000Y-77278000D01*
X195822000Y-78678000D01*
X195822000Y-78678000D01*
G37*
G36*
X145063317Y-78093000D02*
G01*
X143663317Y-78093000D01*
X143663317Y-76593000D01*
X145063317Y-76593000D01*
X145063317Y-78093000D01*
X145063317Y-78093000D01*
G37*
G36*
X114958431Y-78093000D02*
G01*
X113558431Y-78093000D01*
X113558431Y-76593000D01*
X114958431Y-76593000D01*
X114958431Y-78093000D01*
X114958431Y-78093000D01*
G37*
G36*
X112908431Y-78093000D02*
G01*
X111508431Y-78093000D01*
X111508431Y-76593000D01*
X112908431Y-76593000D01*
X112908431Y-78093000D01*
X112908431Y-78093000D01*
G37*
G36*
X143013317Y-78093000D02*
G01*
X141613317Y-78093000D01*
X141613317Y-76593000D01*
X143013317Y-76593000D01*
X143013317Y-78093000D01*
X143013317Y-78093000D01*
G37*
G36*
X149467000Y-77673098D02*
G01*
X147967000Y-77673098D01*
X147967000Y-76273098D01*
X149467000Y-76273098D01*
X149467000Y-77673098D01*
X149467000Y-77673098D01*
G37*
G36*
X147077744Y-77668098D02*
G01*
X145577744Y-77668098D01*
X145577744Y-76268098D01*
X147077744Y-76268098D01*
X147077744Y-77668098D01*
X147077744Y-77668098D01*
G37*
G36*
X100572000Y-77553000D02*
G01*
X99072000Y-77553000D01*
X99072000Y-76153000D01*
X100572000Y-76153000D01*
X100572000Y-77553000D01*
X100572000Y-77553000D01*
G37*
G36*
X119696094Y-77127967D02*
G01*
X118196094Y-77127967D01*
X118196094Y-75727967D01*
X119696094Y-75727967D01*
X119696094Y-77127967D01*
X119696094Y-77127967D01*
G37*
G36*
X117400023Y-77127967D02*
G01*
X115900023Y-77127967D01*
X115900023Y-75727967D01*
X117400023Y-75727967D01*
X117400023Y-77127967D01*
X117400023Y-77127967D01*
G37*
G36*
X204712000Y-77083184D02*
G01*
X203212000Y-77083184D01*
X203212000Y-75683184D01*
X204712000Y-75683184D01*
X204712000Y-77083184D01*
X204712000Y-77083184D01*
G37*
G36*
X162802000Y-76918000D02*
G01*
X161302000Y-76918000D01*
X161302000Y-75518000D01*
X162802000Y-75518000D01*
X162802000Y-76918000D01*
X162802000Y-76918000D01*
G37*
G36*
X132957000Y-76918000D02*
G01*
X131457000Y-76918000D01*
X131457000Y-75518000D01*
X132957000Y-75518000D01*
X132957000Y-76918000D01*
X132957000Y-76918000D01*
G37*
G36*
X130197000Y-76888000D02*
G01*
X128797000Y-76888000D01*
X128797000Y-75888000D01*
X130197000Y-75888000D01*
X130197000Y-76888000D01*
X130197000Y-76888000D01*
G37*
G36*
X160042000Y-76636817D02*
G01*
X158642000Y-76636817D01*
X158642000Y-75636817D01*
X160042000Y-75636817D01*
X160042000Y-76636817D01*
X160042000Y-76636817D01*
G37*
G36*
X195822000Y-76628000D02*
G01*
X194322000Y-76628000D01*
X194322000Y-75228000D01*
X195822000Y-75228000D01*
X195822000Y-76628000D01*
X195822000Y-76628000D01*
G37*
G36*
X186932000Y-76628000D02*
G01*
X185432000Y-76628000D01*
X185432000Y-75228000D01*
X186932000Y-75228000D01*
X186932000Y-76628000D01*
X186932000Y-76628000D01*
G37*
G36*
X178042000Y-76628000D02*
G01*
X176542000Y-76628000D01*
X176542000Y-75228000D01*
X178042000Y-75228000D01*
X178042000Y-76628000D01*
X178042000Y-76628000D01*
G37*
G36*
X169152000Y-76628000D02*
G01*
X167652000Y-76628000D01*
X167652000Y-75228000D01*
X169152000Y-75228000D01*
X169152000Y-76628000D01*
X169152000Y-76628000D01*
G37*
G36*
X108052000Y-75943000D02*
G01*
X101752000Y-75943000D01*
X101752000Y-73743000D01*
X108052000Y-73743000D01*
X108052000Y-75943000D01*
X108052000Y-75943000D01*
G37*
G36*
X127997000Y-75938000D02*
G01*
X126597000Y-75938000D01*
X126597000Y-74938000D01*
X127997000Y-74938000D01*
X127997000Y-75938000D01*
X127997000Y-75938000D01*
G37*
G36*
X112908431Y-75796929D02*
G01*
X111508431Y-75796929D01*
X111508431Y-74296929D01*
X112908431Y-74296929D01*
X112908431Y-75796929D01*
X112908431Y-75796929D01*
G37*
G36*
X114958431Y-75796929D02*
G01*
X113558431Y-75796929D01*
X113558431Y-74296929D01*
X114958431Y-74296929D01*
X114958431Y-75796929D01*
X114958431Y-75796929D01*
G37*
G36*
X145063317Y-75704153D02*
G01*
X143663317Y-75704153D01*
X143663317Y-74204153D01*
X145063317Y-74204153D01*
X145063317Y-75704153D01*
X145063317Y-75704153D01*
G37*
G36*
X143013317Y-75704153D02*
G01*
X141613317Y-75704153D01*
X141613317Y-74204153D01*
X143013317Y-74204153D01*
X143013317Y-75704153D01*
X143013317Y-75704153D01*
G37*
G36*
X157842000Y-75686817D02*
G01*
X156442000Y-75686817D01*
X156442000Y-74686817D01*
X157842000Y-74686817D01*
X157842000Y-75686817D01*
X157842000Y-75686817D01*
G37*
G36*
X149467000Y-75623098D02*
G01*
X147967000Y-75623098D01*
X147967000Y-74223098D01*
X149467000Y-74223098D01*
X149467000Y-75623098D01*
X149467000Y-75623098D01*
G37*
G36*
X147077744Y-75618098D02*
G01*
X145577744Y-75618098D01*
X145577744Y-74218098D01*
X147077744Y-74218098D01*
X147077744Y-75618098D01*
X147077744Y-75618098D01*
G37*
G36*
X100572000Y-75503000D02*
G01*
X99072000Y-75503000D01*
X99072000Y-74103000D01*
X100572000Y-74103000D01*
X100572000Y-75503000D01*
X100572000Y-75503000D01*
G37*
G36*
X95019834Y-73252103D02*
G01*
X95193176Y-73323904D01*
X95193178Y-73323905D01*
X95349184Y-73428145D01*
X95481855Y-73560816D01*
X95543789Y-73653507D01*
X95586096Y-73716824D01*
X95657897Y-73890166D01*
X95694500Y-74074186D01*
X95694500Y-74261814D01*
X95657897Y-74445834D01*
X95586096Y-74619176D01*
X95586095Y-74619178D01*
X95481855Y-74775184D01*
X95349184Y-74907855D01*
X95193178Y-75012095D01*
X95193177Y-75012096D01*
X95193176Y-75012096D01*
X95019834Y-75083897D01*
X94835814Y-75120500D01*
X94648186Y-75120500D01*
X94464166Y-75083897D01*
X94290824Y-75012096D01*
X94290823Y-75012096D01*
X94290822Y-75012095D01*
X94134816Y-74907855D01*
X94002145Y-74775184D01*
X93897905Y-74619178D01*
X93897904Y-74619176D01*
X93826103Y-74445834D01*
X93789500Y-74261814D01*
X93789500Y-74074186D01*
X93826103Y-73890166D01*
X93897904Y-73716824D01*
X93940211Y-73653507D01*
X94002145Y-73560816D01*
X94134816Y-73428145D01*
X94290822Y-73323905D01*
X94290824Y-73323904D01*
X94464166Y-73252103D01*
X94648186Y-73215500D01*
X94835814Y-73215500D01*
X95019834Y-73252103D01*
X95019834Y-73252103D01*
G37*
G36*
X117400023Y-75077967D02*
G01*
X115900023Y-75077967D01*
X115900023Y-73677967D01*
X117400023Y-73677967D01*
X117400023Y-75077967D01*
X117400023Y-75077967D01*
G37*
G36*
X119696094Y-75077967D02*
G01*
X118196094Y-75077967D01*
X118196094Y-73677967D01*
X119696094Y-73677967D01*
X119696094Y-75077967D01*
X119696094Y-75077967D01*
G37*
G36*
X130197000Y-74988000D02*
G01*
X128797000Y-74988000D01*
X128797000Y-73988000D01*
X130197000Y-73988000D01*
X130197000Y-74988000D01*
X130197000Y-74988000D01*
G37*
G36*
X162802000Y-74868000D02*
G01*
X161302000Y-74868000D01*
X161302000Y-73468000D01*
X162802000Y-73468000D01*
X162802000Y-74868000D01*
X162802000Y-74868000D01*
G37*
G36*
X132957000Y-74868000D02*
G01*
X131457000Y-74868000D01*
X131457000Y-73468000D01*
X132957000Y-73468000D01*
X132957000Y-74868000D01*
X132957000Y-74868000D01*
G37*
G36*
X160042000Y-74736817D02*
G01*
X158642000Y-74736817D01*
X158642000Y-73736817D01*
X160042000Y-73736817D01*
X160042000Y-74736817D01*
X160042000Y-74736817D01*
G37*
G36*
X87285525Y-73075905D02*
G01*
X87366494Y-73092011D01*
X87405094Y-73108000D01*
X87519038Y-73155197D01*
X87609288Y-73215500D01*
X87656322Y-73246927D01*
X87773073Y-73363678D01*
X87773075Y-73363681D01*
X87864803Y-73500962D01*
X87864803Y-73500963D01*
X87927989Y-73653506D01*
X87940583Y-73716822D01*
X87960200Y-73815443D01*
X87960200Y-73980557D01*
X87927989Y-74142493D01*
X87864803Y-74295038D01*
X87773691Y-74431397D01*
X87773073Y-74432322D01*
X87656322Y-74549073D01*
X87656319Y-74549075D01*
X87519038Y-74640803D01*
X87442765Y-74672396D01*
X87366494Y-74703989D01*
X87285525Y-74720094D01*
X87204557Y-74736200D01*
X87039443Y-74736200D01*
X86958475Y-74720094D01*
X86877506Y-74703989D01*
X86801235Y-74672396D01*
X86724962Y-74640803D01*
X86587681Y-74549075D01*
X86587678Y-74549073D01*
X86470927Y-74432322D01*
X86470309Y-74431397D01*
X86379197Y-74295038D01*
X86316011Y-74142493D01*
X86283800Y-73980557D01*
X86283800Y-73815443D01*
X86303417Y-73716822D01*
X86316011Y-73653506D01*
X86379197Y-73500963D01*
X86379197Y-73500962D01*
X86470925Y-73363681D01*
X86470927Y-73363678D01*
X86587678Y-73246927D01*
X86634712Y-73215500D01*
X86724962Y-73155197D01*
X86838906Y-73108000D01*
X86877506Y-73092011D01*
X86958475Y-73075905D01*
X87039443Y-73059800D01*
X87204557Y-73059800D01*
X87285525Y-73075905D01*
X87285525Y-73075905D01*
G37*
G36*
X192012000Y-74378000D02*
G01*
X190512000Y-74378000D01*
X190512000Y-72978000D01*
X192012000Y-72978000D01*
X192012000Y-74378000D01*
X192012000Y-74378000D01*
G37*
G36*
X154547000Y-74378000D02*
G01*
X153047000Y-74378000D01*
X153047000Y-72978000D01*
X154547000Y-72978000D01*
X154547000Y-74378000D01*
X154547000Y-74378000D01*
G37*
G36*
X174232000Y-74378000D02*
G01*
X172732000Y-74378000D01*
X172732000Y-72978000D01*
X174232000Y-72978000D01*
X174232000Y-74378000D01*
X174232000Y-74378000D01*
G37*
G36*
X183122000Y-74378000D02*
G01*
X181622000Y-74378000D01*
X181622000Y-72978000D01*
X183122000Y-72978000D01*
X183122000Y-74378000D01*
X183122000Y-74378000D01*
G37*
G36*
X200902000Y-74378000D02*
G01*
X199402000Y-74378000D01*
X199402000Y-72978000D01*
X200902000Y-72978000D01*
X200902000Y-74378000D01*
X200902000Y-74378000D01*
G37*
G36*
X124702000Y-74378000D02*
G01*
X123202000Y-74378000D01*
X123202000Y-72978000D01*
X124702000Y-72978000D01*
X124702000Y-74378000D01*
X124702000Y-74378000D01*
G37*
G36*
X209792000Y-74198184D02*
G01*
X208292000Y-74198184D01*
X208292000Y-72798184D01*
X209792000Y-72798184D01*
X209792000Y-74198184D01*
X209792000Y-74198184D01*
G37*
G36*
X113272000Y-73108000D02*
G01*
X111772000Y-73108000D01*
X111772000Y-71708000D01*
X113272000Y-71708000D01*
X113272000Y-73108000D01*
X113272000Y-73108000D01*
G37*
G36*
X145657000Y-73108000D02*
G01*
X144157000Y-73108000D01*
X144157000Y-71708000D01*
X145657000Y-71708000D01*
X145657000Y-73108000D01*
X145657000Y-73108000D01*
G37*
G36*
X115812000Y-73108000D02*
G01*
X114312000Y-73108000D01*
X114312000Y-71708000D01*
X115812000Y-71708000D01*
X115812000Y-73108000D01*
X115812000Y-73108000D01*
G37*
G36*
X143117000Y-73108000D02*
G01*
X141617000Y-73108000D01*
X141617000Y-71708000D01*
X143117000Y-71708000D01*
X143117000Y-73108000D01*
X143117000Y-73108000D01*
G37*
G36*
X169272000Y-73078000D02*
G01*
X167872000Y-73078000D01*
X167872000Y-72078000D01*
X169272000Y-72078000D01*
X169272000Y-73078000D01*
X169272000Y-73078000D01*
G37*
G36*
X178162000Y-73078000D02*
G01*
X176762000Y-73078000D01*
X176762000Y-72078000D01*
X178162000Y-72078000D01*
X178162000Y-73078000D01*
X178162000Y-73078000D01*
G37*
G36*
X187052000Y-73078000D02*
G01*
X185652000Y-73078000D01*
X185652000Y-72078000D01*
X187052000Y-72078000D01*
X187052000Y-73078000D01*
X187052000Y-73078000D01*
G37*
G36*
X195942000Y-73078000D02*
G01*
X194542000Y-73078000D01*
X194542000Y-72078000D01*
X195942000Y-72078000D01*
X195942000Y-73078000D01*
X195942000Y-73078000D01*
G37*
G36*
X204832000Y-72898184D02*
G01*
X203432000Y-72898184D01*
X203432000Y-71898184D01*
X204832000Y-71898184D01*
X204832000Y-72898184D01*
X204832000Y-72898184D01*
G37*
G36*
X87285525Y-71075905D02*
G01*
X87366494Y-71092011D01*
X87519038Y-71155197D01*
X87655397Y-71246309D01*
X87656322Y-71246927D01*
X87773073Y-71363678D01*
X87773075Y-71363681D01*
X87864803Y-71500962D01*
X87927989Y-71653507D01*
X87960200Y-71815443D01*
X87960200Y-71980557D01*
X87927989Y-72142493D01*
X87864803Y-72295038D01*
X87783191Y-72417179D01*
X87773073Y-72432322D01*
X87656322Y-72549073D01*
X87656319Y-72549075D01*
X87519038Y-72640803D01*
X87366494Y-72703989D01*
X87285525Y-72720094D01*
X87204557Y-72736200D01*
X87039443Y-72736200D01*
X86958475Y-72720094D01*
X86877506Y-72703989D01*
X86724962Y-72640803D01*
X86587681Y-72549075D01*
X86587678Y-72549073D01*
X86470927Y-72432322D01*
X86460809Y-72417179D01*
X86379197Y-72295038D01*
X86316011Y-72142493D01*
X86283800Y-71980557D01*
X86283800Y-71815443D01*
X86316011Y-71653507D01*
X86379197Y-71500962D01*
X86470925Y-71363681D01*
X86470927Y-71363678D01*
X86587678Y-71246927D01*
X86588603Y-71246309D01*
X86724962Y-71155197D01*
X86877506Y-71092011D01*
X86958475Y-71075905D01*
X87039443Y-71059800D01*
X87204557Y-71059800D01*
X87285525Y-71075905D01*
X87285525Y-71075905D01*
G37*
G36*
X127992926Y-70638029D02*
G01*
X128058356Y-70651044D01*
X128243256Y-70727632D01*
X128409662Y-70838821D01*
X128551179Y-70980338D01*
X128662368Y-71146744D01*
X128738956Y-71331644D01*
X128751971Y-71397074D01*
X128772636Y-71500963D01*
X128778000Y-71527933D01*
X128778000Y-71728067D01*
X128738956Y-71924356D01*
X128662368Y-72109256D01*
X128551179Y-72275662D01*
X128409662Y-72417179D01*
X128243256Y-72528368D01*
X128058356Y-72604956D01*
X127992926Y-72617971D01*
X127862069Y-72644000D01*
X127661931Y-72644000D01*
X127531074Y-72617971D01*
X127465644Y-72604956D01*
X127280744Y-72528368D01*
X127114338Y-72417179D01*
X126972821Y-72275662D01*
X126861632Y-72109256D01*
X126785044Y-71924356D01*
X126746000Y-71728067D01*
X126746000Y-71527933D01*
X126751365Y-71500963D01*
X126772029Y-71397074D01*
X126785044Y-71331644D01*
X126861632Y-71146744D01*
X126972821Y-70980338D01*
X127114338Y-70838821D01*
X127280744Y-70727632D01*
X127465644Y-70651044D01*
X127531074Y-70638029D01*
X127661931Y-70612000D01*
X127862069Y-70612000D01*
X127992926Y-70638029D01*
X127992926Y-70638029D01*
G37*
G36*
X150217926Y-70638029D02*
G01*
X150283356Y-70651044D01*
X150468256Y-70727632D01*
X150634662Y-70838821D01*
X150776179Y-70980338D01*
X150887368Y-71146744D01*
X150963956Y-71331644D01*
X150976971Y-71397074D01*
X150997636Y-71500963D01*
X151003000Y-71527933D01*
X151003000Y-71728067D01*
X150963956Y-71924356D01*
X150887368Y-72109256D01*
X150776179Y-72275662D01*
X150634662Y-72417179D01*
X150468256Y-72528368D01*
X150283356Y-72604956D01*
X150217926Y-72617971D01*
X150087069Y-72644000D01*
X149886931Y-72644000D01*
X149756074Y-72617971D01*
X149690644Y-72604956D01*
X149505744Y-72528368D01*
X149339338Y-72417179D01*
X149197821Y-72275662D01*
X149086632Y-72109256D01*
X149010044Y-71924356D01*
X148971000Y-71728067D01*
X148971000Y-71527933D01*
X148976365Y-71500963D01*
X148997029Y-71397074D01*
X149010044Y-71331644D01*
X149086632Y-71146744D01*
X149197821Y-70980338D01*
X149339338Y-70838821D01*
X149505744Y-70727632D01*
X149690644Y-70651044D01*
X149756074Y-70638029D01*
X149886931Y-70612000D01*
X150087069Y-70612000D01*
X150217926Y-70638029D01*
X150217926Y-70638029D01*
G37*
G36*
X157837926Y-70638029D02*
G01*
X157903356Y-70651044D01*
X158088256Y-70727632D01*
X158254662Y-70838821D01*
X158396179Y-70980338D01*
X158507368Y-71146744D01*
X158583956Y-71331644D01*
X158596971Y-71397074D01*
X158617636Y-71500963D01*
X158623000Y-71527933D01*
X158623000Y-71728067D01*
X158583956Y-71924356D01*
X158507368Y-72109256D01*
X158396179Y-72275662D01*
X158254662Y-72417179D01*
X158088256Y-72528368D01*
X157903356Y-72604956D01*
X157837926Y-72617971D01*
X157707069Y-72644000D01*
X157506931Y-72644000D01*
X157376074Y-72617971D01*
X157310644Y-72604956D01*
X157125744Y-72528368D01*
X156959338Y-72417179D01*
X156817821Y-72275662D01*
X156706632Y-72109256D01*
X156630044Y-71924356D01*
X156591000Y-71728067D01*
X156591000Y-71527933D01*
X156596365Y-71500963D01*
X156617029Y-71397074D01*
X156630044Y-71331644D01*
X156706632Y-71146744D01*
X156817821Y-70980338D01*
X156959338Y-70838821D01*
X157125744Y-70727632D01*
X157310644Y-70651044D01*
X157376074Y-70638029D01*
X157506931Y-70612000D01*
X157707069Y-70612000D01*
X157837926Y-70638029D01*
X157837926Y-70638029D01*
G37*
G36*
X120372926Y-70638029D02*
G01*
X120438356Y-70651044D01*
X120623256Y-70727632D01*
X120789662Y-70838821D01*
X120931179Y-70980338D01*
X121042368Y-71146744D01*
X121118956Y-71331644D01*
X121131971Y-71397074D01*
X121152636Y-71500963D01*
X121158000Y-71527933D01*
X121158000Y-71728067D01*
X121118956Y-71924356D01*
X121042368Y-72109256D01*
X120931179Y-72275662D01*
X120789662Y-72417179D01*
X120623256Y-72528368D01*
X120438356Y-72604956D01*
X120372926Y-72617971D01*
X120242069Y-72644000D01*
X120041931Y-72644000D01*
X119911074Y-72617971D01*
X119845644Y-72604956D01*
X119660744Y-72528368D01*
X119494338Y-72417179D01*
X119352821Y-72275662D01*
X119241632Y-72109256D01*
X119165044Y-71924356D01*
X119126000Y-71728067D01*
X119126000Y-71527933D01*
X119131365Y-71500963D01*
X119152029Y-71397074D01*
X119165044Y-71331644D01*
X119241632Y-71146744D01*
X119352821Y-70980338D01*
X119494338Y-70838821D01*
X119660744Y-70727632D01*
X119845644Y-70651044D01*
X119911074Y-70638029D01*
X120041931Y-70612000D01*
X120242069Y-70612000D01*
X120372926Y-70638029D01*
X120372926Y-70638029D01*
G37*
G36*
X95019834Y-70712103D02*
G01*
X95193176Y-70783904D01*
X95193178Y-70783905D01*
X95349184Y-70888145D01*
X95481855Y-71020816D01*
X95586095Y-71176822D01*
X95586096Y-71176824D01*
X95657897Y-71350166D01*
X95694500Y-71534186D01*
X95694500Y-71721814D01*
X95657897Y-71905834D01*
X95586583Y-72078000D01*
X95586095Y-72079178D01*
X95481855Y-72235184D01*
X95349184Y-72367855D01*
X95193178Y-72472095D01*
X95193177Y-72472096D01*
X95193176Y-72472096D01*
X95019834Y-72543897D01*
X94835814Y-72580500D01*
X94648186Y-72580500D01*
X94464166Y-72543897D01*
X94290824Y-72472096D01*
X94290823Y-72472096D01*
X94290822Y-72472095D01*
X94134816Y-72367855D01*
X94002145Y-72235184D01*
X93897905Y-72079178D01*
X93897417Y-72078000D01*
X93826103Y-71905834D01*
X93789500Y-71721814D01*
X93789500Y-71534186D01*
X93826103Y-71350166D01*
X93897904Y-71176824D01*
X93897905Y-71176822D01*
X94002145Y-71020816D01*
X94134816Y-70888145D01*
X94290822Y-70783905D01*
X94290824Y-70783904D01*
X94464166Y-70712103D01*
X94648186Y-70675500D01*
X94835814Y-70675500D01*
X95019834Y-70712103D01*
X95019834Y-70712103D01*
G37*
G36*
X174232000Y-72328000D02*
G01*
X172732000Y-72328000D01*
X172732000Y-70928000D01*
X174232000Y-70928000D01*
X174232000Y-72328000D01*
X174232000Y-72328000D01*
G37*
G36*
X183122000Y-72328000D02*
G01*
X181622000Y-72328000D01*
X181622000Y-70928000D01*
X183122000Y-70928000D01*
X183122000Y-72328000D01*
X183122000Y-72328000D01*
G37*
G36*
X200902000Y-72328000D02*
G01*
X199402000Y-72328000D01*
X199402000Y-70928000D01*
X200902000Y-70928000D01*
X200902000Y-72328000D01*
X200902000Y-72328000D01*
G37*
G36*
X192012000Y-72328000D02*
G01*
X190512000Y-72328000D01*
X190512000Y-70928000D01*
X192012000Y-70928000D01*
X192012000Y-72328000D01*
X192012000Y-72328000D01*
G37*
G36*
X154547000Y-72328000D02*
G01*
X153047000Y-72328000D01*
X153047000Y-70928000D01*
X154547000Y-70928000D01*
X154547000Y-72328000D01*
X154547000Y-72328000D01*
G37*
G36*
X124702000Y-72328000D02*
G01*
X123202000Y-72328000D01*
X123202000Y-70928000D01*
X124702000Y-70928000D01*
X124702000Y-72328000D01*
X124702000Y-72328000D01*
G37*
G36*
X209792000Y-72148184D02*
G01*
X208292000Y-72148184D01*
X208292000Y-70748184D01*
X209792000Y-70748184D01*
X209792000Y-72148184D01*
X209792000Y-72148184D01*
G37*
G36*
X180362000Y-72128000D02*
G01*
X178962000Y-72128000D01*
X178962000Y-71128000D01*
X180362000Y-71128000D01*
X180362000Y-72128000D01*
X180362000Y-72128000D01*
G37*
G36*
X198142000Y-72128000D02*
G01*
X196742000Y-72128000D01*
X196742000Y-71128000D01*
X198142000Y-71128000D01*
X198142000Y-72128000D01*
X198142000Y-72128000D01*
G37*
G36*
X171472000Y-72128000D02*
G01*
X170072000Y-72128000D01*
X170072000Y-71128000D01*
X171472000Y-71128000D01*
X171472000Y-72128000D01*
X171472000Y-72128000D01*
G37*
G36*
X189252000Y-72128000D02*
G01*
X187852000Y-72128000D01*
X187852000Y-71128000D01*
X189252000Y-71128000D01*
X189252000Y-72128000D01*
X189252000Y-72128000D01*
G37*
G36*
X207032000Y-71948184D02*
G01*
X205632000Y-71948184D01*
X205632000Y-70948184D01*
X207032000Y-70948184D01*
X207032000Y-71948184D01*
X207032000Y-71948184D01*
G37*
G36*
X106382000Y-71743000D02*
G01*
X104982000Y-71743000D01*
X104982000Y-70243000D01*
X106382000Y-70243000D01*
X106382000Y-71743000D01*
X106382000Y-71743000D01*
G37*
G36*
X101302000Y-71743000D02*
G01*
X99902000Y-71743000D01*
X99902000Y-70243000D01*
X101302000Y-70243000D01*
X101302000Y-71743000D01*
X101302000Y-71743000D01*
G37*
G36*
X99252000Y-71743000D02*
G01*
X97852000Y-71743000D01*
X97852000Y-70243000D01*
X99252000Y-70243000D01*
X99252000Y-71743000D01*
X99252000Y-71743000D01*
G37*
G36*
X104332000Y-71743000D02*
G01*
X102932000Y-71743000D01*
X102932000Y-70243000D01*
X104332000Y-70243000D01*
X104332000Y-71743000D01*
X104332000Y-71743000D01*
G37*
G36*
X169272000Y-71178000D02*
G01*
X167872000Y-71178000D01*
X167872000Y-70178000D01*
X169272000Y-70178000D01*
X169272000Y-71178000D01*
X169272000Y-71178000D01*
G37*
G36*
X195942000Y-71178000D02*
G01*
X194542000Y-71178000D01*
X194542000Y-70178000D01*
X195942000Y-70178000D01*
X195942000Y-71178000D01*
X195942000Y-71178000D01*
G37*
G36*
X187052000Y-71178000D02*
G01*
X185652000Y-71178000D01*
X185652000Y-70178000D01*
X187052000Y-70178000D01*
X187052000Y-71178000D01*
X187052000Y-71178000D01*
G37*
G36*
X178162000Y-71178000D02*
G01*
X176762000Y-71178000D01*
X176762000Y-70178000D01*
X178162000Y-70178000D01*
X178162000Y-71178000D01*
X178162000Y-71178000D01*
G37*
G36*
X115812000Y-71058000D02*
G01*
X114312000Y-71058000D01*
X114312000Y-69658000D01*
X115812000Y-69658000D01*
X115812000Y-71058000D01*
X115812000Y-71058000D01*
G37*
G36*
X113272000Y-71058000D02*
G01*
X111772000Y-71058000D01*
X111772000Y-69658000D01*
X113272000Y-69658000D01*
X113272000Y-71058000D01*
X113272000Y-71058000D01*
G37*
G36*
X145657000Y-71058000D02*
G01*
X144157000Y-71058000D01*
X144157000Y-69658000D01*
X145657000Y-69658000D01*
X145657000Y-71058000D01*
X145657000Y-71058000D01*
G37*
G36*
X143117000Y-71058000D02*
G01*
X141617000Y-71058000D01*
X141617000Y-69658000D01*
X143117000Y-69658000D01*
X143117000Y-71058000D01*
X143117000Y-71058000D01*
G37*
G36*
X204832000Y-70998184D02*
G01*
X203432000Y-70998184D01*
X203432000Y-69998184D01*
X204832000Y-69998184D01*
X204832000Y-70998184D01*
X204832000Y-70998184D01*
G37*
G36*
X118472000Y-70358184D02*
G01*
X117072000Y-70358184D01*
X117072000Y-69358184D01*
X118472000Y-69358184D01*
X118472000Y-70358184D01*
X118472000Y-70358184D01*
G37*
G36*
X147682000Y-70358184D02*
G01*
X146282000Y-70358184D01*
X146282000Y-69358184D01*
X147682000Y-69358184D01*
X147682000Y-70358184D01*
X147682000Y-70358184D01*
G37*
G36*
X95019834Y-68172103D02*
G01*
X95193176Y-68243904D01*
X95193178Y-68243905D01*
X95349184Y-68348145D01*
X95481855Y-68480816D01*
X95553473Y-68588000D01*
X95586096Y-68636824D01*
X95657897Y-68810166D01*
X95694500Y-68994186D01*
X95694500Y-69181814D01*
X95657897Y-69365834D01*
X95586096Y-69539176D01*
X95586095Y-69539178D01*
X95481855Y-69695184D01*
X95349184Y-69827855D01*
X95193178Y-69932095D01*
X95193177Y-69932096D01*
X95193176Y-69932096D01*
X95019834Y-70003897D01*
X94835814Y-70040500D01*
X94648186Y-70040500D01*
X94464166Y-70003897D01*
X94290824Y-69932096D01*
X94290823Y-69932096D01*
X94290822Y-69932095D01*
X94134816Y-69827855D01*
X94002145Y-69695184D01*
X93897905Y-69539178D01*
X93897904Y-69539176D01*
X93826103Y-69365834D01*
X93789500Y-69181814D01*
X93789500Y-68994186D01*
X93826103Y-68810166D01*
X93897904Y-68636824D01*
X93930527Y-68588000D01*
X94002145Y-68480816D01*
X94134816Y-68348145D01*
X94290822Y-68243905D01*
X94290824Y-68243904D01*
X94464166Y-68172103D01*
X94648186Y-68135500D01*
X94835814Y-68135500D01*
X95019834Y-68172103D01*
X95019834Y-68172103D01*
G37*
G36*
X126252000Y-69588000D02*
G01*
X124752000Y-69588000D01*
X124752000Y-68588000D01*
X126252000Y-68588000D01*
X126252000Y-69588000D01*
X126252000Y-69588000D01*
G37*
G36*
X156097000Y-69588000D02*
G01*
X154597000Y-69588000D01*
X154597000Y-68588000D01*
X156097000Y-68588000D01*
X156097000Y-69588000D01*
X156097000Y-69588000D01*
G37*
G36*
X152997000Y-69588000D02*
G01*
X151497000Y-69588000D01*
X151497000Y-68588000D01*
X152997000Y-68588000D01*
X152997000Y-69588000D01*
X152997000Y-69588000D01*
G37*
G36*
X123152000Y-69588000D02*
G01*
X121652000Y-69588000D01*
X121652000Y-68588000D01*
X123152000Y-68588000D01*
X123152000Y-69588000D01*
X123152000Y-69588000D01*
G37*
G36*
X149882000Y-69408184D02*
G01*
X148482000Y-69408184D01*
X148482000Y-68408184D01*
X149882000Y-68408184D01*
X149882000Y-69408184D01*
X149882000Y-69408184D01*
G37*
G36*
X120672000Y-69408184D02*
G01*
X119272000Y-69408184D01*
X119272000Y-68408184D01*
X120672000Y-68408184D01*
X120672000Y-69408184D01*
X120672000Y-69408184D01*
G37*
G36*
X115272000Y-68568000D02*
G01*
X113872000Y-68568000D01*
X113872000Y-67068000D01*
X115272000Y-67068000D01*
X115272000Y-68568000D01*
X115272000Y-68568000D01*
G37*
G36*
X107652000Y-68568000D02*
G01*
X106252000Y-68568000D01*
X106252000Y-67068000D01*
X107652000Y-67068000D01*
X107652000Y-68568000D01*
X107652000Y-68568000D01*
G37*
G36*
X105602000Y-68568000D02*
G01*
X104202000Y-68568000D01*
X104202000Y-67068000D01*
X105602000Y-67068000D01*
X105602000Y-68568000D01*
X105602000Y-68568000D01*
G37*
G36*
X113222000Y-68568000D02*
G01*
X111822000Y-68568000D01*
X111822000Y-67068000D01*
X113222000Y-67068000D01*
X113222000Y-68568000D01*
X113222000Y-68568000D01*
G37*
G36*
X143067000Y-68568000D02*
G01*
X141667000Y-68568000D01*
X141667000Y-67068000D01*
X143067000Y-67068000D01*
X143067000Y-68568000D01*
X143067000Y-68568000D01*
G37*
G36*
X145117000Y-68568000D02*
G01*
X143717000Y-68568000D01*
X143717000Y-67068000D01*
X145117000Y-67068000D01*
X145117000Y-68568000D01*
X145117000Y-68568000D01*
G37*
G36*
X147682000Y-68458184D02*
G01*
X146282000Y-68458184D01*
X146282000Y-67458184D01*
X147682000Y-67458184D01*
X147682000Y-68458184D01*
X147682000Y-68458184D01*
G37*
G36*
X118472000Y-68458184D02*
G01*
X117072000Y-68458184D01*
X117072000Y-67458184D01*
X118472000Y-67458184D01*
X118472000Y-68458184D01*
X118472000Y-68458184D01*
G37*
G36*
X127992926Y-60478029D02*
G01*
X128058356Y-60491044D01*
X128243256Y-60567632D01*
X128409662Y-60678821D01*
X128551179Y-60820338D01*
X128662368Y-60986744D01*
X128674828Y-61016824D01*
X128738956Y-61171645D01*
X128778000Y-61367931D01*
X128778000Y-61568069D01*
X128772635Y-61595038D01*
X128738956Y-61764356D01*
X128662368Y-61949256D01*
X128551179Y-62115662D01*
X128409662Y-62257179D01*
X128243256Y-62368368D01*
X128058356Y-62444956D01*
X127992926Y-62457971D01*
X127862069Y-62484000D01*
X127661931Y-62484000D01*
X127531074Y-62457971D01*
X127465644Y-62444956D01*
X127280744Y-62368368D01*
X127114338Y-62257179D01*
X126972821Y-62115662D01*
X126861632Y-61949256D01*
X126785044Y-61764356D01*
X126751365Y-61595038D01*
X126746000Y-61568069D01*
X126746000Y-61367931D01*
X126785044Y-61171645D01*
X126849173Y-61016824D01*
X126861632Y-60986744D01*
X126972821Y-60820338D01*
X127114338Y-60678821D01*
X127280744Y-60567632D01*
X127465644Y-60491044D01*
X127531074Y-60478029D01*
X127661931Y-60452000D01*
X127862069Y-60452000D01*
X127992926Y-60478029D01*
X127992926Y-60478029D01*
G37*
G36*
X157837926Y-60478029D02*
G01*
X157903356Y-60491044D01*
X158088256Y-60567632D01*
X158254662Y-60678821D01*
X158396179Y-60820338D01*
X158507368Y-60986744D01*
X158519828Y-61016824D01*
X158583956Y-61171645D01*
X158623000Y-61367931D01*
X158623000Y-61568069D01*
X158617635Y-61595038D01*
X158583956Y-61764356D01*
X158507368Y-61949256D01*
X158396179Y-62115662D01*
X158254662Y-62257179D01*
X158088256Y-62368368D01*
X157903356Y-62444956D01*
X157837926Y-62457971D01*
X157707069Y-62484000D01*
X157506931Y-62484000D01*
X157376074Y-62457971D01*
X157310644Y-62444956D01*
X157125744Y-62368368D01*
X156959338Y-62257179D01*
X156817821Y-62115662D01*
X156706632Y-61949256D01*
X156630044Y-61764356D01*
X156596365Y-61595038D01*
X156591000Y-61568069D01*
X156591000Y-61367931D01*
X156630044Y-61171645D01*
X156694173Y-61016824D01*
X156706632Y-60986744D01*
X156817821Y-60820338D01*
X156959338Y-60678821D01*
X157125744Y-60567632D01*
X157310644Y-60491044D01*
X157376074Y-60478029D01*
X157506931Y-60452000D01*
X157707069Y-60452000D01*
X157837926Y-60478029D01*
X157837926Y-60478029D01*
G37*
G36*
X95019834Y-60552103D02*
G01*
X95193176Y-60623904D01*
X95193178Y-60623905D01*
X95349184Y-60728145D01*
X95481855Y-60860816D01*
X95543789Y-60953507D01*
X95586096Y-61016824D01*
X95657897Y-61190166D01*
X95694500Y-61374186D01*
X95694500Y-61561814D01*
X95657897Y-61745834D01*
X95586096Y-61919176D01*
X95586095Y-61919178D01*
X95481855Y-62075184D01*
X95349184Y-62207855D01*
X95193178Y-62312095D01*
X95193177Y-62312096D01*
X95193176Y-62312096D01*
X95019834Y-62383897D01*
X94835814Y-62420500D01*
X94648186Y-62420500D01*
X94464166Y-62383897D01*
X94290824Y-62312096D01*
X94290823Y-62312096D01*
X94290822Y-62312095D01*
X94134816Y-62207855D01*
X94002145Y-62075184D01*
X93897905Y-61919178D01*
X93897904Y-61919176D01*
X93826103Y-61745834D01*
X93789500Y-61561814D01*
X93789500Y-61374186D01*
X93826103Y-61190166D01*
X93897904Y-61016824D01*
X93940211Y-60953507D01*
X94002145Y-60860816D01*
X94134816Y-60728145D01*
X94290822Y-60623905D01*
X94290824Y-60623904D01*
X94464166Y-60552103D01*
X94648186Y-60515500D01*
X94835814Y-60515500D01*
X95019834Y-60552103D01*
X95019834Y-60552103D01*
G37*
G36*
X198312000Y-62218000D02*
G01*
X196912000Y-62218000D01*
X196912000Y-60718000D01*
X198312000Y-60718000D01*
X198312000Y-62218000D01*
X198312000Y-62218000D01*
G37*
G36*
X186102000Y-62218000D02*
G01*
X184702000Y-62218000D01*
X184702000Y-60718000D01*
X186102000Y-60718000D01*
X186102000Y-62218000D01*
X186102000Y-62218000D01*
G37*
G36*
X188152000Y-62218000D02*
G01*
X186752000Y-62218000D01*
X186752000Y-60718000D01*
X188152000Y-60718000D01*
X188152000Y-62218000D01*
X188152000Y-62218000D01*
G37*
G36*
X200362000Y-62218000D02*
G01*
X198962000Y-62218000D01*
X198962000Y-60718000D01*
X200362000Y-60718000D01*
X200362000Y-62218000D01*
X200362000Y-62218000D01*
G37*
G36*
X105602000Y-62218000D02*
G01*
X104202000Y-62218000D01*
X104202000Y-60718000D01*
X105602000Y-60718000D01*
X105602000Y-62218000D01*
X105602000Y-62218000D01*
G37*
G36*
X115762000Y-62218000D02*
G01*
X114362000Y-62218000D01*
X114362000Y-60718000D01*
X115762000Y-60718000D01*
X115762000Y-62218000D01*
X115762000Y-62218000D01*
G37*
G36*
X113712000Y-62218000D02*
G01*
X112312000Y-62218000D01*
X112312000Y-60718000D01*
X113712000Y-60718000D01*
X113712000Y-62218000D01*
X113712000Y-62218000D01*
G37*
G36*
X107652000Y-62218000D02*
G01*
X106252000Y-62218000D01*
X106252000Y-60718000D01*
X107652000Y-60718000D01*
X107652000Y-62218000D01*
X107652000Y-62218000D01*
G37*
G36*
X175452000Y-62218000D02*
G01*
X174052000Y-62218000D01*
X174052000Y-60718000D01*
X175452000Y-60718000D01*
X175452000Y-62218000D01*
X175452000Y-62218000D01*
G37*
G36*
X143557000Y-62218000D02*
G01*
X142157000Y-62218000D01*
X142157000Y-60718000D01*
X143557000Y-60718000D01*
X143557000Y-62218000D01*
X143557000Y-62218000D01*
G37*
G36*
X145607000Y-62218000D02*
G01*
X144207000Y-62218000D01*
X144207000Y-60718000D01*
X145607000Y-60718000D01*
X145607000Y-62218000D01*
X145607000Y-62218000D01*
G37*
G36*
X177502000Y-62218000D02*
G01*
X176102000Y-62218000D01*
X176102000Y-60718000D01*
X177502000Y-60718000D01*
X177502000Y-62218000D01*
X177502000Y-62218000D01*
G37*
G36*
X99302000Y-62168000D02*
G01*
X97802000Y-62168000D01*
X97802000Y-60768000D01*
X99302000Y-60768000D01*
X99302000Y-62168000D01*
X99302000Y-62168000D01*
G37*
G36*
X209742000Y-62038184D02*
G01*
X208342000Y-62038184D01*
X208342000Y-60538184D01*
X209742000Y-60538184D01*
X209742000Y-62038184D01*
X209742000Y-62038184D01*
G37*
G36*
X211792000Y-62038184D02*
G01*
X210392000Y-62038184D01*
X210392000Y-60538184D01*
X211792000Y-60538184D01*
X211792000Y-62038184D01*
X211792000Y-62038184D01*
G37*
G36*
X87285525Y-60375906D02*
G01*
X87366494Y-60392011D01*
X87442765Y-60423604D01*
X87519038Y-60455197D01*
X87609288Y-60515500D01*
X87656322Y-60546927D01*
X87773073Y-60663678D01*
X87773075Y-60663681D01*
X87864803Y-60800962D01*
X87927989Y-60953507D01*
X87960200Y-61115443D01*
X87960200Y-61280557D01*
X87927989Y-61442493D01*
X87864803Y-61595038D01*
X87773691Y-61731397D01*
X87773073Y-61732322D01*
X87656322Y-61849073D01*
X87656319Y-61849075D01*
X87519038Y-61940803D01*
X87366494Y-62003989D01*
X87285525Y-62020095D01*
X87204557Y-62036200D01*
X87039443Y-62036200D01*
X86958475Y-62020095D01*
X86877506Y-62003989D01*
X86724962Y-61940803D01*
X86587681Y-61849075D01*
X86587678Y-61849073D01*
X86470927Y-61732322D01*
X86470309Y-61731397D01*
X86379197Y-61595038D01*
X86316011Y-61442493D01*
X86283800Y-61280557D01*
X86283800Y-61115443D01*
X86316011Y-60953507D01*
X86379197Y-60800962D01*
X86470925Y-60663681D01*
X86470927Y-60663678D01*
X86587678Y-60546927D01*
X86634712Y-60515500D01*
X86724962Y-60455197D01*
X86801235Y-60423604D01*
X86877506Y-60392011D01*
X86958475Y-60375906D01*
X87039443Y-60359800D01*
X87204557Y-60359800D01*
X87285525Y-60375906D01*
X87285525Y-60375906D01*
G37*
G36*
X99302000Y-60118000D02*
G01*
X97802000Y-60118000D01*
X97802000Y-58718000D01*
X99302000Y-58718000D01*
X99302000Y-60118000D01*
X99302000Y-60118000D01*
G37*
G36*
X87285525Y-58375906D02*
G01*
X87366494Y-58392011D01*
X87442765Y-58423604D01*
X87519038Y-58455197D01*
X87655397Y-58546309D01*
X87656322Y-58546927D01*
X87773073Y-58663678D01*
X87773075Y-58663681D01*
X87864803Y-58800962D01*
X87927989Y-58953507D01*
X87960200Y-59115443D01*
X87960200Y-59280557D01*
X87927989Y-59442493D01*
X87864803Y-59595038D01*
X87773691Y-59731397D01*
X87773073Y-59732322D01*
X87656322Y-59849073D01*
X87656319Y-59849075D01*
X87519038Y-59940803D01*
X87442765Y-59972396D01*
X87366494Y-60003989D01*
X87285525Y-60020095D01*
X87204557Y-60036200D01*
X87039443Y-60036200D01*
X86958475Y-60020095D01*
X86877506Y-60003989D01*
X86801235Y-59972396D01*
X86724962Y-59940803D01*
X86587681Y-59849075D01*
X86587678Y-59849073D01*
X86470927Y-59732322D01*
X86470309Y-59731397D01*
X86379197Y-59595038D01*
X86316011Y-59442493D01*
X86283800Y-59280557D01*
X86283800Y-59115443D01*
X86316011Y-58953507D01*
X86379197Y-58800962D01*
X86470925Y-58663681D01*
X86470927Y-58663678D01*
X86587678Y-58546927D01*
X86588603Y-58546309D01*
X86724962Y-58455197D01*
X86801235Y-58423604D01*
X86877506Y-58392011D01*
X86958475Y-58375906D01*
X87039443Y-58359800D01*
X87204557Y-58359800D01*
X87285525Y-58375906D01*
X87285525Y-58375906D01*
G37*
G36*
X95019834Y-58012103D02*
G01*
X95193176Y-58083904D01*
X95193178Y-58083905D01*
X95349184Y-58188145D01*
X95481855Y-58320816D01*
X95586095Y-58476822D01*
X95586096Y-58476824D01*
X95657897Y-58650166D01*
X95694500Y-58834186D01*
X95694500Y-59021814D01*
X95657897Y-59205834D01*
X95586096Y-59379176D01*
X95586095Y-59379178D01*
X95481855Y-59535184D01*
X95349184Y-59667855D01*
X95193178Y-59772095D01*
X95193177Y-59772096D01*
X95193176Y-59772096D01*
X95019834Y-59843897D01*
X94835814Y-59880500D01*
X94648186Y-59880500D01*
X94464166Y-59843897D01*
X94290824Y-59772096D01*
X94290823Y-59772096D01*
X94290822Y-59772095D01*
X94134816Y-59667855D01*
X94002145Y-59535184D01*
X93897905Y-59379178D01*
X93897904Y-59379176D01*
X93826103Y-59205834D01*
X93789500Y-59021814D01*
X93789500Y-58834186D01*
X93826103Y-58650166D01*
X93897904Y-58476824D01*
X93897905Y-58476822D01*
X94002145Y-58320816D01*
X94134816Y-58188145D01*
X94290822Y-58083905D01*
X94290824Y-58083904D01*
X94464166Y-58012103D01*
X94648186Y-57975500D01*
X94835814Y-57975500D01*
X95019834Y-58012103D01*
X95019834Y-58012103D01*
G37*
G36*
X113712000Y-59678000D02*
G01*
X112312000Y-59678000D01*
X112312000Y-58178000D01*
X113712000Y-58178000D01*
X113712000Y-59678000D01*
X113712000Y-59678000D01*
G37*
G36*
X145607000Y-59678000D02*
G01*
X144207000Y-59678000D01*
X144207000Y-58178000D01*
X145607000Y-58178000D01*
X145607000Y-59678000D01*
X145607000Y-59678000D01*
G37*
G36*
X115762000Y-59678000D02*
G01*
X114362000Y-59678000D01*
X114362000Y-58178000D01*
X115762000Y-58178000D01*
X115762000Y-59678000D01*
X115762000Y-59678000D01*
G37*
G36*
X143557000Y-59678000D02*
G01*
X142157000Y-59678000D01*
X142157000Y-58178000D01*
X143557000Y-58178000D01*
X143557000Y-59678000D01*
X143557000Y-59678000D01*
G37*
G36*
X211506610Y-55741220D02*
G01*
X211734095Y-55835448D01*
X211734097Y-55835449D01*
X211782813Y-55868000D01*
X211938828Y-55972246D01*
X212112938Y-56146356D01*
X212249736Y-56351089D01*
X212343964Y-56578574D01*
X212392000Y-56820068D01*
X212392000Y-57066300D01*
X212343964Y-57307794D01*
X212249736Y-57535279D01*
X212249735Y-57535281D01*
X212112938Y-57740012D01*
X211938828Y-57914122D01*
X211734097Y-58050919D01*
X211734096Y-58050920D01*
X211734095Y-58050920D01*
X211506610Y-58145148D01*
X211265116Y-58193184D01*
X211018884Y-58193184D01*
X210777390Y-58145148D01*
X210549905Y-58050920D01*
X210549904Y-58050920D01*
X210549903Y-58050919D01*
X210345172Y-57914122D01*
X210171062Y-57740012D01*
X210034265Y-57535281D01*
X210034264Y-57535279D01*
X209940036Y-57307794D01*
X209892000Y-57066300D01*
X209892000Y-56820068D01*
X209940036Y-56578574D01*
X210034264Y-56351089D01*
X210171062Y-56146356D01*
X210345172Y-55972246D01*
X210501187Y-55868000D01*
X210549903Y-55835449D01*
X210549905Y-55835448D01*
X210777390Y-55741220D01*
X211018884Y-55693184D01*
X211265116Y-55693184D01*
X211506610Y-55741220D01*
X211506610Y-55741220D01*
G37*
G36*
X173016610Y-55741220D02*
G01*
X173244095Y-55835448D01*
X173244097Y-55835449D01*
X173292813Y-55868000D01*
X173448828Y-55972246D01*
X173622938Y-56146356D01*
X173759736Y-56351089D01*
X173853964Y-56578574D01*
X173902000Y-56820068D01*
X173902000Y-57066300D01*
X173853964Y-57307794D01*
X173759736Y-57535279D01*
X173759735Y-57535281D01*
X173622938Y-57740012D01*
X173448828Y-57914122D01*
X173244097Y-58050919D01*
X173244096Y-58050920D01*
X173244095Y-58050920D01*
X173016610Y-58145148D01*
X172775116Y-58193184D01*
X172528884Y-58193184D01*
X172287390Y-58145148D01*
X172059905Y-58050920D01*
X172059904Y-58050920D01*
X172059903Y-58050919D01*
X171855172Y-57914122D01*
X171681062Y-57740012D01*
X171544265Y-57535281D01*
X171544264Y-57535279D01*
X171450036Y-57307794D01*
X171402000Y-57066300D01*
X171402000Y-56820068D01*
X171450036Y-56578574D01*
X171544264Y-56351089D01*
X171681062Y-56146356D01*
X171855172Y-55972246D01*
X172011187Y-55868000D01*
X172059903Y-55835449D01*
X172059905Y-55835448D01*
X172287390Y-55741220D01*
X172528884Y-55693184D01*
X172775116Y-55693184D01*
X173016610Y-55741220D01*
X173016610Y-55741220D01*
G37*
G36*
X184446610Y-55741220D02*
G01*
X184674095Y-55835448D01*
X184674097Y-55835449D01*
X184722813Y-55868000D01*
X184878828Y-55972246D01*
X185052938Y-56146356D01*
X185189736Y-56351089D01*
X185283964Y-56578574D01*
X185332000Y-56820068D01*
X185332000Y-57066300D01*
X185283964Y-57307794D01*
X185189736Y-57535279D01*
X185189735Y-57535281D01*
X185052938Y-57740012D01*
X184878828Y-57914122D01*
X184674097Y-58050919D01*
X184674096Y-58050920D01*
X184674095Y-58050920D01*
X184446610Y-58145148D01*
X184205116Y-58193184D01*
X183958884Y-58193184D01*
X183717390Y-58145148D01*
X183489905Y-58050920D01*
X183489904Y-58050920D01*
X183489903Y-58050919D01*
X183285172Y-57914122D01*
X183111062Y-57740012D01*
X182974265Y-57535281D01*
X182974264Y-57535279D01*
X182880036Y-57307794D01*
X182832000Y-57066300D01*
X182832000Y-56820068D01*
X182880036Y-56578574D01*
X182974264Y-56351089D01*
X183111062Y-56146356D01*
X183285172Y-55972246D01*
X183441187Y-55868000D01*
X183489903Y-55835449D01*
X183489905Y-55835448D01*
X183717390Y-55741220D01*
X183958884Y-55693184D01*
X184205116Y-55693184D01*
X184446610Y-55741220D01*
X184446610Y-55741220D01*
G37*
G36*
X188646610Y-55741220D02*
G01*
X188874095Y-55835448D01*
X188874097Y-55835449D01*
X188922813Y-55868000D01*
X189078828Y-55972246D01*
X189252938Y-56146356D01*
X189389736Y-56351089D01*
X189483964Y-56578574D01*
X189532000Y-56820068D01*
X189532000Y-57066300D01*
X189483964Y-57307794D01*
X189389736Y-57535279D01*
X189389735Y-57535281D01*
X189252938Y-57740012D01*
X189078828Y-57914122D01*
X188874097Y-58050919D01*
X188874096Y-58050920D01*
X188874095Y-58050920D01*
X188646610Y-58145148D01*
X188405116Y-58193184D01*
X188158884Y-58193184D01*
X187917390Y-58145148D01*
X187689905Y-58050920D01*
X187689904Y-58050920D01*
X187689903Y-58050919D01*
X187485172Y-57914122D01*
X187311062Y-57740012D01*
X187174265Y-57535281D01*
X187174264Y-57535279D01*
X187080036Y-57307794D01*
X187032000Y-57066300D01*
X187032000Y-56820068D01*
X187080036Y-56578574D01*
X187174264Y-56351089D01*
X187311062Y-56146356D01*
X187485172Y-55972246D01*
X187641187Y-55868000D01*
X187689903Y-55835449D01*
X187689905Y-55835448D01*
X187917390Y-55741220D01*
X188158884Y-55693184D01*
X188405116Y-55693184D01*
X188646610Y-55741220D01*
X188646610Y-55741220D01*
G37*
G36*
X195876610Y-55741220D02*
G01*
X196104095Y-55835448D01*
X196104097Y-55835449D01*
X196152813Y-55868000D01*
X196308828Y-55972246D01*
X196482938Y-56146356D01*
X196619736Y-56351089D01*
X196713964Y-56578574D01*
X196762000Y-56820068D01*
X196762000Y-57066300D01*
X196713964Y-57307794D01*
X196619736Y-57535279D01*
X196619735Y-57535281D01*
X196482938Y-57740012D01*
X196308828Y-57914122D01*
X196104097Y-58050919D01*
X196104096Y-58050920D01*
X196104095Y-58050920D01*
X195876610Y-58145148D01*
X195635116Y-58193184D01*
X195388884Y-58193184D01*
X195147390Y-58145148D01*
X194919905Y-58050920D01*
X194919904Y-58050920D01*
X194919903Y-58050919D01*
X194715172Y-57914122D01*
X194541062Y-57740012D01*
X194404265Y-57535281D01*
X194404264Y-57535279D01*
X194310036Y-57307794D01*
X194262000Y-57066300D01*
X194262000Y-56820068D01*
X194310036Y-56578574D01*
X194404264Y-56351089D01*
X194541062Y-56146356D01*
X194715172Y-55972246D01*
X194871187Y-55868000D01*
X194919903Y-55835449D01*
X194919905Y-55835448D01*
X195147390Y-55741220D01*
X195388884Y-55693184D01*
X195635116Y-55693184D01*
X195876610Y-55741220D01*
X195876610Y-55741220D01*
G37*
G36*
X200076610Y-55741220D02*
G01*
X200304095Y-55835448D01*
X200304097Y-55835449D01*
X200352813Y-55868000D01*
X200508828Y-55972246D01*
X200682938Y-56146356D01*
X200819736Y-56351089D01*
X200913964Y-56578574D01*
X200962000Y-56820068D01*
X200962000Y-57066300D01*
X200913964Y-57307794D01*
X200819736Y-57535279D01*
X200819735Y-57535281D01*
X200682938Y-57740012D01*
X200508828Y-57914122D01*
X200304097Y-58050919D01*
X200304096Y-58050920D01*
X200304095Y-58050920D01*
X200076610Y-58145148D01*
X199835116Y-58193184D01*
X199588884Y-58193184D01*
X199347390Y-58145148D01*
X199119905Y-58050920D01*
X199119904Y-58050920D01*
X199119903Y-58050919D01*
X198915172Y-57914122D01*
X198741062Y-57740012D01*
X198604265Y-57535281D01*
X198604264Y-57535279D01*
X198510036Y-57307794D01*
X198462000Y-57066300D01*
X198462000Y-56820068D01*
X198510036Y-56578574D01*
X198604264Y-56351089D01*
X198741062Y-56146356D01*
X198915172Y-55972246D01*
X199071187Y-55868000D01*
X199119903Y-55835449D01*
X199119905Y-55835448D01*
X199347390Y-55741220D01*
X199588884Y-55693184D01*
X199835116Y-55693184D01*
X200076610Y-55741220D01*
X200076610Y-55741220D01*
G37*
G36*
X207306610Y-55741220D02*
G01*
X207534095Y-55835448D01*
X207534097Y-55835449D01*
X207582813Y-55868000D01*
X207738828Y-55972246D01*
X207912938Y-56146356D01*
X208049736Y-56351089D01*
X208143964Y-56578574D01*
X208192000Y-56820068D01*
X208192000Y-57066300D01*
X208143964Y-57307794D01*
X208049736Y-57535279D01*
X208049735Y-57535281D01*
X207912938Y-57740012D01*
X207738828Y-57914122D01*
X207534097Y-58050919D01*
X207534096Y-58050920D01*
X207534095Y-58050920D01*
X207306610Y-58145148D01*
X207065116Y-58193184D01*
X206818884Y-58193184D01*
X206577390Y-58145148D01*
X206349905Y-58050920D01*
X206349904Y-58050920D01*
X206349903Y-58050919D01*
X206145172Y-57914122D01*
X205971062Y-57740012D01*
X205834265Y-57535281D01*
X205834264Y-57535279D01*
X205740036Y-57307794D01*
X205692000Y-57066300D01*
X205692000Y-56820068D01*
X205740036Y-56578574D01*
X205834264Y-56351089D01*
X205971062Y-56146356D01*
X206145172Y-55972246D01*
X206301187Y-55868000D01*
X206349903Y-55835449D01*
X206349905Y-55835448D01*
X206577390Y-55741220D01*
X206818884Y-55693184D01*
X207065116Y-55693184D01*
X207306610Y-55741220D01*
X207306610Y-55741220D01*
G37*
G36*
X134476610Y-55741220D02*
G01*
X134704095Y-55835448D01*
X134704097Y-55835449D01*
X134752813Y-55868000D01*
X134908828Y-55972246D01*
X135082938Y-56146356D01*
X135219736Y-56351089D01*
X135313964Y-56578574D01*
X135362000Y-56820068D01*
X135362000Y-57066300D01*
X135313964Y-57307794D01*
X135219736Y-57535279D01*
X135219735Y-57535281D01*
X135082938Y-57740012D01*
X134908828Y-57914122D01*
X134704097Y-58050919D01*
X134704096Y-58050920D01*
X134704095Y-58050920D01*
X134476610Y-58145148D01*
X134235116Y-58193184D01*
X133988884Y-58193184D01*
X133747390Y-58145148D01*
X133519905Y-58050920D01*
X133519904Y-58050920D01*
X133519903Y-58050919D01*
X133315172Y-57914122D01*
X133141062Y-57740012D01*
X133004265Y-57535281D01*
X133004264Y-57535279D01*
X132910036Y-57307794D01*
X132862000Y-57066300D01*
X132862000Y-56820068D01*
X132910036Y-56578574D01*
X133004264Y-56351089D01*
X133141062Y-56146356D01*
X133315172Y-55972246D01*
X133471187Y-55868000D01*
X133519903Y-55835449D01*
X133519905Y-55835448D01*
X133747390Y-55741220D01*
X133988884Y-55693184D01*
X134235116Y-55693184D01*
X134476610Y-55741220D01*
X134476610Y-55741220D01*
G37*
G36*
X164321610Y-55741220D02*
G01*
X164549095Y-55835448D01*
X164549097Y-55835449D01*
X164597813Y-55868000D01*
X164753828Y-55972246D01*
X164927938Y-56146356D01*
X165064736Y-56351089D01*
X165158964Y-56578574D01*
X165207000Y-56820068D01*
X165207000Y-57066300D01*
X165158964Y-57307794D01*
X165064736Y-57535279D01*
X165064735Y-57535281D01*
X164927938Y-57740012D01*
X164753828Y-57914122D01*
X164549097Y-58050919D01*
X164549096Y-58050920D01*
X164549095Y-58050920D01*
X164321610Y-58145148D01*
X164080116Y-58193184D01*
X163833884Y-58193184D01*
X163592390Y-58145148D01*
X163364905Y-58050920D01*
X163364904Y-58050920D01*
X163364903Y-58050919D01*
X163160172Y-57914122D01*
X162986062Y-57740012D01*
X162849265Y-57535281D01*
X162849264Y-57535279D01*
X162755036Y-57307794D01*
X162707000Y-57066300D01*
X162707000Y-56820068D01*
X162755036Y-56578574D01*
X162849264Y-56351089D01*
X162986062Y-56146356D01*
X163160172Y-55972246D01*
X163316187Y-55868000D01*
X163364903Y-55835449D01*
X163364905Y-55835448D01*
X163592390Y-55741220D01*
X163833884Y-55693184D01*
X164080116Y-55693184D01*
X164321610Y-55741220D01*
X164321610Y-55741220D01*
G37*
G36*
X104631610Y-55741220D02*
G01*
X104859095Y-55835448D01*
X104859097Y-55835449D01*
X104907813Y-55868000D01*
X105063828Y-55972246D01*
X105237938Y-56146356D01*
X105374736Y-56351089D01*
X105468964Y-56578574D01*
X105517000Y-56820068D01*
X105517000Y-57066300D01*
X105468964Y-57307794D01*
X105374736Y-57535279D01*
X105374735Y-57535281D01*
X105237938Y-57740012D01*
X105063828Y-57914122D01*
X104859097Y-58050919D01*
X104859096Y-58050920D01*
X104859095Y-58050920D01*
X104631610Y-58145148D01*
X104390116Y-58193184D01*
X104143884Y-58193184D01*
X103902390Y-58145148D01*
X103674905Y-58050920D01*
X103674904Y-58050920D01*
X103674903Y-58050919D01*
X103470172Y-57914122D01*
X103296062Y-57740012D01*
X103159265Y-57535281D01*
X103159264Y-57535279D01*
X103065036Y-57307794D01*
X103017000Y-57066300D01*
X103017000Y-56820068D01*
X103065036Y-56578574D01*
X103159264Y-56351089D01*
X103296062Y-56146356D01*
X103470172Y-55972246D01*
X103626187Y-55868000D01*
X103674903Y-55835449D01*
X103674905Y-55835448D01*
X103902390Y-55741220D01*
X104143884Y-55693184D01*
X104390116Y-55693184D01*
X104631610Y-55741220D01*
X104631610Y-55741220D01*
G37*
G36*
X177216610Y-55741220D02*
G01*
X177444095Y-55835448D01*
X177444097Y-55835449D01*
X177492813Y-55868000D01*
X177648828Y-55972246D01*
X177822938Y-56146356D01*
X177959736Y-56351089D01*
X178053964Y-56578574D01*
X178102000Y-56820068D01*
X178102000Y-57066300D01*
X178053964Y-57307794D01*
X177959736Y-57535279D01*
X177959735Y-57535281D01*
X177822938Y-57740012D01*
X177648828Y-57914122D01*
X177444097Y-58050919D01*
X177444096Y-58050920D01*
X177444095Y-58050920D01*
X177216610Y-58145148D01*
X176975116Y-58193184D01*
X176728884Y-58193184D01*
X176487390Y-58145148D01*
X176259905Y-58050920D01*
X176259904Y-58050920D01*
X176259903Y-58050919D01*
X176055172Y-57914122D01*
X175881062Y-57740012D01*
X175744265Y-57535281D01*
X175744264Y-57535279D01*
X175650036Y-57307794D01*
X175602000Y-57066300D01*
X175602000Y-56820068D01*
X175650036Y-56578574D01*
X175744264Y-56351089D01*
X175881062Y-56146356D01*
X176055172Y-55972246D01*
X176211187Y-55868000D01*
X176259903Y-55835449D01*
X176259905Y-55835448D01*
X176487390Y-55741220D01*
X176728884Y-55693184D01*
X176975116Y-55693184D01*
X177216610Y-55741220D01*
X177216610Y-55741220D01*
G37*
G36*
X145607000Y-55868000D02*
G01*
X144207000Y-55868000D01*
X144207000Y-54368000D01*
X145607000Y-54368000D01*
X145607000Y-55868000D01*
X145607000Y-55868000D01*
G37*
G36*
X113712000Y-55868000D02*
G01*
X112312000Y-55868000D01*
X112312000Y-54368000D01*
X113712000Y-54368000D01*
X113712000Y-55868000D01*
X113712000Y-55868000D01*
G37*
G36*
X115762000Y-55868000D02*
G01*
X114362000Y-55868000D01*
X114362000Y-54368000D01*
X115762000Y-54368000D01*
X115762000Y-55868000D01*
X115762000Y-55868000D01*
G37*
G36*
X143557000Y-55868000D02*
G01*
X142157000Y-55868000D01*
X142157000Y-54368000D01*
X143557000Y-54368000D01*
X143557000Y-55868000D01*
X143557000Y-55868000D01*
G37*
G36*
X157837926Y-52858029D02*
G01*
X157903356Y-52871044D01*
X158088256Y-52947632D01*
X158254662Y-53058821D01*
X158396179Y-53200338D01*
X158507368Y-53366744D01*
X158583956Y-53551644D01*
X158623000Y-53747933D01*
X158623000Y-53948067D01*
X158583956Y-54144356D01*
X158507368Y-54329256D01*
X158396179Y-54495662D01*
X158254662Y-54637179D01*
X158088256Y-54748368D01*
X157903356Y-54824956D01*
X157837926Y-54837971D01*
X157707069Y-54864000D01*
X157506931Y-54864000D01*
X157376074Y-54837971D01*
X157310644Y-54824956D01*
X157125744Y-54748368D01*
X156959338Y-54637179D01*
X156817821Y-54495662D01*
X156706632Y-54329256D01*
X156630044Y-54144356D01*
X156591000Y-53948067D01*
X156591000Y-53747933D01*
X156630044Y-53551644D01*
X156706632Y-53366744D01*
X156817821Y-53200338D01*
X156959338Y-53058821D01*
X157125744Y-52947632D01*
X157310644Y-52871044D01*
X157376074Y-52858029D01*
X157506931Y-52832000D01*
X157707069Y-52832000D01*
X157837926Y-52858029D01*
X157837926Y-52858029D01*
G37*
G36*
X127992926Y-52858029D02*
G01*
X128058356Y-52871044D01*
X128243256Y-52947632D01*
X128409662Y-53058821D01*
X128551179Y-53200338D01*
X128662368Y-53366744D01*
X128738956Y-53551644D01*
X128778000Y-53747933D01*
X128778000Y-53948067D01*
X128738956Y-54144356D01*
X128662368Y-54329256D01*
X128551179Y-54495662D01*
X128409662Y-54637179D01*
X128243256Y-54748368D01*
X128058356Y-54824956D01*
X127992926Y-54837971D01*
X127862069Y-54864000D01*
X127661931Y-54864000D01*
X127531074Y-54837971D01*
X127465644Y-54824956D01*
X127280744Y-54748368D01*
X127114338Y-54637179D01*
X126972821Y-54495662D01*
X126861632Y-54329256D01*
X126785044Y-54144356D01*
X126746000Y-53948067D01*
X126746000Y-53747933D01*
X126785044Y-53551644D01*
X126861632Y-53366744D01*
X126972821Y-53200338D01*
X127114338Y-53058821D01*
X127280744Y-52947632D01*
X127465644Y-52871044D01*
X127531074Y-52858029D01*
X127661931Y-52832000D01*
X127862069Y-52832000D01*
X127992926Y-52858029D01*
X127992926Y-52858029D01*
G37*
G36*
X118352000Y-54058000D02*
G01*
X116852000Y-54058000D01*
X116852000Y-52658000D01*
X118352000Y-52658000D01*
X118352000Y-54058000D01*
X118352000Y-54058000D01*
G37*
G36*
X148197000Y-54058000D02*
G01*
X146697000Y-54058000D01*
X146697000Y-52658000D01*
X148197000Y-52658000D01*
X148197000Y-54058000D01*
X148197000Y-54058000D01*
G37*
G36*
X177216610Y-50241220D02*
G01*
X177444095Y-50335448D01*
X177444097Y-50335449D01*
X177648828Y-50472246D01*
X177822938Y-50646356D01*
X177959736Y-50851089D01*
X178053964Y-51078574D01*
X178102000Y-51320068D01*
X178102000Y-51566300D01*
X178053964Y-51807794D01*
X177971035Y-52008000D01*
X177959735Y-52035281D01*
X177822938Y-52240012D01*
X177648828Y-52414122D01*
X177444097Y-52550919D01*
X177444096Y-52550920D01*
X177444095Y-52550920D01*
X177216610Y-52645148D01*
X176975116Y-52693184D01*
X176728884Y-52693184D01*
X176487390Y-52645148D01*
X176259905Y-52550920D01*
X176259904Y-52550920D01*
X176259903Y-52550919D01*
X176055172Y-52414122D01*
X175881062Y-52240012D01*
X175744265Y-52035281D01*
X175732965Y-52008000D01*
X175650036Y-51807794D01*
X175602000Y-51566300D01*
X175602000Y-51320068D01*
X175650036Y-51078574D01*
X175744264Y-50851089D01*
X175881062Y-50646356D01*
X176055172Y-50472246D01*
X176259903Y-50335449D01*
X176259905Y-50335448D01*
X176487390Y-50241220D01*
X176728884Y-50193184D01*
X176975116Y-50193184D01*
X177216610Y-50241220D01*
X177216610Y-50241220D01*
G37*
G36*
X188646610Y-50241220D02*
G01*
X188874095Y-50335448D01*
X188874097Y-50335449D01*
X189078828Y-50472246D01*
X189252938Y-50646356D01*
X189389736Y-50851089D01*
X189483964Y-51078574D01*
X189532000Y-51320068D01*
X189532000Y-51566300D01*
X189483964Y-51807794D01*
X189401035Y-52008000D01*
X189389735Y-52035281D01*
X189252938Y-52240012D01*
X189078828Y-52414122D01*
X188874097Y-52550919D01*
X188874096Y-52550920D01*
X188874095Y-52550920D01*
X188646610Y-52645148D01*
X188405116Y-52693184D01*
X188158884Y-52693184D01*
X187917390Y-52645148D01*
X187689905Y-52550920D01*
X187689904Y-52550920D01*
X187689903Y-52550919D01*
X187485172Y-52414122D01*
X187311062Y-52240012D01*
X187174265Y-52035281D01*
X187162965Y-52008000D01*
X187080036Y-51807794D01*
X187032000Y-51566300D01*
X187032000Y-51320068D01*
X187080036Y-51078574D01*
X187174264Y-50851089D01*
X187311062Y-50646356D01*
X187485172Y-50472246D01*
X187689903Y-50335449D01*
X187689905Y-50335448D01*
X187917390Y-50241220D01*
X188158884Y-50193184D01*
X188405116Y-50193184D01*
X188646610Y-50241220D01*
X188646610Y-50241220D01*
G37*
G36*
X196762000Y-52693184D02*
G01*
X194262000Y-52693184D01*
X194262000Y-50193184D01*
X196762000Y-50193184D01*
X196762000Y-52693184D01*
X196762000Y-52693184D01*
G37*
G36*
X165207000Y-52693184D02*
G01*
X162707000Y-52693184D01*
X162707000Y-50193184D01*
X165207000Y-50193184D01*
X165207000Y-52693184D01*
X165207000Y-52693184D01*
G37*
G36*
X173902000Y-52693184D02*
G01*
X171402000Y-52693184D01*
X171402000Y-50193184D01*
X173902000Y-50193184D01*
X173902000Y-52693184D01*
X173902000Y-52693184D01*
G37*
G36*
X200076610Y-50241220D02*
G01*
X200304095Y-50335448D01*
X200304097Y-50335449D01*
X200508828Y-50472246D01*
X200682938Y-50646356D01*
X200819736Y-50851089D01*
X200913964Y-51078574D01*
X200962000Y-51320068D01*
X200962000Y-51566300D01*
X200913964Y-51807794D01*
X200831035Y-52008000D01*
X200819735Y-52035281D01*
X200682938Y-52240012D01*
X200508828Y-52414122D01*
X200304097Y-52550919D01*
X200304096Y-52550920D01*
X200304095Y-52550920D01*
X200076610Y-52645148D01*
X199835116Y-52693184D01*
X199588884Y-52693184D01*
X199347390Y-52645148D01*
X199119905Y-52550920D01*
X199119904Y-52550920D01*
X199119903Y-52550919D01*
X198915172Y-52414122D01*
X198741062Y-52240012D01*
X198604265Y-52035281D01*
X198592965Y-52008000D01*
X198510036Y-51807794D01*
X198462000Y-51566300D01*
X198462000Y-51320068D01*
X198510036Y-51078574D01*
X198604264Y-50851089D01*
X198741062Y-50646356D01*
X198915172Y-50472246D01*
X199119903Y-50335449D01*
X199119905Y-50335448D01*
X199347390Y-50241220D01*
X199588884Y-50193184D01*
X199835116Y-50193184D01*
X200076610Y-50241220D01*
X200076610Y-50241220D01*
G37*
G36*
X208192000Y-52693184D02*
G01*
X205692000Y-52693184D01*
X205692000Y-50193184D01*
X208192000Y-50193184D01*
X208192000Y-52693184D01*
X208192000Y-52693184D01*
G37*
G36*
X185332000Y-52693184D02*
G01*
X182832000Y-52693184D01*
X182832000Y-50193184D01*
X185332000Y-50193184D01*
X185332000Y-52693184D01*
X185332000Y-52693184D01*
G37*
G36*
X211506610Y-50241220D02*
G01*
X211734095Y-50335448D01*
X211734097Y-50335449D01*
X211938828Y-50472246D01*
X212112938Y-50646356D01*
X212249736Y-50851089D01*
X212343964Y-51078574D01*
X212392000Y-51320068D01*
X212392000Y-51566300D01*
X212343964Y-51807794D01*
X212261035Y-52008000D01*
X212249735Y-52035281D01*
X212112938Y-52240012D01*
X211938828Y-52414122D01*
X211734097Y-52550919D01*
X211734096Y-52550920D01*
X211734095Y-52550920D01*
X211506610Y-52645148D01*
X211265116Y-52693184D01*
X211018884Y-52693184D01*
X210777390Y-52645148D01*
X210549905Y-52550920D01*
X210549904Y-52550920D01*
X210549903Y-52550919D01*
X210345172Y-52414122D01*
X210171062Y-52240012D01*
X210034265Y-52035281D01*
X210022965Y-52008000D01*
X209940036Y-51807794D01*
X209892000Y-51566300D01*
X209892000Y-51320068D01*
X209940036Y-51078574D01*
X210034264Y-50851089D01*
X210171062Y-50646356D01*
X210345172Y-50472246D01*
X210549903Y-50335449D01*
X210549905Y-50335448D01*
X210777390Y-50241220D01*
X211018884Y-50193184D01*
X211265116Y-50193184D01*
X211506610Y-50241220D01*
X211506610Y-50241220D01*
G37*
G36*
X105517000Y-52693184D02*
G01*
X103017000Y-52693184D01*
X103017000Y-50193184D01*
X105517000Y-50193184D01*
X105517000Y-52693184D01*
X105517000Y-52693184D01*
G37*
G36*
X135362000Y-52693184D02*
G01*
X132862000Y-52693184D01*
X132862000Y-50193184D01*
X135362000Y-50193184D01*
X135362000Y-52693184D01*
X135362000Y-52693184D01*
G37*
G36*
X145137000Y-52143000D02*
G01*
X142137000Y-52143000D01*
X142137000Y-50143000D01*
X145137000Y-50143000D01*
X145137000Y-52143000D01*
X145137000Y-52143000D01*
G37*
G36*
X115292000Y-52143000D02*
G01*
X112292000Y-52143000D01*
X112292000Y-50143000D01*
X115292000Y-50143000D01*
X115292000Y-52143000D01*
X115292000Y-52143000D01*
G37*
G36*
X148197000Y-52008000D02*
G01*
X146697000Y-52008000D01*
X146697000Y-50608000D01*
X148197000Y-50608000D01*
X148197000Y-52008000D01*
X148197000Y-52008000D01*
G37*
G36*
X118352000Y-52008000D02*
G01*
X116852000Y-52008000D01*
X116852000Y-50608000D01*
X118352000Y-50608000D01*
X118352000Y-52008000D01*
X118352000Y-52008000D01*
G37*
G36*
X122577000Y-47728000D02*
G01*
X120577000Y-47728000D01*
X120577000Y-44728000D01*
X122577000Y-44728000D01*
X122577000Y-47728000D01*
X122577000Y-47728000D01*
G37*
G36*
X127327000Y-47728000D02*
G01*
X125327000Y-47728000D01*
X125327000Y-44728000D01*
X127327000Y-44728000D01*
X127327000Y-47728000D01*
X127327000Y-47728000D01*
G37*
G36*
X152422000Y-47728000D02*
G01*
X150422000Y-47728000D01*
X150422000Y-44728000D01*
X152422000Y-44728000D01*
X152422000Y-47728000D01*
X152422000Y-47728000D01*
G37*
G36*
X157172000Y-47728000D02*
G01*
X155172000Y-47728000D01*
X155172000Y-44728000D01*
X157172000Y-44728000D01*
X157172000Y-47728000D01*
X157172000Y-47728000D01*
G37*
G36*
X145137000Y-47393000D02*
G01*
X142137000Y-47393000D01*
X142137000Y-45393000D01*
X145137000Y-45393000D01*
X145137000Y-47393000D01*
X145137000Y-47393000D01*
G37*
G36*
X115292000Y-47393000D02*
G01*
X112292000Y-47393000D01*
X112292000Y-45393000D01*
X115292000Y-45393000D01*
X115292000Y-47393000D01*
X115292000Y-47393000D01*
G37*
G36*
X218026222Y-41739257D02*
G01*
X218481192Y-41927712D01*
X218481194Y-41927713D01*
X218687315Y-42065439D01*
X218890656Y-42201307D01*
X219238877Y-42549528D01*
X219512472Y-42958992D01*
X219700927Y-43413962D01*
X219797000Y-43896954D01*
X219797000Y-44389414D01*
X219700927Y-44872406D01*
X219658839Y-44974015D01*
X219512471Y-45327378D01*
X219393383Y-45505605D01*
X219265124Y-45697559D01*
X219238876Y-45736841D01*
X218890657Y-46085060D01*
X218481194Y-46358655D01*
X218481193Y-46358656D01*
X218481192Y-46358656D01*
X218026222Y-46547111D01*
X217543230Y-46643184D01*
X217050770Y-46643184D01*
X216567778Y-46547111D01*
X216112808Y-46358656D01*
X216112807Y-46358656D01*
X216112806Y-46358655D01*
X215703343Y-46085060D01*
X215355124Y-45736841D01*
X215328877Y-45697559D01*
X215200617Y-45505605D01*
X215081529Y-45327378D01*
X214935161Y-44974015D01*
X214893073Y-44872406D01*
X214797000Y-44389414D01*
X214797000Y-43896954D01*
X214893073Y-43413962D01*
X215081528Y-42958992D01*
X215355123Y-42549528D01*
X215703344Y-42201307D01*
X215906685Y-42065439D01*
X216112806Y-41927713D01*
X216112808Y-41927712D01*
X216567778Y-41739257D01*
X217050770Y-41643184D01*
X217543230Y-41643184D01*
X218026222Y-41739257D01*
X218026222Y-41739257D01*
G37*
G36*
X90137222Y-41739257D02*
G01*
X90592192Y-41927712D01*
X90592194Y-41927713D01*
X90798315Y-42065439D01*
X91001656Y-42201307D01*
X91349877Y-42549528D01*
X91623472Y-42958992D01*
X91811927Y-43413962D01*
X91908000Y-43896954D01*
X91908000Y-44389414D01*
X91811927Y-44872406D01*
X91769839Y-44974015D01*
X91623471Y-45327378D01*
X91504383Y-45505605D01*
X91376124Y-45697559D01*
X91349876Y-45736841D01*
X91001657Y-46085060D01*
X90592194Y-46358655D01*
X90592193Y-46358656D01*
X90592192Y-46358656D01*
X90137222Y-46547111D01*
X89654230Y-46643184D01*
X89161770Y-46643184D01*
X88678778Y-46547111D01*
X88223808Y-46358656D01*
X88223807Y-46358656D01*
X88223806Y-46358655D01*
X87814343Y-46085060D01*
X87466124Y-45736841D01*
X87439877Y-45697559D01*
X87311617Y-45505605D01*
X87192529Y-45327378D01*
X87046161Y-44974015D01*
X87004073Y-44872406D01*
X86908000Y-44389414D01*
X86908000Y-43896954D01*
X87004073Y-43413962D01*
X87192528Y-42958992D01*
X87466123Y-42549528D01*
X87814344Y-42201307D01*
X88017685Y-42065439D01*
X88223806Y-41927713D01*
X88223808Y-41927712D01*
X88678778Y-41739257D01*
X89161770Y-41643184D01*
X89654230Y-41643184D01*
X90137222Y-41739257D01*
X90137222Y-41739257D01*
G37*
G36*
X209553623Y-42456589D02*
G01*
X209872831Y-42588809D01*
X210160110Y-42780763D01*
X210404421Y-43025074D01*
X210596375Y-43312353D01*
X210728595Y-43631561D01*
X210796000Y-43970430D01*
X210796000Y-44315938D01*
X210728595Y-44654807D01*
X210596375Y-44974015D01*
X210404421Y-45261294D01*
X210160110Y-45505605D01*
X209872831Y-45697559D01*
X209872830Y-45697560D01*
X209872829Y-45697560D01*
X209553623Y-45829779D01*
X209214755Y-45897184D01*
X208869245Y-45897184D01*
X208530377Y-45829779D01*
X208211171Y-45697560D01*
X208211170Y-45697560D01*
X208211169Y-45697559D01*
X207923890Y-45505605D01*
X207679579Y-45261294D01*
X207487625Y-44974015D01*
X207355405Y-44654807D01*
X207288000Y-44315938D01*
X207288000Y-43970430D01*
X207355405Y-43631561D01*
X207487625Y-43312353D01*
X207679579Y-43025074D01*
X207923890Y-42780763D01*
X208211169Y-42588809D01*
X208530377Y-42456589D01*
X208869245Y-42389184D01*
X209214755Y-42389184D01*
X209553623Y-42456589D01*
X209553623Y-42456589D01*
G37*
G36*
X104778623Y-42456589D02*
G01*
X105097831Y-42588809D01*
X105385110Y-42780763D01*
X105629421Y-43025074D01*
X105821375Y-43312353D01*
X105953595Y-43631561D01*
X106021000Y-43970430D01*
X106021000Y-44315938D01*
X105953595Y-44654807D01*
X105821375Y-44974015D01*
X105629421Y-45261294D01*
X105385110Y-45505605D01*
X105097831Y-45697559D01*
X105097830Y-45697560D01*
X105097829Y-45697560D01*
X104778623Y-45829779D01*
X104439755Y-45897184D01*
X104094245Y-45897184D01*
X103755377Y-45829779D01*
X103436171Y-45697560D01*
X103436170Y-45697560D01*
X103436169Y-45697559D01*
X103148890Y-45505605D01*
X102904579Y-45261294D01*
X102712625Y-44974015D01*
X102580405Y-44654807D01*
X102513000Y-44315938D01*
X102513000Y-43970430D01*
X102580405Y-43631561D01*
X102712625Y-43312353D01*
X102904579Y-43025074D01*
X103148890Y-42780763D01*
X103436169Y-42588809D01*
X103755377Y-42456589D01*
X104094245Y-42389184D01*
X104439755Y-42389184D01*
X104778623Y-42456589D01*
X104778623Y-42456589D01*
G37*
G36*
X134623623Y-42456589D02*
G01*
X134942831Y-42588809D01*
X135230110Y-42780763D01*
X135474421Y-43025074D01*
X135666375Y-43312353D01*
X135798595Y-43631561D01*
X135866000Y-43970430D01*
X135866000Y-44315938D01*
X135798595Y-44654807D01*
X135666375Y-44974015D01*
X135474421Y-45261294D01*
X135230110Y-45505605D01*
X134942831Y-45697559D01*
X134942830Y-45697560D01*
X134942829Y-45697560D01*
X134623623Y-45829779D01*
X134284755Y-45897184D01*
X133939245Y-45897184D01*
X133600377Y-45829779D01*
X133281171Y-45697560D01*
X133281170Y-45697560D01*
X133281169Y-45697559D01*
X132993890Y-45505605D01*
X132749579Y-45261294D01*
X132557625Y-44974015D01*
X132425405Y-44654807D01*
X132358000Y-44315938D01*
X132358000Y-43970430D01*
X132425405Y-43631561D01*
X132557625Y-43312353D01*
X132749579Y-43025074D01*
X132993890Y-42780763D01*
X133281169Y-42588809D01*
X133600377Y-42456589D01*
X133939245Y-42389184D01*
X134284755Y-42389184D01*
X134623623Y-42456589D01*
X134623623Y-42456589D01*
G37*
G36*
X186693623Y-42456589D02*
G01*
X187012831Y-42588809D01*
X187300110Y-42780763D01*
X187544421Y-43025074D01*
X187736375Y-43312353D01*
X187868595Y-43631561D01*
X187936000Y-43970430D01*
X187936000Y-44315938D01*
X187868595Y-44654807D01*
X187736375Y-44974015D01*
X187544421Y-45261294D01*
X187300110Y-45505605D01*
X187012831Y-45697559D01*
X187012830Y-45697560D01*
X187012829Y-45697560D01*
X186693623Y-45829779D01*
X186354755Y-45897184D01*
X186009245Y-45897184D01*
X185670377Y-45829779D01*
X185351171Y-45697560D01*
X185351170Y-45697560D01*
X185351169Y-45697559D01*
X185063890Y-45505605D01*
X184819579Y-45261294D01*
X184627625Y-44974015D01*
X184495405Y-44654807D01*
X184428000Y-44315938D01*
X184428000Y-43970430D01*
X184495405Y-43631561D01*
X184627625Y-43312353D01*
X184819579Y-43025074D01*
X185063890Y-42780763D01*
X185351169Y-42588809D01*
X185670377Y-42456589D01*
X186009245Y-42389184D01*
X186354755Y-42389184D01*
X186693623Y-42456589D01*
X186693623Y-42456589D01*
G37*
G36*
X164468623Y-42456589D02*
G01*
X164787831Y-42588809D01*
X165075110Y-42780763D01*
X165319421Y-43025074D01*
X165511375Y-43312353D01*
X165643595Y-43631561D01*
X165711000Y-43970430D01*
X165711000Y-44315938D01*
X165643595Y-44654807D01*
X165511375Y-44974015D01*
X165319421Y-45261294D01*
X165075110Y-45505605D01*
X164787831Y-45697559D01*
X164787830Y-45697560D01*
X164787829Y-45697560D01*
X164468623Y-45829779D01*
X164129755Y-45897184D01*
X163784245Y-45897184D01*
X163445377Y-45829779D01*
X163126171Y-45697560D01*
X163126170Y-45697560D01*
X163126169Y-45697559D01*
X162838890Y-45505605D01*
X162594579Y-45261294D01*
X162402625Y-44974015D01*
X162270405Y-44654807D01*
X162203000Y-44315938D01*
X162203000Y-43970430D01*
X162270405Y-43631561D01*
X162402625Y-43312353D01*
X162594579Y-43025074D01*
X162838890Y-42780763D01*
X163126169Y-42588809D01*
X163445377Y-42456589D01*
X163784245Y-42389184D01*
X164129755Y-42389184D01*
X164468623Y-42456589D01*
X164468623Y-42456589D01*
G37*
G36*
X175263623Y-42456589D02*
G01*
X175582831Y-42588809D01*
X175870110Y-42780763D01*
X176114421Y-43025074D01*
X176306375Y-43312353D01*
X176438595Y-43631561D01*
X176506000Y-43970430D01*
X176506000Y-44315938D01*
X176438595Y-44654807D01*
X176306375Y-44974015D01*
X176114421Y-45261294D01*
X175870110Y-45505605D01*
X175582831Y-45697559D01*
X175582830Y-45697560D01*
X175582829Y-45697560D01*
X175263623Y-45829779D01*
X174924755Y-45897184D01*
X174579245Y-45897184D01*
X174240377Y-45829779D01*
X173921171Y-45697560D01*
X173921170Y-45697560D01*
X173921169Y-45697559D01*
X173633890Y-45505605D01*
X173389579Y-45261294D01*
X173197625Y-44974015D01*
X173065405Y-44654807D01*
X172998000Y-44315938D01*
X172998000Y-43970430D01*
X173065405Y-43631561D01*
X173197625Y-43312353D01*
X173389579Y-43025074D01*
X173633890Y-42780763D01*
X173921169Y-42588809D01*
X174240377Y-42456589D01*
X174579245Y-42389184D01*
X174924755Y-42389184D01*
X175263623Y-42456589D01*
X175263623Y-42456589D01*
G37*
G36*
X198123623Y-42456589D02*
G01*
X198442831Y-42588809D01*
X198730110Y-42780763D01*
X198974421Y-43025074D01*
X199166375Y-43312353D01*
X199298595Y-43631561D01*
X199366000Y-43970430D01*
X199366000Y-44315938D01*
X199298595Y-44654807D01*
X199166375Y-44974015D01*
X198974421Y-45261294D01*
X198730110Y-45505605D01*
X198442831Y-45697559D01*
X198442830Y-45697560D01*
X198442829Y-45697560D01*
X198123623Y-45829779D01*
X197784755Y-45897184D01*
X197439245Y-45897184D01*
X197100377Y-45829779D01*
X196781171Y-45697560D01*
X196781170Y-45697560D01*
X196781169Y-45697559D01*
X196493890Y-45505605D01*
X196249579Y-45261294D01*
X196057625Y-44974015D01*
X195925405Y-44654807D01*
X195858000Y-44315938D01*
X195858000Y-43970430D01*
X195925405Y-43631561D01*
X196057625Y-43312353D01*
X196249579Y-43025074D01*
X196493890Y-42780763D01*
X196781169Y-42588809D01*
X197100377Y-42456589D01*
X197439245Y-42389184D01*
X197784755Y-42389184D01*
X198123623Y-42456589D01*
X198123623Y-42456589D01*
G37*
G36*
X147042926Y-38888029D02*
G01*
X147108356Y-38901044D01*
X147293256Y-38977632D01*
X147459662Y-39088821D01*
X147601179Y-39230338D01*
X147712368Y-39396744D01*
X147788956Y-39581645D01*
X147828000Y-39777931D01*
X147828000Y-39978069D01*
X147801971Y-40108926D01*
X147788956Y-40174356D01*
X147712368Y-40359256D01*
X147601179Y-40525662D01*
X147459662Y-40667179D01*
X147293256Y-40778368D01*
X147108356Y-40854956D01*
X147042926Y-40867971D01*
X146912069Y-40894000D01*
X146711931Y-40894000D01*
X146581074Y-40867971D01*
X146515644Y-40854956D01*
X146330744Y-40778368D01*
X146164338Y-40667179D01*
X146022821Y-40525662D01*
X145911632Y-40359256D01*
X145835044Y-40174356D01*
X145822029Y-40108926D01*
X145796000Y-39978069D01*
X145796000Y-39777931D01*
X145835044Y-39581645D01*
X145911632Y-39396744D01*
X146022821Y-39230338D01*
X146164338Y-39088821D01*
X146330744Y-38977632D01*
X146515644Y-38901044D01*
X146581074Y-38888029D01*
X146711931Y-38862000D01*
X146912069Y-38862000D01*
X147042926Y-38888029D01*
X147042926Y-38888029D01*
G37*
G36*
X152122926Y-38888029D02*
G01*
X152188356Y-38901044D01*
X152373256Y-38977632D01*
X152539662Y-39088821D01*
X152681179Y-39230338D01*
X152792368Y-39396744D01*
X152868956Y-39581645D01*
X152908000Y-39777931D01*
X152908000Y-39978069D01*
X152881971Y-40108926D01*
X152868956Y-40174356D01*
X152792368Y-40359256D01*
X152681179Y-40525662D01*
X152539662Y-40667179D01*
X152373256Y-40778368D01*
X152188356Y-40854956D01*
X152122926Y-40867971D01*
X151992069Y-40894000D01*
X151791931Y-40894000D01*
X151661074Y-40867971D01*
X151595644Y-40854956D01*
X151410744Y-40778368D01*
X151244338Y-40667179D01*
X151102821Y-40525662D01*
X150991632Y-40359256D01*
X150915044Y-40174356D01*
X150902029Y-40108926D01*
X150876000Y-39978069D01*
X150876000Y-39777931D01*
X150915044Y-39581645D01*
X150991632Y-39396744D01*
X151102821Y-39230338D01*
X151244338Y-39088821D01*
X151410744Y-38977632D01*
X151595644Y-38901044D01*
X151661074Y-38888029D01*
X151791931Y-38862000D01*
X151992069Y-38862000D01*
X152122926Y-38888029D01*
X152122926Y-38888029D01*
G37*
G36*
X121962926Y-38708213D02*
G01*
X122028356Y-38721228D01*
X122213256Y-38797816D01*
X122379662Y-38909005D01*
X122521179Y-39050522D01*
X122632368Y-39216928D01*
X122708956Y-39401829D01*
X122744724Y-39581644D01*
X122748000Y-39598117D01*
X122748000Y-39798251D01*
X122708956Y-39994540D01*
X122632368Y-40179440D01*
X122521179Y-40345846D01*
X122379662Y-40487363D01*
X122213256Y-40598552D01*
X122028356Y-40675140D01*
X121962926Y-40688155D01*
X121832069Y-40714184D01*
X121631931Y-40714184D01*
X121501074Y-40688155D01*
X121435644Y-40675140D01*
X121250744Y-40598552D01*
X121084338Y-40487363D01*
X120942821Y-40345846D01*
X120831632Y-40179440D01*
X120755044Y-39994540D01*
X120716000Y-39798251D01*
X120716000Y-39598117D01*
X120719277Y-39581644D01*
X120755044Y-39401829D01*
X120831632Y-39216928D01*
X120942821Y-39050522D01*
X121084338Y-38909005D01*
X121250744Y-38797816D01*
X121435644Y-38721228D01*
X121501074Y-38708213D01*
X121631931Y-38682184D01*
X121832069Y-38682184D01*
X121962926Y-38708213D01*
X121962926Y-38708213D01*
G37*
G36*
X116882926Y-38708213D02*
G01*
X116948356Y-38721228D01*
X117133256Y-38797816D01*
X117299662Y-38909005D01*
X117441179Y-39050522D01*
X117552368Y-39216928D01*
X117628956Y-39401829D01*
X117664724Y-39581644D01*
X117668000Y-39598117D01*
X117668000Y-39798251D01*
X117628956Y-39994540D01*
X117552368Y-40179440D01*
X117441179Y-40345846D01*
X117299662Y-40487363D01*
X117133256Y-40598552D01*
X116948356Y-40675140D01*
X116882926Y-40688155D01*
X116752069Y-40714184D01*
X116551931Y-40714184D01*
X116421074Y-40688155D01*
X116355644Y-40675140D01*
X116170744Y-40598552D01*
X116004338Y-40487363D01*
X115862821Y-40345846D01*
X115751632Y-40179440D01*
X115675044Y-39994540D01*
X115636000Y-39798251D01*
X115636000Y-39598117D01*
X115639277Y-39581644D01*
X115675044Y-39401829D01*
X115751632Y-39216928D01*
X115862821Y-39050522D01*
X116004338Y-38909005D01*
X116170744Y-38797816D01*
X116355644Y-38721228D01*
X116421074Y-38708213D01*
X116551931Y-38682184D01*
X116752069Y-38682184D01*
X116882926Y-38708213D01*
X116882926Y-38708213D01*
G37*
M02*
