M48
INCH,TZ
T10C0.016
T11C0.024
T12C0.031
T13C0.035
T14C0.039
T15C0.043
T16C0.051
T17C0.059
T18C0.100
T19C0.138
%
T10
X021800Y-38500
X022600Y-37200
X029703Y-38403
X029900Y-43700
X030600Y-41300
X031097Y-41297
X031430Y-34571
X031800Y-41400
X031900Y-39600
X032200Y-40600
X032300Y-34500
X032500Y-41200
X032600Y-35900
X033000Y-32800
X033097Y-41097
X033200Y-38400
X033300Y-37500
X034300Y-38900
X035032Y-40669
X035400Y-40400
X035700Y-33300
X036100Y-33600
X036300Y-31000
X036419Y-33929
X036600Y-31307
X036703Y-34203
X036900Y-36000
X036900Y-32800
X037000Y-31500
X037000Y-32100
X037100Y-34500
X037400Y-31800
X037400Y-32400
X037800Y-37100
X037903Y-34797
X038382Y-37180
X038400Y-35200
X039600Y-36300
X039700Y-35500
X041001Y-40499
X041500Y-40800
X041900Y-41200
X042200Y-41600
X042600Y-42000
X043300Y-42100
X043800Y-42000
X043900Y-41400
X044300Y-40900
X044700Y-40500
X045100Y-40000
X045700Y-39600
X046300Y-34000
X046400Y-29900
X046500Y-39500
X047800Y-39500
X048400Y-31800
X048700Y-39600
X049900Y-39800
X050500Y-33600
X050600Y-39900
X052200Y-39600
X055700Y-30400
X058400Y-32700
T11
X020400Y-21300
X022900Y-23900
X025700Y-19700
X025700Y-23900
X026700Y-19700
X027700Y-19700
X028000Y-36200
X028200Y-37500
X028700Y-19700
X029200Y-35800
X029700Y-19700
X030700Y-19700
X030801Y-35700
X031200Y-25430
X031700Y-19700
X032700Y-19700
X033300Y-39000
X033700Y-19700
X033700Y-25500
X034100Y-36000
X034700Y-19700
X035200Y-37300
X035700Y-19700
X035700Y-26700
X036700Y-19700
X037700Y-19700
X038100Y-23800
X038700Y-19700
X038900Y-38200
X039500Y-27000
X039700Y-19700
X040700Y-19700
X041700Y-19700
X042400Y-27300
X042700Y-19700
X043700Y-19700
X044100Y-22900
X044700Y-19700
X045700Y-19700
X046700Y-19700
X047700Y-19700
X048700Y-19700
X049500Y-23900
X049700Y-19700
X050700Y-19700
X050700Y-22400
X051600Y-34100
X051700Y-19700
X052700Y-19700
X052800Y-21600
X053700Y-19700
X055400Y-40900
T12
X027100Y-27200
X028000Y-27900
X028800Y-28200
X033700Y-28425
X034800Y-28500
X035300Y-23600
X035500Y-29128
T13
X020700Y-27900
X020700Y-28900
X020700Y-30700
X020700Y-31700
X020700Y-33500
X020700Y-34500
X020700Y-36300
X020700Y-37300
X020700Y-39100
X020700Y-40100
X020700Y-41900
X020700Y-42900
X020900Y-45300
X021900Y-45300
X022900Y-45300
X023900Y-45300
X024900Y-45300
X025900Y-45300
X026900Y-45300
X027900Y-45300
X028600Y-42800
X028900Y-45300
X029600Y-42800
X029900Y-45300
X030600Y-42800
X030900Y-45300
X031900Y-45300
X032900Y-45300
X033900Y-45300
X034900Y-45300
X035900Y-45300
X036600Y-27700
X036900Y-45300
X037600Y-27700
X037900Y-45300
X038900Y-45300
X039900Y-45300
X040900Y-45300
X041900Y-45300
X042900Y-45300
X043900Y-45300
X044900Y-45300
X045900Y-45300
X046900Y-45300
X047900Y-45300
X048900Y-45300
X049900Y-45300
X050900Y-45300
X051900Y-45300
X052900Y-45300
X053900Y-45300
X054900Y-45300
X055900Y-45300
X056900Y-45300
X057500Y-30400
X057500Y-31400
X057500Y-32400
X057500Y-33400
X057500Y-34400
X057500Y-35400
X057500Y-38100
X057500Y-39100
X057500Y-40100
X057900Y-45300
T14
X041700Y-25200
X042700Y-25200
X043700Y-25200
T15
X029200Y-23400
X029300Y-26500
X032800Y-23400
X032900Y-26300
X046400Y-27953
X048600Y-27953
X050800Y-27953
X053000Y-27953
X053400Y-38000
X053400Y-39100
X053400Y-40200
X055200Y-27953
T16
X022900Y-21600
X022900Y-23000
X023600Y-22300
X024300Y-21600
X024300Y-23000
X053600Y-22297
X054600Y-21600
X054600Y-22994
X055600Y-21600
X055600Y-22994
T17
X046095Y-25400
X048095Y-25400
T18
X023600Y-19347
X023600Y-25253
X055100Y-19344
X055100Y-25250
T19
X022025Y-19347
X022025Y-25253
X026200Y-18400
X051200Y-18400
X056675Y-19344
X056675Y-25250
M30

