G04 #@! TF.FileFunction,Legend,Top*
%FSLAX46Y46*%
G04 Gerber Fmt 4.6, Leading zero omitted, Abs format (unit mm)*
G04 Created by KiCad (PCBNEW 4.0.5+dfsg1-4) date Sun May  7 16:42:39 2017*
%MOMM*%
%LPD*%
G01*
G04 APERTURE LIST*
%ADD10C,0.100000*%
%ADD11C,0.203200*%
%ADD12C,0.200000*%
%ADD13C,0.508000*%
%ADD14C,0.254000*%
%ADD15C,0.150000*%
%ADD16C,0.500000*%
G04 APERTURE END LIST*
D10*
D11*
X81280000Y-87128048D02*
X81461428Y-87188524D01*
X81763809Y-87188524D01*
X81884762Y-87128048D01*
X81945238Y-87067571D01*
X82005714Y-86946619D01*
X82005714Y-86825667D01*
X81945238Y-86704714D01*
X81884762Y-86644238D01*
X81763809Y-86583762D01*
X81521905Y-86523286D01*
X81400952Y-86462810D01*
X81340476Y-86402333D01*
X81280000Y-86281381D01*
X81280000Y-86160429D01*
X81340476Y-86039476D01*
X81400952Y-85979000D01*
X81521905Y-85918524D01*
X81824285Y-85918524D01*
X82005714Y-85979000D01*
X82368571Y-85918524D02*
X83094286Y-85918524D01*
X82731429Y-87188524D02*
X82731429Y-85918524D01*
X83517619Y-87188524D02*
X83517619Y-85918524D01*
X83940952Y-86825667D01*
X84364286Y-85918524D01*
X84364286Y-87188524D01*
X84848096Y-85918524D02*
X85634286Y-85918524D01*
X85210953Y-86402333D01*
X85392381Y-86402333D01*
X85513334Y-86462810D01*
X85573810Y-86523286D01*
X85634286Y-86644238D01*
X85634286Y-86946619D01*
X85573810Y-87067571D01*
X85513334Y-87128048D01*
X85392381Y-87188524D01*
X85029524Y-87188524D01*
X84908572Y-87128048D01*
X84848096Y-87067571D01*
X86118096Y-86039476D02*
X86178572Y-85979000D01*
X86299524Y-85918524D01*
X86601905Y-85918524D01*
X86722858Y-85979000D01*
X86783334Y-86039476D01*
X86843810Y-86160429D01*
X86843810Y-86281381D01*
X86783334Y-86462810D01*
X86057620Y-87188524D01*
X86843810Y-87188524D01*
X87811429Y-86523286D02*
X87388096Y-86523286D01*
X87388096Y-87188524D02*
X87388096Y-85918524D01*
X87992858Y-85918524D01*
X89020953Y-86341857D02*
X89020953Y-87188524D01*
X88718572Y-85858048D02*
X88416191Y-86765190D01*
X89202381Y-86765190D01*
X90230477Y-86341857D02*
X90230477Y-87188524D01*
X89928096Y-85858048D02*
X89625715Y-86765190D01*
X90411905Y-86765190D01*
X91440001Y-85918524D02*
X91198096Y-85918524D01*
X91077144Y-85979000D01*
X91016667Y-86039476D01*
X90895715Y-86220905D01*
X90835239Y-86462810D01*
X90835239Y-86946619D01*
X90895715Y-87067571D01*
X90956191Y-87128048D01*
X91077144Y-87188524D01*
X91319048Y-87188524D01*
X91440001Y-87128048D01*
X91500477Y-87067571D01*
X91560953Y-86946619D01*
X91560953Y-86644238D01*
X91500477Y-86523286D01*
X91440001Y-86462810D01*
X91319048Y-86402333D01*
X91077144Y-86402333D01*
X90956191Y-86462810D01*
X90895715Y-86523286D01*
X90835239Y-86644238D01*
X92830953Y-87188524D02*
X92407620Y-86583762D01*
X92105239Y-87188524D02*
X92105239Y-85918524D01*
X92589048Y-85918524D01*
X92710001Y-85979000D01*
X92770477Y-86039476D01*
X92830953Y-86160429D01*
X92830953Y-86341857D01*
X92770477Y-86462810D01*
X92710001Y-86523286D01*
X92589048Y-86583762D01*
X92105239Y-86583762D01*
X93375239Y-86523286D02*
X93798572Y-86523286D01*
X93980001Y-87188524D02*
X93375239Y-87188524D01*
X93375239Y-85918524D01*
X93980001Y-85918524D01*
X143049524Y-85518286D02*
X143144762Y-85232571D01*
X143144762Y-84756381D01*
X143049524Y-84565905D01*
X142954286Y-84470667D01*
X142763810Y-84375428D01*
X142573333Y-84375428D01*
X142382857Y-84470667D01*
X142287619Y-84565905D01*
X142192381Y-84756381D01*
X142097143Y-85137333D01*
X142001905Y-85327809D01*
X141906667Y-85423048D01*
X141716190Y-85518286D01*
X141525714Y-85518286D01*
X141335238Y-85423048D01*
X141240000Y-85327809D01*
X141144762Y-85137333D01*
X141144762Y-84661143D01*
X141240000Y-84375428D01*
X141144762Y-83708762D02*
X143144762Y-83232571D01*
X141716190Y-82851619D01*
X143144762Y-82470666D01*
X141144762Y-81994476D01*
X143144762Y-81232572D02*
X141144762Y-81232572D01*
X141144762Y-80756381D01*
X141240000Y-80470667D01*
X141430476Y-80280191D01*
X141620952Y-80184952D01*
X142001905Y-80089714D01*
X142287619Y-80089714D01*
X142668571Y-80184952D01*
X142859048Y-80280191D01*
X143049524Y-80470667D01*
X143144762Y-80756381D01*
X143144762Y-81232572D01*
D12*
X78740000Y-55778400D02*
X78740000Y-57962800D01*
D11*
X69054134Y-53685924D02*
X69779849Y-53685924D01*
X69416992Y-54955924D02*
X69416992Y-53685924D01*
X70686991Y-54895448D02*
X70566039Y-54955924D01*
X70324134Y-54955924D01*
X70203182Y-54895448D01*
X70142706Y-54774495D01*
X70142706Y-54290686D01*
X70203182Y-54169733D01*
X70324134Y-54109257D01*
X70566039Y-54109257D01*
X70686991Y-54169733D01*
X70747468Y-54290686D01*
X70747468Y-54411638D01*
X70142706Y-54532590D01*
X71291753Y-54955924D02*
X71291753Y-54109257D01*
X71291753Y-54351162D02*
X71352229Y-54230210D01*
X71412705Y-54169733D01*
X71533658Y-54109257D01*
X71654610Y-54109257D01*
X72077943Y-54955924D02*
X72077943Y-54109257D01*
X72077943Y-54230210D02*
X72138419Y-54169733D01*
X72259372Y-54109257D01*
X72440800Y-54109257D01*
X72561752Y-54169733D01*
X72622229Y-54290686D01*
X72622229Y-54955924D01*
X72622229Y-54290686D02*
X72682705Y-54169733D01*
X72803657Y-54109257D01*
X72985086Y-54109257D01*
X73106038Y-54169733D01*
X73166514Y-54290686D01*
X73166514Y-54955924D01*
X73771276Y-54955924D02*
X73771276Y-54109257D01*
X73771276Y-53685924D02*
X73710800Y-53746400D01*
X73771276Y-53806876D01*
X73831752Y-53746400D01*
X73771276Y-53685924D01*
X73771276Y-53806876D01*
X74376038Y-54109257D02*
X74376038Y-54955924D01*
X74376038Y-54230210D02*
X74436514Y-54169733D01*
X74557467Y-54109257D01*
X74738895Y-54109257D01*
X74859847Y-54169733D01*
X74920324Y-54290686D01*
X74920324Y-54955924D01*
X76069372Y-54955924D02*
X76069372Y-54290686D01*
X76008895Y-54169733D01*
X75887943Y-54109257D01*
X75646038Y-54109257D01*
X75525086Y-54169733D01*
X76069372Y-54895448D02*
X75948419Y-54955924D01*
X75646038Y-54955924D01*
X75525086Y-54895448D01*
X75464610Y-54774495D01*
X75464610Y-54653543D01*
X75525086Y-54532590D01*
X75646038Y-54472114D01*
X75948419Y-54472114D01*
X76069372Y-54411638D01*
X76492705Y-54109257D02*
X76976515Y-54109257D01*
X76674134Y-53685924D02*
X76674134Y-54774495D01*
X76734610Y-54895448D01*
X76855563Y-54955924D01*
X76976515Y-54955924D01*
X77399848Y-54955924D02*
X77399848Y-54109257D01*
X77399848Y-53685924D02*
X77339372Y-53746400D01*
X77399848Y-53806876D01*
X77460324Y-53746400D01*
X77399848Y-53685924D01*
X77399848Y-53806876D01*
X78004610Y-54109257D02*
X78004610Y-54955924D01*
X78004610Y-54230210D02*
X78065086Y-54169733D01*
X78186039Y-54109257D01*
X78367467Y-54109257D01*
X78488419Y-54169733D01*
X78548896Y-54290686D01*
X78548896Y-54955924D01*
X79697944Y-54109257D02*
X79697944Y-55137352D01*
X79637467Y-55258305D01*
X79576991Y-55318781D01*
X79456039Y-55379257D01*
X79274610Y-55379257D01*
X79153658Y-55318781D01*
X79697944Y-54895448D02*
X79576991Y-54955924D01*
X79335087Y-54955924D01*
X79214134Y-54895448D01*
X79153658Y-54834971D01*
X79093182Y-54714019D01*
X79093182Y-54351162D01*
X79153658Y-54230210D01*
X79214134Y-54169733D01*
X79335087Y-54109257D01*
X79576991Y-54109257D01*
X79697944Y-54169733D01*
X81996039Y-54955924D02*
X81572706Y-54351162D01*
X81270325Y-54955924D02*
X81270325Y-53685924D01*
X81754134Y-53685924D01*
X81875087Y-53746400D01*
X81935563Y-53806876D01*
X81996039Y-53927829D01*
X81996039Y-54109257D01*
X81935563Y-54230210D01*
X81875087Y-54290686D01*
X81754134Y-54351162D01*
X81270325Y-54351162D01*
X83024134Y-54895448D02*
X82903182Y-54955924D01*
X82661277Y-54955924D01*
X82540325Y-54895448D01*
X82479849Y-54774495D01*
X82479849Y-54290686D01*
X82540325Y-54169733D01*
X82661277Y-54109257D01*
X82903182Y-54109257D01*
X83024134Y-54169733D01*
X83084611Y-54290686D01*
X83084611Y-54411638D01*
X82479849Y-54532590D01*
X83568420Y-54895448D02*
X83689372Y-54955924D01*
X83931277Y-54955924D01*
X84052229Y-54895448D01*
X84112705Y-54774495D01*
X84112705Y-54714019D01*
X84052229Y-54593067D01*
X83931277Y-54532590D01*
X83749848Y-54532590D01*
X83628896Y-54472114D01*
X83568420Y-54351162D01*
X83568420Y-54290686D01*
X83628896Y-54169733D01*
X83749848Y-54109257D01*
X83931277Y-54109257D01*
X84052229Y-54169733D01*
X84656991Y-54955924D02*
X84656991Y-54109257D01*
X84656991Y-53685924D02*
X84596515Y-53746400D01*
X84656991Y-53806876D01*
X84717467Y-53746400D01*
X84656991Y-53685924D01*
X84656991Y-53806876D01*
X85201277Y-54895448D02*
X85322229Y-54955924D01*
X85564134Y-54955924D01*
X85685086Y-54895448D01*
X85745562Y-54774495D01*
X85745562Y-54714019D01*
X85685086Y-54593067D01*
X85564134Y-54532590D01*
X85382705Y-54532590D01*
X85261753Y-54472114D01*
X85201277Y-54351162D01*
X85201277Y-54290686D01*
X85261753Y-54169733D01*
X85382705Y-54109257D01*
X85564134Y-54109257D01*
X85685086Y-54169733D01*
X86108419Y-54109257D02*
X86592229Y-54109257D01*
X86289848Y-53685924D02*
X86289848Y-54774495D01*
X86350324Y-54895448D01*
X86471277Y-54955924D01*
X86592229Y-54955924D01*
X87196991Y-54955924D02*
X87076038Y-54895448D01*
X87015562Y-54834971D01*
X86955086Y-54714019D01*
X86955086Y-54351162D01*
X87015562Y-54230210D01*
X87076038Y-54169733D01*
X87196991Y-54109257D01*
X87378419Y-54109257D01*
X87499371Y-54169733D01*
X87559848Y-54230210D01*
X87620324Y-54351162D01*
X87620324Y-54714019D01*
X87559848Y-54834971D01*
X87499371Y-54895448D01*
X87378419Y-54955924D01*
X87196991Y-54955924D01*
X88164610Y-54955924D02*
X88164610Y-54109257D01*
X88164610Y-54351162D02*
X88225086Y-54230210D01*
X88285562Y-54169733D01*
X88406515Y-54109257D01*
X88527467Y-54109257D01*
X81956124Y-57679771D02*
X81895648Y-57740248D01*
X81714219Y-57800724D01*
X81593267Y-57800724D01*
X81411839Y-57740248D01*
X81290886Y-57619295D01*
X81230410Y-57498343D01*
X81169934Y-57256438D01*
X81169934Y-57075010D01*
X81230410Y-56833105D01*
X81290886Y-56712152D01*
X81411839Y-56591200D01*
X81593267Y-56530724D01*
X81714219Y-56530724D01*
X81895648Y-56591200D01*
X81956124Y-56651676D01*
X82439934Y-57437867D02*
X83044696Y-57437867D01*
X82318981Y-57800724D02*
X82742315Y-56530724D01*
X83165648Y-57800724D01*
X83588981Y-57800724D02*
X83588981Y-56530724D01*
X84314695Y-57800724D01*
X84314695Y-56530724D01*
X85887076Y-57800724D02*
X85887076Y-56530724D01*
X85887076Y-57135486D02*
X86612790Y-57135486D01*
X86612790Y-57800724D02*
X86612790Y-56530724D01*
X71591715Y-57654371D02*
X71531239Y-57714848D01*
X71349810Y-57775324D01*
X71228858Y-57775324D01*
X71047430Y-57714848D01*
X70926477Y-57593895D01*
X70866001Y-57472943D01*
X70805525Y-57231038D01*
X70805525Y-57049610D01*
X70866001Y-56807705D01*
X70926477Y-56686752D01*
X71047430Y-56565800D01*
X71228858Y-56505324D01*
X71349810Y-56505324D01*
X71531239Y-56565800D01*
X71591715Y-56626276D01*
X72075525Y-57412467D02*
X72680287Y-57412467D01*
X71954572Y-57775324D02*
X72377906Y-56505324D01*
X72801239Y-57775324D01*
X73224572Y-57775324D02*
X73224572Y-56505324D01*
X73950286Y-57775324D01*
X73950286Y-56505324D01*
X76127429Y-57775324D02*
X75522667Y-57775324D01*
X75522667Y-56505324D01*
X81683981Y-63845924D02*
X82409696Y-63845924D01*
X82046839Y-65115924D02*
X82046839Y-63845924D01*
X82712077Y-63845924D02*
X83558743Y-65115924D01*
X83558743Y-63845924D02*
X82712077Y-65115924D01*
X74718333Y-65242924D02*
X74295000Y-64638162D01*
X73992619Y-65242924D02*
X73992619Y-63972924D01*
X74476428Y-63972924D01*
X74597381Y-64033400D01*
X74657857Y-64093876D01*
X74718333Y-64214829D01*
X74718333Y-64396257D01*
X74657857Y-64517210D01*
X74597381Y-64577686D01*
X74476428Y-64638162D01*
X73992619Y-64638162D01*
X75141667Y-63972924D02*
X75988333Y-65242924D01*
X75988333Y-63972924D02*
X75141667Y-65242924D01*
X55184524Y-102519238D02*
X56454524Y-102095904D01*
X55184524Y-101672571D01*
X56454524Y-101249238D02*
X55184524Y-101249238D01*
X55668333Y-101249238D02*
X55607857Y-101128286D01*
X55607857Y-100886381D01*
X55668333Y-100765429D01*
X55728810Y-100704952D01*
X55849762Y-100644476D01*
X56212619Y-100644476D01*
X56333571Y-100704952D01*
X56394048Y-100765429D01*
X56454524Y-100886381D01*
X56454524Y-101128286D01*
X56394048Y-101249238D01*
X56454524Y-99555904D02*
X55789286Y-99555904D01*
X55668333Y-99616381D01*
X55607857Y-99737333D01*
X55607857Y-99979238D01*
X55668333Y-100100190D01*
X56394048Y-99555904D02*
X56454524Y-99676857D01*
X56454524Y-99979238D01*
X56394048Y-100100190D01*
X56273095Y-100160666D01*
X56152143Y-100160666D01*
X56031190Y-100100190D01*
X55970714Y-99979238D01*
X55970714Y-99676857D01*
X55910238Y-99555904D01*
X55607857Y-99132571D02*
X55607857Y-98648761D01*
X55184524Y-98951142D02*
X56273095Y-98951142D01*
X56394048Y-98890666D01*
X56454524Y-98769713D01*
X56454524Y-98648761D01*
X55245000Y-107622218D02*
X55184524Y-107743170D01*
X55184524Y-107924599D01*
X55245000Y-108106027D01*
X55365952Y-108226980D01*
X55486905Y-108287456D01*
X55728810Y-108347932D01*
X55910238Y-108347932D01*
X56152143Y-108287456D01*
X56273095Y-108226980D01*
X56394048Y-108106027D01*
X56454524Y-107924599D01*
X56454524Y-107803647D01*
X56394048Y-107622218D01*
X56333571Y-107561742D01*
X55910238Y-107561742D01*
X55910238Y-107803647D01*
X56454524Y-107017456D02*
X55184524Y-107017456D01*
X56454524Y-106291742D01*
X55184524Y-106291742D01*
X56454524Y-105686980D02*
X55184524Y-105686980D01*
X55184524Y-105384599D01*
X55245000Y-105203171D01*
X55365952Y-105082218D01*
X55486905Y-105021742D01*
X55728810Y-104961266D01*
X55910238Y-104961266D01*
X56152143Y-105021742D01*
X56273095Y-105082218D01*
X56394048Y-105203171D01*
X56454524Y-105384599D01*
X56454524Y-105686980D01*
X56454524Y-72922190D02*
X56454524Y-73647904D01*
X56454524Y-73285047D02*
X55184524Y-73285047D01*
X55365952Y-73405999D01*
X55486905Y-73526952D01*
X55547381Y-73647904D01*
X55305476Y-72438380D02*
X55245000Y-72377904D01*
X55184524Y-72256952D01*
X55184524Y-71954571D01*
X55245000Y-71833618D01*
X55305476Y-71773142D01*
X55426429Y-71712666D01*
X55547381Y-71712666D01*
X55728810Y-71773142D01*
X56454524Y-72498856D01*
X56454524Y-71712666D01*
X55184524Y-71349809D02*
X56454524Y-70926475D01*
X55184524Y-70503142D01*
X55184524Y-79489904D02*
X55184524Y-80094666D01*
X55789286Y-80155142D01*
X55728810Y-80094666D01*
X55668333Y-79973714D01*
X55668333Y-79671333D01*
X55728810Y-79550380D01*
X55789286Y-79489904D01*
X55910238Y-79429428D01*
X56212619Y-79429428D01*
X56333571Y-79489904D01*
X56394048Y-79550380D01*
X56454524Y-79671333D01*
X56454524Y-79973714D01*
X56394048Y-80094666D01*
X56333571Y-80155142D01*
X55184524Y-79066571D02*
X56454524Y-78643237D01*
X55184524Y-78219904D01*
X55184524Y-88234761D02*
X55184524Y-87448571D01*
X55668333Y-87871904D01*
X55668333Y-87690476D01*
X55728810Y-87569523D01*
X55789286Y-87509047D01*
X55910238Y-87448571D01*
X56212619Y-87448571D01*
X56333571Y-87509047D01*
X56394048Y-87569523D01*
X56454524Y-87690476D01*
X56454524Y-88053333D01*
X56394048Y-88174285D01*
X56333571Y-88234761D01*
X56333571Y-86904285D02*
X56394048Y-86843809D01*
X56454524Y-86904285D01*
X56394048Y-86964761D01*
X56333571Y-86904285D01*
X56454524Y-86904285D01*
X55184524Y-86420475D02*
X55184524Y-85634285D01*
X55668333Y-86057618D01*
X55668333Y-85876190D01*
X55728810Y-85755237D01*
X55789286Y-85694761D01*
X55910238Y-85634285D01*
X56212619Y-85634285D01*
X56333571Y-85694761D01*
X56394048Y-85755237D01*
X56454524Y-85876190D01*
X56454524Y-86239047D01*
X56394048Y-86359999D01*
X56333571Y-86420475D01*
X55184524Y-85271428D02*
X56454524Y-84848094D01*
X55184524Y-84424761D01*
X55184524Y-95165333D02*
X56454524Y-94741999D01*
X55184524Y-94318666D01*
X56454524Y-93895333D02*
X55184524Y-93895333D01*
X55184524Y-93592952D01*
X55245000Y-93411524D01*
X55365952Y-93290571D01*
X55486905Y-93230095D01*
X55728810Y-93169619D01*
X55910238Y-93169619D01*
X56152143Y-93230095D01*
X56273095Y-93290571D01*
X56394048Y-93411524D01*
X56454524Y-93592952D01*
X56454524Y-93895333D01*
X56454524Y-92625333D02*
X55184524Y-92625333D01*
X55184524Y-92322952D01*
X55245000Y-92141524D01*
X55365952Y-92020571D01*
X55486905Y-91960095D01*
X55728810Y-91899619D01*
X55910238Y-91899619D01*
X56152143Y-91960095D01*
X56273095Y-92020571D01*
X56394048Y-92141524D01*
X56454524Y-92322952D01*
X56454524Y-92625333D01*
X103335667Y-108869238D02*
X103335667Y-108264476D01*
X103698524Y-108990191D02*
X102428524Y-108566857D01*
X103698524Y-108143524D01*
X103638048Y-107780667D02*
X103698524Y-107599239D01*
X103698524Y-107296858D01*
X103638048Y-107175905D01*
X103577571Y-107115429D01*
X103456619Y-107054953D01*
X103335667Y-107054953D01*
X103214714Y-107115429D01*
X103154238Y-107175905D01*
X103093762Y-107296858D01*
X103033286Y-107538762D01*
X102972810Y-107659715D01*
X102912333Y-107720191D01*
X102791381Y-107780667D01*
X102670429Y-107780667D01*
X102549476Y-107720191D01*
X102489000Y-107659715D01*
X102428524Y-107538762D01*
X102428524Y-107236382D01*
X102489000Y-107054953D01*
X103638048Y-106571143D02*
X103698524Y-106389715D01*
X103698524Y-106087334D01*
X103638048Y-105966381D01*
X103577571Y-105905905D01*
X103456619Y-105845429D01*
X103335667Y-105845429D01*
X103214714Y-105905905D01*
X103154238Y-105966381D01*
X103093762Y-106087334D01*
X103033286Y-106329238D01*
X102972810Y-106450191D01*
X102912333Y-106510667D01*
X102791381Y-106571143D01*
X102670429Y-106571143D01*
X102549476Y-106510667D01*
X102489000Y-106450191D01*
X102428524Y-106329238D01*
X102428524Y-106026858D01*
X102489000Y-105845429D01*
X103033286Y-105301143D02*
X103033286Y-104877810D01*
X103698524Y-104696381D02*
X103698524Y-105301143D01*
X102428524Y-105301143D01*
X102428524Y-104696381D01*
X103698524Y-103426381D02*
X103093762Y-103849714D01*
X103698524Y-104152095D02*
X102428524Y-104152095D01*
X102428524Y-103668286D01*
X102489000Y-103547333D01*
X102549476Y-103486857D01*
X102670429Y-103426381D01*
X102851857Y-103426381D01*
X102972810Y-103486857D01*
X103033286Y-103547333D01*
X103093762Y-103668286D01*
X103093762Y-104152095D01*
X102428524Y-103063524D02*
X102428524Y-102337809D01*
X103698524Y-102700666D02*
X102428524Y-102700666D01*
X106543324Y-108453162D02*
X105273324Y-108453162D01*
X105273324Y-108150781D01*
X105333800Y-107969353D01*
X105454752Y-107848400D01*
X105575705Y-107787924D01*
X105817610Y-107727448D01*
X105999038Y-107727448D01*
X106240943Y-107787924D01*
X106361895Y-107848400D01*
X106482848Y-107969353D01*
X106543324Y-108150781D01*
X106543324Y-108453162D01*
X105878086Y-107183162D02*
X105878086Y-106759829D01*
X106543324Y-106578400D02*
X106543324Y-107183162D01*
X105273324Y-107183162D01*
X105273324Y-106578400D01*
X105878086Y-105610781D02*
X105938562Y-105429352D01*
X105999038Y-105368876D01*
X106119990Y-105308400D01*
X106301419Y-105308400D01*
X106422371Y-105368876D01*
X106482848Y-105429352D01*
X106543324Y-105550305D01*
X106543324Y-106034114D01*
X105273324Y-106034114D01*
X105273324Y-105610781D01*
X105333800Y-105489828D01*
X105394276Y-105429352D01*
X105515229Y-105368876D01*
X105636181Y-105368876D01*
X105757133Y-105429352D01*
X105817610Y-105489828D01*
X105878086Y-105610781D01*
X105878086Y-106034114D01*
X105273324Y-104764114D02*
X106301419Y-104764114D01*
X106422371Y-104703638D01*
X106482848Y-104643162D01*
X106543324Y-104522209D01*
X106543324Y-104280305D01*
X106482848Y-104159352D01*
X106422371Y-104098876D01*
X106301419Y-104038400D01*
X105273324Y-104038400D01*
X105333800Y-102768400D02*
X105273324Y-102889352D01*
X105273324Y-103070781D01*
X105333800Y-103252209D01*
X105454752Y-103373162D01*
X105575705Y-103433638D01*
X105817610Y-103494114D01*
X105999038Y-103494114D01*
X106240943Y-103433638D01*
X106361895Y-103373162D01*
X106482848Y-103252209D01*
X106543324Y-103070781D01*
X106543324Y-102949829D01*
X106482848Y-102768400D01*
X106422371Y-102707924D01*
X105999038Y-102707924D01*
X105999038Y-102949829D01*
X108595886Y-108029829D02*
X108656362Y-107848400D01*
X108716838Y-107787924D01*
X108837790Y-107727448D01*
X109019219Y-107727448D01*
X109140171Y-107787924D01*
X109200648Y-107848400D01*
X109261124Y-107969353D01*
X109261124Y-108453162D01*
X107991124Y-108453162D01*
X107991124Y-108029829D01*
X108051600Y-107908876D01*
X108112076Y-107848400D01*
X108233029Y-107787924D01*
X108353981Y-107787924D01*
X108474933Y-107848400D01*
X108535410Y-107908876D01*
X108595886Y-108029829D01*
X108595886Y-108453162D01*
X109261124Y-106578400D02*
X109261124Y-107183162D01*
X107991124Y-107183162D01*
X109261124Y-106155067D02*
X107991124Y-106155067D01*
X109261124Y-105550305D02*
X107991124Y-105550305D01*
X109261124Y-104824591D01*
X107991124Y-104824591D01*
X109261124Y-104219829D02*
X107991124Y-104219829D01*
X109261124Y-103494115D02*
X108535410Y-104038400D01*
X107991124Y-103494115D02*
X108716838Y-104219829D01*
X94488000Y-73726524D02*
X94488000Y-72456524D01*
X95092762Y-73726524D02*
X95092762Y-72456524D01*
X95395143Y-72456524D01*
X95576571Y-72517000D01*
X95697524Y-72637952D01*
X95758000Y-72758905D01*
X95818476Y-73000810D01*
X95818476Y-73182238D01*
X95758000Y-73424143D01*
X95697524Y-73545095D01*
X95576571Y-73666048D01*
X95395143Y-73726524D01*
X95092762Y-73726524D01*
X96362762Y-73726524D02*
X96362762Y-72456524D01*
X96665143Y-72456524D01*
X96846571Y-72517000D01*
X96967524Y-72637952D01*
X97028000Y-72758905D01*
X97088476Y-73000810D01*
X97088476Y-73182238D01*
X97028000Y-73424143D01*
X96967524Y-73545095D01*
X96846571Y-73666048D01*
X96665143Y-73726524D01*
X96362762Y-73726524D01*
X139748381Y-73279000D02*
X139627429Y-73218524D01*
X139446000Y-73218524D01*
X139264572Y-73279000D01*
X139143619Y-73399952D01*
X139083143Y-73520905D01*
X139022667Y-73762810D01*
X139022667Y-73944238D01*
X139083143Y-74186143D01*
X139143619Y-74307095D01*
X139264572Y-74428048D01*
X139446000Y-74488524D01*
X139566952Y-74488524D01*
X139748381Y-74428048D01*
X139808857Y-74367571D01*
X139808857Y-73944238D01*
X139566952Y-73944238D01*
X140353143Y-74488524D02*
X140353143Y-73218524D01*
X141078857Y-74488524D01*
X141078857Y-73218524D01*
X141683619Y-74488524D02*
X141683619Y-73218524D01*
X141986000Y-73218524D01*
X142167428Y-73279000D01*
X142288381Y-73399952D01*
X142348857Y-73520905D01*
X142409333Y-73762810D01*
X142409333Y-73944238D01*
X142348857Y-74186143D01*
X142288381Y-74307095D01*
X142167428Y-74428048D01*
X141986000Y-74488524D01*
X141683619Y-74488524D01*
X134595810Y-74488524D02*
X133870096Y-74488524D01*
X134232953Y-74488524D02*
X134232953Y-73218524D01*
X134112001Y-73399952D01*
X133991048Y-73520905D01*
X133870096Y-73581381D01*
X135079620Y-73339476D02*
X135140096Y-73279000D01*
X135261048Y-73218524D01*
X135563429Y-73218524D01*
X135684382Y-73279000D01*
X135744858Y-73339476D01*
X135805334Y-73460429D01*
X135805334Y-73581381D01*
X135744858Y-73762810D01*
X135019144Y-74488524D01*
X135805334Y-74488524D01*
X136168191Y-73218524D02*
X136591525Y-74488524D01*
X137014858Y-73218524D01*
X129298096Y-73218524D02*
X128693334Y-73218524D01*
X128632858Y-73823286D01*
X128693334Y-73762810D01*
X128814286Y-73702333D01*
X129116667Y-73702333D01*
X129237620Y-73762810D01*
X129298096Y-73823286D01*
X129358572Y-73944238D01*
X129358572Y-74246619D01*
X129298096Y-74367571D01*
X129237620Y-74428048D01*
X129116667Y-74488524D01*
X128814286Y-74488524D01*
X128693334Y-74428048D01*
X128632858Y-74367571D01*
X129721429Y-73218524D02*
X130144763Y-74488524D01*
X130568096Y-73218524D01*
X122331239Y-73218524D02*
X123117429Y-73218524D01*
X122694096Y-73702333D01*
X122875524Y-73702333D01*
X122996477Y-73762810D01*
X123056953Y-73823286D01*
X123117429Y-73944238D01*
X123117429Y-74246619D01*
X123056953Y-74367571D01*
X122996477Y-74428048D01*
X122875524Y-74488524D01*
X122512667Y-74488524D01*
X122391715Y-74428048D01*
X122331239Y-74367571D01*
X123661715Y-74367571D02*
X123722191Y-74428048D01*
X123661715Y-74488524D01*
X123601239Y-74428048D01*
X123661715Y-74367571D01*
X123661715Y-74488524D01*
X124145525Y-73218524D02*
X124931715Y-73218524D01*
X124508382Y-73702333D01*
X124689810Y-73702333D01*
X124810763Y-73762810D01*
X124871239Y-73823286D01*
X124931715Y-73944238D01*
X124931715Y-74246619D01*
X124871239Y-74367571D01*
X124810763Y-74428048D01*
X124689810Y-74488524D01*
X124326953Y-74488524D01*
X124206001Y-74428048D01*
X124145525Y-74367571D01*
X125294572Y-73218524D02*
X125717906Y-74488524D01*
X126141239Y-73218524D01*
X116924667Y-73218524D02*
X117348001Y-74488524D01*
X117771334Y-73218524D01*
X118194667Y-74488524D02*
X118194667Y-73218524D01*
X118497048Y-73218524D01*
X118678476Y-73279000D01*
X118799429Y-73399952D01*
X118859905Y-73520905D01*
X118920381Y-73762810D01*
X118920381Y-73944238D01*
X118859905Y-74186143D01*
X118799429Y-74307095D01*
X118678476Y-74428048D01*
X118497048Y-74488524D01*
X118194667Y-74488524D01*
X119464667Y-74488524D02*
X119464667Y-73218524D01*
X119767048Y-73218524D01*
X119948476Y-73279000D01*
X120069429Y-73399952D01*
X120129905Y-73520905D01*
X120190381Y-73762810D01*
X120190381Y-73944238D01*
X120129905Y-74186143D01*
X120069429Y-74307095D01*
X119948476Y-74428048D01*
X119767048Y-74488524D01*
X119464667Y-74488524D01*
X130096381Y-101727000D02*
X129975429Y-101666524D01*
X129794000Y-101666524D01*
X129612572Y-101727000D01*
X129491619Y-101847952D01*
X129431143Y-101968905D01*
X129370667Y-102210810D01*
X129370667Y-102392238D01*
X129431143Y-102634143D01*
X129491619Y-102755095D01*
X129612572Y-102876048D01*
X129794000Y-102936524D01*
X129914952Y-102936524D01*
X130096381Y-102876048D01*
X130156857Y-102815571D01*
X130156857Y-102392238D01*
X129914952Y-102392238D01*
X130701143Y-102936524D02*
X130701143Y-101666524D01*
X131426857Y-102936524D01*
X131426857Y-101666524D01*
X132031619Y-102936524D02*
X132031619Y-101666524D01*
X132334000Y-101666524D01*
X132515428Y-101727000D01*
X132636381Y-101847952D01*
X132696857Y-101968905D01*
X132757333Y-102210810D01*
X132757333Y-102392238D01*
X132696857Y-102634143D01*
X132636381Y-102755095D01*
X132515428Y-102876048D01*
X132334000Y-102936524D01*
X132031619Y-102936524D01*
X129249714Y-98618524D02*
X129975429Y-98618524D01*
X129612572Y-99888524D02*
X129612572Y-98618524D01*
X130277810Y-98618524D02*
X131124476Y-99888524D01*
X131124476Y-98618524D02*
X130277810Y-99888524D01*
X130156857Y-97094524D02*
X129733524Y-96489762D01*
X129431143Y-97094524D02*
X129431143Y-95824524D01*
X129914952Y-95824524D01*
X130035905Y-95885000D01*
X130096381Y-95945476D01*
X130156857Y-96066429D01*
X130156857Y-96247857D01*
X130096381Y-96368810D01*
X130035905Y-96429286D01*
X129914952Y-96489762D01*
X129431143Y-96489762D01*
X130580191Y-95824524D02*
X131426857Y-97094524D01*
X131426857Y-95824524D02*
X130580191Y-97094524D01*
X126634724Y-102397076D02*
X127662819Y-102397076D01*
X127783771Y-102336600D01*
X127844248Y-102276124D01*
X127904724Y-102155171D01*
X127904724Y-101913267D01*
X127844248Y-101792314D01*
X127783771Y-101731838D01*
X127662819Y-101671362D01*
X126634724Y-101671362D01*
X127844248Y-101127076D02*
X127904724Y-100945648D01*
X127904724Y-100643267D01*
X127844248Y-100522314D01*
X127783771Y-100461838D01*
X127662819Y-100401362D01*
X127541867Y-100401362D01*
X127420914Y-100461838D01*
X127360438Y-100522314D01*
X127299962Y-100643267D01*
X127239486Y-100885171D01*
X127179010Y-101006124D01*
X127118533Y-101066600D01*
X126997581Y-101127076D01*
X126876629Y-101127076D01*
X126755676Y-101066600D01*
X126695200Y-101006124D01*
X126634724Y-100885171D01*
X126634724Y-100582791D01*
X126695200Y-100401362D01*
X127541867Y-99917552D02*
X127541867Y-99312790D01*
X127904724Y-100038505D02*
X126634724Y-99615171D01*
X127904724Y-99191838D01*
X127904724Y-98042791D02*
X127299962Y-98466124D01*
X127904724Y-98768505D02*
X126634724Y-98768505D01*
X126634724Y-98284696D01*
X126695200Y-98163743D01*
X126755676Y-98103267D01*
X126876629Y-98042791D01*
X127058057Y-98042791D01*
X127179010Y-98103267D01*
X127239486Y-98163743D01*
X127299962Y-98284696D01*
X127299962Y-98768505D01*
X126634724Y-97679934D02*
X126634724Y-96954219D01*
X127904724Y-97317076D02*
X126634724Y-97317076D01*
X126755676Y-96591362D02*
X126695200Y-96530886D01*
X126634724Y-96409934D01*
X126634724Y-96107553D01*
X126695200Y-95986600D01*
X126755676Y-95926124D01*
X126876629Y-95865648D01*
X126997581Y-95865648D01*
X127179010Y-95926124D01*
X127904724Y-96651838D01*
X127904724Y-95865648D01*
X107296857Y-90236524D02*
X107296857Y-91264619D01*
X107357333Y-91385571D01*
X107417809Y-91446048D01*
X107538762Y-91506524D01*
X107780666Y-91506524D01*
X107901619Y-91446048D01*
X107962095Y-91385571D01*
X108022571Y-91264619D01*
X108022571Y-90236524D01*
X108566857Y-91446048D02*
X108748285Y-91506524D01*
X109050666Y-91506524D01*
X109171619Y-91446048D01*
X109232095Y-91385571D01*
X109292571Y-91264619D01*
X109292571Y-91143667D01*
X109232095Y-91022714D01*
X109171619Y-90962238D01*
X109050666Y-90901762D01*
X108808762Y-90841286D01*
X108687809Y-90780810D01*
X108627333Y-90720333D01*
X108566857Y-90599381D01*
X108566857Y-90478429D01*
X108627333Y-90357476D01*
X108687809Y-90297000D01*
X108808762Y-90236524D01*
X109111142Y-90236524D01*
X109292571Y-90297000D01*
X109836857Y-90841286D02*
X110260190Y-90841286D01*
X110441619Y-91506524D02*
X109836857Y-91506524D01*
X109836857Y-90236524D01*
X110441619Y-90236524D01*
X111711619Y-91506524D02*
X111288286Y-90901762D01*
X110985905Y-91506524D02*
X110985905Y-90236524D01*
X111469714Y-90236524D01*
X111590667Y-90297000D01*
X111651143Y-90357476D01*
X111711619Y-90478429D01*
X111711619Y-90659857D01*
X111651143Y-90780810D01*
X111590667Y-90841286D01*
X111469714Y-90901762D01*
X110985905Y-90901762D01*
X125409476Y-91506524D02*
X124986143Y-90901762D01*
X124683762Y-91506524D02*
X124683762Y-90236524D01*
X125167571Y-90236524D01*
X125288524Y-90297000D01*
X125349000Y-90357476D01*
X125409476Y-90478429D01*
X125409476Y-90659857D01*
X125349000Y-90780810D01*
X125288524Y-90841286D01*
X125167571Y-90901762D01*
X124683762Y-90901762D01*
X125953762Y-90841286D02*
X126377095Y-90841286D01*
X126558524Y-91506524D02*
X125953762Y-91506524D01*
X125953762Y-90236524D01*
X126558524Y-90236524D01*
X127042334Y-91446048D02*
X127223762Y-91506524D01*
X127526143Y-91506524D01*
X127647096Y-91446048D01*
X127707572Y-91385571D01*
X127768048Y-91264619D01*
X127768048Y-91143667D01*
X127707572Y-91022714D01*
X127647096Y-90962238D01*
X127526143Y-90901762D01*
X127284239Y-90841286D01*
X127163286Y-90780810D01*
X127102810Y-90720333D01*
X127042334Y-90599381D01*
X127042334Y-90478429D01*
X127102810Y-90357476D01*
X127163286Y-90297000D01*
X127284239Y-90236524D01*
X127586619Y-90236524D01*
X127768048Y-90297000D01*
X128312334Y-90841286D02*
X128735667Y-90841286D01*
X128917096Y-91506524D02*
X128312334Y-91506524D01*
X128312334Y-90236524D01*
X128917096Y-90236524D01*
X129279953Y-90236524D02*
X130005668Y-90236524D01*
X129642811Y-91506524D02*
X129642811Y-90236524D01*
X147640524Y-112987666D02*
X146370524Y-112987666D01*
X146370524Y-112685285D01*
X146431000Y-112503857D01*
X146551952Y-112382904D01*
X146672905Y-112322428D01*
X146914810Y-112261952D01*
X147096238Y-112261952D01*
X147338143Y-112322428D01*
X147459095Y-112382904D01*
X147580048Y-112503857D01*
X147640524Y-112685285D01*
X147640524Y-112987666D01*
X146431000Y-111052428D02*
X146370524Y-111173380D01*
X146370524Y-111354809D01*
X146431000Y-111536237D01*
X146551952Y-111657190D01*
X146672905Y-111717666D01*
X146914810Y-111778142D01*
X147096238Y-111778142D01*
X147338143Y-111717666D01*
X147459095Y-111657190D01*
X147580048Y-111536237D01*
X147640524Y-111354809D01*
X147640524Y-111233857D01*
X147580048Y-111052428D01*
X147519571Y-110991952D01*
X147096238Y-110991952D01*
X147096238Y-111233857D01*
X147640524Y-110447666D02*
X146370524Y-110447666D01*
X147640524Y-109721952D01*
X146370524Y-109721952D01*
X147640524Y-109117190D02*
X146370524Y-109117190D01*
X146370524Y-108814809D01*
X146431000Y-108633381D01*
X146551952Y-108512428D01*
X146672905Y-108451952D01*
X146914810Y-108391476D01*
X147096238Y-108391476D01*
X147338143Y-108451952D01*
X147459095Y-108512428D01*
X147580048Y-108633381D01*
X147640524Y-108814809D01*
X147640524Y-109117190D01*
X145100524Y-112987666D02*
X143830524Y-112987666D01*
X145100524Y-112261952D01*
X143830524Y-112261952D01*
X145100524Y-110931476D02*
X144495762Y-111354809D01*
X145100524Y-111657190D02*
X143830524Y-111657190D01*
X143830524Y-111173381D01*
X143891000Y-111052428D01*
X143951476Y-110991952D01*
X144072429Y-110931476D01*
X144253857Y-110931476D01*
X144374810Y-110991952D01*
X144435286Y-111052428D01*
X144495762Y-111173381D01*
X144495762Y-111657190D01*
X145040048Y-110447666D02*
X145100524Y-110266238D01*
X145100524Y-109963857D01*
X145040048Y-109842904D01*
X144979571Y-109782428D01*
X144858619Y-109721952D01*
X144737667Y-109721952D01*
X144616714Y-109782428D01*
X144556238Y-109842904D01*
X144495762Y-109963857D01*
X144435286Y-110205761D01*
X144374810Y-110326714D01*
X144314333Y-110387190D01*
X144193381Y-110447666D01*
X144072429Y-110447666D01*
X143951476Y-110387190D01*
X143891000Y-110326714D01*
X143830524Y-110205761D01*
X143830524Y-109903381D01*
X143891000Y-109721952D01*
X143830524Y-109359095D02*
X143830524Y-108633380D01*
X145100524Y-108996237D02*
X143830524Y-108996237D01*
X142560524Y-112987666D02*
X141290524Y-112987666D01*
X141290524Y-112503857D01*
X141351000Y-112382904D01*
X141411476Y-112322428D01*
X141532429Y-112261952D01*
X141713857Y-112261952D01*
X141834810Y-112322428D01*
X141895286Y-112382904D01*
X141955762Y-112503857D01*
X141955762Y-112987666D01*
X141895286Y-111294333D02*
X141955762Y-111112904D01*
X142016238Y-111052428D01*
X142137190Y-110991952D01*
X142318619Y-110991952D01*
X142439571Y-111052428D01*
X142500048Y-111112904D01*
X142560524Y-111233857D01*
X142560524Y-111717666D01*
X141290524Y-111717666D01*
X141290524Y-111294333D01*
X141351000Y-111173380D01*
X141411476Y-111112904D01*
X141532429Y-111052428D01*
X141653381Y-111052428D01*
X141774333Y-111112904D01*
X141834810Y-111173380D01*
X141895286Y-111294333D01*
X141895286Y-111717666D01*
X142560524Y-110387190D02*
X142560524Y-110145285D01*
X142500048Y-110024333D01*
X142439571Y-109963857D01*
X142258143Y-109842904D01*
X142016238Y-109782428D01*
X141532429Y-109782428D01*
X141411476Y-109842904D01*
X141351000Y-109903380D01*
X141290524Y-110024333D01*
X141290524Y-110266237D01*
X141351000Y-110387190D01*
X141411476Y-110447666D01*
X141532429Y-110508142D01*
X141834810Y-110508142D01*
X141955762Y-110447666D01*
X142016238Y-110387190D01*
X142076714Y-110266237D01*
X142076714Y-110024333D01*
X142016238Y-109903380D01*
X141955762Y-109842904D01*
X141834810Y-109782428D01*
X140020524Y-112987666D02*
X138750524Y-112987666D01*
X138750524Y-112503857D01*
X138811000Y-112382904D01*
X138871476Y-112322428D01*
X138992429Y-112261952D01*
X139173857Y-112261952D01*
X139294810Y-112322428D01*
X139355286Y-112382904D01*
X139415762Y-112503857D01*
X139415762Y-112987666D01*
X139355286Y-111294333D02*
X139415762Y-111112904D01*
X139476238Y-111052428D01*
X139597190Y-110991952D01*
X139778619Y-110991952D01*
X139899571Y-111052428D01*
X139960048Y-111112904D01*
X140020524Y-111233857D01*
X140020524Y-111717666D01*
X138750524Y-111717666D01*
X138750524Y-111294333D01*
X138811000Y-111173380D01*
X138871476Y-111112904D01*
X138992429Y-111052428D01*
X139113381Y-111052428D01*
X139234333Y-111112904D01*
X139294810Y-111173380D01*
X139355286Y-111294333D01*
X139355286Y-111717666D01*
X139294810Y-110266237D02*
X139234333Y-110387190D01*
X139173857Y-110447666D01*
X139052905Y-110508142D01*
X138992429Y-110508142D01*
X138871476Y-110447666D01*
X138811000Y-110387190D01*
X138750524Y-110266237D01*
X138750524Y-110024333D01*
X138811000Y-109903380D01*
X138871476Y-109842904D01*
X138992429Y-109782428D01*
X139052905Y-109782428D01*
X139173857Y-109842904D01*
X139234333Y-109903380D01*
X139294810Y-110024333D01*
X139294810Y-110266237D01*
X139355286Y-110387190D01*
X139415762Y-110447666D01*
X139536714Y-110508142D01*
X139778619Y-110508142D01*
X139899571Y-110447666D01*
X139960048Y-110387190D01*
X140020524Y-110266237D01*
X140020524Y-110024333D01*
X139960048Y-109903380D01*
X139899571Y-109842904D01*
X139778619Y-109782428D01*
X139536714Y-109782428D01*
X139415762Y-109842904D01*
X139355286Y-109903380D01*
X139294810Y-110024333D01*
X136815286Y-112564333D02*
X136875762Y-112382904D01*
X136936238Y-112322428D01*
X137057190Y-112261952D01*
X137238619Y-112261952D01*
X137359571Y-112322428D01*
X137420048Y-112382904D01*
X137480524Y-112503857D01*
X137480524Y-112987666D01*
X136210524Y-112987666D01*
X136210524Y-112564333D01*
X136271000Y-112443380D01*
X136331476Y-112382904D01*
X136452429Y-112322428D01*
X136573381Y-112322428D01*
X136694333Y-112382904D01*
X136754810Y-112443380D01*
X136815286Y-112564333D01*
X136815286Y-112987666D01*
X136210524Y-111475761D02*
X136210524Y-111233857D01*
X136271000Y-111112904D01*
X136391952Y-110991952D01*
X136633857Y-110931476D01*
X137057190Y-110931476D01*
X137299095Y-110991952D01*
X137420048Y-111112904D01*
X137480524Y-111233857D01*
X137480524Y-111475761D01*
X137420048Y-111596714D01*
X137299095Y-111717666D01*
X137057190Y-111778142D01*
X136633857Y-111778142D01*
X136391952Y-111717666D01*
X136271000Y-111596714D01*
X136210524Y-111475761D01*
X136210524Y-110145285D02*
X136210524Y-109903381D01*
X136271000Y-109782428D01*
X136391952Y-109661476D01*
X136633857Y-109601000D01*
X137057190Y-109601000D01*
X137299095Y-109661476D01*
X137420048Y-109782428D01*
X137480524Y-109903381D01*
X137480524Y-110145285D01*
X137420048Y-110266238D01*
X137299095Y-110387190D01*
X137057190Y-110447666D01*
X136633857Y-110447666D01*
X136391952Y-110387190D01*
X136271000Y-110266238D01*
X136210524Y-110145285D01*
X136210524Y-109238143D02*
X136210524Y-108512428D01*
X137480524Y-108875285D02*
X136210524Y-108875285D01*
X136210524Y-107847190D02*
X136210524Y-107726238D01*
X136271000Y-107605286D01*
X136331476Y-107544809D01*
X136452429Y-107484333D01*
X136694333Y-107423857D01*
X136996714Y-107423857D01*
X137238619Y-107484333D01*
X137359571Y-107544809D01*
X137420048Y-107605286D01*
X137480524Y-107726238D01*
X137480524Y-107847190D01*
X137420048Y-107968143D01*
X137359571Y-108028619D01*
X137238619Y-108089095D01*
X136996714Y-108149571D01*
X136694333Y-108149571D01*
X136452429Y-108089095D01*
X136331476Y-108028619D01*
X136271000Y-107968143D01*
X136210524Y-107847190D01*
X134940524Y-112987666D02*
X133670524Y-112987666D01*
X133670524Y-112503857D01*
X133731000Y-112382904D01*
X133791476Y-112322428D01*
X133912429Y-112261952D01*
X134093857Y-112261952D01*
X134214810Y-112322428D01*
X134275286Y-112382904D01*
X134335762Y-112503857D01*
X134335762Y-112987666D01*
X134275286Y-111294333D02*
X134335762Y-111112904D01*
X134396238Y-111052428D01*
X134517190Y-110991952D01*
X134698619Y-110991952D01*
X134819571Y-111052428D01*
X134880048Y-111112904D01*
X134940524Y-111233857D01*
X134940524Y-111717666D01*
X133670524Y-111717666D01*
X133670524Y-111294333D01*
X133731000Y-111173380D01*
X133791476Y-111112904D01*
X133912429Y-111052428D01*
X134033381Y-111052428D01*
X134154333Y-111112904D01*
X134214810Y-111173380D01*
X134275286Y-111294333D01*
X134275286Y-111717666D01*
X133670524Y-110568618D02*
X133670524Y-109721952D01*
X134940524Y-110266237D01*
X132400524Y-112987666D02*
X131130524Y-112987666D01*
X131130524Y-112503857D01*
X131191000Y-112382904D01*
X131251476Y-112322428D01*
X131372429Y-112261952D01*
X131553857Y-112261952D01*
X131674810Y-112322428D01*
X131735286Y-112382904D01*
X131795762Y-112503857D01*
X131795762Y-112987666D01*
X131735286Y-111294333D02*
X131795762Y-111112904D01*
X131856238Y-111052428D01*
X131977190Y-110991952D01*
X132158619Y-110991952D01*
X132279571Y-111052428D01*
X132340048Y-111112904D01*
X132400524Y-111233857D01*
X132400524Y-111717666D01*
X131130524Y-111717666D01*
X131130524Y-111294333D01*
X131191000Y-111173380D01*
X131251476Y-111112904D01*
X131372429Y-111052428D01*
X131493381Y-111052428D01*
X131614333Y-111112904D01*
X131674810Y-111173380D01*
X131735286Y-111294333D01*
X131735286Y-111717666D01*
X131130524Y-109903380D02*
X131130524Y-110145285D01*
X131191000Y-110266237D01*
X131251476Y-110326714D01*
X131432905Y-110447666D01*
X131674810Y-110508142D01*
X132158619Y-110508142D01*
X132279571Y-110447666D01*
X132340048Y-110387190D01*
X132400524Y-110266237D01*
X132400524Y-110024333D01*
X132340048Y-109903380D01*
X132279571Y-109842904D01*
X132158619Y-109782428D01*
X131856238Y-109782428D01*
X131735286Y-109842904D01*
X131674810Y-109903380D01*
X131614333Y-110024333D01*
X131614333Y-110266237D01*
X131674810Y-110387190D01*
X131735286Y-110447666D01*
X131856238Y-110508142D01*
X129860524Y-112987666D02*
X128590524Y-112987666D01*
X128590524Y-112503857D01*
X128651000Y-112382904D01*
X128711476Y-112322428D01*
X128832429Y-112261952D01*
X129013857Y-112261952D01*
X129134810Y-112322428D01*
X129195286Y-112382904D01*
X129255762Y-112503857D01*
X129255762Y-112987666D01*
X129195286Y-111294333D02*
X129255762Y-111112904D01*
X129316238Y-111052428D01*
X129437190Y-110991952D01*
X129618619Y-110991952D01*
X129739571Y-111052428D01*
X129800048Y-111112904D01*
X129860524Y-111233857D01*
X129860524Y-111717666D01*
X128590524Y-111717666D01*
X128590524Y-111294333D01*
X128651000Y-111173380D01*
X128711476Y-111112904D01*
X128832429Y-111052428D01*
X128953381Y-111052428D01*
X129074333Y-111112904D01*
X129134810Y-111173380D01*
X129195286Y-111294333D01*
X129195286Y-111717666D01*
X128590524Y-109842904D02*
X128590524Y-110447666D01*
X129195286Y-110508142D01*
X129134810Y-110447666D01*
X129074333Y-110326714D01*
X129074333Y-110024333D01*
X129134810Y-109903380D01*
X129195286Y-109842904D01*
X129316238Y-109782428D01*
X129618619Y-109782428D01*
X129739571Y-109842904D01*
X129800048Y-109903380D01*
X129860524Y-110024333D01*
X129860524Y-110326714D01*
X129800048Y-110447666D01*
X129739571Y-110508142D01*
X127320524Y-112987666D02*
X126050524Y-112987666D01*
X126050524Y-112503857D01*
X126111000Y-112382904D01*
X126171476Y-112322428D01*
X126292429Y-112261952D01*
X126473857Y-112261952D01*
X126594810Y-112322428D01*
X126655286Y-112382904D01*
X126715762Y-112503857D01*
X126715762Y-112987666D01*
X126655286Y-111294333D02*
X126715762Y-111112904D01*
X126776238Y-111052428D01*
X126897190Y-110991952D01*
X127078619Y-110991952D01*
X127199571Y-111052428D01*
X127260048Y-111112904D01*
X127320524Y-111233857D01*
X127320524Y-111717666D01*
X126050524Y-111717666D01*
X126050524Y-111294333D01*
X126111000Y-111173380D01*
X126171476Y-111112904D01*
X126292429Y-111052428D01*
X126413381Y-111052428D01*
X126534333Y-111112904D01*
X126594810Y-111173380D01*
X126655286Y-111294333D01*
X126655286Y-111717666D01*
X126473857Y-109903380D02*
X127320524Y-109903380D01*
X125990048Y-110205761D02*
X126897190Y-110508142D01*
X126897190Y-109721952D01*
X124780524Y-112987666D02*
X123510524Y-112987666D01*
X123510524Y-112503857D01*
X123571000Y-112382904D01*
X123631476Y-112322428D01*
X123752429Y-112261952D01*
X123933857Y-112261952D01*
X124054810Y-112322428D01*
X124115286Y-112382904D01*
X124175762Y-112503857D01*
X124175762Y-112987666D01*
X124780524Y-111717666D02*
X123510524Y-111717666D01*
X123510524Y-111415285D01*
X123571000Y-111233857D01*
X123691952Y-111112904D01*
X123812905Y-111052428D01*
X124054810Y-110991952D01*
X124236238Y-110991952D01*
X124478143Y-111052428D01*
X124599095Y-111112904D01*
X124720048Y-111233857D01*
X124780524Y-111415285D01*
X124780524Y-111717666D01*
X123631476Y-110508142D02*
X123571000Y-110447666D01*
X123510524Y-110326714D01*
X123510524Y-110024333D01*
X123571000Y-109903380D01*
X123631476Y-109842904D01*
X123752429Y-109782428D01*
X123873381Y-109782428D01*
X124054810Y-109842904D01*
X124780524Y-110568618D01*
X124780524Y-109782428D01*
X122240524Y-112987666D02*
X120970524Y-112987666D01*
X120970524Y-112503857D01*
X121031000Y-112382904D01*
X121091476Y-112322428D01*
X121212429Y-112261952D01*
X121393857Y-112261952D01*
X121514810Y-112322428D01*
X121575286Y-112382904D01*
X121635762Y-112503857D01*
X121635762Y-112987666D01*
X122119571Y-110991952D02*
X122180048Y-111052428D01*
X122240524Y-111233857D01*
X122240524Y-111354809D01*
X122180048Y-111536237D01*
X122059095Y-111657190D01*
X121938143Y-111717666D01*
X121696238Y-111778142D01*
X121514810Y-111778142D01*
X121272905Y-111717666D01*
X121151952Y-111657190D01*
X121031000Y-111536237D01*
X120970524Y-111354809D01*
X120970524Y-111233857D01*
X121031000Y-111052428D01*
X121091476Y-110991952D01*
X122240524Y-109782428D02*
X122240524Y-110508142D01*
X122240524Y-110145285D02*
X120970524Y-110145285D01*
X121151952Y-110266237D01*
X121272905Y-110387190D01*
X121333381Y-110508142D01*
X121091476Y-109298618D02*
X121031000Y-109238142D01*
X120970524Y-109117190D01*
X120970524Y-108814809D01*
X121031000Y-108693856D01*
X121091476Y-108633380D01*
X121212429Y-108572904D01*
X121333381Y-108572904D01*
X121514810Y-108633380D01*
X122240524Y-109359094D01*
X122240524Y-108572904D01*
X119700524Y-112987666D02*
X118430524Y-112987666D01*
X118430524Y-112503857D01*
X118491000Y-112382904D01*
X118551476Y-112322428D01*
X118672429Y-112261952D01*
X118853857Y-112261952D01*
X118974810Y-112322428D01*
X119035286Y-112382904D01*
X119095762Y-112503857D01*
X119095762Y-112987666D01*
X119579571Y-110991952D02*
X119640048Y-111052428D01*
X119700524Y-111233857D01*
X119700524Y-111354809D01*
X119640048Y-111536237D01*
X119519095Y-111657190D01*
X119398143Y-111717666D01*
X119156238Y-111778142D01*
X118974810Y-111778142D01*
X118732905Y-111717666D01*
X118611952Y-111657190D01*
X118491000Y-111536237D01*
X118430524Y-111354809D01*
X118430524Y-111233857D01*
X118491000Y-111052428D01*
X118551476Y-110991952D01*
X119700524Y-109782428D02*
X119700524Y-110508142D01*
X119700524Y-110145285D02*
X118430524Y-110145285D01*
X118611952Y-110266237D01*
X118732905Y-110387190D01*
X118793381Y-110508142D01*
X119700524Y-108572904D02*
X119700524Y-109298618D01*
X119700524Y-108935761D02*
X118430524Y-108935761D01*
X118611952Y-109056713D01*
X118732905Y-109177666D01*
X118793381Y-109298618D01*
X117160524Y-112987666D02*
X115890524Y-112987666D01*
X115890524Y-112503857D01*
X115951000Y-112382904D01*
X116011476Y-112322428D01*
X116132429Y-112261952D01*
X116313857Y-112261952D01*
X116434810Y-112322428D01*
X116495286Y-112382904D01*
X116555762Y-112503857D01*
X116555762Y-112987666D01*
X117039571Y-110991952D02*
X117100048Y-111052428D01*
X117160524Y-111233857D01*
X117160524Y-111354809D01*
X117100048Y-111536237D01*
X116979095Y-111657190D01*
X116858143Y-111717666D01*
X116616238Y-111778142D01*
X116434810Y-111778142D01*
X116192905Y-111717666D01*
X116071952Y-111657190D01*
X115951000Y-111536237D01*
X115890524Y-111354809D01*
X115890524Y-111233857D01*
X115951000Y-111052428D01*
X116011476Y-110991952D01*
X117160524Y-109782428D02*
X117160524Y-110508142D01*
X117160524Y-110145285D02*
X115890524Y-110145285D01*
X116071952Y-110266237D01*
X116192905Y-110387190D01*
X116253381Y-110508142D01*
X115890524Y-108996237D02*
X115890524Y-108875285D01*
X115951000Y-108754333D01*
X116011476Y-108693856D01*
X116132429Y-108633380D01*
X116374333Y-108572904D01*
X116676714Y-108572904D01*
X116918619Y-108633380D01*
X117039571Y-108693856D01*
X117100048Y-108754333D01*
X117160524Y-108875285D01*
X117160524Y-108996237D01*
X117100048Y-109117190D01*
X117039571Y-109177666D01*
X116918619Y-109238142D01*
X116676714Y-109298618D01*
X116374333Y-109298618D01*
X116132429Y-109238142D01*
X116011476Y-109177666D01*
X115951000Y-109117190D01*
X115890524Y-108996237D01*
X114874524Y-112987666D02*
X113604524Y-112987666D01*
X113604524Y-112503857D01*
X113665000Y-112382904D01*
X113725476Y-112322428D01*
X113846429Y-112261952D01*
X114027857Y-112261952D01*
X114148810Y-112322428D01*
X114209286Y-112382904D01*
X114269762Y-112503857D01*
X114269762Y-112987666D01*
X114511667Y-111778142D02*
X114511667Y-111173380D01*
X114874524Y-111899095D02*
X113604524Y-111475761D01*
X114874524Y-111052428D01*
X114874524Y-109963857D02*
X114874524Y-110689571D01*
X114874524Y-110326714D02*
X113604524Y-110326714D01*
X113785952Y-110447666D01*
X113906905Y-110568619D01*
X113967381Y-110689571D01*
X113604524Y-108814809D02*
X113604524Y-109419571D01*
X114209286Y-109480047D01*
X114148810Y-109419571D01*
X114088333Y-109298619D01*
X114088333Y-108996238D01*
X114148810Y-108875285D01*
X114209286Y-108814809D01*
X114330238Y-108754333D01*
X114632619Y-108754333D01*
X114753571Y-108814809D01*
X114814048Y-108875285D01*
X114874524Y-108996238D01*
X114874524Y-109298619D01*
X114814048Y-109419571D01*
X114753571Y-109480047D01*
X112334524Y-112987666D02*
X111064524Y-112987666D01*
X111064524Y-112503857D01*
X111125000Y-112382904D01*
X111185476Y-112322428D01*
X111306429Y-112261952D01*
X111487857Y-112261952D01*
X111608810Y-112322428D01*
X111669286Y-112382904D01*
X111729762Y-112503857D01*
X111729762Y-112987666D01*
X111971667Y-111778142D02*
X111971667Y-111173380D01*
X112334524Y-111899095D02*
X111064524Y-111475761D01*
X112334524Y-111052428D01*
X112334524Y-109963857D02*
X112334524Y-110689571D01*
X112334524Y-110326714D02*
X111064524Y-110326714D01*
X111245952Y-110447666D01*
X111366905Y-110568619D01*
X111427381Y-110689571D01*
X111064524Y-109177666D02*
X111064524Y-109056714D01*
X111125000Y-108935762D01*
X111185476Y-108875285D01*
X111306429Y-108814809D01*
X111548333Y-108754333D01*
X111850714Y-108754333D01*
X112092619Y-108814809D01*
X112213571Y-108875285D01*
X112274048Y-108935762D01*
X112334524Y-109056714D01*
X112334524Y-109177666D01*
X112274048Y-109298619D01*
X112213571Y-109359095D01*
X112092619Y-109419571D01*
X111850714Y-109480047D01*
X111548333Y-109480047D01*
X111306429Y-109419571D01*
X111185476Y-109359095D01*
X111125000Y-109298619D01*
X111064524Y-109177666D01*
X109540524Y-112987666D02*
X108270524Y-112987666D01*
X108270524Y-112503857D01*
X108331000Y-112382904D01*
X108391476Y-112322428D01*
X108512429Y-112261952D01*
X108693857Y-112261952D01*
X108814810Y-112322428D01*
X108875286Y-112382904D01*
X108935762Y-112503857D01*
X108935762Y-112987666D01*
X109177667Y-111778142D02*
X109177667Y-111173380D01*
X109540524Y-111899095D02*
X108270524Y-111475761D01*
X109540524Y-111052428D01*
X109540524Y-110568619D02*
X109540524Y-110326714D01*
X109480048Y-110205762D01*
X109419571Y-110145286D01*
X109238143Y-110024333D01*
X108996238Y-109963857D01*
X108512429Y-109963857D01*
X108391476Y-110024333D01*
X108331000Y-110084809D01*
X108270524Y-110205762D01*
X108270524Y-110447666D01*
X108331000Y-110568619D01*
X108391476Y-110629095D01*
X108512429Y-110689571D01*
X108814810Y-110689571D01*
X108935762Y-110629095D01*
X108996238Y-110568619D01*
X109056714Y-110447666D01*
X109056714Y-110205762D01*
X108996238Y-110084809D01*
X108935762Y-110024333D01*
X108814810Y-109963857D01*
X107000524Y-112987666D02*
X105730524Y-112987666D01*
X105730524Y-112503857D01*
X105791000Y-112382904D01*
X105851476Y-112322428D01*
X105972429Y-112261952D01*
X106153857Y-112261952D01*
X106274810Y-112322428D01*
X106335286Y-112382904D01*
X106395762Y-112503857D01*
X106395762Y-112987666D01*
X106637667Y-111778142D02*
X106637667Y-111173380D01*
X107000524Y-111899095D02*
X105730524Y-111475761D01*
X107000524Y-111052428D01*
X106274810Y-110447666D02*
X106214333Y-110568619D01*
X106153857Y-110629095D01*
X106032905Y-110689571D01*
X105972429Y-110689571D01*
X105851476Y-110629095D01*
X105791000Y-110568619D01*
X105730524Y-110447666D01*
X105730524Y-110205762D01*
X105791000Y-110084809D01*
X105851476Y-110024333D01*
X105972429Y-109963857D01*
X106032905Y-109963857D01*
X106153857Y-110024333D01*
X106214333Y-110084809D01*
X106274810Y-110205762D01*
X106274810Y-110447666D01*
X106335286Y-110568619D01*
X106395762Y-110629095D01*
X106516714Y-110689571D01*
X106758619Y-110689571D01*
X106879571Y-110629095D01*
X106940048Y-110568619D01*
X107000524Y-110447666D01*
X107000524Y-110205762D01*
X106940048Y-110084809D01*
X106879571Y-110024333D01*
X106758619Y-109963857D01*
X106516714Y-109963857D01*
X106395762Y-110024333D01*
X106335286Y-110084809D01*
X106274810Y-110205762D01*
X104714524Y-112987666D02*
X103444524Y-112987666D01*
X103444524Y-112503857D01*
X103505000Y-112382904D01*
X103565476Y-112322428D01*
X103686429Y-112261952D01*
X103867857Y-112261952D01*
X103988810Y-112322428D01*
X104049286Y-112382904D01*
X104109762Y-112503857D01*
X104109762Y-112987666D01*
X104593571Y-110991952D02*
X104654048Y-111052428D01*
X104714524Y-111233857D01*
X104714524Y-111354809D01*
X104654048Y-111536237D01*
X104533095Y-111657190D01*
X104412143Y-111717666D01*
X104170238Y-111778142D01*
X103988810Y-111778142D01*
X103746905Y-111717666D01*
X103625952Y-111657190D01*
X103505000Y-111536237D01*
X103444524Y-111354809D01*
X103444524Y-111233857D01*
X103505000Y-111052428D01*
X103565476Y-110991952D01*
X104714524Y-110387190D02*
X104714524Y-110145285D01*
X104654048Y-110024333D01*
X104593571Y-109963857D01*
X104412143Y-109842904D01*
X104170238Y-109782428D01*
X103686429Y-109782428D01*
X103565476Y-109842904D01*
X103505000Y-109903380D01*
X103444524Y-110024333D01*
X103444524Y-110266237D01*
X103505000Y-110387190D01*
X103565476Y-110447666D01*
X103686429Y-110508142D01*
X103988810Y-110508142D01*
X104109762Y-110447666D01*
X104170238Y-110387190D01*
X104230714Y-110266237D01*
X104230714Y-110024333D01*
X104170238Y-109903380D01*
X104109762Y-109842904D01*
X103988810Y-109782428D01*
X102174524Y-112987666D02*
X100904524Y-112987666D01*
X100904524Y-112503857D01*
X100965000Y-112382904D01*
X101025476Y-112322428D01*
X101146429Y-112261952D01*
X101327857Y-112261952D01*
X101448810Y-112322428D01*
X101509286Y-112382904D01*
X101569762Y-112503857D01*
X101569762Y-112987666D01*
X102053571Y-110991952D02*
X102114048Y-111052428D01*
X102174524Y-111233857D01*
X102174524Y-111354809D01*
X102114048Y-111536237D01*
X101993095Y-111657190D01*
X101872143Y-111717666D01*
X101630238Y-111778142D01*
X101448810Y-111778142D01*
X101206905Y-111717666D01*
X101085952Y-111657190D01*
X100965000Y-111536237D01*
X100904524Y-111354809D01*
X100904524Y-111233857D01*
X100965000Y-111052428D01*
X101025476Y-110991952D01*
X101448810Y-110266237D02*
X101388333Y-110387190D01*
X101327857Y-110447666D01*
X101206905Y-110508142D01*
X101146429Y-110508142D01*
X101025476Y-110447666D01*
X100965000Y-110387190D01*
X100904524Y-110266237D01*
X100904524Y-110024333D01*
X100965000Y-109903380D01*
X101025476Y-109842904D01*
X101146429Y-109782428D01*
X101206905Y-109782428D01*
X101327857Y-109842904D01*
X101388333Y-109903380D01*
X101448810Y-110024333D01*
X101448810Y-110266237D01*
X101509286Y-110387190D01*
X101569762Y-110447666D01*
X101690714Y-110508142D01*
X101932619Y-110508142D01*
X102053571Y-110447666D01*
X102114048Y-110387190D01*
X102174524Y-110266237D01*
X102174524Y-110024333D01*
X102114048Y-109903380D01*
X102053571Y-109842904D01*
X101932619Y-109782428D01*
X101690714Y-109782428D01*
X101569762Y-109842904D01*
X101509286Y-109903380D01*
X101448810Y-110024333D01*
X99634524Y-112987666D02*
X98364524Y-112987666D01*
X98364524Y-112503857D01*
X98425000Y-112382904D01*
X98485476Y-112322428D01*
X98606429Y-112261952D01*
X98787857Y-112261952D01*
X98908810Y-112322428D01*
X98969286Y-112382904D01*
X99029762Y-112503857D01*
X99029762Y-112987666D01*
X99513571Y-110991952D02*
X99574048Y-111052428D01*
X99634524Y-111233857D01*
X99634524Y-111354809D01*
X99574048Y-111536237D01*
X99453095Y-111657190D01*
X99332143Y-111717666D01*
X99090238Y-111778142D01*
X98908810Y-111778142D01*
X98666905Y-111717666D01*
X98545952Y-111657190D01*
X98425000Y-111536237D01*
X98364524Y-111354809D01*
X98364524Y-111233857D01*
X98425000Y-111052428D01*
X98485476Y-110991952D01*
X98364524Y-110568618D02*
X98364524Y-109721952D01*
X99634524Y-110266237D01*
X96840524Y-112987666D02*
X95570524Y-112987666D01*
X95570524Y-112503857D01*
X95631000Y-112382904D01*
X95691476Y-112322428D01*
X95812429Y-112261952D01*
X95993857Y-112261952D01*
X96114810Y-112322428D01*
X96175286Y-112382904D01*
X96235762Y-112503857D01*
X96235762Y-112987666D01*
X96719571Y-110991952D02*
X96780048Y-111052428D01*
X96840524Y-111233857D01*
X96840524Y-111354809D01*
X96780048Y-111536237D01*
X96659095Y-111657190D01*
X96538143Y-111717666D01*
X96296238Y-111778142D01*
X96114810Y-111778142D01*
X95872905Y-111717666D01*
X95751952Y-111657190D01*
X95631000Y-111536237D01*
X95570524Y-111354809D01*
X95570524Y-111233857D01*
X95631000Y-111052428D01*
X95691476Y-110991952D01*
X95570524Y-109903380D02*
X95570524Y-110145285D01*
X95631000Y-110266237D01*
X95691476Y-110326714D01*
X95872905Y-110447666D01*
X96114810Y-110508142D01*
X96598619Y-110508142D01*
X96719571Y-110447666D01*
X96780048Y-110387190D01*
X96840524Y-110266237D01*
X96840524Y-110024333D01*
X96780048Y-109903380D01*
X96719571Y-109842904D01*
X96598619Y-109782428D01*
X96296238Y-109782428D01*
X96175286Y-109842904D01*
X96114810Y-109903380D01*
X96054333Y-110024333D01*
X96054333Y-110266237D01*
X96114810Y-110387190D01*
X96175286Y-110447666D01*
X96296238Y-110508142D01*
X94300524Y-112987666D02*
X93030524Y-112987666D01*
X93030524Y-112503857D01*
X93091000Y-112382904D01*
X93151476Y-112322428D01*
X93272429Y-112261952D01*
X93453857Y-112261952D01*
X93574810Y-112322428D01*
X93635286Y-112382904D01*
X93695762Y-112503857D01*
X93695762Y-112987666D01*
X93635286Y-111294333D02*
X93695762Y-111112904D01*
X93756238Y-111052428D01*
X93877190Y-110991952D01*
X94058619Y-110991952D01*
X94179571Y-111052428D01*
X94240048Y-111112904D01*
X94300524Y-111233857D01*
X94300524Y-111717666D01*
X93030524Y-111717666D01*
X93030524Y-111294333D01*
X93091000Y-111173380D01*
X93151476Y-111112904D01*
X93272429Y-111052428D01*
X93393381Y-111052428D01*
X93514333Y-111112904D01*
X93574810Y-111173380D01*
X93635286Y-111294333D01*
X93635286Y-111717666D01*
X94300524Y-109782428D02*
X94300524Y-110508142D01*
X94300524Y-110145285D02*
X93030524Y-110145285D01*
X93211952Y-110266237D01*
X93332905Y-110387190D01*
X93393381Y-110508142D01*
X93030524Y-108633380D02*
X93030524Y-109238142D01*
X93635286Y-109298618D01*
X93574810Y-109238142D01*
X93514333Y-109117190D01*
X93514333Y-108814809D01*
X93574810Y-108693856D01*
X93635286Y-108633380D01*
X93756238Y-108572904D01*
X94058619Y-108572904D01*
X94179571Y-108633380D01*
X94240048Y-108693856D01*
X94300524Y-108814809D01*
X94300524Y-109117190D01*
X94240048Y-109238142D01*
X94179571Y-109298618D01*
X91760524Y-112987666D02*
X90490524Y-112987666D01*
X90490524Y-112503857D01*
X90551000Y-112382904D01*
X90611476Y-112322428D01*
X90732429Y-112261952D01*
X90913857Y-112261952D01*
X91034810Y-112322428D01*
X91095286Y-112382904D01*
X91155762Y-112503857D01*
X91155762Y-112987666D01*
X91095286Y-111294333D02*
X91155762Y-111112904D01*
X91216238Y-111052428D01*
X91337190Y-110991952D01*
X91518619Y-110991952D01*
X91639571Y-111052428D01*
X91700048Y-111112904D01*
X91760524Y-111233857D01*
X91760524Y-111717666D01*
X90490524Y-111717666D01*
X90490524Y-111294333D01*
X90551000Y-111173380D01*
X90611476Y-111112904D01*
X90732429Y-111052428D01*
X90853381Y-111052428D01*
X90974333Y-111112904D01*
X91034810Y-111173380D01*
X91095286Y-111294333D01*
X91095286Y-111717666D01*
X91760524Y-109782428D02*
X91760524Y-110508142D01*
X91760524Y-110145285D02*
X90490524Y-110145285D01*
X90671952Y-110266237D01*
X90792905Y-110387190D01*
X90853381Y-110508142D01*
X90913857Y-108693856D02*
X91760524Y-108693856D01*
X90430048Y-108996237D02*
X91337190Y-109298618D01*
X91337190Y-108512428D01*
X89220524Y-112987666D02*
X87950524Y-112987666D01*
X87950524Y-112503857D01*
X88011000Y-112382904D01*
X88071476Y-112322428D01*
X88192429Y-112261952D01*
X88373857Y-112261952D01*
X88494810Y-112322428D01*
X88555286Y-112382904D01*
X88615762Y-112503857D01*
X88615762Y-112987666D01*
X88555286Y-111294333D02*
X88615762Y-111112904D01*
X88676238Y-111052428D01*
X88797190Y-110991952D01*
X88978619Y-110991952D01*
X89099571Y-111052428D01*
X89160048Y-111112904D01*
X89220524Y-111233857D01*
X89220524Y-111717666D01*
X87950524Y-111717666D01*
X87950524Y-111294333D01*
X88011000Y-111173380D01*
X88071476Y-111112904D01*
X88192429Y-111052428D01*
X88313381Y-111052428D01*
X88434333Y-111112904D01*
X88494810Y-111173380D01*
X88555286Y-111294333D01*
X88555286Y-111717666D01*
X89220524Y-109782428D02*
X89220524Y-110508142D01*
X89220524Y-110145285D02*
X87950524Y-110145285D01*
X88131952Y-110266237D01*
X88252905Y-110387190D01*
X88313381Y-110508142D01*
X87950524Y-109359094D02*
X87950524Y-108572904D01*
X88434333Y-108996237D01*
X88434333Y-108814809D01*
X88494810Y-108693856D01*
X88555286Y-108633380D01*
X88676238Y-108572904D01*
X88978619Y-108572904D01*
X89099571Y-108633380D01*
X89160048Y-108693856D01*
X89220524Y-108814809D01*
X89220524Y-109177666D01*
X89160048Y-109298618D01*
X89099571Y-109359094D01*
X86680524Y-112987666D02*
X85410524Y-112987666D01*
X85410524Y-112503857D01*
X85471000Y-112382904D01*
X85531476Y-112322428D01*
X85652429Y-112261952D01*
X85833857Y-112261952D01*
X85954810Y-112322428D01*
X86015286Y-112382904D01*
X86075762Y-112503857D01*
X86075762Y-112987666D01*
X86015286Y-111294333D02*
X86075762Y-111112904D01*
X86136238Y-111052428D01*
X86257190Y-110991952D01*
X86438619Y-110991952D01*
X86559571Y-111052428D01*
X86620048Y-111112904D01*
X86680524Y-111233857D01*
X86680524Y-111717666D01*
X85410524Y-111717666D01*
X85410524Y-111294333D01*
X85471000Y-111173380D01*
X85531476Y-111112904D01*
X85652429Y-111052428D01*
X85773381Y-111052428D01*
X85894333Y-111112904D01*
X85954810Y-111173380D01*
X86015286Y-111294333D01*
X86015286Y-111717666D01*
X86680524Y-109782428D02*
X86680524Y-110508142D01*
X86680524Y-110145285D02*
X85410524Y-110145285D01*
X85591952Y-110266237D01*
X85712905Y-110387190D01*
X85773381Y-110508142D01*
X85531476Y-109298618D02*
X85471000Y-109238142D01*
X85410524Y-109117190D01*
X85410524Y-108814809D01*
X85471000Y-108693856D01*
X85531476Y-108633380D01*
X85652429Y-108572904D01*
X85773381Y-108572904D01*
X85954810Y-108633380D01*
X86680524Y-109359094D01*
X86680524Y-108572904D01*
X84140524Y-112987666D02*
X82870524Y-112987666D01*
X82870524Y-112503857D01*
X82931000Y-112382904D01*
X82991476Y-112322428D01*
X83112429Y-112261952D01*
X83293857Y-112261952D01*
X83414810Y-112322428D01*
X83475286Y-112382904D01*
X83535762Y-112503857D01*
X83535762Y-112987666D01*
X83475286Y-111294333D02*
X83535762Y-111112904D01*
X83596238Y-111052428D01*
X83717190Y-110991952D01*
X83898619Y-110991952D01*
X84019571Y-111052428D01*
X84080048Y-111112904D01*
X84140524Y-111233857D01*
X84140524Y-111717666D01*
X82870524Y-111717666D01*
X82870524Y-111294333D01*
X82931000Y-111173380D01*
X82991476Y-111112904D01*
X83112429Y-111052428D01*
X83233381Y-111052428D01*
X83354333Y-111112904D01*
X83414810Y-111173380D01*
X83475286Y-111294333D01*
X83475286Y-111717666D01*
X84140524Y-109782428D02*
X84140524Y-110508142D01*
X84140524Y-110145285D02*
X82870524Y-110145285D01*
X83051952Y-110266237D01*
X83172905Y-110387190D01*
X83233381Y-110508142D01*
X82870524Y-108996237D02*
X82870524Y-108875285D01*
X82931000Y-108754333D01*
X82991476Y-108693856D01*
X83112429Y-108633380D01*
X83354333Y-108572904D01*
X83656714Y-108572904D01*
X83898619Y-108633380D01*
X84019571Y-108693856D01*
X84080048Y-108754333D01*
X84140524Y-108875285D01*
X84140524Y-108996237D01*
X84080048Y-109117190D01*
X84019571Y-109177666D01*
X83898619Y-109238142D01*
X83656714Y-109298618D01*
X83354333Y-109298618D01*
X83112429Y-109238142D01*
X82991476Y-109177666D01*
X82931000Y-109117190D01*
X82870524Y-108996237D01*
X78298524Y-106637666D02*
X77028524Y-106637666D01*
X77028524Y-106153857D01*
X77089000Y-106032904D01*
X77149476Y-105972428D01*
X77270429Y-105911952D01*
X77451857Y-105911952D01*
X77572810Y-105972428D01*
X77633286Y-106032904D01*
X77693762Y-106153857D01*
X77693762Y-106637666D01*
X77935667Y-105428142D02*
X77935667Y-104823380D01*
X78298524Y-105549095D02*
X77028524Y-105125761D01*
X78298524Y-104702428D01*
X77028524Y-104400047D02*
X77028524Y-103553381D01*
X78298524Y-104097666D01*
X75758524Y-106637666D02*
X74488524Y-106637666D01*
X74488524Y-106153857D01*
X74549000Y-106032904D01*
X74609476Y-105972428D01*
X74730429Y-105911952D01*
X74911857Y-105911952D01*
X75032810Y-105972428D01*
X75093286Y-106032904D01*
X75153762Y-106153857D01*
X75153762Y-106637666D01*
X75395667Y-105428142D02*
X75395667Y-104823380D01*
X75758524Y-105549095D02*
X74488524Y-105125761D01*
X75758524Y-104702428D01*
X74488524Y-103734809D02*
X74488524Y-103976714D01*
X74549000Y-104097666D01*
X74609476Y-104158143D01*
X74790905Y-104279095D01*
X75032810Y-104339571D01*
X75516619Y-104339571D01*
X75637571Y-104279095D01*
X75698048Y-104218619D01*
X75758524Y-104097666D01*
X75758524Y-103855762D01*
X75698048Y-103734809D01*
X75637571Y-103674333D01*
X75516619Y-103613857D01*
X75214238Y-103613857D01*
X75093286Y-103674333D01*
X75032810Y-103734809D01*
X74972333Y-103855762D01*
X74972333Y-104097666D01*
X75032810Y-104218619D01*
X75093286Y-104279095D01*
X75214238Y-104339571D01*
X73218524Y-106637666D02*
X71948524Y-106637666D01*
X71948524Y-106153857D01*
X72009000Y-106032904D01*
X72069476Y-105972428D01*
X72190429Y-105911952D01*
X72371857Y-105911952D01*
X72492810Y-105972428D01*
X72553286Y-106032904D01*
X72613762Y-106153857D01*
X72613762Y-106637666D01*
X72855667Y-105428142D02*
X72855667Y-104823380D01*
X73218524Y-105549095D02*
X71948524Y-105125761D01*
X73218524Y-104702428D01*
X71948524Y-103674333D02*
X71948524Y-104279095D01*
X72553286Y-104339571D01*
X72492810Y-104279095D01*
X72432333Y-104158143D01*
X72432333Y-103855762D01*
X72492810Y-103734809D01*
X72553286Y-103674333D01*
X72674238Y-103613857D01*
X72976619Y-103613857D01*
X73097571Y-103674333D01*
X73158048Y-103734809D01*
X73218524Y-103855762D01*
X73218524Y-104158143D01*
X73158048Y-104279095D01*
X73097571Y-104339571D01*
X68900524Y-112987666D02*
X67630524Y-112987666D01*
X67630524Y-112503857D01*
X67691000Y-112382904D01*
X67751476Y-112322428D01*
X67872429Y-112261952D01*
X68053857Y-112261952D01*
X68174810Y-112322428D01*
X68235286Y-112382904D01*
X68295762Y-112503857D01*
X68295762Y-112987666D01*
X68537667Y-111778142D02*
X68537667Y-111173380D01*
X68900524Y-111899095D02*
X67630524Y-111475761D01*
X68900524Y-111052428D01*
X68053857Y-110084809D02*
X68900524Y-110084809D01*
X67570048Y-110387190D02*
X68477190Y-110689571D01*
X68477190Y-109903381D01*
X66360524Y-112987666D02*
X65090524Y-112987666D01*
X65090524Y-112503857D01*
X65151000Y-112382904D01*
X65211476Y-112322428D01*
X65332429Y-112261952D01*
X65513857Y-112261952D01*
X65634810Y-112322428D01*
X65695286Y-112382904D01*
X65755762Y-112503857D01*
X65755762Y-112987666D01*
X65997667Y-111778142D02*
X65997667Y-111173380D01*
X66360524Y-111899095D02*
X65090524Y-111475761D01*
X66360524Y-111052428D01*
X66360524Y-109963857D02*
X66360524Y-110689571D01*
X66360524Y-110326714D02*
X65090524Y-110326714D01*
X65271952Y-110447666D01*
X65392905Y-110568619D01*
X65453381Y-110689571D01*
X81600524Y-112987666D02*
X80330524Y-112987666D01*
X80330524Y-112503857D01*
X80391000Y-112382904D01*
X80451476Y-112322428D01*
X80572429Y-112261952D01*
X80753857Y-112261952D01*
X80874810Y-112322428D01*
X80935286Y-112382904D01*
X80995762Y-112503857D01*
X80995762Y-112987666D01*
X80935286Y-111294333D02*
X80995762Y-111112904D01*
X81056238Y-111052428D01*
X81177190Y-110991952D01*
X81358619Y-110991952D01*
X81479571Y-111052428D01*
X81540048Y-111112904D01*
X81600524Y-111233857D01*
X81600524Y-111717666D01*
X80330524Y-111717666D01*
X80330524Y-111294333D01*
X80391000Y-111173380D01*
X80451476Y-111112904D01*
X80572429Y-111052428D01*
X80693381Y-111052428D01*
X80814333Y-111112904D01*
X80874810Y-111173380D01*
X80935286Y-111294333D01*
X80935286Y-111717666D01*
X80451476Y-110508142D02*
X80391000Y-110447666D01*
X80330524Y-110326714D01*
X80330524Y-110024333D01*
X80391000Y-109903380D01*
X80451476Y-109842904D01*
X80572429Y-109782428D01*
X80693381Y-109782428D01*
X80874810Y-109842904D01*
X81600524Y-110568618D01*
X81600524Y-109782428D01*
X78395286Y-112564333D02*
X78455762Y-112382904D01*
X78516238Y-112322428D01*
X78637190Y-112261952D01*
X78818619Y-112261952D01*
X78939571Y-112322428D01*
X79000048Y-112382904D01*
X79060524Y-112503857D01*
X79060524Y-112987666D01*
X77790524Y-112987666D01*
X77790524Y-112564333D01*
X77851000Y-112443380D01*
X77911476Y-112382904D01*
X78032429Y-112322428D01*
X78153381Y-112322428D01*
X78274333Y-112382904D01*
X78334810Y-112443380D01*
X78395286Y-112564333D01*
X78395286Y-112987666D01*
X79060524Y-111052428D02*
X79060524Y-111778142D01*
X79060524Y-111415285D02*
X77790524Y-111415285D01*
X77971952Y-111536237D01*
X78092905Y-111657190D01*
X78153381Y-111778142D01*
X75855286Y-112564333D02*
X75915762Y-112382904D01*
X75976238Y-112322428D01*
X76097190Y-112261952D01*
X76278619Y-112261952D01*
X76399571Y-112322428D01*
X76460048Y-112382904D01*
X76520524Y-112503857D01*
X76520524Y-112987666D01*
X75250524Y-112987666D01*
X75250524Y-112564333D01*
X75311000Y-112443380D01*
X75371476Y-112382904D01*
X75492429Y-112322428D01*
X75613381Y-112322428D01*
X75734333Y-112382904D01*
X75794810Y-112443380D01*
X75855286Y-112564333D01*
X75855286Y-112987666D01*
X75250524Y-111475761D02*
X75250524Y-111354809D01*
X75311000Y-111233857D01*
X75371476Y-111173380D01*
X75492429Y-111112904D01*
X75734333Y-111052428D01*
X76036714Y-111052428D01*
X76278619Y-111112904D01*
X76399571Y-111173380D01*
X76460048Y-111233857D01*
X76520524Y-111354809D01*
X76520524Y-111475761D01*
X76460048Y-111596714D01*
X76399571Y-111657190D01*
X76278619Y-111717666D01*
X76036714Y-111778142D01*
X75734333Y-111778142D01*
X75492429Y-111717666D01*
X75371476Y-111657190D01*
X75311000Y-111596714D01*
X75250524Y-111475761D01*
X73859571Y-112261952D02*
X73920048Y-112322428D01*
X73980524Y-112503857D01*
X73980524Y-112624809D01*
X73920048Y-112806237D01*
X73799095Y-112927190D01*
X73678143Y-112987666D01*
X73436238Y-113048142D01*
X73254810Y-113048142D01*
X73012905Y-112987666D01*
X72891952Y-112927190D01*
X72771000Y-112806237D01*
X72710524Y-112624809D01*
X72710524Y-112503857D01*
X72771000Y-112322428D01*
X72831476Y-112261952D01*
X72710524Y-111112904D02*
X72710524Y-111717666D01*
X73315286Y-111778142D01*
X73254810Y-111717666D01*
X73194333Y-111596714D01*
X73194333Y-111294333D01*
X73254810Y-111173380D01*
X73315286Y-111112904D01*
X73436238Y-111052428D01*
X73738619Y-111052428D01*
X73859571Y-111112904D01*
X73920048Y-111173380D01*
X73980524Y-111294333D01*
X73980524Y-111596714D01*
X73920048Y-111717666D01*
X73859571Y-111778142D01*
X63820524Y-112987666D02*
X62550524Y-112987666D01*
X62550524Y-112503857D01*
X62611000Y-112382904D01*
X62671476Y-112322428D01*
X62792429Y-112261952D01*
X62973857Y-112261952D01*
X63094810Y-112322428D01*
X63155286Y-112382904D01*
X63215762Y-112503857D01*
X63215762Y-112987666D01*
X63457667Y-111778142D02*
X63457667Y-111173380D01*
X63820524Y-111899095D02*
X62550524Y-111475761D01*
X63820524Y-111052428D01*
X62550524Y-110387190D02*
X62550524Y-110266238D01*
X62611000Y-110145286D01*
X62671476Y-110084809D01*
X62792429Y-110024333D01*
X63034333Y-109963857D01*
X63336714Y-109963857D01*
X63578619Y-110024333D01*
X63699571Y-110084809D01*
X63760048Y-110145286D01*
X63820524Y-110266238D01*
X63820524Y-110387190D01*
X63760048Y-110508143D01*
X63699571Y-110568619D01*
X63578619Y-110629095D01*
X63336714Y-110689571D01*
X63034333Y-110689571D01*
X62792429Y-110629095D01*
X62671476Y-110568619D01*
X62611000Y-110508143D01*
X62550524Y-110387190D01*
X61280524Y-112987666D02*
X60010524Y-112987666D01*
X60010524Y-112503857D01*
X60071000Y-112382904D01*
X60131476Y-112322428D01*
X60252429Y-112261952D01*
X60433857Y-112261952D01*
X60554810Y-112322428D01*
X60615286Y-112382904D01*
X60675762Y-112503857D01*
X60675762Y-112987666D01*
X61159571Y-110991952D02*
X61220048Y-111052428D01*
X61280524Y-111233857D01*
X61280524Y-111354809D01*
X61220048Y-111536237D01*
X61099095Y-111657190D01*
X60978143Y-111717666D01*
X60736238Y-111778142D01*
X60554810Y-111778142D01*
X60312905Y-111717666D01*
X60191952Y-111657190D01*
X60071000Y-111536237D01*
X60010524Y-111354809D01*
X60010524Y-111233857D01*
X60071000Y-111052428D01*
X60131476Y-110991952D01*
X60010524Y-110568618D02*
X60010524Y-109782428D01*
X60494333Y-110205761D01*
X60494333Y-110024333D01*
X60554810Y-109903380D01*
X60615286Y-109842904D01*
X60736238Y-109782428D01*
X61038619Y-109782428D01*
X61159571Y-109842904D01*
X61220048Y-109903380D01*
X61280524Y-110024333D01*
X61280524Y-110387190D01*
X61220048Y-110508142D01*
X61159571Y-110568618D01*
X58740524Y-112987666D02*
X57470524Y-112987666D01*
X57470524Y-112503857D01*
X57531000Y-112382904D01*
X57591476Y-112322428D01*
X57712429Y-112261952D01*
X57893857Y-112261952D01*
X58014810Y-112322428D01*
X58075286Y-112382904D01*
X58135762Y-112503857D01*
X58135762Y-112987666D01*
X58619571Y-110991952D02*
X58680048Y-111052428D01*
X58740524Y-111233857D01*
X58740524Y-111354809D01*
X58680048Y-111536237D01*
X58559095Y-111657190D01*
X58438143Y-111717666D01*
X58196238Y-111778142D01*
X58014810Y-111778142D01*
X57772905Y-111717666D01*
X57651952Y-111657190D01*
X57531000Y-111536237D01*
X57470524Y-111354809D01*
X57470524Y-111233857D01*
X57531000Y-111052428D01*
X57591476Y-110991952D01*
X57591476Y-110508142D02*
X57531000Y-110447666D01*
X57470524Y-110326714D01*
X57470524Y-110024333D01*
X57531000Y-109903380D01*
X57591476Y-109842904D01*
X57712429Y-109782428D01*
X57833381Y-109782428D01*
X58014810Y-109842904D01*
X58740524Y-110568618D01*
X58740524Y-109782428D01*
X56200524Y-112987666D02*
X54930524Y-112987666D01*
X54930524Y-112503857D01*
X54991000Y-112382904D01*
X55051476Y-112322428D01*
X55172429Y-112261952D01*
X55353857Y-112261952D01*
X55474810Y-112322428D01*
X55535286Y-112382904D01*
X55595762Y-112503857D01*
X55595762Y-112987666D01*
X56079571Y-110991952D02*
X56140048Y-111052428D01*
X56200524Y-111233857D01*
X56200524Y-111354809D01*
X56140048Y-111536237D01*
X56019095Y-111657190D01*
X55898143Y-111717666D01*
X55656238Y-111778142D01*
X55474810Y-111778142D01*
X55232905Y-111717666D01*
X55111952Y-111657190D01*
X54991000Y-111536237D01*
X54930524Y-111354809D01*
X54930524Y-111233857D01*
X54991000Y-111052428D01*
X55051476Y-110991952D01*
X56200524Y-109782428D02*
X56200524Y-110508142D01*
X56200524Y-110145285D02*
X54930524Y-110145285D01*
X55111952Y-110266237D01*
X55232905Y-110387190D01*
X55293381Y-110508142D01*
X53285571Y-112261952D02*
X53346048Y-112322428D01*
X53406524Y-112503857D01*
X53406524Y-112624809D01*
X53346048Y-112806237D01*
X53225095Y-112927190D01*
X53104143Y-112987666D01*
X52862238Y-113048142D01*
X52680810Y-113048142D01*
X52438905Y-112987666D01*
X52317952Y-112927190D01*
X52197000Y-112806237D01*
X52136524Y-112624809D01*
X52136524Y-112503857D01*
X52197000Y-112322428D01*
X52257476Y-112261952D01*
X52136524Y-111475761D02*
X52136524Y-111354809D01*
X52197000Y-111233857D01*
X52257476Y-111173380D01*
X52378429Y-111112904D01*
X52620333Y-111052428D01*
X52922714Y-111052428D01*
X53164619Y-111112904D01*
X53285571Y-111173380D01*
X53346048Y-111233857D01*
X53406524Y-111354809D01*
X53406524Y-111475761D01*
X53346048Y-111596714D01*
X53285571Y-111657190D01*
X53164619Y-111717666D01*
X52922714Y-111778142D01*
X52620333Y-111778142D01*
X52378429Y-111717666D01*
X52257476Y-111657190D01*
X52197000Y-111596714D01*
X52136524Y-111475761D01*
X71319571Y-112261952D02*
X71380048Y-112322428D01*
X71440524Y-112503857D01*
X71440524Y-112624809D01*
X71380048Y-112806237D01*
X71259095Y-112927190D01*
X71138143Y-112987666D01*
X70896238Y-113048142D01*
X70714810Y-113048142D01*
X70472905Y-112987666D01*
X70351952Y-112927190D01*
X70231000Y-112806237D01*
X70170524Y-112624809D01*
X70170524Y-112503857D01*
X70231000Y-112322428D01*
X70291476Y-112261952D01*
X70593857Y-111173380D02*
X71440524Y-111173380D01*
X70110048Y-111475761D02*
X71017190Y-111778142D01*
X71017190Y-110991952D01*
X90302500Y-90541800D02*
X81158500Y-90541800D01*
X81158500Y-90541800D02*
X81158500Y-99685800D01*
X81158500Y-99685800D02*
X90302500Y-99685800D01*
X90302500Y-99685800D02*
X90302500Y-90541800D01*
D13*
X80142500Y-90287800D02*
G75*
G03X80142500Y-90287800I-254000J0D01*
G01*
D14*
X72056500Y-83309800D02*
X72056500Y-84159800D01*
X70056500Y-83309800D02*
X70056500Y-84159800D01*
X79200500Y-84177800D02*
X79200500Y-83327800D01*
X81200500Y-84177800D02*
X81200500Y-83327800D01*
X61166500Y-101449800D02*
X61166500Y-100599800D01*
X63166500Y-101449800D02*
X63166500Y-100599800D01*
X61166500Y-89257800D02*
X61166500Y-88407800D01*
X63166500Y-89257800D02*
X63166500Y-88407800D01*
X135544000Y-89392000D02*
X134694000Y-89392000D01*
X135544000Y-87392000D02*
X134694000Y-87392000D01*
X101420000Y-87646000D02*
X102270000Y-87646000D01*
X101420000Y-89646000D02*
X102270000Y-89646000D01*
X142166000Y-102981000D02*
X141316000Y-102981000D01*
X142166000Y-100981000D02*
X141316000Y-100981000D01*
X94142000Y-59166000D02*
X93292000Y-59166000D01*
X94142000Y-57166000D02*
X93292000Y-57166000D01*
X109312000Y-70120000D02*
X110162000Y-70120000D01*
X109312000Y-72120000D02*
X110162000Y-72120000D01*
X105844000Y-72120000D02*
X104994000Y-72120000D01*
X105844000Y-70120000D02*
X104994000Y-70120000D01*
X97374000Y-57166000D02*
X98224000Y-57166000D01*
X97374000Y-59166000D02*
X98224000Y-59166000D01*
X78724000Y-65098000D02*
X78724000Y-65948000D01*
X76724000Y-65098000D02*
X76724000Y-65948000D01*
X109712000Y-99388000D02*
X109712000Y-100238000D01*
X107712000Y-99388000D02*
X107712000Y-100238000D01*
X106918000Y-99388000D02*
X106918000Y-100238000D01*
X104918000Y-99388000D02*
X104918000Y-100238000D01*
X104124000Y-99388000D02*
X104124000Y-100238000D01*
X102124000Y-99388000D02*
X102124000Y-100238000D01*
X122831300Y-61706000D02*
X121981300Y-61706000D01*
X122831300Y-59706000D02*
X121981300Y-59706000D01*
X109382000Y-59166000D02*
X108532000Y-59166000D01*
X109382000Y-57166000D02*
X108532000Y-57166000D01*
X87392000Y-68488000D02*
X87392000Y-67638000D01*
X89392000Y-68488000D02*
X89392000Y-67638000D01*
D15*
X115303300Y-62738000D02*
X115303300Y-66294000D01*
X115303300Y-66294000D02*
X123939300Y-66294000D01*
X123954300Y-62733000D02*
X123954300Y-66299000D01*
X115288300Y-62733000D02*
X123939300Y-62733000D01*
D14*
X72977500Y-88826000D02*
X72977500Y-87976000D01*
X75231500Y-88826000D02*
X75231500Y-87976000D01*
X71421500Y-98549800D02*
X71421500Y-99399800D01*
X69167500Y-98549800D02*
X69167500Y-99399800D01*
X130482000Y-82737200D02*
X129632000Y-82737200D01*
X130482000Y-80483200D02*
X129632000Y-80483200D01*
X134712000Y-84471000D02*
X135562000Y-84471000D01*
X134712000Y-86725000D02*
X135562000Y-86725000D01*
X104556000Y-82915000D02*
X103706000Y-82915000D01*
X104556000Y-80661000D02*
X103706000Y-80661000D01*
X102270000Y-85201000D02*
X101420000Y-85201000D01*
X102270000Y-82947000D02*
X101420000Y-82947000D01*
X142166000Y-100441000D02*
X141316000Y-100441000D01*
X142166000Y-98187000D02*
X141316000Y-98187000D01*
X109839000Y-94580000D02*
X109839000Y-95430000D01*
X107585000Y-94580000D02*
X107585000Y-95430000D01*
X107045000Y-94580000D02*
X107045000Y-95430000D01*
X104791000Y-94580000D02*
X104791000Y-95430000D01*
X104251000Y-94562000D02*
X104251000Y-95412000D01*
X101997000Y-94562000D02*
X101997000Y-95412000D01*
X142166000Y-97647000D02*
X141316000Y-97647000D01*
X142166000Y-95393000D02*
X141316000Y-95393000D01*
X117751300Y-61833000D02*
X116901300Y-61833000D01*
X117751300Y-59579000D02*
X116901300Y-59579000D01*
X104810000Y-59293000D02*
X103960000Y-59293000D01*
X104810000Y-57039000D02*
X103960000Y-57039000D01*
X87265000Y-64170000D02*
X87265000Y-63320000D01*
X89519000Y-64170000D02*
X89519000Y-63320000D01*
X131138000Y-55769000D02*
X131988000Y-55769000D01*
X131138000Y-58023000D02*
X131988000Y-58023000D01*
X79137000Y-67980000D02*
X79137000Y-67130000D01*
X81391000Y-67980000D02*
X81391000Y-67130000D01*
D11*
X128515814Y-86182200D02*
G75*
G03X128515814Y-86182200I-1414214J0D01*
G01*
X129101600Y-89182200D02*
X125101600Y-89182200D01*
X129101600Y-83182200D02*
X125101600Y-83182200D01*
X110888214Y-86360000D02*
G75*
G03X110888214Y-86360000I-1414214J0D01*
G01*
X111474000Y-89360000D02*
X107474000Y-89360000D01*
X111474000Y-83360000D02*
X107474000Y-83360000D01*
D15*
X113908000Y-69608000D02*
X113908000Y-60308000D01*
X113908000Y-60308000D02*
X103008000Y-60308000D01*
X103008000Y-69608000D02*
X103008000Y-60308000D01*
X103008000Y-69608000D02*
X113908000Y-69608000D01*
D16*
X111252000Y-61722000D02*
G75*
G03X111252000Y-61722000I-254000J0D01*
G01*
X99075215Y-68072000D02*
G75*
G03X99075215Y-68072000I-142215J0D01*
G01*
D11*
X94162000Y-61808000D02*
X94162000Y-60658000D01*
X94162000Y-67358000D02*
X94162000Y-66208000D01*
X94162000Y-60658000D02*
X97862000Y-60658000D01*
X94162000Y-67358000D02*
X97862000Y-67358000D01*
D16*
X77786500Y-86949800D02*
G75*
G03X77786500Y-86949800I-254000J0D01*
G01*
D11*
X77754500Y-83496800D02*
X77754500Y-80496800D01*
X74154500Y-85996800D02*
X77354500Y-85996800D01*
X73754500Y-80496800D02*
X73754500Y-83496800D01*
X77354500Y-77996800D02*
X74154500Y-77996800D01*
X68030500Y-100619800D02*
X68580500Y-100619800D01*
X68580500Y-100619800D02*
X68580500Y-89219800D01*
X68580500Y-89219800D02*
X68030500Y-89219800D01*
X63880500Y-100619800D02*
X64430500Y-100619800D01*
X64430500Y-89219800D02*
X63880500Y-89219800D01*
X63880500Y-100619800D02*
X63880500Y-89219800D01*
D14*
X64151000Y-58346000D02*
X64151000Y-57496000D01*
X66405000Y-58346000D02*
X66405000Y-57496000D01*
X79064000Y-60436000D02*
X78364000Y-60436000D01*
X79064000Y-58436000D02*
X78364000Y-58436000D01*
X51078000Y-89130000D02*
X54078000Y-89130000D01*
X54078000Y-89130000D02*
X54078000Y-83590000D01*
X54078000Y-83590000D02*
X51078000Y-83590000D01*
X51078000Y-83590000D02*
X51078000Y-89130000D01*
X51078000Y-96242000D02*
X54078000Y-96242000D01*
X54078000Y-96242000D02*
X54078000Y-90702000D01*
X54078000Y-90702000D02*
X51078000Y-90702000D01*
X51078000Y-90702000D02*
X51078000Y-96242000D01*
X51078000Y-103354000D02*
X54078000Y-103354000D01*
X54078000Y-103354000D02*
X54078000Y-97814000D01*
X54078000Y-97814000D02*
X51078000Y-97814000D01*
X51078000Y-97814000D02*
X51078000Y-103354000D01*
X51078000Y-82018000D02*
X54078000Y-82018000D01*
X54078000Y-82018000D02*
X54078000Y-76478000D01*
X54078000Y-76478000D02*
X51078000Y-76478000D01*
X51078000Y-76478000D02*
X51078000Y-82018000D01*
X51078000Y-74906000D02*
X54078000Y-74906000D01*
X54078000Y-74906000D02*
X54078000Y-69366000D01*
X54078000Y-69366000D02*
X51078000Y-69366000D01*
X51078000Y-69366000D02*
X51078000Y-74906000D01*
X51078000Y-110466000D02*
X54078000Y-110466000D01*
X54078000Y-110466000D02*
X54078000Y-104926000D01*
X54078000Y-104926000D02*
X51078000Y-104926000D01*
X51078000Y-104926000D02*
X51078000Y-110466000D01*
X51586000Y-113562000D02*
X51586000Y-116562000D01*
X51586000Y-116562000D02*
X148566000Y-116562000D01*
X148566000Y-116562000D02*
X148566000Y-113562000D01*
X148566000Y-113562000D02*
X51586000Y-113562000D01*
X71144000Y-107212000D02*
X71144000Y-110212000D01*
X71144000Y-110212000D02*
X79224000Y-110212000D01*
X79224000Y-110212000D02*
X79224000Y-107212000D01*
X79224000Y-107212000D02*
X71144000Y-107212000D01*
D13*
X143764000Y-77216000D02*
G75*
G03X143764000Y-77216000I-254000J0D01*
G01*
D14*
X147550000Y-75716000D02*
X144550000Y-75716000D01*
X144550000Y-75716000D02*
X144550000Y-91416000D01*
X144550000Y-91416000D02*
X147550000Y-91416000D01*
X147550000Y-91416000D02*
X147550000Y-75716000D01*
D13*
X148844000Y-101854000D02*
G75*
G03X148844000Y-101854000I-254000J0D01*
G01*
D14*
X144550000Y-103354000D02*
X147550000Y-103354000D01*
X147550000Y-103354000D02*
X147550000Y-95274000D01*
X147550000Y-95274000D02*
X144550000Y-95274000D01*
X144550000Y-95274000D02*
X144550000Y-103354000D01*
D13*
X93218000Y-72898000D02*
G75*
G03X93218000Y-72898000I-254000J0D01*
G01*
D14*
X91464000Y-68858000D02*
X91464000Y-71858000D01*
X91464000Y-71858000D02*
X97004000Y-71858000D01*
X97004000Y-71858000D02*
X97004000Y-68858000D01*
X97004000Y-68858000D02*
X91464000Y-68858000D01*
D11*
X134620000Y-46474000D02*
X148844000Y-46474000D01*
X134620000Y-66794000D02*
X148844000Y-66794000D01*
X148844000Y-66794000D02*
X148844000Y-46474000D01*
X134620000Y-46474000D02*
X134620000Y-66794000D01*
X63500000Y-66802000D02*
X51054000Y-66802000D01*
X63500000Y-46482000D02*
X51054000Y-46482000D01*
X51054000Y-46482000D02*
X51054000Y-66802000D01*
X63500000Y-66802000D02*
X63500000Y-46482000D01*
X124762381Y-47310524D02*
X124762381Y-46040524D01*
X124762381Y-46645286D02*
X125488095Y-46645286D01*
X125488095Y-47310524D02*
X125488095Y-46040524D01*
X126032381Y-46161476D02*
X126092857Y-46101000D01*
X126213809Y-46040524D01*
X126516190Y-46040524D01*
X126637143Y-46101000D01*
X126697619Y-46161476D01*
X126758095Y-46282429D01*
X126758095Y-46403381D01*
X126697619Y-46584810D01*
X125971905Y-47310524D01*
X126758095Y-47310524D01*
X84690857Y-83886524D02*
X84690857Y-84914619D01*
X84751333Y-85035571D01*
X84811809Y-85096048D01*
X84932762Y-85156524D01*
X85174666Y-85156524D01*
X85295619Y-85096048D01*
X85356095Y-85035571D01*
X85416571Y-84914619D01*
X85416571Y-83886524D01*
X85960857Y-84007476D02*
X86021333Y-83947000D01*
X86142285Y-83886524D01*
X86444666Y-83886524D01*
X86565619Y-83947000D01*
X86626095Y-84007476D01*
X86686571Y-84128429D01*
X86686571Y-84249381D01*
X86626095Y-84430810D01*
X85900381Y-85156524D01*
X86686571Y-85156524D01*
X87472762Y-83886524D02*
X87593714Y-83886524D01*
X87714666Y-83947000D01*
X87775143Y-84007476D01*
X87835619Y-84128429D01*
X87896095Y-84370333D01*
X87896095Y-84672714D01*
X87835619Y-84914619D01*
X87775143Y-85035571D01*
X87714666Y-85096048D01*
X87593714Y-85156524D01*
X87472762Y-85156524D01*
X87351809Y-85096048D01*
X87291333Y-85035571D01*
X87230857Y-84914619D01*
X87170381Y-84672714D01*
X87170381Y-84370333D01*
X87230857Y-84128429D01*
X87291333Y-84007476D01*
X87351809Y-83947000D01*
X87472762Y-83886524D01*
X89105619Y-85156524D02*
X88379905Y-85156524D01*
X88742762Y-85156524D02*
X88742762Y-83886524D01*
X88621810Y-84067952D01*
X88500857Y-84188905D01*
X88379905Y-84249381D01*
X69478071Y-85164991D02*
X69538548Y-85225467D01*
X69599024Y-85406896D01*
X69599024Y-85527848D01*
X69538548Y-85709276D01*
X69417595Y-85830229D01*
X69296643Y-85890705D01*
X69054738Y-85951181D01*
X68873310Y-85951181D01*
X68631405Y-85890705D01*
X68510452Y-85830229D01*
X68389500Y-85709276D01*
X68329024Y-85527848D01*
X68329024Y-85406896D01*
X68389500Y-85225467D01*
X68449976Y-85164991D01*
X68449976Y-84681181D02*
X68389500Y-84620705D01*
X68329024Y-84499753D01*
X68329024Y-84197372D01*
X68389500Y-84076419D01*
X68449976Y-84015943D01*
X68570929Y-83955467D01*
X68691881Y-83955467D01*
X68873310Y-84015943D01*
X69599024Y-84741657D01*
X69599024Y-83955467D01*
X68329024Y-83169276D02*
X68329024Y-83048324D01*
X68389500Y-82927372D01*
X68449976Y-82866895D01*
X68570929Y-82806419D01*
X68812833Y-82745943D01*
X69115214Y-82745943D01*
X69357119Y-82806419D01*
X69478071Y-82866895D01*
X69538548Y-82927372D01*
X69599024Y-83048324D01*
X69599024Y-83169276D01*
X69538548Y-83290229D01*
X69478071Y-83350705D01*
X69357119Y-83411181D01*
X69115214Y-83471657D01*
X68812833Y-83471657D01*
X68570929Y-83411181D01*
X68449976Y-83350705D01*
X68389500Y-83290229D01*
X68329024Y-83169276D01*
X69599024Y-81536419D02*
X69599024Y-82262133D01*
X69599024Y-81899276D02*
X68329024Y-81899276D01*
X68510452Y-82020228D01*
X68631405Y-82141181D01*
X68691881Y-82262133D01*
X80654071Y-80592991D02*
X80714548Y-80653467D01*
X80775024Y-80834896D01*
X80775024Y-80955848D01*
X80714548Y-81137276D01*
X80593595Y-81258229D01*
X80472643Y-81318705D01*
X80230738Y-81379181D01*
X80049310Y-81379181D01*
X79807405Y-81318705D01*
X79686452Y-81258229D01*
X79565500Y-81137276D01*
X79505024Y-80955848D01*
X79505024Y-80834896D01*
X79565500Y-80653467D01*
X79625976Y-80592991D01*
X79625976Y-80109181D02*
X79565500Y-80048705D01*
X79505024Y-79927753D01*
X79505024Y-79625372D01*
X79565500Y-79504419D01*
X79625976Y-79443943D01*
X79746929Y-79383467D01*
X79867881Y-79383467D01*
X80049310Y-79443943D01*
X80775024Y-80169657D01*
X80775024Y-79383467D01*
X79505024Y-78597276D02*
X79505024Y-78476324D01*
X79565500Y-78355372D01*
X79625976Y-78294895D01*
X79746929Y-78234419D01*
X79988833Y-78173943D01*
X80291214Y-78173943D01*
X80533119Y-78234419D01*
X80654071Y-78294895D01*
X80714548Y-78355372D01*
X80775024Y-78476324D01*
X80775024Y-78597276D01*
X80714548Y-78718229D01*
X80654071Y-78778705D01*
X80533119Y-78839181D01*
X80291214Y-78899657D01*
X79988833Y-78899657D01*
X79746929Y-78839181D01*
X79625976Y-78778705D01*
X79565500Y-78718229D01*
X79505024Y-78597276D01*
X79625976Y-77690133D02*
X79565500Y-77629657D01*
X79505024Y-77508705D01*
X79505024Y-77206324D01*
X79565500Y-77085371D01*
X79625976Y-77024895D01*
X79746929Y-76964419D01*
X79867881Y-76964419D01*
X80049310Y-77024895D01*
X80775024Y-77750609D01*
X80775024Y-76964419D01*
X60473771Y-102513191D02*
X60534248Y-102573667D01*
X60594724Y-102755096D01*
X60594724Y-102876048D01*
X60534248Y-103057476D01*
X60413295Y-103178429D01*
X60292343Y-103238905D01*
X60050438Y-103299381D01*
X59869010Y-103299381D01*
X59627105Y-103238905D01*
X59506152Y-103178429D01*
X59385200Y-103057476D01*
X59324724Y-102876048D01*
X59324724Y-102755096D01*
X59385200Y-102573667D01*
X59445676Y-102513191D01*
X59445676Y-102029381D02*
X59385200Y-101968905D01*
X59324724Y-101847953D01*
X59324724Y-101545572D01*
X59385200Y-101424619D01*
X59445676Y-101364143D01*
X59566629Y-101303667D01*
X59687581Y-101303667D01*
X59869010Y-101364143D01*
X60594724Y-102089857D01*
X60594724Y-101303667D01*
X59324724Y-100517476D02*
X59324724Y-100396524D01*
X59385200Y-100275572D01*
X59445676Y-100215095D01*
X59566629Y-100154619D01*
X59808533Y-100094143D01*
X60110914Y-100094143D01*
X60352819Y-100154619D01*
X60473771Y-100215095D01*
X60534248Y-100275572D01*
X60594724Y-100396524D01*
X60594724Y-100517476D01*
X60534248Y-100638429D01*
X60473771Y-100698905D01*
X60352819Y-100759381D01*
X60110914Y-100819857D01*
X59808533Y-100819857D01*
X59566629Y-100759381D01*
X59445676Y-100698905D01*
X59385200Y-100638429D01*
X59324724Y-100517476D01*
X59748057Y-99005571D02*
X60594724Y-99005571D01*
X59264248Y-99307952D02*
X60171390Y-99610333D01*
X60171390Y-98824143D01*
X60473771Y-90295791D02*
X60534248Y-90356267D01*
X60594724Y-90537696D01*
X60594724Y-90658648D01*
X60534248Y-90840076D01*
X60413295Y-90961029D01*
X60292343Y-91021505D01*
X60050438Y-91081981D01*
X59869010Y-91081981D01*
X59627105Y-91021505D01*
X59506152Y-90961029D01*
X59385200Y-90840076D01*
X59324724Y-90658648D01*
X59324724Y-90537696D01*
X59385200Y-90356267D01*
X59445676Y-90295791D01*
X59445676Y-89811981D02*
X59385200Y-89751505D01*
X59324724Y-89630553D01*
X59324724Y-89328172D01*
X59385200Y-89207219D01*
X59445676Y-89146743D01*
X59566629Y-89086267D01*
X59687581Y-89086267D01*
X59869010Y-89146743D01*
X60594724Y-89872457D01*
X60594724Y-89086267D01*
X59324724Y-88300076D02*
X59324724Y-88179124D01*
X59385200Y-88058172D01*
X59445676Y-87997695D01*
X59566629Y-87937219D01*
X59808533Y-87876743D01*
X60110914Y-87876743D01*
X60352819Y-87937219D01*
X60473771Y-87997695D01*
X60534248Y-88058172D01*
X60594724Y-88179124D01*
X60594724Y-88300076D01*
X60534248Y-88421029D01*
X60473771Y-88481505D01*
X60352819Y-88541981D01*
X60110914Y-88602457D01*
X59808533Y-88602457D01*
X59566629Y-88541981D01*
X59445676Y-88481505D01*
X59385200Y-88421029D01*
X59324724Y-88300076D01*
X59324724Y-86727695D02*
X59324724Y-87332457D01*
X59929486Y-87392933D01*
X59869010Y-87332457D01*
X59808533Y-87211505D01*
X59808533Y-86909124D01*
X59869010Y-86788171D01*
X59929486Y-86727695D01*
X60050438Y-86667219D01*
X60352819Y-86667219D01*
X60473771Y-86727695D01*
X60534248Y-86788171D01*
X60594724Y-86909124D01*
X60594724Y-87211505D01*
X60534248Y-87332457D01*
X60473771Y-87392933D01*
X133452809Y-83257571D02*
X133392333Y-83318048D01*
X133210904Y-83378524D01*
X133089952Y-83378524D01*
X132908524Y-83318048D01*
X132787571Y-83197095D01*
X132727095Y-83076143D01*
X132666619Y-82834238D01*
X132666619Y-82652810D01*
X132727095Y-82410905D01*
X132787571Y-82289952D01*
X132908524Y-82169000D01*
X133089952Y-82108524D01*
X133210904Y-82108524D01*
X133392333Y-82169000D01*
X133452809Y-82229476D01*
X133936619Y-82229476D02*
X133997095Y-82169000D01*
X134118047Y-82108524D01*
X134420428Y-82108524D01*
X134541381Y-82169000D01*
X134601857Y-82229476D01*
X134662333Y-82350429D01*
X134662333Y-82471381D01*
X134601857Y-82652810D01*
X133876143Y-83378524D01*
X134662333Y-83378524D01*
X135448524Y-82108524D02*
X135569476Y-82108524D01*
X135690428Y-82169000D01*
X135750905Y-82229476D01*
X135811381Y-82350429D01*
X135871857Y-82592333D01*
X135871857Y-82894714D01*
X135811381Y-83136619D01*
X135750905Y-83257571D01*
X135690428Y-83318048D01*
X135569476Y-83378524D01*
X135448524Y-83378524D01*
X135327571Y-83318048D01*
X135267095Y-83257571D01*
X135206619Y-83136619D01*
X135146143Y-82894714D01*
X135146143Y-82592333D01*
X135206619Y-82350429D01*
X135267095Y-82229476D01*
X135327571Y-82169000D01*
X135448524Y-82108524D01*
X136476619Y-83378524D02*
X136718524Y-83378524D01*
X136839476Y-83318048D01*
X136899952Y-83257571D01*
X137020905Y-83076143D01*
X137081381Y-82834238D01*
X137081381Y-82350429D01*
X137020905Y-82229476D01*
X136960429Y-82169000D01*
X136839476Y-82108524D01*
X136597572Y-82108524D01*
X136476619Y-82169000D01*
X136416143Y-82229476D01*
X136355667Y-82350429D01*
X136355667Y-82652810D01*
X136416143Y-82773762D01*
X136476619Y-82834238D01*
X136597572Y-82894714D01*
X136839476Y-82894714D01*
X136960429Y-82834238D01*
X137020905Y-82773762D01*
X137081381Y-82652810D01*
X100432809Y-91639571D02*
X100372333Y-91700048D01*
X100190904Y-91760524D01*
X100069952Y-91760524D01*
X99888524Y-91700048D01*
X99767571Y-91579095D01*
X99707095Y-91458143D01*
X99646619Y-91216238D01*
X99646619Y-91034810D01*
X99707095Y-90792905D01*
X99767571Y-90671952D01*
X99888524Y-90551000D01*
X100069952Y-90490524D01*
X100190904Y-90490524D01*
X100372333Y-90551000D01*
X100432809Y-90611476D01*
X100916619Y-90611476D02*
X100977095Y-90551000D01*
X101098047Y-90490524D01*
X101400428Y-90490524D01*
X101521381Y-90551000D01*
X101581857Y-90611476D01*
X101642333Y-90732429D01*
X101642333Y-90853381D01*
X101581857Y-91034810D01*
X100856143Y-91760524D01*
X101642333Y-91760524D01*
X102851857Y-91760524D02*
X102126143Y-91760524D01*
X102489000Y-91760524D02*
X102489000Y-90490524D01*
X102368048Y-90671952D01*
X102247095Y-90792905D01*
X102126143Y-90853381D01*
X103275191Y-90490524D02*
X104061381Y-90490524D01*
X103638048Y-90974333D01*
X103819476Y-90974333D01*
X103940429Y-91034810D01*
X104000905Y-91095286D01*
X104061381Y-91216238D01*
X104061381Y-91518619D01*
X104000905Y-91639571D01*
X103940429Y-91700048D01*
X103819476Y-91760524D01*
X103456619Y-91760524D01*
X103335667Y-91700048D01*
X103275191Y-91639571D01*
X140328809Y-94433571D02*
X140268333Y-94494048D01*
X140086904Y-94554524D01*
X139965952Y-94554524D01*
X139784524Y-94494048D01*
X139663571Y-94373095D01*
X139603095Y-94252143D01*
X139542619Y-94010238D01*
X139542619Y-93828810D01*
X139603095Y-93586905D01*
X139663571Y-93465952D01*
X139784524Y-93345000D01*
X139965952Y-93284524D01*
X140086904Y-93284524D01*
X140268333Y-93345000D01*
X140328809Y-93405476D01*
X140812619Y-93405476D02*
X140873095Y-93345000D01*
X140994047Y-93284524D01*
X141296428Y-93284524D01*
X141417381Y-93345000D01*
X141477857Y-93405476D01*
X141538333Y-93526429D01*
X141538333Y-93647381D01*
X141477857Y-93828810D01*
X140752143Y-94554524D01*
X141538333Y-94554524D01*
X142747857Y-94554524D02*
X142022143Y-94554524D01*
X142385000Y-94554524D02*
X142385000Y-93284524D01*
X142264048Y-93465952D01*
X142143095Y-93586905D01*
X142022143Y-93647381D01*
X143836429Y-93707857D02*
X143836429Y-94554524D01*
X143534048Y-93224048D02*
X143231667Y-94131190D01*
X144017857Y-94131190D01*
X91542809Y-56333571D02*
X91482333Y-56394048D01*
X91300904Y-56454524D01*
X91179952Y-56454524D01*
X90998524Y-56394048D01*
X90877571Y-56273095D01*
X90817095Y-56152143D01*
X90756619Y-55910238D01*
X90756619Y-55728810D01*
X90817095Y-55486905D01*
X90877571Y-55365952D01*
X90998524Y-55245000D01*
X91179952Y-55184524D01*
X91300904Y-55184524D01*
X91482333Y-55245000D01*
X91542809Y-55305476D01*
X91966143Y-55184524D02*
X92752333Y-55184524D01*
X92329000Y-55668333D01*
X92510428Y-55668333D01*
X92631381Y-55728810D01*
X92691857Y-55789286D01*
X92752333Y-55910238D01*
X92752333Y-56212619D01*
X92691857Y-56333571D01*
X92631381Y-56394048D01*
X92510428Y-56454524D01*
X92147571Y-56454524D01*
X92026619Y-56394048D01*
X91966143Y-56333571D01*
X93538524Y-55184524D02*
X93659476Y-55184524D01*
X93780428Y-55245000D01*
X93840905Y-55305476D01*
X93901381Y-55426429D01*
X93961857Y-55668333D01*
X93961857Y-55970714D01*
X93901381Y-56212619D01*
X93840905Y-56333571D01*
X93780428Y-56394048D01*
X93659476Y-56454524D01*
X93538524Y-56454524D01*
X93417571Y-56394048D01*
X93357095Y-56333571D01*
X93296619Y-56212619D01*
X93236143Y-55970714D01*
X93236143Y-55668333D01*
X93296619Y-55426429D01*
X93357095Y-55305476D01*
X93417571Y-55245000D01*
X93538524Y-55184524D01*
X95171381Y-56454524D02*
X94445667Y-56454524D01*
X94808524Y-56454524D02*
X94808524Y-55184524D01*
X94687572Y-55365952D01*
X94566619Y-55486905D01*
X94445667Y-55547381D01*
X108814809Y-74113571D02*
X108754333Y-74174048D01*
X108572904Y-74234524D01*
X108451952Y-74234524D01*
X108270524Y-74174048D01*
X108149571Y-74053095D01*
X108089095Y-73932143D01*
X108028619Y-73690238D01*
X108028619Y-73508810D01*
X108089095Y-73266905D01*
X108149571Y-73145952D01*
X108270524Y-73025000D01*
X108451952Y-72964524D01*
X108572904Y-72964524D01*
X108754333Y-73025000D01*
X108814809Y-73085476D01*
X109238143Y-72964524D02*
X110024333Y-72964524D01*
X109601000Y-73448333D01*
X109782428Y-73448333D01*
X109903381Y-73508810D01*
X109963857Y-73569286D01*
X110024333Y-73690238D01*
X110024333Y-73992619D01*
X109963857Y-74113571D01*
X109903381Y-74174048D01*
X109782428Y-74234524D01*
X109419571Y-74234524D01*
X109298619Y-74174048D01*
X109238143Y-74113571D01*
X110810524Y-72964524D02*
X110931476Y-72964524D01*
X111052428Y-73025000D01*
X111112905Y-73085476D01*
X111173381Y-73206429D01*
X111233857Y-73448333D01*
X111233857Y-73750714D01*
X111173381Y-73992619D01*
X111112905Y-74113571D01*
X111052428Y-74174048D01*
X110931476Y-74234524D01*
X110810524Y-74234524D01*
X110689571Y-74174048D01*
X110629095Y-74113571D01*
X110568619Y-73992619D01*
X110508143Y-73750714D01*
X110508143Y-73448333D01*
X110568619Y-73206429D01*
X110629095Y-73085476D01*
X110689571Y-73025000D01*
X110810524Y-72964524D01*
X111717667Y-73085476D02*
X111778143Y-73025000D01*
X111899095Y-72964524D01*
X112201476Y-72964524D01*
X112322429Y-73025000D01*
X112382905Y-73085476D01*
X112443381Y-73206429D01*
X112443381Y-73327381D01*
X112382905Y-73508810D01*
X111657191Y-74234524D01*
X112443381Y-74234524D01*
X102718809Y-74113571D02*
X102658333Y-74174048D01*
X102476904Y-74234524D01*
X102355952Y-74234524D01*
X102174524Y-74174048D01*
X102053571Y-74053095D01*
X101993095Y-73932143D01*
X101932619Y-73690238D01*
X101932619Y-73508810D01*
X101993095Y-73266905D01*
X102053571Y-73145952D01*
X102174524Y-73025000D01*
X102355952Y-72964524D01*
X102476904Y-72964524D01*
X102658333Y-73025000D01*
X102718809Y-73085476D01*
X103142143Y-72964524D02*
X103928333Y-72964524D01*
X103505000Y-73448333D01*
X103686428Y-73448333D01*
X103807381Y-73508810D01*
X103867857Y-73569286D01*
X103928333Y-73690238D01*
X103928333Y-73992619D01*
X103867857Y-74113571D01*
X103807381Y-74174048D01*
X103686428Y-74234524D01*
X103323571Y-74234524D01*
X103202619Y-74174048D01*
X103142143Y-74113571D01*
X104714524Y-72964524D02*
X104835476Y-72964524D01*
X104956428Y-73025000D01*
X105016905Y-73085476D01*
X105077381Y-73206429D01*
X105137857Y-73448333D01*
X105137857Y-73750714D01*
X105077381Y-73992619D01*
X105016905Y-74113571D01*
X104956428Y-74174048D01*
X104835476Y-74234524D01*
X104714524Y-74234524D01*
X104593571Y-74174048D01*
X104533095Y-74113571D01*
X104472619Y-73992619D01*
X104412143Y-73750714D01*
X104412143Y-73448333D01*
X104472619Y-73206429D01*
X104533095Y-73085476D01*
X104593571Y-73025000D01*
X104714524Y-72964524D01*
X105561191Y-72964524D02*
X106347381Y-72964524D01*
X105924048Y-73448333D01*
X106105476Y-73448333D01*
X106226429Y-73508810D01*
X106286905Y-73569286D01*
X106347381Y-73690238D01*
X106347381Y-73992619D01*
X106286905Y-74113571D01*
X106226429Y-74174048D01*
X106105476Y-74234524D01*
X105742619Y-74234524D01*
X105621667Y-74174048D01*
X105561191Y-74113571D01*
X97130809Y-56333571D02*
X97070333Y-56394048D01*
X96888904Y-56454524D01*
X96767952Y-56454524D01*
X96586524Y-56394048D01*
X96465571Y-56273095D01*
X96405095Y-56152143D01*
X96344619Y-55910238D01*
X96344619Y-55728810D01*
X96405095Y-55486905D01*
X96465571Y-55365952D01*
X96586524Y-55245000D01*
X96767952Y-55184524D01*
X96888904Y-55184524D01*
X97070333Y-55245000D01*
X97130809Y-55305476D01*
X97554143Y-55184524D02*
X98340333Y-55184524D01*
X97917000Y-55668333D01*
X98098428Y-55668333D01*
X98219381Y-55728810D01*
X98279857Y-55789286D01*
X98340333Y-55910238D01*
X98340333Y-56212619D01*
X98279857Y-56333571D01*
X98219381Y-56394048D01*
X98098428Y-56454524D01*
X97735571Y-56454524D01*
X97614619Y-56394048D01*
X97554143Y-56333571D01*
X99126524Y-55184524D02*
X99247476Y-55184524D01*
X99368428Y-55245000D01*
X99428905Y-55305476D01*
X99489381Y-55426429D01*
X99549857Y-55668333D01*
X99549857Y-55970714D01*
X99489381Y-56212619D01*
X99428905Y-56333571D01*
X99368428Y-56394048D01*
X99247476Y-56454524D01*
X99126524Y-56454524D01*
X99005571Y-56394048D01*
X98945095Y-56333571D01*
X98884619Y-56212619D01*
X98824143Y-55970714D01*
X98824143Y-55668333D01*
X98884619Y-55426429D01*
X98945095Y-55305476D01*
X99005571Y-55245000D01*
X99126524Y-55184524D01*
X100638429Y-55607857D02*
X100638429Y-56454524D01*
X100336048Y-55124048D02*
X100033667Y-56031190D01*
X100819857Y-56031190D01*
X78177571Y-72033191D02*
X78238048Y-72093667D01*
X78298524Y-72275096D01*
X78298524Y-72396048D01*
X78238048Y-72577476D01*
X78117095Y-72698429D01*
X77996143Y-72758905D01*
X77754238Y-72819381D01*
X77572810Y-72819381D01*
X77330905Y-72758905D01*
X77209952Y-72698429D01*
X77089000Y-72577476D01*
X77028524Y-72396048D01*
X77028524Y-72275096D01*
X77089000Y-72093667D01*
X77149476Y-72033191D01*
X77451857Y-70944619D02*
X78298524Y-70944619D01*
X76968048Y-71247000D02*
X77875190Y-71549381D01*
X77875190Y-70763191D01*
X77028524Y-70037476D02*
X77028524Y-69916524D01*
X77089000Y-69795572D01*
X77149476Y-69735095D01*
X77270429Y-69674619D01*
X77512333Y-69614143D01*
X77814714Y-69614143D01*
X78056619Y-69674619D01*
X78177571Y-69735095D01*
X78238048Y-69795572D01*
X78298524Y-69916524D01*
X78298524Y-70037476D01*
X78238048Y-70158429D01*
X78177571Y-70218905D01*
X78056619Y-70279381D01*
X77814714Y-70339857D01*
X77512333Y-70339857D01*
X77270429Y-70279381D01*
X77149476Y-70218905D01*
X77089000Y-70158429D01*
X77028524Y-70037476D01*
X77028524Y-68465095D02*
X77028524Y-69069857D01*
X77633286Y-69130333D01*
X77572810Y-69069857D01*
X77512333Y-68948905D01*
X77512333Y-68646524D01*
X77572810Y-68525571D01*
X77633286Y-68465095D01*
X77754238Y-68404619D01*
X78056619Y-68404619D01*
X78177571Y-68465095D01*
X78238048Y-68525571D01*
X78298524Y-68646524D01*
X78298524Y-68948905D01*
X78238048Y-69069857D01*
X78177571Y-69130333D01*
X116017524Y-103638190D02*
X114747524Y-103638190D01*
X114747524Y-103335809D01*
X114808000Y-103154381D01*
X114928952Y-103033428D01*
X115049905Y-102972952D01*
X115291810Y-102912476D01*
X115473238Y-102912476D01*
X115715143Y-102972952D01*
X115836095Y-103033428D01*
X115957048Y-103154381D01*
X116017524Y-103335809D01*
X116017524Y-103638190D01*
X114868476Y-102428666D02*
X114808000Y-102368190D01*
X114747524Y-102247238D01*
X114747524Y-101944857D01*
X114808000Y-101823904D01*
X114868476Y-101763428D01*
X114989429Y-101702952D01*
X115110381Y-101702952D01*
X115291810Y-101763428D01*
X116017524Y-102489142D01*
X116017524Y-101702952D01*
X114747524Y-100916761D02*
X114747524Y-100795809D01*
X114808000Y-100674857D01*
X114868476Y-100614380D01*
X114989429Y-100553904D01*
X115231333Y-100493428D01*
X115533714Y-100493428D01*
X115775619Y-100553904D01*
X115896571Y-100614380D01*
X115957048Y-100674857D01*
X116017524Y-100795809D01*
X116017524Y-100916761D01*
X115957048Y-101037714D01*
X115896571Y-101098190D01*
X115775619Y-101158666D01*
X115533714Y-101219142D01*
X115231333Y-101219142D01*
X114989429Y-101158666D01*
X114868476Y-101098190D01*
X114808000Y-101037714D01*
X114747524Y-100916761D01*
X116017524Y-99283904D02*
X116017524Y-100009618D01*
X116017524Y-99646761D02*
X114747524Y-99646761D01*
X114928952Y-99767713D01*
X115049905Y-99888666D01*
X115110381Y-100009618D01*
X114112524Y-103638190D02*
X112842524Y-103638190D01*
X112842524Y-103335809D01*
X112903000Y-103154381D01*
X113023952Y-103033428D01*
X113144905Y-102972952D01*
X113386810Y-102912476D01*
X113568238Y-102912476D01*
X113810143Y-102972952D01*
X113931095Y-103033428D01*
X114052048Y-103154381D01*
X114112524Y-103335809D01*
X114112524Y-103638190D01*
X112963476Y-102428666D02*
X112903000Y-102368190D01*
X112842524Y-102247238D01*
X112842524Y-101944857D01*
X112903000Y-101823904D01*
X112963476Y-101763428D01*
X113084429Y-101702952D01*
X113205381Y-101702952D01*
X113386810Y-101763428D01*
X114112524Y-102489142D01*
X114112524Y-101702952D01*
X112842524Y-100916761D02*
X112842524Y-100795809D01*
X112903000Y-100674857D01*
X112963476Y-100614380D01*
X113084429Y-100553904D01*
X113326333Y-100493428D01*
X113628714Y-100493428D01*
X113870619Y-100553904D01*
X113991571Y-100614380D01*
X114052048Y-100674857D01*
X114112524Y-100795809D01*
X114112524Y-100916761D01*
X114052048Y-101037714D01*
X113991571Y-101098190D01*
X113870619Y-101158666D01*
X113628714Y-101219142D01*
X113326333Y-101219142D01*
X113084429Y-101158666D01*
X112963476Y-101098190D01*
X112903000Y-101037714D01*
X112842524Y-100916761D01*
X112963476Y-100009618D02*
X112903000Y-99949142D01*
X112842524Y-99828190D01*
X112842524Y-99525809D01*
X112903000Y-99404856D01*
X112963476Y-99344380D01*
X113084429Y-99283904D01*
X113205381Y-99283904D01*
X113386810Y-99344380D01*
X114112524Y-100070094D01*
X114112524Y-99283904D01*
X112080524Y-103728905D02*
X110810524Y-103728905D01*
X110810524Y-103426524D01*
X110871000Y-103245096D01*
X110991952Y-103124143D01*
X111112905Y-103063667D01*
X111354810Y-103003191D01*
X111536238Y-103003191D01*
X111778143Y-103063667D01*
X111899095Y-103124143D01*
X112020048Y-103245096D01*
X112080524Y-103426524D01*
X112080524Y-103728905D01*
X110931476Y-102519381D02*
X110871000Y-102458905D01*
X110810524Y-102337953D01*
X110810524Y-102035572D01*
X110871000Y-101914619D01*
X110931476Y-101854143D01*
X111052429Y-101793667D01*
X111173381Y-101793667D01*
X111354810Y-101854143D01*
X112080524Y-102579857D01*
X112080524Y-101793667D01*
X110810524Y-101007476D02*
X110810524Y-100886524D01*
X110871000Y-100765572D01*
X110931476Y-100705095D01*
X111052429Y-100644619D01*
X111294333Y-100584143D01*
X111596714Y-100584143D01*
X111838619Y-100644619D01*
X111959571Y-100705095D01*
X112020048Y-100765572D01*
X112080524Y-100886524D01*
X112080524Y-101007476D01*
X112020048Y-101128429D01*
X111959571Y-101188905D01*
X111838619Y-101249381D01*
X111596714Y-101309857D01*
X111294333Y-101309857D01*
X111052429Y-101249381D01*
X110931476Y-101188905D01*
X110871000Y-101128429D01*
X110810524Y-101007476D01*
X110810524Y-100160809D02*
X110810524Y-99374619D01*
X111294333Y-99797952D01*
X111294333Y-99616524D01*
X111354810Y-99495571D01*
X111415286Y-99435095D01*
X111536238Y-99374619D01*
X111838619Y-99374619D01*
X111959571Y-99435095D01*
X112020048Y-99495571D01*
X112080524Y-99616524D01*
X112080524Y-99979381D01*
X112020048Y-100100333D01*
X111959571Y-100160809D01*
X120776395Y-58740524D02*
X120776395Y-57470524D01*
X121078776Y-57470524D01*
X121260204Y-57531000D01*
X121381157Y-57651952D01*
X121441633Y-57772905D01*
X121502109Y-58014810D01*
X121502109Y-58196238D01*
X121441633Y-58438143D01*
X121381157Y-58559095D01*
X121260204Y-58680048D01*
X121078776Y-58740524D01*
X120776395Y-58740524D01*
X121925443Y-57470524D02*
X122711633Y-57470524D01*
X122288300Y-57954333D01*
X122469728Y-57954333D01*
X122590681Y-58014810D01*
X122651157Y-58075286D01*
X122711633Y-58196238D01*
X122711633Y-58498619D01*
X122651157Y-58619571D01*
X122590681Y-58680048D01*
X122469728Y-58740524D01*
X122106871Y-58740524D01*
X121985919Y-58680048D01*
X121925443Y-58619571D01*
X123497824Y-57470524D02*
X123618776Y-57470524D01*
X123739728Y-57531000D01*
X123800205Y-57591476D01*
X123860681Y-57712429D01*
X123921157Y-57954333D01*
X123921157Y-58256714D01*
X123860681Y-58498619D01*
X123800205Y-58619571D01*
X123739728Y-58680048D01*
X123618776Y-58740524D01*
X123497824Y-58740524D01*
X123376871Y-58680048D01*
X123316395Y-58619571D01*
X123255919Y-58498619D01*
X123195443Y-58256714D01*
X123195443Y-57954333D01*
X123255919Y-57712429D01*
X123316395Y-57591476D01*
X123376871Y-57531000D01*
X123497824Y-57470524D01*
X125130681Y-58740524D02*
X124404967Y-58740524D01*
X124767824Y-58740524D02*
X124767824Y-57470524D01*
X124646872Y-57651952D01*
X124525919Y-57772905D01*
X124404967Y-57833381D01*
X107835095Y-56454524D02*
X107835095Y-55184524D01*
X108137476Y-55184524D01*
X108318904Y-55245000D01*
X108439857Y-55365952D01*
X108500333Y-55486905D01*
X108560809Y-55728810D01*
X108560809Y-55910238D01*
X108500333Y-56152143D01*
X108439857Y-56273095D01*
X108318904Y-56394048D01*
X108137476Y-56454524D01*
X107835095Y-56454524D01*
X108984143Y-55184524D02*
X109770333Y-55184524D01*
X109347000Y-55668333D01*
X109528428Y-55668333D01*
X109649381Y-55728810D01*
X109709857Y-55789286D01*
X109770333Y-55910238D01*
X109770333Y-56212619D01*
X109709857Y-56333571D01*
X109649381Y-56394048D01*
X109528428Y-56454524D01*
X109165571Y-56454524D01*
X109044619Y-56394048D01*
X108984143Y-56333571D01*
X110556524Y-55184524D02*
X110677476Y-55184524D01*
X110798428Y-55245000D01*
X110858905Y-55305476D01*
X110919381Y-55426429D01*
X110979857Y-55668333D01*
X110979857Y-55970714D01*
X110919381Y-56212619D01*
X110858905Y-56333571D01*
X110798428Y-56394048D01*
X110677476Y-56454524D01*
X110556524Y-56454524D01*
X110435571Y-56394048D01*
X110375095Y-56333571D01*
X110314619Y-56212619D01*
X110254143Y-55970714D01*
X110254143Y-55668333D01*
X110314619Y-55426429D01*
X110375095Y-55305476D01*
X110435571Y-55245000D01*
X110556524Y-55184524D01*
X111463667Y-55305476D02*
X111524143Y-55245000D01*
X111645095Y-55184524D01*
X111947476Y-55184524D01*
X112068429Y-55245000D01*
X112128905Y-55305476D01*
X112189381Y-55426429D01*
X112189381Y-55547381D01*
X112128905Y-55728810D01*
X111403191Y-56454524D01*
X112189381Y-56454524D01*
X88966524Y-75044905D02*
X87696524Y-75044905D01*
X87696524Y-74742524D01*
X87757000Y-74561096D01*
X87877952Y-74440143D01*
X87998905Y-74379667D01*
X88240810Y-74319191D01*
X88422238Y-74319191D01*
X88664143Y-74379667D01*
X88785095Y-74440143D01*
X88906048Y-74561096D01*
X88966524Y-74742524D01*
X88966524Y-75044905D01*
X87696524Y-73895857D02*
X87696524Y-73109667D01*
X88180333Y-73533000D01*
X88180333Y-73351572D01*
X88240810Y-73230619D01*
X88301286Y-73170143D01*
X88422238Y-73109667D01*
X88724619Y-73109667D01*
X88845571Y-73170143D01*
X88906048Y-73230619D01*
X88966524Y-73351572D01*
X88966524Y-73714429D01*
X88906048Y-73835381D01*
X88845571Y-73895857D01*
X87696524Y-72323476D02*
X87696524Y-72202524D01*
X87757000Y-72081572D01*
X87817476Y-72021095D01*
X87938429Y-71960619D01*
X88180333Y-71900143D01*
X88482714Y-71900143D01*
X88724619Y-71960619D01*
X88845571Y-72021095D01*
X88906048Y-72081572D01*
X88966524Y-72202524D01*
X88966524Y-72323476D01*
X88906048Y-72444429D01*
X88845571Y-72504905D01*
X88724619Y-72565381D01*
X88482714Y-72625857D01*
X88180333Y-72625857D01*
X87938429Y-72565381D01*
X87817476Y-72504905D01*
X87757000Y-72444429D01*
X87696524Y-72323476D01*
X87696524Y-71476809D02*
X87696524Y-70690619D01*
X88180333Y-71113952D01*
X88180333Y-70932524D01*
X88240810Y-70811571D01*
X88301286Y-70751095D01*
X88422238Y-70690619D01*
X88724619Y-70690619D01*
X88845571Y-70751095D01*
X88906048Y-70811571D01*
X88966524Y-70932524D01*
X88966524Y-71295381D01*
X88906048Y-71416333D01*
X88845571Y-71476809D01*
X125385286Y-65894857D02*
X125385286Y-66318190D01*
X126050524Y-66318190D02*
X124780524Y-66318190D01*
X124780524Y-65713428D01*
X124780524Y-65350571D02*
X124780524Y-64564381D01*
X125264333Y-64987714D01*
X125264333Y-64806286D01*
X125324810Y-64685333D01*
X125385286Y-64624857D01*
X125506238Y-64564381D01*
X125808619Y-64564381D01*
X125929571Y-64624857D01*
X125990048Y-64685333D01*
X126050524Y-64806286D01*
X126050524Y-65169143D01*
X125990048Y-65290095D01*
X125929571Y-65350571D01*
X124780524Y-63778190D02*
X124780524Y-63657238D01*
X124841000Y-63536286D01*
X124901476Y-63475809D01*
X125022429Y-63415333D01*
X125264333Y-63354857D01*
X125566714Y-63354857D01*
X125808619Y-63415333D01*
X125929571Y-63475809D01*
X125990048Y-63536286D01*
X126050524Y-63657238D01*
X126050524Y-63778190D01*
X125990048Y-63899143D01*
X125929571Y-63959619D01*
X125808619Y-64020095D01*
X125566714Y-64080571D01*
X125264333Y-64080571D01*
X125022429Y-64020095D01*
X124901476Y-63959619D01*
X124841000Y-63899143D01*
X124780524Y-63778190D01*
X126050524Y-62145333D02*
X126050524Y-62871047D01*
X126050524Y-62508190D02*
X124780524Y-62508190D01*
X124961952Y-62629142D01*
X125082905Y-62750095D01*
X125143381Y-62871047D01*
X72494624Y-90161391D02*
X71889862Y-90584724D01*
X72494624Y-90887105D02*
X71224624Y-90887105D01*
X71224624Y-90403296D01*
X71285100Y-90282343D01*
X71345576Y-90221867D01*
X71466529Y-90161391D01*
X71647957Y-90161391D01*
X71768910Y-90221867D01*
X71829386Y-90282343D01*
X71889862Y-90403296D01*
X71889862Y-90887105D01*
X71345576Y-89677581D02*
X71285100Y-89617105D01*
X71224624Y-89496153D01*
X71224624Y-89193772D01*
X71285100Y-89072819D01*
X71345576Y-89012343D01*
X71466529Y-88951867D01*
X71587481Y-88951867D01*
X71768910Y-89012343D01*
X72494624Y-89738057D01*
X72494624Y-88951867D01*
X71224624Y-88165676D02*
X71224624Y-88044724D01*
X71285100Y-87923772D01*
X71345576Y-87863295D01*
X71466529Y-87802819D01*
X71708433Y-87742343D01*
X72010814Y-87742343D01*
X72252719Y-87802819D01*
X72373671Y-87863295D01*
X72434148Y-87923772D01*
X72494624Y-88044724D01*
X72494624Y-88165676D01*
X72434148Y-88286629D01*
X72373671Y-88347105D01*
X72252719Y-88407581D01*
X72010814Y-88468057D01*
X71708433Y-88468057D01*
X71466529Y-88407581D01*
X71345576Y-88347105D01*
X71285100Y-88286629D01*
X71224624Y-88165676D01*
X72494624Y-86532819D02*
X72494624Y-87258533D01*
X72494624Y-86895676D02*
X71224624Y-86895676D01*
X71406052Y-87016628D01*
X71527005Y-87137581D01*
X71587481Y-87258533D01*
X73409024Y-101021991D02*
X72804262Y-101445324D01*
X73409024Y-101747705D02*
X72139024Y-101747705D01*
X72139024Y-101263896D01*
X72199500Y-101142943D01*
X72259976Y-101082467D01*
X72380929Y-101021991D01*
X72562357Y-101021991D01*
X72683310Y-101082467D01*
X72743786Y-101142943D01*
X72804262Y-101263896D01*
X72804262Y-101747705D01*
X72259976Y-100538181D02*
X72199500Y-100477705D01*
X72139024Y-100356753D01*
X72139024Y-100054372D01*
X72199500Y-99933419D01*
X72259976Y-99872943D01*
X72380929Y-99812467D01*
X72501881Y-99812467D01*
X72683310Y-99872943D01*
X73409024Y-100598657D01*
X73409024Y-99812467D01*
X72139024Y-99026276D02*
X72139024Y-98905324D01*
X72199500Y-98784372D01*
X72259976Y-98723895D01*
X72380929Y-98663419D01*
X72622833Y-98602943D01*
X72925214Y-98602943D01*
X73167119Y-98663419D01*
X73288071Y-98723895D01*
X73348548Y-98784372D01*
X73409024Y-98905324D01*
X73409024Y-99026276D01*
X73348548Y-99147229D01*
X73288071Y-99207705D01*
X73167119Y-99268181D01*
X72925214Y-99328657D01*
X72622833Y-99328657D01*
X72380929Y-99268181D01*
X72259976Y-99207705D01*
X72199500Y-99147229D01*
X72139024Y-99026276D01*
X72259976Y-98119133D02*
X72199500Y-98058657D01*
X72139024Y-97937705D01*
X72139024Y-97635324D01*
X72199500Y-97514371D01*
X72259976Y-97453895D01*
X72380929Y-97393419D01*
X72501881Y-97393419D01*
X72683310Y-97453895D01*
X73409024Y-98179609D01*
X73409024Y-97393419D01*
X128626809Y-79822524D02*
X128203476Y-79217762D01*
X127901095Y-79822524D02*
X127901095Y-78552524D01*
X128384904Y-78552524D01*
X128505857Y-78613000D01*
X128566333Y-78673476D01*
X128626809Y-78794429D01*
X128626809Y-78975857D01*
X128566333Y-79096810D01*
X128505857Y-79157286D01*
X128384904Y-79217762D01*
X127901095Y-79217762D01*
X129110619Y-78673476D02*
X129171095Y-78613000D01*
X129292047Y-78552524D01*
X129594428Y-78552524D01*
X129715381Y-78613000D01*
X129775857Y-78673476D01*
X129836333Y-78794429D01*
X129836333Y-78915381D01*
X129775857Y-79096810D01*
X129050143Y-79822524D01*
X129836333Y-79822524D01*
X130622524Y-78552524D02*
X130743476Y-78552524D01*
X130864428Y-78613000D01*
X130924905Y-78673476D01*
X130985381Y-78794429D01*
X131045857Y-79036333D01*
X131045857Y-79338714D01*
X130985381Y-79580619D01*
X130924905Y-79701571D01*
X130864428Y-79762048D01*
X130743476Y-79822524D01*
X130622524Y-79822524D01*
X130501571Y-79762048D01*
X130441095Y-79701571D01*
X130380619Y-79580619D01*
X130320143Y-79338714D01*
X130320143Y-79036333D01*
X130380619Y-78794429D01*
X130441095Y-78673476D01*
X130501571Y-78613000D01*
X130622524Y-78552524D01*
X131469191Y-78552524D02*
X132255381Y-78552524D01*
X131832048Y-79036333D01*
X132013476Y-79036333D01*
X132134429Y-79096810D01*
X132194905Y-79157286D01*
X132255381Y-79278238D01*
X132255381Y-79580619D01*
X132194905Y-79701571D01*
X132134429Y-79762048D01*
X132013476Y-79822524D01*
X131650619Y-79822524D01*
X131529667Y-79762048D01*
X131469191Y-79701571D01*
X133452809Y-81600524D02*
X133029476Y-80995762D01*
X132727095Y-81600524D02*
X132727095Y-80330524D01*
X133210904Y-80330524D01*
X133331857Y-80391000D01*
X133392333Y-80451476D01*
X133452809Y-80572429D01*
X133452809Y-80753857D01*
X133392333Y-80874810D01*
X133331857Y-80935286D01*
X133210904Y-80995762D01*
X132727095Y-80995762D01*
X133936619Y-80451476D02*
X133997095Y-80391000D01*
X134118047Y-80330524D01*
X134420428Y-80330524D01*
X134541381Y-80391000D01*
X134601857Y-80451476D01*
X134662333Y-80572429D01*
X134662333Y-80693381D01*
X134601857Y-80874810D01*
X133876143Y-81600524D01*
X134662333Y-81600524D01*
X135448524Y-80330524D02*
X135569476Y-80330524D01*
X135690428Y-80391000D01*
X135750905Y-80451476D01*
X135811381Y-80572429D01*
X135871857Y-80814333D01*
X135871857Y-81116714D01*
X135811381Y-81358619D01*
X135750905Y-81479571D01*
X135690428Y-81540048D01*
X135569476Y-81600524D01*
X135448524Y-81600524D01*
X135327571Y-81540048D01*
X135267095Y-81479571D01*
X135206619Y-81358619D01*
X135146143Y-81116714D01*
X135146143Y-80814333D01*
X135206619Y-80572429D01*
X135267095Y-80451476D01*
X135327571Y-80391000D01*
X135448524Y-80330524D01*
X136960429Y-80753857D02*
X136960429Y-81600524D01*
X136658048Y-80270048D02*
X136355667Y-81177190D01*
X137141857Y-81177190D01*
X97892809Y-82362524D02*
X97469476Y-81757762D01*
X97167095Y-82362524D02*
X97167095Y-81092524D01*
X97650904Y-81092524D01*
X97771857Y-81153000D01*
X97832333Y-81213476D01*
X97892809Y-81334429D01*
X97892809Y-81515857D01*
X97832333Y-81636810D01*
X97771857Y-81697286D01*
X97650904Y-81757762D01*
X97167095Y-81757762D01*
X98376619Y-81213476D02*
X98437095Y-81153000D01*
X98558047Y-81092524D01*
X98860428Y-81092524D01*
X98981381Y-81153000D01*
X99041857Y-81213476D01*
X99102333Y-81334429D01*
X99102333Y-81455381D01*
X99041857Y-81636810D01*
X98316143Y-82362524D01*
X99102333Y-82362524D01*
X99888524Y-81092524D02*
X100009476Y-81092524D01*
X100130428Y-81153000D01*
X100190905Y-81213476D01*
X100251381Y-81334429D01*
X100311857Y-81576333D01*
X100311857Y-81878714D01*
X100251381Y-82120619D01*
X100190905Y-82241571D01*
X100130428Y-82302048D01*
X100009476Y-82362524D01*
X99888524Y-82362524D01*
X99767571Y-82302048D01*
X99707095Y-82241571D01*
X99646619Y-82120619D01*
X99586143Y-81878714D01*
X99586143Y-81576333D01*
X99646619Y-81334429D01*
X99707095Y-81213476D01*
X99767571Y-81153000D01*
X99888524Y-81092524D01*
X101460905Y-81092524D02*
X100856143Y-81092524D01*
X100795667Y-81697286D01*
X100856143Y-81636810D01*
X100977095Y-81576333D01*
X101279476Y-81576333D01*
X101400429Y-81636810D01*
X101460905Y-81697286D01*
X101521381Y-81818238D01*
X101521381Y-82120619D01*
X101460905Y-82241571D01*
X101400429Y-82302048D01*
X101279476Y-82362524D01*
X100977095Y-82362524D01*
X100856143Y-82302048D01*
X100795667Y-82241571D01*
X95860809Y-84648524D02*
X95437476Y-84043762D01*
X95135095Y-84648524D02*
X95135095Y-83378524D01*
X95618904Y-83378524D01*
X95739857Y-83439000D01*
X95800333Y-83499476D01*
X95860809Y-83620429D01*
X95860809Y-83801857D01*
X95800333Y-83922810D01*
X95739857Y-83983286D01*
X95618904Y-84043762D01*
X95135095Y-84043762D01*
X96344619Y-83499476D02*
X96405095Y-83439000D01*
X96526047Y-83378524D01*
X96828428Y-83378524D01*
X96949381Y-83439000D01*
X97009857Y-83499476D01*
X97070333Y-83620429D01*
X97070333Y-83741381D01*
X97009857Y-83922810D01*
X96284143Y-84648524D01*
X97070333Y-84648524D01*
X97856524Y-83378524D02*
X97977476Y-83378524D01*
X98098428Y-83439000D01*
X98158905Y-83499476D01*
X98219381Y-83620429D01*
X98279857Y-83862333D01*
X98279857Y-84164714D01*
X98219381Y-84406619D01*
X98158905Y-84527571D01*
X98098428Y-84588048D01*
X97977476Y-84648524D01*
X97856524Y-84648524D01*
X97735571Y-84588048D01*
X97675095Y-84527571D01*
X97614619Y-84406619D01*
X97554143Y-84164714D01*
X97554143Y-83862333D01*
X97614619Y-83620429D01*
X97675095Y-83499476D01*
X97735571Y-83439000D01*
X97856524Y-83378524D01*
X99368429Y-83378524D02*
X99126524Y-83378524D01*
X99005572Y-83439000D01*
X98945095Y-83499476D01*
X98824143Y-83680905D01*
X98763667Y-83922810D01*
X98763667Y-84406619D01*
X98824143Y-84527571D01*
X98884619Y-84588048D01*
X99005572Y-84648524D01*
X99247476Y-84648524D01*
X99368429Y-84588048D01*
X99428905Y-84527571D01*
X99489381Y-84406619D01*
X99489381Y-84104238D01*
X99428905Y-83983286D01*
X99368429Y-83922810D01*
X99247476Y-83862333D01*
X99005572Y-83862333D01*
X98884619Y-83922810D01*
X98824143Y-83983286D01*
X98763667Y-84104238D01*
X140328809Y-92776524D02*
X139905476Y-92171762D01*
X139603095Y-92776524D02*
X139603095Y-91506524D01*
X140086904Y-91506524D01*
X140207857Y-91567000D01*
X140268333Y-91627476D01*
X140328809Y-91748429D01*
X140328809Y-91929857D01*
X140268333Y-92050810D01*
X140207857Y-92111286D01*
X140086904Y-92171762D01*
X139603095Y-92171762D01*
X140812619Y-91627476D02*
X140873095Y-91567000D01*
X140994047Y-91506524D01*
X141296428Y-91506524D01*
X141417381Y-91567000D01*
X141477857Y-91627476D01*
X141538333Y-91748429D01*
X141538333Y-91869381D01*
X141477857Y-92050810D01*
X140752143Y-92776524D01*
X141538333Y-92776524D01*
X142324524Y-91506524D02*
X142445476Y-91506524D01*
X142566428Y-91567000D01*
X142626905Y-91627476D01*
X142687381Y-91748429D01*
X142747857Y-91990333D01*
X142747857Y-92292714D01*
X142687381Y-92534619D01*
X142626905Y-92655571D01*
X142566428Y-92716048D01*
X142445476Y-92776524D01*
X142324524Y-92776524D01*
X142203571Y-92716048D01*
X142143095Y-92655571D01*
X142082619Y-92534619D01*
X142022143Y-92292714D01*
X142022143Y-91990333D01*
X142082619Y-91748429D01*
X142143095Y-91627476D01*
X142203571Y-91567000D01*
X142324524Y-91506524D01*
X143171191Y-91506524D02*
X144017857Y-91506524D01*
X143473572Y-92776524D01*
X116017524Y-97433191D02*
X115412762Y-97856524D01*
X116017524Y-98158905D02*
X114747524Y-98158905D01*
X114747524Y-97675096D01*
X114808000Y-97554143D01*
X114868476Y-97493667D01*
X114989429Y-97433191D01*
X115170857Y-97433191D01*
X115291810Y-97493667D01*
X115352286Y-97554143D01*
X115412762Y-97675096D01*
X115412762Y-98158905D01*
X114868476Y-96949381D02*
X114808000Y-96888905D01*
X114747524Y-96767953D01*
X114747524Y-96465572D01*
X114808000Y-96344619D01*
X114868476Y-96284143D01*
X114989429Y-96223667D01*
X115110381Y-96223667D01*
X115291810Y-96284143D01*
X116017524Y-97009857D01*
X116017524Y-96223667D01*
X114747524Y-95437476D02*
X114747524Y-95316524D01*
X114808000Y-95195572D01*
X114868476Y-95135095D01*
X114989429Y-95074619D01*
X115231333Y-95014143D01*
X115533714Y-95014143D01*
X115775619Y-95074619D01*
X115896571Y-95135095D01*
X115957048Y-95195572D01*
X116017524Y-95316524D01*
X116017524Y-95437476D01*
X115957048Y-95558429D01*
X115896571Y-95618905D01*
X115775619Y-95679381D01*
X115533714Y-95739857D01*
X115231333Y-95739857D01*
X114989429Y-95679381D01*
X114868476Y-95618905D01*
X114808000Y-95558429D01*
X114747524Y-95437476D01*
X115291810Y-94288428D02*
X115231333Y-94409381D01*
X115170857Y-94469857D01*
X115049905Y-94530333D01*
X114989429Y-94530333D01*
X114868476Y-94469857D01*
X114808000Y-94409381D01*
X114747524Y-94288428D01*
X114747524Y-94046524D01*
X114808000Y-93925571D01*
X114868476Y-93865095D01*
X114989429Y-93804619D01*
X115049905Y-93804619D01*
X115170857Y-93865095D01*
X115231333Y-93925571D01*
X115291810Y-94046524D01*
X115291810Y-94288428D01*
X115352286Y-94409381D01*
X115412762Y-94469857D01*
X115533714Y-94530333D01*
X115775619Y-94530333D01*
X115896571Y-94469857D01*
X115957048Y-94409381D01*
X116017524Y-94288428D01*
X116017524Y-94046524D01*
X115957048Y-93925571D01*
X115896571Y-93865095D01*
X115775619Y-93804619D01*
X115533714Y-93804619D01*
X115412762Y-93865095D01*
X115352286Y-93925571D01*
X115291810Y-94046524D01*
X114112524Y-97451191D02*
X113507762Y-97874524D01*
X114112524Y-98176905D02*
X112842524Y-98176905D01*
X112842524Y-97693096D01*
X112903000Y-97572143D01*
X112963476Y-97511667D01*
X113084429Y-97451191D01*
X113265857Y-97451191D01*
X113386810Y-97511667D01*
X113447286Y-97572143D01*
X113507762Y-97693096D01*
X113507762Y-98176905D01*
X112963476Y-96967381D02*
X112903000Y-96906905D01*
X112842524Y-96785953D01*
X112842524Y-96483572D01*
X112903000Y-96362619D01*
X112963476Y-96302143D01*
X113084429Y-96241667D01*
X113205381Y-96241667D01*
X113386810Y-96302143D01*
X114112524Y-97027857D01*
X114112524Y-96241667D01*
X112842524Y-95455476D02*
X112842524Y-95334524D01*
X112903000Y-95213572D01*
X112963476Y-95153095D01*
X113084429Y-95092619D01*
X113326333Y-95032143D01*
X113628714Y-95032143D01*
X113870619Y-95092619D01*
X113991571Y-95153095D01*
X114052048Y-95213572D01*
X114112524Y-95334524D01*
X114112524Y-95455476D01*
X114052048Y-95576429D01*
X113991571Y-95636905D01*
X113870619Y-95697381D01*
X113628714Y-95757857D01*
X113326333Y-95757857D01*
X113084429Y-95697381D01*
X112963476Y-95636905D01*
X112903000Y-95576429D01*
X112842524Y-95455476D01*
X114112524Y-94427381D02*
X114112524Y-94185476D01*
X114052048Y-94064524D01*
X113991571Y-94004048D01*
X113810143Y-93883095D01*
X113568238Y-93822619D01*
X113084429Y-93822619D01*
X112963476Y-93883095D01*
X112903000Y-93943571D01*
X112842524Y-94064524D01*
X112842524Y-94306428D01*
X112903000Y-94427381D01*
X112963476Y-94487857D01*
X113084429Y-94548333D01*
X113386810Y-94548333D01*
X113507762Y-94487857D01*
X113568238Y-94427381D01*
X113628714Y-94306428D01*
X113628714Y-94064524D01*
X113568238Y-93943571D01*
X113507762Y-93883095D01*
X113386810Y-93822619D01*
X112080524Y-97433191D02*
X111475762Y-97856524D01*
X112080524Y-98158905D02*
X110810524Y-98158905D01*
X110810524Y-97675096D01*
X110871000Y-97554143D01*
X110931476Y-97493667D01*
X111052429Y-97433191D01*
X111233857Y-97433191D01*
X111354810Y-97493667D01*
X111415286Y-97554143D01*
X111475762Y-97675096D01*
X111475762Y-98158905D01*
X110931476Y-96949381D02*
X110871000Y-96888905D01*
X110810524Y-96767953D01*
X110810524Y-96465572D01*
X110871000Y-96344619D01*
X110931476Y-96284143D01*
X111052429Y-96223667D01*
X111173381Y-96223667D01*
X111354810Y-96284143D01*
X112080524Y-97009857D01*
X112080524Y-96223667D01*
X112080524Y-95014143D02*
X112080524Y-95739857D01*
X112080524Y-95377000D02*
X110810524Y-95377000D01*
X110991952Y-95497952D01*
X111112905Y-95618905D01*
X111173381Y-95739857D01*
X110810524Y-94227952D02*
X110810524Y-94107000D01*
X110871000Y-93986048D01*
X110931476Y-93925571D01*
X111052429Y-93865095D01*
X111294333Y-93804619D01*
X111596714Y-93804619D01*
X111838619Y-93865095D01*
X111959571Y-93925571D01*
X112020048Y-93986048D01*
X112080524Y-94107000D01*
X112080524Y-94227952D01*
X112020048Y-94348905D01*
X111959571Y-94409381D01*
X111838619Y-94469857D01*
X111596714Y-94530333D01*
X111294333Y-94530333D01*
X111052429Y-94469857D01*
X110931476Y-94409381D01*
X110871000Y-94348905D01*
X110810524Y-94227952D01*
X140310809Y-90998524D02*
X139887476Y-90393762D01*
X139585095Y-90998524D02*
X139585095Y-89728524D01*
X140068904Y-89728524D01*
X140189857Y-89789000D01*
X140250333Y-89849476D01*
X140310809Y-89970429D01*
X140310809Y-90151857D01*
X140250333Y-90272810D01*
X140189857Y-90333286D01*
X140068904Y-90393762D01*
X139585095Y-90393762D01*
X140794619Y-89849476D02*
X140855095Y-89789000D01*
X140976047Y-89728524D01*
X141278428Y-89728524D01*
X141399381Y-89789000D01*
X141459857Y-89849476D01*
X141520333Y-89970429D01*
X141520333Y-90091381D01*
X141459857Y-90272810D01*
X140734143Y-90998524D01*
X141520333Y-90998524D01*
X142729857Y-90998524D02*
X142004143Y-90998524D01*
X142367000Y-90998524D02*
X142367000Y-89728524D01*
X142246048Y-89909952D01*
X142125095Y-90030905D01*
X142004143Y-90091381D01*
X143939381Y-90998524D02*
X143213667Y-90998524D01*
X143576524Y-90998524D02*
X143576524Y-89728524D01*
X143455572Y-89909952D01*
X143334619Y-90030905D01*
X143213667Y-90091381D01*
X115406109Y-58740524D02*
X114982776Y-58135762D01*
X114680395Y-58740524D02*
X114680395Y-57470524D01*
X115164204Y-57470524D01*
X115285157Y-57531000D01*
X115345633Y-57591476D01*
X115406109Y-57712429D01*
X115406109Y-57893857D01*
X115345633Y-58014810D01*
X115285157Y-58075286D01*
X115164204Y-58135762D01*
X114680395Y-58135762D01*
X115829443Y-57470524D02*
X116615633Y-57470524D01*
X116192300Y-57954333D01*
X116373728Y-57954333D01*
X116494681Y-58014810D01*
X116555157Y-58075286D01*
X116615633Y-58196238D01*
X116615633Y-58498619D01*
X116555157Y-58619571D01*
X116494681Y-58680048D01*
X116373728Y-58740524D01*
X116010871Y-58740524D01*
X115889919Y-58680048D01*
X115829443Y-58619571D01*
X117401824Y-57470524D02*
X117522776Y-57470524D01*
X117643728Y-57531000D01*
X117704205Y-57591476D01*
X117764681Y-57712429D01*
X117825157Y-57954333D01*
X117825157Y-58256714D01*
X117764681Y-58498619D01*
X117704205Y-58619571D01*
X117643728Y-58680048D01*
X117522776Y-58740524D01*
X117401824Y-58740524D01*
X117280871Y-58680048D01*
X117220395Y-58619571D01*
X117159919Y-58498619D01*
X117099443Y-58256714D01*
X117099443Y-57954333D01*
X117159919Y-57712429D01*
X117220395Y-57591476D01*
X117280871Y-57531000D01*
X117401824Y-57470524D01*
X119034681Y-58740524D02*
X118308967Y-58740524D01*
X118671824Y-58740524D02*
X118671824Y-57470524D01*
X118550872Y-57651952D01*
X118429919Y-57772905D01*
X118308967Y-57833381D01*
X102972809Y-56454524D02*
X102549476Y-55849762D01*
X102247095Y-56454524D02*
X102247095Y-55184524D01*
X102730904Y-55184524D01*
X102851857Y-55245000D01*
X102912333Y-55305476D01*
X102972809Y-55426429D01*
X102972809Y-55607857D01*
X102912333Y-55728810D01*
X102851857Y-55789286D01*
X102730904Y-55849762D01*
X102247095Y-55849762D01*
X103396143Y-55184524D02*
X104182333Y-55184524D01*
X103759000Y-55668333D01*
X103940428Y-55668333D01*
X104061381Y-55728810D01*
X104121857Y-55789286D01*
X104182333Y-55910238D01*
X104182333Y-56212619D01*
X104121857Y-56333571D01*
X104061381Y-56394048D01*
X103940428Y-56454524D01*
X103577571Y-56454524D01*
X103456619Y-56394048D01*
X103396143Y-56333571D01*
X104968524Y-55184524D02*
X105089476Y-55184524D01*
X105210428Y-55245000D01*
X105270905Y-55305476D01*
X105331381Y-55426429D01*
X105391857Y-55668333D01*
X105391857Y-55970714D01*
X105331381Y-56212619D01*
X105270905Y-56333571D01*
X105210428Y-56394048D01*
X105089476Y-56454524D01*
X104968524Y-56454524D01*
X104847571Y-56394048D01*
X104787095Y-56333571D01*
X104726619Y-56212619D01*
X104666143Y-55970714D01*
X104666143Y-55668333D01*
X104726619Y-55426429D01*
X104787095Y-55305476D01*
X104847571Y-55245000D01*
X104968524Y-55184524D01*
X105875667Y-55305476D02*
X105936143Y-55245000D01*
X106057095Y-55184524D01*
X106359476Y-55184524D01*
X106480429Y-55245000D01*
X106540905Y-55305476D01*
X106601381Y-55426429D01*
X106601381Y-55547381D01*
X106540905Y-55728810D01*
X105815191Y-56454524D01*
X106601381Y-56454524D01*
X89220524Y-60603191D02*
X88615762Y-61026524D01*
X89220524Y-61328905D02*
X87950524Y-61328905D01*
X87950524Y-60845096D01*
X88011000Y-60724143D01*
X88071476Y-60663667D01*
X88192429Y-60603191D01*
X88373857Y-60603191D01*
X88494810Y-60663667D01*
X88555286Y-60724143D01*
X88615762Y-60845096D01*
X88615762Y-61328905D01*
X87950524Y-60179857D02*
X87950524Y-59393667D01*
X88434333Y-59817000D01*
X88434333Y-59635572D01*
X88494810Y-59514619D01*
X88555286Y-59454143D01*
X88676238Y-59393667D01*
X88978619Y-59393667D01*
X89099571Y-59454143D01*
X89160048Y-59514619D01*
X89220524Y-59635572D01*
X89220524Y-59998429D01*
X89160048Y-60119381D01*
X89099571Y-60179857D01*
X87950524Y-58607476D02*
X87950524Y-58486524D01*
X88011000Y-58365572D01*
X88071476Y-58305095D01*
X88192429Y-58244619D01*
X88434333Y-58184143D01*
X88736714Y-58184143D01*
X88978619Y-58244619D01*
X89099571Y-58305095D01*
X89160048Y-58365572D01*
X89220524Y-58486524D01*
X89220524Y-58607476D01*
X89160048Y-58728429D01*
X89099571Y-58788905D01*
X88978619Y-58849381D01*
X88736714Y-58909857D01*
X88434333Y-58909857D01*
X88192429Y-58849381D01*
X88071476Y-58788905D01*
X88011000Y-58728429D01*
X87950524Y-58607476D01*
X87950524Y-57760809D02*
X87950524Y-56974619D01*
X88434333Y-57397952D01*
X88434333Y-57216524D01*
X88494810Y-57095571D01*
X88555286Y-57035095D01*
X88676238Y-56974619D01*
X88978619Y-56974619D01*
X89099571Y-57035095D01*
X89160048Y-57095571D01*
X89220524Y-57216524D01*
X89220524Y-57579381D01*
X89160048Y-57700333D01*
X89099571Y-57760809D01*
X129896809Y-55184524D02*
X129473476Y-54579762D01*
X129171095Y-55184524D02*
X129171095Y-53914524D01*
X129654904Y-53914524D01*
X129775857Y-53975000D01*
X129836333Y-54035476D01*
X129896809Y-54156429D01*
X129896809Y-54337857D01*
X129836333Y-54458810D01*
X129775857Y-54519286D01*
X129654904Y-54579762D01*
X129171095Y-54579762D01*
X130985381Y-54337857D02*
X130985381Y-55184524D01*
X130683000Y-53854048D02*
X130380619Y-54761190D01*
X131166809Y-54761190D01*
X131892524Y-53914524D02*
X132013476Y-53914524D01*
X132134428Y-53975000D01*
X132194905Y-54035476D01*
X132255381Y-54156429D01*
X132315857Y-54398333D01*
X132315857Y-54700714D01*
X132255381Y-54942619D01*
X132194905Y-55063571D01*
X132134428Y-55124048D01*
X132013476Y-55184524D01*
X131892524Y-55184524D01*
X131771571Y-55124048D01*
X131711095Y-55063571D01*
X131650619Y-54942619D01*
X131590143Y-54700714D01*
X131590143Y-54398333D01*
X131650619Y-54156429D01*
X131711095Y-54035476D01*
X131771571Y-53975000D01*
X131892524Y-53914524D01*
X132799667Y-54035476D02*
X132860143Y-53975000D01*
X132981095Y-53914524D01*
X133283476Y-53914524D01*
X133404429Y-53975000D01*
X133464905Y-54035476D01*
X133525381Y-54156429D01*
X133525381Y-54277381D01*
X133464905Y-54458810D01*
X132739191Y-55184524D01*
X133525381Y-55184524D01*
X80838524Y-73557191D02*
X80233762Y-73980524D01*
X80838524Y-74282905D02*
X79568524Y-74282905D01*
X79568524Y-73799096D01*
X79629000Y-73678143D01*
X79689476Y-73617667D01*
X79810429Y-73557191D01*
X79991857Y-73557191D01*
X80112810Y-73617667D01*
X80173286Y-73678143D01*
X80233762Y-73799096D01*
X80233762Y-74282905D01*
X79991857Y-72468619D02*
X80838524Y-72468619D01*
X79508048Y-72771000D02*
X80415190Y-73073381D01*
X80415190Y-72287191D01*
X79568524Y-71561476D02*
X79568524Y-71440524D01*
X79629000Y-71319572D01*
X79689476Y-71259095D01*
X79810429Y-71198619D01*
X80052333Y-71138143D01*
X80354714Y-71138143D01*
X80596619Y-71198619D01*
X80717571Y-71259095D01*
X80778048Y-71319572D01*
X80838524Y-71440524D01*
X80838524Y-71561476D01*
X80778048Y-71682429D01*
X80717571Y-71742905D01*
X80596619Y-71803381D01*
X80354714Y-71863857D01*
X80052333Y-71863857D01*
X79810429Y-71803381D01*
X79689476Y-71742905D01*
X79629000Y-71682429D01*
X79568524Y-71561476D01*
X79568524Y-70714809D02*
X79568524Y-69928619D01*
X80052333Y-70351952D01*
X80052333Y-70170524D01*
X80112810Y-70049571D01*
X80173286Y-69989095D01*
X80294238Y-69928619D01*
X80596619Y-69928619D01*
X80717571Y-69989095D01*
X80778048Y-70049571D01*
X80838524Y-70170524D01*
X80838524Y-70533381D01*
X80778048Y-70654333D01*
X80717571Y-70714809D01*
X121811143Y-82048048D02*
X121992571Y-82108524D01*
X122294952Y-82108524D01*
X122415905Y-82048048D01*
X122476381Y-81987571D01*
X122536857Y-81866619D01*
X122536857Y-81745667D01*
X122476381Y-81624714D01*
X122415905Y-81564238D01*
X122294952Y-81503762D01*
X122053048Y-81443286D01*
X121932095Y-81382810D01*
X121871619Y-81322333D01*
X121811143Y-81201381D01*
X121811143Y-81080429D01*
X121871619Y-80959476D01*
X121932095Y-80899000D01*
X122053048Y-80838524D01*
X122355428Y-80838524D01*
X122536857Y-80899000D01*
X122960191Y-80838524D02*
X123262572Y-82108524D01*
X123504476Y-81201381D01*
X123746381Y-82108524D01*
X124048762Y-80838524D01*
X124472096Y-80959476D02*
X124532572Y-80899000D01*
X124653524Y-80838524D01*
X124955905Y-80838524D01*
X125076858Y-80899000D01*
X125137334Y-80959476D01*
X125197810Y-81080429D01*
X125197810Y-81201381D01*
X125137334Y-81382810D01*
X124411620Y-82108524D01*
X125197810Y-82108524D01*
X125984001Y-80838524D02*
X126104953Y-80838524D01*
X126225905Y-80899000D01*
X126286382Y-80959476D01*
X126346858Y-81080429D01*
X126407334Y-81322333D01*
X126407334Y-81624714D01*
X126346858Y-81866619D01*
X126286382Y-81987571D01*
X126225905Y-82048048D01*
X126104953Y-82108524D01*
X125984001Y-82108524D01*
X125863048Y-82048048D01*
X125802572Y-81987571D01*
X125742096Y-81866619D01*
X125681620Y-81624714D01*
X125681620Y-81322333D01*
X125742096Y-81080429D01*
X125802572Y-80959476D01*
X125863048Y-80899000D01*
X125984001Y-80838524D01*
X127616858Y-82108524D02*
X126891144Y-82108524D01*
X127254001Y-82108524D02*
X127254001Y-80838524D01*
X127133049Y-81019952D01*
X127012096Y-81140905D01*
X126891144Y-81201381D01*
X106825143Y-82302048D02*
X107006571Y-82362524D01*
X107308952Y-82362524D01*
X107429905Y-82302048D01*
X107490381Y-82241571D01*
X107550857Y-82120619D01*
X107550857Y-81999667D01*
X107490381Y-81878714D01*
X107429905Y-81818238D01*
X107308952Y-81757762D01*
X107067048Y-81697286D01*
X106946095Y-81636810D01*
X106885619Y-81576333D01*
X106825143Y-81455381D01*
X106825143Y-81334429D01*
X106885619Y-81213476D01*
X106946095Y-81153000D01*
X107067048Y-81092524D01*
X107369428Y-81092524D01*
X107550857Y-81153000D01*
X107974191Y-81092524D02*
X108276572Y-82362524D01*
X108518476Y-81455381D01*
X108760381Y-82362524D01*
X109062762Y-81092524D01*
X109486096Y-81213476D02*
X109546572Y-81153000D01*
X109667524Y-81092524D01*
X109969905Y-81092524D01*
X110090858Y-81153000D01*
X110151334Y-81213476D01*
X110211810Y-81334429D01*
X110211810Y-81455381D01*
X110151334Y-81636810D01*
X109425620Y-82362524D01*
X110211810Y-82362524D01*
X110998001Y-81092524D02*
X111118953Y-81092524D01*
X111239905Y-81153000D01*
X111300382Y-81213476D01*
X111360858Y-81334429D01*
X111421334Y-81576333D01*
X111421334Y-81878714D01*
X111360858Y-82120619D01*
X111300382Y-82241571D01*
X111239905Y-82302048D01*
X111118953Y-82362524D01*
X110998001Y-82362524D01*
X110877048Y-82302048D01*
X110816572Y-82241571D01*
X110756096Y-82120619D01*
X110695620Y-81878714D01*
X110695620Y-81576333D01*
X110756096Y-81334429D01*
X110816572Y-81213476D01*
X110877048Y-81153000D01*
X110998001Y-81092524D01*
X111905144Y-81213476D02*
X111965620Y-81153000D01*
X112086572Y-81092524D01*
X112388953Y-81092524D01*
X112509906Y-81153000D01*
X112570382Y-81213476D01*
X112630858Y-81334429D01*
X112630858Y-81455381D01*
X112570382Y-81636810D01*
X111844668Y-82362524D01*
X112630858Y-82362524D01*
X100904524Y-65677143D02*
X101932619Y-65677143D01*
X102053571Y-65616667D01*
X102114048Y-65556191D01*
X102174524Y-65435238D01*
X102174524Y-65193334D01*
X102114048Y-65072381D01*
X102053571Y-65011905D01*
X101932619Y-64951429D01*
X100904524Y-64951429D01*
X100904524Y-64467619D02*
X100904524Y-63681429D01*
X101388333Y-64104762D01*
X101388333Y-63923334D01*
X101448810Y-63802381D01*
X101509286Y-63741905D01*
X101630238Y-63681429D01*
X101932619Y-63681429D01*
X102053571Y-63741905D01*
X102114048Y-63802381D01*
X102174524Y-63923334D01*
X102174524Y-64286191D01*
X102114048Y-64407143D01*
X102053571Y-64467619D01*
X100904524Y-62895238D02*
X100904524Y-62774286D01*
X100965000Y-62653334D01*
X101025476Y-62592857D01*
X101146429Y-62532381D01*
X101388333Y-62471905D01*
X101690714Y-62471905D01*
X101932619Y-62532381D01*
X102053571Y-62592857D01*
X102114048Y-62653334D01*
X102174524Y-62774286D01*
X102174524Y-62895238D01*
X102114048Y-63016191D01*
X102053571Y-63076667D01*
X101932619Y-63137143D01*
X101690714Y-63197619D01*
X101388333Y-63197619D01*
X101146429Y-63137143D01*
X101025476Y-63076667D01*
X100965000Y-63016191D01*
X100904524Y-62895238D01*
X102174524Y-61262381D02*
X102174524Y-61988095D01*
X102174524Y-61625238D02*
X100904524Y-61625238D01*
X101085952Y-61746190D01*
X101206905Y-61867143D01*
X101267381Y-61988095D01*
X90236524Y-66185143D02*
X91264619Y-66185143D01*
X91385571Y-66124667D01*
X91446048Y-66064191D01*
X91506524Y-65943238D01*
X91506524Y-65701334D01*
X91446048Y-65580381D01*
X91385571Y-65519905D01*
X91264619Y-65459429D01*
X90236524Y-65459429D01*
X90236524Y-64975619D02*
X90236524Y-64189429D01*
X90720333Y-64612762D01*
X90720333Y-64431334D01*
X90780810Y-64310381D01*
X90841286Y-64249905D01*
X90962238Y-64189429D01*
X91264619Y-64189429D01*
X91385571Y-64249905D01*
X91446048Y-64310381D01*
X91506524Y-64431334D01*
X91506524Y-64794191D01*
X91446048Y-64915143D01*
X91385571Y-64975619D01*
X90236524Y-63403238D02*
X90236524Y-63282286D01*
X90297000Y-63161334D01*
X90357476Y-63100857D01*
X90478429Y-63040381D01*
X90720333Y-62979905D01*
X91022714Y-62979905D01*
X91264619Y-63040381D01*
X91385571Y-63100857D01*
X91446048Y-63161334D01*
X91506524Y-63282286D01*
X91506524Y-63403238D01*
X91446048Y-63524191D01*
X91385571Y-63584667D01*
X91264619Y-63645143D01*
X91022714Y-63705619D01*
X90720333Y-63705619D01*
X90478429Y-63645143D01*
X90357476Y-63584667D01*
X90297000Y-63524191D01*
X90236524Y-63403238D01*
X90357476Y-62496095D02*
X90297000Y-62435619D01*
X90236524Y-62314667D01*
X90236524Y-62012286D01*
X90297000Y-61891333D01*
X90357476Y-61830857D01*
X90478429Y-61770381D01*
X90599381Y-61770381D01*
X90780810Y-61830857D01*
X91506524Y-62556571D01*
X91506524Y-61770381D01*
X70642239Y-75936324D02*
X71488905Y-77206324D01*
X71488905Y-75936324D02*
X70642239Y-77206324D01*
X71791286Y-75936324D02*
X72517001Y-75936324D01*
X72154144Y-77206324D02*
X72154144Y-75936324D01*
X72879858Y-76843467D02*
X73484620Y-76843467D01*
X72758905Y-77206324D02*
X73182239Y-75936324D01*
X73605572Y-77206324D01*
X74633667Y-77206324D02*
X74028905Y-77206324D01*
X74028905Y-75936324D01*
X74996524Y-76057276D02*
X75057000Y-75996800D01*
X75177952Y-75936324D01*
X75480333Y-75936324D01*
X75601286Y-75996800D01*
X75661762Y-76057276D01*
X75722238Y-76178229D01*
X75722238Y-76299181D01*
X75661762Y-76480610D01*
X74936048Y-77206324D01*
X75722238Y-77206324D01*
X76508429Y-75936324D02*
X76629381Y-75936324D01*
X76750333Y-75996800D01*
X76810810Y-76057276D01*
X76871286Y-76178229D01*
X76931762Y-76420133D01*
X76931762Y-76722514D01*
X76871286Y-76964419D01*
X76810810Y-77085371D01*
X76750333Y-77145848D01*
X76629381Y-77206324D01*
X76508429Y-77206324D01*
X76387476Y-77145848D01*
X76327000Y-77085371D01*
X76266524Y-76964419D01*
X76206048Y-76722514D01*
X76206048Y-76420133D01*
X76266524Y-76178229D01*
X76327000Y-76057276D01*
X76387476Y-75996800D01*
X76508429Y-75936324D01*
X78141286Y-77206324D02*
X77415572Y-77206324D01*
X77778429Y-77206324D02*
X77778429Y-75936324D01*
X77657477Y-76117752D01*
X77536524Y-76238705D01*
X77415572Y-76299181D01*
X61471024Y-98775761D02*
X62741024Y-97929095D01*
X61471024Y-97929095D02*
X62741024Y-98775761D01*
X61471024Y-97626714D02*
X61471024Y-96900999D01*
X62741024Y-97263856D02*
X61471024Y-97263856D01*
X62378167Y-96538142D02*
X62378167Y-95933380D01*
X62741024Y-96659095D02*
X61471024Y-96235761D01*
X62741024Y-95812428D01*
X62741024Y-94784333D02*
X62741024Y-95389095D01*
X61471024Y-95389095D01*
X61591976Y-94421476D02*
X61531500Y-94361000D01*
X61471024Y-94240048D01*
X61471024Y-93937667D01*
X61531500Y-93816714D01*
X61591976Y-93756238D01*
X61712929Y-93695762D01*
X61833881Y-93695762D01*
X62015310Y-93756238D01*
X62741024Y-94481952D01*
X62741024Y-93695762D01*
X61471024Y-92909571D02*
X61471024Y-92788619D01*
X61531500Y-92667667D01*
X61591976Y-92607190D01*
X61712929Y-92546714D01*
X61954833Y-92486238D01*
X62257214Y-92486238D01*
X62499119Y-92546714D01*
X62620071Y-92607190D01*
X62680548Y-92667667D01*
X62741024Y-92788619D01*
X62741024Y-92909571D01*
X62680548Y-93030524D01*
X62620071Y-93091000D01*
X62499119Y-93151476D01*
X62257214Y-93211952D01*
X61954833Y-93211952D01*
X61712929Y-93151476D01*
X61591976Y-93091000D01*
X61531500Y-93030524D01*
X61471024Y-92909571D01*
X61591976Y-92002428D02*
X61531500Y-91941952D01*
X61471024Y-91821000D01*
X61471024Y-91518619D01*
X61531500Y-91397666D01*
X61591976Y-91337190D01*
X61712929Y-91276714D01*
X61833881Y-91276714D01*
X62015310Y-91337190D01*
X62741024Y-92062904D01*
X62741024Y-91276714D01*
X65852524Y-64177191D02*
X65247762Y-64600524D01*
X65852524Y-64902905D02*
X64582524Y-64902905D01*
X64582524Y-64419096D01*
X64643000Y-64298143D01*
X64703476Y-64237667D01*
X64824429Y-64177191D01*
X65005857Y-64177191D01*
X65126810Y-64237667D01*
X65187286Y-64298143D01*
X65247762Y-64419096D01*
X65247762Y-64902905D01*
X65005857Y-63088619D02*
X65852524Y-63088619D01*
X64522048Y-63391000D02*
X65429190Y-63693381D01*
X65429190Y-62907191D01*
X64582524Y-62181476D02*
X64582524Y-62060524D01*
X64643000Y-61939572D01*
X64703476Y-61879095D01*
X64824429Y-61818619D01*
X65066333Y-61758143D01*
X65368714Y-61758143D01*
X65610619Y-61818619D01*
X65731571Y-61879095D01*
X65792048Y-61939572D01*
X65852524Y-62060524D01*
X65852524Y-62181476D01*
X65792048Y-62302429D01*
X65731571Y-62362905D01*
X65610619Y-62423381D01*
X65368714Y-62483857D01*
X65066333Y-62483857D01*
X64824429Y-62423381D01*
X64703476Y-62362905D01*
X64643000Y-62302429D01*
X64582524Y-62181476D01*
X65852524Y-60548619D02*
X65852524Y-61274333D01*
X65852524Y-60911476D02*
X64582524Y-60911476D01*
X64763952Y-61032428D01*
X64884905Y-61153381D01*
X64945381Y-61274333D01*
X77064809Y-62550524D02*
X76641476Y-61945762D01*
X76339095Y-62550524D02*
X76339095Y-61280524D01*
X76822904Y-61280524D01*
X76943857Y-61341000D01*
X77004333Y-61401476D01*
X77064809Y-61522429D01*
X77064809Y-61703857D01*
X77004333Y-61824810D01*
X76943857Y-61885286D01*
X76822904Y-61945762D01*
X76339095Y-61945762D01*
X78153381Y-61703857D02*
X78153381Y-62550524D01*
X77851000Y-61220048D02*
X77548619Y-62127190D01*
X78334809Y-62127190D01*
X79060524Y-61280524D02*
X79181476Y-61280524D01*
X79302428Y-61341000D01*
X79362905Y-61401476D01*
X79423381Y-61522429D01*
X79483857Y-61764333D01*
X79483857Y-62066714D01*
X79423381Y-62308619D01*
X79362905Y-62429571D01*
X79302428Y-62490048D01*
X79181476Y-62550524D01*
X79060524Y-62550524D01*
X78939571Y-62490048D01*
X78879095Y-62429571D01*
X78818619Y-62308619D01*
X78758143Y-62066714D01*
X78758143Y-61764333D01*
X78818619Y-61522429D01*
X78879095Y-61401476D01*
X78939571Y-61341000D01*
X79060524Y-61280524D01*
X80572429Y-61703857D02*
X80572429Y-62550524D01*
X80270048Y-61220048D02*
X79967667Y-62127190D01*
X80753857Y-62127190D01*
X60851143Y-107000524D02*
X60851143Y-107907667D01*
X60790667Y-108089095D01*
X60669715Y-108210048D01*
X60488286Y-108270524D01*
X60367334Y-108270524D01*
X62121143Y-108270524D02*
X61395429Y-108270524D01*
X61758286Y-108270524D02*
X61758286Y-107000524D01*
X61637334Y-107181952D01*
X61516381Y-107302905D01*
X61395429Y-107363381D01*
X62907334Y-107000524D02*
X63028286Y-107000524D01*
X63149238Y-107061000D01*
X63209715Y-107121476D01*
X63270191Y-107242429D01*
X63330667Y-107484333D01*
X63330667Y-107786714D01*
X63270191Y-108028619D01*
X63209715Y-108149571D01*
X63149238Y-108210048D01*
X63028286Y-108270524D01*
X62907334Y-108270524D01*
X62786381Y-108210048D01*
X62725905Y-108149571D01*
X62665429Y-108028619D01*
X62604953Y-107786714D01*
X62604953Y-107484333D01*
X62665429Y-107242429D01*
X62725905Y-107121476D01*
X62786381Y-107061000D01*
X62907334Y-107000524D01*
X63754001Y-107000524D02*
X64600667Y-107000524D01*
X64056382Y-108270524D01*
X66947143Y-107254524D02*
X66947143Y-108161667D01*
X66886667Y-108343095D01*
X66765715Y-108464048D01*
X66584286Y-108524524D01*
X66463334Y-108524524D01*
X68217143Y-108524524D02*
X67491429Y-108524524D01*
X67854286Y-108524524D02*
X67854286Y-107254524D01*
X67733334Y-107435952D01*
X67612381Y-107556905D01*
X67491429Y-107617381D01*
X69003334Y-107254524D02*
X69124286Y-107254524D01*
X69245238Y-107315000D01*
X69305715Y-107375476D01*
X69366191Y-107496429D01*
X69426667Y-107738333D01*
X69426667Y-108040714D01*
X69366191Y-108282619D01*
X69305715Y-108403571D01*
X69245238Y-108464048D01*
X69124286Y-108524524D01*
X69003334Y-108524524D01*
X68882381Y-108464048D01*
X68821905Y-108403571D01*
X68761429Y-108282619D01*
X68700953Y-108040714D01*
X68700953Y-107738333D01*
X68761429Y-107496429D01*
X68821905Y-107375476D01*
X68882381Y-107315000D01*
X69003334Y-107254524D01*
X70152382Y-107798810D02*
X70031429Y-107738333D01*
X69970953Y-107677857D01*
X69910477Y-107556905D01*
X69910477Y-107496429D01*
X69970953Y-107375476D01*
X70031429Y-107315000D01*
X70152382Y-107254524D01*
X70394286Y-107254524D01*
X70515239Y-107315000D01*
X70575715Y-107375476D01*
X70636191Y-107496429D01*
X70636191Y-107556905D01*
X70575715Y-107677857D01*
X70515239Y-107738333D01*
X70394286Y-107798810D01*
X70152382Y-107798810D01*
X70031429Y-107859286D01*
X69970953Y-107919762D01*
X69910477Y-108040714D01*
X69910477Y-108282619D01*
X69970953Y-108403571D01*
X70031429Y-108464048D01*
X70152382Y-108524524D01*
X70394286Y-108524524D01*
X70515239Y-108464048D01*
X70575715Y-108403571D01*
X70636191Y-108282619D01*
X70636191Y-108040714D01*
X70575715Y-107919762D01*
X70515239Y-107859286D01*
X70394286Y-107798810D01*
X133077857Y-90236524D02*
X133803572Y-90236524D01*
X133440715Y-91506524D02*
X133440715Y-90236524D01*
X134226905Y-91506524D02*
X134226905Y-90236524D01*
X134710714Y-90236524D01*
X134831667Y-90297000D01*
X134892143Y-90357476D01*
X134952619Y-90478429D01*
X134952619Y-90659857D01*
X134892143Y-90780810D01*
X134831667Y-90841286D01*
X134710714Y-90901762D01*
X134226905Y-90901762D01*
X135436429Y-90357476D02*
X135496905Y-90297000D01*
X135617857Y-90236524D01*
X135920238Y-90236524D01*
X136041191Y-90297000D01*
X136101667Y-90357476D01*
X136162143Y-90478429D01*
X136162143Y-90599381D01*
X136101667Y-90780810D01*
X135375953Y-91506524D01*
X136162143Y-91506524D01*
X136948334Y-90236524D02*
X137069286Y-90236524D01*
X137190238Y-90297000D01*
X137250715Y-90357476D01*
X137311191Y-90478429D01*
X137371667Y-90720333D01*
X137371667Y-91022714D01*
X137311191Y-91264619D01*
X137250715Y-91385571D01*
X137190238Y-91446048D01*
X137069286Y-91506524D01*
X136948334Y-91506524D01*
X136827381Y-91446048D01*
X136766905Y-91385571D01*
X136706429Y-91264619D01*
X136645953Y-91022714D01*
X136645953Y-90720333D01*
X136706429Y-90478429D01*
X136766905Y-90357476D01*
X136827381Y-90297000D01*
X136948334Y-90236524D01*
X137855477Y-90357476D02*
X137915953Y-90297000D01*
X138036905Y-90236524D01*
X138339286Y-90236524D01*
X138460239Y-90297000D01*
X138520715Y-90357476D01*
X138581191Y-90478429D01*
X138581191Y-90599381D01*
X138520715Y-90780810D01*
X137795001Y-91506524D01*
X138581191Y-91506524D01*
X133077857Y-92522524D02*
X133803572Y-92522524D01*
X133440715Y-93792524D02*
X133440715Y-92522524D01*
X134226905Y-93792524D02*
X134226905Y-92522524D01*
X134710714Y-92522524D01*
X134831667Y-92583000D01*
X134892143Y-92643476D01*
X134952619Y-92764429D01*
X134952619Y-92945857D01*
X134892143Y-93066810D01*
X134831667Y-93127286D01*
X134710714Y-93187762D01*
X134226905Y-93187762D01*
X135436429Y-92643476D02*
X135496905Y-92583000D01*
X135617857Y-92522524D01*
X135920238Y-92522524D01*
X136041191Y-92583000D01*
X136101667Y-92643476D01*
X136162143Y-92764429D01*
X136162143Y-92885381D01*
X136101667Y-93066810D01*
X135375953Y-93792524D01*
X136162143Y-93792524D01*
X136948334Y-92522524D02*
X137069286Y-92522524D01*
X137190238Y-92583000D01*
X137250715Y-92643476D01*
X137311191Y-92764429D01*
X137371667Y-93006333D01*
X137371667Y-93308714D01*
X137311191Y-93550619D01*
X137250715Y-93671571D01*
X137190238Y-93732048D01*
X137069286Y-93792524D01*
X136948334Y-93792524D01*
X136827381Y-93732048D01*
X136766905Y-93671571D01*
X136706429Y-93550619D01*
X136645953Y-93308714D01*
X136645953Y-93006333D01*
X136706429Y-92764429D01*
X136766905Y-92643476D01*
X136827381Y-92583000D01*
X136948334Y-92522524D01*
X138581191Y-93792524D02*
X137855477Y-93792524D01*
X138218334Y-93792524D02*
X138218334Y-92522524D01*
X138097382Y-92703952D01*
X137976429Y-92824905D01*
X137855477Y-92885381D01*
X133649357Y-67510524D02*
X134375072Y-67510524D01*
X134012215Y-68780524D02*
X134012215Y-67510524D01*
X134798405Y-68780524D02*
X134798405Y-67510524D01*
X135282214Y-67510524D01*
X135403167Y-67571000D01*
X135463643Y-67631476D01*
X135524119Y-67752429D01*
X135524119Y-67933857D01*
X135463643Y-68054810D01*
X135403167Y-68115286D01*
X135282214Y-68175762D01*
X134798405Y-68175762D01*
X135947453Y-67510524D02*
X136733643Y-67510524D01*
X136310310Y-67994333D01*
X136491738Y-67994333D01*
X136612691Y-68054810D01*
X136673167Y-68115286D01*
X136733643Y-68236238D01*
X136733643Y-68538619D01*
X136673167Y-68659571D01*
X136612691Y-68720048D01*
X136491738Y-68780524D01*
X136128881Y-68780524D01*
X136007929Y-68720048D01*
X135947453Y-68659571D01*
X137519834Y-67510524D02*
X137640786Y-67510524D01*
X137761738Y-67571000D01*
X137822215Y-67631476D01*
X137882691Y-67752429D01*
X137943167Y-67994333D01*
X137943167Y-68296714D01*
X137882691Y-68538619D01*
X137822215Y-68659571D01*
X137761738Y-68720048D01*
X137640786Y-68780524D01*
X137519834Y-68780524D01*
X137398881Y-68720048D01*
X137338405Y-68659571D01*
X137277929Y-68538619D01*
X137217453Y-68296714D01*
X137217453Y-67994333D01*
X137277929Y-67752429D01*
X137338405Y-67631476D01*
X137398881Y-67571000D01*
X137519834Y-67510524D01*
X138426977Y-67631476D02*
X138487453Y-67571000D01*
X138608405Y-67510524D01*
X138910786Y-67510524D01*
X139031739Y-67571000D01*
X139092215Y-67631476D01*
X139152691Y-67752429D01*
X139152691Y-67873381D01*
X139092215Y-68054810D01*
X138366501Y-68780524D01*
X139152691Y-68780524D01*
X121076357Y-67510524D02*
X121802072Y-67510524D01*
X121439215Y-68780524D02*
X121439215Y-67510524D01*
X122225405Y-68780524D02*
X122225405Y-67510524D01*
X122709214Y-67510524D01*
X122830167Y-67571000D01*
X122890643Y-67631476D01*
X122951119Y-67752429D01*
X122951119Y-67933857D01*
X122890643Y-68054810D01*
X122830167Y-68115286D01*
X122709214Y-68175762D01*
X122225405Y-68175762D01*
X123374453Y-67510524D02*
X124160643Y-67510524D01*
X123737310Y-67994333D01*
X123918738Y-67994333D01*
X124039691Y-68054810D01*
X124100167Y-68115286D01*
X124160643Y-68236238D01*
X124160643Y-68538619D01*
X124100167Y-68659571D01*
X124039691Y-68720048D01*
X123918738Y-68780524D01*
X123555881Y-68780524D01*
X123434929Y-68720048D01*
X123374453Y-68659571D01*
X124946834Y-67510524D02*
X125067786Y-67510524D01*
X125188738Y-67571000D01*
X125249215Y-67631476D01*
X125309691Y-67752429D01*
X125370167Y-67994333D01*
X125370167Y-68296714D01*
X125309691Y-68538619D01*
X125249215Y-68659571D01*
X125188738Y-68720048D01*
X125067786Y-68780524D01*
X124946834Y-68780524D01*
X124825881Y-68720048D01*
X124765405Y-68659571D01*
X124704929Y-68538619D01*
X124644453Y-68296714D01*
X124644453Y-67994333D01*
X124704929Y-67752429D01*
X124765405Y-67631476D01*
X124825881Y-67571000D01*
X124946834Y-67510524D01*
X126579691Y-68780524D02*
X125853977Y-68780524D01*
X126216834Y-68780524D02*
X126216834Y-67510524D01*
X126095882Y-67691952D01*
X125974929Y-67812905D01*
X125853977Y-67873381D01*
X127362857Y-67510524D02*
X128088572Y-67510524D01*
X127725715Y-68780524D02*
X127725715Y-67510524D01*
X128511905Y-68780524D02*
X128511905Y-67510524D01*
X128995714Y-67510524D01*
X129116667Y-67571000D01*
X129177143Y-67631476D01*
X129237619Y-67752429D01*
X129237619Y-67933857D01*
X129177143Y-68054810D01*
X129116667Y-68115286D01*
X128995714Y-68175762D01*
X128511905Y-68175762D01*
X129660953Y-67510524D02*
X130447143Y-67510524D01*
X130023810Y-67994333D01*
X130205238Y-67994333D01*
X130326191Y-68054810D01*
X130386667Y-68115286D01*
X130447143Y-68236238D01*
X130447143Y-68538619D01*
X130386667Y-68659571D01*
X130326191Y-68720048D01*
X130205238Y-68780524D01*
X129842381Y-68780524D01*
X129721429Y-68720048D01*
X129660953Y-68659571D01*
X131233334Y-67510524D02*
X131354286Y-67510524D01*
X131475238Y-67571000D01*
X131535715Y-67631476D01*
X131596191Y-67752429D01*
X131656667Y-67994333D01*
X131656667Y-68296714D01*
X131596191Y-68538619D01*
X131535715Y-68659571D01*
X131475238Y-68720048D01*
X131354286Y-68780524D01*
X131233334Y-68780524D01*
X131112381Y-68720048D01*
X131051905Y-68659571D01*
X130991429Y-68538619D01*
X130930953Y-68296714D01*
X130930953Y-67994333D01*
X130991429Y-67752429D01*
X131051905Y-67631476D01*
X131112381Y-67571000D01*
X131233334Y-67510524D01*
X132080001Y-67510524D02*
X132866191Y-67510524D01*
X132442858Y-67994333D01*
X132624286Y-67994333D01*
X132745239Y-68054810D01*
X132805715Y-68115286D01*
X132866191Y-68236238D01*
X132866191Y-68538619D01*
X132805715Y-68659571D01*
X132745239Y-68720048D01*
X132624286Y-68780524D01*
X132261429Y-68780524D01*
X132140477Y-68720048D01*
X132080001Y-68659571D01*
X81515857Y-61280524D02*
X82241572Y-61280524D01*
X81878715Y-62550524D02*
X81878715Y-61280524D01*
X82664905Y-62550524D02*
X82664905Y-61280524D01*
X83148714Y-61280524D01*
X83269667Y-61341000D01*
X83330143Y-61401476D01*
X83390619Y-61522429D01*
X83390619Y-61703857D01*
X83330143Y-61824810D01*
X83269667Y-61885286D01*
X83148714Y-61945762D01*
X82664905Y-61945762D01*
X84479191Y-61703857D02*
X84479191Y-62550524D01*
X84176810Y-61220048D02*
X83874429Y-62127190D01*
X84660619Y-62127190D01*
X85386334Y-61280524D02*
X85507286Y-61280524D01*
X85628238Y-61341000D01*
X85688715Y-61401476D01*
X85749191Y-61522429D01*
X85809667Y-61764333D01*
X85809667Y-62066714D01*
X85749191Y-62308619D01*
X85688715Y-62429571D01*
X85628238Y-62490048D01*
X85507286Y-62550524D01*
X85386334Y-62550524D01*
X85265381Y-62490048D01*
X85204905Y-62429571D01*
X85144429Y-62308619D01*
X85083953Y-62066714D01*
X85083953Y-61764333D01*
X85144429Y-61522429D01*
X85204905Y-61401476D01*
X85265381Y-61341000D01*
X85386334Y-61280524D01*
X86293477Y-61401476D02*
X86353953Y-61341000D01*
X86474905Y-61280524D01*
X86777286Y-61280524D01*
X86898239Y-61341000D01*
X86958715Y-61401476D01*
X87019191Y-61522429D01*
X87019191Y-61643381D01*
X86958715Y-61824810D01*
X86233001Y-62550524D01*
X87019191Y-62550524D01*
X82870524Y-75710143D02*
X82870524Y-74984428D01*
X84140524Y-75347285D02*
X82870524Y-75347285D01*
X84140524Y-74561095D02*
X82870524Y-74561095D01*
X82870524Y-74077286D01*
X82931000Y-73956333D01*
X82991476Y-73895857D01*
X83112429Y-73835381D01*
X83293857Y-73835381D01*
X83414810Y-73895857D01*
X83475286Y-73956333D01*
X83535762Y-74077286D01*
X83535762Y-74561095D01*
X83293857Y-72746809D02*
X84140524Y-72746809D01*
X82810048Y-73049190D02*
X83717190Y-73351571D01*
X83717190Y-72565381D01*
X82870524Y-71839666D02*
X82870524Y-71718714D01*
X82931000Y-71597762D01*
X82991476Y-71537285D01*
X83112429Y-71476809D01*
X83354333Y-71416333D01*
X83656714Y-71416333D01*
X83898619Y-71476809D01*
X84019571Y-71537285D01*
X84080048Y-71597762D01*
X84140524Y-71718714D01*
X84140524Y-71839666D01*
X84080048Y-71960619D01*
X84019571Y-72021095D01*
X83898619Y-72081571D01*
X83656714Y-72142047D01*
X83354333Y-72142047D01*
X83112429Y-72081571D01*
X82991476Y-72021095D01*
X82931000Y-71960619D01*
X82870524Y-71839666D01*
X84140524Y-70206809D02*
X84140524Y-70932523D01*
X84140524Y-70569666D02*
X82870524Y-70569666D01*
X83051952Y-70690618D01*
X83172905Y-70811571D01*
X83233381Y-70932523D01*
X69831857Y-61280524D02*
X70557572Y-61280524D01*
X70194715Y-62550524D02*
X70194715Y-61280524D01*
X70980905Y-62550524D02*
X70980905Y-61280524D01*
X71464714Y-61280524D01*
X71585667Y-61341000D01*
X71646143Y-61401476D01*
X71706619Y-61522429D01*
X71706619Y-61703857D01*
X71646143Y-61824810D01*
X71585667Y-61885286D01*
X71464714Y-61945762D01*
X70980905Y-61945762D01*
X72795191Y-61703857D02*
X72795191Y-62550524D01*
X72492810Y-61220048D02*
X72190429Y-62127190D01*
X72976619Y-62127190D01*
X73702334Y-61280524D02*
X73823286Y-61280524D01*
X73944238Y-61341000D01*
X74004715Y-61401476D01*
X74065191Y-61522429D01*
X74125667Y-61764333D01*
X74125667Y-62066714D01*
X74065191Y-62308619D01*
X74004715Y-62429571D01*
X73944238Y-62490048D01*
X73823286Y-62550524D01*
X73702334Y-62550524D01*
X73581381Y-62490048D01*
X73520905Y-62429571D01*
X73460429Y-62308619D01*
X73399953Y-62066714D01*
X73399953Y-61764333D01*
X73460429Y-61522429D01*
X73520905Y-61401476D01*
X73581381Y-61341000D01*
X73702334Y-61280524D01*
X74549001Y-61280524D02*
X75335191Y-61280524D01*
X74911858Y-61764333D01*
X75093286Y-61764333D01*
X75214239Y-61824810D01*
X75274715Y-61885286D01*
X75335191Y-62006238D01*
X75335191Y-62308619D01*
X75274715Y-62429571D01*
X75214239Y-62490048D01*
X75093286Y-62550524D01*
X74730429Y-62550524D01*
X74609477Y-62490048D01*
X74549001Y-62429571D01*
X71186524Y-70884143D02*
X71186524Y-70158428D01*
X72456524Y-70521285D02*
X71186524Y-70521285D01*
X72456524Y-69735095D02*
X71186524Y-69735095D01*
X71186524Y-69251286D01*
X71247000Y-69130333D01*
X71307476Y-69069857D01*
X71428429Y-69009381D01*
X71609857Y-69009381D01*
X71730810Y-69069857D01*
X71791286Y-69130333D01*
X71851762Y-69251286D01*
X71851762Y-69735095D01*
X71609857Y-67920809D02*
X72456524Y-67920809D01*
X71126048Y-68223190D02*
X72033190Y-68525571D01*
X72033190Y-67739381D01*
X71186524Y-67013666D02*
X71186524Y-66892714D01*
X71247000Y-66771762D01*
X71307476Y-66711285D01*
X71428429Y-66650809D01*
X71670333Y-66590333D01*
X71972714Y-66590333D01*
X72214619Y-66650809D01*
X72335571Y-66711285D01*
X72396048Y-66771762D01*
X72456524Y-66892714D01*
X72456524Y-67013666D01*
X72396048Y-67134619D01*
X72335571Y-67195095D01*
X72214619Y-67255571D01*
X71972714Y-67316047D01*
X71670333Y-67316047D01*
X71428429Y-67255571D01*
X71307476Y-67195095D01*
X71247000Y-67134619D01*
X71186524Y-67013666D01*
X71609857Y-65501761D02*
X72456524Y-65501761D01*
X71126048Y-65804142D02*
X72033190Y-66106523D01*
X72033190Y-65320333D01*
X133585857Y-103698524D02*
X134311572Y-103698524D01*
X133948715Y-104968524D02*
X133948715Y-103698524D01*
X134734905Y-104968524D02*
X134734905Y-103698524D01*
X135218714Y-103698524D01*
X135339667Y-103759000D01*
X135400143Y-103819476D01*
X135460619Y-103940429D01*
X135460619Y-104121857D01*
X135400143Y-104242810D01*
X135339667Y-104303286D01*
X135218714Y-104363762D01*
X134734905Y-104363762D01*
X135944429Y-103819476D02*
X136004905Y-103759000D01*
X136125857Y-103698524D01*
X136428238Y-103698524D01*
X136549191Y-103759000D01*
X136609667Y-103819476D01*
X136670143Y-103940429D01*
X136670143Y-104061381D01*
X136609667Y-104242810D01*
X135883953Y-104968524D01*
X136670143Y-104968524D01*
X137456334Y-103698524D02*
X137577286Y-103698524D01*
X137698238Y-103759000D01*
X137758715Y-103819476D01*
X137819191Y-103940429D01*
X137879667Y-104182333D01*
X137879667Y-104484714D01*
X137819191Y-104726619D01*
X137758715Y-104847571D01*
X137698238Y-104908048D01*
X137577286Y-104968524D01*
X137456334Y-104968524D01*
X137335381Y-104908048D01*
X137274905Y-104847571D01*
X137214429Y-104726619D01*
X137153953Y-104484714D01*
X137153953Y-104182333D01*
X137214429Y-103940429D01*
X137274905Y-103819476D01*
X137335381Y-103759000D01*
X137456334Y-103698524D01*
X138303001Y-103698524D02*
X139089191Y-103698524D01*
X138665858Y-104182333D01*
X138847286Y-104182333D01*
X138968239Y-104242810D01*
X139028715Y-104303286D01*
X139089191Y-104424238D01*
X139089191Y-104726619D01*
X139028715Y-104847571D01*
X138968239Y-104908048D01*
X138847286Y-104968524D01*
X138484429Y-104968524D01*
X138363477Y-104908048D01*
X138303001Y-104847571D01*
X114789857Y-67510524D02*
X115515572Y-67510524D01*
X115152715Y-68780524D02*
X115152715Y-67510524D01*
X115938905Y-68780524D02*
X115938905Y-67510524D01*
X116422714Y-67510524D01*
X116543667Y-67571000D01*
X116604143Y-67631476D01*
X116664619Y-67752429D01*
X116664619Y-67933857D01*
X116604143Y-68054810D01*
X116543667Y-68115286D01*
X116422714Y-68175762D01*
X115938905Y-68175762D01*
X117087953Y-67510524D02*
X117874143Y-67510524D01*
X117450810Y-67994333D01*
X117632238Y-67994333D01*
X117753191Y-68054810D01*
X117813667Y-68115286D01*
X117874143Y-68236238D01*
X117874143Y-68538619D01*
X117813667Y-68659571D01*
X117753191Y-68720048D01*
X117632238Y-68780524D01*
X117269381Y-68780524D01*
X117148429Y-68720048D01*
X117087953Y-68659571D01*
X118660334Y-67510524D02*
X118781286Y-67510524D01*
X118902238Y-67571000D01*
X118962715Y-67631476D01*
X119023191Y-67752429D01*
X119083667Y-67994333D01*
X119083667Y-68296714D01*
X119023191Y-68538619D01*
X118962715Y-68659571D01*
X118902238Y-68720048D01*
X118781286Y-68780524D01*
X118660334Y-68780524D01*
X118539381Y-68720048D01*
X118478905Y-68659571D01*
X118418429Y-68538619D01*
X118357953Y-68296714D01*
X118357953Y-67994333D01*
X118418429Y-67752429D01*
X118478905Y-67631476D01*
X118539381Y-67571000D01*
X118660334Y-67510524D01*
X120232715Y-67510524D02*
X119627953Y-67510524D01*
X119567477Y-68115286D01*
X119627953Y-68054810D01*
X119748905Y-67994333D01*
X120051286Y-67994333D01*
X120172239Y-68054810D01*
X120232715Y-68115286D01*
X120293191Y-68236238D01*
X120293191Y-68538619D01*
X120232715Y-68659571D01*
X120172239Y-68720048D01*
X120051286Y-68780524D01*
X119748905Y-68780524D01*
X119627953Y-68720048D01*
X119567477Y-68659571D01*
X139935857Y-67510524D02*
X140661572Y-67510524D01*
X140298715Y-68780524D02*
X140298715Y-67510524D01*
X141084905Y-68780524D02*
X141084905Y-67510524D01*
X141568714Y-67510524D01*
X141689667Y-67571000D01*
X141750143Y-67631476D01*
X141810619Y-67752429D01*
X141810619Y-67933857D01*
X141750143Y-68054810D01*
X141689667Y-68115286D01*
X141568714Y-68175762D01*
X141084905Y-68175762D01*
X142233953Y-67510524D02*
X143020143Y-67510524D01*
X142596810Y-67994333D01*
X142778238Y-67994333D01*
X142899191Y-68054810D01*
X142959667Y-68115286D01*
X143020143Y-68236238D01*
X143020143Y-68538619D01*
X142959667Y-68659571D01*
X142899191Y-68720048D01*
X142778238Y-68780524D01*
X142415381Y-68780524D01*
X142294429Y-68720048D01*
X142233953Y-68659571D01*
X143806334Y-67510524D02*
X143927286Y-67510524D01*
X144048238Y-67571000D01*
X144108715Y-67631476D01*
X144169191Y-67752429D01*
X144229667Y-67994333D01*
X144229667Y-68296714D01*
X144169191Y-68538619D01*
X144108715Y-68659571D01*
X144048238Y-68720048D01*
X143927286Y-68780524D01*
X143806334Y-68780524D01*
X143685381Y-68720048D01*
X143624905Y-68659571D01*
X143564429Y-68538619D01*
X143503953Y-68296714D01*
X143503953Y-67994333D01*
X143564429Y-67752429D01*
X143624905Y-67631476D01*
X143685381Y-67571000D01*
X143806334Y-67510524D01*
X145318239Y-67933857D02*
X145318239Y-68780524D01*
X145015858Y-67450048D02*
X144713477Y-68357190D01*
X145499667Y-68357190D01*
X69644381Y-47310524D02*
X69644381Y-46040524D01*
X69644381Y-46645286D02*
X70370095Y-46645286D01*
X70370095Y-47310524D02*
X70370095Y-46040524D01*
X71640095Y-47310524D02*
X70914381Y-47310524D01*
X71277238Y-47310524D02*
X71277238Y-46040524D01*
X71156286Y-46221952D01*
X71035333Y-46342905D01*
X70914381Y-46403381D01*
X144417143Y-73726524D02*
X144417143Y-74633667D01*
X144356667Y-74815095D01*
X144235715Y-74936048D01*
X144054286Y-74996524D01*
X143933334Y-74996524D01*
X144961429Y-73847476D02*
X145021905Y-73787000D01*
X145142857Y-73726524D01*
X145445238Y-73726524D01*
X145566191Y-73787000D01*
X145626667Y-73847476D01*
X145687143Y-73968429D01*
X145687143Y-74089381D01*
X145626667Y-74270810D01*
X144900953Y-74996524D01*
X145687143Y-74996524D01*
X146473334Y-73726524D02*
X146594286Y-73726524D01*
X146715238Y-73787000D01*
X146775715Y-73847476D01*
X146836191Y-73968429D01*
X146896667Y-74210333D01*
X146896667Y-74512714D01*
X146836191Y-74754619D01*
X146775715Y-74875571D01*
X146715238Y-74936048D01*
X146594286Y-74996524D01*
X146473334Y-74996524D01*
X146352381Y-74936048D01*
X146291905Y-74875571D01*
X146231429Y-74754619D01*
X146170953Y-74512714D01*
X146170953Y-74210333D01*
X146231429Y-73968429D01*
X146291905Y-73847476D01*
X146352381Y-73787000D01*
X146473334Y-73726524D01*
X148106191Y-74996524D02*
X147380477Y-74996524D01*
X147743334Y-74996524D02*
X147743334Y-73726524D01*
X147622382Y-73907952D01*
X147501429Y-74028905D01*
X147380477Y-74089381D01*
X143909143Y-104206524D02*
X143909143Y-105113667D01*
X143848667Y-105295095D01*
X143727715Y-105416048D01*
X143546286Y-105476524D01*
X143425334Y-105476524D01*
X144453429Y-104327476D02*
X144513905Y-104267000D01*
X144634857Y-104206524D01*
X144937238Y-104206524D01*
X145058191Y-104267000D01*
X145118667Y-104327476D01*
X145179143Y-104448429D01*
X145179143Y-104569381D01*
X145118667Y-104750810D01*
X144392953Y-105476524D01*
X145179143Y-105476524D01*
X145965334Y-104206524D02*
X146086286Y-104206524D01*
X146207238Y-104267000D01*
X146267715Y-104327476D01*
X146328191Y-104448429D01*
X146388667Y-104690333D01*
X146388667Y-104992714D01*
X146328191Y-105234619D01*
X146267715Y-105355571D01*
X146207238Y-105416048D01*
X146086286Y-105476524D01*
X145965334Y-105476524D01*
X145844381Y-105416048D01*
X145783905Y-105355571D01*
X145723429Y-105234619D01*
X145662953Y-104992714D01*
X145662953Y-104690333D01*
X145723429Y-104448429D01*
X145783905Y-104327476D01*
X145844381Y-104267000D01*
X145965334Y-104206524D01*
X146872477Y-104327476D02*
X146932953Y-104267000D01*
X147053905Y-104206524D01*
X147356286Y-104206524D01*
X147477239Y-104267000D01*
X147537715Y-104327476D01*
X147598191Y-104448429D01*
X147598191Y-104569381D01*
X147537715Y-104750810D01*
X146812001Y-105476524D01*
X147598191Y-105476524D01*
X97935143Y-69916524D02*
X97935143Y-70823667D01*
X97874667Y-71005095D01*
X97753715Y-71126048D01*
X97572286Y-71186524D01*
X97451334Y-71186524D01*
X98418953Y-69916524D02*
X99205143Y-69916524D01*
X98781810Y-70400333D01*
X98963238Y-70400333D01*
X99084191Y-70460810D01*
X99144667Y-70521286D01*
X99205143Y-70642238D01*
X99205143Y-70944619D01*
X99144667Y-71065571D01*
X99084191Y-71126048D01*
X98963238Y-71186524D01*
X98600381Y-71186524D01*
X98479429Y-71126048D01*
X98418953Y-71065571D01*
X99991334Y-69916524D02*
X100112286Y-69916524D01*
X100233238Y-69977000D01*
X100293715Y-70037476D01*
X100354191Y-70158429D01*
X100414667Y-70400333D01*
X100414667Y-70702714D01*
X100354191Y-70944619D01*
X100293715Y-71065571D01*
X100233238Y-71126048D01*
X100112286Y-71186524D01*
X99991334Y-71186524D01*
X99870381Y-71126048D01*
X99809905Y-71065571D01*
X99749429Y-70944619D01*
X99688953Y-70702714D01*
X99688953Y-70400333D01*
X99749429Y-70158429D01*
X99809905Y-70037476D01*
X99870381Y-69977000D01*
X99991334Y-69916524D01*
X101624191Y-71186524D02*
X100898477Y-71186524D01*
X101261334Y-71186524D02*
X101261334Y-69916524D01*
X101140382Y-70097952D01*
X101019429Y-70218905D01*
X100898477Y-70279381D01*
X132654524Y-63608857D02*
X133561667Y-63608857D01*
X133743095Y-63669333D01*
X133864048Y-63790285D01*
X133924524Y-63971714D01*
X133924524Y-64092666D01*
X133077857Y-62459809D02*
X133924524Y-62459809D01*
X132594048Y-62762190D02*
X133501190Y-63064571D01*
X133501190Y-62278381D01*
X132654524Y-61552666D02*
X132654524Y-61431714D01*
X132715000Y-61310762D01*
X132775476Y-61250285D01*
X132896429Y-61189809D01*
X133138333Y-61129333D01*
X133440714Y-61129333D01*
X133682619Y-61189809D01*
X133803571Y-61250285D01*
X133864048Y-61310762D01*
X133924524Y-61431714D01*
X133924524Y-61552666D01*
X133864048Y-61673619D01*
X133803571Y-61734095D01*
X133682619Y-61794571D01*
X133440714Y-61855047D01*
X133138333Y-61855047D01*
X132896429Y-61794571D01*
X132775476Y-61734095D01*
X132715000Y-61673619D01*
X132654524Y-61552666D01*
X132775476Y-60645523D02*
X132715000Y-60585047D01*
X132654524Y-60464095D01*
X132654524Y-60161714D01*
X132715000Y-60040761D01*
X132775476Y-59980285D01*
X132896429Y-59919809D01*
X133017381Y-59919809D01*
X133198810Y-59980285D01*
X133924524Y-60705999D01*
X133924524Y-59919809D01*
X64074524Y-53194857D02*
X64981667Y-53194857D01*
X65163095Y-53255333D01*
X65284048Y-53376285D01*
X65344524Y-53557714D01*
X65344524Y-53678666D01*
X64497857Y-52045809D02*
X65344524Y-52045809D01*
X64014048Y-52348190D02*
X64921190Y-52650571D01*
X64921190Y-51864381D01*
X64074524Y-51138666D02*
X64074524Y-51017714D01*
X64135000Y-50896762D01*
X64195476Y-50836285D01*
X64316429Y-50775809D01*
X64558333Y-50715333D01*
X64860714Y-50715333D01*
X65102619Y-50775809D01*
X65223571Y-50836285D01*
X65284048Y-50896762D01*
X65344524Y-51017714D01*
X65344524Y-51138666D01*
X65284048Y-51259619D01*
X65223571Y-51320095D01*
X65102619Y-51380571D01*
X64860714Y-51441047D01*
X64558333Y-51441047D01*
X64316429Y-51380571D01*
X64195476Y-51320095D01*
X64135000Y-51259619D01*
X64074524Y-51138666D01*
X65344524Y-49505809D02*
X65344524Y-50231523D01*
X65344524Y-49868666D02*
X64074524Y-49868666D01*
X64255952Y-49989618D01*
X64376905Y-50110571D01*
X64437381Y-50231523D01*
M02*
