G04 #@! TF.FileFunction,Copper,L2,Bot,Signal*
%FSLAX46Y46*%
G04 Gerber Fmt 4.6, Leading zero omitted, Abs format (unit mm)*
G04 Created by KiCad (PCBNEW 4.0.5+dfsg1-4) date Sun May  7 16:42:39 2017*
%MOMM*%
%LPD*%
G01*
G04 APERTURE LIST*
%ADD10C,0.100000*%
%ADD11C,3.900000*%
%ADD12R,1.500000X1.400000*%
%ADD13R,1.400000X1.500000*%
%ADD14R,1.400000X1.000000*%
%ADD15C,2.500000*%
%ADD16R,2.000000X2.000000*%
%ADD17C,2.000000*%
%ADD18R,0.750000X2.000000*%
%ADD19R,4.000000X2.000000*%
%ADD20R,2.000000X4.000000*%
%ADD21C,3.000000*%
%ADD22C,3.700000*%
%ADD23C,1.000000*%
%ADD24C,0.800000*%
%ADD25C,1.500000*%
%ADD26C,0.346000*%
%ADD27C,0.254000*%
%ADD28C,0.508000*%
%ADD29C,1.000000*%
G04 APERTURE END LIST*
D10*
D11*
X130048000Y-46736000D03*
D12*
X84092000Y-89154000D03*
X84092000Y-91204000D03*
X89446100Y-91256900D03*
X89446100Y-93306900D03*
D13*
X83076000Y-93726000D03*
X81026000Y-93726000D03*
X83076000Y-96266000D03*
X81026000Y-96266000D03*
X90594400Y-98780600D03*
X88544400Y-98780600D03*
X90716100Y-101003100D03*
X92766100Y-101003100D03*
X83076000Y-98894900D03*
X81026000Y-98894900D03*
X53594000Y-52324000D03*
X55644000Y-52324000D03*
X53594000Y-59436000D03*
X55644000Y-59436000D03*
X79756000Y-69088000D03*
X77706000Y-69088000D03*
X79756000Y-71628000D03*
X77706000Y-71628000D03*
X146558000Y-60452000D03*
X144508000Y-60452000D03*
X146558000Y-53086000D03*
X144508000Y-53086000D03*
D14*
X53510000Y-55880000D03*
X55710000Y-56830000D03*
X55710000Y-54930000D03*
X146896000Y-56642000D03*
X144696000Y-55692000D03*
X144696000Y-57592000D03*
D15*
X122161300Y-64516000D03*
X117081300Y-64516000D03*
D16*
X110998000Y-64008000D03*
D17*
X108458000Y-64008000D03*
X105918000Y-64008000D03*
D18*
X76835000Y-61308000D03*
X78105000Y-61308000D03*
X79375000Y-61308000D03*
X80645000Y-61308000D03*
X76835000Y-66708000D03*
X78105000Y-66708000D03*
X79375000Y-66708000D03*
X80645000Y-66708000D03*
D13*
X82042000Y-89154000D03*
X79992000Y-89154000D03*
D16*
X52578000Y-87630000D03*
D17*
X52578000Y-85090000D03*
D16*
X52578000Y-94742000D03*
D17*
X52578000Y-92202000D03*
D16*
X52578000Y-101854000D03*
D17*
X52578000Y-99314000D03*
D16*
X52578000Y-80518000D03*
D17*
X52578000Y-77978000D03*
D16*
X52578000Y-73406000D03*
D17*
X52578000Y-70866000D03*
D16*
X52578000Y-108966000D03*
D17*
X52578000Y-106426000D03*
D16*
X53086000Y-115062000D03*
D17*
X55626000Y-115062000D03*
X58166000Y-115062000D03*
X60706000Y-115062000D03*
X63246000Y-115062000D03*
X65786000Y-115062000D03*
X68326000Y-115062000D03*
X70866000Y-115062000D03*
X73406000Y-115062000D03*
X78486000Y-115062000D03*
X75946000Y-115062000D03*
X81026000Y-115062000D03*
X83566000Y-115062000D03*
X86106000Y-115062000D03*
X88646000Y-115062000D03*
X91186000Y-115062000D03*
X93726000Y-115062000D03*
X96266000Y-115062000D03*
X98806000Y-115062000D03*
X101346000Y-115062000D03*
X103886000Y-115062000D03*
X106426000Y-115062000D03*
X108966000Y-115062000D03*
X111506000Y-115062000D03*
X114046000Y-115062000D03*
X116586000Y-115062000D03*
X119126000Y-115062000D03*
X121666000Y-115062000D03*
X124206000Y-115062000D03*
X126746000Y-115062000D03*
X129286000Y-115062000D03*
X131826000Y-115062000D03*
X134366000Y-115062000D03*
X136906000Y-115062000D03*
X139446000Y-115062000D03*
X141986000Y-115062000D03*
X144526000Y-115062000D03*
X147066000Y-115062000D03*
D16*
X72644000Y-108712000D03*
D17*
X75184000Y-108712000D03*
X77724000Y-108712000D03*
D19*
X136336000Y-96520000D03*
X136336000Y-99314000D03*
X135320000Y-71000000D03*
X124144000Y-71000000D03*
X129732000Y-71000000D03*
X84012000Y-59436000D03*
D20*
X83566000Y-67502000D03*
D19*
X73468000Y-59436000D03*
D20*
X74422000Y-68010000D03*
D19*
X136336000Y-102108000D03*
X118556000Y-71000000D03*
X140908000Y-71000000D03*
D11*
X66548000Y-46736000D03*
D16*
X146050000Y-77216000D03*
D17*
X146050000Y-79756000D03*
X146050000Y-82296000D03*
X146050000Y-84836000D03*
X146050000Y-87376000D03*
X146050000Y-89916000D03*
D16*
X146050000Y-101854000D03*
D17*
X146050000Y-99314000D03*
X146050000Y-96774000D03*
D16*
X92964000Y-70358000D03*
D17*
X95504000Y-70358000D03*
X136144000Y-56634000D03*
X138684000Y-58404000D03*
X138684000Y-54864000D03*
X141224000Y-58404000D03*
X141224000Y-54864000D03*
D21*
X139954000Y-64134000D03*
X139954000Y-49134000D03*
D22*
X143954000Y-64134000D03*
X143954000Y-49134000D03*
D17*
X61722000Y-54864000D03*
X61722000Y-58420000D03*
X58166000Y-58420000D03*
X58166000Y-54864000D03*
X59944000Y-56642000D03*
D21*
X59944000Y-49142000D03*
X59944000Y-64142000D03*
D22*
X55944000Y-49142000D03*
X55944000Y-64142000D03*
D23*
X136398000Y-50038000D03*
X133858000Y-50038000D03*
X131318000Y-50038000D03*
X128778000Y-50038000D03*
X128778000Y-56896000D03*
X58166000Y-60706000D03*
X65278000Y-50038000D03*
X67818000Y-50038000D03*
X70358000Y-50038000D03*
X72898000Y-50038000D03*
X75438000Y-50038000D03*
X77978000Y-50038000D03*
X80518000Y-50038000D03*
X83058000Y-50038000D03*
X85598000Y-50038000D03*
X88138000Y-50038000D03*
X90678000Y-50038000D03*
X93218000Y-50038000D03*
X95758000Y-50038000D03*
X98298000Y-50038000D03*
X100838000Y-50038000D03*
X103378000Y-50038000D03*
X105918000Y-50038000D03*
X108458000Y-50038000D03*
X110998000Y-50038000D03*
X113538000Y-50038000D03*
X116078000Y-50038000D03*
X118618000Y-50038000D03*
X121158000Y-50038000D03*
X123698000Y-50038000D03*
X126238000Y-50038000D03*
X51816000Y-54102000D03*
X79248000Y-64592200D03*
X71120000Y-91947992D03*
X71628000Y-95250036D03*
X86614000Y-91440000D03*
D24*
X55372000Y-97790000D03*
X57404000Y-94488000D03*
X117602000Y-86360000D03*
X84582000Y-95250000D03*
X88980500Y-103297500D03*
D23*
X89408000Y-94742000D03*
X65278000Y-60706000D03*
X85598000Y-64770000D03*
X90678000Y-67818000D03*
X96774000Y-60452000D03*
X100330000Y-68580000D03*
X107696000Y-69342000D03*
X112014000Y-58166000D03*
X125730000Y-60706000D03*
X131064000Y-86614000D03*
D24*
X81026000Y-100584000D03*
X84328000Y-97536000D03*
D23*
X74168000Y-90932000D03*
X78234700Y-90678000D03*
X98806000Y-97028000D03*
D24*
X87122000Y-98806000D03*
X100838000Y-90170000D03*
X100584006Y-92202000D03*
X77724000Y-104902002D03*
X108204000Y-106680000D03*
D25*
X89662000Y-59944000D03*
X71120000Y-70866000D03*
X68834000Y-69088000D03*
D23*
X134112000Y-54864000D03*
X140716000Y-103886000D03*
D24*
X78985663Y-104893663D03*
X107188000Y-105664000D03*
X148336000Y-83058000D03*
X75446340Y-97544334D03*
D23*
X84582000Y-99060000D03*
D25*
X73152000Y-71628000D03*
D24*
X82804000Y-91186000D03*
D25*
X90170000Y-73984790D03*
X85598000Y-72200200D03*
D24*
X122936000Y-80772000D03*
X128270000Y-85344000D03*
X141478000Y-77216000D03*
X93725998Y-91440000D03*
X89916000Y-102616000D03*
X117856000Y-75946000D03*
X84065670Y-104385670D03*
X104142149Y-102867851D03*
X82549990Y-104648000D03*
X105410014Y-103632000D03*
X80772000Y-105156000D03*
X106426000Y-104648000D03*
X97489641Y-94438067D03*
X97536000Y-89408000D03*
X96274337Y-88383663D03*
X96012000Y-94234000D03*
X132587992Y-100584000D03*
X83820000Y-83312000D03*
X82042000Y-87630000D03*
X79830500Y-87809500D03*
X81788000Y-103124000D03*
X75946000Y-110998000D03*
X109982000Y-106934000D03*
X94234000Y-87630000D03*
X93226009Y-86875737D03*
X111252000Y-106680000D03*
X92504481Y-86178722D03*
X111506000Y-105156000D03*
X112522000Y-103886000D03*
X91694000Y-85344000D03*
X113538000Y-102870000D03*
X90678000Y-84582000D03*
X93726000Y-83312000D03*
X114554000Y-101600000D03*
X116078000Y-100584000D03*
X94996000Y-82296000D03*
X93980000Y-81534000D03*
X118110000Y-100330000D03*
X94996000Y-80772000D03*
X121412000Y-100330000D03*
X123698000Y-100584000D03*
X93980000Y-80010000D03*
X126746000Y-101092000D03*
X92964000Y-79521000D03*
X128524000Y-101346000D03*
X92202000Y-78740000D03*
D25*
X88392006Y-72390000D03*
D26*
X129277999Y-57395999D02*
X128778000Y-56896000D01*
X130293999Y-57395999D02*
X129277999Y-57395999D01*
X138676000Y-60960000D02*
X133858000Y-60960000D01*
X141224000Y-58412000D02*
X138676000Y-60960000D01*
X133858000Y-60960000D02*
X130293999Y-57395999D01*
X130302000Y-58928000D02*
X130302000Y-57404000D01*
X130302000Y-57404000D02*
X130293999Y-57395999D01*
D27*
X59165999Y-60435999D02*
X58895998Y-60706000D01*
X58895998Y-60706000D02*
X58166000Y-60706000D01*
X58166000Y-58420000D02*
X59165999Y-59419999D01*
X59165999Y-59419999D02*
X59165999Y-60435999D01*
X53594000Y-52324000D02*
X52324000Y-52324000D01*
X52324000Y-52324000D02*
X51816000Y-52832000D01*
X51816000Y-52832000D02*
X51816000Y-54102000D01*
D28*
X79070200Y-64770000D02*
X79248000Y-64592200D01*
X75438000Y-64770000D02*
X79070200Y-64770000D01*
X78540894Y-64592200D02*
X79248000Y-64592200D01*
X69164200Y-64592200D02*
X78540894Y-64592200D01*
X65278000Y-60706000D02*
X69164200Y-64592200D01*
X85598000Y-64770000D02*
X75438000Y-64770000D01*
D29*
X72127999Y-94750003D02*
X72127999Y-94750037D01*
X72127999Y-94750037D02*
X71628000Y-95250036D01*
X78234700Y-90678000D02*
X76200002Y-90678000D01*
X72136002Y-94742000D02*
X72127999Y-94750003D01*
X76200000Y-94742000D02*
X72136002Y-94742000D01*
X86614000Y-89916000D02*
X86614000Y-91440000D01*
X86614000Y-91440000D02*
X86614000Y-93726000D01*
D27*
X81026000Y-98894900D02*
X81026000Y-100584000D01*
D29*
X112014000Y-58166000D02*
X112513999Y-57666001D01*
X112513999Y-57666001D02*
X122690001Y-57666001D01*
X122690001Y-57666001D02*
X125230001Y-60206001D01*
X125230001Y-60206001D02*
X125730000Y-60706000D01*
X52578000Y-106426000D02*
X55372000Y-106426000D01*
X55372000Y-106426000D02*
X56134000Y-107188000D01*
X56134000Y-107188000D02*
X70104000Y-107188000D01*
X76708000Y-100584000D02*
X81026000Y-100584000D01*
X70104000Y-107188000D02*
X76708000Y-100584000D01*
X55372000Y-97790000D02*
X55372000Y-105918000D01*
X55372000Y-105918000D02*
X54864000Y-106426000D01*
X54864000Y-106426000D02*
X52578000Y-106426000D01*
X57404000Y-85344000D02*
X57404000Y-94488000D01*
X65278000Y-77470000D02*
X57404000Y-85344000D01*
X65278000Y-60706000D02*
X65278000Y-77470000D01*
X137414000Y-82296000D02*
X137414000Y-75946000D01*
X137414000Y-75946000D02*
X140208000Y-73152000D01*
X140208000Y-73152000D02*
X140208000Y-71000000D01*
X146558000Y-60452000D02*
X146558000Y-66802000D01*
X146558000Y-66802000D02*
X145288000Y-68072000D01*
X145288000Y-68072000D02*
X141224000Y-68072000D01*
X141224000Y-68072000D02*
X140208000Y-69088000D01*
X140208000Y-69088000D02*
X140208000Y-71000000D01*
X137414000Y-82296000D02*
X146050000Y-82296000D01*
X135382000Y-82296000D02*
X137414000Y-82296000D01*
X117602000Y-86360000D02*
X117856000Y-86614000D01*
X117856000Y-86614000D02*
X130356894Y-86614000D01*
X130356894Y-86614000D02*
X131064000Y-86614000D01*
X83076000Y-93726000D02*
X86614000Y-93726000D01*
X86614000Y-93726000D02*
X89027000Y-93726000D01*
X85852000Y-89154000D02*
X86614000Y-89916000D01*
X84092000Y-89154000D02*
X85852000Y-89154000D01*
D27*
X84582000Y-95250000D02*
X83058000Y-95250000D01*
X83058000Y-95250000D02*
X83058000Y-95232000D01*
X83058000Y-95232000D02*
X83076000Y-95250000D01*
D29*
X83076000Y-93726000D02*
X83076000Y-95250000D01*
X83076000Y-95250000D02*
X83076000Y-96266000D01*
D27*
X88980500Y-103297500D02*
X89380499Y-103697499D01*
X92136501Y-103697499D02*
X92766100Y-103067900D01*
X89380499Y-103697499D02*
X92136501Y-103697499D01*
X92766100Y-103067900D02*
X92766100Y-101003100D01*
X89408000Y-94742000D02*
X89408000Y-93345000D01*
X89408000Y-93345000D02*
X89446100Y-93306900D01*
D29*
X92766100Y-101003100D02*
X94830900Y-101003100D01*
X94830900Y-101003100D02*
X98806000Y-97028000D01*
X81679262Y-90678000D02*
X82042000Y-90315262D01*
X82042000Y-90315262D02*
X82042000Y-89154000D01*
X78234700Y-90678000D02*
X81679262Y-90678000D01*
X84092000Y-89154000D02*
X82042000Y-89154000D01*
X92766100Y-101003100D02*
X92766100Y-99252300D01*
X92766100Y-99252300D02*
X92294400Y-98780600D01*
X92294400Y-98780600D02*
X90594400Y-98780600D01*
X90594400Y-98780600D02*
X90594400Y-94455200D01*
X90594400Y-94455200D02*
X89446100Y-93306900D01*
X89027000Y-93726000D02*
X89446100Y-93306900D01*
D28*
X79375000Y-66708000D02*
X79375000Y-64897000D01*
X79375000Y-64897000D02*
X79502000Y-64770000D01*
X79502000Y-64770000D02*
X85598000Y-64770000D01*
X65278000Y-60706000D02*
X58166000Y-60706000D01*
X53594000Y-59436000D02*
X53594000Y-60694000D01*
X53594000Y-60694000D02*
X54368000Y-61468000D01*
X54368000Y-61468000D02*
X57404000Y-61468000D01*
X57404000Y-61468000D02*
X58166000Y-60706000D01*
X53594000Y-52324000D02*
X53594000Y-55796000D01*
X53594000Y-55796000D02*
X53510000Y-55880000D01*
X53594000Y-59436000D02*
X53594000Y-55964000D01*
X53594000Y-55964000D02*
X53510000Y-55880000D01*
X79375000Y-66708000D02*
X79375000Y-68707000D01*
X79375000Y-68707000D02*
X79756000Y-69088000D01*
X79756000Y-71628000D02*
X79756000Y-69088000D01*
X91694000Y-66802000D02*
X90678000Y-67818000D01*
X91694000Y-61976000D02*
X91694000Y-66802000D01*
X93218000Y-60452000D02*
X91694000Y-61976000D01*
X93980000Y-60452000D02*
X93218000Y-60452000D01*
X96774000Y-60452000D02*
X93980000Y-60452000D01*
X100330000Y-64516000D02*
X96774000Y-60960000D01*
X96774000Y-60960000D02*
X96774000Y-60452000D01*
X100330000Y-68580000D02*
X100330000Y-64516000D01*
X100330000Y-68580000D02*
X101092000Y-69342000D01*
X101092000Y-69342000D02*
X107696000Y-69342000D01*
X108458000Y-68580000D02*
X108195999Y-68842001D01*
X108458000Y-64008000D02*
X108458000Y-68580000D01*
X108195999Y-68842001D02*
X107696000Y-69342000D01*
X110236000Y-58166000D02*
X108458000Y-59944000D01*
X108458000Y-59944000D02*
X108458000Y-64008000D01*
X112014000Y-58166000D02*
X110236000Y-58166000D01*
X130302000Y-56134000D02*
X125730000Y-60706000D01*
X130302000Y-54864000D02*
X130302000Y-56134000D01*
X130310000Y-54872000D02*
X130302000Y-54864000D01*
X146558000Y-53086000D02*
X146558000Y-51828000D01*
X146558000Y-60452000D02*
X146558000Y-56980000D01*
X146558000Y-56980000D02*
X146896000Y-56642000D01*
X146558000Y-53086000D02*
X146558000Y-56304000D01*
X146558000Y-56304000D02*
X146896000Y-56642000D01*
D29*
X131064000Y-86614000D02*
X130556000Y-87122000D01*
X130556000Y-87122000D02*
X130556000Y-100838000D01*
X130556000Y-100838000D02*
X131826000Y-102108000D01*
X131826000Y-102108000D02*
X135636000Y-102108000D01*
X145034000Y-105156000D02*
X146050000Y-104140000D01*
X146050000Y-104140000D02*
X146050000Y-101854000D01*
X136906000Y-105156000D02*
X145034000Y-105156000D01*
X135636000Y-103886000D02*
X136906000Y-105156000D01*
X135636000Y-102108000D02*
X135636000Y-103886000D01*
X131064000Y-86614000D02*
X135382000Y-82296000D01*
D27*
X84328000Y-97536000D02*
X84328000Y-97518000D01*
X84328000Y-97518000D02*
X83076000Y-96266000D01*
D28*
X146558000Y-51828000D02*
X146292000Y-51562000D01*
X140208000Y-51562000D02*
X138684000Y-53086000D01*
X146292000Y-51562000D02*
X140208000Y-51562000D01*
D27*
X87122000Y-98806000D02*
X88519000Y-98806000D01*
X88519000Y-98806000D02*
X88544400Y-98780600D01*
X100584006Y-90423994D02*
X100838000Y-90170000D01*
X100584006Y-92202000D02*
X100584006Y-90423994D01*
X78123999Y-105302001D02*
X77724000Y-104902002D01*
X80263998Y-107442000D02*
X78123999Y-105302001D01*
X108204000Y-106680000D02*
X107442000Y-107442000D01*
X107442000Y-107442000D02*
X80263998Y-107442000D01*
D29*
X71120000Y-70866000D02*
X71120000Y-72136000D01*
X71120000Y-72136000D02*
X72898000Y-73914000D01*
X72898000Y-73914000D02*
X81534000Y-73914000D01*
X81534000Y-73914000D02*
X89662000Y-65786000D01*
X89662000Y-65786000D02*
X89662000Y-59944000D01*
D27*
X83566000Y-66802000D02*
X83472000Y-66708000D01*
X83472000Y-66708000D02*
X80645000Y-66708000D01*
X80645000Y-66708000D02*
X80739000Y-66802000D01*
X80739000Y-66802000D02*
X82804000Y-66802000D01*
D29*
X68834000Y-69088000D02*
X68834000Y-71882000D01*
X68834000Y-71882000D02*
X72390000Y-75438000D01*
X72390000Y-75438000D02*
X103886000Y-75438000D01*
X103886000Y-75438000D02*
X113040234Y-66283766D01*
X113040234Y-66283766D02*
X117081300Y-66283766D01*
X117081300Y-66283766D02*
X117081300Y-64516000D01*
D26*
X134112000Y-54864000D02*
X138684000Y-54864000D01*
D27*
X140716000Y-103886000D02*
X140008894Y-103886000D01*
X140008894Y-103886000D02*
X139446000Y-103323106D01*
X139446000Y-103323106D02*
X139446000Y-98552000D01*
X139446000Y-98552000D02*
X137414000Y-96520000D01*
X137414000Y-96520000D02*
X135636000Y-96520000D01*
X79385662Y-105293662D02*
X78985663Y-104893663D01*
X106172000Y-106680000D02*
X80772000Y-106680000D01*
X107188000Y-105664000D02*
X106172000Y-106680000D01*
X80772000Y-106680000D02*
X79385662Y-105293662D01*
X148336000Y-89044213D02*
X148336000Y-83058000D01*
X146050000Y-89916000D02*
X147464213Y-89916000D01*
X147464213Y-89916000D02*
X148336000Y-89044213D01*
D26*
X141224000Y-54872000D02*
X142044000Y-55692000D01*
X142044000Y-55692000D02*
X143427998Y-55692000D01*
X143427998Y-55692000D02*
X144696000Y-55692000D01*
X82296000Y-63500000D02*
X83312000Y-62484000D01*
X83312000Y-62484000D02*
X83312000Y-59436000D01*
X80221000Y-63500000D02*
X82296000Y-63500000D01*
X79375000Y-61308000D02*
X79375000Y-62654000D01*
X79375000Y-62654000D02*
X80221000Y-63500000D01*
X79375000Y-59808000D02*
X79040000Y-59473000D01*
X79375000Y-61308000D02*
X79375000Y-59808000D01*
X62484000Y-53340000D02*
X59690000Y-53340000D01*
X64008000Y-54864000D02*
X62484000Y-53340000D01*
X59690000Y-53340000D02*
X58166000Y-54864000D01*
X76624264Y-54864000D02*
X64008000Y-54864000D01*
X79040000Y-57279736D02*
X76624264Y-54864000D01*
X79040000Y-59473000D02*
X79040000Y-57279736D01*
X55644000Y-52324000D02*
X55644000Y-54864000D01*
X55644000Y-54864000D02*
X55710000Y-54930000D01*
X58166000Y-54864000D02*
X55776000Y-54864000D01*
X55776000Y-54864000D02*
X55710000Y-54930000D01*
X144508000Y-55504000D02*
X144696000Y-55692000D01*
X144508000Y-53086000D02*
X144508000Y-55504000D01*
X136144000Y-56642000D02*
X142700000Y-56642000D01*
X142700000Y-56642000D02*
X143650000Y-57592000D01*
X143650000Y-57592000D02*
X144696000Y-57592000D01*
X144508000Y-60452000D02*
X144508000Y-57780000D01*
X144508000Y-57780000D02*
X144696000Y-57592000D01*
X77470000Y-63500000D02*
X78105000Y-62865000D01*
X78105000Y-62865000D02*
X78105000Y-61308000D01*
X75184000Y-63500000D02*
X77470000Y-63500000D01*
X74168000Y-62484000D02*
X75184000Y-63500000D01*
X74168000Y-59436000D02*
X74168000Y-62484000D01*
X62738000Y-56642000D02*
X59944000Y-56642000D01*
X78440000Y-57528264D02*
X76375735Y-55463999D01*
X63916001Y-55463999D02*
X62738000Y-56642000D01*
X76375735Y-55463999D02*
X63916001Y-55463999D01*
X78440000Y-59473000D02*
X78440000Y-57528264D01*
X78105000Y-59808000D02*
X78440000Y-59473000D01*
X78105000Y-61308000D02*
X78105000Y-59808000D01*
X55710000Y-56830000D02*
X55710000Y-59370000D01*
X55710000Y-59370000D02*
X55644000Y-59436000D01*
X59944000Y-56642000D02*
X55898000Y-56642000D01*
X55898000Y-56642000D02*
X55710000Y-56830000D01*
D28*
X52578000Y-94742000D02*
X54086000Y-94742000D01*
X75046341Y-99451659D02*
X75046341Y-97944333D01*
X75046341Y-97944333D02*
X75446340Y-97544334D01*
X54086000Y-94742000D02*
X58674000Y-99330000D01*
X58674000Y-99330000D02*
X58674000Y-101854000D01*
X69088000Y-105410000D02*
X75046341Y-99451659D01*
X58674000Y-101854000D02*
X62230000Y-105410000D01*
X62230000Y-105410000D02*
X69088000Y-105410000D01*
D27*
X76724674Y-96266000D02*
X75846339Y-97144335D01*
X75846339Y-97144335D02*
X75446340Y-97544334D01*
X81026000Y-96266000D02*
X76724674Y-96266000D01*
D28*
X83076000Y-98894900D02*
X84416900Y-98894900D01*
X84416900Y-98894900D02*
X84582000Y-99060000D01*
D27*
X83241100Y-99060000D02*
X83076000Y-98894900D01*
D28*
X83076000Y-98894900D02*
X83076000Y-98570000D01*
X83076000Y-98570000D02*
X81026000Y-96520000D01*
X81026000Y-96520000D02*
X81026000Y-96266000D01*
X77706000Y-71628000D02*
X73152000Y-71628000D01*
D27*
X81026000Y-93726000D02*
X82804000Y-91948000D01*
X82804000Y-91948000D02*
X82804000Y-91186000D01*
X82822000Y-91204000D02*
X82804000Y-91186000D01*
X84092000Y-91204000D02*
X82822000Y-91204000D01*
D29*
X91230660Y-73984790D02*
X90170000Y-73984790D01*
X95504000Y-71772213D02*
X93291423Y-73984790D01*
X95504000Y-70358000D02*
X95504000Y-71772213D01*
D28*
X89109340Y-73984790D02*
X90170000Y-73984790D01*
X85598000Y-72200200D02*
X87382590Y-73984790D01*
X87382590Y-73984790D02*
X89109340Y-73984790D01*
D29*
X93291423Y-73984790D02*
X91230660Y-73984790D01*
D27*
X122936000Y-83312000D02*
X122936000Y-80772000D01*
X124968000Y-85344000D02*
X122936000Y-83312000D01*
X125476000Y-85344000D02*
X124968000Y-85344000D01*
X128270000Y-85344000D02*
X125476000Y-85344000D01*
X146050000Y-77216000D02*
X141478000Y-77216000D01*
X93542898Y-91256900D02*
X93725998Y-91440000D01*
X89446100Y-91256900D02*
X93542898Y-91256900D01*
D28*
X77706000Y-69088000D02*
X77706000Y-71628000D01*
D27*
X78105000Y-66708000D02*
X78105000Y-68689000D01*
X78105000Y-68689000D02*
X77706000Y-69088000D01*
X90716100Y-102007100D02*
X90107200Y-102616000D01*
X90716100Y-101003100D02*
X90716100Y-102007100D01*
X90107200Y-102616000D02*
X89916000Y-102616000D01*
D28*
X81026000Y-93726000D02*
X81026000Y-96266000D01*
X117856000Y-71000000D02*
X117856000Y-75946000D01*
D27*
X102624330Y-104385670D02*
X104142149Y-102867851D01*
X84065670Y-104385670D02*
X102624330Y-104385670D01*
X83203989Y-105301999D02*
X82949989Y-105047999D01*
X82949989Y-105047999D02*
X82549990Y-104648000D01*
X103740015Y-105301999D02*
X83203989Y-105301999D01*
X105410014Y-103632000D02*
X103740015Y-105301999D01*
X106426000Y-104648000D02*
X105010001Y-106063999D01*
X81171999Y-105555999D02*
X80772000Y-105156000D01*
X81679999Y-106063999D02*
X81171999Y-105555999D01*
X105010001Y-106063999D02*
X81679999Y-106063999D01*
X97536000Y-94391708D02*
X97489641Y-94438067D01*
X97536000Y-89408000D02*
X97536000Y-94391708D01*
X76835000Y-66708000D02*
X76741000Y-66802000D01*
X76741000Y-66802000D02*
X75184000Y-66802000D01*
X75184000Y-66802000D02*
X74930000Y-67056000D01*
X96012000Y-88646000D02*
X96274337Y-88383663D01*
X96012000Y-94234000D02*
X96012000Y-88646000D01*
X132587992Y-93726008D02*
X132587992Y-100018315D01*
X146050000Y-87376000D02*
X138938000Y-87376000D01*
X132587992Y-100018315D02*
X132587992Y-100584000D01*
X138938000Y-87376000D02*
X132587992Y-93726008D01*
X82441999Y-87230001D02*
X83820000Y-85852000D01*
X83820000Y-85852000D02*
X83820000Y-83312000D01*
X82042000Y-87630000D02*
X82441999Y-87230001D01*
X79992000Y-89154000D02*
X79992000Y-87971000D01*
X79992000Y-87971000D02*
X79830500Y-87809500D01*
X75946000Y-110998000D02*
X77724000Y-110998000D01*
X77724000Y-110998000D02*
X79502000Y-109220000D01*
X79502000Y-109220000D02*
X79502000Y-107950000D01*
X79502000Y-107950000D02*
X76708000Y-105156000D01*
X76708000Y-105156000D02*
X76708000Y-104394000D01*
X76708000Y-104394000D02*
X77978000Y-103124000D01*
X77978000Y-103124000D02*
X81222315Y-103124000D01*
X81222315Y-103124000D02*
X81788000Y-103124000D01*
X98552000Y-95504000D02*
X109982000Y-106934000D01*
X98552000Y-88646000D02*
X98552000Y-95504000D01*
X97536000Y-87630000D02*
X98552000Y-88646000D01*
X94234000Y-87630000D02*
X97536000Y-87630000D01*
X111252000Y-106680000D02*
X99568000Y-94996000D01*
X99568000Y-94996000D02*
X99568000Y-88138000D01*
X93791694Y-86875737D02*
X93226009Y-86875737D01*
X98305737Y-86875737D02*
X93791694Y-86875737D01*
X99568000Y-88138000D02*
X98305737Y-86875737D01*
X92904480Y-85778723D02*
X92504481Y-86178722D01*
X111506000Y-99060000D02*
X98224723Y-85778723D01*
X98224723Y-85778723D02*
X92904480Y-85778723D01*
X111506000Y-105156000D02*
X111506000Y-99060000D01*
X112522000Y-99060000D02*
X112522000Y-103886000D01*
X106172000Y-92710000D02*
X112522000Y-99060000D01*
X98406001Y-84944001D02*
X106172000Y-92710000D01*
X97898001Y-84944001D02*
X98406001Y-84944001D01*
X91694000Y-85344000D02*
X92093999Y-84944001D01*
X92093999Y-84944001D02*
X97898001Y-84944001D01*
X107188000Y-92202000D02*
X113538000Y-98552000D01*
X113538000Y-98552000D02*
X113538000Y-102870000D01*
X99168001Y-84182001D02*
X107188000Y-92202000D01*
X90678000Y-84582000D02*
X91077999Y-84182001D01*
X91077999Y-84182001D02*
X99168001Y-84182001D01*
X99822000Y-83312000D02*
X94291685Y-83312000D01*
X94291685Y-83312000D02*
X93726000Y-83312000D01*
X114554000Y-98044000D02*
X99822000Y-83312000D01*
X114554000Y-101600000D02*
X114554000Y-98044000D01*
X100330000Y-82296000D02*
X116078000Y-98044000D01*
X116078000Y-98044000D02*
X116078000Y-100584000D01*
X94996000Y-82296000D02*
X100330000Y-82296000D01*
X101092000Y-81534000D02*
X94545685Y-81534000D01*
X118110000Y-100330000D02*
X118110000Y-98552000D01*
X94545685Y-81534000D02*
X93980000Y-81534000D01*
X118110000Y-98552000D02*
X101092000Y-81534000D01*
X101854000Y-80772000D02*
X95561685Y-80772000D01*
X95561685Y-80772000D02*
X94996000Y-80772000D01*
X121412000Y-100330000D02*
X101854000Y-80772000D01*
X102616000Y-80010000D02*
X123190000Y-100584000D01*
X123190000Y-100584000D02*
X123698000Y-100584000D01*
X93980000Y-80010000D02*
X102616000Y-80010000D01*
X124206000Y-98552000D02*
X126746000Y-101092000D01*
X122682000Y-98552000D02*
X124206000Y-98552000D01*
X103251001Y-79121001D02*
X122682000Y-98552000D01*
X92964000Y-79521000D02*
X93363999Y-79121001D01*
X93363999Y-79121001D02*
X103251001Y-79121001D01*
X123444000Y-97790000D02*
X124968000Y-97790000D01*
X124968000Y-97790000D02*
X128524000Y-101346000D01*
X103994001Y-78340001D02*
X123444000Y-97790000D01*
X92202000Y-78740000D02*
X92601999Y-78340001D01*
X92601999Y-78340001D02*
X103994001Y-78340001D01*
D29*
X89142005Y-71640001D02*
X88392006Y-72390000D01*
X90424006Y-70358000D02*
X89142005Y-71640001D01*
X92964000Y-70358000D02*
X90424006Y-70358000D01*
D27*
G36*
X64357822Y-45269803D02*
X63963450Y-46219556D01*
X63962552Y-47247932D01*
X64355266Y-48198372D01*
X65081803Y-48926178D01*
X66031556Y-49320550D01*
X67059932Y-49321448D01*
X68010372Y-48928734D01*
X68738178Y-48202197D01*
X69132550Y-47252444D01*
X69133448Y-46224068D01*
X68740734Y-45273628D01*
X68298877Y-44831000D01*
X128297392Y-44831000D01*
X127857822Y-45269803D01*
X127463450Y-46219556D01*
X127462552Y-47247932D01*
X127855266Y-48198372D01*
X128581803Y-48926178D01*
X129531556Y-49320550D01*
X130559932Y-49321448D01*
X131510372Y-48928734D01*
X132238178Y-48202197D01*
X132632550Y-47252444D01*
X132633448Y-46224068D01*
X132240734Y-45273628D01*
X131798877Y-44831000D01*
X148971000Y-44831000D01*
X148971000Y-82229119D01*
X148923046Y-82181081D01*
X148542777Y-82023180D01*
X148131029Y-82022821D01*
X147750485Y-82180058D01*
X147684275Y-82246153D01*
X147671856Y-81910540D01*
X147469387Y-81421736D01*
X147202532Y-81323073D01*
X146229605Y-82296000D01*
X147202532Y-83268927D01*
X147300848Y-83232577D01*
X147300821Y-83262971D01*
X147458058Y-83643515D01*
X147574000Y-83759659D01*
X147574000Y-84242878D01*
X147436894Y-83911057D01*
X147010022Y-83483438D01*
X147022927Y-83448532D01*
X146050000Y-82475605D01*
X145077073Y-83448532D01*
X145090164Y-83483938D01*
X144664722Y-83908637D01*
X144415284Y-84509352D01*
X144414716Y-85159795D01*
X144663106Y-85760943D01*
X145007759Y-86106199D01*
X144664722Y-86448637D01*
X144596057Y-86614000D01*
X138938000Y-86614000D01*
X138661698Y-86668960D01*
X138646395Y-86672004D01*
X138399184Y-86837185D01*
X132049177Y-93187193D01*
X131883996Y-93434403D01*
X131825992Y-93726008D01*
X131825992Y-99882235D01*
X131711073Y-99996954D01*
X131553172Y-100377223D01*
X131552813Y-100788971D01*
X131710050Y-101169515D01*
X132000946Y-101460919D01*
X132381215Y-101618820D01*
X132792963Y-101619179D01*
X133173507Y-101461942D01*
X133464911Y-101171046D01*
X133622812Y-100790777D01*
X133623171Y-100379029D01*
X133465934Y-99998485D01*
X133349992Y-99882341D01*
X133349992Y-95520000D01*
X133688560Y-95520000D01*
X133688560Y-97520000D01*
X133732838Y-97755317D01*
X133837771Y-97918387D01*
X133739569Y-98062110D01*
X133688560Y-98314000D01*
X133688560Y-100314000D01*
X133732838Y-100549317D01*
X133836133Y-100709842D01*
X133797673Y-100748301D01*
X133701000Y-100981690D01*
X133701000Y-101822250D01*
X133859750Y-101981000D01*
X136209000Y-101981000D01*
X136209000Y-101961000D01*
X136463000Y-101961000D01*
X136463000Y-101981000D01*
X136483000Y-101981000D01*
X136483000Y-102235000D01*
X136463000Y-102235000D01*
X136463000Y-103584250D01*
X136621750Y-103743000D01*
X138462309Y-103743000D01*
X138695698Y-103646327D01*
X138739567Y-103602458D01*
X138742004Y-103614711D01*
X138864891Y-103798624D01*
X138907185Y-103861921D01*
X139470078Y-104424815D01*
X139688089Y-104570485D01*
X139717289Y-104589996D01*
X139839253Y-104614256D01*
X140072235Y-104847645D01*
X140489244Y-105020803D01*
X140940775Y-105021197D01*
X141358086Y-104848767D01*
X141677645Y-104529765D01*
X141850803Y-104112756D01*
X141851197Y-103661225D01*
X141678767Y-103243914D01*
X141359765Y-102924355D01*
X140942756Y-102751197D01*
X140491225Y-102750803D01*
X140208000Y-102867830D01*
X140208000Y-102139750D01*
X144415000Y-102139750D01*
X144415000Y-102980309D01*
X144511673Y-103213698D01*
X144690301Y-103392327D01*
X144923690Y-103489000D01*
X145764250Y-103489000D01*
X145923000Y-103330250D01*
X145923000Y-101981000D01*
X146177000Y-101981000D01*
X146177000Y-103330250D01*
X146335750Y-103489000D01*
X147176310Y-103489000D01*
X147409699Y-103392327D01*
X147588327Y-103213698D01*
X147685000Y-102980309D01*
X147685000Y-102139750D01*
X147526250Y-101981000D01*
X146177000Y-101981000D01*
X145923000Y-101981000D01*
X144573750Y-101981000D01*
X144415000Y-102139750D01*
X140208000Y-102139750D01*
X140208000Y-98552000D01*
X140149996Y-98260395D01*
X139984815Y-98013185D01*
X139069425Y-97097795D01*
X144414716Y-97097795D01*
X144663106Y-97698943D01*
X145007759Y-98044199D01*
X144664722Y-98386637D01*
X144415284Y-98987352D01*
X144414716Y-99637795D01*
X144663106Y-100238943D01*
X144725251Y-100301196D01*
X144690301Y-100315673D01*
X144511673Y-100494302D01*
X144415000Y-100727691D01*
X144415000Y-101568250D01*
X144573750Y-101727000D01*
X145923000Y-101727000D01*
X145923000Y-101707000D01*
X146177000Y-101707000D01*
X146177000Y-101727000D01*
X147526250Y-101727000D01*
X147685000Y-101568250D01*
X147685000Y-100727691D01*
X147588327Y-100494302D01*
X147409699Y-100315673D01*
X147375167Y-100301369D01*
X147435278Y-100241363D01*
X147684716Y-99640648D01*
X147685284Y-98990205D01*
X147436894Y-98389057D01*
X147092241Y-98043801D01*
X147435278Y-97701363D01*
X147684716Y-97100648D01*
X147685284Y-96450205D01*
X147436894Y-95849057D01*
X146977363Y-95388722D01*
X146376648Y-95139284D01*
X145726205Y-95138716D01*
X145125057Y-95387106D01*
X144664722Y-95846637D01*
X144415284Y-96447352D01*
X144414716Y-97097795D01*
X139069425Y-97097795D01*
X138983440Y-97011810D01*
X138983440Y-95520000D01*
X138939162Y-95284683D01*
X138800090Y-95068559D01*
X138587890Y-94923569D01*
X138336000Y-94872560D01*
X134336000Y-94872560D01*
X134100683Y-94916838D01*
X133884559Y-95055910D01*
X133739569Y-95268110D01*
X133688560Y-95520000D01*
X133349992Y-95520000D01*
X133349992Y-94041638D01*
X139253631Y-88138000D01*
X144595779Y-88138000D01*
X144663106Y-88300943D01*
X145007759Y-88646199D01*
X144664722Y-88988637D01*
X144415284Y-89589352D01*
X144414716Y-90239795D01*
X144663106Y-90840943D01*
X145122637Y-91301278D01*
X145723352Y-91550716D01*
X146373795Y-91551284D01*
X146974943Y-91302894D01*
X147435278Y-90843363D01*
X147507519Y-90669386D01*
X147755818Y-90619996D01*
X148003028Y-90454815D01*
X148874815Y-89583028D01*
X148966638Y-89445605D01*
X148971000Y-89439077D01*
X148971000Y-116459000D01*
X147948541Y-116459000D01*
X148038927Y-116214532D01*
X147066000Y-115241605D01*
X146093073Y-116214532D01*
X146183459Y-116459000D01*
X145426485Y-116459000D01*
X145450943Y-116448894D01*
X145878562Y-116022022D01*
X145913468Y-116034927D01*
X146886395Y-115062000D01*
X147245605Y-115062000D01*
X148218532Y-116034927D01*
X148485387Y-115936264D01*
X148711908Y-115326539D01*
X148687856Y-114676540D01*
X148485387Y-114187736D01*
X148218532Y-114089073D01*
X147245605Y-115062000D01*
X146886395Y-115062000D01*
X145913468Y-114089073D01*
X145878062Y-114102164D01*
X145685703Y-113909468D01*
X146093073Y-113909468D01*
X147066000Y-114882395D01*
X148038927Y-113909468D01*
X147940264Y-113642613D01*
X147330539Y-113416092D01*
X146680540Y-113440144D01*
X146191736Y-113642613D01*
X146093073Y-113909468D01*
X145685703Y-113909468D01*
X145453363Y-113676722D01*
X144852648Y-113427284D01*
X144202205Y-113426716D01*
X143601057Y-113675106D01*
X143255801Y-114019759D01*
X142913363Y-113676722D01*
X142312648Y-113427284D01*
X141662205Y-113426716D01*
X141061057Y-113675106D01*
X140715801Y-114019759D01*
X140373363Y-113676722D01*
X139772648Y-113427284D01*
X139122205Y-113426716D01*
X138521057Y-113675106D01*
X138175801Y-114019759D01*
X137833363Y-113676722D01*
X137232648Y-113427284D01*
X136582205Y-113426716D01*
X135981057Y-113675106D01*
X135635801Y-114019759D01*
X135293363Y-113676722D01*
X134692648Y-113427284D01*
X134042205Y-113426716D01*
X133441057Y-113675106D01*
X133095801Y-114019759D01*
X132753363Y-113676722D01*
X132152648Y-113427284D01*
X131502205Y-113426716D01*
X130901057Y-113675106D01*
X130555801Y-114019759D01*
X130213363Y-113676722D01*
X129612648Y-113427284D01*
X128962205Y-113426716D01*
X128361057Y-113675106D01*
X128015801Y-114019759D01*
X127673363Y-113676722D01*
X127072648Y-113427284D01*
X126422205Y-113426716D01*
X125821057Y-113675106D01*
X125475801Y-114019759D01*
X125133363Y-113676722D01*
X124532648Y-113427284D01*
X123882205Y-113426716D01*
X123281057Y-113675106D01*
X122935801Y-114019759D01*
X122593363Y-113676722D01*
X121992648Y-113427284D01*
X121342205Y-113426716D01*
X120741057Y-113675106D01*
X120395801Y-114019759D01*
X120053363Y-113676722D01*
X119452648Y-113427284D01*
X118802205Y-113426716D01*
X118201057Y-113675106D01*
X117855801Y-114019759D01*
X117513363Y-113676722D01*
X116912648Y-113427284D01*
X116262205Y-113426716D01*
X115661057Y-113675106D01*
X115315801Y-114019759D01*
X114973363Y-113676722D01*
X114372648Y-113427284D01*
X113722205Y-113426716D01*
X113121057Y-113675106D01*
X112775801Y-114019759D01*
X112433363Y-113676722D01*
X111832648Y-113427284D01*
X111182205Y-113426716D01*
X110581057Y-113675106D01*
X110235801Y-114019759D01*
X109893363Y-113676722D01*
X109292648Y-113427284D01*
X108642205Y-113426716D01*
X108041057Y-113675106D01*
X107695801Y-114019759D01*
X107353363Y-113676722D01*
X106752648Y-113427284D01*
X106102205Y-113426716D01*
X105501057Y-113675106D01*
X105155801Y-114019759D01*
X104813363Y-113676722D01*
X104212648Y-113427284D01*
X103562205Y-113426716D01*
X102961057Y-113675106D01*
X102615801Y-114019759D01*
X102273363Y-113676722D01*
X101672648Y-113427284D01*
X101022205Y-113426716D01*
X100421057Y-113675106D01*
X100075801Y-114019759D01*
X99733363Y-113676722D01*
X99132648Y-113427284D01*
X98482205Y-113426716D01*
X97881057Y-113675106D01*
X97535801Y-114019759D01*
X97193363Y-113676722D01*
X96592648Y-113427284D01*
X95942205Y-113426716D01*
X95341057Y-113675106D01*
X94995801Y-114019759D01*
X94653363Y-113676722D01*
X94052648Y-113427284D01*
X93402205Y-113426716D01*
X92801057Y-113675106D01*
X92455801Y-114019759D01*
X92113363Y-113676722D01*
X91512648Y-113427284D01*
X90862205Y-113426716D01*
X90261057Y-113675106D01*
X89915801Y-114019759D01*
X89573363Y-113676722D01*
X88972648Y-113427284D01*
X88322205Y-113426716D01*
X87721057Y-113675106D01*
X87375801Y-114019759D01*
X87033363Y-113676722D01*
X86432648Y-113427284D01*
X85782205Y-113426716D01*
X85181057Y-113675106D01*
X84835801Y-114019759D01*
X84493363Y-113676722D01*
X83892648Y-113427284D01*
X83242205Y-113426716D01*
X82641057Y-113675106D01*
X82295801Y-114019759D01*
X81953363Y-113676722D01*
X81352648Y-113427284D01*
X80702205Y-113426716D01*
X80101057Y-113675106D01*
X79755801Y-114019759D01*
X79413363Y-113676722D01*
X78812648Y-113427284D01*
X78162205Y-113426716D01*
X77561057Y-113675106D01*
X77215801Y-114019759D01*
X76873363Y-113676722D01*
X76272648Y-113427284D01*
X75622205Y-113426716D01*
X75021057Y-113675106D01*
X74675801Y-114019759D01*
X74333363Y-113676722D01*
X73732648Y-113427284D01*
X73082205Y-113426716D01*
X72481057Y-113675106D01*
X72135801Y-114019759D01*
X71793363Y-113676722D01*
X71192648Y-113427284D01*
X70542205Y-113426716D01*
X69941057Y-113675106D01*
X69595801Y-114019759D01*
X69253363Y-113676722D01*
X68652648Y-113427284D01*
X68002205Y-113426716D01*
X67401057Y-113675106D01*
X67055801Y-114019759D01*
X66713363Y-113676722D01*
X66112648Y-113427284D01*
X65462205Y-113426716D01*
X64861057Y-113675106D01*
X64515801Y-114019759D01*
X64173363Y-113676722D01*
X63572648Y-113427284D01*
X62922205Y-113426716D01*
X62321057Y-113675106D01*
X61975801Y-114019759D01*
X61633363Y-113676722D01*
X61032648Y-113427284D01*
X60382205Y-113426716D01*
X59781057Y-113675106D01*
X59435801Y-114019759D01*
X59093363Y-113676722D01*
X58492648Y-113427284D01*
X57842205Y-113426716D01*
X57241057Y-113675106D01*
X56895801Y-114019759D01*
X56553363Y-113676722D01*
X55952648Y-113427284D01*
X55302205Y-113426716D01*
X54701057Y-113675106D01*
X54634426Y-113741621D01*
X54550090Y-113610559D01*
X54337890Y-113465569D01*
X54086000Y-113414560D01*
X52086000Y-113414560D01*
X51850683Y-113458838D01*
X51634559Y-113597910D01*
X51489569Y-113810110D01*
X51438560Y-114062000D01*
X51438560Y-116062000D01*
X51482838Y-116297317D01*
X51586878Y-116459000D01*
X50927000Y-116459000D01*
X50927000Y-109251750D01*
X50943000Y-109251750D01*
X50943000Y-110092309D01*
X51039673Y-110325698D01*
X51218301Y-110504327D01*
X51451690Y-110601000D01*
X52292250Y-110601000D01*
X52451000Y-110442250D01*
X52451000Y-109093000D01*
X52705000Y-109093000D01*
X52705000Y-110442250D01*
X52863750Y-110601000D01*
X53704310Y-110601000D01*
X53937699Y-110504327D01*
X54116327Y-110325698D01*
X54213000Y-110092309D01*
X54213000Y-109251750D01*
X54054250Y-109093000D01*
X52705000Y-109093000D01*
X52451000Y-109093000D01*
X51101750Y-109093000D01*
X50943000Y-109251750D01*
X50927000Y-109251750D01*
X50927000Y-106161461D01*
X50932092Y-106161461D01*
X50956144Y-106811460D01*
X51158613Y-107300264D01*
X51352675Y-107372014D01*
X51218301Y-107427673D01*
X51039673Y-107606302D01*
X50943000Y-107839691D01*
X50943000Y-108680250D01*
X51101750Y-108839000D01*
X52451000Y-108839000D01*
X52451000Y-108819000D01*
X52705000Y-108819000D01*
X52705000Y-108839000D01*
X54054250Y-108839000D01*
X54213000Y-108680250D01*
X54213000Y-107839691D01*
X54160109Y-107712000D01*
X70996560Y-107712000D01*
X70996560Y-109712000D01*
X71040838Y-109947317D01*
X71179910Y-110163441D01*
X71392110Y-110308431D01*
X71644000Y-110359440D01*
X73644000Y-110359440D01*
X73879317Y-110315162D01*
X74095441Y-110176090D01*
X74192910Y-110033439D01*
X74256637Y-110097278D01*
X74857352Y-110346716D01*
X75133190Y-110346957D01*
X75069081Y-110410954D01*
X74911180Y-110791223D01*
X74910821Y-111202971D01*
X75068058Y-111583515D01*
X75358954Y-111874919D01*
X75739223Y-112032820D01*
X76150971Y-112033179D01*
X76531515Y-111875942D01*
X76647659Y-111760000D01*
X77724000Y-111760000D01*
X78015605Y-111701996D01*
X78262815Y-111536815D01*
X80040816Y-109758815D01*
X80139834Y-109610623D01*
X80205996Y-109511605D01*
X80264000Y-109220000D01*
X80264000Y-108204000D01*
X107442000Y-108204000D01*
X107733605Y-108145996D01*
X107980815Y-107980815D01*
X108246593Y-107715037D01*
X108408971Y-107715179D01*
X108789515Y-107557942D01*
X109023446Y-107324419D01*
X109104058Y-107519515D01*
X109394954Y-107810919D01*
X109775223Y-107968820D01*
X110186971Y-107969179D01*
X110567515Y-107811942D01*
X110776560Y-107603262D01*
X111045223Y-107714820D01*
X111456971Y-107715179D01*
X111837515Y-107557942D01*
X112128919Y-107267046D01*
X112286820Y-106886777D01*
X112287179Y-106475029D01*
X112129942Y-106094485D01*
X112075932Y-106040381D01*
X112091515Y-106033942D01*
X112382919Y-105743046D01*
X112540820Y-105362777D01*
X112541179Y-104951029D01*
X112528774Y-104921006D01*
X112726971Y-104921179D01*
X113107515Y-104763942D01*
X113398919Y-104473046D01*
X113556820Y-104092777D01*
X113556984Y-103905017D01*
X113742971Y-103905179D01*
X114123515Y-103747942D01*
X114414919Y-103457046D01*
X114572820Y-103076777D01*
X114573179Y-102665029D01*
X114560774Y-102635006D01*
X114758971Y-102635179D01*
X115139515Y-102477942D01*
X115223854Y-102393750D01*
X133701000Y-102393750D01*
X133701000Y-103234310D01*
X133797673Y-103467699D01*
X133976302Y-103646327D01*
X134209691Y-103743000D01*
X136050250Y-103743000D01*
X136209000Y-103584250D01*
X136209000Y-102235000D01*
X133859750Y-102235000D01*
X133701000Y-102393750D01*
X115223854Y-102393750D01*
X115430919Y-102187046D01*
X115588820Y-101806777D01*
X115589086Y-101501667D01*
X115871223Y-101618820D01*
X116282971Y-101619179D01*
X116663515Y-101461942D01*
X116954919Y-101171046D01*
X117112820Y-100790777D01*
X117112963Y-100627281D01*
X117232058Y-100915515D01*
X117522954Y-101206919D01*
X117903223Y-101364820D01*
X118314971Y-101365179D01*
X118695515Y-101207942D01*
X118986919Y-100917046D01*
X119144820Y-100536777D01*
X119145179Y-100125029D01*
X118987942Y-99744485D01*
X118872000Y-99628341D01*
X118872000Y-98867630D01*
X120376963Y-100372593D01*
X120376821Y-100534971D01*
X120534058Y-100915515D01*
X120824954Y-101206919D01*
X121205223Y-101364820D01*
X121616971Y-101365179D01*
X121997515Y-101207942D01*
X122288919Y-100917046D01*
X122334836Y-100806466D01*
X122651185Y-101122815D01*
X122898395Y-101287996D01*
X122948228Y-101297908D01*
X123110954Y-101460919D01*
X123491223Y-101618820D01*
X123902971Y-101619179D01*
X124283515Y-101461942D01*
X124574919Y-101171046D01*
X124732820Y-100790777D01*
X124733179Y-100379029D01*
X124576708Y-100000338D01*
X125710963Y-101134593D01*
X125710821Y-101296971D01*
X125868058Y-101677515D01*
X126158954Y-101968919D01*
X126539223Y-102126820D01*
X126950971Y-102127179D01*
X127331515Y-101969942D01*
X127565446Y-101736419D01*
X127646058Y-101931515D01*
X127936954Y-102222919D01*
X128317223Y-102380820D01*
X128728971Y-102381179D01*
X129109515Y-102223942D01*
X129400919Y-101933046D01*
X129558820Y-101552777D01*
X129559179Y-101141029D01*
X129401942Y-100760485D01*
X129111046Y-100469081D01*
X128730777Y-100311180D01*
X128566668Y-100311037D01*
X125506815Y-97251185D01*
X125346903Y-97144335D01*
X125259605Y-97086004D01*
X124968000Y-97028000D01*
X123759631Y-97028000D01*
X107708602Y-80976971D01*
X121900821Y-80976971D01*
X122058058Y-81357515D01*
X122174000Y-81473659D01*
X122174000Y-83312000D01*
X122232004Y-83603605D01*
X122343580Y-83770590D01*
X122397185Y-83850815D01*
X124429185Y-85882815D01*
X124676395Y-86047996D01*
X124968000Y-86106000D01*
X127568235Y-86106000D01*
X127682954Y-86220919D01*
X128063223Y-86378820D01*
X128474971Y-86379179D01*
X128855515Y-86221942D01*
X129146919Y-85931046D01*
X129304820Y-85550777D01*
X129305179Y-85139029D01*
X129147942Y-84758485D01*
X128857046Y-84467081D01*
X128476777Y-84309180D01*
X128065029Y-84308821D01*
X127684485Y-84466058D01*
X127568341Y-84582000D01*
X125283630Y-84582000D01*
X123698000Y-82996370D01*
X123698000Y-82031461D01*
X144404092Y-82031461D01*
X144428144Y-82681460D01*
X144630613Y-83170264D01*
X144897468Y-83268927D01*
X145870395Y-82296000D01*
X144897468Y-81323073D01*
X144630613Y-81421736D01*
X144404092Y-82031461D01*
X123698000Y-82031461D01*
X123698000Y-81473765D01*
X123812919Y-81359046D01*
X123970820Y-80978777D01*
X123971179Y-80567029D01*
X123813942Y-80186485D01*
X123523046Y-79895081D01*
X123142777Y-79737180D01*
X122731029Y-79736821D01*
X122350485Y-79894058D01*
X122059081Y-80184954D01*
X121901180Y-80565223D01*
X121900821Y-80976971D01*
X107708602Y-80976971D01*
X104532816Y-77801186D01*
X104389133Y-77705180D01*
X104285606Y-77636005D01*
X103994001Y-77578001D01*
X92601999Y-77578001D01*
X92310394Y-77636005D01*
X92207130Y-77705004D01*
X91997029Y-77704821D01*
X91616485Y-77862058D01*
X91325081Y-78152954D01*
X91167180Y-78533223D01*
X91166821Y-78944971D01*
X91324058Y-79325515D01*
X91614954Y-79616919D01*
X91939433Y-79751654D01*
X92086058Y-80106515D01*
X92376954Y-80397919D01*
X92757223Y-80555820D01*
X93085775Y-80556106D01*
X93102058Y-80595515D01*
X93278288Y-80772053D01*
X93103081Y-80946954D01*
X92945180Y-81327223D01*
X92944821Y-81738971D01*
X93102058Y-82119515D01*
X93335581Y-82353446D01*
X93140485Y-82434058D01*
X92849081Y-82724954D01*
X92691180Y-83105223D01*
X92690906Y-83420001D01*
X91077999Y-83420001D01*
X90786394Y-83478005D01*
X90683130Y-83547004D01*
X90473029Y-83546821D01*
X90092485Y-83704058D01*
X89801081Y-83994954D01*
X89643180Y-84375223D01*
X89642821Y-84786971D01*
X89800058Y-85167515D01*
X90090954Y-85458919D01*
X90471223Y-85616820D01*
X90686933Y-85617008D01*
X90816058Y-85929515D01*
X91106954Y-86220919D01*
X91469313Y-86371383D01*
X91469302Y-86383693D01*
X91626539Y-86764237D01*
X91917435Y-87055641D01*
X92234949Y-87187484D01*
X92348067Y-87461252D01*
X92638963Y-87752656D01*
X93019232Y-87910557D01*
X93230128Y-87910741D01*
X93356058Y-88215515D01*
X93646954Y-88506919D01*
X94027223Y-88664820D01*
X94438971Y-88665179D01*
X94819515Y-88507942D01*
X94935659Y-88392000D01*
X95239329Y-88392000D01*
X95239158Y-88588634D01*
X95254179Y-88624989D01*
X95250000Y-88646000D01*
X95250000Y-93532235D01*
X95135081Y-93646954D01*
X94977180Y-94027223D01*
X94976821Y-94438971D01*
X95134058Y-94819515D01*
X95424954Y-95110919D01*
X95805223Y-95268820D01*
X96216971Y-95269179D01*
X96597515Y-95111942D01*
X96648799Y-95060747D01*
X96902595Y-95314986D01*
X97282864Y-95472887D01*
X97694612Y-95473246D01*
X97790000Y-95433833D01*
X97790000Y-95504000D01*
X97848004Y-95795605D01*
X97971380Y-95980250D01*
X98013185Y-96042815D01*
X103842261Y-101871891D01*
X103556634Y-101989909D01*
X103265230Y-102280805D01*
X103107329Y-102661074D01*
X103107186Y-102825183D01*
X102308700Y-103623670D01*
X90187548Y-103623670D01*
X90501515Y-103493942D01*
X90792919Y-103203046D01*
X90931482Y-102869349D01*
X91254916Y-102545915D01*
X91352052Y-102400540D01*
X91416100Y-102400540D01*
X91651417Y-102356262D01*
X91734248Y-102302961D01*
X91939791Y-102388100D01*
X92480350Y-102388100D01*
X92639100Y-102229350D01*
X92639100Y-101130100D01*
X92893100Y-101130100D01*
X92893100Y-102229350D01*
X93051850Y-102388100D01*
X93592409Y-102388100D01*
X93825798Y-102291427D01*
X94004427Y-102112799D01*
X94101100Y-101879410D01*
X94101100Y-101288850D01*
X93942350Y-101130100D01*
X92893100Y-101130100D01*
X92639100Y-101130100D01*
X92619100Y-101130100D01*
X92619100Y-100876100D01*
X92639100Y-100876100D01*
X92639100Y-99776850D01*
X92893100Y-99776850D01*
X92893100Y-100876100D01*
X93942350Y-100876100D01*
X94101100Y-100717350D01*
X94101100Y-100126790D01*
X94004427Y-99893401D01*
X93825798Y-99714773D01*
X93592409Y-99618100D01*
X93051850Y-99618100D01*
X92893100Y-99776850D01*
X92639100Y-99776850D01*
X92480350Y-99618100D01*
X91939791Y-99618100D01*
X91929400Y-99622404D01*
X91929400Y-99066350D01*
X91770650Y-98907600D01*
X90721400Y-98907600D01*
X90721400Y-98927600D01*
X90467400Y-98927600D01*
X90467400Y-98907600D01*
X90447400Y-98907600D01*
X90447400Y-98653600D01*
X90467400Y-98653600D01*
X90467400Y-97554350D01*
X90721400Y-97554350D01*
X90721400Y-98653600D01*
X91770650Y-98653600D01*
X91929400Y-98494850D01*
X91929400Y-97904290D01*
X91832727Y-97670901D01*
X91654098Y-97492273D01*
X91420709Y-97395600D01*
X90880150Y-97395600D01*
X90721400Y-97554350D01*
X90467400Y-97554350D01*
X90308650Y-97395600D01*
X89768091Y-97395600D01*
X89563730Y-97480249D01*
X89496290Y-97434169D01*
X89244400Y-97383160D01*
X87844400Y-97383160D01*
X87609083Y-97427438D01*
X87392959Y-97566510D01*
X87253159Y-97771114D01*
X86917029Y-97770821D01*
X86536485Y-97928058D01*
X86245081Y-98218954D01*
X86087180Y-98599223D01*
X86086821Y-99010971D01*
X86244058Y-99391515D01*
X86534954Y-99682919D01*
X86915223Y-99840820D01*
X87289647Y-99841146D01*
X87380310Y-99982041D01*
X87592510Y-100127031D01*
X87844400Y-100178040D01*
X89244400Y-100178040D01*
X89389385Y-100150759D01*
X89368660Y-100253100D01*
X89368660Y-101722284D01*
X89330485Y-101738058D01*
X89039081Y-102028954D01*
X88881180Y-102409223D01*
X88880821Y-102820971D01*
X89038058Y-103201515D01*
X89328954Y-103492919D01*
X89643838Y-103623670D01*
X84767435Y-103623670D01*
X84652716Y-103508751D01*
X84272447Y-103350850D01*
X83860699Y-103350491D01*
X83480155Y-103507728D01*
X83188751Y-103798624D01*
X83181636Y-103815759D01*
X83137036Y-103771081D01*
X82756767Y-103613180D01*
X82705575Y-103613135D01*
X82822820Y-103330777D01*
X82823179Y-102919029D01*
X82665942Y-102538485D01*
X82375046Y-102247081D01*
X81994777Y-102089180D01*
X81583029Y-102088821D01*
X81202485Y-102246058D01*
X81086341Y-102362000D01*
X77978000Y-102362000D01*
X77686395Y-102420004D01*
X77439184Y-102585185D01*
X76169185Y-103855185D01*
X76004004Y-104102395D01*
X75946000Y-104394000D01*
X75946000Y-105156000D01*
X76004004Y-105447605D01*
X76135780Y-105644821D01*
X76169185Y-105694815D01*
X77551217Y-107076848D01*
X77400205Y-107076716D01*
X76799057Y-107325106D01*
X76453801Y-107669759D01*
X76111363Y-107326722D01*
X75510648Y-107077284D01*
X74860205Y-107076716D01*
X74259057Y-107325106D01*
X74192426Y-107391621D01*
X74108090Y-107260559D01*
X73895890Y-107115569D01*
X73644000Y-107064560D01*
X71644000Y-107064560D01*
X71408683Y-107108838D01*
X71192559Y-107247910D01*
X71047569Y-107460110D01*
X70996560Y-107712000D01*
X54160109Y-107712000D01*
X54116327Y-107606302D01*
X53937699Y-107427673D01*
X53803325Y-107372014D01*
X53997387Y-107300264D01*
X54223908Y-106690539D01*
X54199856Y-106040540D01*
X53997387Y-105551736D01*
X53730532Y-105453073D01*
X52757605Y-106426000D01*
X52771748Y-106440143D01*
X52592143Y-106619748D01*
X52578000Y-106605605D01*
X52563858Y-106619748D01*
X52384253Y-106440143D01*
X52398395Y-106426000D01*
X51425468Y-105453073D01*
X51158613Y-105551736D01*
X50932092Y-106161461D01*
X50927000Y-106161461D01*
X50927000Y-105273468D01*
X51605073Y-105273468D01*
X52578000Y-106246395D01*
X53550927Y-105273468D01*
X53452264Y-105006613D01*
X52842539Y-104780092D01*
X52192540Y-104804144D01*
X51703736Y-105006613D01*
X51605073Y-105273468D01*
X50927000Y-105273468D01*
X50927000Y-100854000D01*
X50930560Y-100854000D01*
X50930560Y-102854000D01*
X50974838Y-103089317D01*
X51113910Y-103305441D01*
X51326110Y-103450431D01*
X51578000Y-103501440D01*
X53578000Y-103501440D01*
X53813317Y-103457162D01*
X54029441Y-103318090D01*
X54174431Y-103105890D01*
X54225440Y-102854000D01*
X54225440Y-100854000D01*
X54181162Y-100618683D01*
X54042090Y-100402559D01*
X53899439Y-100305090D01*
X53963278Y-100241363D01*
X54212716Y-99640648D01*
X54213284Y-98990205D01*
X53964894Y-98389057D01*
X53505363Y-97928722D01*
X52904648Y-97679284D01*
X52254205Y-97678716D01*
X51653057Y-97927106D01*
X51192722Y-98386637D01*
X50943284Y-98987352D01*
X50942716Y-99637795D01*
X51191106Y-100238943D01*
X51257621Y-100305574D01*
X51126559Y-100389910D01*
X50981569Y-100602110D01*
X50930560Y-100854000D01*
X50927000Y-100854000D01*
X50927000Y-93742000D01*
X50930560Y-93742000D01*
X50930560Y-95742000D01*
X50974838Y-95977317D01*
X51113910Y-96193441D01*
X51326110Y-96338431D01*
X51578000Y-96389440D01*
X53578000Y-96389440D01*
X53813317Y-96345162D01*
X54029441Y-96206090D01*
X54136365Y-96049601D01*
X57785000Y-99698236D01*
X57785000Y-101854000D01*
X57852671Y-102194206D01*
X57942762Y-102329036D01*
X58045382Y-102482618D01*
X61601382Y-106038618D01*
X61889794Y-106231329D01*
X62230000Y-106299000D01*
X69088000Y-106299000D01*
X69428206Y-106231329D01*
X69716618Y-106038618D01*
X75674959Y-100080277D01*
X75867671Y-99791864D01*
X75935341Y-99451659D01*
X75935341Y-99180650D01*
X79691000Y-99180650D01*
X79691000Y-99771210D01*
X79787673Y-100004599D01*
X79966302Y-100183227D01*
X80199691Y-100279900D01*
X80740250Y-100279900D01*
X80899000Y-100121150D01*
X80899000Y-99021900D01*
X79849750Y-99021900D01*
X79691000Y-99180650D01*
X75935341Y-99180650D01*
X75935341Y-98462155D01*
X76031855Y-98422276D01*
X76323259Y-98131380D01*
X76481160Y-97751111D01*
X76481303Y-97587001D01*
X77040305Y-97028000D01*
X79680818Y-97028000D01*
X79722838Y-97251317D01*
X79861910Y-97467441D01*
X80028083Y-97580982D01*
X79966302Y-97606573D01*
X79787673Y-97785201D01*
X79691000Y-98018590D01*
X79691000Y-98609150D01*
X79849750Y-98767900D01*
X80899000Y-98767900D01*
X80899000Y-98747900D01*
X81153000Y-98747900D01*
X81153000Y-98767900D01*
X81173000Y-98767900D01*
X81173000Y-99021900D01*
X81153000Y-99021900D01*
X81153000Y-100121150D01*
X81311750Y-100279900D01*
X81852309Y-100279900D01*
X82056670Y-100195251D01*
X82124110Y-100241331D01*
X82376000Y-100292340D01*
X83776000Y-100292340D01*
X84011317Y-100248062D01*
X84196513Y-100128892D01*
X84355244Y-100194803D01*
X84806775Y-100195197D01*
X85224086Y-100022767D01*
X85543645Y-99703765D01*
X85716803Y-99286756D01*
X85717197Y-98835225D01*
X85544767Y-98417914D01*
X85225765Y-98098355D01*
X84808756Y-97925197D01*
X84382030Y-97924825D01*
X84379162Y-97909583D01*
X84240090Y-97693459D01*
X84073917Y-97579918D01*
X84135698Y-97554327D01*
X84314327Y-97375699D01*
X84411000Y-97142310D01*
X84411000Y-96551750D01*
X84252250Y-96393000D01*
X83203000Y-96393000D01*
X83203000Y-96413000D01*
X82949000Y-96413000D01*
X82949000Y-96393000D01*
X82929000Y-96393000D01*
X82929000Y-96139000D01*
X82949000Y-96139000D01*
X82949000Y-95039750D01*
X82905250Y-94996000D01*
X82949000Y-94952250D01*
X82949000Y-93853000D01*
X83203000Y-93853000D01*
X83203000Y-94952250D01*
X83246750Y-94996000D01*
X83203000Y-95039750D01*
X83203000Y-96139000D01*
X84252250Y-96139000D01*
X84411000Y-95980250D01*
X84411000Y-95389690D01*
X84314327Y-95156301D01*
X84154025Y-94996000D01*
X84314327Y-94835699D01*
X84411000Y-94602310D01*
X84411000Y-94011750D01*
X84252250Y-93853000D01*
X83203000Y-93853000D01*
X82949000Y-93853000D01*
X82929000Y-93853000D01*
X82929000Y-93599000D01*
X82949000Y-93599000D01*
X82949000Y-93579000D01*
X83203000Y-93579000D01*
X83203000Y-93599000D01*
X84252250Y-93599000D01*
X84258600Y-93592650D01*
X88061100Y-93592650D01*
X88061100Y-94133209D01*
X88157773Y-94366598D01*
X88336401Y-94545227D01*
X88569790Y-94641900D01*
X89160350Y-94641900D01*
X89319100Y-94483150D01*
X89319100Y-93433900D01*
X89573100Y-93433900D01*
X89573100Y-94483150D01*
X89731850Y-94641900D01*
X90322410Y-94641900D01*
X90555799Y-94545227D01*
X90734427Y-94366598D01*
X90831100Y-94133209D01*
X90831100Y-93592650D01*
X90672350Y-93433900D01*
X89573100Y-93433900D01*
X89319100Y-93433900D01*
X88219850Y-93433900D01*
X88061100Y-93592650D01*
X84258600Y-93592650D01*
X84411000Y-93440250D01*
X84411000Y-92849690D01*
X84314327Y-92616301D01*
X84249466Y-92551440D01*
X84842000Y-92551440D01*
X85077317Y-92507162D01*
X85293441Y-92368090D01*
X85438431Y-92155890D01*
X85489440Y-91904000D01*
X85489440Y-90556900D01*
X88048660Y-90556900D01*
X88048660Y-91956900D01*
X88092938Y-92192217D01*
X88146239Y-92275048D01*
X88061100Y-92480591D01*
X88061100Y-93021150D01*
X88219850Y-93179900D01*
X89319100Y-93179900D01*
X89319100Y-93159900D01*
X89573100Y-93159900D01*
X89573100Y-93179900D01*
X90672350Y-93179900D01*
X90831100Y-93021150D01*
X90831100Y-92480591D01*
X90746451Y-92276230D01*
X90792531Y-92208790D01*
X90830985Y-92018900D01*
X92845323Y-92018900D01*
X92848056Y-92025515D01*
X93138952Y-92316919D01*
X93519221Y-92474820D01*
X93930969Y-92475179D01*
X94311513Y-92317942D01*
X94602917Y-92027046D01*
X94760818Y-91646777D01*
X94761177Y-91235029D01*
X94603940Y-90854485D01*
X94313044Y-90563081D01*
X93932775Y-90405180D01*
X93521027Y-90404821D01*
X93303018Y-90494900D01*
X90831874Y-90494900D01*
X90799262Y-90321583D01*
X90660190Y-90105459D01*
X90447990Y-89960469D01*
X90196100Y-89909460D01*
X88696100Y-89909460D01*
X88460783Y-89953738D01*
X88244659Y-90092810D01*
X88099669Y-90305010D01*
X88048660Y-90556900D01*
X85489440Y-90556900D01*
X85489440Y-90504000D01*
X85445162Y-90268683D01*
X85391861Y-90185852D01*
X85477000Y-89980309D01*
X85477000Y-89439750D01*
X85318250Y-89281000D01*
X84219000Y-89281000D01*
X84219000Y-89301000D01*
X83965000Y-89301000D01*
X83965000Y-89281000D01*
X82169000Y-89281000D01*
X82169000Y-89301000D01*
X81915000Y-89301000D01*
X81915000Y-89281000D01*
X81895000Y-89281000D01*
X81895000Y-89027000D01*
X81915000Y-89027000D01*
X81915000Y-89007000D01*
X82169000Y-89007000D01*
X82169000Y-89027000D01*
X83965000Y-89027000D01*
X83965000Y-87977750D01*
X84219000Y-87977750D01*
X84219000Y-89027000D01*
X85318250Y-89027000D01*
X85477000Y-88868250D01*
X85477000Y-88327691D01*
X85380327Y-88094302D01*
X85201699Y-87915673D01*
X84968310Y-87819000D01*
X84377750Y-87819000D01*
X84219000Y-87977750D01*
X83965000Y-87977750D01*
X83806250Y-87819000D01*
X83215690Y-87819000D01*
X83102083Y-87866058D01*
X83101698Y-87865673D01*
X83070233Y-87852640D01*
X83076820Y-87836777D01*
X83076963Y-87672667D01*
X84358816Y-86390815D01*
X84457834Y-86242623D01*
X84523996Y-86143605D01*
X84582000Y-85852000D01*
X84582000Y-84013765D01*
X84696919Y-83899046D01*
X84854820Y-83518777D01*
X84855179Y-83107029D01*
X84697942Y-82726485D01*
X84407046Y-82435081D01*
X84026777Y-82277180D01*
X83615029Y-82276821D01*
X83234485Y-82434058D01*
X82943081Y-82724954D01*
X82931779Y-82752173D01*
X81877803Y-81698197D01*
X81837410Y-81671006D01*
X81788000Y-81661000D01*
X81332606Y-81661000D01*
X81153000Y-81481394D01*
X81153000Y-78486000D01*
X81143666Y-78438211D01*
X81115803Y-78396197D01*
X80140577Y-77420971D01*
X140442821Y-77420971D01*
X140600058Y-77801515D01*
X140890954Y-78092919D01*
X141271223Y-78250820D01*
X141682971Y-78251179D01*
X142063515Y-78093942D01*
X142179659Y-77978000D01*
X144402560Y-77978000D01*
X144402560Y-78216000D01*
X144446838Y-78451317D01*
X144585910Y-78667441D01*
X144728561Y-78764910D01*
X144664722Y-78828637D01*
X144415284Y-79429352D01*
X144414716Y-80079795D01*
X144663106Y-80680943D01*
X145089978Y-81108562D01*
X145077073Y-81143468D01*
X146050000Y-82116395D01*
X147022927Y-81143468D01*
X147009836Y-81108062D01*
X147435278Y-80683363D01*
X147684716Y-80082648D01*
X147685284Y-79432205D01*
X147436894Y-78831057D01*
X147370379Y-78764426D01*
X147501441Y-78680090D01*
X147646431Y-78467890D01*
X147697440Y-78216000D01*
X147697440Y-76216000D01*
X147653162Y-75980683D01*
X147514090Y-75764559D01*
X147301890Y-75619569D01*
X147050000Y-75568560D01*
X145050000Y-75568560D01*
X144814683Y-75612838D01*
X144598559Y-75751910D01*
X144453569Y-75964110D01*
X144402560Y-76216000D01*
X144402560Y-76454000D01*
X142179765Y-76454000D01*
X142065046Y-76339081D01*
X141684777Y-76181180D01*
X141273029Y-76180821D01*
X140892485Y-76338058D01*
X140601081Y-76628954D01*
X140443180Y-77009223D01*
X140442821Y-77420971D01*
X80140577Y-77420971D01*
X79591803Y-76872197D01*
X79554623Y-76846416D01*
X79552885Y-76846014D01*
X79551410Y-76845006D01*
X79528395Y-76840345D01*
X79505509Y-76835048D01*
X79503749Y-76835354D01*
X79502000Y-76835000D01*
X71882000Y-76835000D01*
X71834211Y-76844334D01*
X71792197Y-76872197D01*
X70268197Y-78396197D01*
X70241006Y-78436590D01*
X70231000Y-78486000D01*
X70231000Y-81481394D01*
X69760197Y-81952197D01*
X69733006Y-81992590D01*
X69723000Y-82042000D01*
X69723000Y-83005394D01*
X68998197Y-83730197D01*
X68971006Y-83770590D01*
X68961000Y-83820000D01*
X68961000Y-86053394D01*
X68415803Y-85508197D01*
X68375410Y-85481006D01*
X68326000Y-85471000D01*
X62484000Y-85471000D01*
X62413553Y-85492330D01*
X60159548Y-86995000D01*
X59944000Y-86995000D01*
X59897841Y-87003685D01*
X59855447Y-87030965D01*
X59827006Y-87072590D01*
X59817000Y-87122000D01*
X59817000Y-101600000D01*
X59824370Y-101642633D01*
X59850381Y-101685817D01*
X60810989Y-102733753D01*
X59563000Y-101485764D01*
X59563000Y-99330000D01*
X59495329Y-98989794D01*
X59302618Y-98701382D01*
X54714618Y-94113382D01*
X54562515Y-94011750D01*
X54426206Y-93920671D01*
X54225440Y-93880736D01*
X54225440Y-93742000D01*
X54181162Y-93506683D01*
X54042090Y-93290559D01*
X53899439Y-93193090D01*
X53963278Y-93129363D01*
X54212716Y-92528648D01*
X54213284Y-91878205D01*
X53964894Y-91277057D01*
X53505363Y-90816722D01*
X52904648Y-90567284D01*
X52254205Y-90566716D01*
X51653057Y-90815106D01*
X51192722Y-91274637D01*
X50943284Y-91875352D01*
X50942716Y-92525795D01*
X51191106Y-93126943D01*
X51257621Y-93193574D01*
X51126559Y-93277910D01*
X50981569Y-93490110D01*
X50930560Y-93742000D01*
X50927000Y-93742000D01*
X50927000Y-86630000D01*
X50930560Y-86630000D01*
X50930560Y-88630000D01*
X50974838Y-88865317D01*
X51113910Y-89081441D01*
X51326110Y-89226431D01*
X51578000Y-89277440D01*
X53578000Y-89277440D01*
X53813317Y-89233162D01*
X54029441Y-89094090D01*
X54174431Y-88881890D01*
X54225440Y-88630000D01*
X54225440Y-86630000D01*
X54181162Y-86394683D01*
X54042090Y-86178559D01*
X53899439Y-86081090D01*
X53963278Y-86017363D01*
X54212716Y-85416648D01*
X54213284Y-84766205D01*
X53964894Y-84165057D01*
X53505363Y-83704722D01*
X52904648Y-83455284D01*
X52254205Y-83454716D01*
X51653057Y-83703106D01*
X51192722Y-84162637D01*
X50943284Y-84763352D01*
X50942716Y-85413795D01*
X51191106Y-86014943D01*
X51257621Y-86081574D01*
X51126559Y-86165910D01*
X50981569Y-86378110D01*
X50930560Y-86630000D01*
X50927000Y-86630000D01*
X50927000Y-79518000D01*
X50930560Y-79518000D01*
X50930560Y-81518000D01*
X50974838Y-81753317D01*
X51113910Y-81969441D01*
X51326110Y-82114431D01*
X51578000Y-82165440D01*
X53578000Y-82165440D01*
X53813317Y-82121162D01*
X54029441Y-81982090D01*
X54174431Y-81769890D01*
X54225440Y-81518000D01*
X54225440Y-79518000D01*
X54181162Y-79282683D01*
X54042090Y-79066559D01*
X53899439Y-78969090D01*
X53963278Y-78905363D01*
X54212716Y-78304648D01*
X54213284Y-77654205D01*
X53964894Y-77053057D01*
X53505363Y-76592722D01*
X52904648Y-76343284D01*
X52254205Y-76342716D01*
X51653057Y-76591106D01*
X51192722Y-77050637D01*
X50943284Y-77651352D01*
X50942716Y-78301795D01*
X51191106Y-78902943D01*
X51257621Y-78969574D01*
X51126559Y-79053910D01*
X50981569Y-79266110D01*
X50930560Y-79518000D01*
X50927000Y-79518000D01*
X50927000Y-72406000D01*
X50930560Y-72406000D01*
X50930560Y-74406000D01*
X50974838Y-74641317D01*
X51113910Y-74857441D01*
X51326110Y-75002431D01*
X51578000Y-75053440D01*
X53578000Y-75053440D01*
X53813317Y-75009162D01*
X54029441Y-74870090D01*
X54174431Y-74657890D01*
X54225440Y-74406000D01*
X54225440Y-72406000D01*
X54181162Y-72170683D01*
X54042090Y-71954559D01*
X53899439Y-71857090D01*
X53963278Y-71793363D01*
X54212716Y-71192648D01*
X54213284Y-70542205D01*
X53964894Y-69941057D01*
X53505363Y-69480722D01*
X53220135Y-69362285D01*
X67448760Y-69362285D01*
X67659169Y-69871515D01*
X67699000Y-69911415D01*
X67699000Y-71882000D01*
X67785397Y-72316346D01*
X67977042Y-72603162D01*
X68031434Y-72684566D01*
X71587434Y-76240566D01*
X71955654Y-76486603D01*
X72390000Y-76573000D01*
X103886000Y-76573000D01*
X104320346Y-76486603D01*
X104688566Y-76240566D01*
X110929132Y-70000000D01*
X115908560Y-70000000D01*
X115908560Y-72000000D01*
X115952838Y-72235317D01*
X116091910Y-72451441D01*
X116304110Y-72596431D01*
X116556000Y-72647440D01*
X116967000Y-72647440D01*
X116967000Y-75388048D01*
X116821180Y-75739223D01*
X116820821Y-76150971D01*
X116978058Y-76531515D01*
X117268954Y-76822919D01*
X117649223Y-76980820D01*
X118060971Y-76981179D01*
X118441515Y-76823942D01*
X118732919Y-76533046D01*
X118890820Y-76152777D01*
X118891179Y-75741029D01*
X118745000Y-75387248D01*
X118745000Y-72647440D01*
X120556000Y-72647440D01*
X120791317Y-72603162D01*
X121007441Y-72464090D01*
X121152431Y-72251890D01*
X121203440Y-72000000D01*
X121203440Y-70000000D01*
X121496560Y-70000000D01*
X121496560Y-72000000D01*
X121540838Y-72235317D01*
X121679910Y-72451441D01*
X121892110Y-72596431D01*
X122144000Y-72647440D01*
X126144000Y-72647440D01*
X126379317Y-72603162D01*
X126595441Y-72464090D01*
X126740431Y-72251890D01*
X126791440Y-72000000D01*
X126791440Y-70000000D01*
X127084560Y-70000000D01*
X127084560Y-72000000D01*
X127128838Y-72235317D01*
X127267910Y-72451441D01*
X127480110Y-72596431D01*
X127732000Y-72647440D01*
X131732000Y-72647440D01*
X131967317Y-72603162D01*
X132183441Y-72464090D01*
X132328431Y-72251890D01*
X132379440Y-72000000D01*
X132379440Y-70000000D01*
X132672560Y-70000000D01*
X132672560Y-72000000D01*
X132716838Y-72235317D01*
X132855910Y-72451441D01*
X133068110Y-72596431D01*
X133320000Y-72647440D01*
X137320000Y-72647440D01*
X137555317Y-72603162D01*
X137771441Y-72464090D01*
X137916431Y-72251890D01*
X137967440Y-72000000D01*
X137967440Y-71285750D01*
X138273000Y-71285750D01*
X138273000Y-72126310D01*
X138369673Y-72359699D01*
X138548302Y-72538327D01*
X138781691Y-72635000D01*
X140622250Y-72635000D01*
X140781000Y-72476250D01*
X140781000Y-71127000D01*
X141035000Y-71127000D01*
X141035000Y-72476250D01*
X141193750Y-72635000D01*
X143034309Y-72635000D01*
X143267698Y-72538327D01*
X143446327Y-72359699D01*
X143543000Y-72126310D01*
X143543000Y-71285750D01*
X143384250Y-71127000D01*
X141035000Y-71127000D01*
X140781000Y-71127000D01*
X138431750Y-71127000D01*
X138273000Y-71285750D01*
X137967440Y-71285750D01*
X137967440Y-70000000D01*
X137943674Y-69873690D01*
X138273000Y-69873690D01*
X138273000Y-70714250D01*
X138431750Y-70873000D01*
X140781000Y-70873000D01*
X140781000Y-69523750D01*
X141035000Y-69523750D01*
X141035000Y-70873000D01*
X143384250Y-70873000D01*
X143543000Y-70714250D01*
X143543000Y-69873690D01*
X143446327Y-69640301D01*
X143267698Y-69461673D01*
X143034309Y-69365000D01*
X141193750Y-69365000D01*
X141035000Y-69523750D01*
X140781000Y-69523750D01*
X140622250Y-69365000D01*
X138781691Y-69365000D01*
X138548302Y-69461673D01*
X138369673Y-69640301D01*
X138273000Y-69873690D01*
X137943674Y-69873690D01*
X137923162Y-69764683D01*
X137784090Y-69548559D01*
X137571890Y-69403569D01*
X137320000Y-69352560D01*
X133320000Y-69352560D01*
X133084683Y-69396838D01*
X132868559Y-69535910D01*
X132723569Y-69748110D01*
X132672560Y-70000000D01*
X132379440Y-70000000D01*
X132335162Y-69764683D01*
X132196090Y-69548559D01*
X131983890Y-69403569D01*
X131732000Y-69352560D01*
X127732000Y-69352560D01*
X127496683Y-69396838D01*
X127280559Y-69535910D01*
X127135569Y-69748110D01*
X127084560Y-70000000D01*
X126791440Y-70000000D01*
X126747162Y-69764683D01*
X126608090Y-69548559D01*
X126395890Y-69403569D01*
X126144000Y-69352560D01*
X122144000Y-69352560D01*
X121908683Y-69396838D01*
X121692559Y-69535910D01*
X121547569Y-69748110D01*
X121496560Y-70000000D01*
X121203440Y-70000000D01*
X121159162Y-69764683D01*
X121020090Y-69548559D01*
X120807890Y-69403569D01*
X120556000Y-69352560D01*
X116556000Y-69352560D01*
X116320683Y-69396838D01*
X116104559Y-69535910D01*
X115959569Y-69748110D01*
X115908560Y-70000000D01*
X110929132Y-70000000D01*
X113510366Y-67418766D01*
X117081300Y-67418766D01*
X117515646Y-67332369D01*
X117883866Y-67086332D01*
X118129903Y-66718112D01*
X118216300Y-66283766D01*
X118216300Y-66046449D01*
X118678393Y-65585161D01*
X118965972Y-64892595D01*
X118965974Y-64889305D01*
X120275974Y-64889305D01*
X120562343Y-65582372D01*
X121092139Y-66113093D01*
X121784705Y-66400672D01*
X122534605Y-66401326D01*
X123227672Y-66114957D01*
X123758393Y-65585161D01*
X124045972Y-64892595D01*
X124046626Y-64142695D01*
X123760257Y-63449628D01*
X123230461Y-62918907D01*
X122537895Y-62631328D01*
X121787995Y-62630674D01*
X121094928Y-62917043D01*
X120564207Y-63446839D01*
X120276628Y-64139405D01*
X120275974Y-64889305D01*
X118965974Y-64889305D01*
X118966626Y-64142695D01*
X118680257Y-63449628D01*
X118150461Y-62918907D01*
X117457895Y-62631328D01*
X116707995Y-62630674D01*
X116014928Y-62917043D01*
X115484207Y-63446839D01*
X115196628Y-64139405D01*
X115195974Y-64889305D01*
X115303181Y-65148766D01*
X113040234Y-65148766D01*
X112605888Y-65235163D01*
X112598429Y-65240147D01*
X112645440Y-65008000D01*
X112645440Y-63008000D01*
X112601162Y-62772683D01*
X112462090Y-62556559D01*
X112249890Y-62411569D01*
X111998000Y-62360560D01*
X109998000Y-62360560D01*
X109762683Y-62404838D01*
X109546559Y-62543910D01*
X109401569Y-62756110D01*
X109398958Y-62769002D01*
X109332264Y-62588613D01*
X108722539Y-62362092D01*
X108072540Y-62386144D01*
X107583736Y-62588613D01*
X107485073Y-62855468D01*
X108458000Y-63828395D01*
X108472143Y-63814253D01*
X108651748Y-63993858D01*
X108637605Y-64008000D01*
X108651748Y-64022143D01*
X108472143Y-64201748D01*
X108458000Y-64187605D01*
X107485073Y-65160532D01*
X107583736Y-65427387D01*
X108193461Y-65653908D01*
X108843460Y-65629856D01*
X109332264Y-65427387D01*
X109398319Y-65248727D01*
X109533910Y-65459441D01*
X109746110Y-65604431D01*
X109998000Y-65655440D01*
X111998000Y-65655440D01*
X112078593Y-65640275D01*
X103415868Y-74303000D01*
X94578345Y-74303000D01*
X96306566Y-72574779D01*
X96552603Y-72206559D01*
X96566638Y-72136000D01*
X96639000Y-71772213D01*
X96639000Y-71535204D01*
X96889278Y-71285363D01*
X97138716Y-70684648D01*
X97139284Y-70034205D01*
X96890894Y-69433057D01*
X96431363Y-68972722D01*
X95830648Y-68723284D01*
X95180205Y-68722716D01*
X94579057Y-68971106D01*
X94512426Y-69037621D01*
X94428090Y-68906559D01*
X94215890Y-68761569D01*
X93964000Y-68710560D01*
X91964000Y-68710560D01*
X91728683Y-68754838D01*
X91512559Y-68893910D01*
X91367569Y-69106110D01*
X91343898Y-69223000D01*
X90424006Y-69223000D01*
X89989660Y-69309397D01*
X89650660Y-69535910D01*
X89621440Y-69555434D01*
X88172067Y-71004807D01*
X88117721Y-71004760D01*
X87608491Y-71215169D01*
X87218545Y-71604436D01*
X87007247Y-72113298D01*
X87007039Y-72352003D01*
X86982889Y-72327853D01*
X86983240Y-71925915D01*
X86772831Y-71416685D01*
X86383564Y-71026739D01*
X86131188Y-70921944D01*
X90464566Y-66588566D01*
X90512261Y-66517185D01*
X90710603Y-66220346D01*
X90797000Y-65786000D01*
X90797000Y-64331795D01*
X104282716Y-64331795D01*
X104531106Y-64932943D01*
X104990637Y-65393278D01*
X105591352Y-65642716D01*
X106241795Y-65643284D01*
X106842943Y-65394894D01*
X107270562Y-64968022D01*
X107305468Y-64980927D01*
X108278395Y-64008000D01*
X107305468Y-63035073D01*
X107270062Y-63048164D01*
X106845363Y-62622722D01*
X106244648Y-62373284D01*
X105594205Y-62372716D01*
X104993057Y-62621106D01*
X104532722Y-63080637D01*
X104283284Y-63681352D01*
X104282716Y-64331795D01*
X90797000Y-64331795D01*
X90797000Y-60767958D01*
X90835461Y-60729564D01*
X91046759Y-60220702D01*
X91047240Y-59669715D01*
X90836831Y-59160485D01*
X90447564Y-58770539D01*
X89938702Y-58559241D01*
X89387715Y-58558760D01*
X88878485Y-58769169D01*
X88488539Y-59158436D01*
X88277241Y-59667298D01*
X88276760Y-60218285D01*
X88487169Y-60727515D01*
X88527000Y-60767415D01*
X88527000Y-65315868D01*
X85213440Y-68629428D01*
X85213440Y-65502000D01*
X85169162Y-65266683D01*
X85030090Y-65050559D01*
X84817890Y-64905569D01*
X84566000Y-64854560D01*
X82566000Y-64854560D01*
X82330683Y-64898838D01*
X82114559Y-65037910D01*
X81969569Y-65250110D01*
X81918560Y-65502000D01*
X81918560Y-65946000D01*
X81667440Y-65946000D01*
X81667440Y-65708000D01*
X81623162Y-65472683D01*
X81484090Y-65256559D01*
X81271890Y-65111569D01*
X81020000Y-65060560D01*
X80270000Y-65060560D01*
X80034683Y-65104838D01*
X80002762Y-65125379D01*
X79876309Y-65073000D01*
X79660750Y-65073000D01*
X79502000Y-65231750D01*
X79502000Y-66581000D01*
X79522000Y-66581000D01*
X79522000Y-66835000D01*
X79502000Y-66835000D01*
X79502000Y-66855000D01*
X79248000Y-66855000D01*
X79248000Y-66835000D01*
X79228000Y-66835000D01*
X79228000Y-66581000D01*
X79248000Y-66581000D01*
X79248000Y-65231750D01*
X79089250Y-65073000D01*
X78873691Y-65073000D01*
X78750266Y-65124125D01*
X78731890Y-65111569D01*
X78480000Y-65060560D01*
X77730000Y-65060560D01*
X77494683Y-65104838D01*
X77472721Y-65118970D01*
X77461890Y-65111569D01*
X77210000Y-65060560D01*
X76460000Y-65060560D01*
X76224683Y-65104838D01*
X76008559Y-65243910D01*
X75863569Y-65456110D01*
X75848082Y-65532589D01*
X75673890Y-65413569D01*
X75422000Y-65362560D01*
X73422000Y-65362560D01*
X73186683Y-65406838D01*
X72970559Y-65545910D01*
X72825569Y-65758110D01*
X72774560Y-66010000D01*
X72774560Y-70010000D01*
X72818838Y-70245317D01*
X72829905Y-70262515D01*
X72436399Y-70425107D01*
X72294831Y-70082485D01*
X71905564Y-69692539D01*
X71396702Y-69481241D01*
X70845715Y-69480760D01*
X70336485Y-69691169D01*
X69969000Y-70058014D01*
X69969000Y-69911958D01*
X70007461Y-69873564D01*
X70218759Y-69364702D01*
X70219240Y-68813715D01*
X70008831Y-68304485D01*
X69619564Y-67914539D01*
X69110702Y-67703241D01*
X68559715Y-67702760D01*
X68050485Y-67913169D01*
X67660539Y-68302436D01*
X67449241Y-68811298D01*
X67448760Y-69362285D01*
X53220135Y-69362285D01*
X52904648Y-69231284D01*
X52254205Y-69230716D01*
X51653057Y-69479106D01*
X51192722Y-69938637D01*
X50943284Y-70539352D01*
X50942716Y-71189795D01*
X51191106Y-71790943D01*
X51257621Y-71857574D01*
X51126559Y-71941910D01*
X50981569Y-72154110D01*
X50930560Y-72406000D01*
X50927000Y-72406000D01*
X50927000Y-64634128D01*
X53458570Y-64634128D01*
X53836091Y-65547800D01*
X54534523Y-66247452D01*
X55447534Y-66626568D01*
X56436128Y-66627430D01*
X57349800Y-66249909D01*
X58049452Y-65551477D01*
X58133132Y-65349953D01*
X58733041Y-65950909D01*
X59517459Y-66276628D01*
X60366815Y-66277370D01*
X61151800Y-65953020D01*
X61752909Y-65352959D01*
X62078628Y-64568541D01*
X62079370Y-63719185D01*
X61755020Y-62934200D01*
X61154959Y-62333091D01*
X60370541Y-62007372D01*
X59521185Y-62006630D01*
X58736200Y-62330980D01*
X58135091Y-62931041D01*
X58133750Y-62934271D01*
X58051909Y-62736200D01*
X57353477Y-62036548D01*
X56440466Y-61657432D01*
X55451872Y-61656570D01*
X54538200Y-62034091D01*
X53838548Y-62732523D01*
X53459432Y-63645534D01*
X53458570Y-64634128D01*
X50927000Y-64634128D01*
X50927000Y-59721750D01*
X52259000Y-59721750D01*
X52259000Y-60312310D01*
X52355673Y-60545699D01*
X52534302Y-60724327D01*
X52767691Y-60821000D01*
X53308250Y-60821000D01*
X53467000Y-60662250D01*
X53467000Y-59563000D01*
X52417750Y-59563000D01*
X52259000Y-59721750D01*
X50927000Y-59721750D01*
X50927000Y-58559690D01*
X52259000Y-58559690D01*
X52259000Y-59150250D01*
X52417750Y-59309000D01*
X53467000Y-59309000D01*
X53467000Y-58209750D01*
X53308250Y-58051000D01*
X52767691Y-58051000D01*
X52534302Y-58147673D01*
X52355673Y-58326301D01*
X52259000Y-58559690D01*
X50927000Y-58559690D01*
X50927000Y-56165750D01*
X52175000Y-56165750D01*
X52175000Y-56506309D01*
X52271673Y-56739698D01*
X52450301Y-56918327D01*
X52683690Y-57015000D01*
X53224250Y-57015000D01*
X53383000Y-56856250D01*
X53383000Y-56007000D01*
X52333750Y-56007000D01*
X52175000Y-56165750D01*
X50927000Y-56165750D01*
X50927000Y-55253691D01*
X52175000Y-55253691D01*
X52175000Y-55594250D01*
X52333750Y-55753000D01*
X53383000Y-55753000D01*
X53383000Y-54903750D01*
X53224250Y-54745000D01*
X52683690Y-54745000D01*
X52450301Y-54841673D01*
X52271673Y-55020302D01*
X52175000Y-55253691D01*
X50927000Y-55253691D01*
X50927000Y-52609750D01*
X52259000Y-52609750D01*
X52259000Y-53200310D01*
X52355673Y-53433699D01*
X52534302Y-53612327D01*
X52767691Y-53709000D01*
X53308250Y-53709000D01*
X53467000Y-53550250D01*
X53467000Y-52451000D01*
X52417750Y-52451000D01*
X52259000Y-52609750D01*
X50927000Y-52609750D01*
X50927000Y-51447690D01*
X52259000Y-51447690D01*
X52259000Y-52038250D01*
X52417750Y-52197000D01*
X53467000Y-52197000D01*
X53467000Y-51097750D01*
X53308250Y-50939000D01*
X52767691Y-50939000D01*
X52534302Y-51035673D01*
X52355673Y-51214301D01*
X52259000Y-51447690D01*
X50927000Y-51447690D01*
X50927000Y-49634128D01*
X53458570Y-49634128D01*
X53836091Y-50547800D01*
X54226609Y-50939000D01*
X53879750Y-50939000D01*
X53721000Y-51097750D01*
X53721000Y-52197000D01*
X53741000Y-52197000D01*
X53741000Y-52451000D01*
X53721000Y-52451000D01*
X53721000Y-53550250D01*
X53879750Y-53709000D01*
X54420309Y-53709000D01*
X54624670Y-53624351D01*
X54692110Y-53670431D01*
X54836000Y-53699569D01*
X54836000Y-53815300D01*
X54774683Y-53826838D01*
X54558559Y-53965910D01*
X54413569Y-54178110D01*
X54362560Y-54430000D01*
X54362560Y-54755873D01*
X54336310Y-54745000D01*
X53795750Y-54745000D01*
X53637000Y-54903750D01*
X53637000Y-55753000D01*
X53657000Y-55753000D01*
X53657000Y-56007000D01*
X53637000Y-56007000D01*
X53637000Y-56856250D01*
X53795750Y-57015000D01*
X54336310Y-57015000D01*
X54362560Y-57004127D01*
X54362560Y-57330000D01*
X54406838Y-57565317D01*
X54545910Y-57781441D01*
X54758110Y-57926431D01*
X54902000Y-57955569D01*
X54902000Y-58046463D01*
X54708683Y-58082838D01*
X54625852Y-58136139D01*
X54420309Y-58051000D01*
X53879750Y-58051000D01*
X53721000Y-58209750D01*
X53721000Y-59309000D01*
X53741000Y-59309000D01*
X53741000Y-59563000D01*
X53721000Y-59563000D01*
X53721000Y-60662250D01*
X53879750Y-60821000D01*
X54420309Y-60821000D01*
X54624670Y-60736351D01*
X54692110Y-60782431D01*
X54944000Y-60833440D01*
X56344000Y-60833440D01*
X56579317Y-60789162D01*
X56795441Y-60650090D01*
X56940431Y-60437890D01*
X56991440Y-60186000D01*
X56991440Y-59599460D01*
X57078794Y-59686814D01*
X57193074Y-59572534D01*
X57291736Y-59839387D01*
X57901461Y-60065908D01*
X58551460Y-60041856D01*
X59040264Y-59839387D01*
X59138927Y-59572532D01*
X58166000Y-58599605D01*
X58151858Y-58613748D01*
X57972253Y-58434143D01*
X57986395Y-58420000D01*
X57972253Y-58405858D01*
X58151858Y-58226253D01*
X58166000Y-58240395D01*
X58180143Y-58226253D01*
X58359748Y-58405858D01*
X58345605Y-58420000D01*
X59318532Y-59392927D01*
X59585387Y-59294264D01*
X59811908Y-58684539D01*
X59796823Y-58276873D01*
X60087124Y-58277126D01*
X60086716Y-58743795D01*
X60335106Y-59344943D01*
X60794637Y-59805278D01*
X61395352Y-60054716D01*
X62045795Y-60055284D01*
X62646943Y-59806894D01*
X63107278Y-59347363D01*
X63356716Y-58746648D01*
X63357284Y-58096205D01*
X63108894Y-57495057D01*
X63009922Y-57395912D01*
X63047209Y-57388495D01*
X63309342Y-57213342D01*
X64250685Y-56271999D01*
X76041051Y-56271999D01*
X77632000Y-57862949D01*
X77632000Y-59138316D01*
X77533658Y-59236658D01*
X77358505Y-59498791D01*
X77358505Y-59498792D01*
X77321823Y-59683205D01*
X77210000Y-59660560D01*
X76460000Y-59660560D01*
X76224683Y-59704838D01*
X76115440Y-59775134D01*
X76115440Y-58436000D01*
X76071162Y-58200683D01*
X75932090Y-57984559D01*
X75719890Y-57839569D01*
X75468000Y-57788560D01*
X71468000Y-57788560D01*
X71232683Y-57832838D01*
X71016559Y-57971910D01*
X70871569Y-58184110D01*
X70820560Y-58436000D01*
X70820560Y-60436000D01*
X70864838Y-60671317D01*
X71003910Y-60887441D01*
X71216110Y-61032431D01*
X71468000Y-61083440D01*
X73360000Y-61083440D01*
X73360000Y-62484000D01*
X73421505Y-62793209D01*
X73596658Y-63055342D01*
X74612658Y-64071342D01*
X74874791Y-64246495D01*
X75184000Y-64308000D01*
X77470000Y-64308000D01*
X77779209Y-64246495D01*
X78041342Y-64071342D01*
X78676343Y-63436342D01*
X78811853Y-63233537D01*
X79649658Y-64071343D01*
X79911792Y-64246495D01*
X80221000Y-64308000D01*
X82296000Y-64308000D01*
X82605209Y-64246495D01*
X82867342Y-64071342D01*
X83883342Y-63055342D01*
X84058495Y-62793209D01*
X84120000Y-62484000D01*
X84120000Y-61083440D01*
X86012000Y-61083440D01*
X86247317Y-61039162D01*
X86463441Y-60900090D01*
X86608431Y-60687890D01*
X86659440Y-60436000D01*
X86659440Y-58436000D01*
X86615162Y-58200683D01*
X86476090Y-57984559D01*
X86263890Y-57839569D01*
X86012000Y-57788560D01*
X82012000Y-57788560D01*
X81776683Y-57832838D01*
X81560559Y-57971910D01*
X81415569Y-58184110D01*
X81364560Y-58436000D01*
X81364560Y-59774888D01*
X81271890Y-59711569D01*
X81020000Y-59660560D01*
X80270000Y-59660560D01*
X80157869Y-59681659D01*
X80121495Y-59498792D01*
X80050758Y-59392927D01*
X79946343Y-59236658D01*
X79848000Y-59138315D01*
X79848000Y-57279736D01*
X79786495Y-56970528D01*
X79785239Y-56968648D01*
X79611343Y-56708394D01*
X77991724Y-55088775D01*
X132976803Y-55088775D01*
X133149233Y-55506086D01*
X133468235Y-55825645D01*
X133885244Y-55998803D01*
X134336775Y-55999197D01*
X134699469Y-55849334D01*
X134509284Y-56307352D01*
X134508716Y-56957795D01*
X134757106Y-57558943D01*
X135216637Y-58019278D01*
X135817352Y-58268716D01*
X136467795Y-58269284D01*
X137068943Y-58020894D01*
X137075407Y-58014442D01*
X137049284Y-58077352D01*
X137048716Y-58727795D01*
X137297106Y-59328943D01*
X137756637Y-59789278D01*
X138357352Y-60038716D01*
X139007795Y-60039284D01*
X139608943Y-59790894D01*
X139843715Y-59556532D01*
X140251073Y-59556532D01*
X140349736Y-59823387D01*
X140959461Y-60049908D01*
X141609460Y-60025856D01*
X142098264Y-59823387D01*
X142196927Y-59556532D01*
X141224000Y-58583605D01*
X140251073Y-59556532D01*
X139843715Y-59556532D01*
X140036562Y-59364022D01*
X140071468Y-59376927D01*
X141044395Y-58404000D01*
X141030253Y-58389858D01*
X141209858Y-58210253D01*
X141224000Y-58224395D01*
X141238143Y-58210253D01*
X141417748Y-58389858D01*
X141403605Y-58404000D01*
X142376532Y-59376927D01*
X142643387Y-59278264D01*
X142869908Y-58668539D01*
X142845856Y-58018540D01*
X142783631Y-57868315D01*
X143078658Y-58163342D01*
X143340791Y-58338495D01*
X143408726Y-58352008D01*
X143531910Y-58543441D01*
X143700000Y-58658292D01*
X143700000Y-59074882D01*
X143572683Y-59098838D01*
X143356559Y-59237910D01*
X143211569Y-59450110D01*
X143160560Y-59702000D01*
X143160560Y-61202000D01*
X143204838Y-61437317D01*
X143343910Y-61653441D01*
X143383920Y-61680779D01*
X142548200Y-62026091D01*
X141848548Y-62724523D01*
X141764868Y-62926047D01*
X141164959Y-62325091D01*
X140380541Y-61999372D01*
X139531185Y-61998630D01*
X138746200Y-62322980D01*
X138145091Y-62923041D01*
X137819372Y-63707459D01*
X137818630Y-64556815D01*
X138142980Y-65341800D01*
X138743041Y-65942909D01*
X139527459Y-66268628D01*
X140376815Y-66269370D01*
X141161800Y-65945020D01*
X141762909Y-65344959D01*
X141764250Y-65341729D01*
X141846091Y-65539800D01*
X142544523Y-66239452D01*
X143457534Y-66618568D01*
X144446128Y-66619430D01*
X145359800Y-66241909D01*
X146059452Y-65543477D01*
X146438568Y-64630466D01*
X146439430Y-63641872D01*
X146061909Y-62728200D01*
X145363477Y-62028548D01*
X144932138Y-61849440D01*
X145208000Y-61849440D01*
X145443317Y-61805162D01*
X145526148Y-61751861D01*
X145731691Y-61837000D01*
X146272250Y-61837000D01*
X146431000Y-61678250D01*
X146431000Y-60579000D01*
X146685000Y-60579000D01*
X146685000Y-61678250D01*
X146843750Y-61837000D01*
X147384309Y-61837000D01*
X147617698Y-61740327D01*
X147796327Y-61561699D01*
X147893000Y-61328310D01*
X147893000Y-60737750D01*
X147734250Y-60579000D01*
X146685000Y-60579000D01*
X146431000Y-60579000D01*
X146411000Y-60579000D01*
X146411000Y-60325000D01*
X146431000Y-60325000D01*
X146431000Y-59225750D01*
X146685000Y-59225750D01*
X146685000Y-60325000D01*
X147734250Y-60325000D01*
X147893000Y-60166250D01*
X147893000Y-59575690D01*
X147796327Y-59342301D01*
X147617698Y-59163673D01*
X147384309Y-59067000D01*
X146843750Y-59067000D01*
X146685000Y-59225750D01*
X146431000Y-59225750D01*
X146272250Y-59067000D01*
X145731691Y-59067000D01*
X145527330Y-59151649D01*
X145459890Y-59105569D01*
X145316000Y-59076431D01*
X145316000Y-58739440D01*
X145396000Y-58739440D01*
X145631317Y-58695162D01*
X145847441Y-58556090D01*
X145992431Y-58343890D01*
X146043440Y-58092000D01*
X146043440Y-57766127D01*
X146069690Y-57777000D01*
X146610250Y-57777000D01*
X146769000Y-57618250D01*
X146769000Y-56769000D01*
X147023000Y-56769000D01*
X147023000Y-57618250D01*
X147181750Y-57777000D01*
X147722310Y-57777000D01*
X147955699Y-57680327D01*
X148134327Y-57501698D01*
X148231000Y-57268309D01*
X148231000Y-56927750D01*
X148072250Y-56769000D01*
X147023000Y-56769000D01*
X146769000Y-56769000D01*
X146749000Y-56769000D01*
X146749000Y-56515000D01*
X146769000Y-56515000D01*
X146769000Y-55665750D01*
X147023000Y-55665750D01*
X147023000Y-56515000D01*
X148072250Y-56515000D01*
X148231000Y-56356250D01*
X148231000Y-56015691D01*
X148134327Y-55782302D01*
X147955699Y-55603673D01*
X147722310Y-55507000D01*
X147181750Y-55507000D01*
X147023000Y-55665750D01*
X146769000Y-55665750D01*
X146610250Y-55507000D01*
X146069690Y-55507000D01*
X146043440Y-55517873D01*
X146043440Y-55192000D01*
X145999162Y-54956683D01*
X145860090Y-54740559D01*
X145647890Y-54595569D01*
X145396000Y-54544560D01*
X145316000Y-54544560D01*
X145316000Y-54463118D01*
X145443317Y-54439162D01*
X145526148Y-54385861D01*
X145731691Y-54471000D01*
X146272250Y-54471000D01*
X146431000Y-54312250D01*
X146431000Y-53213000D01*
X146685000Y-53213000D01*
X146685000Y-54312250D01*
X146843750Y-54471000D01*
X147384309Y-54471000D01*
X147617698Y-54374327D01*
X147796327Y-54195699D01*
X147893000Y-53962310D01*
X147893000Y-53371750D01*
X147734250Y-53213000D01*
X146685000Y-53213000D01*
X146431000Y-53213000D01*
X146411000Y-53213000D01*
X146411000Y-52959000D01*
X146431000Y-52959000D01*
X146431000Y-51859750D01*
X146685000Y-51859750D01*
X146685000Y-52959000D01*
X147734250Y-52959000D01*
X147893000Y-52800250D01*
X147893000Y-52209690D01*
X147796327Y-51976301D01*
X147617698Y-51797673D01*
X147384309Y-51701000D01*
X146843750Y-51701000D01*
X146685000Y-51859750D01*
X146431000Y-51859750D01*
X146272250Y-51701000D01*
X145731691Y-51701000D01*
X145527330Y-51785649D01*
X145459890Y-51739569D01*
X145208000Y-51688560D01*
X143808000Y-51688560D01*
X143572683Y-51732838D01*
X143356559Y-51871910D01*
X143211569Y-52084110D01*
X143160560Y-52336000D01*
X143160560Y-53836000D01*
X143204838Y-54071317D01*
X143343910Y-54287441D01*
X143556110Y-54432431D01*
X143700000Y-54461569D01*
X143700000Y-54627886D01*
X143544559Y-54727910D01*
X143437907Y-54884000D01*
X142858984Y-54884000D01*
X142859284Y-54540205D01*
X142610894Y-53939057D01*
X142151363Y-53478722D01*
X141550648Y-53229284D01*
X140900205Y-53228716D01*
X140299057Y-53477106D01*
X139953801Y-53821759D01*
X139611363Y-53478722D01*
X139010648Y-53229284D01*
X138360205Y-53228716D01*
X137759057Y-53477106D01*
X137298722Y-53936637D01*
X137249158Y-54056000D01*
X134909142Y-54056000D01*
X134755765Y-53902355D01*
X134338756Y-53729197D01*
X133887225Y-53728803D01*
X133469914Y-53901233D01*
X133150355Y-54220235D01*
X132977197Y-54637244D01*
X132976803Y-55088775D01*
X77991724Y-55088775D01*
X77195606Y-54292658D01*
X76933473Y-54117505D01*
X76624264Y-54056000D01*
X64342685Y-54056000D01*
X63055342Y-52768658D01*
X62793209Y-52593505D01*
X62484000Y-52532000D01*
X59690000Y-52532000D01*
X59380792Y-52593505D01*
X59380790Y-52593506D01*
X59380791Y-52593506D01*
X59118657Y-52768658D01*
X58609507Y-53277808D01*
X58492648Y-53229284D01*
X57842205Y-53228716D01*
X57241057Y-53477106D01*
X56793730Y-53923652D01*
X56661890Y-53833569D01*
X56452000Y-53791065D01*
X56452000Y-53701118D01*
X56579317Y-53677162D01*
X56795441Y-53538090D01*
X56940431Y-53325890D01*
X56991440Y-53074000D01*
X56991440Y-51574000D01*
X56960709Y-51410678D01*
X57349800Y-51249909D01*
X58049452Y-50551477D01*
X58133132Y-50349953D01*
X58733041Y-50950909D01*
X59517459Y-51276628D01*
X60366815Y-51277370D01*
X61151800Y-50953020D01*
X61752909Y-50352959D01*
X62078628Y-49568541D01*
X62078638Y-49556815D01*
X137818630Y-49556815D01*
X138142980Y-50341800D01*
X138743041Y-50942909D01*
X139527459Y-51268628D01*
X140376815Y-51269370D01*
X141161800Y-50945020D01*
X141762909Y-50344959D01*
X141764250Y-50341729D01*
X141846091Y-50539800D01*
X142544523Y-51239452D01*
X143457534Y-51618568D01*
X144446128Y-51619430D01*
X145359800Y-51241909D01*
X146059452Y-50543477D01*
X146438568Y-49630466D01*
X146439430Y-48641872D01*
X146061909Y-47728200D01*
X145363477Y-47028548D01*
X144450466Y-46649432D01*
X143461872Y-46648570D01*
X142548200Y-47026091D01*
X141848548Y-47724523D01*
X141764868Y-47926047D01*
X141164959Y-47325091D01*
X140380541Y-46999372D01*
X139531185Y-46998630D01*
X138746200Y-47322980D01*
X138145091Y-47923041D01*
X137819372Y-48707459D01*
X137818630Y-49556815D01*
X62078638Y-49556815D01*
X62079370Y-48719185D01*
X61755020Y-47934200D01*
X61154959Y-47333091D01*
X60370541Y-47007372D01*
X59521185Y-47006630D01*
X58736200Y-47330980D01*
X58135091Y-47931041D01*
X58133750Y-47934271D01*
X58051909Y-47736200D01*
X57353477Y-47036548D01*
X56440466Y-46657432D01*
X55451872Y-46656570D01*
X54538200Y-47034091D01*
X53838548Y-47732523D01*
X53459432Y-48645534D01*
X53458570Y-49634128D01*
X50927000Y-49634128D01*
X50927000Y-44831000D01*
X64797392Y-44831000D01*
X64357822Y-45269803D01*
X64357822Y-45269803D01*
G37*
X64357822Y-45269803D02*
X63963450Y-46219556D01*
X63962552Y-47247932D01*
X64355266Y-48198372D01*
X65081803Y-48926178D01*
X66031556Y-49320550D01*
X67059932Y-49321448D01*
X68010372Y-48928734D01*
X68738178Y-48202197D01*
X69132550Y-47252444D01*
X69133448Y-46224068D01*
X68740734Y-45273628D01*
X68298877Y-44831000D01*
X128297392Y-44831000D01*
X127857822Y-45269803D01*
X127463450Y-46219556D01*
X127462552Y-47247932D01*
X127855266Y-48198372D01*
X128581803Y-48926178D01*
X129531556Y-49320550D01*
X130559932Y-49321448D01*
X131510372Y-48928734D01*
X132238178Y-48202197D01*
X132632550Y-47252444D01*
X132633448Y-46224068D01*
X132240734Y-45273628D01*
X131798877Y-44831000D01*
X148971000Y-44831000D01*
X148971000Y-82229119D01*
X148923046Y-82181081D01*
X148542777Y-82023180D01*
X148131029Y-82022821D01*
X147750485Y-82180058D01*
X147684275Y-82246153D01*
X147671856Y-81910540D01*
X147469387Y-81421736D01*
X147202532Y-81323073D01*
X146229605Y-82296000D01*
X147202532Y-83268927D01*
X147300848Y-83232577D01*
X147300821Y-83262971D01*
X147458058Y-83643515D01*
X147574000Y-83759659D01*
X147574000Y-84242878D01*
X147436894Y-83911057D01*
X147010022Y-83483438D01*
X147022927Y-83448532D01*
X146050000Y-82475605D01*
X145077073Y-83448532D01*
X145090164Y-83483938D01*
X144664722Y-83908637D01*
X144415284Y-84509352D01*
X144414716Y-85159795D01*
X144663106Y-85760943D01*
X145007759Y-86106199D01*
X144664722Y-86448637D01*
X144596057Y-86614000D01*
X138938000Y-86614000D01*
X138661698Y-86668960D01*
X138646395Y-86672004D01*
X138399184Y-86837185D01*
X132049177Y-93187193D01*
X131883996Y-93434403D01*
X131825992Y-93726008D01*
X131825992Y-99882235D01*
X131711073Y-99996954D01*
X131553172Y-100377223D01*
X131552813Y-100788971D01*
X131710050Y-101169515D01*
X132000946Y-101460919D01*
X132381215Y-101618820D01*
X132792963Y-101619179D01*
X133173507Y-101461942D01*
X133464911Y-101171046D01*
X133622812Y-100790777D01*
X133623171Y-100379029D01*
X133465934Y-99998485D01*
X133349992Y-99882341D01*
X133349992Y-95520000D01*
X133688560Y-95520000D01*
X133688560Y-97520000D01*
X133732838Y-97755317D01*
X133837771Y-97918387D01*
X133739569Y-98062110D01*
X133688560Y-98314000D01*
X133688560Y-100314000D01*
X133732838Y-100549317D01*
X133836133Y-100709842D01*
X133797673Y-100748301D01*
X133701000Y-100981690D01*
X133701000Y-101822250D01*
X133859750Y-101981000D01*
X136209000Y-101981000D01*
X136209000Y-101961000D01*
X136463000Y-101961000D01*
X136463000Y-101981000D01*
X136483000Y-101981000D01*
X136483000Y-102235000D01*
X136463000Y-102235000D01*
X136463000Y-103584250D01*
X136621750Y-103743000D01*
X138462309Y-103743000D01*
X138695698Y-103646327D01*
X138739567Y-103602458D01*
X138742004Y-103614711D01*
X138864891Y-103798624D01*
X138907185Y-103861921D01*
X139470078Y-104424815D01*
X139688089Y-104570485D01*
X139717289Y-104589996D01*
X139839253Y-104614256D01*
X140072235Y-104847645D01*
X140489244Y-105020803D01*
X140940775Y-105021197D01*
X141358086Y-104848767D01*
X141677645Y-104529765D01*
X141850803Y-104112756D01*
X141851197Y-103661225D01*
X141678767Y-103243914D01*
X141359765Y-102924355D01*
X140942756Y-102751197D01*
X140491225Y-102750803D01*
X140208000Y-102867830D01*
X140208000Y-102139750D01*
X144415000Y-102139750D01*
X144415000Y-102980309D01*
X144511673Y-103213698D01*
X144690301Y-103392327D01*
X144923690Y-103489000D01*
X145764250Y-103489000D01*
X145923000Y-103330250D01*
X145923000Y-101981000D01*
X146177000Y-101981000D01*
X146177000Y-103330250D01*
X146335750Y-103489000D01*
X147176310Y-103489000D01*
X147409699Y-103392327D01*
X147588327Y-103213698D01*
X147685000Y-102980309D01*
X147685000Y-102139750D01*
X147526250Y-101981000D01*
X146177000Y-101981000D01*
X145923000Y-101981000D01*
X144573750Y-101981000D01*
X144415000Y-102139750D01*
X140208000Y-102139750D01*
X140208000Y-98552000D01*
X140149996Y-98260395D01*
X139984815Y-98013185D01*
X139069425Y-97097795D01*
X144414716Y-97097795D01*
X144663106Y-97698943D01*
X145007759Y-98044199D01*
X144664722Y-98386637D01*
X144415284Y-98987352D01*
X144414716Y-99637795D01*
X144663106Y-100238943D01*
X144725251Y-100301196D01*
X144690301Y-100315673D01*
X144511673Y-100494302D01*
X144415000Y-100727691D01*
X144415000Y-101568250D01*
X144573750Y-101727000D01*
X145923000Y-101727000D01*
X145923000Y-101707000D01*
X146177000Y-101707000D01*
X146177000Y-101727000D01*
X147526250Y-101727000D01*
X147685000Y-101568250D01*
X147685000Y-100727691D01*
X147588327Y-100494302D01*
X147409699Y-100315673D01*
X147375167Y-100301369D01*
X147435278Y-100241363D01*
X147684716Y-99640648D01*
X147685284Y-98990205D01*
X147436894Y-98389057D01*
X147092241Y-98043801D01*
X147435278Y-97701363D01*
X147684716Y-97100648D01*
X147685284Y-96450205D01*
X147436894Y-95849057D01*
X146977363Y-95388722D01*
X146376648Y-95139284D01*
X145726205Y-95138716D01*
X145125057Y-95387106D01*
X144664722Y-95846637D01*
X144415284Y-96447352D01*
X144414716Y-97097795D01*
X139069425Y-97097795D01*
X138983440Y-97011810D01*
X138983440Y-95520000D01*
X138939162Y-95284683D01*
X138800090Y-95068559D01*
X138587890Y-94923569D01*
X138336000Y-94872560D01*
X134336000Y-94872560D01*
X134100683Y-94916838D01*
X133884559Y-95055910D01*
X133739569Y-95268110D01*
X133688560Y-95520000D01*
X133349992Y-95520000D01*
X133349992Y-94041638D01*
X139253631Y-88138000D01*
X144595779Y-88138000D01*
X144663106Y-88300943D01*
X145007759Y-88646199D01*
X144664722Y-88988637D01*
X144415284Y-89589352D01*
X144414716Y-90239795D01*
X144663106Y-90840943D01*
X145122637Y-91301278D01*
X145723352Y-91550716D01*
X146373795Y-91551284D01*
X146974943Y-91302894D01*
X147435278Y-90843363D01*
X147507519Y-90669386D01*
X147755818Y-90619996D01*
X148003028Y-90454815D01*
X148874815Y-89583028D01*
X148966638Y-89445605D01*
X148971000Y-89439077D01*
X148971000Y-116459000D01*
X147948541Y-116459000D01*
X148038927Y-116214532D01*
X147066000Y-115241605D01*
X146093073Y-116214532D01*
X146183459Y-116459000D01*
X145426485Y-116459000D01*
X145450943Y-116448894D01*
X145878562Y-116022022D01*
X145913468Y-116034927D01*
X146886395Y-115062000D01*
X147245605Y-115062000D01*
X148218532Y-116034927D01*
X148485387Y-115936264D01*
X148711908Y-115326539D01*
X148687856Y-114676540D01*
X148485387Y-114187736D01*
X148218532Y-114089073D01*
X147245605Y-115062000D01*
X146886395Y-115062000D01*
X145913468Y-114089073D01*
X145878062Y-114102164D01*
X145685703Y-113909468D01*
X146093073Y-113909468D01*
X147066000Y-114882395D01*
X148038927Y-113909468D01*
X147940264Y-113642613D01*
X147330539Y-113416092D01*
X146680540Y-113440144D01*
X146191736Y-113642613D01*
X146093073Y-113909468D01*
X145685703Y-113909468D01*
X145453363Y-113676722D01*
X144852648Y-113427284D01*
X144202205Y-113426716D01*
X143601057Y-113675106D01*
X143255801Y-114019759D01*
X142913363Y-113676722D01*
X142312648Y-113427284D01*
X141662205Y-113426716D01*
X141061057Y-113675106D01*
X140715801Y-114019759D01*
X140373363Y-113676722D01*
X139772648Y-113427284D01*
X139122205Y-113426716D01*
X138521057Y-113675106D01*
X138175801Y-114019759D01*
X137833363Y-113676722D01*
X137232648Y-113427284D01*
X136582205Y-113426716D01*
X135981057Y-113675106D01*
X135635801Y-114019759D01*
X135293363Y-113676722D01*
X134692648Y-113427284D01*
X134042205Y-113426716D01*
X133441057Y-113675106D01*
X133095801Y-114019759D01*
X132753363Y-113676722D01*
X132152648Y-113427284D01*
X131502205Y-113426716D01*
X130901057Y-113675106D01*
X130555801Y-114019759D01*
X130213363Y-113676722D01*
X129612648Y-113427284D01*
X128962205Y-113426716D01*
X128361057Y-113675106D01*
X128015801Y-114019759D01*
X127673363Y-113676722D01*
X127072648Y-113427284D01*
X126422205Y-113426716D01*
X125821057Y-113675106D01*
X125475801Y-114019759D01*
X125133363Y-113676722D01*
X124532648Y-113427284D01*
X123882205Y-113426716D01*
X123281057Y-113675106D01*
X122935801Y-114019759D01*
X122593363Y-113676722D01*
X121992648Y-113427284D01*
X121342205Y-113426716D01*
X120741057Y-113675106D01*
X120395801Y-114019759D01*
X120053363Y-113676722D01*
X119452648Y-113427284D01*
X118802205Y-113426716D01*
X118201057Y-113675106D01*
X117855801Y-114019759D01*
X117513363Y-113676722D01*
X116912648Y-113427284D01*
X116262205Y-113426716D01*
X115661057Y-113675106D01*
X115315801Y-114019759D01*
X114973363Y-113676722D01*
X114372648Y-113427284D01*
X113722205Y-113426716D01*
X113121057Y-113675106D01*
X112775801Y-114019759D01*
X112433363Y-113676722D01*
X111832648Y-113427284D01*
X111182205Y-113426716D01*
X110581057Y-113675106D01*
X110235801Y-114019759D01*
X109893363Y-113676722D01*
X109292648Y-113427284D01*
X108642205Y-113426716D01*
X108041057Y-113675106D01*
X107695801Y-114019759D01*
X107353363Y-113676722D01*
X106752648Y-113427284D01*
X106102205Y-113426716D01*
X105501057Y-113675106D01*
X105155801Y-114019759D01*
X104813363Y-113676722D01*
X104212648Y-113427284D01*
X103562205Y-113426716D01*
X102961057Y-113675106D01*
X102615801Y-114019759D01*
X102273363Y-113676722D01*
X101672648Y-113427284D01*
X101022205Y-113426716D01*
X100421057Y-113675106D01*
X100075801Y-114019759D01*
X99733363Y-113676722D01*
X99132648Y-113427284D01*
X98482205Y-113426716D01*
X97881057Y-113675106D01*
X97535801Y-114019759D01*
X97193363Y-113676722D01*
X96592648Y-113427284D01*
X95942205Y-113426716D01*
X95341057Y-113675106D01*
X94995801Y-114019759D01*
X94653363Y-113676722D01*
X94052648Y-113427284D01*
X93402205Y-113426716D01*
X92801057Y-113675106D01*
X92455801Y-114019759D01*
X92113363Y-113676722D01*
X91512648Y-113427284D01*
X90862205Y-113426716D01*
X90261057Y-113675106D01*
X89915801Y-114019759D01*
X89573363Y-113676722D01*
X88972648Y-113427284D01*
X88322205Y-113426716D01*
X87721057Y-113675106D01*
X87375801Y-114019759D01*
X87033363Y-113676722D01*
X86432648Y-113427284D01*
X85782205Y-113426716D01*
X85181057Y-113675106D01*
X84835801Y-114019759D01*
X84493363Y-113676722D01*
X83892648Y-113427284D01*
X83242205Y-113426716D01*
X82641057Y-113675106D01*
X82295801Y-114019759D01*
X81953363Y-113676722D01*
X81352648Y-113427284D01*
X80702205Y-113426716D01*
X80101057Y-113675106D01*
X79755801Y-114019759D01*
X79413363Y-113676722D01*
X78812648Y-113427284D01*
X78162205Y-113426716D01*
X77561057Y-113675106D01*
X77215801Y-114019759D01*
X76873363Y-113676722D01*
X76272648Y-113427284D01*
X75622205Y-113426716D01*
X75021057Y-113675106D01*
X74675801Y-114019759D01*
X74333363Y-113676722D01*
X73732648Y-113427284D01*
X73082205Y-113426716D01*
X72481057Y-113675106D01*
X72135801Y-114019759D01*
X71793363Y-113676722D01*
X71192648Y-113427284D01*
X70542205Y-113426716D01*
X69941057Y-113675106D01*
X69595801Y-114019759D01*
X69253363Y-113676722D01*
X68652648Y-113427284D01*
X68002205Y-113426716D01*
X67401057Y-113675106D01*
X67055801Y-114019759D01*
X66713363Y-113676722D01*
X66112648Y-113427284D01*
X65462205Y-113426716D01*
X64861057Y-113675106D01*
X64515801Y-114019759D01*
X64173363Y-113676722D01*
X63572648Y-113427284D01*
X62922205Y-113426716D01*
X62321057Y-113675106D01*
X61975801Y-114019759D01*
X61633363Y-113676722D01*
X61032648Y-113427284D01*
X60382205Y-113426716D01*
X59781057Y-113675106D01*
X59435801Y-114019759D01*
X59093363Y-113676722D01*
X58492648Y-113427284D01*
X57842205Y-113426716D01*
X57241057Y-113675106D01*
X56895801Y-114019759D01*
X56553363Y-113676722D01*
X55952648Y-113427284D01*
X55302205Y-113426716D01*
X54701057Y-113675106D01*
X54634426Y-113741621D01*
X54550090Y-113610559D01*
X54337890Y-113465569D01*
X54086000Y-113414560D01*
X52086000Y-113414560D01*
X51850683Y-113458838D01*
X51634559Y-113597910D01*
X51489569Y-113810110D01*
X51438560Y-114062000D01*
X51438560Y-116062000D01*
X51482838Y-116297317D01*
X51586878Y-116459000D01*
X50927000Y-116459000D01*
X50927000Y-109251750D01*
X50943000Y-109251750D01*
X50943000Y-110092309D01*
X51039673Y-110325698D01*
X51218301Y-110504327D01*
X51451690Y-110601000D01*
X52292250Y-110601000D01*
X52451000Y-110442250D01*
X52451000Y-109093000D01*
X52705000Y-109093000D01*
X52705000Y-110442250D01*
X52863750Y-110601000D01*
X53704310Y-110601000D01*
X53937699Y-110504327D01*
X54116327Y-110325698D01*
X54213000Y-110092309D01*
X54213000Y-109251750D01*
X54054250Y-109093000D01*
X52705000Y-109093000D01*
X52451000Y-109093000D01*
X51101750Y-109093000D01*
X50943000Y-109251750D01*
X50927000Y-109251750D01*
X50927000Y-106161461D01*
X50932092Y-106161461D01*
X50956144Y-106811460D01*
X51158613Y-107300264D01*
X51352675Y-107372014D01*
X51218301Y-107427673D01*
X51039673Y-107606302D01*
X50943000Y-107839691D01*
X50943000Y-108680250D01*
X51101750Y-108839000D01*
X52451000Y-108839000D01*
X52451000Y-108819000D01*
X52705000Y-108819000D01*
X52705000Y-108839000D01*
X54054250Y-108839000D01*
X54213000Y-108680250D01*
X54213000Y-107839691D01*
X54160109Y-107712000D01*
X70996560Y-107712000D01*
X70996560Y-109712000D01*
X71040838Y-109947317D01*
X71179910Y-110163441D01*
X71392110Y-110308431D01*
X71644000Y-110359440D01*
X73644000Y-110359440D01*
X73879317Y-110315162D01*
X74095441Y-110176090D01*
X74192910Y-110033439D01*
X74256637Y-110097278D01*
X74857352Y-110346716D01*
X75133190Y-110346957D01*
X75069081Y-110410954D01*
X74911180Y-110791223D01*
X74910821Y-111202971D01*
X75068058Y-111583515D01*
X75358954Y-111874919D01*
X75739223Y-112032820D01*
X76150971Y-112033179D01*
X76531515Y-111875942D01*
X76647659Y-111760000D01*
X77724000Y-111760000D01*
X78015605Y-111701996D01*
X78262815Y-111536815D01*
X80040816Y-109758815D01*
X80139834Y-109610623D01*
X80205996Y-109511605D01*
X80264000Y-109220000D01*
X80264000Y-108204000D01*
X107442000Y-108204000D01*
X107733605Y-108145996D01*
X107980815Y-107980815D01*
X108246593Y-107715037D01*
X108408971Y-107715179D01*
X108789515Y-107557942D01*
X109023446Y-107324419D01*
X109104058Y-107519515D01*
X109394954Y-107810919D01*
X109775223Y-107968820D01*
X110186971Y-107969179D01*
X110567515Y-107811942D01*
X110776560Y-107603262D01*
X111045223Y-107714820D01*
X111456971Y-107715179D01*
X111837515Y-107557942D01*
X112128919Y-107267046D01*
X112286820Y-106886777D01*
X112287179Y-106475029D01*
X112129942Y-106094485D01*
X112075932Y-106040381D01*
X112091515Y-106033942D01*
X112382919Y-105743046D01*
X112540820Y-105362777D01*
X112541179Y-104951029D01*
X112528774Y-104921006D01*
X112726971Y-104921179D01*
X113107515Y-104763942D01*
X113398919Y-104473046D01*
X113556820Y-104092777D01*
X113556984Y-103905017D01*
X113742971Y-103905179D01*
X114123515Y-103747942D01*
X114414919Y-103457046D01*
X114572820Y-103076777D01*
X114573179Y-102665029D01*
X114560774Y-102635006D01*
X114758971Y-102635179D01*
X115139515Y-102477942D01*
X115223854Y-102393750D01*
X133701000Y-102393750D01*
X133701000Y-103234310D01*
X133797673Y-103467699D01*
X133976302Y-103646327D01*
X134209691Y-103743000D01*
X136050250Y-103743000D01*
X136209000Y-103584250D01*
X136209000Y-102235000D01*
X133859750Y-102235000D01*
X133701000Y-102393750D01*
X115223854Y-102393750D01*
X115430919Y-102187046D01*
X115588820Y-101806777D01*
X115589086Y-101501667D01*
X115871223Y-101618820D01*
X116282971Y-101619179D01*
X116663515Y-101461942D01*
X116954919Y-101171046D01*
X117112820Y-100790777D01*
X117112963Y-100627281D01*
X117232058Y-100915515D01*
X117522954Y-101206919D01*
X117903223Y-101364820D01*
X118314971Y-101365179D01*
X118695515Y-101207942D01*
X118986919Y-100917046D01*
X119144820Y-100536777D01*
X119145179Y-100125029D01*
X118987942Y-99744485D01*
X118872000Y-99628341D01*
X118872000Y-98867630D01*
X120376963Y-100372593D01*
X120376821Y-100534971D01*
X120534058Y-100915515D01*
X120824954Y-101206919D01*
X121205223Y-101364820D01*
X121616971Y-101365179D01*
X121997515Y-101207942D01*
X122288919Y-100917046D01*
X122334836Y-100806466D01*
X122651185Y-101122815D01*
X122898395Y-101287996D01*
X122948228Y-101297908D01*
X123110954Y-101460919D01*
X123491223Y-101618820D01*
X123902971Y-101619179D01*
X124283515Y-101461942D01*
X124574919Y-101171046D01*
X124732820Y-100790777D01*
X124733179Y-100379029D01*
X124576708Y-100000338D01*
X125710963Y-101134593D01*
X125710821Y-101296971D01*
X125868058Y-101677515D01*
X126158954Y-101968919D01*
X126539223Y-102126820D01*
X126950971Y-102127179D01*
X127331515Y-101969942D01*
X127565446Y-101736419D01*
X127646058Y-101931515D01*
X127936954Y-102222919D01*
X128317223Y-102380820D01*
X128728971Y-102381179D01*
X129109515Y-102223942D01*
X129400919Y-101933046D01*
X129558820Y-101552777D01*
X129559179Y-101141029D01*
X129401942Y-100760485D01*
X129111046Y-100469081D01*
X128730777Y-100311180D01*
X128566668Y-100311037D01*
X125506815Y-97251185D01*
X125346903Y-97144335D01*
X125259605Y-97086004D01*
X124968000Y-97028000D01*
X123759631Y-97028000D01*
X107708602Y-80976971D01*
X121900821Y-80976971D01*
X122058058Y-81357515D01*
X122174000Y-81473659D01*
X122174000Y-83312000D01*
X122232004Y-83603605D01*
X122343580Y-83770590D01*
X122397185Y-83850815D01*
X124429185Y-85882815D01*
X124676395Y-86047996D01*
X124968000Y-86106000D01*
X127568235Y-86106000D01*
X127682954Y-86220919D01*
X128063223Y-86378820D01*
X128474971Y-86379179D01*
X128855515Y-86221942D01*
X129146919Y-85931046D01*
X129304820Y-85550777D01*
X129305179Y-85139029D01*
X129147942Y-84758485D01*
X128857046Y-84467081D01*
X128476777Y-84309180D01*
X128065029Y-84308821D01*
X127684485Y-84466058D01*
X127568341Y-84582000D01*
X125283630Y-84582000D01*
X123698000Y-82996370D01*
X123698000Y-82031461D01*
X144404092Y-82031461D01*
X144428144Y-82681460D01*
X144630613Y-83170264D01*
X144897468Y-83268927D01*
X145870395Y-82296000D01*
X144897468Y-81323073D01*
X144630613Y-81421736D01*
X144404092Y-82031461D01*
X123698000Y-82031461D01*
X123698000Y-81473765D01*
X123812919Y-81359046D01*
X123970820Y-80978777D01*
X123971179Y-80567029D01*
X123813942Y-80186485D01*
X123523046Y-79895081D01*
X123142777Y-79737180D01*
X122731029Y-79736821D01*
X122350485Y-79894058D01*
X122059081Y-80184954D01*
X121901180Y-80565223D01*
X121900821Y-80976971D01*
X107708602Y-80976971D01*
X104532816Y-77801186D01*
X104389133Y-77705180D01*
X104285606Y-77636005D01*
X103994001Y-77578001D01*
X92601999Y-77578001D01*
X92310394Y-77636005D01*
X92207130Y-77705004D01*
X91997029Y-77704821D01*
X91616485Y-77862058D01*
X91325081Y-78152954D01*
X91167180Y-78533223D01*
X91166821Y-78944971D01*
X91324058Y-79325515D01*
X91614954Y-79616919D01*
X91939433Y-79751654D01*
X92086058Y-80106515D01*
X92376954Y-80397919D01*
X92757223Y-80555820D01*
X93085775Y-80556106D01*
X93102058Y-80595515D01*
X93278288Y-80772053D01*
X93103081Y-80946954D01*
X92945180Y-81327223D01*
X92944821Y-81738971D01*
X93102058Y-82119515D01*
X93335581Y-82353446D01*
X93140485Y-82434058D01*
X92849081Y-82724954D01*
X92691180Y-83105223D01*
X92690906Y-83420001D01*
X91077999Y-83420001D01*
X90786394Y-83478005D01*
X90683130Y-83547004D01*
X90473029Y-83546821D01*
X90092485Y-83704058D01*
X89801081Y-83994954D01*
X89643180Y-84375223D01*
X89642821Y-84786971D01*
X89800058Y-85167515D01*
X90090954Y-85458919D01*
X90471223Y-85616820D01*
X90686933Y-85617008D01*
X90816058Y-85929515D01*
X91106954Y-86220919D01*
X91469313Y-86371383D01*
X91469302Y-86383693D01*
X91626539Y-86764237D01*
X91917435Y-87055641D01*
X92234949Y-87187484D01*
X92348067Y-87461252D01*
X92638963Y-87752656D01*
X93019232Y-87910557D01*
X93230128Y-87910741D01*
X93356058Y-88215515D01*
X93646954Y-88506919D01*
X94027223Y-88664820D01*
X94438971Y-88665179D01*
X94819515Y-88507942D01*
X94935659Y-88392000D01*
X95239329Y-88392000D01*
X95239158Y-88588634D01*
X95254179Y-88624989D01*
X95250000Y-88646000D01*
X95250000Y-93532235D01*
X95135081Y-93646954D01*
X94977180Y-94027223D01*
X94976821Y-94438971D01*
X95134058Y-94819515D01*
X95424954Y-95110919D01*
X95805223Y-95268820D01*
X96216971Y-95269179D01*
X96597515Y-95111942D01*
X96648799Y-95060747D01*
X96902595Y-95314986D01*
X97282864Y-95472887D01*
X97694612Y-95473246D01*
X97790000Y-95433833D01*
X97790000Y-95504000D01*
X97848004Y-95795605D01*
X97971380Y-95980250D01*
X98013185Y-96042815D01*
X103842261Y-101871891D01*
X103556634Y-101989909D01*
X103265230Y-102280805D01*
X103107329Y-102661074D01*
X103107186Y-102825183D01*
X102308700Y-103623670D01*
X90187548Y-103623670D01*
X90501515Y-103493942D01*
X90792919Y-103203046D01*
X90931482Y-102869349D01*
X91254916Y-102545915D01*
X91352052Y-102400540D01*
X91416100Y-102400540D01*
X91651417Y-102356262D01*
X91734248Y-102302961D01*
X91939791Y-102388100D01*
X92480350Y-102388100D01*
X92639100Y-102229350D01*
X92639100Y-101130100D01*
X92893100Y-101130100D01*
X92893100Y-102229350D01*
X93051850Y-102388100D01*
X93592409Y-102388100D01*
X93825798Y-102291427D01*
X94004427Y-102112799D01*
X94101100Y-101879410D01*
X94101100Y-101288850D01*
X93942350Y-101130100D01*
X92893100Y-101130100D01*
X92639100Y-101130100D01*
X92619100Y-101130100D01*
X92619100Y-100876100D01*
X92639100Y-100876100D01*
X92639100Y-99776850D01*
X92893100Y-99776850D01*
X92893100Y-100876100D01*
X93942350Y-100876100D01*
X94101100Y-100717350D01*
X94101100Y-100126790D01*
X94004427Y-99893401D01*
X93825798Y-99714773D01*
X93592409Y-99618100D01*
X93051850Y-99618100D01*
X92893100Y-99776850D01*
X92639100Y-99776850D01*
X92480350Y-99618100D01*
X91939791Y-99618100D01*
X91929400Y-99622404D01*
X91929400Y-99066350D01*
X91770650Y-98907600D01*
X90721400Y-98907600D01*
X90721400Y-98927600D01*
X90467400Y-98927600D01*
X90467400Y-98907600D01*
X90447400Y-98907600D01*
X90447400Y-98653600D01*
X90467400Y-98653600D01*
X90467400Y-97554350D01*
X90721400Y-97554350D01*
X90721400Y-98653600D01*
X91770650Y-98653600D01*
X91929400Y-98494850D01*
X91929400Y-97904290D01*
X91832727Y-97670901D01*
X91654098Y-97492273D01*
X91420709Y-97395600D01*
X90880150Y-97395600D01*
X90721400Y-97554350D01*
X90467400Y-97554350D01*
X90308650Y-97395600D01*
X89768091Y-97395600D01*
X89563730Y-97480249D01*
X89496290Y-97434169D01*
X89244400Y-97383160D01*
X87844400Y-97383160D01*
X87609083Y-97427438D01*
X87392959Y-97566510D01*
X87253159Y-97771114D01*
X86917029Y-97770821D01*
X86536485Y-97928058D01*
X86245081Y-98218954D01*
X86087180Y-98599223D01*
X86086821Y-99010971D01*
X86244058Y-99391515D01*
X86534954Y-99682919D01*
X86915223Y-99840820D01*
X87289647Y-99841146D01*
X87380310Y-99982041D01*
X87592510Y-100127031D01*
X87844400Y-100178040D01*
X89244400Y-100178040D01*
X89389385Y-100150759D01*
X89368660Y-100253100D01*
X89368660Y-101722284D01*
X89330485Y-101738058D01*
X89039081Y-102028954D01*
X88881180Y-102409223D01*
X88880821Y-102820971D01*
X89038058Y-103201515D01*
X89328954Y-103492919D01*
X89643838Y-103623670D01*
X84767435Y-103623670D01*
X84652716Y-103508751D01*
X84272447Y-103350850D01*
X83860699Y-103350491D01*
X83480155Y-103507728D01*
X83188751Y-103798624D01*
X83181636Y-103815759D01*
X83137036Y-103771081D01*
X82756767Y-103613180D01*
X82705575Y-103613135D01*
X82822820Y-103330777D01*
X82823179Y-102919029D01*
X82665942Y-102538485D01*
X82375046Y-102247081D01*
X81994777Y-102089180D01*
X81583029Y-102088821D01*
X81202485Y-102246058D01*
X81086341Y-102362000D01*
X77978000Y-102362000D01*
X77686395Y-102420004D01*
X77439184Y-102585185D01*
X76169185Y-103855185D01*
X76004004Y-104102395D01*
X75946000Y-104394000D01*
X75946000Y-105156000D01*
X76004004Y-105447605D01*
X76135780Y-105644821D01*
X76169185Y-105694815D01*
X77551217Y-107076848D01*
X77400205Y-107076716D01*
X76799057Y-107325106D01*
X76453801Y-107669759D01*
X76111363Y-107326722D01*
X75510648Y-107077284D01*
X74860205Y-107076716D01*
X74259057Y-107325106D01*
X74192426Y-107391621D01*
X74108090Y-107260559D01*
X73895890Y-107115569D01*
X73644000Y-107064560D01*
X71644000Y-107064560D01*
X71408683Y-107108838D01*
X71192559Y-107247910D01*
X71047569Y-107460110D01*
X70996560Y-107712000D01*
X54160109Y-107712000D01*
X54116327Y-107606302D01*
X53937699Y-107427673D01*
X53803325Y-107372014D01*
X53997387Y-107300264D01*
X54223908Y-106690539D01*
X54199856Y-106040540D01*
X53997387Y-105551736D01*
X53730532Y-105453073D01*
X52757605Y-106426000D01*
X52771748Y-106440143D01*
X52592143Y-106619748D01*
X52578000Y-106605605D01*
X52563858Y-106619748D01*
X52384253Y-106440143D01*
X52398395Y-106426000D01*
X51425468Y-105453073D01*
X51158613Y-105551736D01*
X50932092Y-106161461D01*
X50927000Y-106161461D01*
X50927000Y-105273468D01*
X51605073Y-105273468D01*
X52578000Y-106246395D01*
X53550927Y-105273468D01*
X53452264Y-105006613D01*
X52842539Y-104780092D01*
X52192540Y-104804144D01*
X51703736Y-105006613D01*
X51605073Y-105273468D01*
X50927000Y-105273468D01*
X50927000Y-100854000D01*
X50930560Y-100854000D01*
X50930560Y-102854000D01*
X50974838Y-103089317D01*
X51113910Y-103305441D01*
X51326110Y-103450431D01*
X51578000Y-103501440D01*
X53578000Y-103501440D01*
X53813317Y-103457162D01*
X54029441Y-103318090D01*
X54174431Y-103105890D01*
X54225440Y-102854000D01*
X54225440Y-100854000D01*
X54181162Y-100618683D01*
X54042090Y-100402559D01*
X53899439Y-100305090D01*
X53963278Y-100241363D01*
X54212716Y-99640648D01*
X54213284Y-98990205D01*
X53964894Y-98389057D01*
X53505363Y-97928722D01*
X52904648Y-97679284D01*
X52254205Y-97678716D01*
X51653057Y-97927106D01*
X51192722Y-98386637D01*
X50943284Y-98987352D01*
X50942716Y-99637795D01*
X51191106Y-100238943D01*
X51257621Y-100305574D01*
X51126559Y-100389910D01*
X50981569Y-100602110D01*
X50930560Y-100854000D01*
X50927000Y-100854000D01*
X50927000Y-93742000D01*
X50930560Y-93742000D01*
X50930560Y-95742000D01*
X50974838Y-95977317D01*
X51113910Y-96193441D01*
X51326110Y-96338431D01*
X51578000Y-96389440D01*
X53578000Y-96389440D01*
X53813317Y-96345162D01*
X54029441Y-96206090D01*
X54136365Y-96049601D01*
X57785000Y-99698236D01*
X57785000Y-101854000D01*
X57852671Y-102194206D01*
X57942762Y-102329036D01*
X58045382Y-102482618D01*
X61601382Y-106038618D01*
X61889794Y-106231329D01*
X62230000Y-106299000D01*
X69088000Y-106299000D01*
X69428206Y-106231329D01*
X69716618Y-106038618D01*
X75674959Y-100080277D01*
X75867671Y-99791864D01*
X75935341Y-99451659D01*
X75935341Y-99180650D01*
X79691000Y-99180650D01*
X79691000Y-99771210D01*
X79787673Y-100004599D01*
X79966302Y-100183227D01*
X80199691Y-100279900D01*
X80740250Y-100279900D01*
X80899000Y-100121150D01*
X80899000Y-99021900D01*
X79849750Y-99021900D01*
X79691000Y-99180650D01*
X75935341Y-99180650D01*
X75935341Y-98462155D01*
X76031855Y-98422276D01*
X76323259Y-98131380D01*
X76481160Y-97751111D01*
X76481303Y-97587001D01*
X77040305Y-97028000D01*
X79680818Y-97028000D01*
X79722838Y-97251317D01*
X79861910Y-97467441D01*
X80028083Y-97580982D01*
X79966302Y-97606573D01*
X79787673Y-97785201D01*
X79691000Y-98018590D01*
X79691000Y-98609150D01*
X79849750Y-98767900D01*
X80899000Y-98767900D01*
X80899000Y-98747900D01*
X81153000Y-98747900D01*
X81153000Y-98767900D01*
X81173000Y-98767900D01*
X81173000Y-99021900D01*
X81153000Y-99021900D01*
X81153000Y-100121150D01*
X81311750Y-100279900D01*
X81852309Y-100279900D01*
X82056670Y-100195251D01*
X82124110Y-100241331D01*
X82376000Y-100292340D01*
X83776000Y-100292340D01*
X84011317Y-100248062D01*
X84196513Y-100128892D01*
X84355244Y-100194803D01*
X84806775Y-100195197D01*
X85224086Y-100022767D01*
X85543645Y-99703765D01*
X85716803Y-99286756D01*
X85717197Y-98835225D01*
X85544767Y-98417914D01*
X85225765Y-98098355D01*
X84808756Y-97925197D01*
X84382030Y-97924825D01*
X84379162Y-97909583D01*
X84240090Y-97693459D01*
X84073917Y-97579918D01*
X84135698Y-97554327D01*
X84314327Y-97375699D01*
X84411000Y-97142310D01*
X84411000Y-96551750D01*
X84252250Y-96393000D01*
X83203000Y-96393000D01*
X83203000Y-96413000D01*
X82949000Y-96413000D01*
X82949000Y-96393000D01*
X82929000Y-96393000D01*
X82929000Y-96139000D01*
X82949000Y-96139000D01*
X82949000Y-95039750D01*
X82905250Y-94996000D01*
X82949000Y-94952250D01*
X82949000Y-93853000D01*
X83203000Y-93853000D01*
X83203000Y-94952250D01*
X83246750Y-94996000D01*
X83203000Y-95039750D01*
X83203000Y-96139000D01*
X84252250Y-96139000D01*
X84411000Y-95980250D01*
X84411000Y-95389690D01*
X84314327Y-95156301D01*
X84154025Y-94996000D01*
X84314327Y-94835699D01*
X84411000Y-94602310D01*
X84411000Y-94011750D01*
X84252250Y-93853000D01*
X83203000Y-93853000D01*
X82949000Y-93853000D01*
X82929000Y-93853000D01*
X82929000Y-93599000D01*
X82949000Y-93599000D01*
X82949000Y-93579000D01*
X83203000Y-93579000D01*
X83203000Y-93599000D01*
X84252250Y-93599000D01*
X84258600Y-93592650D01*
X88061100Y-93592650D01*
X88061100Y-94133209D01*
X88157773Y-94366598D01*
X88336401Y-94545227D01*
X88569790Y-94641900D01*
X89160350Y-94641900D01*
X89319100Y-94483150D01*
X89319100Y-93433900D01*
X89573100Y-93433900D01*
X89573100Y-94483150D01*
X89731850Y-94641900D01*
X90322410Y-94641900D01*
X90555799Y-94545227D01*
X90734427Y-94366598D01*
X90831100Y-94133209D01*
X90831100Y-93592650D01*
X90672350Y-93433900D01*
X89573100Y-93433900D01*
X89319100Y-93433900D01*
X88219850Y-93433900D01*
X88061100Y-93592650D01*
X84258600Y-93592650D01*
X84411000Y-93440250D01*
X84411000Y-92849690D01*
X84314327Y-92616301D01*
X84249466Y-92551440D01*
X84842000Y-92551440D01*
X85077317Y-92507162D01*
X85293441Y-92368090D01*
X85438431Y-92155890D01*
X85489440Y-91904000D01*
X85489440Y-90556900D01*
X88048660Y-90556900D01*
X88048660Y-91956900D01*
X88092938Y-92192217D01*
X88146239Y-92275048D01*
X88061100Y-92480591D01*
X88061100Y-93021150D01*
X88219850Y-93179900D01*
X89319100Y-93179900D01*
X89319100Y-93159900D01*
X89573100Y-93159900D01*
X89573100Y-93179900D01*
X90672350Y-93179900D01*
X90831100Y-93021150D01*
X90831100Y-92480591D01*
X90746451Y-92276230D01*
X90792531Y-92208790D01*
X90830985Y-92018900D01*
X92845323Y-92018900D01*
X92848056Y-92025515D01*
X93138952Y-92316919D01*
X93519221Y-92474820D01*
X93930969Y-92475179D01*
X94311513Y-92317942D01*
X94602917Y-92027046D01*
X94760818Y-91646777D01*
X94761177Y-91235029D01*
X94603940Y-90854485D01*
X94313044Y-90563081D01*
X93932775Y-90405180D01*
X93521027Y-90404821D01*
X93303018Y-90494900D01*
X90831874Y-90494900D01*
X90799262Y-90321583D01*
X90660190Y-90105459D01*
X90447990Y-89960469D01*
X90196100Y-89909460D01*
X88696100Y-89909460D01*
X88460783Y-89953738D01*
X88244659Y-90092810D01*
X88099669Y-90305010D01*
X88048660Y-90556900D01*
X85489440Y-90556900D01*
X85489440Y-90504000D01*
X85445162Y-90268683D01*
X85391861Y-90185852D01*
X85477000Y-89980309D01*
X85477000Y-89439750D01*
X85318250Y-89281000D01*
X84219000Y-89281000D01*
X84219000Y-89301000D01*
X83965000Y-89301000D01*
X83965000Y-89281000D01*
X82169000Y-89281000D01*
X82169000Y-89301000D01*
X81915000Y-89301000D01*
X81915000Y-89281000D01*
X81895000Y-89281000D01*
X81895000Y-89027000D01*
X81915000Y-89027000D01*
X81915000Y-89007000D01*
X82169000Y-89007000D01*
X82169000Y-89027000D01*
X83965000Y-89027000D01*
X83965000Y-87977750D01*
X84219000Y-87977750D01*
X84219000Y-89027000D01*
X85318250Y-89027000D01*
X85477000Y-88868250D01*
X85477000Y-88327691D01*
X85380327Y-88094302D01*
X85201699Y-87915673D01*
X84968310Y-87819000D01*
X84377750Y-87819000D01*
X84219000Y-87977750D01*
X83965000Y-87977750D01*
X83806250Y-87819000D01*
X83215690Y-87819000D01*
X83102083Y-87866058D01*
X83101698Y-87865673D01*
X83070233Y-87852640D01*
X83076820Y-87836777D01*
X83076963Y-87672667D01*
X84358816Y-86390815D01*
X84457834Y-86242623D01*
X84523996Y-86143605D01*
X84582000Y-85852000D01*
X84582000Y-84013765D01*
X84696919Y-83899046D01*
X84854820Y-83518777D01*
X84855179Y-83107029D01*
X84697942Y-82726485D01*
X84407046Y-82435081D01*
X84026777Y-82277180D01*
X83615029Y-82276821D01*
X83234485Y-82434058D01*
X82943081Y-82724954D01*
X82931779Y-82752173D01*
X81877803Y-81698197D01*
X81837410Y-81671006D01*
X81788000Y-81661000D01*
X81332606Y-81661000D01*
X81153000Y-81481394D01*
X81153000Y-78486000D01*
X81143666Y-78438211D01*
X81115803Y-78396197D01*
X80140577Y-77420971D01*
X140442821Y-77420971D01*
X140600058Y-77801515D01*
X140890954Y-78092919D01*
X141271223Y-78250820D01*
X141682971Y-78251179D01*
X142063515Y-78093942D01*
X142179659Y-77978000D01*
X144402560Y-77978000D01*
X144402560Y-78216000D01*
X144446838Y-78451317D01*
X144585910Y-78667441D01*
X144728561Y-78764910D01*
X144664722Y-78828637D01*
X144415284Y-79429352D01*
X144414716Y-80079795D01*
X144663106Y-80680943D01*
X145089978Y-81108562D01*
X145077073Y-81143468D01*
X146050000Y-82116395D01*
X147022927Y-81143468D01*
X147009836Y-81108062D01*
X147435278Y-80683363D01*
X147684716Y-80082648D01*
X147685284Y-79432205D01*
X147436894Y-78831057D01*
X147370379Y-78764426D01*
X147501441Y-78680090D01*
X147646431Y-78467890D01*
X147697440Y-78216000D01*
X147697440Y-76216000D01*
X147653162Y-75980683D01*
X147514090Y-75764559D01*
X147301890Y-75619569D01*
X147050000Y-75568560D01*
X145050000Y-75568560D01*
X144814683Y-75612838D01*
X144598559Y-75751910D01*
X144453569Y-75964110D01*
X144402560Y-76216000D01*
X144402560Y-76454000D01*
X142179765Y-76454000D01*
X142065046Y-76339081D01*
X141684777Y-76181180D01*
X141273029Y-76180821D01*
X140892485Y-76338058D01*
X140601081Y-76628954D01*
X140443180Y-77009223D01*
X140442821Y-77420971D01*
X80140577Y-77420971D01*
X79591803Y-76872197D01*
X79554623Y-76846416D01*
X79552885Y-76846014D01*
X79551410Y-76845006D01*
X79528395Y-76840345D01*
X79505509Y-76835048D01*
X79503749Y-76835354D01*
X79502000Y-76835000D01*
X71882000Y-76835000D01*
X71834211Y-76844334D01*
X71792197Y-76872197D01*
X70268197Y-78396197D01*
X70241006Y-78436590D01*
X70231000Y-78486000D01*
X70231000Y-81481394D01*
X69760197Y-81952197D01*
X69733006Y-81992590D01*
X69723000Y-82042000D01*
X69723000Y-83005394D01*
X68998197Y-83730197D01*
X68971006Y-83770590D01*
X68961000Y-83820000D01*
X68961000Y-86053394D01*
X68415803Y-85508197D01*
X68375410Y-85481006D01*
X68326000Y-85471000D01*
X62484000Y-85471000D01*
X62413553Y-85492330D01*
X60159548Y-86995000D01*
X59944000Y-86995000D01*
X59897841Y-87003685D01*
X59855447Y-87030965D01*
X59827006Y-87072590D01*
X59817000Y-87122000D01*
X59817000Y-101600000D01*
X59824370Y-101642633D01*
X59850381Y-101685817D01*
X60810989Y-102733753D01*
X59563000Y-101485764D01*
X59563000Y-99330000D01*
X59495329Y-98989794D01*
X59302618Y-98701382D01*
X54714618Y-94113382D01*
X54562515Y-94011750D01*
X54426206Y-93920671D01*
X54225440Y-93880736D01*
X54225440Y-93742000D01*
X54181162Y-93506683D01*
X54042090Y-93290559D01*
X53899439Y-93193090D01*
X53963278Y-93129363D01*
X54212716Y-92528648D01*
X54213284Y-91878205D01*
X53964894Y-91277057D01*
X53505363Y-90816722D01*
X52904648Y-90567284D01*
X52254205Y-90566716D01*
X51653057Y-90815106D01*
X51192722Y-91274637D01*
X50943284Y-91875352D01*
X50942716Y-92525795D01*
X51191106Y-93126943D01*
X51257621Y-93193574D01*
X51126559Y-93277910D01*
X50981569Y-93490110D01*
X50930560Y-93742000D01*
X50927000Y-93742000D01*
X50927000Y-86630000D01*
X50930560Y-86630000D01*
X50930560Y-88630000D01*
X50974838Y-88865317D01*
X51113910Y-89081441D01*
X51326110Y-89226431D01*
X51578000Y-89277440D01*
X53578000Y-89277440D01*
X53813317Y-89233162D01*
X54029441Y-89094090D01*
X54174431Y-88881890D01*
X54225440Y-88630000D01*
X54225440Y-86630000D01*
X54181162Y-86394683D01*
X54042090Y-86178559D01*
X53899439Y-86081090D01*
X53963278Y-86017363D01*
X54212716Y-85416648D01*
X54213284Y-84766205D01*
X53964894Y-84165057D01*
X53505363Y-83704722D01*
X52904648Y-83455284D01*
X52254205Y-83454716D01*
X51653057Y-83703106D01*
X51192722Y-84162637D01*
X50943284Y-84763352D01*
X50942716Y-85413795D01*
X51191106Y-86014943D01*
X51257621Y-86081574D01*
X51126559Y-86165910D01*
X50981569Y-86378110D01*
X50930560Y-86630000D01*
X50927000Y-86630000D01*
X50927000Y-79518000D01*
X50930560Y-79518000D01*
X50930560Y-81518000D01*
X50974838Y-81753317D01*
X51113910Y-81969441D01*
X51326110Y-82114431D01*
X51578000Y-82165440D01*
X53578000Y-82165440D01*
X53813317Y-82121162D01*
X54029441Y-81982090D01*
X54174431Y-81769890D01*
X54225440Y-81518000D01*
X54225440Y-79518000D01*
X54181162Y-79282683D01*
X54042090Y-79066559D01*
X53899439Y-78969090D01*
X53963278Y-78905363D01*
X54212716Y-78304648D01*
X54213284Y-77654205D01*
X53964894Y-77053057D01*
X53505363Y-76592722D01*
X52904648Y-76343284D01*
X52254205Y-76342716D01*
X51653057Y-76591106D01*
X51192722Y-77050637D01*
X50943284Y-77651352D01*
X50942716Y-78301795D01*
X51191106Y-78902943D01*
X51257621Y-78969574D01*
X51126559Y-79053910D01*
X50981569Y-79266110D01*
X50930560Y-79518000D01*
X50927000Y-79518000D01*
X50927000Y-72406000D01*
X50930560Y-72406000D01*
X50930560Y-74406000D01*
X50974838Y-74641317D01*
X51113910Y-74857441D01*
X51326110Y-75002431D01*
X51578000Y-75053440D01*
X53578000Y-75053440D01*
X53813317Y-75009162D01*
X54029441Y-74870090D01*
X54174431Y-74657890D01*
X54225440Y-74406000D01*
X54225440Y-72406000D01*
X54181162Y-72170683D01*
X54042090Y-71954559D01*
X53899439Y-71857090D01*
X53963278Y-71793363D01*
X54212716Y-71192648D01*
X54213284Y-70542205D01*
X53964894Y-69941057D01*
X53505363Y-69480722D01*
X53220135Y-69362285D01*
X67448760Y-69362285D01*
X67659169Y-69871515D01*
X67699000Y-69911415D01*
X67699000Y-71882000D01*
X67785397Y-72316346D01*
X67977042Y-72603162D01*
X68031434Y-72684566D01*
X71587434Y-76240566D01*
X71955654Y-76486603D01*
X72390000Y-76573000D01*
X103886000Y-76573000D01*
X104320346Y-76486603D01*
X104688566Y-76240566D01*
X110929132Y-70000000D01*
X115908560Y-70000000D01*
X115908560Y-72000000D01*
X115952838Y-72235317D01*
X116091910Y-72451441D01*
X116304110Y-72596431D01*
X116556000Y-72647440D01*
X116967000Y-72647440D01*
X116967000Y-75388048D01*
X116821180Y-75739223D01*
X116820821Y-76150971D01*
X116978058Y-76531515D01*
X117268954Y-76822919D01*
X117649223Y-76980820D01*
X118060971Y-76981179D01*
X118441515Y-76823942D01*
X118732919Y-76533046D01*
X118890820Y-76152777D01*
X118891179Y-75741029D01*
X118745000Y-75387248D01*
X118745000Y-72647440D01*
X120556000Y-72647440D01*
X120791317Y-72603162D01*
X121007441Y-72464090D01*
X121152431Y-72251890D01*
X121203440Y-72000000D01*
X121203440Y-70000000D01*
X121496560Y-70000000D01*
X121496560Y-72000000D01*
X121540838Y-72235317D01*
X121679910Y-72451441D01*
X121892110Y-72596431D01*
X122144000Y-72647440D01*
X126144000Y-72647440D01*
X126379317Y-72603162D01*
X126595441Y-72464090D01*
X126740431Y-72251890D01*
X126791440Y-72000000D01*
X126791440Y-70000000D01*
X127084560Y-70000000D01*
X127084560Y-72000000D01*
X127128838Y-72235317D01*
X127267910Y-72451441D01*
X127480110Y-72596431D01*
X127732000Y-72647440D01*
X131732000Y-72647440D01*
X131967317Y-72603162D01*
X132183441Y-72464090D01*
X132328431Y-72251890D01*
X132379440Y-72000000D01*
X132379440Y-70000000D01*
X132672560Y-70000000D01*
X132672560Y-72000000D01*
X132716838Y-72235317D01*
X132855910Y-72451441D01*
X133068110Y-72596431D01*
X133320000Y-72647440D01*
X137320000Y-72647440D01*
X137555317Y-72603162D01*
X137771441Y-72464090D01*
X137916431Y-72251890D01*
X137967440Y-72000000D01*
X137967440Y-71285750D01*
X138273000Y-71285750D01*
X138273000Y-72126310D01*
X138369673Y-72359699D01*
X138548302Y-72538327D01*
X138781691Y-72635000D01*
X140622250Y-72635000D01*
X140781000Y-72476250D01*
X140781000Y-71127000D01*
X141035000Y-71127000D01*
X141035000Y-72476250D01*
X141193750Y-72635000D01*
X143034309Y-72635000D01*
X143267698Y-72538327D01*
X143446327Y-72359699D01*
X143543000Y-72126310D01*
X143543000Y-71285750D01*
X143384250Y-71127000D01*
X141035000Y-71127000D01*
X140781000Y-71127000D01*
X138431750Y-71127000D01*
X138273000Y-71285750D01*
X137967440Y-71285750D01*
X137967440Y-70000000D01*
X137943674Y-69873690D01*
X138273000Y-69873690D01*
X138273000Y-70714250D01*
X138431750Y-70873000D01*
X140781000Y-70873000D01*
X140781000Y-69523750D01*
X141035000Y-69523750D01*
X141035000Y-70873000D01*
X143384250Y-70873000D01*
X143543000Y-70714250D01*
X143543000Y-69873690D01*
X143446327Y-69640301D01*
X143267698Y-69461673D01*
X143034309Y-69365000D01*
X141193750Y-69365000D01*
X141035000Y-69523750D01*
X140781000Y-69523750D01*
X140622250Y-69365000D01*
X138781691Y-69365000D01*
X138548302Y-69461673D01*
X138369673Y-69640301D01*
X138273000Y-69873690D01*
X137943674Y-69873690D01*
X137923162Y-69764683D01*
X137784090Y-69548559D01*
X137571890Y-69403569D01*
X137320000Y-69352560D01*
X133320000Y-69352560D01*
X133084683Y-69396838D01*
X132868559Y-69535910D01*
X132723569Y-69748110D01*
X132672560Y-70000000D01*
X132379440Y-70000000D01*
X132335162Y-69764683D01*
X132196090Y-69548559D01*
X131983890Y-69403569D01*
X131732000Y-69352560D01*
X127732000Y-69352560D01*
X127496683Y-69396838D01*
X127280559Y-69535910D01*
X127135569Y-69748110D01*
X127084560Y-70000000D01*
X126791440Y-70000000D01*
X126747162Y-69764683D01*
X126608090Y-69548559D01*
X126395890Y-69403569D01*
X126144000Y-69352560D01*
X122144000Y-69352560D01*
X121908683Y-69396838D01*
X121692559Y-69535910D01*
X121547569Y-69748110D01*
X121496560Y-70000000D01*
X121203440Y-70000000D01*
X121159162Y-69764683D01*
X121020090Y-69548559D01*
X120807890Y-69403569D01*
X120556000Y-69352560D01*
X116556000Y-69352560D01*
X116320683Y-69396838D01*
X116104559Y-69535910D01*
X115959569Y-69748110D01*
X115908560Y-70000000D01*
X110929132Y-70000000D01*
X113510366Y-67418766D01*
X117081300Y-67418766D01*
X117515646Y-67332369D01*
X117883866Y-67086332D01*
X118129903Y-66718112D01*
X118216300Y-66283766D01*
X118216300Y-66046449D01*
X118678393Y-65585161D01*
X118965972Y-64892595D01*
X118965974Y-64889305D01*
X120275974Y-64889305D01*
X120562343Y-65582372D01*
X121092139Y-66113093D01*
X121784705Y-66400672D01*
X122534605Y-66401326D01*
X123227672Y-66114957D01*
X123758393Y-65585161D01*
X124045972Y-64892595D01*
X124046626Y-64142695D01*
X123760257Y-63449628D01*
X123230461Y-62918907D01*
X122537895Y-62631328D01*
X121787995Y-62630674D01*
X121094928Y-62917043D01*
X120564207Y-63446839D01*
X120276628Y-64139405D01*
X120275974Y-64889305D01*
X118965974Y-64889305D01*
X118966626Y-64142695D01*
X118680257Y-63449628D01*
X118150461Y-62918907D01*
X117457895Y-62631328D01*
X116707995Y-62630674D01*
X116014928Y-62917043D01*
X115484207Y-63446839D01*
X115196628Y-64139405D01*
X115195974Y-64889305D01*
X115303181Y-65148766D01*
X113040234Y-65148766D01*
X112605888Y-65235163D01*
X112598429Y-65240147D01*
X112645440Y-65008000D01*
X112645440Y-63008000D01*
X112601162Y-62772683D01*
X112462090Y-62556559D01*
X112249890Y-62411569D01*
X111998000Y-62360560D01*
X109998000Y-62360560D01*
X109762683Y-62404838D01*
X109546559Y-62543910D01*
X109401569Y-62756110D01*
X109398958Y-62769002D01*
X109332264Y-62588613D01*
X108722539Y-62362092D01*
X108072540Y-62386144D01*
X107583736Y-62588613D01*
X107485073Y-62855468D01*
X108458000Y-63828395D01*
X108472143Y-63814253D01*
X108651748Y-63993858D01*
X108637605Y-64008000D01*
X108651748Y-64022143D01*
X108472143Y-64201748D01*
X108458000Y-64187605D01*
X107485073Y-65160532D01*
X107583736Y-65427387D01*
X108193461Y-65653908D01*
X108843460Y-65629856D01*
X109332264Y-65427387D01*
X109398319Y-65248727D01*
X109533910Y-65459441D01*
X109746110Y-65604431D01*
X109998000Y-65655440D01*
X111998000Y-65655440D01*
X112078593Y-65640275D01*
X103415868Y-74303000D01*
X94578345Y-74303000D01*
X96306566Y-72574779D01*
X96552603Y-72206559D01*
X96566638Y-72136000D01*
X96639000Y-71772213D01*
X96639000Y-71535204D01*
X96889278Y-71285363D01*
X97138716Y-70684648D01*
X97139284Y-70034205D01*
X96890894Y-69433057D01*
X96431363Y-68972722D01*
X95830648Y-68723284D01*
X95180205Y-68722716D01*
X94579057Y-68971106D01*
X94512426Y-69037621D01*
X94428090Y-68906559D01*
X94215890Y-68761569D01*
X93964000Y-68710560D01*
X91964000Y-68710560D01*
X91728683Y-68754838D01*
X91512559Y-68893910D01*
X91367569Y-69106110D01*
X91343898Y-69223000D01*
X90424006Y-69223000D01*
X89989660Y-69309397D01*
X89650660Y-69535910D01*
X89621440Y-69555434D01*
X88172067Y-71004807D01*
X88117721Y-71004760D01*
X87608491Y-71215169D01*
X87218545Y-71604436D01*
X87007247Y-72113298D01*
X87007039Y-72352003D01*
X86982889Y-72327853D01*
X86983240Y-71925915D01*
X86772831Y-71416685D01*
X86383564Y-71026739D01*
X86131188Y-70921944D01*
X90464566Y-66588566D01*
X90512261Y-66517185D01*
X90710603Y-66220346D01*
X90797000Y-65786000D01*
X90797000Y-64331795D01*
X104282716Y-64331795D01*
X104531106Y-64932943D01*
X104990637Y-65393278D01*
X105591352Y-65642716D01*
X106241795Y-65643284D01*
X106842943Y-65394894D01*
X107270562Y-64968022D01*
X107305468Y-64980927D01*
X108278395Y-64008000D01*
X107305468Y-63035073D01*
X107270062Y-63048164D01*
X106845363Y-62622722D01*
X106244648Y-62373284D01*
X105594205Y-62372716D01*
X104993057Y-62621106D01*
X104532722Y-63080637D01*
X104283284Y-63681352D01*
X104282716Y-64331795D01*
X90797000Y-64331795D01*
X90797000Y-60767958D01*
X90835461Y-60729564D01*
X91046759Y-60220702D01*
X91047240Y-59669715D01*
X90836831Y-59160485D01*
X90447564Y-58770539D01*
X89938702Y-58559241D01*
X89387715Y-58558760D01*
X88878485Y-58769169D01*
X88488539Y-59158436D01*
X88277241Y-59667298D01*
X88276760Y-60218285D01*
X88487169Y-60727515D01*
X88527000Y-60767415D01*
X88527000Y-65315868D01*
X85213440Y-68629428D01*
X85213440Y-65502000D01*
X85169162Y-65266683D01*
X85030090Y-65050559D01*
X84817890Y-64905569D01*
X84566000Y-64854560D01*
X82566000Y-64854560D01*
X82330683Y-64898838D01*
X82114559Y-65037910D01*
X81969569Y-65250110D01*
X81918560Y-65502000D01*
X81918560Y-65946000D01*
X81667440Y-65946000D01*
X81667440Y-65708000D01*
X81623162Y-65472683D01*
X81484090Y-65256559D01*
X81271890Y-65111569D01*
X81020000Y-65060560D01*
X80270000Y-65060560D01*
X80034683Y-65104838D01*
X80002762Y-65125379D01*
X79876309Y-65073000D01*
X79660750Y-65073000D01*
X79502000Y-65231750D01*
X79502000Y-66581000D01*
X79522000Y-66581000D01*
X79522000Y-66835000D01*
X79502000Y-66835000D01*
X79502000Y-66855000D01*
X79248000Y-66855000D01*
X79248000Y-66835000D01*
X79228000Y-66835000D01*
X79228000Y-66581000D01*
X79248000Y-66581000D01*
X79248000Y-65231750D01*
X79089250Y-65073000D01*
X78873691Y-65073000D01*
X78750266Y-65124125D01*
X78731890Y-65111569D01*
X78480000Y-65060560D01*
X77730000Y-65060560D01*
X77494683Y-65104838D01*
X77472721Y-65118970D01*
X77461890Y-65111569D01*
X77210000Y-65060560D01*
X76460000Y-65060560D01*
X76224683Y-65104838D01*
X76008559Y-65243910D01*
X75863569Y-65456110D01*
X75848082Y-65532589D01*
X75673890Y-65413569D01*
X75422000Y-65362560D01*
X73422000Y-65362560D01*
X73186683Y-65406838D01*
X72970559Y-65545910D01*
X72825569Y-65758110D01*
X72774560Y-66010000D01*
X72774560Y-70010000D01*
X72818838Y-70245317D01*
X72829905Y-70262515D01*
X72436399Y-70425107D01*
X72294831Y-70082485D01*
X71905564Y-69692539D01*
X71396702Y-69481241D01*
X70845715Y-69480760D01*
X70336485Y-69691169D01*
X69969000Y-70058014D01*
X69969000Y-69911958D01*
X70007461Y-69873564D01*
X70218759Y-69364702D01*
X70219240Y-68813715D01*
X70008831Y-68304485D01*
X69619564Y-67914539D01*
X69110702Y-67703241D01*
X68559715Y-67702760D01*
X68050485Y-67913169D01*
X67660539Y-68302436D01*
X67449241Y-68811298D01*
X67448760Y-69362285D01*
X53220135Y-69362285D01*
X52904648Y-69231284D01*
X52254205Y-69230716D01*
X51653057Y-69479106D01*
X51192722Y-69938637D01*
X50943284Y-70539352D01*
X50942716Y-71189795D01*
X51191106Y-71790943D01*
X51257621Y-71857574D01*
X51126559Y-71941910D01*
X50981569Y-72154110D01*
X50930560Y-72406000D01*
X50927000Y-72406000D01*
X50927000Y-64634128D01*
X53458570Y-64634128D01*
X53836091Y-65547800D01*
X54534523Y-66247452D01*
X55447534Y-66626568D01*
X56436128Y-66627430D01*
X57349800Y-66249909D01*
X58049452Y-65551477D01*
X58133132Y-65349953D01*
X58733041Y-65950909D01*
X59517459Y-66276628D01*
X60366815Y-66277370D01*
X61151800Y-65953020D01*
X61752909Y-65352959D01*
X62078628Y-64568541D01*
X62079370Y-63719185D01*
X61755020Y-62934200D01*
X61154959Y-62333091D01*
X60370541Y-62007372D01*
X59521185Y-62006630D01*
X58736200Y-62330980D01*
X58135091Y-62931041D01*
X58133750Y-62934271D01*
X58051909Y-62736200D01*
X57353477Y-62036548D01*
X56440466Y-61657432D01*
X55451872Y-61656570D01*
X54538200Y-62034091D01*
X53838548Y-62732523D01*
X53459432Y-63645534D01*
X53458570Y-64634128D01*
X50927000Y-64634128D01*
X50927000Y-59721750D01*
X52259000Y-59721750D01*
X52259000Y-60312310D01*
X52355673Y-60545699D01*
X52534302Y-60724327D01*
X52767691Y-60821000D01*
X53308250Y-60821000D01*
X53467000Y-60662250D01*
X53467000Y-59563000D01*
X52417750Y-59563000D01*
X52259000Y-59721750D01*
X50927000Y-59721750D01*
X50927000Y-58559690D01*
X52259000Y-58559690D01*
X52259000Y-59150250D01*
X52417750Y-59309000D01*
X53467000Y-59309000D01*
X53467000Y-58209750D01*
X53308250Y-58051000D01*
X52767691Y-58051000D01*
X52534302Y-58147673D01*
X52355673Y-58326301D01*
X52259000Y-58559690D01*
X50927000Y-58559690D01*
X50927000Y-56165750D01*
X52175000Y-56165750D01*
X52175000Y-56506309D01*
X52271673Y-56739698D01*
X52450301Y-56918327D01*
X52683690Y-57015000D01*
X53224250Y-57015000D01*
X53383000Y-56856250D01*
X53383000Y-56007000D01*
X52333750Y-56007000D01*
X52175000Y-56165750D01*
X50927000Y-56165750D01*
X50927000Y-55253691D01*
X52175000Y-55253691D01*
X52175000Y-55594250D01*
X52333750Y-55753000D01*
X53383000Y-55753000D01*
X53383000Y-54903750D01*
X53224250Y-54745000D01*
X52683690Y-54745000D01*
X52450301Y-54841673D01*
X52271673Y-55020302D01*
X52175000Y-55253691D01*
X50927000Y-55253691D01*
X50927000Y-52609750D01*
X52259000Y-52609750D01*
X52259000Y-53200310D01*
X52355673Y-53433699D01*
X52534302Y-53612327D01*
X52767691Y-53709000D01*
X53308250Y-53709000D01*
X53467000Y-53550250D01*
X53467000Y-52451000D01*
X52417750Y-52451000D01*
X52259000Y-52609750D01*
X50927000Y-52609750D01*
X50927000Y-51447690D01*
X52259000Y-51447690D01*
X52259000Y-52038250D01*
X52417750Y-52197000D01*
X53467000Y-52197000D01*
X53467000Y-51097750D01*
X53308250Y-50939000D01*
X52767691Y-50939000D01*
X52534302Y-51035673D01*
X52355673Y-51214301D01*
X52259000Y-51447690D01*
X50927000Y-51447690D01*
X50927000Y-49634128D01*
X53458570Y-49634128D01*
X53836091Y-50547800D01*
X54226609Y-50939000D01*
X53879750Y-50939000D01*
X53721000Y-51097750D01*
X53721000Y-52197000D01*
X53741000Y-52197000D01*
X53741000Y-52451000D01*
X53721000Y-52451000D01*
X53721000Y-53550250D01*
X53879750Y-53709000D01*
X54420309Y-53709000D01*
X54624670Y-53624351D01*
X54692110Y-53670431D01*
X54836000Y-53699569D01*
X54836000Y-53815300D01*
X54774683Y-53826838D01*
X54558559Y-53965910D01*
X54413569Y-54178110D01*
X54362560Y-54430000D01*
X54362560Y-54755873D01*
X54336310Y-54745000D01*
X53795750Y-54745000D01*
X53637000Y-54903750D01*
X53637000Y-55753000D01*
X53657000Y-55753000D01*
X53657000Y-56007000D01*
X53637000Y-56007000D01*
X53637000Y-56856250D01*
X53795750Y-57015000D01*
X54336310Y-57015000D01*
X54362560Y-57004127D01*
X54362560Y-57330000D01*
X54406838Y-57565317D01*
X54545910Y-57781441D01*
X54758110Y-57926431D01*
X54902000Y-57955569D01*
X54902000Y-58046463D01*
X54708683Y-58082838D01*
X54625852Y-58136139D01*
X54420309Y-58051000D01*
X53879750Y-58051000D01*
X53721000Y-58209750D01*
X53721000Y-59309000D01*
X53741000Y-59309000D01*
X53741000Y-59563000D01*
X53721000Y-59563000D01*
X53721000Y-60662250D01*
X53879750Y-60821000D01*
X54420309Y-60821000D01*
X54624670Y-60736351D01*
X54692110Y-60782431D01*
X54944000Y-60833440D01*
X56344000Y-60833440D01*
X56579317Y-60789162D01*
X56795441Y-60650090D01*
X56940431Y-60437890D01*
X56991440Y-60186000D01*
X56991440Y-59599460D01*
X57078794Y-59686814D01*
X57193074Y-59572534D01*
X57291736Y-59839387D01*
X57901461Y-60065908D01*
X58551460Y-60041856D01*
X59040264Y-59839387D01*
X59138927Y-59572532D01*
X58166000Y-58599605D01*
X58151858Y-58613748D01*
X57972253Y-58434143D01*
X57986395Y-58420000D01*
X57972253Y-58405858D01*
X58151858Y-58226253D01*
X58166000Y-58240395D01*
X58180143Y-58226253D01*
X58359748Y-58405858D01*
X58345605Y-58420000D01*
X59318532Y-59392927D01*
X59585387Y-59294264D01*
X59811908Y-58684539D01*
X59796823Y-58276873D01*
X60087124Y-58277126D01*
X60086716Y-58743795D01*
X60335106Y-59344943D01*
X60794637Y-59805278D01*
X61395352Y-60054716D01*
X62045795Y-60055284D01*
X62646943Y-59806894D01*
X63107278Y-59347363D01*
X63356716Y-58746648D01*
X63357284Y-58096205D01*
X63108894Y-57495057D01*
X63009922Y-57395912D01*
X63047209Y-57388495D01*
X63309342Y-57213342D01*
X64250685Y-56271999D01*
X76041051Y-56271999D01*
X77632000Y-57862949D01*
X77632000Y-59138316D01*
X77533658Y-59236658D01*
X77358505Y-59498791D01*
X77358505Y-59498792D01*
X77321823Y-59683205D01*
X77210000Y-59660560D01*
X76460000Y-59660560D01*
X76224683Y-59704838D01*
X76115440Y-59775134D01*
X76115440Y-58436000D01*
X76071162Y-58200683D01*
X75932090Y-57984559D01*
X75719890Y-57839569D01*
X75468000Y-57788560D01*
X71468000Y-57788560D01*
X71232683Y-57832838D01*
X71016559Y-57971910D01*
X70871569Y-58184110D01*
X70820560Y-58436000D01*
X70820560Y-60436000D01*
X70864838Y-60671317D01*
X71003910Y-60887441D01*
X71216110Y-61032431D01*
X71468000Y-61083440D01*
X73360000Y-61083440D01*
X73360000Y-62484000D01*
X73421505Y-62793209D01*
X73596658Y-63055342D01*
X74612658Y-64071342D01*
X74874791Y-64246495D01*
X75184000Y-64308000D01*
X77470000Y-64308000D01*
X77779209Y-64246495D01*
X78041342Y-64071342D01*
X78676343Y-63436342D01*
X78811853Y-63233537D01*
X79649658Y-64071343D01*
X79911792Y-64246495D01*
X80221000Y-64308000D01*
X82296000Y-64308000D01*
X82605209Y-64246495D01*
X82867342Y-64071342D01*
X83883342Y-63055342D01*
X84058495Y-62793209D01*
X84120000Y-62484000D01*
X84120000Y-61083440D01*
X86012000Y-61083440D01*
X86247317Y-61039162D01*
X86463441Y-60900090D01*
X86608431Y-60687890D01*
X86659440Y-60436000D01*
X86659440Y-58436000D01*
X86615162Y-58200683D01*
X86476090Y-57984559D01*
X86263890Y-57839569D01*
X86012000Y-57788560D01*
X82012000Y-57788560D01*
X81776683Y-57832838D01*
X81560559Y-57971910D01*
X81415569Y-58184110D01*
X81364560Y-58436000D01*
X81364560Y-59774888D01*
X81271890Y-59711569D01*
X81020000Y-59660560D01*
X80270000Y-59660560D01*
X80157869Y-59681659D01*
X80121495Y-59498792D01*
X80050758Y-59392927D01*
X79946343Y-59236658D01*
X79848000Y-59138315D01*
X79848000Y-57279736D01*
X79786495Y-56970528D01*
X79785239Y-56968648D01*
X79611343Y-56708394D01*
X77991724Y-55088775D01*
X132976803Y-55088775D01*
X133149233Y-55506086D01*
X133468235Y-55825645D01*
X133885244Y-55998803D01*
X134336775Y-55999197D01*
X134699469Y-55849334D01*
X134509284Y-56307352D01*
X134508716Y-56957795D01*
X134757106Y-57558943D01*
X135216637Y-58019278D01*
X135817352Y-58268716D01*
X136467795Y-58269284D01*
X137068943Y-58020894D01*
X137075407Y-58014442D01*
X137049284Y-58077352D01*
X137048716Y-58727795D01*
X137297106Y-59328943D01*
X137756637Y-59789278D01*
X138357352Y-60038716D01*
X139007795Y-60039284D01*
X139608943Y-59790894D01*
X139843715Y-59556532D01*
X140251073Y-59556532D01*
X140349736Y-59823387D01*
X140959461Y-60049908D01*
X141609460Y-60025856D01*
X142098264Y-59823387D01*
X142196927Y-59556532D01*
X141224000Y-58583605D01*
X140251073Y-59556532D01*
X139843715Y-59556532D01*
X140036562Y-59364022D01*
X140071468Y-59376927D01*
X141044395Y-58404000D01*
X141030253Y-58389858D01*
X141209858Y-58210253D01*
X141224000Y-58224395D01*
X141238143Y-58210253D01*
X141417748Y-58389858D01*
X141403605Y-58404000D01*
X142376532Y-59376927D01*
X142643387Y-59278264D01*
X142869908Y-58668539D01*
X142845856Y-58018540D01*
X142783631Y-57868315D01*
X143078658Y-58163342D01*
X143340791Y-58338495D01*
X143408726Y-58352008D01*
X143531910Y-58543441D01*
X143700000Y-58658292D01*
X143700000Y-59074882D01*
X143572683Y-59098838D01*
X143356559Y-59237910D01*
X143211569Y-59450110D01*
X143160560Y-59702000D01*
X143160560Y-61202000D01*
X143204838Y-61437317D01*
X143343910Y-61653441D01*
X143383920Y-61680779D01*
X142548200Y-62026091D01*
X141848548Y-62724523D01*
X141764868Y-62926047D01*
X141164959Y-62325091D01*
X140380541Y-61999372D01*
X139531185Y-61998630D01*
X138746200Y-62322980D01*
X138145091Y-62923041D01*
X137819372Y-63707459D01*
X137818630Y-64556815D01*
X138142980Y-65341800D01*
X138743041Y-65942909D01*
X139527459Y-66268628D01*
X140376815Y-66269370D01*
X141161800Y-65945020D01*
X141762909Y-65344959D01*
X141764250Y-65341729D01*
X141846091Y-65539800D01*
X142544523Y-66239452D01*
X143457534Y-66618568D01*
X144446128Y-66619430D01*
X145359800Y-66241909D01*
X146059452Y-65543477D01*
X146438568Y-64630466D01*
X146439430Y-63641872D01*
X146061909Y-62728200D01*
X145363477Y-62028548D01*
X144932138Y-61849440D01*
X145208000Y-61849440D01*
X145443317Y-61805162D01*
X145526148Y-61751861D01*
X145731691Y-61837000D01*
X146272250Y-61837000D01*
X146431000Y-61678250D01*
X146431000Y-60579000D01*
X146685000Y-60579000D01*
X146685000Y-61678250D01*
X146843750Y-61837000D01*
X147384309Y-61837000D01*
X147617698Y-61740327D01*
X147796327Y-61561699D01*
X147893000Y-61328310D01*
X147893000Y-60737750D01*
X147734250Y-60579000D01*
X146685000Y-60579000D01*
X146431000Y-60579000D01*
X146411000Y-60579000D01*
X146411000Y-60325000D01*
X146431000Y-60325000D01*
X146431000Y-59225750D01*
X146685000Y-59225750D01*
X146685000Y-60325000D01*
X147734250Y-60325000D01*
X147893000Y-60166250D01*
X147893000Y-59575690D01*
X147796327Y-59342301D01*
X147617698Y-59163673D01*
X147384309Y-59067000D01*
X146843750Y-59067000D01*
X146685000Y-59225750D01*
X146431000Y-59225750D01*
X146272250Y-59067000D01*
X145731691Y-59067000D01*
X145527330Y-59151649D01*
X145459890Y-59105569D01*
X145316000Y-59076431D01*
X145316000Y-58739440D01*
X145396000Y-58739440D01*
X145631317Y-58695162D01*
X145847441Y-58556090D01*
X145992431Y-58343890D01*
X146043440Y-58092000D01*
X146043440Y-57766127D01*
X146069690Y-57777000D01*
X146610250Y-57777000D01*
X146769000Y-57618250D01*
X146769000Y-56769000D01*
X147023000Y-56769000D01*
X147023000Y-57618250D01*
X147181750Y-57777000D01*
X147722310Y-57777000D01*
X147955699Y-57680327D01*
X148134327Y-57501698D01*
X148231000Y-57268309D01*
X148231000Y-56927750D01*
X148072250Y-56769000D01*
X147023000Y-56769000D01*
X146769000Y-56769000D01*
X146749000Y-56769000D01*
X146749000Y-56515000D01*
X146769000Y-56515000D01*
X146769000Y-55665750D01*
X147023000Y-55665750D01*
X147023000Y-56515000D01*
X148072250Y-56515000D01*
X148231000Y-56356250D01*
X148231000Y-56015691D01*
X148134327Y-55782302D01*
X147955699Y-55603673D01*
X147722310Y-55507000D01*
X147181750Y-55507000D01*
X147023000Y-55665750D01*
X146769000Y-55665750D01*
X146610250Y-55507000D01*
X146069690Y-55507000D01*
X146043440Y-55517873D01*
X146043440Y-55192000D01*
X145999162Y-54956683D01*
X145860090Y-54740559D01*
X145647890Y-54595569D01*
X145396000Y-54544560D01*
X145316000Y-54544560D01*
X145316000Y-54463118D01*
X145443317Y-54439162D01*
X145526148Y-54385861D01*
X145731691Y-54471000D01*
X146272250Y-54471000D01*
X146431000Y-54312250D01*
X146431000Y-53213000D01*
X146685000Y-53213000D01*
X146685000Y-54312250D01*
X146843750Y-54471000D01*
X147384309Y-54471000D01*
X147617698Y-54374327D01*
X147796327Y-54195699D01*
X147893000Y-53962310D01*
X147893000Y-53371750D01*
X147734250Y-53213000D01*
X146685000Y-53213000D01*
X146431000Y-53213000D01*
X146411000Y-53213000D01*
X146411000Y-52959000D01*
X146431000Y-52959000D01*
X146431000Y-51859750D01*
X146685000Y-51859750D01*
X146685000Y-52959000D01*
X147734250Y-52959000D01*
X147893000Y-52800250D01*
X147893000Y-52209690D01*
X147796327Y-51976301D01*
X147617698Y-51797673D01*
X147384309Y-51701000D01*
X146843750Y-51701000D01*
X146685000Y-51859750D01*
X146431000Y-51859750D01*
X146272250Y-51701000D01*
X145731691Y-51701000D01*
X145527330Y-51785649D01*
X145459890Y-51739569D01*
X145208000Y-51688560D01*
X143808000Y-51688560D01*
X143572683Y-51732838D01*
X143356559Y-51871910D01*
X143211569Y-52084110D01*
X143160560Y-52336000D01*
X143160560Y-53836000D01*
X143204838Y-54071317D01*
X143343910Y-54287441D01*
X143556110Y-54432431D01*
X143700000Y-54461569D01*
X143700000Y-54627886D01*
X143544559Y-54727910D01*
X143437907Y-54884000D01*
X142858984Y-54884000D01*
X142859284Y-54540205D01*
X142610894Y-53939057D01*
X142151363Y-53478722D01*
X141550648Y-53229284D01*
X140900205Y-53228716D01*
X140299057Y-53477106D01*
X139953801Y-53821759D01*
X139611363Y-53478722D01*
X139010648Y-53229284D01*
X138360205Y-53228716D01*
X137759057Y-53477106D01*
X137298722Y-53936637D01*
X137249158Y-54056000D01*
X134909142Y-54056000D01*
X134755765Y-53902355D01*
X134338756Y-53729197D01*
X133887225Y-53728803D01*
X133469914Y-53901233D01*
X133150355Y-54220235D01*
X132977197Y-54637244D01*
X132976803Y-55088775D01*
X77991724Y-55088775D01*
X77195606Y-54292658D01*
X76933473Y-54117505D01*
X76624264Y-54056000D01*
X64342685Y-54056000D01*
X63055342Y-52768658D01*
X62793209Y-52593505D01*
X62484000Y-52532000D01*
X59690000Y-52532000D01*
X59380792Y-52593505D01*
X59380790Y-52593506D01*
X59380791Y-52593506D01*
X59118657Y-52768658D01*
X58609507Y-53277808D01*
X58492648Y-53229284D01*
X57842205Y-53228716D01*
X57241057Y-53477106D01*
X56793730Y-53923652D01*
X56661890Y-53833569D01*
X56452000Y-53791065D01*
X56452000Y-53701118D01*
X56579317Y-53677162D01*
X56795441Y-53538090D01*
X56940431Y-53325890D01*
X56991440Y-53074000D01*
X56991440Y-51574000D01*
X56960709Y-51410678D01*
X57349800Y-51249909D01*
X58049452Y-50551477D01*
X58133132Y-50349953D01*
X58733041Y-50950909D01*
X59517459Y-51276628D01*
X60366815Y-51277370D01*
X61151800Y-50953020D01*
X61752909Y-50352959D01*
X62078628Y-49568541D01*
X62078638Y-49556815D01*
X137818630Y-49556815D01*
X138142980Y-50341800D01*
X138743041Y-50942909D01*
X139527459Y-51268628D01*
X140376815Y-51269370D01*
X141161800Y-50945020D01*
X141762909Y-50344959D01*
X141764250Y-50341729D01*
X141846091Y-50539800D01*
X142544523Y-51239452D01*
X143457534Y-51618568D01*
X144446128Y-51619430D01*
X145359800Y-51241909D01*
X146059452Y-50543477D01*
X146438568Y-49630466D01*
X146439430Y-48641872D01*
X146061909Y-47728200D01*
X145363477Y-47028548D01*
X144450466Y-46649432D01*
X143461872Y-46648570D01*
X142548200Y-47026091D01*
X141848548Y-47724523D01*
X141764868Y-47926047D01*
X141164959Y-47325091D01*
X140380541Y-46999372D01*
X139531185Y-46998630D01*
X138746200Y-47322980D01*
X138145091Y-47923041D01*
X137819372Y-48707459D01*
X137818630Y-49556815D01*
X62078638Y-49556815D01*
X62079370Y-48719185D01*
X61755020Y-47934200D01*
X61154959Y-47333091D01*
X60370541Y-47007372D01*
X59521185Y-47006630D01*
X58736200Y-47330980D01*
X58135091Y-47931041D01*
X58133750Y-47934271D01*
X58051909Y-47736200D01*
X57353477Y-47036548D01*
X56440466Y-46657432D01*
X55451872Y-46656570D01*
X54538200Y-47034091D01*
X53838548Y-47732523D01*
X53459432Y-48645534D01*
X53458570Y-49634128D01*
X50927000Y-49634128D01*
X50927000Y-44831000D01*
X64797392Y-44831000D01*
X64357822Y-45269803D01*
G36*
X80645000Y-78538606D02*
X80645000Y-81534000D01*
X80654334Y-81581789D01*
X80682197Y-81623803D01*
X81190197Y-82131803D01*
X81230590Y-82158994D01*
X81280000Y-82169000D01*
X81735394Y-82169000D01*
X82677000Y-83110606D01*
X82677000Y-85799394D01*
X81881534Y-86594860D01*
X81837029Y-86594821D01*
X81456485Y-86752058D01*
X81213119Y-86995000D01*
X80479856Y-86995000D01*
X80417546Y-86932581D01*
X80037277Y-86774680D01*
X79625529Y-86774321D01*
X79244985Y-86931558D01*
X79181432Y-86995000D01*
X78994000Y-86995000D01*
X78946211Y-87004334D01*
X78904197Y-87032197D01*
X78650197Y-87286197D01*
X78623006Y-87326590D01*
X78613000Y-87376000D01*
X78613000Y-90170000D01*
X78621685Y-90216159D01*
X78648965Y-90258553D01*
X78690590Y-90286994D01*
X78740000Y-90297000D01*
X78790304Y-90297000D01*
X78827910Y-90355441D01*
X79040110Y-90500431D01*
X79292000Y-90551440D01*
X80692000Y-90551440D01*
X80927317Y-90507162D01*
X81010148Y-90453861D01*
X81215691Y-90539000D01*
X81756250Y-90539000D01*
X81914998Y-90380252D01*
X81914998Y-90539000D01*
X81987140Y-90539000D01*
X81927081Y-90598954D01*
X81769180Y-90979223D01*
X81768821Y-91390971D01*
X81919274Y-91755096D01*
X81345810Y-92328560D01*
X80326000Y-92328560D01*
X80090683Y-92372838D01*
X79874559Y-92511910D01*
X79729569Y-92724110D01*
X79678560Y-92976000D01*
X79678560Y-94476000D01*
X79722838Y-94711317D01*
X79861910Y-94927441D01*
X79961860Y-94995734D01*
X79874559Y-95051910D01*
X79729569Y-95264110D01*
X79680990Y-95504000D01*
X76724674Y-95504000D01*
X76433069Y-95562004D01*
X76185858Y-95727185D01*
X75403747Y-96509297D01*
X75241369Y-96509155D01*
X74860825Y-96666392D01*
X74569421Y-96957288D01*
X74422625Y-97310813D01*
X74417723Y-97315715D01*
X74225012Y-97604127D01*
X74157341Y-97944333D01*
X74157341Y-99083423D01*
X72771000Y-100469764D01*
X72771000Y-95250000D01*
X72762315Y-95203841D01*
X72735035Y-95161447D01*
X72693410Y-95133006D01*
X72644000Y-95123000D01*
X72390000Y-95123000D01*
X72343841Y-95131685D01*
X72301447Y-95158965D01*
X72273006Y-95200590D01*
X72263000Y-95250000D01*
X72263000Y-100977764D01*
X71259764Y-101981000D01*
X70612000Y-101981000D01*
X70557384Y-101993344D01*
X70517079Y-102023626D01*
X68522969Y-104267000D01*
X62794180Y-104267000D01*
X60325000Y-101550902D01*
X60325000Y-87443968D01*
X62522452Y-85979000D01*
X68273394Y-85979000D01*
X68707000Y-86412606D01*
X68707000Y-87884000D01*
X68716334Y-87931789D01*
X68744197Y-87973803D01*
X71279230Y-90508836D01*
X72263000Y-91738549D01*
X72263000Y-94234000D01*
X72271685Y-94280159D01*
X72298965Y-94322553D01*
X72340590Y-94350994D01*
X72390000Y-94361000D01*
X72644000Y-94361000D01*
X72690159Y-94352315D01*
X72732553Y-94325035D01*
X72760994Y-94283410D01*
X72771000Y-94234000D01*
X72771000Y-91551839D01*
X73067164Y-91788770D01*
X73316197Y-92037803D01*
X73356590Y-92064994D01*
X73406000Y-92075000D01*
X74676000Y-92075000D01*
X74723789Y-92065666D01*
X74765803Y-92037803D01*
X75236606Y-91567000D01*
X78740000Y-91567000D01*
X78786159Y-91558315D01*
X78828553Y-91531035D01*
X78856994Y-91489410D01*
X78867000Y-91440000D01*
X78867000Y-91186000D01*
X78858315Y-91139841D01*
X78831035Y-91097447D01*
X78789410Y-91069006D01*
X78740000Y-91059000D01*
X75184000Y-91059000D01*
X75136211Y-91068334D01*
X75094197Y-91096197D01*
X74623394Y-91567000D01*
X73450548Y-91567000D01*
X72263000Y-90616961D01*
X72263000Y-88900000D01*
X72253666Y-88852211D01*
X72225803Y-88810197D01*
X69469000Y-86053394D01*
X69469000Y-83872606D01*
X70193803Y-83147803D01*
X70220994Y-83107410D01*
X70231000Y-83058000D01*
X70231000Y-82094606D01*
X70701803Y-81623803D01*
X70728994Y-81583410D01*
X70739000Y-81534000D01*
X70739000Y-78538606D01*
X71934606Y-77343000D01*
X79449394Y-77343000D01*
X80645000Y-78538606D01*
X80645000Y-78538606D01*
G37*
X80645000Y-78538606D02*
X80645000Y-81534000D01*
X80654334Y-81581789D01*
X80682197Y-81623803D01*
X81190197Y-82131803D01*
X81230590Y-82158994D01*
X81280000Y-82169000D01*
X81735394Y-82169000D01*
X82677000Y-83110606D01*
X82677000Y-85799394D01*
X81881534Y-86594860D01*
X81837029Y-86594821D01*
X81456485Y-86752058D01*
X81213119Y-86995000D01*
X80479856Y-86995000D01*
X80417546Y-86932581D01*
X80037277Y-86774680D01*
X79625529Y-86774321D01*
X79244985Y-86931558D01*
X79181432Y-86995000D01*
X78994000Y-86995000D01*
X78946211Y-87004334D01*
X78904197Y-87032197D01*
X78650197Y-87286197D01*
X78623006Y-87326590D01*
X78613000Y-87376000D01*
X78613000Y-90170000D01*
X78621685Y-90216159D01*
X78648965Y-90258553D01*
X78690590Y-90286994D01*
X78740000Y-90297000D01*
X78790304Y-90297000D01*
X78827910Y-90355441D01*
X79040110Y-90500431D01*
X79292000Y-90551440D01*
X80692000Y-90551440D01*
X80927317Y-90507162D01*
X81010148Y-90453861D01*
X81215691Y-90539000D01*
X81756250Y-90539000D01*
X81914998Y-90380252D01*
X81914998Y-90539000D01*
X81987140Y-90539000D01*
X81927081Y-90598954D01*
X81769180Y-90979223D01*
X81768821Y-91390971D01*
X81919274Y-91755096D01*
X81345810Y-92328560D01*
X80326000Y-92328560D01*
X80090683Y-92372838D01*
X79874559Y-92511910D01*
X79729569Y-92724110D01*
X79678560Y-92976000D01*
X79678560Y-94476000D01*
X79722838Y-94711317D01*
X79861910Y-94927441D01*
X79961860Y-94995734D01*
X79874559Y-95051910D01*
X79729569Y-95264110D01*
X79680990Y-95504000D01*
X76724674Y-95504000D01*
X76433069Y-95562004D01*
X76185858Y-95727185D01*
X75403747Y-96509297D01*
X75241369Y-96509155D01*
X74860825Y-96666392D01*
X74569421Y-96957288D01*
X74422625Y-97310813D01*
X74417723Y-97315715D01*
X74225012Y-97604127D01*
X74157341Y-97944333D01*
X74157341Y-99083423D01*
X72771000Y-100469764D01*
X72771000Y-95250000D01*
X72762315Y-95203841D01*
X72735035Y-95161447D01*
X72693410Y-95133006D01*
X72644000Y-95123000D01*
X72390000Y-95123000D01*
X72343841Y-95131685D01*
X72301447Y-95158965D01*
X72273006Y-95200590D01*
X72263000Y-95250000D01*
X72263000Y-100977764D01*
X71259764Y-101981000D01*
X70612000Y-101981000D01*
X70557384Y-101993344D01*
X70517079Y-102023626D01*
X68522969Y-104267000D01*
X62794180Y-104267000D01*
X60325000Y-101550902D01*
X60325000Y-87443968D01*
X62522452Y-85979000D01*
X68273394Y-85979000D01*
X68707000Y-86412606D01*
X68707000Y-87884000D01*
X68716334Y-87931789D01*
X68744197Y-87973803D01*
X71279230Y-90508836D01*
X72263000Y-91738549D01*
X72263000Y-94234000D01*
X72271685Y-94280159D01*
X72298965Y-94322553D01*
X72340590Y-94350994D01*
X72390000Y-94361000D01*
X72644000Y-94361000D01*
X72690159Y-94352315D01*
X72732553Y-94325035D01*
X72760994Y-94283410D01*
X72771000Y-94234000D01*
X72771000Y-91551839D01*
X73067164Y-91788770D01*
X73316197Y-92037803D01*
X73356590Y-92064994D01*
X73406000Y-92075000D01*
X74676000Y-92075000D01*
X74723789Y-92065666D01*
X74765803Y-92037803D01*
X75236606Y-91567000D01*
X78740000Y-91567000D01*
X78786159Y-91558315D01*
X78828553Y-91531035D01*
X78856994Y-91489410D01*
X78867000Y-91440000D01*
X78867000Y-91186000D01*
X78858315Y-91139841D01*
X78831035Y-91097447D01*
X78789410Y-91069006D01*
X78740000Y-91059000D01*
X75184000Y-91059000D01*
X75136211Y-91068334D01*
X75094197Y-91096197D01*
X74623394Y-91567000D01*
X73450548Y-91567000D01*
X72263000Y-90616961D01*
X72263000Y-88900000D01*
X72253666Y-88852211D01*
X72225803Y-88810197D01*
X69469000Y-86053394D01*
X69469000Y-83872606D01*
X70193803Y-83147803D01*
X70220994Y-83107410D01*
X70231000Y-83058000D01*
X70231000Y-82094606D01*
X70701803Y-81623803D01*
X70728994Y-81583410D01*
X70739000Y-81534000D01*
X70739000Y-78538606D01*
X71934606Y-77343000D01*
X79449394Y-77343000D01*
X80645000Y-78538606D01*
G36*
X81918560Y-69502000D02*
X81962838Y-69737317D01*
X82101910Y-69953441D01*
X82314110Y-70098431D01*
X82566000Y-70149440D01*
X83693428Y-70149440D01*
X81063868Y-72779000D01*
X80953026Y-72779000D01*
X80994327Y-72737699D01*
X81091000Y-72504310D01*
X81091000Y-71913750D01*
X80932250Y-71755000D01*
X79883000Y-71755000D01*
X79883000Y-71775000D01*
X79629000Y-71775000D01*
X79629000Y-71755000D01*
X79609000Y-71755000D01*
X79609000Y-71501000D01*
X79629000Y-71501000D01*
X79629000Y-70401750D01*
X79585250Y-70358000D01*
X79629000Y-70314250D01*
X79629000Y-69215000D01*
X79883000Y-69215000D01*
X79883000Y-70314250D01*
X79926750Y-70358000D01*
X79883000Y-70401750D01*
X79883000Y-71501000D01*
X80932250Y-71501000D01*
X81091000Y-71342250D01*
X81091000Y-70751690D01*
X80994327Y-70518301D01*
X80834025Y-70358000D01*
X80994327Y-70197699D01*
X81091000Y-69964310D01*
X81091000Y-69373750D01*
X80932250Y-69215000D01*
X79883000Y-69215000D01*
X79629000Y-69215000D01*
X79609000Y-69215000D01*
X79609000Y-68961000D01*
X79629000Y-68961000D01*
X79629000Y-68941000D01*
X79883000Y-68941000D01*
X79883000Y-68961000D01*
X80932250Y-68961000D01*
X81091000Y-68802250D01*
X81091000Y-68342080D01*
X81255317Y-68311162D01*
X81471441Y-68172090D01*
X81616431Y-67959890D01*
X81667440Y-67708000D01*
X81667440Y-67564000D01*
X81918560Y-67564000D01*
X81918560Y-69502000D01*
X81918560Y-69502000D01*
G37*
X81918560Y-69502000D02*
X81962838Y-69737317D01*
X82101910Y-69953441D01*
X82314110Y-70098431D01*
X82566000Y-70149440D01*
X83693428Y-70149440D01*
X81063868Y-72779000D01*
X80953026Y-72779000D01*
X80994327Y-72737699D01*
X81091000Y-72504310D01*
X81091000Y-71913750D01*
X80932250Y-71755000D01*
X79883000Y-71755000D01*
X79883000Y-71775000D01*
X79629000Y-71775000D01*
X79629000Y-71755000D01*
X79609000Y-71755000D01*
X79609000Y-71501000D01*
X79629000Y-71501000D01*
X79629000Y-70401750D01*
X79585250Y-70358000D01*
X79629000Y-70314250D01*
X79629000Y-69215000D01*
X79883000Y-69215000D01*
X79883000Y-70314250D01*
X79926750Y-70358000D01*
X79883000Y-70401750D01*
X79883000Y-71501000D01*
X80932250Y-71501000D01*
X81091000Y-71342250D01*
X81091000Y-70751690D01*
X80994327Y-70518301D01*
X80834025Y-70358000D01*
X80994327Y-70197699D01*
X81091000Y-69964310D01*
X81091000Y-69373750D01*
X80932250Y-69215000D01*
X79883000Y-69215000D01*
X79629000Y-69215000D01*
X79609000Y-69215000D01*
X79609000Y-68961000D01*
X79629000Y-68961000D01*
X79629000Y-68941000D01*
X79883000Y-68941000D01*
X79883000Y-68961000D01*
X80932250Y-68961000D01*
X81091000Y-68802250D01*
X81091000Y-68342080D01*
X81255317Y-68311162D01*
X81471441Y-68172090D01*
X81616431Y-67959890D01*
X81667440Y-67708000D01*
X81667440Y-67564000D01*
X81918560Y-67564000D01*
X81918560Y-69502000D01*
M02*
