G04 #@! TF.FileFunction,Copper,L1,Top,Signal*
%FSLAX46Y46*%
G04 Gerber Fmt 4.6, Leading zero omitted, Abs format (unit mm)*
G04 Created by KiCad (PCBNEW 4.0.5+dfsg1-4) date Sun May  7 16:42:39 2017*
%MOMM*%
%LPD*%
G01*
G04 APERTURE LIST*
%ADD10C,0.100000*%
%ADD11C,3.900000*%
%ADD12R,1.500000X0.300000*%
%ADD13R,0.300000X1.500000*%
%ADD14R,1.500000X1.400000*%
%ADD15R,1.400000X1.500000*%
%ADD16C,2.500000*%
%ADD17R,2.000000X1.300000*%
%ADD18R,2.000000X2.000000*%
%ADD19C,2.000000*%
%ADD20R,2.250000X1.000000*%
%ADD21R,2.250000X3.500000*%
%ADD22R,2.000000X1.600000*%
%ADD23R,2.500000X6.600000*%
%ADD24R,1.600000X1.900000*%
%ADD25R,4.000000X2.000000*%
%ADD26R,2.000000X4.000000*%
%ADD27C,3.000000*%
%ADD28C,3.700000*%
%ADD29C,1.000000*%
%ADD30C,0.800000*%
%ADD31C,1.500000*%
%ADD32C,0.346000*%
%ADD33C,0.508000*%
%ADD34C,0.254000*%
%ADD35C,1.000000*%
%ADD36C,2.000000*%
G04 APERTURE END LIST*
D10*
D11*
X130048000Y-46736000D03*
D12*
X79830500Y-91363800D03*
X79830500Y-91863800D03*
X79830500Y-92363800D03*
X79830500Y-92863800D03*
X79830500Y-93363800D03*
X79830500Y-93863800D03*
X79830500Y-94363800D03*
X79830500Y-94863800D03*
X79830500Y-95363800D03*
X79830500Y-95863800D03*
X79830500Y-96363800D03*
X79830500Y-96863800D03*
X79830500Y-97363800D03*
X79830500Y-97863800D03*
X79830500Y-98363800D03*
X79830500Y-98863800D03*
X91630500Y-98363800D03*
X91630500Y-97863800D03*
X91630500Y-97363800D03*
X91630500Y-96863800D03*
X91630500Y-96363800D03*
X91630500Y-95863800D03*
X91630500Y-95363800D03*
X91630500Y-94863800D03*
X91630500Y-94363800D03*
X91630500Y-93863800D03*
X91630500Y-93363800D03*
X91630500Y-92863800D03*
X91630500Y-92363800D03*
X91630500Y-91863800D03*
X91630500Y-91363800D03*
X91630500Y-98863800D03*
D13*
X81980500Y-101013800D03*
X82480500Y-101013800D03*
X82980500Y-101013800D03*
X83480500Y-101013800D03*
X83980500Y-101013800D03*
X84480500Y-101013800D03*
X84980500Y-101013800D03*
X85480500Y-101013800D03*
X85980500Y-101013800D03*
X86480500Y-101013800D03*
X86980500Y-101013800D03*
X87480500Y-101013800D03*
X87980500Y-101013800D03*
X88480500Y-101013800D03*
X88980500Y-101013800D03*
X89480500Y-101013800D03*
X89480500Y-89213800D03*
X88980500Y-89213800D03*
X88480500Y-89213800D03*
X87980500Y-89213800D03*
X87480500Y-89213800D03*
X86980500Y-89213800D03*
X86480500Y-89213800D03*
X85980500Y-89213800D03*
X85480500Y-89213800D03*
X84980500Y-89213800D03*
X84480500Y-89213800D03*
X83980500Y-89213800D03*
X83480500Y-89213800D03*
X82980500Y-89213800D03*
X82480500Y-89213800D03*
X81980500Y-89213800D03*
D14*
X71056500Y-82709800D03*
X71056500Y-84759800D03*
X80200500Y-84777800D03*
X80200500Y-82727800D03*
X62166500Y-102049800D03*
X62166500Y-99999800D03*
X62166500Y-89857800D03*
X62166500Y-87807800D03*
D15*
X136144000Y-88392000D03*
X134094000Y-88392000D03*
X100820000Y-88646000D03*
X102870000Y-88646000D03*
X142766000Y-101981000D03*
X140716000Y-101981000D03*
X94742000Y-58166000D03*
X92692000Y-58166000D03*
X108712000Y-71120000D03*
X110762000Y-71120000D03*
X106444000Y-71120000D03*
X104394000Y-71120000D03*
X96774000Y-58166000D03*
X98824000Y-58166000D03*
D14*
X77724000Y-64498000D03*
X77724000Y-66548000D03*
X108712000Y-98788000D03*
X108712000Y-100838000D03*
X105918000Y-98788000D03*
X105918000Y-100838000D03*
X103124000Y-98788000D03*
X103124000Y-100838000D03*
D15*
X123431300Y-60706000D03*
X121381300Y-60706000D03*
X109982000Y-58166000D03*
X107932000Y-58166000D03*
D14*
X88392000Y-69088000D03*
X88392000Y-67038000D03*
D16*
X122161300Y-64516000D03*
X117081300Y-64516000D03*
D14*
X74104500Y-89426000D03*
X74104500Y-87376000D03*
X70294500Y-97949800D03*
X70294500Y-99999800D03*
D15*
X131082000Y-81610200D03*
X129032000Y-81610200D03*
X134112000Y-85598000D03*
X136162000Y-85598000D03*
X105156000Y-81788000D03*
X103106000Y-81788000D03*
X102870000Y-84074000D03*
X100820000Y-84074000D03*
X142766000Y-99314000D03*
X140716000Y-99314000D03*
D14*
X108712000Y-93980000D03*
X108712000Y-96030000D03*
X105918000Y-93980000D03*
X105918000Y-96030000D03*
X103124000Y-93962000D03*
X103124000Y-96012000D03*
D15*
X142766000Y-96520000D03*
X140716000Y-96520000D03*
X118351300Y-60706000D03*
X116301300Y-60706000D03*
X105410000Y-58166000D03*
X103360000Y-58166000D03*
D14*
X88392000Y-64770000D03*
X88392000Y-62720000D03*
D15*
X130538000Y-56896000D03*
X132588000Y-56896000D03*
D14*
X80264000Y-68580000D03*
X80264000Y-66530000D03*
D17*
X131101600Y-88432200D03*
X131101600Y-83932200D03*
X123101600Y-83932200D03*
X123101600Y-88432200D03*
X113474000Y-88610000D03*
X113474000Y-84110000D03*
X105474000Y-84110000D03*
X105474000Y-88610000D03*
D18*
X110998000Y-64008000D03*
D19*
X108458000Y-64008000D03*
X105918000Y-64008000D03*
D20*
X98912000Y-61708000D03*
X98912000Y-64008000D03*
D21*
X93112000Y-64008000D03*
D20*
X98912000Y-66308000D03*
D22*
X77404500Y-84821800D03*
X77404500Y-79171800D03*
X74104500Y-79171800D03*
X74104500Y-84821800D03*
D23*
X66230500Y-99919800D03*
X66230500Y-89919800D03*
D14*
X65278000Y-58946000D03*
X65278000Y-56896000D03*
D24*
X80264000Y-59436000D03*
X77164000Y-59436000D03*
D18*
X52578000Y-87630000D03*
D19*
X52578000Y-85090000D03*
D18*
X52578000Y-94742000D03*
D19*
X52578000Y-92202000D03*
D18*
X52578000Y-101854000D03*
D19*
X52578000Y-99314000D03*
D18*
X52578000Y-80518000D03*
D19*
X52578000Y-77978000D03*
D18*
X52578000Y-73406000D03*
D19*
X52578000Y-70866000D03*
D18*
X52578000Y-108966000D03*
D19*
X52578000Y-106426000D03*
D18*
X53086000Y-115062000D03*
D19*
X55626000Y-115062000D03*
X58166000Y-115062000D03*
X60706000Y-115062000D03*
X63246000Y-115062000D03*
X65786000Y-115062000D03*
X68326000Y-115062000D03*
X70866000Y-115062000D03*
X73406000Y-115062000D03*
X78486000Y-115062000D03*
X75946000Y-115062000D03*
X81026000Y-115062000D03*
X83566000Y-115062000D03*
X86106000Y-115062000D03*
X88646000Y-115062000D03*
X91186000Y-115062000D03*
X93726000Y-115062000D03*
X96266000Y-115062000D03*
X98806000Y-115062000D03*
X101346000Y-115062000D03*
X103886000Y-115062000D03*
X106426000Y-115062000D03*
X108966000Y-115062000D03*
X111506000Y-115062000D03*
X114046000Y-115062000D03*
X116586000Y-115062000D03*
X119126000Y-115062000D03*
X121666000Y-115062000D03*
X124206000Y-115062000D03*
X126746000Y-115062000D03*
X129286000Y-115062000D03*
X131826000Y-115062000D03*
X134366000Y-115062000D03*
X136906000Y-115062000D03*
X139446000Y-115062000D03*
X141986000Y-115062000D03*
X144526000Y-115062000D03*
X147066000Y-115062000D03*
D18*
X72644000Y-108712000D03*
D19*
X75184000Y-108712000D03*
X77724000Y-108712000D03*
D25*
X136336000Y-96520000D03*
X136336000Y-99314000D03*
X135320000Y-71000000D03*
X124144000Y-71000000D03*
X129732000Y-71000000D03*
X84012000Y-59436000D03*
D26*
X83566000Y-67502000D03*
D25*
X73468000Y-59436000D03*
D26*
X74422000Y-68010000D03*
D25*
X136336000Y-102108000D03*
X118556000Y-71000000D03*
X140908000Y-71000000D03*
D11*
X66548000Y-46736000D03*
D18*
X146050000Y-77216000D03*
D19*
X146050000Y-79756000D03*
X146050000Y-82296000D03*
X146050000Y-84836000D03*
X146050000Y-87376000D03*
X146050000Y-89916000D03*
D18*
X146050000Y-101854000D03*
D19*
X146050000Y-99314000D03*
X146050000Y-96774000D03*
D18*
X92964000Y-70358000D03*
D19*
X95504000Y-70358000D03*
X136144000Y-56634000D03*
X138684000Y-58404000D03*
X138684000Y-54864000D03*
X141224000Y-58404000D03*
X141224000Y-54864000D03*
D27*
X139954000Y-64134000D03*
X139954000Y-49134000D03*
D28*
X143954000Y-64134000D03*
X143954000Y-49134000D03*
D19*
X61722000Y-54864000D03*
X61722000Y-58420000D03*
X58166000Y-58420000D03*
X58166000Y-54864000D03*
X59944000Y-56642000D03*
D27*
X59944000Y-49142000D03*
X59944000Y-64142000D03*
D28*
X55944000Y-49142000D03*
X55944000Y-64142000D03*
D29*
X136398000Y-50038000D03*
X133858000Y-50038000D03*
X131318000Y-50038000D03*
X128778000Y-50038000D03*
X128778000Y-56896000D03*
X58166000Y-60706000D03*
X65278000Y-50038000D03*
X67818000Y-50038000D03*
X70358000Y-50038000D03*
X72898000Y-50038000D03*
X75438000Y-50038000D03*
X77978000Y-50038000D03*
X80518000Y-50038000D03*
X83058000Y-50038000D03*
X85598000Y-50038000D03*
X88138000Y-50038000D03*
X90678000Y-50038000D03*
X93218000Y-50038000D03*
X95758000Y-50038000D03*
X98298000Y-50038000D03*
X100838000Y-50038000D03*
X103378000Y-50038000D03*
X105918000Y-50038000D03*
X108458000Y-50038000D03*
X110998000Y-50038000D03*
X113538000Y-50038000D03*
X116078000Y-50038000D03*
X118618000Y-50038000D03*
X121158000Y-50038000D03*
X123698000Y-50038000D03*
X126238000Y-50038000D03*
X51816000Y-54102000D03*
X79248000Y-64592200D03*
X71120000Y-91947992D03*
X71628000Y-95250036D03*
X86614000Y-91440000D03*
D30*
X55372000Y-97790000D03*
X57404000Y-94488000D03*
X117602000Y-86360000D03*
X84582000Y-95250000D03*
X88980500Y-103297500D03*
D29*
X89408000Y-94742000D03*
X65278000Y-60706000D03*
X85598000Y-64770000D03*
X90678000Y-67818000D03*
X96774000Y-60452000D03*
X100330000Y-68580000D03*
X107696000Y-69342000D03*
X112014000Y-58166000D03*
X125730000Y-60706000D03*
X131064000Y-86614000D03*
D30*
X81026000Y-100584000D03*
X84328000Y-97536000D03*
D29*
X74168000Y-90932000D03*
X78234700Y-90678000D03*
X98806000Y-97028000D03*
D30*
X87122000Y-98806000D03*
X100838000Y-90170000D03*
X100584006Y-92202000D03*
X77724000Y-104902002D03*
X108204000Y-106680000D03*
D31*
X89662000Y-59944000D03*
X71120000Y-70866000D03*
X68834000Y-69088000D03*
D29*
X134112000Y-54864000D03*
X140716000Y-103886000D03*
D30*
X78985663Y-104893663D03*
X107188000Y-105664000D03*
X148336000Y-83058000D03*
X75446340Y-97544334D03*
D29*
X84582000Y-99060000D03*
D31*
X73152000Y-71628000D03*
D30*
X82804000Y-91186000D03*
D31*
X90170000Y-73984790D03*
X85598000Y-72200200D03*
D30*
X122936000Y-80772000D03*
X128270000Y-85344000D03*
X141478000Y-77216000D03*
X93725998Y-91440000D03*
X89916000Y-102616000D03*
X117856000Y-75946000D03*
X84065670Y-104385670D03*
X104142149Y-102867851D03*
X82549990Y-104648000D03*
X105410014Y-103632000D03*
X80772000Y-105156000D03*
X106426000Y-104648000D03*
X97489641Y-94438067D03*
X97536000Y-89408000D03*
X96274337Y-88383663D03*
X96012000Y-94234000D03*
X132587992Y-100584000D03*
X83820000Y-83312000D03*
X82042000Y-87630000D03*
X79830500Y-87809500D03*
X81788000Y-103124000D03*
X75946000Y-110998000D03*
X109982000Y-106934000D03*
X94234000Y-87630000D03*
X93226009Y-86875737D03*
X111252000Y-106680000D03*
X92504481Y-86178722D03*
X111506000Y-105156000D03*
X112522000Y-103886000D03*
X91694000Y-85344000D03*
X113538000Y-102870000D03*
X90678000Y-84582000D03*
X93726000Y-83312000D03*
X114554000Y-101600000D03*
X116078000Y-100584000D03*
X94996000Y-82296000D03*
X93980000Y-81534000D03*
X118110000Y-100330000D03*
X94996000Y-80772000D03*
X121412000Y-100330000D03*
X123698000Y-100584000D03*
X93980000Y-80010000D03*
X126746000Y-101092000D03*
X92964000Y-79521000D03*
X128524000Y-101346000D03*
X92202000Y-78740000D03*
D31*
X88392006Y-72390000D03*
D32*
X133858000Y-50038000D02*
X136398000Y-50038000D01*
X131318000Y-50038000D02*
X133858000Y-50038000D01*
X128778000Y-50038000D02*
X131318000Y-50038000D01*
D33*
X130556000Y-56896000D02*
X129485106Y-56896000D01*
X129485106Y-56896000D02*
X128778000Y-56896000D01*
D34*
X65278000Y-50038000D02*
X62230000Y-50038000D01*
X67818000Y-50038000D02*
X65278000Y-50038000D01*
X70358000Y-50038000D02*
X67818000Y-50038000D01*
X72898000Y-50038000D02*
X70358000Y-50038000D01*
X75438000Y-50038000D02*
X72898000Y-50038000D01*
X77978000Y-50038000D02*
X75438000Y-50038000D01*
X80518000Y-50038000D02*
X77978000Y-50038000D01*
X83058000Y-50038000D02*
X80518000Y-50038000D01*
X85598000Y-50038000D02*
X83058000Y-50038000D01*
X88138000Y-50038000D02*
X85598000Y-50038000D01*
X90678000Y-50038000D02*
X88138000Y-50038000D01*
X93218000Y-50038000D02*
X90678000Y-50038000D01*
X95758000Y-50038000D02*
X93218000Y-50038000D01*
X98298000Y-50038000D02*
X95758000Y-50038000D01*
X100838000Y-50038000D02*
X98298000Y-50038000D01*
X103378000Y-50038000D02*
X100838000Y-50038000D01*
X105918000Y-50038000D02*
X103378000Y-50038000D01*
X108458000Y-50038000D02*
X105918000Y-50038000D01*
X110998000Y-50038000D02*
X108458000Y-50038000D01*
X113538000Y-50038000D02*
X110998000Y-50038000D01*
X116078000Y-50038000D02*
X113538000Y-50038000D01*
X118618000Y-50038000D02*
X116078000Y-50038000D01*
X121158000Y-50038000D02*
X118618000Y-50038000D01*
X123698000Y-50038000D02*
X121158000Y-50038000D01*
X62230000Y-50038000D02*
X60493209Y-51774791D01*
X60493209Y-51774791D02*
X54143209Y-51774791D01*
X54143209Y-51774791D02*
X51816000Y-54102000D01*
X126238000Y-50038000D02*
X123698000Y-50038000D01*
X126238000Y-50038000D02*
X128778000Y-50038000D01*
X77724000Y-64498000D02*
X79153800Y-64498000D01*
X79153800Y-64498000D02*
X79248000Y-64592200D01*
D33*
X62166500Y-87807800D02*
X62216500Y-87807800D01*
X62216500Y-87807800D02*
X63918300Y-86106000D01*
X68580000Y-86896338D02*
X68580000Y-88138000D01*
X63918300Y-86106000D02*
X67789662Y-86106000D01*
X68580000Y-88138000D02*
X71120000Y-90678000D01*
X67789662Y-86106000D02*
X68580000Y-86896338D01*
X71120000Y-90678000D02*
X71120000Y-91240886D01*
X71120000Y-91240886D02*
X71120000Y-91947992D01*
X71628000Y-95957142D02*
X71628000Y-95250036D01*
X68326000Y-104140000D02*
X71628000Y-100838000D01*
X64306700Y-104140000D02*
X68326000Y-104140000D01*
X62216500Y-102049800D02*
X64306700Y-104140000D01*
X62166500Y-102049800D02*
X62216500Y-102049800D01*
X71628000Y-95250000D02*
X71628000Y-95250036D01*
X71628000Y-100838000D02*
X71628000Y-95957142D01*
D34*
X83312000Y-90424000D02*
X84328000Y-91440000D01*
X84328000Y-91440000D02*
X86614000Y-91440000D01*
X82696338Y-90424000D02*
X83312000Y-90424000D01*
X82480500Y-89213800D02*
X82480500Y-90208162D01*
X82480500Y-90208162D02*
X82696338Y-90424000D01*
D35*
X57404000Y-94488000D02*
X57404000Y-95758000D01*
X57404000Y-95758000D02*
X55372000Y-97790000D01*
X109724000Y-86360000D02*
X117602000Y-86360000D01*
X105474000Y-88610000D02*
X107474000Y-88610000D01*
X107474000Y-88610000D02*
X109724000Y-86360000D01*
X102870000Y-88646000D02*
X105438000Y-88646000D01*
X105438000Y-88646000D02*
X105474000Y-88610000D01*
D34*
X80936200Y-96863800D02*
X82550000Y-95250000D01*
X82550000Y-95250000D02*
X84582000Y-95250000D01*
X79830500Y-96863800D02*
X80936200Y-96863800D01*
X88980500Y-101013800D02*
X88980500Y-103297500D01*
X91630500Y-91863800D02*
X90626500Y-91863800D01*
X90626500Y-91863800D02*
X89408000Y-93082300D01*
X89408000Y-93082300D02*
X89408000Y-94742000D01*
D33*
X65278000Y-58946000D02*
X65278000Y-60706000D01*
X85598000Y-67818000D02*
X86868000Y-69088000D01*
X86868000Y-69088000D02*
X88392000Y-69088000D01*
X85598000Y-64770000D02*
X85598000Y-67818000D01*
X90678000Y-67818000D02*
X89408000Y-69088000D01*
X89408000Y-69088000D02*
X88392000Y-69088000D01*
X94742000Y-58166000D02*
X96774000Y-58166000D01*
X96774000Y-60452000D02*
X96774000Y-58166000D01*
X98912000Y-66308000D02*
X98912000Y-67162000D01*
X98912000Y-67162000D02*
X100330000Y-68580000D01*
X108712000Y-71120000D02*
X108712000Y-69850000D01*
X108712000Y-69850000D02*
X108204000Y-69342000D01*
X108204000Y-69342000D02*
X107696000Y-69342000D01*
X108712000Y-71120000D02*
X106444000Y-71120000D01*
X109982000Y-58166000D02*
X112014000Y-58166000D01*
X125730000Y-60706000D02*
X123431300Y-60706000D01*
D35*
X131101600Y-88432200D02*
X131101600Y-86651600D01*
X131101600Y-86651600D02*
X131064000Y-86614000D01*
X131101600Y-88432200D02*
X134053800Y-88432200D01*
X134053800Y-88432200D02*
X134094000Y-88392000D01*
X52578000Y-106426000D02*
X52578000Y-108966000D01*
X147066000Y-109728000D02*
X146050000Y-108712000D01*
X146050000Y-108712000D02*
X146050000Y-101854000D01*
X147066000Y-115062000D02*
X147066000Y-109728000D01*
D34*
X82480500Y-101013800D02*
X82480500Y-99568000D01*
X82480500Y-99568000D02*
X82480500Y-98113500D01*
X81026000Y-100584000D02*
X81026000Y-100018315D01*
X81026000Y-100018315D02*
X81476315Y-99568000D01*
X81476315Y-99568000D02*
X82480500Y-99568000D01*
X82480500Y-98113500D02*
X83058000Y-97536000D01*
X83058000Y-97536000D02*
X84328000Y-97536000D01*
D33*
X142766000Y-101981000D02*
X145923000Y-101981000D01*
X145923000Y-101981000D02*
X146050000Y-101854000D01*
X71056500Y-82709800D02*
X71006500Y-82709800D01*
X69798500Y-83917800D02*
X69798500Y-85800500D01*
X71006500Y-82709800D02*
X69798500Y-83917800D01*
X69798500Y-85800500D02*
X72644000Y-88646000D01*
X72644000Y-88646000D02*
X72644000Y-90238462D01*
X72644000Y-90238462D02*
X73083538Y-90678000D01*
X73083538Y-90678000D02*
X73152000Y-90678000D01*
X73152000Y-90678000D02*
X73406000Y-90932000D01*
X73406000Y-90932000D02*
X74168000Y-90932000D01*
X78232000Y-87122000D02*
X78234700Y-90678000D01*
X78232000Y-90678000D02*
X78234700Y-90678000D01*
X78740000Y-86614000D02*
X78232000Y-87122000D01*
X81280000Y-86614000D02*
X78740000Y-86614000D01*
X82296000Y-85598000D02*
X81280000Y-86614000D01*
X82296000Y-83565300D02*
X82296000Y-85598000D01*
X80200500Y-82727800D02*
X81458500Y-82727800D01*
X81458500Y-82727800D02*
X82296000Y-83565300D01*
X78994000Y-77724000D02*
X80200500Y-78930500D01*
X80200500Y-78930500D02*
X80200500Y-82727800D01*
X72136000Y-77724000D02*
X78994000Y-77724000D01*
X71056500Y-78803500D02*
X72136000Y-77724000D01*
X71056500Y-82709800D02*
X71056500Y-78803500D01*
X60452000Y-101600000D02*
X60452000Y-88264300D01*
X60452000Y-88264300D02*
X60908500Y-87807800D01*
X60908500Y-87807800D02*
X62166500Y-87807800D01*
X60901800Y-102049800D02*
X60452000Y-101600000D01*
X62166500Y-102049800D02*
X60901800Y-102049800D01*
D35*
X108643790Y-94048210D02*
X108712000Y-93980000D01*
D33*
X105918000Y-94070715D02*
X108712000Y-94070715D01*
X105827285Y-93980000D02*
X105918000Y-94070715D01*
X103124000Y-93980000D02*
X105827285Y-93980000D01*
X98806000Y-97028000D02*
X101854000Y-93980000D01*
X101854000Y-93980000D02*
X103124000Y-93980000D01*
D34*
X74104500Y-84821800D02*
X74104500Y-87376000D01*
X71056500Y-84759800D02*
X74042500Y-84759800D01*
X74042500Y-84759800D02*
X74104500Y-84821800D01*
X77404500Y-84821800D02*
X77216000Y-85010300D01*
X77216000Y-85010300D02*
X77216000Y-91440000D01*
X77216000Y-91440000D02*
X78139800Y-92363800D01*
X78139800Y-92363800D02*
X79830500Y-92363800D01*
X77404500Y-84821800D02*
X80156500Y-84821800D01*
X80156500Y-84821800D02*
X80200500Y-84777800D01*
D33*
X66230500Y-99919800D02*
X70214500Y-99919800D01*
X70214500Y-99919800D02*
X70294500Y-99999800D01*
X62166500Y-99999800D02*
X66150500Y-99999800D01*
X66150500Y-99999800D02*
X66230500Y-99919800D01*
D34*
X66230500Y-89919800D02*
X69091800Y-89919800D01*
X69091800Y-89919800D02*
X70104000Y-90932000D01*
X70104000Y-90932000D02*
X70104000Y-92456000D01*
X70992001Y-93344001D02*
X79810701Y-93344001D01*
X70104000Y-92456000D02*
X70992001Y-93344001D01*
X79810701Y-93344001D02*
X79830500Y-93363800D01*
D33*
X66230500Y-89919800D02*
X62228500Y-89919800D01*
X62228500Y-89919800D02*
X62166500Y-89857800D01*
D34*
X87884000Y-98806000D02*
X87122000Y-98806000D01*
X88480500Y-99402500D02*
X87884000Y-98806000D01*
X88480500Y-101013800D02*
X88480500Y-99402500D01*
X100820000Y-90152000D02*
X100838000Y-90170000D01*
X100820000Y-89650000D02*
X100820000Y-90152000D01*
X100018321Y-92202000D02*
X100584006Y-92202000D01*
X97651408Y-92202000D02*
X100018321Y-92202000D01*
X95365408Y-89916000D02*
X97651408Y-92202000D01*
X87884000Y-92456000D02*
X90424000Y-89916000D01*
X79830500Y-91863800D02*
X81195800Y-91863800D01*
X90424000Y-89916000D02*
X95365408Y-89916000D01*
X81195800Y-91863800D02*
X81788000Y-92456000D01*
X81788000Y-92456000D02*
X87884000Y-92456000D01*
X100820000Y-88646000D02*
X100820000Y-89650000D01*
X100820000Y-89650000D02*
X100838000Y-89668000D01*
D33*
X100820000Y-88646000D02*
X100820000Y-84074000D01*
D34*
X78123999Y-104502003D02*
X77724000Y-104902002D01*
X79830500Y-102795502D02*
X78123999Y-104502003D01*
X79830500Y-98863800D02*
X79830500Y-102795502D01*
X135636000Y-99314000D02*
X115570000Y-99314000D01*
X115570000Y-99314000D02*
X108204000Y-106680000D01*
D33*
X135636000Y-99314000D02*
X140716000Y-99314000D01*
D35*
X89662000Y-59944000D02*
X89662000Y-58166000D01*
X89662000Y-58166000D02*
X91186000Y-56642000D01*
X91186000Y-56642000D02*
X100136000Y-56642000D01*
X100136000Y-56642000D02*
X101660000Y-58166000D01*
X101660000Y-58166000D02*
X103360000Y-58166000D01*
X65278000Y-70866000D02*
X71120000Y-70866000D01*
X58166000Y-77978000D02*
X65278000Y-70866000D01*
X53992213Y-77978000D02*
X58166000Y-77978000D01*
X52578000Y-77978000D02*
X53992213Y-77978000D01*
X52578000Y-77978000D02*
X52578000Y-80518000D01*
D33*
X129032000Y-71000000D02*
X129032000Y-69342000D01*
X129032000Y-69342000D02*
X128270000Y-68580000D01*
X128270000Y-68580000D02*
X116586000Y-68580000D01*
X105422000Y-73406000D02*
X104394000Y-72378000D01*
X116586000Y-68580000D02*
X111760000Y-73406000D01*
X111760000Y-73406000D02*
X105422000Y-73406000D01*
X104394000Y-72378000D02*
X104394000Y-71120000D01*
X105918000Y-64008000D02*
X104394000Y-65532000D01*
X104394000Y-65532000D02*
X104394000Y-71120000D01*
D35*
X98912000Y-61708000D02*
X103618000Y-61708000D01*
X103618000Y-61708000D02*
X105918000Y-64008000D01*
X103360000Y-58166000D02*
X103360000Y-61450000D01*
X103360000Y-61450000D02*
X105918000Y-64008000D01*
X98824000Y-58166000D02*
X98824000Y-61620000D01*
X98824000Y-61620000D02*
X98912000Y-61708000D01*
D34*
X80264000Y-66530000D02*
X80282000Y-66548000D01*
X80282000Y-66548000D02*
X82550000Y-66548000D01*
X82550000Y-66548000D02*
X82804000Y-66802000D01*
X77724000Y-66548000D02*
X80246000Y-66548000D01*
X80246000Y-66548000D02*
X80264000Y-66530000D01*
D33*
X118351300Y-60706000D02*
X121381300Y-60706000D01*
X105410000Y-58166000D02*
X107932000Y-58166000D01*
X88392000Y-64770000D02*
X88392000Y-67038000D01*
D35*
X61976000Y-70866000D02*
X63754000Y-69088000D01*
X63754000Y-69088000D02*
X68834000Y-69088000D01*
X52578000Y-70866000D02*
X61976000Y-70866000D01*
X52578000Y-70866000D02*
X52578000Y-73406000D01*
D33*
X116301300Y-60706000D02*
X116301300Y-63736000D01*
X116301300Y-63736000D02*
X117081300Y-64516000D01*
X134620000Y-71000000D02*
X134620000Y-68580000D01*
X134620000Y-68580000D02*
X133350000Y-67310000D01*
X133350000Y-67310000D02*
X118110000Y-67310000D01*
X118110000Y-67310000D02*
X117094000Y-66294000D01*
X117094000Y-66294000D02*
X117094000Y-64528700D01*
X117094000Y-64528700D02*
X117081300Y-64516000D01*
D35*
X110998000Y-64008000D02*
X110998000Y-70884000D01*
X110998000Y-70884000D02*
X110762000Y-71120000D01*
X110998000Y-64008000D02*
X116573300Y-64008000D01*
X116573300Y-64008000D02*
X117081300Y-64516000D01*
D33*
X142766000Y-96520000D02*
X145796000Y-96520000D01*
X145796000Y-96520000D02*
X146050000Y-96774000D01*
X142766000Y-99314000D02*
X146050000Y-99314000D01*
X61722000Y-54864000D02*
X64770000Y-54864000D01*
X64770000Y-54864000D02*
X65278000Y-55372000D01*
X65278000Y-55372000D02*
X65278000Y-56896000D01*
D32*
X132588000Y-56896000D02*
X132588000Y-56388000D01*
X132588000Y-56388000D02*
X134112000Y-54864000D01*
D34*
X74104500Y-89426000D02*
X74186000Y-89426000D01*
X74186000Y-89426000D02*
X77623800Y-92863800D01*
X77623800Y-92863800D02*
X78826500Y-92863800D01*
X78826500Y-92863800D02*
X79830500Y-92863800D01*
X70294500Y-97949800D02*
X70294500Y-94551500D01*
X70294500Y-94551500D02*
X70982200Y-93863800D01*
X70982200Y-93863800D02*
X79830500Y-93863800D01*
D33*
X131101600Y-83932200D02*
X132446200Y-83932200D01*
X132446200Y-83932200D02*
X134112000Y-85598000D01*
X131101600Y-83932200D02*
X131101600Y-81629800D01*
X131101600Y-81629800D02*
X131082000Y-81610200D01*
X105156000Y-81788000D02*
X105156000Y-83792000D01*
X105156000Y-83792000D02*
X105474000Y-84110000D01*
X102870000Y-84074000D02*
X105438000Y-84074000D01*
X105438000Y-84074000D02*
X105474000Y-84110000D01*
D34*
X140716000Y-101981000D02*
X140716000Y-103886000D01*
X78985663Y-104608637D02*
X78985663Y-104893663D01*
X81980500Y-101013800D02*
X81980500Y-101613800D01*
X81980500Y-101613800D02*
X78985663Y-104608637D01*
X107188000Y-105664000D02*
X116332000Y-96520000D01*
X116332000Y-96520000D02*
X135636000Y-96520000D01*
D33*
X135636000Y-96520000D02*
X140716000Y-96520000D01*
D34*
X127000000Y-80518000D02*
X127000000Y-90170000D01*
X125730000Y-91440000D02*
X97536000Y-91440000D01*
X127000000Y-90170000D02*
X125730000Y-91440000D01*
X95309800Y-89213800D02*
X89480500Y-89213800D01*
X97536000Y-91440000D02*
X95309800Y-89213800D01*
X146050000Y-79756000D02*
X127762000Y-79756000D01*
X127762000Y-79756000D02*
X127000000Y-80518000D01*
X147574000Y-92202000D02*
X148082000Y-91694000D01*
X126108764Y-92354422D02*
X126261186Y-92202000D01*
X148082000Y-91694000D02*
X148082000Y-86868000D01*
X97397407Y-93472000D02*
X101346000Y-93472000D01*
X96289207Y-92363800D02*
X97397407Y-93472000D01*
X91630500Y-92363800D02*
X96289207Y-92363800D01*
X102463578Y-92354422D02*
X126108764Y-92354422D01*
X126261186Y-92202000D02*
X147574000Y-92202000D01*
X147049999Y-85835999D02*
X146050000Y-84836000D01*
X101346000Y-93472000D02*
X102463578Y-92354422D01*
X148082000Y-86868000D02*
X147049999Y-85835999D01*
X139700000Y-78994000D02*
X127254000Y-78994000D01*
X127254000Y-78994000D02*
X125984000Y-80264000D01*
X125984000Y-80264000D02*
X125984000Y-89662000D01*
X89800592Y-83820000D02*
X86480500Y-87140092D01*
X125984000Y-89662000D02*
X124714000Y-90932000D01*
X124714000Y-90932000D02*
X97790000Y-90932000D01*
X86480500Y-88209800D02*
X86480500Y-89213800D01*
X97790000Y-90932000D02*
X95250000Y-88392000D01*
X95250000Y-88392000D02*
X95250000Y-86106000D01*
X92964000Y-83820000D02*
X89800592Y-83820000D01*
X95250000Y-86106000D02*
X92964000Y-83820000D01*
X86480500Y-87140092D02*
X86480500Y-88209800D01*
X139954000Y-78994000D02*
X139700000Y-78994000D01*
X148336000Y-83058000D02*
X148336000Y-75184000D01*
X148336000Y-75184000D02*
X147574000Y-74422000D01*
X147574000Y-74422000D02*
X144526000Y-74422000D01*
X144526000Y-74422000D02*
X143256000Y-75692000D01*
X143256000Y-75692000D02*
X143256000Y-77724000D01*
X141986000Y-78994000D02*
X139700000Y-78994000D01*
X143256000Y-77724000D02*
X141986000Y-78994000D01*
D32*
X141224000Y-54864000D02*
X141224000Y-54610000D01*
X138892000Y-52278000D02*
X61422707Y-52278000D01*
X141224000Y-54610000D02*
X138892000Y-52278000D01*
X61422707Y-52278000D02*
X58836707Y-54864000D01*
X58836707Y-54864000D02*
X58166000Y-54864000D01*
X80264000Y-59436000D02*
X83312000Y-59436000D01*
X136144000Y-56634000D02*
X136144000Y-53594000D01*
X136144000Y-53594000D02*
X135428000Y-52878000D01*
X59944000Y-54605222D02*
X59944000Y-56642000D01*
X135428000Y-52878000D02*
X61671222Y-52878000D01*
X61671222Y-52878000D02*
X59944000Y-54605222D01*
X74168000Y-59436000D02*
X77164000Y-59436000D01*
D34*
X60132000Y-56830000D02*
X59944000Y-56642000D01*
X79830500Y-97363800D02*
X75626874Y-97363800D01*
X75626874Y-97363800D02*
X75446340Y-97544334D01*
X84074000Y-99060000D02*
X83312000Y-99060000D01*
X84074000Y-99060000D02*
X84582000Y-99060000D01*
X83312000Y-99060000D02*
X82980500Y-99391500D01*
X85598000Y-98552000D02*
X85598000Y-96266000D01*
X85090000Y-99060000D02*
X85598000Y-98552000D01*
X84582000Y-99060000D02*
X85090000Y-99060000D01*
X82980500Y-99391500D02*
X82980500Y-101013800D01*
D33*
X85598000Y-72200200D02*
X84646200Y-73152000D01*
X84646200Y-73152000D02*
X74676000Y-73152000D01*
X74676000Y-73152000D02*
X73152000Y-71628000D01*
D35*
X52578000Y-92202000D02*
X57658000Y-87122000D01*
X57658000Y-87122000D02*
X57658000Y-84836000D01*
X57658000Y-84836000D02*
X66802000Y-75692000D01*
X88462790Y-75692000D02*
X89420001Y-74734789D01*
X66802000Y-75692000D02*
X88462790Y-75692000D01*
X89420001Y-74734789D02*
X90170000Y-73984790D01*
D34*
X81980500Y-90362500D02*
X82404001Y-90786001D01*
X81980500Y-89213800D02*
X81980500Y-90362500D01*
X82404001Y-90786001D02*
X82804000Y-91186000D01*
D33*
X95504000Y-70358000D02*
X98806000Y-70358000D01*
X98806000Y-70358000D02*
X104394000Y-75946000D01*
X104394000Y-75946000D02*
X117290315Y-75946000D01*
X117290315Y-75946000D02*
X117856000Y-75946000D01*
X95504000Y-70358000D02*
X95504000Y-74186000D01*
X95504000Y-74186000D02*
X101848000Y-80530000D01*
X101848000Y-80530000D02*
X101898000Y-80530000D01*
X101898000Y-80530000D02*
X103106000Y-81738000D01*
X103106000Y-81738000D02*
X103106000Y-81788000D01*
D35*
X52578000Y-92202000D02*
X52578000Y-94742000D01*
D34*
X119888000Y-80772000D02*
X117856000Y-78740000D01*
X117856000Y-78740000D02*
X117856000Y-75946000D01*
X122936000Y-80772000D02*
X119888000Y-80772000D01*
X129032000Y-81610200D02*
X129032000Y-84582000D01*
X129032000Y-84582000D02*
X128270000Y-85344000D01*
X117856000Y-75946000D02*
X140208000Y-75946000D01*
X140208000Y-75946000D02*
X141478000Y-77216000D01*
X90384792Y-91363800D02*
X86614000Y-95134592D01*
X86614000Y-95134592D02*
X86614000Y-96266000D01*
X91630500Y-91363800D02*
X90384792Y-91363800D01*
X89480500Y-99132500D02*
X86614000Y-96266000D01*
X86614000Y-96266000D02*
X84836000Y-96266000D01*
X89480500Y-101013800D02*
X89480500Y-99132500D01*
X84836000Y-96266000D02*
X82804000Y-96266000D01*
X82804000Y-96266000D02*
X81706200Y-97363800D01*
X81706200Y-97363800D02*
X79830500Y-97363800D01*
X93649798Y-91363800D02*
X93725998Y-91440000D01*
X91630500Y-91363800D02*
X93649798Y-91363800D01*
X89516001Y-102216001D02*
X89916000Y-102616000D01*
X89480500Y-102180500D02*
X89516001Y-102216001D01*
X89480500Y-101013800D02*
X89480500Y-102180500D01*
X89858315Y-102616000D02*
X89916000Y-102616000D01*
D36*
X61722000Y-58420000D02*
X61722000Y-61468000D01*
X68834000Y-61468000D02*
X68834000Y-57658000D01*
X61722000Y-61468000D02*
X63246000Y-62992000D01*
X63246000Y-62992000D02*
X67310000Y-62992000D01*
X67310000Y-62992000D02*
X68834000Y-61468000D01*
X68834000Y-57658000D02*
X71882000Y-54610000D01*
X127762000Y-59182000D02*
X137914000Y-59182000D01*
X71882000Y-54610000D02*
X123190000Y-54610000D01*
X123190000Y-54610000D02*
X127762000Y-59182000D01*
X137914000Y-59182000D02*
X138168000Y-58928000D01*
D35*
X138168000Y-58928000D02*
X138684000Y-58412000D01*
X134620000Y-66040000D02*
X138684000Y-61976000D01*
X138684000Y-61976000D02*
X138684000Y-58412000D01*
X127508000Y-66040000D02*
X134620000Y-66040000D01*
X125984000Y-64516000D02*
X127508000Y-66040000D01*
X122161300Y-64516000D02*
X125984000Y-64516000D01*
D34*
X103124000Y-101849702D02*
X104142149Y-102867851D01*
X103124000Y-100838000D02*
X103124000Y-101849702D01*
X84065670Y-104385670D02*
X79739340Y-108712000D01*
X79739340Y-108712000D02*
X79138213Y-108712000D01*
X79138213Y-108712000D02*
X77724000Y-108712000D01*
X84980500Y-103487500D02*
X84082330Y-104385670D01*
X84082330Y-104385670D02*
X84065670Y-104385670D01*
X84980500Y-101013800D02*
X84980500Y-103487500D01*
X84480500Y-101013800D02*
X84480500Y-102717490D01*
X82149991Y-105047999D02*
X82549990Y-104648000D01*
X84480500Y-102717490D02*
X82949989Y-104248001D01*
X75184000Y-108712000D02*
X77724000Y-106172000D01*
X82949989Y-104248001D02*
X82549990Y-104648000D01*
X81025990Y-106172000D02*
X82149991Y-105047999D01*
X77724000Y-106172000D02*
X81025990Y-106172000D01*
X105918000Y-103124014D02*
X105810013Y-103232001D01*
X105918000Y-100838000D02*
X105918000Y-103124014D01*
X105810013Y-103232001D02*
X105410014Y-103632000D01*
X83980500Y-101013800D02*
X83980500Y-102259185D01*
X81788000Y-103886000D02*
X80772000Y-104902000D01*
X83980500Y-102259185D02*
X82353685Y-103886000D01*
X82353685Y-103886000D02*
X81788000Y-103886000D01*
X80772000Y-104902000D02*
X80772000Y-105156000D01*
X80372001Y-105555999D02*
X80772000Y-105156000D01*
X80264000Y-105664000D02*
X80372001Y-105555999D01*
X72644000Y-108712000D02*
X72644000Y-107458000D01*
X74438000Y-105664000D02*
X80264000Y-105664000D01*
X72644000Y-107458000D02*
X74438000Y-105664000D01*
X106426000Y-104648000D02*
X108712000Y-102362000D01*
X108712000Y-102362000D02*
X108712000Y-100856000D01*
X97536000Y-89408000D02*
X97536000Y-78232000D01*
X97536000Y-78232000D02*
X89662000Y-70358000D01*
X89662000Y-70358000D02*
X81026000Y-70358000D01*
X81026000Y-70358000D02*
X80264000Y-69596000D01*
X80264000Y-69596000D02*
X80264000Y-68580000D01*
X95915374Y-92863800D02*
X97089642Y-94038068D01*
X91630500Y-92863800D02*
X95915374Y-92863800D01*
X97089642Y-94038068D02*
X97489641Y-94438067D01*
X74930000Y-67056000D02*
X74930000Y-70358000D01*
X74930000Y-70358000D02*
X75438000Y-70866000D01*
X75438000Y-70866000D02*
X89408000Y-70866000D01*
X96274337Y-77732337D02*
X96274337Y-87817978D01*
X89408000Y-70866000D02*
X96274337Y-77732337D01*
X96274337Y-87817978D02*
X96274337Y-88383663D01*
X91630500Y-93363800D02*
X92601800Y-93363800D01*
X92601800Y-93363800D02*
X92644590Y-93406590D01*
X92644590Y-93406590D02*
X95184590Y-93406590D01*
X95184590Y-93406590D02*
X96012000Y-94234000D01*
X136144000Y-88442000D02*
X136144000Y-88392000D01*
X132892000Y-91694000D02*
X136144000Y-88442000D01*
X90424000Y-90678000D02*
X95250000Y-90678000D01*
X101156698Y-92964000D02*
X102223487Y-91897211D01*
X125919382Y-91897211D02*
X126122593Y-91694000D01*
X126122593Y-91694000D02*
X132892000Y-91694000D01*
X86738200Y-94363800D02*
X90424000Y-90678000D01*
X102223487Y-91897211D02*
X125919382Y-91897211D01*
X79830500Y-94363800D02*
X86738200Y-94363800D01*
X95250000Y-90678000D02*
X97536000Y-92964000D01*
X97536000Y-92964000D02*
X101156698Y-92964000D01*
X144526000Y-115062000D02*
X144526000Y-112522000D01*
X144526000Y-112522000D02*
X135890000Y-103886000D01*
X135890000Y-103886000D02*
X134112000Y-103886000D01*
X134112000Y-103886000D02*
X132587992Y-102361992D01*
X132587992Y-102361992D02*
X132587992Y-101149685D01*
X132587992Y-101149685D02*
X132587992Y-100584000D01*
D33*
X138938000Y-88392000D02*
X139954000Y-87376000D01*
X139954000Y-87376000D02*
X146050000Y-87376000D01*
X136144000Y-88392000D02*
X138938000Y-88392000D01*
X136144000Y-88392000D02*
X136144000Y-85616000D01*
X136144000Y-85616000D02*
X136162000Y-85598000D01*
D34*
X83820000Y-83312000D02*
X83312000Y-82804000D01*
X83312000Y-82804000D02*
X83312000Y-80264000D01*
X83312000Y-80264000D02*
X79695799Y-76647799D01*
X79695799Y-76647799D02*
X67624201Y-76647799D01*
X59182000Y-97282000D02*
X57150000Y-99314000D01*
X67624201Y-76647799D02*
X59182000Y-85090000D01*
X59182000Y-85090000D02*
X59182000Y-97282000D01*
X57150000Y-99314000D02*
X52578000Y-99314000D01*
X81608500Y-87809500D02*
X81862500Y-87809500D01*
X81862500Y-87809500D02*
X82042000Y-87630000D01*
X79830500Y-87809500D02*
X81608500Y-87809500D01*
D35*
X52578000Y-101854000D02*
X52578000Y-99314000D01*
D34*
X79830500Y-91363800D02*
X79830500Y-87809500D01*
X79830500Y-94863800D02*
X74046200Y-94863800D01*
X74046200Y-94863800D02*
X73152000Y-95758000D01*
X73152000Y-95758000D02*
X73152000Y-101346000D01*
X59182000Y-105156000D02*
X55118000Y-109220000D01*
X73152000Y-101346000D02*
X69342000Y-105156000D01*
X69342000Y-105156000D02*
X59182000Y-105156000D01*
X55118000Y-109220000D02*
X55118000Y-110490000D01*
X55118000Y-110490000D02*
X53086000Y-112522000D01*
X53086000Y-112522000D02*
X53086000Y-115062000D01*
X79830500Y-95363800D02*
X74562200Y-95363800D01*
X55575210Y-109409382D02*
X55575210Y-115011210D01*
X74562200Y-95363800D02*
X73660000Y-96266000D01*
X73660000Y-96266000D02*
X73660000Y-101600000D01*
X73660000Y-101600000D02*
X69596000Y-105664000D01*
X69596000Y-105664000D02*
X59320592Y-105664000D01*
X55575210Y-115011210D02*
X55626000Y-115062000D01*
X59320592Y-105664000D02*
X55575210Y-109409382D01*
X79830500Y-95863800D02*
X78795091Y-95863800D01*
X78795091Y-95863800D02*
X78771869Y-95840578D01*
X59459184Y-106172000D02*
X58166000Y-107465184D01*
X78771869Y-95840578D02*
X74847422Y-95840578D01*
X74168000Y-96520000D02*
X74168000Y-101854000D01*
X74847422Y-95840578D02*
X74168000Y-96520000D01*
X74168000Y-101854000D02*
X69850001Y-106171999D01*
X69850001Y-106171999D02*
X59459184Y-106172000D01*
X58166000Y-107465184D02*
X58166000Y-115062000D01*
X60706000Y-107188000D02*
X61264790Y-106629210D01*
X70039382Y-106629210D02*
X74676000Y-101992592D01*
X61264790Y-106629210D02*
X70039382Y-106629210D01*
X74676000Y-97282000D02*
X75594200Y-96363800D01*
X60706000Y-115062000D02*
X60706000Y-107188000D01*
X74676000Y-101992592D02*
X74676000Y-97282000D01*
X75594200Y-96363800D02*
X78074486Y-96363800D01*
X79830500Y-96363800D02*
X78140499Y-96363800D01*
X79830500Y-97863800D02*
X78158200Y-97863800D01*
X78158200Y-97863800D02*
X75133210Y-100888790D01*
X64245999Y-114062001D02*
X63246000Y-115062000D01*
X75133210Y-100888790D02*
X75133210Y-102181974D01*
X75133210Y-102181974D02*
X64245999Y-113069185D01*
X64245999Y-113069185D02*
X64245999Y-114062001D01*
X79830500Y-98363800D02*
X78420200Y-98363800D01*
X78420200Y-98363800D02*
X75692000Y-101092000D01*
X75692000Y-101092000D02*
X75692000Y-102269776D01*
X75692000Y-102269776D02*
X65786000Y-112175776D01*
X65786000Y-112175776D02*
X65786000Y-113647787D01*
X65786000Y-113647787D02*
X65786000Y-115062000D01*
X91630500Y-98363800D02*
X92775800Y-98363800D01*
X93218000Y-98806000D02*
X93218000Y-108712000D01*
X92775800Y-98363800D02*
X93218000Y-98806000D01*
X93218000Y-108712000D02*
X88646000Y-113284000D01*
X88646000Y-113284000D02*
X88646000Y-115062000D01*
X91630500Y-97863800D02*
X92922392Y-97863800D01*
X92922392Y-97863800D02*
X93675210Y-98616618D01*
X93675210Y-98616618D02*
X93675210Y-110540790D01*
X93675210Y-110540790D02*
X91186000Y-113030000D01*
X91186000Y-113030000D02*
X91186000Y-115062000D01*
X91630500Y-97363800D02*
X93068984Y-97363800D01*
X93068984Y-97363800D02*
X94234000Y-98528816D01*
X94234000Y-98528816D02*
X94234000Y-112014000D01*
X94234000Y-112014000D02*
X93726000Y-112522000D01*
X93726000Y-112522000D02*
X93726000Y-115062000D01*
X91630500Y-96863800D02*
X93215576Y-96863800D01*
X93215576Y-96863800D02*
X96266000Y-99914224D01*
X96266000Y-99914224D02*
X96266000Y-115316000D01*
X91630500Y-96363800D02*
X93362168Y-96363800D01*
X93362168Y-96363800D02*
X98806000Y-101807632D01*
X98806000Y-101807632D02*
X98806000Y-115062000D01*
X91630500Y-95863800D02*
X93508760Y-95863800D01*
X93508760Y-95863800D02*
X101346000Y-103701040D01*
X101346000Y-103701040D02*
X101346000Y-115062000D01*
X91630500Y-95363800D02*
X93655352Y-95363800D01*
X93655352Y-95363800D02*
X103054166Y-104762614D01*
X103054166Y-104762614D02*
X103054166Y-104804645D01*
X103054166Y-104804645D02*
X103886000Y-105636478D01*
X103886000Y-105636478D02*
X103886000Y-115062000D01*
X91630500Y-94863800D02*
X93801944Y-94863800D01*
X93801944Y-94863800D02*
X103511377Y-104573233D01*
X103511377Y-104573233D02*
X103511377Y-104615263D01*
X103511377Y-104615263D02*
X106426000Y-107529886D01*
X106426000Y-107529886D02*
X106426000Y-115062000D01*
X91630500Y-94363800D02*
X93948536Y-94363800D01*
X93948536Y-94363800D02*
X103968588Y-104383852D01*
X103968588Y-104425881D02*
X104616121Y-105073414D01*
X103968588Y-104383852D02*
X103968588Y-104425881D01*
X104616121Y-105073414D02*
X104658150Y-105073414D01*
X104658150Y-105073414D02*
X108966000Y-109381264D01*
X108966000Y-109381264D02*
X108966000Y-115062000D01*
X91630500Y-93863800D02*
X94105438Y-93863800D01*
X104425799Y-104236499D02*
X104805503Y-104616203D01*
X94105438Y-93863800D02*
X104425799Y-104184161D01*
X104425799Y-104184161D02*
X104425799Y-104236499D01*
X111506000Y-111264362D02*
X111506000Y-115062000D01*
X104805503Y-104616203D02*
X104857841Y-104616203D01*
X104857841Y-104616203D02*
X111506000Y-111264362D01*
X91630500Y-98863800D02*
X91630500Y-107759500D01*
X91630500Y-107759500D02*
X86106000Y-113284000D01*
X86106000Y-113284000D02*
X86106000Y-113538000D01*
X86106000Y-113538000D02*
X86106000Y-115062000D01*
X82374300Y-103124000D02*
X82353685Y-103124000D01*
X83480500Y-101013800D02*
X83480500Y-102017800D01*
X83480500Y-102017800D02*
X82374300Y-103124000D01*
X82353685Y-103124000D02*
X81788000Y-103124000D01*
X75946000Y-110998000D02*
X69850000Y-110998000D01*
X69850000Y-110998000D02*
X68326000Y-112522000D01*
X68326000Y-112522000D02*
X68326000Y-115062000D01*
X85480500Y-101013800D02*
X85480500Y-104003500D01*
X85480500Y-104003500D02*
X77724000Y-111760000D01*
X77724000Y-111760000D02*
X71628000Y-111760000D01*
X71628000Y-111760000D02*
X70866000Y-112522000D01*
X70866000Y-112522000D02*
X70866000Y-115062000D01*
X85980500Y-101013800D02*
X85980500Y-104265500D01*
X85980500Y-104265500D02*
X77978000Y-112268000D01*
X77978000Y-112268000D02*
X73914000Y-112268000D01*
X73914000Y-112268000D02*
X73406000Y-112776000D01*
X73406000Y-112776000D02*
X73406000Y-115062000D01*
X75946000Y-113284000D02*
X75946000Y-115062000D01*
X86480500Y-101013800D02*
X86480500Y-104527500D01*
X86480500Y-104527500D02*
X78232000Y-112776000D01*
X78232000Y-112776000D02*
X76454000Y-112776000D01*
X76454000Y-112776000D02*
X75946000Y-113284000D01*
X78486000Y-113538000D02*
X78486000Y-115062000D01*
X86980500Y-101013800D02*
X86980500Y-104789500D01*
X86980500Y-104789500D02*
X78486000Y-113284000D01*
X78486000Y-113284000D02*
X78486000Y-113538000D01*
X81026000Y-113538000D02*
X81026000Y-115062000D01*
X87480500Y-105051500D02*
X81026000Y-111506000D01*
X87480500Y-101013800D02*
X87480500Y-105051500D01*
X81026000Y-111506000D02*
X81026000Y-113538000D01*
X83566000Y-113538000D02*
X83566000Y-115062000D01*
X87980500Y-101013800D02*
X87980500Y-105313500D01*
X87980500Y-105313500D02*
X83566000Y-109728000D01*
X83566000Y-109728000D02*
X83566000Y-113538000D01*
X109982000Y-106934000D02*
X114046000Y-110998000D01*
X114046000Y-110998000D02*
X114046000Y-115062000D01*
X89560300Y-87630000D02*
X94234000Y-87630000D01*
X88980500Y-89213800D02*
X88980500Y-88209800D01*
X88980500Y-88209800D02*
X89560300Y-87630000D01*
X111252000Y-106680000D02*
X111252000Y-106934000D01*
X111252000Y-106934000D02*
X116586000Y-112268000D01*
X116586000Y-112268000D02*
X116586000Y-115062000D01*
X93192822Y-86908924D02*
X93226009Y-86875737D01*
X89390261Y-86908924D02*
X93192822Y-86908924D01*
X88480500Y-87818685D02*
X89390261Y-86908924D01*
X88480500Y-89213800D02*
X88480500Y-87818685D01*
X111506000Y-105156000D02*
X119126000Y-112776000D01*
X119126000Y-112776000D02*
X119126000Y-115062000D01*
X89473870Y-86178722D02*
X91938796Y-86178722D01*
X87980500Y-87672092D02*
X89473870Y-86178722D01*
X91938796Y-86178722D02*
X92504481Y-86178722D01*
X87980500Y-89213800D02*
X87980500Y-87672092D01*
X112522000Y-103886000D02*
X121666000Y-113030000D01*
X121666000Y-113030000D02*
X121666000Y-115062000D01*
X90932000Y-85344000D02*
X91694000Y-85344000D01*
X89662000Y-85344000D02*
X90932000Y-85344000D01*
X89154000Y-85852000D02*
X89662000Y-85344000D01*
X87480500Y-89213800D02*
X87480500Y-87525500D01*
X87480500Y-87525500D02*
X89154000Y-85852000D01*
X113538000Y-102870000D02*
X124206000Y-113538000D01*
X124206000Y-113538000D02*
X124206000Y-115062000D01*
X90112315Y-84582000D02*
X90678000Y-84582000D01*
X86980500Y-87286684D02*
X89685184Y-84582000D01*
X89685184Y-84582000D02*
X90112315Y-84582000D01*
X86980500Y-89213800D02*
X86980500Y-87286684D01*
X126746000Y-113030000D02*
X126746000Y-115062000D01*
X89662000Y-83312000D02*
X93160315Y-83312000D01*
X85980500Y-86993500D02*
X89662000Y-83312000D01*
X93160315Y-83312000D02*
X93726000Y-83312000D01*
X85980500Y-89213800D02*
X85980500Y-86993500D01*
X115316000Y-101600000D02*
X126746000Y-113030000D01*
X114554000Y-101600000D02*
X115316000Y-101600000D01*
X116078000Y-100584000D02*
X117094000Y-100584000D01*
X117094000Y-100584000D02*
X129286000Y-112776000D01*
X129286000Y-112776000D02*
X129286000Y-115062000D01*
X85480500Y-89213800D02*
X85480500Y-86731500D01*
X85480500Y-86731500D02*
X89916000Y-82296000D01*
X89916000Y-82296000D02*
X94996000Y-82296000D01*
X131826000Y-112268000D02*
X131826000Y-115062000D01*
X89916000Y-81534000D02*
X93414315Y-81534000D01*
X84980500Y-86469500D02*
X89916000Y-81534000D01*
X84980500Y-89213800D02*
X84980500Y-86469500D01*
X93414315Y-81534000D02*
X93980000Y-81534000D01*
X118110000Y-100330000D02*
X128778000Y-110998000D01*
X128778000Y-110998000D02*
X130556000Y-110998000D01*
X130556000Y-110998000D02*
X131826000Y-112268000D01*
X121412000Y-100330000D02*
X134366000Y-113284000D01*
X134366000Y-113284000D02*
X134366000Y-115062000D01*
X84480500Y-89213800D02*
X84480500Y-86207500D01*
X94430315Y-80772000D02*
X94996000Y-80772000D01*
X84480500Y-86207500D02*
X89916000Y-80772000D01*
X89916000Y-80772000D02*
X94430315Y-80772000D01*
X136906000Y-112522000D02*
X136906000Y-115062000D01*
X124968000Y-100584000D02*
X136906000Y-112522000D01*
X123698000Y-100584000D02*
X124968000Y-100584000D01*
X83980500Y-89213800D02*
X83980500Y-86060908D01*
X83980500Y-86060908D02*
X89777408Y-80264000D01*
X89777408Y-80264000D02*
X93726000Y-80264000D01*
X93726000Y-80264000D02*
X93980000Y-80010000D01*
X126746000Y-101092000D02*
X136398000Y-110744000D01*
X136398000Y-110744000D02*
X137414000Y-110744000D01*
X137414000Y-110744000D02*
X139446000Y-112776000D01*
X139446000Y-112776000D02*
X139446000Y-115062000D01*
X92398315Y-79521000D02*
X92964000Y-79521000D01*
X89873816Y-79521000D02*
X92398315Y-79521000D01*
X83480500Y-89213800D02*
X83480500Y-85914316D01*
X83480500Y-85914316D02*
X89873816Y-79521000D01*
X141986000Y-113647787D02*
X141986000Y-115062000D01*
X128524000Y-101346000D02*
X129684213Y-101346000D01*
X129684213Y-101346000D02*
X141986000Y-113647787D01*
X91636315Y-78740000D02*
X92202000Y-78740000D01*
X90008224Y-78740000D02*
X91636315Y-78740000D01*
X82980500Y-85767724D02*
X90008224Y-78740000D01*
X82980500Y-89213800D02*
X82980500Y-85767724D01*
D35*
X52578000Y-85090000D02*
X53992213Y-85090000D01*
X53992213Y-85090000D02*
X64660213Y-74422000D01*
X87642007Y-73139999D02*
X88392006Y-72390000D01*
X64660213Y-74422000D02*
X86360006Y-74422000D01*
X86360006Y-74422000D02*
X87642007Y-73139999D01*
X52578000Y-85090000D02*
X52578000Y-87630000D01*
D33*
X88392000Y-62720000D02*
X92692000Y-62720000D01*
X92692000Y-62720000D02*
X92964000Y-62992000D01*
X92964000Y-62992000D02*
X92964000Y-63860000D01*
X92964000Y-63860000D02*
X93112000Y-64008000D01*
X98912000Y-64008000D02*
X100545000Y-64008000D01*
X100545000Y-64008000D02*
X102108000Y-65571000D01*
X102108000Y-65571000D02*
X102108000Y-72136000D01*
X104648000Y-74676000D02*
X121412000Y-74676000D01*
X102108000Y-72136000D02*
X104648000Y-74676000D01*
X121412000Y-74676000D02*
X123444000Y-72644000D01*
X123444000Y-72644000D02*
X123444000Y-71000000D01*
D35*
X98912000Y-64008000D02*
X93112000Y-64008000D01*
X92692000Y-58166000D02*
X92692000Y-63588000D01*
X92692000Y-63588000D02*
X93112000Y-64008000D01*
X92964000Y-70358000D02*
X92964000Y-64156000D01*
X92964000Y-64156000D02*
X93112000Y-64008000D01*
D33*
X108712000Y-96030000D02*
X108712000Y-98806000D01*
X105918000Y-96012000D02*
X105918000Y-98788000D01*
X103124000Y-96030000D02*
X103124000Y-98788000D01*
D34*
G36*
X64357822Y-45269803D02*
X63963450Y-46219556D01*
X63962552Y-47247932D01*
X64355266Y-48198372D01*
X65081803Y-48926178D01*
X66031556Y-49320550D01*
X67059932Y-49321448D01*
X68010372Y-48928734D01*
X68738178Y-48202197D01*
X69132550Y-47252444D01*
X69133448Y-46224068D01*
X68740734Y-45273628D01*
X68298877Y-44831000D01*
X128297392Y-44831000D01*
X127857822Y-45269803D01*
X127463450Y-46219556D01*
X127462552Y-47247932D01*
X127855266Y-48198372D01*
X128581803Y-48926178D01*
X129531556Y-49320550D01*
X130559932Y-49321448D01*
X131510372Y-48928734D01*
X132238178Y-48202197D01*
X132632550Y-47252444D01*
X132633448Y-46224068D01*
X132240734Y-45273628D01*
X131798877Y-44831000D01*
X148971000Y-44831000D01*
X148971000Y-74789135D01*
X148958451Y-74770354D01*
X148874816Y-74645185D01*
X148112815Y-73883185D01*
X147951264Y-73775240D01*
X147865605Y-73718004D01*
X147574000Y-73660000D01*
X144526000Y-73660000D01*
X144234395Y-73718004D01*
X143987184Y-73883185D01*
X142717185Y-75153185D01*
X142552004Y-75400395D01*
X142494000Y-75692000D01*
X142494000Y-76964612D01*
X142355942Y-76630485D01*
X142065046Y-76339081D01*
X141684777Y-76181180D01*
X141520668Y-76181037D01*
X140746815Y-75407185D01*
X140690489Y-75369549D01*
X140499605Y-75242004D01*
X140208000Y-75184000D01*
X122161236Y-75184000D01*
X124072618Y-73272618D01*
X124137467Y-73175564D01*
X124265329Y-72984206D01*
X124332316Y-72647440D01*
X126144000Y-72647440D01*
X126379317Y-72603162D01*
X126595441Y-72464090D01*
X126740431Y-72251890D01*
X126791440Y-72000000D01*
X126791440Y-70000000D01*
X126747162Y-69764683D01*
X126608090Y-69548559D01*
X126491651Y-69469000D01*
X127384540Y-69469000D01*
X127280559Y-69535910D01*
X127135569Y-69748110D01*
X127084560Y-70000000D01*
X127084560Y-72000000D01*
X127128838Y-72235317D01*
X127267910Y-72451441D01*
X127480110Y-72596431D01*
X127732000Y-72647440D01*
X131732000Y-72647440D01*
X131967317Y-72603162D01*
X132183441Y-72464090D01*
X132328431Y-72251890D01*
X132379440Y-72000000D01*
X132379440Y-70000000D01*
X132335162Y-69764683D01*
X132196090Y-69548559D01*
X131983890Y-69403569D01*
X131732000Y-69352560D01*
X129921000Y-69352560D01*
X129921000Y-69342000D01*
X129853329Y-69001794D01*
X129660618Y-68713382D01*
X129146236Y-68199000D01*
X132981764Y-68199000D01*
X133731000Y-68948236D01*
X133731000Y-69352560D01*
X133320000Y-69352560D01*
X133084683Y-69396838D01*
X132868559Y-69535910D01*
X132723569Y-69748110D01*
X132672560Y-70000000D01*
X132672560Y-72000000D01*
X132716838Y-72235317D01*
X132855910Y-72451441D01*
X133068110Y-72596431D01*
X133320000Y-72647440D01*
X137320000Y-72647440D01*
X137555317Y-72603162D01*
X137771441Y-72464090D01*
X137916431Y-72251890D01*
X137967440Y-72000000D01*
X137967440Y-71531750D01*
X138273000Y-71531750D01*
X138273000Y-72126310D01*
X138369673Y-72359699D01*
X138548302Y-72538327D01*
X138781691Y-72635000D01*
X140376250Y-72635000D01*
X140535000Y-72476250D01*
X140535000Y-71373000D01*
X141281000Y-71373000D01*
X141281000Y-72476250D01*
X141439750Y-72635000D01*
X143034309Y-72635000D01*
X143267698Y-72538327D01*
X143446327Y-72359699D01*
X143543000Y-72126310D01*
X143543000Y-71531750D01*
X143384250Y-71373000D01*
X141281000Y-71373000D01*
X140535000Y-71373000D01*
X138431750Y-71373000D01*
X138273000Y-71531750D01*
X137967440Y-71531750D01*
X137967440Y-70000000D01*
X137943674Y-69873690D01*
X138273000Y-69873690D01*
X138273000Y-70468250D01*
X138431750Y-70627000D01*
X140535000Y-70627000D01*
X140535000Y-69523750D01*
X141281000Y-69523750D01*
X141281000Y-70627000D01*
X143384250Y-70627000D01*
X143543000Y-70468250D01*
X143543000Y-69873690D01*
X143446327Y-69640301D01*
X143267698Y-69461673D01*
X143034309Y-69365000D01*
X141439750Y-69365000D01*
X141281000Y-69523750D01*
X140535000Y-69523750D01*
X140376250Y-69365000D01*
X138781691Y-69365000D01*
X138548302Y-69461673D01*
X138369673Y-69640301D01*
X138273000Y-69873690D01*
X137943674Y-69873690D01*
X137923162Y-69764683D01*
X137784090Y-69548559D01*
X137571890Y-69403569D01*
X137320000Y-69352560D01*
X135509000Y-69352560D01*
X135509000Y-68580000D01*
X135441329Y-68239794D01*
X135248618Y-67951382D01*
X134472236Y-67175000D01*
X134620000Y-67175000D01*
X135054346Y-67088603D01*
X135422566Y-66842566D01*
X137818726Y-64446406D01*
X137818630Y-64556815D01*
X138142980Y-65341800D01*
X138743041Y-65942909D01*
X139527459Y-66268628D01*
X140376815Y-66269370D01*
X141161800Y-65945020D01*
X141762909Y-65344959D01*
X141764250Y-65341729D01*
X141846091Y-65539800D01*
X142544523Y-66239452D01*
X143457534Y-66618568D01*
X144446128Y-66619430D01*
X145359800Y-66241909D01*
X146059452Y-65543477D01*
X146438568Y-64630466D01*
X146439430Y-63641872D01*
X146061909Y-62728200D01*
X145363477Y-62028548D01*
X144450466Y-61649432D01*
X143461872Y-61648570D01*
X142548200Y-62026091D01*
X141848548Y-62724523D01*
X141764868Y-62926047D01*
X141164959Y-62325091D01*
X140380541Y-61999372D01*
X139814449Y-61998877D01*
X139819000Y-61976000D01*
X139819000Y-59701140D01*
X140454362Y-59701140D01*
X140570749Y-59937708D01*
X141207400Y-60070949D01*
X141846578Y-59950413D01*
X141877251Y-59937708D01*
X141993638Y-59701140D01*
X141224000Y-58931502D01*
X140454362Y-59701140D01*
X139819000Y-59701140D01*
X139819000Y-59581204D01*
X140069278Y-59331363D01*
X140282406Y-58818092D01*
X140696498Y-58404000D01*
X141751502Y-58404000D01*
X142521140Y-59173638D01*
X142757708Y-59057251D01*
X142890949Y-58420600D01*
X142770413Y-57781422D01*
X142757708Y-57750749D01*
X142521140Y-57634362D01*
X141751502Y-58404000D01*
X140696498Y-58404000D01*
X140281670Y-57989172D01*
X140070894Y-57479057D01*
X139699348Y-57106860D01*
X140454362Y-57106860D01*
X141224000Y-57876498D01*
X141993638Y-57106860D01*
X141877251Y-56870292D01*
X141240600Y-56737051D01*
X140601422Y-56857587D01*
X140570749Y-56870292D01*
X140454362Y-57106860D01*
X139699348Y-57106860D01*
X139611363Y-57018722D01*
X139010648Y-56769284D01*
X138360205Y-56768716D01*
X137759057Y-57017106D01*
X137752593Y-57023558D01*
X137778716Y-56960648D01*
X137779284Y-56310205D01*
X137752324Y-56244958D01*
X137756637Y-56249278D01*
X138357352Y-56498716D01*
X139007795Y-56499284D01*
X139608943Y-56250894D01*
X139954199Y-55906241D01*
X140296637Y-56249278D01*
X140897352Y-56498716D01*
X141547795Y-56499284D01*
X142148943Y-56250894D01*
X142609278Y-55791363D01*
X142858716Y-55190648D01*
X142859284Y-54540205D01*
X142610894Y-53939057D01*
X142151363Y-53478722D01*
X141550648Y-53229284D01*
X140985474Y-53228790D01*
X139463342Y-51706658D01*
X139201209Y-51531505D01*
X138892000Y-51470000D01*
X61422707Y-51470000D01*
X61164799Y-51521301D01*
X61113498Y-51531505D01*
X60851365Y-51706658D01*
X59083427Y-53474596D01*
X58492648Y-53229284D01*
X57842205Y-53228716D01*
X57241057Y-53477106D01*
X56780722Y-53936637D01*
X56531284Y-54537352D01*
X56530716Y-55187795D01*
X56779106Y-55788943D01*
X57238637Y-56249278D01*
X57839352Y-56498716D01*
X58309124Y-56499126D01*
X58308879Y-56779479D01*
X58182600Y-56753051D01*
X57543422Y-56873587D01*
X57512749Y-56886292D01*
X57396362Y-57122860D01*
X58166000Y-57892498D01*
X58180142Y-57878356D01*
X58707644Y-58405858D01*
X58693502Y-58420000D01*
X59463140Y-59189638D01*
X59699708Y-59073251D01*
X59832949Y-58436600D01*
X59802829Y-58276878D01*
X60087124Y-58277126D01*
X60086716Y-58743795D01*
X60087000Y-58744482D01*
X60087000Y-61467995D01*
X60086999Y-61468000D01*
X60194257Y-62007218D01*
X59521185Y-62006630D01*
X58736200Y-62330980D01*
X58135091Y-62931041D01*
X58133750Y-62934271D01*
X58051909Y-62736200D01*
X57353477Y-62036548D01*
X56440466Y-61657432D01*
X55451872Y-61656570D01*
X54538200Y-62034091D01*
X53838548Y-62732523D01*
X53459432Y-63645534D01*
X53458570Y-64634128D01*
X53836091Y-65547800D01*
X54534523Y-66247452D01*
X55447534Y-66626568D01*
X56436128Y-66627430D01*
X57349800Y-66249909D01*
X58049452Y-65551477D01*
X58133132Y-65349953D01*
X58733041Y-65950909D01*
X59517459Y-66276628D01*
X60366815Y-66277370D01*
X61151800Y-65953020D01*
X61752909Y-65352959D01*
X62078628Y-64568541D01*
X62079005Y-64137244D01*
X62089878Y-64148117D01*
X62089880Y-64148120D01*
X62620313Y-64502543D01*
X63246000Y-64627000D01*
X67309995Y-64627000D01*
X67310000Y-64627001D01*
X67935688Y-64502543D01*
X68466120Y-64148120D01*
X68942548Y-63671691D01*
X76339000Y-63671691D01*
X76339000Y-63989250D01*
X76497750Y-64148000D01*
X77351000Y-64148000D01*
X77351000Y-63321750D01*
X78097000Y-63321750D01*
X78097000Y-64148000D01*
X78950250Y-64148000D01*
X79109000Y-63989250D01*
X79109000Y-63671691D01*
X79012327Y-63438302D01*
X78833699Y-63259673D01*
X78600310Y-63163000D01*
X78255750Y-63163000D01*
X78097000Y-63321750D01*
X77351000Y-63321750D01*
X77192250Y-63163000D01*
X76847690Y-63163000D01*
X76614301Y-63259673D01*
X76435673Y-63438302D01*
X76339000Y-63671691D01*
X68942548Y-63671691D01*
X69990117Y-62624122D01*
X69990120Y-62624120D01*
X70344543Y-62093687D01*
X70469000Y-61468000D01*
X70469000Y-58436000D01*
X70820560Y-58436000D01*
X70820560Y-60436000D01*
X70864838Y-60671317D01*
X71003910Y-60887441D01*
X71216110Y-61032431D01*
X71468000Y-61083440D01*
X75468000Y-61083440D01*
X75703317Y-61039162D01*
X75919441Y-60900090D01*
X75942407Y-60866478D01*
X76112110Y-60982431D01*
X76364000Y-61033440D01*
X77964000Y-61033440D01*
X78199317Y-60989162D01*
X78415441Y-60850090D01*
X78560431Y-60637890D01*
X78611440Y-60386000D01*
X78611440Y-58486000D01*
X78816560Y-58486000D01*
X78816560Y-60386000D01*
X78860838Y-60621317D01*
X78999910Y-60837441D01*
X79212110Y-60982431D01*
X79464000Y-61033440D01*
X81064000Y-61033440D01*
X81299317Y-60989162D01*
X81515441Y-60850090D01*
X81519785Y-60843733D01*
X81547910Y-60887441D01*
X81760110Y-61032431D01*
X82012000Y-61083440D01*
X86012000Y-61083440D01*
X86247317Y-61039162D01*
X86463441Y-60900090D01*
X86608431Y-60687890D01*
X86659440Y-60436000D01*
X86659440Y-58436000D01*
X86615162Y-58200683D01*
X86476090Y-57984559D01*
X86263890Y-57839569D01*
X86012000Y-57788560D01*
X82012000Y-57788560D01*
X81776683Y-57832838D01*
X81560559Y-57971910D01*
X81521043Y-58029744D01*
X81315890Y-57889569D01*
X81064000Y-57838560D01*
X79464000Y-57838560D01*
X79228683Y-57882838D01*
X79012559Y-58021910D01*
X78867569Y-58234110D01*
X78816560Y-58486000D01*
X78611440Y-58486000D01*
X78567162Y-58250683D01*
X78428090Y-58034559D01*
X78215890Y-57889569D01*
X77964000Y-57838560D01*
X76364000Y-57838560D01*
X76128683Y-57882838D01*
X75943368Y-58002085D01*
X75932090Y-57984559D01*
X75719890Y-57839569D01*
X75468000Y-57788560D01*
X71468000Y-57788560D01*
X71232683Y-57832838D01*
X71016559Y-57971910D01*
X70871569Y-58184110D01*
X70820560Y-58436000D01*
X70469000Y-58436000D01*
X70469000Y-58335240D01*
X72559240Y-56245000D01*
X89977867Y-56245000D01*
X88859435Y-57363433D01*
X88859434Y-57363434D01*
X88613397Y-57731654D01*
X88527000Y-58166000D01*
X88527000Y-59120042D01*
X88488539Y-59158436D01*
X88277241Y-59667298D01*
X88276760Y-60218285D01*
X88487169Y-60727515D01*
X88876436Y-61117461D01*
X89385298Y-61328759D01*
X89936285Y-61329240D01*
X90445515Y-61118831D01*
X90835461Y-60729564D01*
X91046759Y-60220702D01*
X91047240Y-59669715D01*
X90836831Y-59160485D01*
X90797000Y-59120585D01*
X90797000Y-58636132D01*
X91344560Y-58088573D01*
X91344560Y-58916000D01*
X91388838Y-59151317D01*
X91527910Y-59367441D01*
X91557000Y-59387317D01*
X91557000Y-61780113D01*
X91535559Y-61793910D01*
X91510216Y-61831000D01*
X89753877Y-61831000D01*
X89745162Y-61784683D01*
X89606090Y-61568559D01*
X89393890Y-61423569D01*
X89142000Y-61372560D01*
X87642000Y-61372560D01*
X87406683Y-61416838D01*
X87190559Y-61555910D01*
X87045569Y-61768110D01*
X86994560Y-62020000D01*
X86994560Y-63420000D01*
X87038838Y-63655317D01*
X87096051Y-63744228D01*
X87045569Y-63818110D01*
X86994560Y-64070000D01*
X86994560Y-65470000D01*
X87038838Y-65705317D01*
X87168294Y-65906497D01*
X87045569Y-66086110D01*
X86994560Y-66338000D01*
X86994560Y-67738000D01*
X87038838Y-67973317D01*
X87092139Y-68056148D01*
X87007000Y-68261691D01*
X87007000Y-68579250D01*
X87165750Y-68738000D01*
X88019000Y-68738000D01*
X88019000Y-68695000D01*
X88765000Y-68695000D01*
X88765000Y-68738000D01*
X89618250Y-68738000D01*
X89777000Y-68579250D01*
X89777000Y-68261691D01*
X89692351Y-68057330D01*
X89738431Y-67989890D01*
X89789440Y-67738000D01*
X89789440Y-66338000D01*
X89745162Y-66102683D01*
X89615706Y-65901503D01*
X89738431Y-65721890D01*
X89789440Y-65470000D01*
X89789440Y-64070000D01*
X89745162Y-63834683D01*
X89687949Y-63745772D01*
X89738431Y-63671890D01*
X89751167Y-63609000D01*
X91339560Y-63609000D01*
X91339560Y-65758000D01*
X91383838Y-65993317D01*
X91522910Y-66209441D01*
X91735110Y-66354431D01*
X91829000Y-66373444D01*
X91829000Y-68735962D01*
X91728683Y-68754838D01*
X91512559Y-68893910D01*
X91367569Y-69106110D01*
X91316560Y-69358000D01*
X91316560Y-70934930D01*
X90200815Y-69819185D01*
X90103094Y-69753890D01*
X89953605Y-69654004D01*
X89777000Y-69618875D01*
X89777000Y-69596750D01*
X89618250Y-69438000D01*
X88765000Y-69438000D01*
X88765000Y-69481000D01*
X88019000Y-69481000D01*
X88019000Y-69438000D01*
X87165750Y-69438000D01*
X87007750Y-69596000D01*
X85194405Y-69596000D01*
X85213440Y-69502000D01*
X85213440Y-65502000D01*
X85169162Y-65266683D01*
X85030090Y-65050559D01*
X84817890Y-64905569D01*
X84566000Y-64854560D01*
X82566000Y-64854560D01*
X82330683Y-64898838D01*
X82114559Y-65037910D01*
X81969569Y-65250110D01*
X81918560Y-65502000D01*
X81918560Y-65786000D01*
X81653161Y-65786000D01*
X81617162Y-65594683D01*
X81478090Y-65378559D01*
X81265890Y-65233569D01*
X81014000Y-65182560D01*
X79514000Y-65182560D01*
X79278683Y-65226838D01*
X79102383Y-65340284D01*
X79109000Y-65324309D01*
X79109000Y-65006750D01*
X78950250Y-64848000D01*
X78097000Y-64848000D01*
X78097000Y-64891000D01*
X77351000Y-64891000D01*
X77351000Y-64848000D01*
X76497750Y-64848000D01*
X76339000Y-65006750D01*
X76339000Y-65324309D01*
X76423649Y-65528670D01*
X76377569Y-65596110D01*
X76326560Y-65848000D01*
X76326560Y-67248000D01*
X76370838Y-67483317D01*
X76509910Y-67699441D01*
X76722110Y-67844431D01*
X76974000Y-67895440D01*
X78474000Y-67895440D01*
X78709317Y-67851162D01*
X78896835Y-67730497D01*
X78866560Y-67880000D01*
X78866560Y-69280000D01*
X78910838Y-69515317D01*
X79049910Y-69731441D01*
X79262110Y-69876431D01*
X79514000Y-69927440D01*
X79586621Y-69927440D01*
X79704595Y-70104000D01*
X76050405Y-70104000D01*
X76069440Y-70010000D01*
X76069440Y-66010000D01*
X76025162Y-65774683D01*
X75886090Y-65558559D01*
X75673890Y-65413569D01*
X75422000Y-65362560D01*
X73422000Y-65362560D01*
X73186683Y-65406838D01*
X72970559Y-65545910D01*
X72825569Y-65758110D01*
X72774560Y-66010000D01*
X72774560Y-70010000D01*
X72818838Y-70245317D01*
X72829905Y-70262515D01*
X72436399Y-70425107D01*
X72294831Y-70082485D01*
X71905564Y-69692539D01*
X71396702Y-69481241D01*
X70845715Y-69480760D01*
X70336485Y-69691169D01*
X70296585Y-69731000D01*
X70066659Y-69731000D01*
X70218759Y-69364702D01*
X70219240Y-68813715D01*
X70008831Y-68304485D01*
X69619564Y-67914539D01*
X69110702Y-67703241D01*
X68559715Y-67702760D01*
X68050485Y-67913169D01*
X68010585Y-67953000D01*
X63754000Y-67953000D01*
X63319654Y-68039397D01*
X63076167Y-68202090D01*
X62951434Y-68285434D01*
X61505868Y-69731000D01*
X53755204Y-69731000D01*
X53505363Y-69480722D01*
X52904648Y-69231284D01*
X52254205Y-69230716D01*
X51653057Y-69479106D01*
X51192722Y-69938637D01*
X50943284Y-70539352D01*
X50942716Y-71189795D01*
X51191106Y-71790943D01*
X51257621Y-71857574D01*
X51126559Y-71941910D01*
X50981569Y-72154110D01*
X50930560Y-72406000D01*
X50930560Y-74406000D01*
X50974838Y-74641317D01*
X51113910Y-74857441D01*
X51326110Y-75002431D01*
X51578000Y-75053440D01*
X53578000Y-75053440D01*
X53813317Y-75009162D01*
X54029441Y-74870090D01*
X54174431Y-74657890D01*
X54225440Y-74406000D01*
X54225440Y-72406000D01*
X54181162Y-72170683D01*
X54071974Y-72001000D01*
X61976000Y-72001000D01*
X62410346Y-71914603D01*
X62778566Y-71668566D01*
X64224132Y-70223000D01*
X64315868Y-70223000D01*
X57695868Y-76843000D01*
X53755204Y-76843000D01*
X53505363Y-76592722D01*
X52904648Y-76343284D01*
X52254205Y-76342716D01*
X51653057Y-76591106D01*
X51192722Y-77050637D01*
X50943284Y-77651352D01*
X50942716Y-78301795D01*
X51191106Y-78902943D01*
X51257621Y-78969574D01*
X51126559Y-79053910D01*
X50981569Y-79266110D01*
X50930560Y-79518000D01*
X50930560Y-81518000D01*
X50974838Y-81753317D01*
X51113910Y-81969441D01*
X51326110Y-82114431D01*
X51578000Y-82165440D01*
X53578000Y-82165440D01*
X53813317Y-82121162D01*
X54029441Y-81982090D01*
X54174431Y-81769890D01*
X54225440Y-81518000D01*
X54225440Y-79518000D01*
X54181162Y-79282683D01*
X54071974Y-79113000D01*
X58166000Y-79113000D01*
X58413265Y-79063816D01*
X53638744Y-83838337D01*
X53505363Y-83704722D01*
X52904648Y-83455284D01*
X52254205Y-83454716D01*
X51653057Y-83703106D01*
X51192722Y-84162637D01*
X50943284Y-84763352D01*
X50942716Y-85413795D01*
X51191106Y-86014943D01*
X51257621Y-86081574D01*
X51126559Y-86165910D01*
X50981569Y-86378110D01*
X50930560Y-86630000D01*
X50930560Y-88630000D01*
X50974838Y-88865317D01*
X51113910Y-89081441D01*
X51326110Y-89226431D01*
X51578000Y-89277440D01*
X53578000Y-89277440D01*
X53813317Y-89233162D01*
X54029441Y-89094090D01*
X54174431Y-88881890D01*
X54225440Y-88630000D01*
X54225440Y-86630000D01*
X54181162Y-86394683D01*
X54062923Y-86210935D01*
X54426559Y-86138603D01*
X54794779Y-85892566D01*
X65130345Y-75557000D01*
X65331868Y-75557000D01*
X56855434Y-84033434D01*
X56609397Y-84401654D01*
X56523000Y-84836000D01*
X56523000Y-86651868D01*
X52607843Y-90567025D01*
X52254205Y-90566716D01*
X51653057Y-90815106D01*
X51192722Y-91274637D01*
X50943284Y-91875352D01*
X50942716Y-92525795D01*
X51191106Y-93126943D01*
X51257621Y-93193574D01*
X51126559Y-93277910D01*
X50981569Y-93490110D01*
X50930560Y-93742000D01*
X50930560Y-95742000D01*
X50974838Y-95977317D01*
X51113910Y-96193441D01*
X51326110Y-96338431D01*
X51578000Y-96389440D01*
X53578000Y-96389440D01*
X53813317Y-96345162D01*
X54029441Y-96206090D01*
X54174431Y-95993890D01*
X54225440Y-95742000D01*
X54225440Y-93742000D01*
X54181162Y-93506683D01*
X54042090Y-93290559D01*
X53899439Y-93193090D01*
X53963278Y-93129363D01*
X54212716Y-92528648D01*
X54213027Y-92172105D01*
X58420000Y-87965132D01*
X58420000Y-96966370D01*
X56834370Y-98552000D01*
X54032221Y-98552000D01*
X53964894Y-98389057D01*
X53505363Y-97928722D01*
X52904648Y-97679284D01*
X52254205Y-97678716D01*
X51653057Y-97927106D01*
X51192722Y-98386637D01*
X50943284Y-98987352D01*
X50942716Y-99637795D01*
X51191106Y-100238943D01*
X51257621Y-100305574D01*
X51126559Y-100389910D01*
X50981569Y-100602110D01*
X50930560Y-100854000D01*
X50930560Y-102854000D01*
X50974838Y-103089317D01*
X51113910Y-103305441D01*
X51326110Y-103450431D01*
X51578000Y-103501440D01*
X53578000Y-103501440D01*
X53813317Y-103457162D01*
X54029441Y-103318090D01*
X54174431Y-103105890D01*
X54225440Y-102854000D01*
X54225440Y-102558550D01*
X60781500Y-102558550D01*
X60781500Y-102876109D01*
X60878173Y-103109498D01*
X61056801Y-103288127D01*
X61290190Y-103384800D01*
X61634750Y-103384800D01*
X61793500Y-103226050D01*
X61793500Y-102399800D01*
X62539500Y-102399800D01*
X62539500Y-103226050D01*
X62698250Y-103384800D01*
X63042810Y-103384800D01*
X63276199Y-103288127D01*
X63454827Y-103109498D01*
X63551500Y-102876109D01*
X63551500Y-102558550D01*
X63392750Y-102399800D01*
X62539500Y-102399800D01*
X61793500Y-102399800D01*
X60940250Y-102399800D01*
X60781500Y-102558550D01*
X54225440Y-102558550D01*
X54225440Y-100854000D01*
X54181162Y-100618683D01*
X54042090Y-100402559D01*
X53899439Y-100305090D01*
X53963278Y-100241363D01*
X54031943Y-100076000D01*
X57150000Y-100076000D01*
X57441605Y-100017996D01*
X57688815Y-99852815D01*
X59720815Y-97820815D01*
X59759874Y-97762359D01*
X59885996Y-97573605D01*
X59944000Y-97282000D01*
X59944000Y-86981491D01*
X60781500Y-86981491D01*
X60781500Y-87299050D01*
X60940250Y-87457800D01*
X61793500Y-87457800D01*
X61793500Y-86631550D01*
X62539500Y-86631550D01*
X62539500Y-87457800D01*
X63392750Y-87457800D01*
X63551500Y-87299050D01*
X63551500Y-86981491D01*
X63454827Y-86748102D01*
X63276199Y-86569473D01*
X63042810Y-86472800D01*
X62698250Y-86472800D01*
X62539500Y-86631550D01*
X61793500Y-86631550D01*
X61634750Y-86472800D01*
X61290190Y-86472800D01*
X61056801Y-86569473D01*
X60878173Y-86748102D01*
X60781500Y-86981491D01*
X59944000Y-86981491D01*
X59944000Y-85405630D01*
X63466139Y-81883491D01*
X69671500Y-81883491D01*
X69671500Y-82201050D01*
X69830250Y-82359800D01*
X70683500Y-82359800D01*
X70683500Y-81533550D01*
X71429500Y-81533550D01*
X71429500Y-82359800D01*
X72282750Y-82359800D01*
X72441500Y-82201050D01*
X72441500Y-81901491D01*
X78815500Y-81901491D01*
X78815500Y-82219050D01*
X78974250Y-82377800D01*
X79827500Y-82377800D01*
X79827500Y-81551550D01*
X80573500Y-81551550D01*
X80573500Y-82377800D01*
X81426750Y-82377800D01*
X81585500Y-82219050D01*
X81585500Y-81901491D01*
X81488827Y-81668102D01*
X81310199Y-81489473D01*
X81076810Y-81392800D01*
X80732250Y-81392800D01*
X80573500Y-81551550D01*
X79827500Y-81551550D01*
X79668750Y-81392800D01*
X79324190Y-81392800D01*
X79090801Y-81489473D01*
X78912173Y-81668102D01*
X78815500Y-81901491D01*
X72441500Y-81901491D01*
X72441500Y-81883491D01*
X72344827Y-81650102D01*
X72166199Y-81471473D01*
X71932810Y-81374800D01*
X71588250Y-81374800D01*
X71429500Y-81533550D01*
X70683500Y-81533550D01*
X70524750Y-81374800D01*
X70180190Y-81374800D01*
X69946801Y-81471473D01*
X69768173Y-81650102D01*
X69671500Y-81883491D01*
X63466139Y-81883491D01*
X66977830Y-78371800D01*
X72457060Y-78371800D01*
X72457060Y-79971800D01*
X72501338Y-80207117D01*
X72640410Y-80423241D01*
X72852610Y-80568231D01*
X73104500Y-80619240D01*
X75104500Y-80619240D01*
X75339817Y-80574962D01*
X75555941Y-80435890D01*
X75700931Y-80223690D01*
X75751940Y-79971800D01*
X75751940Y-78371800D01*
X75757060Y-78371800D01*
X75757060Y-79971800D01*
X75801338Y-80207117D01*
X75940410Y-80423241D01*
X76152610Y-80568231D01*
X76404500Y-80619240D01*
X78404500Y-80619240D01*
X78639817Y-80574962D01*
X78855941Y-80435890D01*
X79000931Y-80223690D01*
X79051940Y-79971800D01*
X79051940Y-78371800D01*
X79007662Y-78136483D01*
X78868590Y-77920359D01*
X78656390Y-77775369D01*
X78404500Y-77724360D01*
X76404500Y-77724360D01*
X76169183Y-77768638D01*
X75953059Y-77907710D01*
X75808069Y-78119910D01*
X75757060Y-78371800D01*
X75751940Y-78371800D01*
X75707662Y-78136483D01*
X75568590Y-77920359D01*
X75356390Y-77775369D01*
X75104500Y-77724360D01*
X73104500Y-77724360D01*
X72869183Y-77768638D01*
X72653059Y-77907710D01*
X72508069Y-78119910D01*
X72457060Y-78371800D01*
X66977830Y-78371800D01*
X67939831Y-77409799D01*
X79380169Y-77409799D01*
X82550000Y-80579631D01*
X82550000Y-82804000D01*
X82608004Y-83095605D01*
X82732005Y-83281185D01*
X82773185Y-83342815D01*
X82784963Y-83354593D01*
X82784821Y-83516971D01*
X82942058Y-83897515D01*
X83232954Y-84188919D01*
X83408699Y-84261895D01*
X82441685Y-85228909D01*
X82276504Y-85476119D01*
X82218500Y-85767724D01*
X82218500Y-86595154D01*
X81837029Y-86594821D01*
X81456485Y-86752058D01*
X81165081Y-87042954D01*
X81163193Y-87047500D01*
X80532265Y-87047500D01*
X80417546Y-86932581D01*
X80037277Y-86774680D01*
X79625529Y-86774321D01*
X79244985Y-86931558D01*
X78953581Y-87222454D01*
X78795680Y-87602723D01*
X78795321Y-88014471D01*
X78952558Y-88395015D01*
X79068500Y-88511159D01*
X79068500Y-90568618D01*
X78845183Y-90610638D01*
X78629059Y-90749710D01*
X78484069Y-90961910D01*
X78433060Y-91213800D01*
X78433060Y-91513800D01*
X78448271Y-91594640D01*
X77978000Y-91124370D01*
X77978000Y-86269240D01*
X78404500Y-86269240D01*
X78639817Y-86224962D01*
X78855941Y-86085890D01*
X78975044Y-85911577D01*
X78986410Y-85929241D01*
X79198610Y-86074231D01*
X79450500Y-86125240D01*
X80950500Y-86125240D01*
X81185817Y-86080962D01*
X81401941Y-85941890D01*
X81546931Y-85729690D01*
X81597940Y-85477800D01*
X81597940Y-84077800D01*
X81553662Y-83842483D01*
X81500361Y-83759652D01*
X81585500Y-83554109D01*
X81585500Y-83236550D01*
X81426750Y-83077800D01*
X80573500Y-83077800D01*
X80573500Y-83120800D01*
X79827500Y-83120800D01*
X79827500Y-83077800D01*
X78974250Y-83077800D01*
X78815500Y-83236550D01*
X78815500Y-83534084D01*
X78656390Y-83425369D01*
X78404500Y-83374360D01*
X76404500Y-83374360D01*
X76169183Y-83418638D01*
X75953059Y-83557710D01*
X75808069Y-83769910D01*
X75757060Y-84021800D01*
X75757060Y-85621800D01*
X75801338Y-85857117D01*
X75940410Y-86073241D01*
X76152610Y-86218231D01*
X76404500Y-86269240D01*
X76454000Y-86269240D01*
X76454000Y-90616369D01*
X75501940Y-89664310D01*
X75501940Y-88726000D01*
X75457662Y-88490683D01*
X75400449Y-88401772D01*
X75450931Y-88327890D01*
X75501940Y-88076000D01*
X75501940Y-86676000D01*
X75457662Y-86440683D01*
X75321114Y-86228481D01*
X75339817Y-86224962D01*
X75555941Y-86085890D01*
X75700931Y-85873690D01*
X75751940Y-85621800D01*
X75751940Y-84021800D01*
X75707662Y-83786483D01*
X75568590Y-83570359D01*
X75356390Y-83425369D01*
X75104500Y-83374360D01*
X73104500Y-83374360D01*
X72869183Y-83418638D01*
X72653059Y-83557710D01*
X72508069Y-83769910D01*
X72461920Y-83997800D01*
X72442274Y-83997800D01*
X72409662Y-83824483D01*
X72356361Y-83741652D01*
X72441500Y-83536109D01*
X72441500Y-83218550D01*
X72282750Y-83059800D01*
X71429500Y-83059800D01*
X71429500Y-83102800D01*
X70683500Y-83102800D01*
X70683500Y-83059800D01*
X69830250Y-83059800D01*
X69671500Y-83218550D01*
X69671500Y-83536109D01*
X69756149Y-83740470D01*
X69710069Y-83807910D01*
X69659060Y-84059800D01*
X69659060Y-85459800D01*
X69703338Y-85695117D01*
X69842410Y-85911241D01*
X70054610Y-86056231D01*
X70306500Y-86107240D01*
X71806500Y-86107240D01*
X72041817Y-86062962D01*
X72257941Y-85923890D01*
X72402931Y-85711690D01*
X72441385Y-85521800D01*
X72457060Y-85521800D01*
X72457060Y-85621800D01*
X72501338Y-85857117D01*
X72640410Y-86073241D01*
X72852610Y-86218231D01*
X72893133Y-86226437D01*
X72758069Y-86424110D01*
X72707060Y-86676000D01*
X72707060Y-88076000D01*
X72751338Y-88311317D01*
X72808551Y-88400228D01*
X72758069Y-88474110D01*
X72707060Y-88726000D01*
X72707060Y-90126000D01*
X72751338Y-90361317D01*
X72890410Y-90577441D01*
X73102610Y-90722431D01*
X73354500Y-90773440D01*
X74455810Y-90773440D01*
X76264370Y-92582001D01*
X71307631Y-92582001D01*
X70866000Y-92140370D01*
X70866000Y-90932000D01*
X70807996Y-90640395D01*
X70642815Y-90393185D01*
X69630615Y-89380985D01*
X69560432Y-89334090D01*
X69383405Y-89215804D01*
X69091800Y-89157800D01*
X68127940Y-89157800D01*
X68127940Y-86619800D01*
X68083662Y-86384483D01*
X67944590Y-86168359D01*
X67732390Y-86023369D01*
X67480500Y-85972360D01*
X64980500Y-85972360D01*
X64745183Y-86016638D01*
X64529059Y-86155710D01*
X64384069Y-86367910D01*
X64333060Y-86619800D01*
X64333060Y-89030800D01*
X63540043Y-89030800D01*
X63519662Y-88922483D01*
X63466361Y-88839652D01*
X63551500Y-88634109D01*
X63551500Y-88316550D01*
X63392750Y-88157800D01*
X62539500Y-88157800D01*
X62539500Y-88200800D01*
X61793500Y-88200800D01*
X61793500Y-88157800D01*
X60940250Y-88157800D01*
X60781500Y-88316550D01*
X60781500Y-88634109D01*
X60866149Y-88838470D01*
X60820069Y-88905910D01*
X60769060Y-89157800D01*
X60769060Y-90557800D01*
X60813338Y-90793117D01*
X60952410Y-91009241D01*
X61164610Y-91154231D01*
X61416500Y-91205240D01*
X62916500Y-91205240D01*
X63151817Y-91160962D01*
X63367941Y-91021890D01*
X63512931Y-90809690D01*
X63513111Y-90808800D01*
X64333060Y-90808800D01*
X64333060Y-93219800D01*
X64377338Y-93455117D01*
X64516410Y-93671241D01*
X64728610Y-93816231D01*
X64980500Y-93867240D01*
X67480500Y-93867240D01*
X67715817Y-93822962D01*
X67931941Y-93683890D01*
X68076931Y-93471690D01*
X68127940Y-93219800D01*
X68127940Y-90681800D01*
X68776170Y-90681800D01*
X69342000Y-91247630D01*
X69342000Y-92456000D01*
X69400004Y-92747605D01*
X69524005Y-92933185D01*
X69565185Y-92994815D01*
X70169370Y-93599000D01*
X69755685Y-94012685D01*
X69590504Y-94259895D01*
X69532500Y-94551500D01*
X69532500Y-96604618D01*
X69309183Y-96646638D01*
X69093059Y-96785710D01*
X68948069Y-96997910D01*
X68897060Y-97249800D01*
X68897060Y-98649800D01*
X68941338Y-98885117D01*
X68998551Y-98974028D01*
X68959760Y-99030800D01*
X68127940Y-99030800D01*
X68127940Y-96619800D01*
X68083662Y-96384483D01*
X67944590Y-96168359D01*
X67732390Y-96023369D01*
X67480500Y-95972360D01*
X64980500Y-95972360D01*
X64745183Y-96016638D01*
X64529059Y-96155710D01*
X64384069Y-96367910D01*
X64333060Y-96619800D01*
X64333060Y-99110800D01*
X63528377Y-99110800D01*
X63519662Y-99064483D01*
X63380590Y-98848359D01*
X63168390Y-98703369D01*
X62916500Y-98652360D01*
X61416500Y-98652360D01*
X61181183Y-98696638D01*
X60965059Y-98835710D01*
X60820069Y-99047910D01*
X60769060Y-99299800D01*
X60769060Y-100699800D01*
X60813338Y-100935117D01*
X60866639Y-101017948D01*
X60781500Y-101223491D01*
X60781500Y-101541050D01*
X60940250Y-101699800D01*
X61793500Y-101699800D01*
X61793500Y-101656800D01*
X62539500Y-101656800D01*
X62539500Y-101699800D01*
X63392750Y-101699800D01*
X63551500Y-101541050D01*
X63551500Y-101223491D01*
X63466851Y-101019130D01*
X63512931Y-100951690D01*
X63525667Y-100888800D01*
X64333060Y-100888800D01*
X64333060Y-103219800D01*
X64377338Y-103455117D01*
X64516410Y-103671241D01*
X64728610Y-103816231D01*
X64980500Y-103867240D01*
X67480500Y-103867240D01*
X67715817Y-103822962D01*
X67931941Y-103683890D01*
X68076931Y-103471690D01*
X68127940Y-103219800D01*
X68127940Y-100808800D01*
X68917570Y-100808800D01*
X68941338Y-100935117D01*
X69080410Y-101151241D01*
X69292610Y-101296231D01*
X69544500Y-101347240D01*
X71044500Y-101347240D01*
X71279817Y-101302962D01*
X71495941Y-101163890D01*
X71640931Y-100951690D01*
X71691940Y-100699800D01*
X71691940Y-99299800D01*
X71647662Y-99064483D01*
X71590449Y-98975572D01*
X71640931Y-98901690D01*
X71691940Y-98649800D01*
X71691940Y-97249800D01*
X71647662Y-97014483D01*
X71508590Y-96798359D01*
X71296390Y-96653369D01*
X71056500Y-96604790D01*
X71056500Y-94867130D01*
X71297831Y-94625800D01*
X73206569Y-94625800D01*
X72613185Y-95219185D01*
X72448004Y-95466395D01*
X72390000Y-95758000D01*
X72390000Y-101030369D01*
X69026370Y-104394000D01*
X59182000Y-104394000D01*
X58890395Y-104452004D01*
X58708964Y-104573233D01*
X58643185Y-104617185D01*
X54579185Y-108681185D01*
X54414004Y-108928395D01*
X54356000Y-109220000D01*
X54356000Y-110174370D01*
X52547185Y-111983185D01*
X52382004Y-112230395D01*
X52324000Y-112522000D01*
X52324000Y-113414560D01*
X52086000Y-113414560D01*
X51850683Y-113458838D01*
X51634559Y-113597910D01*
X51489569Y-113810110D01*
X51438560Y-114062000D01*
X51438560Y-116062000D01*
X51482838Y-116297317D01*
X51586878Y-116459000D01*
X50927000Y-116459000D01*
X50927000Y-109497750D01*
X50943000Y-109497750D01*
X50943000Y-110092309D01*
X51039673Y-110325698D01*
X51218301Y-110504327D01*
X51451690Y-110601000D01*
X52046250Y-110601000D01*
X52205000Y-110442250D01*
X52205000Y-109339000D01*
X52951000Y-109339000D01*
X52951000Y-110442250D01*
X53109750Y-110601000D01*
X53704310Y-110601000D01*
X53937699Y-110504327D01*
X54116327Y-110325698D01*
X54213000Y-110092309D01*
X54213000Y-109497750D01*
X54054250Y-109339000D01*
X52951000Y-109339000D01*
X52205000Y-109339000D01*
X51101750Y-109339000D01*
X50943000Y-109497750D01*
X50927000Y-109497750D01*
X50927000Y-106493974D01*
X51031587Y-107048578D01*
X51044292Y-107079251D01*
X51280858Y-107195637D01*
X51137238Y-107339257D01*
X51223500Y-107425519D01*
X51218301Y-107427673D01*
X51039673Y-107606302D01*
X50943000Y-107839691D01*
X50943000Y-108434250D01*
X51101750Y-108593000D01*
X52205000Y-108593000D01*
X52205000Y-108573000D01*
X52951000Y-108573000D01*
X52951000Y-108593000D01*
X54054250Y-108593000D01*
X54213000Y-108434250D01*
X54213000Y-107839691D01*
X54116327Y-107606302D01*
X53937699Y-107427673D01*
X53932500Y-107425519D01*
X54018762Y-107339257D01*
X53875142Y-107195637D01*
X54111708Y-107079251D01*
X54244949Y-106442600D01*
X54124413Y-105803422D01*
X54111708Y-105772749D01*
X53875140Y-105656362D01*
X53105502Y-106426000D01*
X53119644Y-106440142D01*
X52592142Y-106967644D01*
X52578000Y-106953502D01*
X52563858Y-106967644D01*
X52036356Y-106440142D01*
X52050498Y-106426000D01*
X51280860Y-105656362D01*
X51044292Y-105772749D01*
X50927000Y-106333193D01*
X50927000Y-105128860D01*
X51808362Y-105128860D01*
X52578000Y-105898498D01*
X53347638Y-105128860D01*
X53231251Y-104892292D01*
X52594600Y-104759051D01*
X51955422Y-104879587D01*
X51924749Y-104892292D01*
X51808362Y-105128860D01*
X50927000Y-105128860D01*
X50927000Y-59717140D01*
X57396362Y-59717140D01*
X57512749Y-59953708D01*
X58149400Y-60086949D01*
X58788578Y-59966413D01*
X58819251Y-59953708D01*
X58935638Y-59717140D01*
X58166000Y-58947502D01*
X57396362Y-59717140D01*
X50927000Y-59717140D01*
X50927000Y-58403400D01*
X56499051Y-58403400D01*
X56619587Y-59042578D01*
X56632292Y-59073251D01*
X56868860Y-59189638D01*
X57638498Y-58420000D01*
X56868860Y-57650362D01*
X56632292Y-57766749D01*
X56499051Y-58403400D01*
X50927000Y-58403400D01*
X50927000Y-49634128D01*
X53458570Y-49634128D01*
X53836091Y-50547800D01*
X54534523Y-51247452D01*
X55447534Y-51626568D01*
X56436128Y-51627430D01*
X57349800Y-51249909D01*
X58049452Y-50551477D01*
X58133132Y-50349953D01*
X58733041Y-50950909D01*
X59517459Y-51276628D01*
X60366815Y-51277370D01*
X61151800Y-50953020D01*
X61752909Y-50352959D01*
X62078628Y-49568541D01*
X62078638Y-49556815D01*
X137818630Y-49556815D01*
X138142980Y-50341800D01*
X138743041Y-50942909D01*
X139527459Y-51268628D01*
X140376815Y-51269370D01*
X141161800Y-50945020D01*
X141762909Y-50344959D01*
X141764250Y-50341729D01*
X141846091Y-50539800D01*
X142544523Y-51239452D01*
X143457534Y-51618568D01*
X144446128Y-51619430D01*
X145359800Y-51241909D01*
X146059452Y-50543477D01*
X146438568Y-49630466D01*
X146439430Y-48641872D01*
X146061909Y-47728200D01*
X145363477Y-47028548D01*
X144450466Y-46649432D01*
X143461872Y-46648570D01*
X142548200Y-47026091D01*
X141848548Y-47724523D01*
X141764868Y-47926047D01*
X141164959Y-47325091D01*
X140380541Y-46999372D01*
X139531185Y-46998630D01*
X138746200Y-47322980D01*
X138145091Y-47923041D01*
X137819372Y-48707459D01*
X137818630Y-49556815D01*
X62078638Y-49556815D01*
X62079370Y-48719185D01*
X61755020Y-47934200D01*
X61154959Y-47333091D01*
X60370541Y-47007372D01*
X59521185Y-47006630D01*
X58736200Y-47330980D01*
X58135091Y-47931041D01*
X58133750Y-47934271D01*
X58051909Y-47736200D01*
X57353477Y-47036548D01*
X56440466Y-46657432D01*
X55451872Y-46656570D01*
X54538200Y-47034091D01*
X53838548Y-47732523D01*
X53459432Y-48645534D01*
X53458570Y-49634128D01*
X50927000Y-49634128D01*
X50927000Y-44831000D01*
X64797392Y-44831000D01*
X64357822Y-45269803D01*
X64357822Y-45269803D01*
G37*
X64357822Y-45269803D02*
X63963450Y-46219556D01*
X63962552Y-47247932D01*
X64355266Y-48198372D01*
X65081803Y-48926178D01*
X66031556Y-49320550D01*
X67059932Y-49321448D01*
X68010372Y-48928734D01*
X68738178Y-48202197D01*
X69132550Y-47252444D01*
X69133448Y-46224068D01*
X68740734Y-45273628D01*
X68298877Y-44831000D01*
X128297392Y-44831000D01*
X127857822Y-45269803D01*
X127463450Y-46219556D01*
X127462552Y-47247932D01*
X127855266Y-48198372D01*
X128581803Y-48926178D01*
X129531556Y-49320550D01*
X130559932Y-49321448D01*
X131510372Y-48928734D01*
X132238178Y-48202197D01*
X132632550Y-47252444D01*
X132633448Y-46224068D01*
X132240734Y-45273628D01*
X131798877Y-44831000D01*
X148971000Y-44831000D01*
X148971000Y-74789135D01*
X148958451Y-74770354D01*
X148874816Y-74645185D01*
X148112815Y-73883185D01*
X147951264Y-73775240D01*
X147865605Y-73718004D01*
X147574000Y-73660000D01*
X144526000Y-73660000D01*
X144234395Y-73718004D01*
X143987184Y-73883185D01*
X142717185Y-75153185D01*
X142552004Y-75400395D01*
X142494000Y-75692000D01*
X142494000Y-76964612D01*
X142355942Y-76630485D01*
X142065046Y-76339081D01*
X141684777Y-76181180D01*
X141520668Y-76181037D01*
X140746815Y-75407185D01*
X140690489Y-75369549D01*
X140499605Y-75242004D01*
X140208000Y-75184000D01*
X122161236Y-75184000D01*
X124072618Y-73272618D01*
X124137467Y-73175564D01*
X124265329Y-72984206D01*
X124332316Y-72647440D01*
X126144000Y-72647440D01*
X126379317Y-72603162D01*
X126595441Y-72464090D01*
X126740431Y-72251890D01*
X126791440Y-72000000D01*
X126791440Y-70000000D01*
X126747162Y-69764683D01*
X126608090Y-69548559D01*
X126491651Y-69469000D01*
X127384540Y-69469000D01*
X127280559Y-69535910D01*
X127135569Y-69748110D01*
X127084560Y-70000000D01*
X127084560Y-72000000D01*
X127128838Y-72235317D01*
X127267910Y-72451441D01*
X127480110Y-72596431D01*
X127732000Y-72647440D01*
X131732000Y-72647440D01*
X131967317Y-72603162D01*
X132183441Y-72464090D01*
X132328431Y-72251890D01*
X132379440Y-72000000D01*
X132379440Y-70000000D01*
X132335162Y-69764683D01*
X132196090Y-69548559D01*
X131983890Y-69403569D01*
X131732000Y-69352560D01*
X129921000Y-69352560D01*
X129921000Y-69342000D01*
X129853329Y-69001794D01*
X129660618Y-68713382D01*
X129146236Y-68199000D01*
X132981764Y-68199000D01*
X133731000Y-68948236D01*
X133731000Y-69352560D01*
X133320000Y-69352560D01*
X133084683Y-69396838D01*
X132868559Y-69535910D01*
X132723569Y-69748110D01*
X132672560Y-70000000D01*
X132672560Y-72000000D01*
X132716838Y-72235317D01*
X132855910Y-72451441D01*
X133068110Y-72596431D01*
X133320000Y-72647440D01*
X137320000Y-72647440D01*
X137555317Y-72603162D01*
X137771441Y-72464090D01*
X137916431Y-72251890D01*
X137967440Y-72000000D01*
X137967440Y-71531750D01*
X138273000Y-71531750D01*
X138273000Y-72126310D01*
X138369673Y-72359699D01*
X138548302Y-72538327D01*
X138781691Y-72635000D01*
X140376250Y-72635000D01*
X140535000Y-72476250D01*
X140535000Y-71373000D01*
X141281000Y-71373000D01*
X141281000Y-72476250D01*
X141439750Y-72635000D01*
X143034309Y-72635000D01*
X143267698Y-72538327D01*
X143446327Y-72359699D01*
X143543000Y-72126310D01*
X143543000Y-71531750D01*
X143384250Y-71373000D01*
X141281000Y-71373000D01*
X140535000Y-71373000D01*
X138431750Y-71373000D01*
X138273000Y-71531750D01*
X137967440Y-71531750D01*
X137967440Y-70000000D01*
X137943674Y-69873690D01*
X138273000Y-69873690D01*
X138273000Y-70468250D01*
X138431750Y-70627000D01*
X140535000Y-70627000D01*
X140535000Y-69523750D01*
X141281000Y-69523750D01*
X141281000Y-70627000D01*
X143384250Y-70627000D01*
X143543000Y-70468250D01*
X143543000Y-69873690D01*
X143446327Y-69640301D01*
X143267698Y-69461673D01*
X143034309Y-69365000D01*
X141439750Y-69365000D01*
X141281000Y-69523750D01*
X140535000Y-69523750D01*
X140376250Y-69365000D01*
X138781691Y-69365000D01*
X138548302Y-69461673D01*
X138369673Y-69640301D01*
X138273000Y-69873690D01*
X137943674Y-69873690D01*
X137923162Y-69764683D01*
X137784090Y-69548559D01*
X137571890Y-69403569D01*
X137320000Y-69352560D01*
X135509000Y-69352560D01*
X135509000Y-68580000D01*
X135441329Y-68239794D01*
X135248618Y-67951382D01*
X134472236Y-67175000D01*
X134620000Y-67175000D01*
X135054346Y-67088603D01*
X135422566Y-66842566D01*
X137818726Y-64446406D01*
X137818630Y-64556815D01*
X138142980Y-65341800D01*
X138743041Y-65942909D01*
X139527459Y-66268628D01*
X140376815Y-66269370D01*
X141161800Y-65945020D01*
X141762909Y-65344959D01*
X141764250Y-65341729D01*
X141846091Y-65539800D01*
X142544523Y-66239452D01*
X143457534Y-66618568D01*
X144446128Y-66619430D01*
X145359800Y-66241909D01*
X146059452Y-65543477D01*
X146438568Y-64630466D01*
X146439430Y-63641872D01*
X146061909Y-62728200D01*
X145363477Y-62028548D01*
X144450466Y-61649432D01*
X143461872Y-61648570D01*
X142548200Y-62026091D01*
X141848548Y-62724523D01*
X141764868Y-62926047D01*
X141164959Y-62325091D01*
X140380541Y-61999372D01*
X139814449Y-61998877D01*
X139819000Y-61976000D01*
X139819000Y-59701140D01*
X140454362Y-59701140D01*
X140570749Y-59937708D01*
X141207400Y-60070949D01*
X141846578Y-59950413D01*
X141877251Y-59937708D01*
X141993638Y-59701140D01*
X141224000Y-58931502D01*
X140454362Y-59701140D01*
X139819000Y-59701140D01*
X139819000Y-59581204D01*
X140069278Y-59331363D01*
X140282406Y-58818092D01*
X140696498Y-58404000D01*
X141751502Y-58404000D01*
X142521140Y-59173638D01*
X142757708Y-59057251D01*
X142890949Y-58420600D01*
X142770413Y-57781422D01*
X142757708Y-57750749D01*
X142521140Y-57634362D01*
X141751502Y-58404000D01*
X140696498Y-58404000D01*
X140281670Y-57989172D01*
X140070894Y-57479057D01*
X139699348Y-57106860D01*
X140454362Y-57106860D01*
X141224000Y-57876498D01*
X141993638Y-57106860D01*
X141877251Y-56870292D01*
X141240600Y-56737051D01*
X140601422Y-56857587D01*
X140570749Y-56870292D01*
X140454362Y-57106860D01*
X139699348Y-57106860D01*
X139611363Y-57018722D01*
X139010648Y-56769284D01*
X138360205Y-56768716D01*
X137759057Y-57017106D01*
X137752593Y-57023558D01*
X137778716Y-56960648D01*
X137779284Y-56310205D01*
X137752324Y-56244958D01*
X137756637Y-56249278D01*
X138357352Y-56498716D01*
X139007795Y-56499284D01*
X139608943Y-56250894D01*
X139954199Y-55906241D01*
X140296637Y-56249278D01*
X140897352Y-56498716D01*
X141547795Y-56499284D01*
X142148943Y-56250894D01*
X142609278Y-55791363D01*
X142858716Y-55190648D01*
X142859284Y-54540205D01*
X142610894Y-53939057D01*
X142151363Y-53478722D01*
X141550648Y-53229284D01*
X140985474Y-53228790D01*
X139463342Y-51706658D01*
X139201209Y-51531505D01*
X138892000Y-51470000D01*
X61422707Y-51470000D01*
X61164799Y-51521301D01*
X61113498Y-51531505D01*
X60851365Y-51706658D01*
X59083427Y-53474596D01*
X58492648Y-53229284D01*
X57842205Y-53228716D01*
X57241057Y-53477106D01*
X56780722Y-53936637D01*
X56531284Y-54537352D01*
X56530716Y-55187795D01*
X56779106Y-55788943D01*
X57238637Y-56249278D01*
X57839352Y-56498716D01*
X58309124Y-56499126D01*
X58308879Y-56779479D01*
X58182600Y-56753051D01*
X57543422Y-56873587D01*
X57512749Y-56886292D01*
X57396362Y-57122860D01*
X58166000Y-57892498D01*
X58180142Y-57878356D01*
X58707644Y-58405858D01*
X58693502Y-58420000D01*
X59463140Y-59189638D01*
X59699708Y-59073251D01*
X59832949Y-58436600D01*
X59802829Y-58276878D01*
X60087124Y-58277126D01*
X60086716Y-58743795D01*
X60087000Y-58744482D01*
X60087000Y-61467995D01*
X60086999Y-61468000D01*
X60194257Y-62007218D01*
X59521185Y-62006630D01*
X58736200Y-62330980D01*
X58135091Y-62931041D01*
X58133750Y-62934271D01*
X58051909Y-62736200D01*
X57353477Y-62036548D01*
X56440466Y-61657432D01*
X55451872Y-61656570D01*
X54538200Y-62034091D01*
X53838548Y-62732523D01*
X53459432Y-63645534D01*
X53458570Y-64634128D01*
X53836091Y-65547800D01*
X54534523Y-66247452D01*
X55447534Y-66626568D01*
X56436128Y-66627430D01*
X57349800Y-66249909D01*
X58049452Y-65551477D01*
X58133132Y-65349953D01*
X58733041Y-65950909D01*
X59517459Y-66276628D01*
X60366815Y-66277370D01*
X61151800Y-65953020D01*
X61752909Y-65352959D01*
X62078628Y-64568541D01*
X62079005Y-64137244D01*
X62089878Y-64148117D01*
X62089880Y-64148120D01*
X62620313Y-64502543D01*
X63246000Y-64627000D01*
X67309995Y-64627000D01*
X67310000Y-64627001D01*
X67935688Y-64502543D01*
X68466120Y-64148120D01*
X68942548Y-63671691D01*
X76339000Y-63671691D01*
X76339000Y-63989250D01*
X76497750Y-64148000D01*
X77351000Y-64148000D01*
X77351000Y-63321750D01*
X78097000Y-63321750D01*
X78097000Y-64148000D01*
X78950250Y-64148000D01*
X79109000Y-63989250D01*
X79109000Y-63671691D01*
X79012327Y-63438302D01*
X78833699Y-63259673D01*
X78600310Y-63163000D01*
X78255750Y-63163000D01*
X78097000Y-63321750D01*
X77351000Y-63321750D01*
X77192250Y-63163000D01*
X76847690Y-63163000D01*
X76614301Y-63259673D01*
X76435673Y-63438302D01*
X76339000Y-63671691D01*
X68942548Y-63671691D01*
X69990117Y-62624122D01*
X69990120Y-62624120D01*
X70344543Y-62093687D01*
X70469000Y-61468000D01*
X70469000Y-58436000D01*
X70820560Y-58436000D01*
X70820560Y-60436000D01*
X70864838Y-60671317D01*
X71003910Y-60887441D01*
X71216110Y-61032431D01*
X71468000Y-61083440D01*
X75468000Y-61083440D01*
X75703317Y-61039162D01*
X75919441Y-60900090D01*
X75942407Y-60866478D01*
X76112110Y-60982431D01*
X76364000Y-61033440D01*
X77964000Y-61033440D01*
X78199317Y-60989162D01*
X78415441Y-60850090D01*
X78560431Y-60637890D01*
X78611440Y-60386000D01*
X78611440Y-58486000D01*
X78816560Y-58486000D01*
X78816560Y-60386000D01*
X78860838Y-60621317D01*
X78999910Y-60837441D01*
X79212110Y-60982431D01*
X79464000Y-61033440D01*
X81064000Y-61033440D01*
X81299317Y-60989162D01*
X81515441Y-60850090D01*
X81519785Y-60843733D01*
X81547910Y-60887441D01*
X81760110Y-61032431D01*
X82012000Y-61083440D01*
X86012000Y-61083440D01*
X86247317Y-61039162D01*
X86463441Y-60900090D01*
X86608431Y-60687890D01*
X86659440Y-60436000D01*
X86659440Y-58436000D01*
X86615162Y-58200683D01*
X86476090Y-57984559D01*
X86263890Y-57839569D01*
X86012000Y-57788560D01*
X82012000Y-57788560D01*
X81776683Y-57832838D01*
X81560559Y-57971910D01*
X81521043Y-58029744D01*
X81315890Y-57889569D01*
X81064000Y-57838560D01*
X79464000Y-57838560D01*
X79228683Y-57882838D01*
X79012559Y-58021910D01*
X78867569Y-58234110D01*
X78816560Y-58486000D01*
X78611440Y-58486000D01*
X78567162Y-58250683D01*
X78428090Y-58034559D01*
X78215890Y-57889569D01*
X77964000Y-57838560D01*
X76364000Y-57838560D01*
X76128683Y-57882838D01*
X75943368Y-58002085D01*
X75932090Y-57984559D01*
X75719890Y-57839569D01*
X75468000Y-57788560D01*
X71468000Y-57788560D01*
X71232683Y-57832838D01*
X71016559Y-57971910D01*
X70871569Y-58184110D01*
X70820560Y-58436000D01*
X70469000Y-58436000D01*
X70469000Y-58335240D01*
X72559240Y-56245000D01*
X89977867Y-56245000D01*
X88859435Y-57363433D01*
X88859434Y-57363434D01*
X88613397Y-57731654D01*
X88527000Y-58166000D01*
X88527000Y-59120042D01*
X88488539Y-59158436D01*
X88277241Y-59667298D01*
X88276760Y-60218285D01*
X88487169Y-60727515D01*
X88876436Y-61117461D01*
X89385298Y-61328759D01*
X89936285Y-61329240D01*
X90445515Y-61118831D01*
X90835461Y-60729564D01*
X91046759Y-60220702D01*
X91047240Y-59669715D01*
X90836831Y-59160485D01*
X90797000Y-59120585D01*
X90797000Y-58636132D01*
X91344560Y-58088573D01*
X91344560Y-58916000D01*
X91388838Y-59151317D01*
X91527910Y-59367441D01*
X91557000Y-59387317D01*
X91557000Y-61780113D01*
X91535559Y-61793910D01*
X91510216Y-61831000D01*
X89753877Y-61831000D01*
X89745162Y-61784683D01*
X89606090Y-61568559D01*
X89393890Y-61423569D01*
X89142000Y-61372560D01*
X87642000Y-61372560D01*
X87406683Y-61416838D01*
X87190559Y-61555910D01*
X87045569Y-61768110D01*
X86994560Y-62020000D01*
X86994560Y-63420000D01*
X87038838Y-63655317D01*
X87096051Y-63744228D01*
X87045569Y-63818110D01*
X86994560Y-64070000D01*
X86994560Y-65470000D01*
X87038838Y-65705317D01*
X87168294Y-65906497D01*
X87045569Y-66086110D01*
X86994560Y-66338000D01*
X86994560Y-67738000D01*
X87038838Y-67973317D01*
X87092139Y-68056148D01*
X87007000Y-68261691D01*
X87007000Y-68579250D01*
X87165750Y-68738000D01*
X88019000Y-68738000D01*
X88019000Y-68695000D01*
X88765000Y-68695000D01*
X88765000Y-68738000D01*
X89618250Y-68738000D01*
X89777000Y-68579250D01*
X89777000Y-68261691D01*
X89692351Y-68057330D01*
X89738431Y-67989890D01*
X89789440Y-67738000D01*
X89789440Y-66338000D01*
X89745162Y-66102683D01*
X89615706Y-65901503D01*
X89738431Y-65721890D01*
X89789440Y-65470000D01*
X89789440Y-64070000D01*
X89745162Y-63834683D01*
X89687949Y-63745772D01*
X89738431Y-63671890D01*
X89751167Y-63609000D01*
X91339560Y-63609000D01*
X91339560Y-65758000D01*
X91383838Y-65993317D01*
X91522910Y-66209441D01*
X91735110Y-66354431D01*
X91829000Y-66373444D01*
X91829000Y-68735962D01*
X91728683Y-68754838D01*
X91512559Y-68893910D01*
X91367569Y-69106110D01*
X91316560Y-69358000D01*
X91316560Y-70934930D01*
X90200815Y-69819185D01*
X90103094Y-69753890D01*
X89953605Y-69654004D01*
X89777000Y-69618875D01*
X89777000Y-69596750D01*
X89618250Y-69438000D01*
X88765000Y-69438000D01*
X88765000Y-69481000D01*
X88019000Y-69481000D01*
X88019000Y-69438000D01*
X87165750Y-69438000D01*
X87007750Y-69596000D01*
X85194405Y-69596000D01*
X85213440Y-69502000D01*
X85213440Y-65502000D01*
X85169162Y-65266683D01*
X85030090Y-65050559D01*
X84817890Y-64905569D01*
X84566000Y-64854560D01*
X82566000Y-64854560D01*
X82330683Y-64898838D01*
X82114559Y-65037910D01*
X81969569Y-65250110D01*
X81918560Y-65502000D01*
X81918560Y-65786000D01*
X81653161Y-65786000D01*
X81617162Y-65594683D01*
X81478090Y-65378559D01*
X81265890Y-65233569D01*
X81014000Y-65182560D01*
X79514000Y-65182560D01*
X79278683Y-65226838D01*
X79102383Y-65340284D01*
X79109000Y-65324309D01*
X79109000Y-65006750D01*
X78950250Y-64848000D01*
X78097000Y-64848000D01*
X78097000Y-64891000D01*
X77351000Y-64891000D01*
X77351000Y-64848000D01*
X76497750Y-64848000D01*
X76339000Y-65006750D01*
X76339000Y-65324309D01*
X76423649Y-65528670D01*
X76377569Y-65596110D01*
X76326560Y-65848000D01*
X76326560Y-67248000D01*
X76370838Y-67483317D01*
X76509910Y-67699441D01*
X76722110Y-67844431D01*
X76974000Y-67895440D01*
X78474000Y-67895440D01*
X78709317Y-67851162D01*
X78896835Y-67730497D01*
X78866560Y-67880000D01*
X78866560Y-69280000D01*
X78910838Y-69515317D01*
X79049910Y-69731441D01*
X79262110Y-69876431D01*
X79514000Y-69927440D01*
X79586621Y-69927440D01*
X79704595Y-70104000D01*
X76050405Y-70104000D01*
X76069440Y-70010000D01*
X76069440Y-66010000D01*
X76025162Y-65774683D01*
X75886090Y-65558559D01*
X75673890Y-65413569D01*
X75422000Y-65362560D01*
X73422000Y-65362560D01*
X73186683Y-65406838D01*
X72970559Y-65545910D01*
X72825569Y-65758110D01*
X72774560Y-66010000D01*
X72774560Y-70010000D01*
X72818838Y-70245317D01*
X72829905Y-70262515D01*
X72436399Y-70425107D01*
X72294831Y-70082485D01*
X71905564Y-69692539D01*
X71396702Y-69481241D01*
X70845715Y-69480760D01*
X70336485Y-69691169D01*
X70296585Y-69731000D01*
X70066659Y-69731000D01*
X70218759Y-69364702D01*
X70219240Y-68813715D01*
X70008831Y-68304485D01*
X69619564Y-67914539D01*
X69110702Y-67703241D01*
X68559715Y-67702760D01*
X68050485Y-67913169D01*
X68010585Y-67953000D01*
X63754000Y-67953000D01*
X63319654Y-68039397D01*
X63076167Y-68202090D01*
X62951434Y-68285434D01*
X61505868Y-69731000D01*
X53755204Y-69731000D01*
X53505363Y-69480722D01*
X52904648Y-69231284D01*
X52254205Y-69230716D01*
X51653057Y-69479106D01*
X51192722Y-69938637D01*
X50943284Y-70539352D01*
X50942716Y-71189795D01*
X51191106Y-71790943D01*
X51257621Y-71857574D01*
X51126559Y-71941910D01*
X50981569Y-72154110D01*
X50930560Y-72406000D01*
X50930560Y-74406000D01*
X50974838Y-74641317D01*
X51113910Y-74857441D01*
X51326110Y-75002431D01*
X51578000Y-75053440D01*
X53578000Y-75053440D01*
X53813317Y-75009162D01*
X54029441Y-74870090D01*
X54174431Y-74657890D01*
X54225440Y-74406000D01*
X54225440Y-72406000D01*
X54181162Y-72170683D01*
X54071974Y-72001000D01*
X61976000Y-72001000D01*
X62410346Y-71914603D01*
X62778566Y-71668566D01*
X64224132Y-70223000D01*
X64315868Y-70223000D01*
X57695868Y-76843000D01*
X53755204Y-76843000D01*
X53505363Y-76592722D01*
X52904648Y-76343284D01*
X52254205Y-76342716D01*
X51653057Y-76591106D01*
X51192722Y-77050637D01*
X50943284Y-77651352D01*
X50942716Y-78301795D01*
X51191106Y-78902943D01*
X51257621Y-78969574D01*
X51126559Y-79053910D01*
X50981569Y-79266110D01*
X50930560Y-79518000D01*
X50930560Y-81518000D01*
X50974838Y-81753317D01*
X51113910Y-81969441D01*
X51326110Y-82114431D01*
X51578000Y-82165440D01*
X53578000Y-82165440D01*
X53813317Y-82121162D01*
X54029441Y-81982090D01*
X54174431Y-81769890D01*
X54225440Y-81518000D01*
X54225440Y-79518000D01*
X54181162Y-79282683D01*
X54071974Y-79113000D01*
X58166000Y-79113000D01*
X58413265Y-79063816D01*
X53638744Y-83838337D01*
X53505363Y-83704722D01*
X52904648Y-83455284D01*
X52254205Y-83454716D01*
X51653057Y-83703106D01*
X51192722Y-84162637D01*
X50943284Y-84763352D01*
X50942716Y-85413795D01*
X51191106Y-86014943D01*
X51257621Y-86081574D01*
X51126559Y-86165910D01*
X50981569Y-86378110D01*
X50930560Y-86630000D01*
X50930560Y-88630000D01*
X50974838Y-88865317D01*
X51113910Y-89081441D01*
X51326110Y-89226431D01*
X51578000Y-89277440D01*
X53578000Y-89277440D01*
X53813317Y-89233162D01*
X54029441Y-89094090D01*
X54174431Y-88881890D01*
X54225440Y-88630000D01*
X54225440Y-86630000D01*
X54181162Y-86394683D01*
X54062923Y-86210935D01*
X54426559Y-86138603D01*
X54794779Y-85892566D01*
X65130345Y-75557000D01*
X65331868Y-75557000D01*
X56855434Y-84033434D01*
X56609397Y-84401654D01*
X56523000Y-84836000D01*
X56523000Y-86651868D01*
X52607843Y-90567025D01*
X52254205Y-90566716D01*
X51653057Y-90815106D01*
X51192722Y-91274637D01*
X50943284Y-91875352D01*
X50942716Y-92525795D01*
X51191106Y-93126943D01*
X51257621Y-93193574D01*
X51126559Y-93277910D01*
X50981569Y-93490110D01*
X50930560Y-93742000D01*
X50930560Y-95742000D01*
X50974838Y-95977317D01*
X51113910Y-96193441D01*
X51326110Y-96338431D01*
X51578000Y-96389440D01*
X53578000Y-96389440D01*
X53813317Y-96345162D01*
X54029441Y-96206090D01*
X54174431Y-95993890D01*
X54225440Y-95742000D01*
X54225440Y-93742000D01*
X54181162Y-93506683D01*
X54042090Y-93290559D01*
X53899439Y-93193090D01*
X53963278Y-93129363D01*
X54212716Y-92528648D01*
X54213027Y-92172105D01*
X58420000Y-87965132D01*
X58420000Y-96966370D01*
X56834370Y-98552000D01*
X54032221Y-98552000D01*
X53964894Y-98389057D01*
X53505363Y-97928722D01*
X52904648Y-97679284D01*
X52254205Y-97678716D01*
X51653057Y-97927106D01*
X51192722Y-98386637D01*
X50943284Y-98987352D01*
X50942716Y-99637795D01*
X51191106Y-100238943D01*
X51257621Y-100305574D01*
X51126559Y-100389910D01*
X50981569Y-100602110D01*
X50930560Y-100854000D01*
X50930560Y-102854000D01*
X50974838Y-103089317D01*
X51113910Y-103305441D01*
X51326110Y-103450431D01*
X51578000Y-103501440D01*
X53578000Y-103501440D01*
X53813317Y-103457162D01*
X54029441Y-103318090D01*
X54174431Y-103105890D01*
X54225440Y-102854000D01*
X54225440Y-102558550D01*
X60781500Y-102558550D01*
X60781500Y-102876109D01*
X60878173Y-103109498D01*
X61056801Y-103288127D01*
X61290190Y-103384800D01*
X61634750Y-103384800D01*
X61793500Y-103226050D01*
X61793500Y-102399800D01*
X62539500Y-102399800D01*
X62539500Y-103226050D01*
X62698250Y-103384800D01*
X63042810Y-103384800D01*
X63276199Y-103288127D01*
X63454827Y-103109498D01*
X63551500Y-102876109D01*
X63551500Y-102558550D01*
X63392750Y-102399800D01*
X62539500Y-102399800D01*
X61793500Y-102399800D01*
X60940250Y-102399800D01*
X60781500Y-102558550D01*
X54225440Y-102558550D01*
X54225440Y-100854000D01*
X54181162Y-100618683D01*
X54042090Y-100402559D01*
X53899439Y-100305090D01*
X53963278Y-100241363D01*
X54031943Y-100076000D01*
X57150000Y-100076000D01*
X57441605Y-100017996D01*
X57688815Y-99852815D01*
X59720815Y-97820815D01*
X59759874Y-97762359D01*
X59885996Y-97573605D01*
X59944000Y-97282000D01*
X59944000Y-86981491D01*
X60781500Y-86981491D01*
X60781500Y-87299050D01*
X60940250Y-87457800D01*
X61793500Y-87457800D01*
X61793500Y-86631550D01*
X62539500Y-86631550D01*
X62539500Y-87457800D01*
X63392750Y-87457800D01*
X63551500Y-87299050D01*
X63551500Y-86981491D01*
X63454827Y-86748102D01*
X63276199Y-86569473D01*
X63042810Y-86472800D01*
X62698250Y-86472800D01*
X62539500Y-86631550D01*
X61793500Y-86631550D01*
X61634750Y-86472800D01*
X61290190Y-86472800D01*
X61056801Y-86569473D01*
X60878173Y-86748102D01*
X60781500Y-86981491D01*
X59944000Y-86981491D01*
X59944000Y-85405630D01*
X63466139Y-81883491D01*
X69671500Y-81883491D01*
X69671500Y-82201050D01*
X69830250Y-82359800D01*
X70683500Y-82359800D01*
X70683500Y-81533550D01*
X71429500Y-81533550D01*
X71429500Y-82359800D01*
X72282750Y-82359800D01*
X72441500Y-82201050D01*
X72441500Y-81901491D01*
X78815500Y-81901491D01*
X78815500Y-82219050D01*
X78974250Y-82377800D01*
X79827500Y-82377800D01*
X79827500Y-81551550D01*
X80573500Y-81551550D01*
X80573500Y-82377800D01*
X81426750Y-82377800D01*
X81585500Y-82219050D01*
X81585500Y-81901491D01*
X81488827Y-81668102D01*
X81310199Y-81489473D01*
X81076810Y-81392800D01*
X80732250Y-81392800D01*
X80573500Y-81551550D01*
X79827500Y-81551550D01*
X79668750Y-81392800D01*
X79324190Y-81392800D01*
X79090801Y-81489473D01*
X78912173Y-81668102D01*
X78815500Y-81901491D01*
X72441500Y-81901491D01*
X72441500Y-81883491D01*
X72344827Y-81650102D01*
X72166199Y-81471473D01*
X71932810Y-81374800D01*
X71588250Y-81374800D01*
X71429500Y-81533550D01*
X70683500Y-81533550D01*
X70524750Y-81374800D01*
X70180190Y-81374800D01*
X69946801Y-81471473D01*
X69768173Y-81650102D01*
X69671500Y-81883491D01*
X63466139Y-81883491D01*
X66977830Y-78371800D01*
X72457060Y-78371800D01*
X72457060Y-79971800D01*
X72501338Y-80207117D01*
X72640410Y-80423241D01*
X72852610Y-80568231D01*
X73104500Y-80619240D01*
X75104500Y-80619240D01*
X75339817Y-80574962D01*
X75555941Y-80435890D01*
X75700931Y-80223690D01*
X75751940Y-79971800D01*
X75751940Y-78371800D01*
X75757060Y-78371800D01*
X75757060Y-79971800D01*
X75801338Y-80207117D01*
X75940410Y-80423241D01*
X76152610Y-80568231D01*
X76404500Y-80619240D01*
X78404500Y-80619240D01*
X78639817Y-80574962D01*
X78855941Y-80435890D01*
X79000931Y-80223690D01*
X79051940Y-79971800D01*
X79051940Y-78371800D01*
X79007662Y-78136483D01*
X78868590Y-77920359D01*
X78656390Y-77775369D01*
X78404500Y-77724360D01*
X76404500Y-77724360D01*
X76169183Y-77768638D01*
X75953059Y-77907710D01*
X75808069Y-78119910D01*
X75757060Y-78371800D01*
X75751940Y-78371800D01*
X75707662Y-78136483D01*
X75568590Y-77920359D01*
X75356390Y-77775369D01*
X75104500Y-77724360D01*
X73104500Y-77724360D01*
X72869183Y-77768638D01*
X72653059Y-77907710D01*
X72508069Y-78119910D01*
X72457060Y-78371800D01*
X66977830Y-78371800D01*
X67939831Y-77409799D01*
X79380169Y-77409799D01*
X82550000Y-80579631D01*
X82550000Y-82804000D01*
X82608004Y-83095605D01*
X82732005Y-83281185D01*
X82773185Y-83342815D01*
X82784963Y-83354593D01*
X82784821Y-83516971D01*
X82942058Y-83897515D01*
X83232954Y-84188919D01*
X83408699Y-84261895D01*
X82441685Y-85228909D01*
X82276504Y-85476119D01*
X82218500Y-85767724D01*
X82218500Y-86595154D01*
X81837029Y-86594821D01*
X81456485Y-86752058D01*
X81165081Y-87042954D01*
X81163193Y-87047500D01*
X80532265Y-87047500D01*
X80417546Y-86932581D01*
X80037277Y-86774680D01*
X79625529Y-86774321D01*
X79244985Y-86931558D01*
X78953581Y-87222454D01*
X78795680Y-87602723D01*
X78795321Y-88014471D01*
X78952558Y-88395015D01*
X79068500Y-88511159D01*
X79068500Y-90568618D01*
X78845183Y-90610638D01*
X78629059Y-90749710D01*
X78484069Y-90961910D01*
X78433060Y-91213800D01*
X78433060Y-91513800D01*
X78448271Y-91594640D01*
X77978000Y-91124370D01*
X77978000Y-86269240D01*
X78404500Y-86269240D01*
X78639817Y-86224962D01*
X78855941Y-86085890D01*
X78975044Y-85911577D01*
X78986410Y-85929241D01*
X79198610Y-86074231D01*
X79450500Y-86125240D01*
X80950500Y-86125240D01*
X81185817Y-86080962D01*
X81401941Y-85941890D01*
X81546931Y-85729690D01*
X81597940Y-85477800D01*
X81597940Y-84077800D01*
X81553662Y-83842483D01*
X81500361Y-83759652D01*
X81585500Y-83554109D01*
X81585500Y-83236550D01*
X81426750Y-83077800D01*
X80573500Y-83077800D01*
X80573500Y-83120800D01*
X79827500Y-83120800D01*
X79827500Y-83077800D01*
X78974250Y-83077800D01*
X78815500Y-83236550D01*
X78815500Y-83534084D01*
X78656390Y-83425369D01*
X78404500Y-83374360D01*
X76404500Y-83374360D01*
X76169183Y-83418638D01*
X75953059Y-83557710D01*
X75808069Y-83769910D01*
X75757060Y-84021800D01*
X75757060Y-85621800D01*
X75801338Y-85857117D01*
X75940410Y-86073241D01*
X76152610Y-86218231D01*
X76404500Y-86269240D01*
X76454000Y-86269240D01*
X76454000Y-90616369D01*
X75501940Y-89664310D01*
X75501940Y-88726000D01*
X75457662Y-88490683D01*
X75400449Y-88401772D01*
X75450931Y-88327890D01*
X75501940Y-88076000D01*
X75501940Y-86676000D01*
X75457662Y-86440683D01*
X75321114Y-86228481D01*
X75339817Y-86224962D01*
X75555941Y-86085890D01*
X75700931Y-85873690D01*
X75751940Y-85621800D01*
X75751940Y-84021800D01*
X75707662Y-83786483D01*
X75568590Y-83570359D01*
X75356390Y-83425369D01*
X75104500Y-83374360D01*
X73104500Y-83374360D01*
X72869183Y-83418638D01*
X72653059Y-83557710D01*
X72508069Y-83769910D01*
X72461920Y-83997800D01*
X72442274Y-83997800D01*
X72409662Y-83824483D01*
X72356361Y-83741652D01*
X72441500Y-83536109D01*
X72441500Y-83218550D01*
X72282750Y-83059800D01*
X71429500Y-83059800D01*
X71429500Y-83102800D01*
X70683500Y-83102800D01*
X70683500Y-83059800D01*
X69830250Y-83059800D01*
X69671500Y-83218550D01*
X69671500Y-83536109D01*
X69756149Y-83740470D01*
X69710069Y-83807910D01*
X69659060Y-84059800D01*
X69659060Y-85459800D01*
X69703338Y-85695117D01*
X69842410Y-85911241D01*
X70054610Y-86056231D01*
X70306500Y-86107240D01*
X71806500Y-86107240D01*
X72041817Y-86062962D01*
X72257941Y-85923890D01*
X72402931Y-85711690D01*
X72441385Y-85521800D01*
X72457060Y-85521800D01*
X72457060Y-85621800D01*
X72501338Y-85857117D01*
X72640410Y-86073241D01*
X72852610Y-86218231D01*
X72893133Y-86226437D01*
X72758069Y-86424110D01*
X72707060Y-86676000D01*
X72707060Y-88076000D01*
X72751338Y-88311317D01*
X72808551Y-88400228D01*
X72758069Y-88474110D01*
X72707060Y-88726000D01*
X72707060Y-90126000D01*
X72751338Y-90361317D01*
X72890410Y-90577441D01*
X73102610Y-90722431D01*
X73354500Y-90773440D01*
X74455810Y-90773440D01*
X76264370Y-92582001D01*
X71307631Y-92582001D01*
X70866000Y-92140370D01*
X70866000Y-90932000D01*
X70807996Y-90640395D01*
X70642815Y-90393185D01*
X69630615Y-89380985D01*
X69560432Y-89334090D01*
X69383405Y-89215804D01*
X69091800Y-89157800D01*
X68127940Y-89157800D01*
X68127940Y-86619800D01*
X68083662Y-86384483D01*
X67944590Y-86168359D01*
X67732390Y-86023369D01*
X67480500Y-85972360D01*
X64980500Y-85972360D01*
X64745183Y-86016638D01*
X64529059Y-86155710D01*
X64384069Y-86367910D01*
X64333060Y-86619800D01*
X64333060Y-89030800D01*
X63540043Y-89030800D01*
X63519662Y-88922483D01*
X63466361Y-88839652D01*
X63551500Y-88634109D01*
X63551500Y-88316550D01*
X63392750Y-88157800D01*
X62539500Y-88157800D01*
X62539500Y-88200800D01*
X61793500Y-88200800D01*
X61793500Y-88157800D01*
X60940250Y-88157800D01*
X60781500Y-88316550D01*
X60781500Y-88634109D01*
X60866149Y-88838470D01*
X60820069Y-88905910D01*
X60769060Y-89157800D01*
X60769060Y-90557800D01*
X60813338Y-90793117D01*
X60952410Y-91009241D01*
X61164610Y-91154231D01*
X61416500Y-91205240D01*
X62916500Y-91205240D01*
X63151817Y-91160962D01*
X63367941Y-91021890D01*
X63512931Y-90809690D01*
X63513111Y-90808800D01*
X64333060Y-90808800D01*
X64333060Y-93219800D01*
X64377338Y-93455117D01*
X64516410Y-93671241D01*
X64728610Y-93816231D01*
X64980500Y-93867240D01*
X67480500Y-93867240D01*
X67715817Y-93822962D01*
X67931941Y-93683890D01*
X68076931Y-93471690D01*
X68127940Y-93219800D01*
X68127940Y-90681800D01*
X68776170Y-90681800D01*
X69342000Y-91247630D01*
X69342000Y-92456000D01*
X69400004Y-92747605D01*
X69524005Y-92933185D01*
X69565185Y-92994815D01*
X70169370Y-93599000D01*
X69755685Y-94012685D01*
X69590504Y-94259895D01*
X69532500Y-94551500D01*
X69532500Y-96604618D01*
X69309183Y-96646638D01*
X69093059Y-96785710D01*
X68948069Y-96997910D01*
X68897060Y-97249800D01*
X68897060Y-98649800D01*
X68941338Y-98885117D01*
X68998551Y-98974028D01*
X68959760Y-99030800D01*
X68127940Y-99030800D01*
X68127940Y-96619800D01*
X68083662Y-96384483D01*
X67944590Y-96168359D01*
X67732390Y-96023369D01*
X67480500Y-95972360D01*
X64980500Y-95972360D01*
X64745183Y-96016638D01*
X64529059Y-96155710D01*
X64384069Y-96367910D01*
X64333060Y-96619800D01*
X64333060Y-99110800D01*
X63528377Y-99110800D01*
X63519662Y-99064483D01*
X63380590Y-98848359D01*
X63168390Y-98703369D01*
X62916500Y-98652360D01*
X61416500Y-98652360D01*
X61181183Y-98696638D01*
X60965059Y-98835710D01*
X60820069Y-99047910D01*
X60769060Y-99299800D01*
X60769060Y-100699800D01*
X60813338Y-100935117D01*
X60866639Y-101017948D01*
X60781500Y-101223491D01*
X60781500Y-101541050D01*
X60940250Y-101699800D01*
X61793500Y-101699800D01*
X61793500Y-101656800D01*
X62539500Y-101656800D01*
X62539500Y-101699800D01*
X63392750Y-101699800D01*
X63551500Y-101541050D01*
X63551500Y-101223491D01*
X63466851Y-101019130D01*
X63512931Y-100951690D01*
X63525667Y-100888800D01*
X64333060Y-100888800D01*
X64333060Y-103219800D01*
X64377338Y-103455117D01*
X64516410Y-103671241D01*
X64728610Y-103816231D01*
X64980500Y-103867240D01*
X67480500Y-103867240D01*
X67715817Y-103822962D01*
X67931941Y-103683890D01*
X68076931Y-103471690D01*
X68127940Y-103219800D01*
X68127940Y-100808800D01*
X68917570Y-100808800D01*
X68941338Y-100935117D01*
X69080410Y-101151241D01*
X69292610Y-101296231D01*
X69544500Y-101347240D01*
X71044500Y-101347240D01*
X71279817Y-101302962D01*
X71495941Y-101163890D01*
X71640931Y-100951690D01*
X71691940Y-100699800D01*
X71691940Y-99299800D01*
X71647662Y-99064483D01*
X71590449Y-98975572D01*
X71640931Y-98901690D01*
X71691940Y-98649800D01*
X71691940Y-97249800D01*
X71647662Y-97014483D01*
X71508590Y-96798359D01*
X71296390Y-96653369D01*
X71056500Y-96604790D01*
X71056500Y-94867130D01*
X71297831Y-94625800D01*
X73206569Y-94625800D01*
X72613185Y-95219185D01*
X72448004Y-95466395D01*
X72390000Y-95758000D01*
X72390000Y-101030369D01*
X69026370Y-104394000D01*
X59182000Y-104394000D01*
X58890395Y-104452004D01*
X58708964Y-104573233D01*
X58643185Y-104617185D01*
X54579185Y-108681185D01*
X54414004Y-108928395D01*
X54356000Y-109220000D01*
X54356000Y-110174370D01*
X52547185Y-111983185D01*
X52382004Y-112230395D01*
X52324000Y-112522000D01*
X52324000Y-113414560D01*
X52086000Y-113414560D01*
X51850683Y-113458838D01*
X51634559Y-113597910D01*
X51489569Y-113810110D01*
X51438560Y-114062000D01*
X51438560Y-116062000D01*
X51482838Y-116297317D01*
X51586878Y-116459000D01*
X50927000Y-116459000D01*
X50927000Y-109497750D01*
X50943000Y-109497750D01*
X50943000Y-110092309D01*
X51039673Y-110325698D01*
X51218301Y-110504327D01*
X51451690Y-110601000D01*
X52046250Y-110601000D01*
X52205000Y-110442250D01*
X52205000Y-109339000D01*
X52951000Y-109339000D01*
X52951000Y-110442250D01*
X53109750Y-110601000D01*
X53704310Y-110601000D01*
X53937699Y-110504327D01*
X54116327Y-110325698D01*
X54213000Y-110092309D01*
X54213000Y-109497750D01*
X54054250Y-109339000D01*
X52951000Y-109339000D01*
X52205000Y-109339000D01*
X51101750Y-109339000D01*
X50943000Y-109497750D01*
X50927000Y-109497750D01*
X50927000Y-106493974D01*
X51031587Y-107048578D01*
X51044292Y-107079251D01*
X51280858Y-107195637D01*
X51137238Y-107339257D01*
X51223500Y-107425519D01*
X51218301Y-107427673D01*
X51039673Y-107606302D01*
X50943000Y-107839691D01*
X50943000Y-108434250D01*
X51101750Y-108593000D01*
X52205000Y-108593000D01*
X52205000Y-108573000D01*
X52951000Y-108573000D01*
X52951000Y-108593000D01*
X54054250Y-108593000D01*
X54213000Y-108434250D01*
X54213000Y-107839691D01*
X54116327Y-107606302D01*
X53937699Y-107427673D01*
X53932500Y-107425519D01*
X54018762Y-107339257D01*
X53875142Y-107195637D01*
X54111708Y-107079251D01*
X54244949Y-106442600D01*
X54124413Y-105803422D01*
X54111708Y-105772749D01*
X53875140Y-105656362D01*
X53105502Y-106426000D01*
X53119644Y-106440142D01*
X52592142Y-106967644D01*
X52578000Y-106953502D01*
X52563858Y-106967644D01*
X52036356Y-106440142D01*
X52050498Y-106426000D01*
X51280860Y-105656362D01*
X51044292Y-105772749D01*
X50927000Y-106333193D01*
X50927000Y-105128860D01*
X51808362Y-105128860D01*
X52578000Y-105898498D01*
X53347638Y-105128860D01*
X53231251Y-104892292D01*
X52594600Y-104759051D01*
X51955422Y-104879587D01*
X51924749Y-104892292D01*
X51808362Y-105128860D01*
X50927000Y-105128860D01*
X50927000Y-59717140D01*
X57396362Y-59717140D01*
X57512749Y-59953708D01*
X58149400Y-60086949D01*
X58788578Y-59966413D01*
X58819251Y-59953708D01*
X58935638Y-59717140D01*
X58166000Y-58947502D01*
X57396362Y-59717140D01*
X50927000Y-59717140D01*
X50927000Y-58403400D01*
X56499051Y-58403400D01*
X56619587Y-59042578D01*
X56632292Y-59073251D01*
X56868860Y-59189638D01*
X57638498Y-58420000D01*
X56868860Y-57650362D01*
X56632292Y-57766749D01*
X56499051Y-58403400D01*
X50927000Y-58403400D01*
X50927000Y-49634128D01*
X53458570Y-49634128D01*
X53836091Y-50547800D01*
X54534523Y-51247452D01*
X55447534Y-51626568D01*
X56436128Y-51627430D01*
X57349800Y-51249909D01*
X58049452Y-50551477D01*
X58133132Y-50349953D01*
X58733041Y-50950909D01*
X59517459Y-51276628D01*
X60366815Y-51277370D01*
X61151800Y-50953020D01*
X61752909Y-50352959D01*
X62078628Y-49568541D01*
X62078638Y-49556815D01*
X137818630Y-49556815D01*
X138142980Y-50341800D01*
X138743041Y-50942909D01*
X139527459Y-51268628D01*
X140376815Y-51269370D01*
X141161800Y-50945020D01*
X141762909Y-50344959D01*
X141764250Y-50341729D01*
X141846091Y-50539800D01*
X142544523Y-51239452D01*
X143457534Y-51618568D01*
X144446128Y-51619430D01*
X145359800Y-51241909D01*
X146059452Y-50543477D01*
X146438568Y-49630466D01*
X146439430Y-48641872D01*
X146061909Y-47728200D01*
X145363477Y-47028548D01*
X144450466Y-46649432D01*
X143461872Y-46648570D01*
X142548200Y-47026091D01*
X141848548Y-47724523D01*
X141764868Y-47926047D01*
X141164959Y-47325091D01*
X140380541Y-46999372D01*
X139531185Y-46998630D01*
X138746200Y-47322980D01*
X138145091Y-47923041D01*
X137819372Y-48707459D01*
X137818630Y-49556815D01*
X62078638Y-49556815D01*
X62079370Y-48719185D01*
X61755020Y-47934200D01*
X61154959Y-47333091D01*
X60370541Y-47007372D01*
X59521185Y-47006630D01*
X58736200Y-47330980D01*
X58135091Y-47931041D01*
X58133750Y-47934271D01*
X58051909Y-47736200D01*
X57353477Y-47036548D01*
X56440466Y-46657432D01*
X55451872Y-46656570D01*
X54538200Y-47034091D01*
X53838548Y-47732523D01*
X53459432Y-48645534D01*
X53458570Y-49634128D01*
X50927000Y-49634128D01*
X50927000Y-44831000D01*
X64797392Y-44831000D01*
X64357822Y-45269803D01*
G36*
X147574000Y-81637973D02*
X147347140Y-81526362D01*
X146577502Y-82296000D01*
X147301033Y-83019531D01*
X147300821Y-83262971D01*
X147458058Y-83643515D01*
X147748954Y-83934919D01*
X148129223Y-84092820D01*
X148540971Y-84093179D01*
X148921515Y-83935942D01*
X148971000Y-83886543D01*
X148971000Y-116459000D01*
X147786509Y-116459000D01*
X147835638Y-116359140D01*
X147066000Y-115589502D01*
X146296362Y-116359140D01*
X146345491Y-116459000D01*
X145426485Y-116459000D01*
X145450943Y-116448894D01*
X145911278Y-115989363D01*
X146124406Y-115476092D01*
X146538498Y-115062000D01*
X147593502Y-115062000D01*
X148363140Y-115831638D01*
X148599708Y-115715251D01*
X148732949Y-115078600D01*
X148612413Y-114439422D01*
X148599708Y-114408749D01*
X148363140Y-114292362D01*
X147593502Y-115062000D01*
X146538498Y-115062000D01*
X146123670Y-114647172D01*
X145912894Y-114137057D01*
X145541348Y-113764860D01*
X146296362Y-113764860D01*
X147066000Y-114534498D01*
X147835638Y-113764860D01*
X147719251Y-113528292D01*
X147082600Y-113395051D01*
X146443422Y-113515587D01*
X146412749Y-113528292D01*
X146296362Y-113764860D01*
X145541348Y-113764860D01*
X145453363Y-113676722D01*
X145288000Y-113608057D01*
X145288000Y-112522000D01*
X145229996Y-112230395D01*
X145193501Y-112175776D01*
X145064815Y-111983184D01*
X136709002Y-103627372D01*
X136709002Y-103584252D01*
X136867750Y-103743000D01*
X138462309Y-103743000D01*
X138695698Y-103646327D01*
X138874327Y-103467699D01*
X138971000Y-103234310D01*
X138971000Y-102639750D01*
X138812250Y-102481000D01*
X136709000Y-102481000D01*
X136709000Y-102501000D01*
X135963000Y-102501000D01*
X135963000Y-102481000D01*
X133859750Y-102481000D01*
X133822190Y-102518560D01*
X133349992Y-102046362D01*
X133349992Y-101285765D01*
X133464911Y-101171046D01*
X133622812Y-100790777D01*
X133623171Y-100379029D01*
X133497962Y-100076000D01*
X133688560Y-100076000D01*
X133688560Y-100314000D01*
X133732838Y-100549317D01*
X133836133Y-100709842D01*
X133797673Y-100748301D01*
X133701000Y-100981690D01*
X133701000Y-101576250D01*
X133859750Y-101735000D01*
X135963000Y-101735000D01*
X135963000Y-101715000D01*
X136709000Y-101715000D01*
X136709000Y-101735000D01*
X138812250Y-101735000D01*
X138971000Y-101576250D01*
X138971000Y-100981690D01*
X138874327Y-100748301D01*
X138834801Y-100708776D01*
X138932431Y-100565890D01*
X138983440Y-100314000D01*
X138983440Y-100203000D01*
X139394715Y-100203000D01*
X139412838Y-100299317D01*
X139551910Y-100515441D01*
X139747582Y-100649138D01*
X139564559Y-100766910D01*
X139419569Y-100979110D01*
X139368560Y-101231000D01*
X139368560Y-102731000D01*
X139412838Y-102966317D01*
X139551910Y-103182441D01*
X139728953Y-103303409D01*
X139581197Y-103659244D01*
X139580803Y-104110775D01*
X139753233Y-104528086D01*
X140072235Y-104847645D01*
X140489244Y-105020803D01*
X140940775Y-105021197D01*
X141358086Y-104848767D01*
X141677645Y-104529765D01*
X141850803Y-104112756D01*
X141851197Y-103661225D01*
X141702459Y-103301253D01*
X141734148Y-103280861D01*
X141939691Y-103366000D01*
X142257250Y-103366000D01*
X142416000Y-103207250D01*
X142416000Y-102354000D01*
X143116000Y-102354000D01*
X143116000Y-103207250D01*
X143274750Y-103366000D01*
X143592309Y-103366000D01*
X143825698Y-103269327D01*
X144004327Y-103090699D01*
X144101000Y-102857310D01*
X144101000Y-102512750D01*
X143974000Y-102385750D01*
X144415000Y-102385750D01*
X144415000Y-102980309D01*
X144511673Y-103213698D01*
X144690301Y-103392327D01*
X144923690Y-103489000D01*
X145518250Y-103489000D01*
X145677000Y-103330250D01*
X145677000Y-102227000D01*
X146423000Y-102227000D01*
X146423000Y-103330250D01*
X146581750Y-103489000D01*
X147176310Y-103489000D01*
X147409699Y-103392327D01*
X147588327Y-103213698D01*
X147685000Y-102980309D01*
X147685000Y-102385750D01*
X147526250Y-102227000D01*
X146423000Y-102227000D01*
X145677000Y-102227000D01*
X144573750Y-102227000D01*
X144415000Y-102385750D01*
X143974000Y-102385750D01*
X143942250Y-102354000D01*
X143116000Y-102354000D01*
X142416000Y-102354000D01*
X142373000Y-102354000D01*
X142373000Y-101608000D01*
X142416000Y-101608000D01*
X142416000Y-101588000D01*
X143116000Y-101588000D01*
X143116000Y-101608000D01*
X143942250Y-101608000D01*
X144101000Y-101449250D01*
X144101000Y-101104690D01*
X144004327Y-100871301D01*
X143825698Y-100692673D01*
X143725908Y-100651338D01*
X143917441Y-100528090D01*
X144062431Y-100315890D01*
X144085292Y-100203000D01*
X144648255Y-100203000D01*
X144663106Y-100238943D01*
X144725251Y-100301196D01*
X144690301Y-100315673D01*
X144511673Y-100494302D01*
X144415000Y-100727691D01*
X144415000Y-101322250D01*
X144573750Y-101481000D01*
X145677000Y-101481000D01*
X145677000Y-101461000D01*
X146423000Y-101461000D01*
X146423000Y-101481000D01*
X147526250Y-101481000D01*
X147685000Y-101322250D01*
X147685000Y-100727691D01*
X147588327Y-100494302D01*
X147409699Y-100315673D01*
X147375167Y-100301369D01*
X147435278Y-100241363D01*
X147684716Y-99640648D01*
X147685284Y-98990205D01*
X147436894Y-98389057D01*
X147092241Y-98043801D01*
X147435278Y-97701363D01*
X147684716Y-97100648D01*
X147685284Y-96450205D01*
X147436894Y-95849057D01*
X146977363Y-95388722D01*
X146376648Y-95139284D01*
X145726205Y-95138716D01*
X145125057Y-95387106D01*
X144880736Y-95631000D01*
X144087285Y-95631000D01*
X144069162Y-95534683D01*
X143930090Y-95318559D01*
X143717890Y-95173569D01*
X143466000Y-95122560D01*
X142066000Y-95122560D01*
X141830683Y-95166838D01*
X141741772Y-95224051D01*
X141667890Y-95173569D01*
X141416000Y-95122560D01*
X140016000Y-95122560D01*
X139780683Y-95166838D01*
X139564559Y-95305910D01*
X139419569Y-95518110D01*
X139396708Y-95631000D01*
X138983440Y-95631000D01*
X138983440Y-95520000D01*
X138939162Y-95284683D01*
X138800090Y-95068559D01*
X138587890Y-94923569D01*
X138336000Y-94872560D01*
X134336000Y-94872560D01*
X134100683Y-94916838D01*
X133884559Y-95055910D01*
X133739569Y-95268110D01*
X133688560Y-95520000D01*
X133688560Y-95758000D01*
X116332000Y-95758000D01*
X116040395Y-95816004D01*
X115822032Y-95961910D01*
X115793185Y-95981185D01*
X110077209Y-101697161D01*
X110109440Y-101538000D01*
X110109440Y-100138000D01*
X110065162Y-99902683D01*
X110007949Y-99813772D01*
X110058431Y-99739890D01*
X110109440Y-99488000D01*
X110109440Y-98088000D01*
X110065162Y-97852683D01*
X109926090Y-97636559D01*
X109713890Y-97491569D01*
X109601000Y-97468708D01*
X109601000Y-97351285D01*
X109697317Y-97333162D01*
X109913441Y-97194090D01*
X110058431Y-96981890D01*
X110109440Y-96730000D01*
X110109440Y-95330000D01*
X110065162Y-95094683D01*
X110011861Y-95011852D01*
X110097000Y-94806309D01*
X110097000Y-94488750D01*
X109938250Y-94330000D01*
X109085000Y-94330000D01*
X109085000Y-94373000D01*
X108339000Y-94373000D01*
X108339000Y-94330000D01*
X107485750Y-94330000D01*
X107327000Y-94488750D01*
X107327000Y-94806309D01*
X107411649Y-95010670D01*
X107365569Y-95078110D01*
X107315016Y-95327747D01*
X107271162Y-95094683D01*
X107217861Y-95011852D01*
X107303000Y-94806309D01*
X107303000Y-94488750D01*
X107144250Y-94330000D01*
X106291000Y-94330000D01*
X106291000Y-94373000D01*
X105545000Y-94373000D01*
X105545000Y-94330000D01*
X104691750Y-94330000D01*
X104533000Y-94488750D01*
X104533000Y-94806309D01*
X104617649Y-95010670D01*
X104571569Y-95078110D01*
X104521440Y-95325654D01*
X104521440Y-95312000D01*
X104477162Y-95076683D01*
X104423861Y-94993852D01*
X104509000Y-94788309D01*
X104509000Y-94470750D01*
X104350250Y-94312000D01*
X103497000Y-94312000D01*
X103497000Y-94355000D01*
X102751000Y-94355000D01*
X102751000Y-94312000D01*
X102731000Y-94312000D01*
X102731000Y-93612000D01*
X102751000Y-93612000D01*
X102751000Y-93569000D01*
X103497000Y-93569000D01*
X103497000Y-93612000D01*
X104350250Y-93612000D01*
X104509000Y-93453250D01*
X104509000Y-93135691D01*
X104501019Y-93116422D01*
X104548437Y-93116422D01*
X104533000Y-93153691D01*
X104533000Y-93471250D01*
X104691750Y-93630000D01*
X105545000Y-93630000D01*
X105545000Y-93587000D01*
X106291000Y-93587000D01*
X106291000Y-93630000D01*
X107144250Y-93630000D01*
X107303000Y-93471250D01*
X107303000Y-93153691D01*
X107287563Y-93116422D01*
X107342437Y-93116422D01*
X107327000Y-93153691D01*
X107327000Y-93471250D01*
X107485750Y-93630000D01*
X108339000Y-93630000D01*
X108339000Y-93587000D01*
X109085000Y-93587000D01*
X109085000Y-93630000D01*
X109938250Y-93630000D01*
X110097000Y-93471250D01*
X110097000Y-93153691D01*
X110081563Y-93116422D01*
X126108764Y-93116422D01*
X126400369Y-93058418D01*
X126541675Y-92964000D01*
X147574000Y-92964000D01*
X147865605Y-92905996D01*
X148112815Y-92740815D01*
X148620815Y-92232816D01*
X148785996Y-91985605D01*
X148795306Y-91938800D01*
X148844000Y-91694000D01*
X148844000Y-86868000D01*
X148785996Y-86576395D01*
X148704672Y-86454685D01*
X148620816Y-86329185D01*
X147617105Y-85325475D01*
X147684716Y-85162648D01*
X147685284Y-84512205D01*
X147436894Y-83911057D01*
X146977363Y-83450722D01*
X146464092Y-83237594D01*
X146050000Y-82823502D01*
X145635172Y-83238330D01*
X145125057Y-83449106D01*
X144664722Y-83908637D01*
X144415284Y-84509352D01*
X144414716Y-85159795D01*
X144663106Y-85760943D01*
X145007759Y-86106199D01*
X144664722Y-86448637D01*
X144648792Y-86487000D01*
X139954000Y-86487000D01*
X139613794Y-86554671D01*
X139414770Y-86687655D01*
X139325382Y-86747382D01*
X138569764Y-87503000D01*
X137465285Y-87503000D01*
X137447162Y-87406683D01*
X137308090Y-87190559D01*
X137095890Y-87045569D01*
X137033000Y-87032833D01*
X137033000Y-86963264D01*
X137097317Y-86951162D01*
X137313441Y-86812090D01*
X137458431Y-86599890D01*
X137509440Y-86348000D01*
X137509440Y-84848000D01*
X137465162Y-84612683D01*
X137326090Y-84396559D01*
X137113890Y-84251569D01*
X136862000Y-84200560D01*
X135462000Y-84200560D01*
X135226683Y-84244838D01*
X135137772Y-84302051D01*
X135063890Y-84251569D01*
X134812000Y-84200560D01*
X133971796Y-84200560D01*
X133074818Y-83303582D01*
X133042818Y-83282200D01*
X132786406Y-83110871D01*
X132714096Y-83096488D01*
X132704762Y-83046883D01*
X132565690Y-82830759D01*
X132353490Y-82685769D01*
X132331176Y-82681250D01*
X132378431Y-82612090D01*
X132429440Y-82360200D01*
X132429440Y-82279400D01*
X144383051Y-82279400D01*
X144503587Y-82918578D01*
X144516292Y-82949251D01*
X144752860Y-83065638D01*
X145522498Y-82296000D01*
X144752860Y-81526362D01*
X144516292Y-81642749D01*
X144383051Y-82279400D01*
X132429440Y-82279400D01*
X132429440Y-80860200D01*
X132385162Y-80624883D01*
X132316385Y-80518000D01*
X144595779Y-80518000D01*
X144663106Y-80680943D01*
X145122637Y-81141278D01*
X145635908Y-81354406D01*
X146050000Y-81768498D01*
X146464828Y-81353670D01*
X146974943Y-81142894D01*
X147435278Y-80683363D01*
X147574000Y-80349282D01*
X147574000Y-81637973D01*
X147574000Y-81637973D01*
G37*
X147574000Y-81637973D02*
X147347140Y-81526362D01*
X146577502Y-82296000D01*
X147301033Y-83019531D01*
X147300821Y-83262971D01*
X147458058Y-83643515D01*
X147748954Y-83934919D01*
X148129223Y-84092820D01*
X148540971Y-84093179D01*
X148921515Y-83935942D01*
X148971000Y-83886543D01*
X148971000Y-116459000D01*
X147786509Y-116459000D01*
X147835638Y-116359140D01*
X147066000Y-115589502D01*
X146296362Y-116359140D01*
X146345491Y-116459000D01*
X145426485Y-116459000D01*
X145450943Y-116448894D01*
X145911278Y-115989363D01*
X146124406Y-115476092D01*
X146538498Y-115062000D01*
X147593502Y-115062000D01*
X148363140Y-115831638D01*
X148599708Y-115715251D01*
X148732949Y-115078600D01*
X148612413Y-114439422D01*
X148599708Y-114408749D01*
X148363140Y-114292362D01*
X147593502Y-115062000D01*
X146538498Y-115062000D01*
X146123670Y-114647172D01*
X145912894Y-114137057D01*
X145541348Y-113764860D01*
X146296362Y-113764860D01*
X147066000Y-114534498D01*
X147835638Y-113764860D01*
X147719251Y-113528292D01*
X147082600Y-113395051D01*
X146443422Y-113515587D01*
X146412749Y-113528292D01*
X146296362Y-113764860D01*
X145541348Y-113764860D01*
X145453363Y-113676722D01*
X145288000Y-113608057D01*
X145288000Y-112522000D01*
X145229996Y-112230395D01*
X145193501Y-112175776D01*
X145064815Y-111983184D01*
X136709002Y-103627372D01*
X136709002Y-103584252D01*
X136867750Y-103743000D01*
X138462309Y-103743000D01*
X138695698Y-103646327D01*
X138874327Y-103467699D01*
X138971000Y-103234310D01*
X138971000Y-102639750D01*
X138812250Y-102481000D01*
X136709000Y-102481000D01*
X136709000Y-102501000D01*
X135963000Y-102501000D01*
X135963000Y-102481000D01*
X133859750Y-102481000D01*
X133822190Y-102518560D01*
X133349992Y-102046362D01*
X133349992Y-101285765D01*
X133464911Y-101171046D01*
X133622812Y-100790777D01*
X133623171Y-100379029D01*
X133497962Y-100076000D01*
X133688560Y-100076000D01*
X133688560Y-100314000D01*
X133732838Y-100549317D01*
X133836133Y-100709842D01*
X133797673Y-100748301D01*
X133701000Y-100981690D01*
X133701000Y-101576250D01*
X133859750Y-101735000D01*
X135963000Y-101735000D01*
X135963000Y-101715000D01*
X136709000Y-101715000D01*
X136709000Y-101735000D01*
X138812250Y-101735000D01*
X138971000Y-101576250D01*
X138971000Y-100981690D01*
X138874327Y-100748301D01*
X138834801Y-100708776D01*
X138932431Y-100565890D01*
X138983440Y-100314000D01*
X138983440Y-100203000D01*
X139394715Y-100203000D01*
X139412838Y-100299317D01*
X139551910Y-100515441D01*
X139747582Y-100649138D01*
X139564559Y-100766910D01*
X139419569Y-100979110D01*
X139368560Y-101231000D01*
X139368560Y-102731000D01*
X139412838Y-102966317D01*
X139551910Y-103182441D01*
X139728953Y-103303409D01*
X139581197Y-103659244D01*
X139580803Y-104110775D01*
X139753233Y-104528086D01*
X140072235Y-104847645D01*
X140489244Y-105020803D01*
X140940775Y-105021197D01*
X141358086Y-104848767D01*
X141677645Y-104529765D01*
X141850803Y-104112756D01*
X141851197Y-103661225D01*
X141702459Y-103301253D01*
X141734148Y-103280861D01*
X141939691Y-103366000D01*
X142257250Y-103366000D01*
X142416000Y-103207250D01*
X142416000Y-102354000D01*
X143116000Y-102354000D01*
X143116000Y-103207250D01*
X143274750Y-103366000D01*
X143592309Y-103366000D01*
X143825698Y-103269327D01*
X144004327Y-103090699D01*
X144101000Y-102857310D01*
X144101000Y-102512750D01*
X143974000Y-102385750D01*
X144415000Y-102385750D01*
X144415000Y-102980309D01*
X144511673Y-103213698D01*
X144690301Y-103392327D01*
X144923690Y-103489000D01*
X145518250Y-103489000D01*
X145677000Y-103330250D01*
X145677000Y-102227000D01*
X146423000Y-102227000D01*
X146423000Y-103330250D01*
X146581750Y-103489000D01*
X147176310Y-103489000D01*
X147409699Y-103392327D01*
X147588327Y-103213698D01*
X147685000Y-102980309D01*
X147685000Y-102385750D01*
X147526250Y-102227000D01*
X146423000Y-102227000D01*
X145677000Y-102227000D01*
X144573750Y-102227000D01*
X144415000Y-102385750D01*
X143974000Y-102385750D01*
X143942250Y-102354000D01*
X143116000Y-102354000D01*
X142416000Y-102354000D01*
X142373000Y-102354000D01*
X142373000Y-101608000D01*
X142416000Y-101608000D01*
X142416000Y-101588000D01*
X143116000Y-101588000D01*
X143116000Y-101608000D01*
X143942250Y-101608000D01*
X144101000Y-101449250D01*
X144101000Y-101104690D01*
X144004327Y-100871301D01*
X143825698Y-100692673D01*
X143725908Y-100651338D01*
X143917441Y-100528090D01*
X144062431Y-100315890D01*
X144085292Y-100203000D01*
X144648255Y-100203000D01*
X144663106Y-100238943D01*
X144725251Y-100301196D01*
X144690301Y-100315673D01*
X144511673Y-100494302D01*
X144415000Y-100727691D01*
X144415000Y-101322250D01*
X144573750Y-101481000D01*
X145677000Y-101481000D01*
X145677000Y-101461000D01*
X146423000Y-101461000D01*
X146423000Y-101481000D01*
X147526250Y-101481000D01*
X147685000Y-101322250D01*
X147685000Y-100727691D01*
X147588327Y-100494302D01*
X147409699Y-100315673D01*
X147375167Y-100301369D01*
X147435278Y-100241363D01*
X147684716Y-99640648D01*
X147685284Y-98990205D01*
X147436894Y-98389057D01*
X147092241Y-98043801D01*
X147435278Y-97701363D01*
X147684716Y-97100648D01*
X147685284Y-96450205D01*
X147436894Y-95849057D01*
X146977363Y-95388722D01*
X146376648Y-95139284D01*
X145726205Y-95138716D01*
X145125057Y-95387106D01*
X144880736Y-95631000D01*
X144087285Y-95631000D01*
X144069162Y-95534683D01*
X143930090Y-95318559D01*
X143717890Y-95173569D01*
X143466000Y-95122560D01*
X142066000Y-95122560D01*
X141830683Y-95166838D01*
X141741772Y-95224051D01*
X141667890Y-95173569D01*
X141416000Y-95122560D01*
X140016000Y-95122560D01*
X139780683Y-95166838D01*
X139564559Y-95305910D01*
X139419569Y-95518110D01*
X139396708Y-95631000D01*
X138983440Y-95631000D01*
X138983440Y-95520000D01*
X138939162Y-95284683D01*
X138800090Y-95068559D01*
X138587890Y-94923569D01*
X138336000Y-94872560D01*
X134336000Y-94872560D01*
X134100683Y-94916838D01*
X133884559Y-95055910D01*
X133739569Y-95268110D01*
X133688560Y-95520000D01*
X133688560Y-95758000D01*
X116332000Y-95758000D01*
X116040395Y-95816004D01*
X115822032Y-95961910D01*
X115793185Y-95981185D01*
X110077209Y-101697161D01*
X110109440Y-101538000D01*
X110109440Y-100138000D01*
X110065162Y-99902683D01*
X110007949Y-99813772D01*
X110058431Y-99739890D01*
X110109440Y-99488000D01*
X110109440Y-98088000D01*
X110065162Y-97852683D01*
X109926090Y-97636559D01*
X109713890Y-97491569D01*
X109601000Y-97468708D01*
X109601000Y-97351285D01*
X109697317Y-97333162D01*
X109913441Y-97194090D01*
X110058431Y-96981890D01*
X110109440Y-96730000D01*
X110109440Y-95330000D01*
X110065162Y-95094683D01*
X110011861Y-95011852D01*
X110097000Y-94806309D01*
X110097000Y-94488750D01*
X109938250Y-94330000D01*
X109085000Y-94330000D01*
X109085000Y-94373000D01*
X108339000Y-94373000D01*
X108339000Y-94330000D01*
X107485750Y-94330000D01*
X107327000Y-94488750D01*
X107327000Y-94806309D01*
X107411649Y-95010670D01*
X107365569Y-95078110D01*
X107315016Y-95327747D01*
X107271162Y-95094683D01*
X107217861Y-95011852D01*
X107303000Y-94806309D01*
X107303000Y-94488750D01*
X107144250Y-94330000D01*
X106291000Y-94330000D01*
X106291000Y-94373000D01*
X105545000Y-94373000D01*
X105545000Y-94330000D01*
X104691750Y-94330000D01*
X104533000Y-94488750D01*
X104533000Y-94806309D01*
X104617649Y-95010670D01*
X104571569Y-95078110D01*
X104521440Y-95325654D01*
X104521440Y-95312000D01*
X104477162Y-95076683D01*
X104423861Y-94993852D01*
X104509000Y-94788309D01*
X104509000Y-94470750D01*
X104350250Y-94312000D01*
X103497000Y-94312000D01*
X103497000Y-94355000D01*
X102751000Y-94355000D01*
X102751000Y-94312000D01*
X102731000Y-94312000D01*
X102731000Y-93612000D01*
X102751000Y-93612000D01*
X102751000Y-93569000D01*
X103497000Y-93569000D01*
X103497000Y-93612000D01*
X104350250Y-93612000D01*
X104509000Y-93453250D01*
X104509000Y-93135691D01*
X104501019Y-93116422D01*
X104548437Y-93116422D01*
X104533000Y-93153691D01*
X104533000Y-93471250D01*
X104691750Y-93630000D01*
X105545000Y-93630000D01*
X105545000Y-93587000D01*
X106291000Y-93587000D01*
X106291000Y-93630000D01*
X107144250Y-93630000D01*
X107303000Y-93471250D01*
X107303000Y-93153691D01*
X107287563Y-93116422D01*
X107342437Y-93116422D01*
X107327000Y-93153691D01*
X107327000Y-93471250D01*
X107485750Y-93630000D01*
X108339000Y-93630000D01*
X108339000Y-93587000D01*
X109085000Y-93587000D01*
X109085000Y-93630000D01*
X109938250Y-93630000D01*
X110097000Y-93471250D01*
X110097000Y-93153691D01*
X110081563Y-93116422D01*
X126108764Y-93116422D01*
X126400369Y-93058418D01*
X126541675Y-92964000D01*
X147574000Y-92964000D01*
X147865605Y-92905996D01*
X148112815Y-92740815D01*
X148620815Y-92232816D01*
X148785996Y-91985605D01*
X148795306Y-91938800D01*
X148844000Y-91694000D01*
X148844000Y-86868000D01*
X148785996Y-86576395D01*
X148704672Y-86454685D01*
X148620816Y-86329185D01*
X147617105Y-85325475D01*
X147684716Y-85162648D01*
X147685284Y-84512205D01*
X147436894Y-83911057D01*
X146977363Y-83450722D01*
X146464092Y-83237594D01*
X146050000Y-82823502D01*
X145635172Y-83238330D01*
X145125057Y-83449106D01*
X144664722Y-83908637D01*
X144415284Y-84509352D01*
X144414716Y-85159795D01*
X144663106Y-85760943D01*
X145007759Y-86106199D01*
X144664722Y-86448637D01*
X144648792Y-86487000D01*
X139954000Y-86487000D01*
X139613794Y-86554671D01*
X139414770Y-86687655D01*
X139325382Y-86747382D01*
X138569764Y-87503000D01*
X137465285Y-87503000D01*
X137447162Y-87406683D01*
X137308090Y-87190559D01*
X137095890Y-87045569D01*
X137033000Y-87032833D01*
X137033000Y-86963264D01*
X137097317Y-86951162D01*
X137313441Y-86812090D01*
X137458431Y-86599890D01*
X137509440Y-86348000D01*
X137509440Y-84848000D01*
X137465162Y-84612683D01*
X137326090Y-84396559D01*
X137113890Y-84251569D01*
X136862000Y-84200560D01*
X135462000Y-84200560D01*
X135226683Y-84244838D01*
X135137772Y-84302051D01*
X135063890Y-84251569D01*
X134812000Y-84200560D01*
X133971796Y-84200560D01*
X133074818Y-83303582D01*
X133042818Y-83282200D01*
X132786406Y-83110871D01*
X132714096Y-83096488D01*
X132704762Y-83046883D01*
X132565690Y-82830759D01*
X132353490Y-82685769D01*
X132331176Y-82681250D01*
X132378431Y-82612090D01*
X132429440Y-82360200D01*
X132429440Y-82279400D01*
X144383051Y-82279400D01*
X144503587Y-82918578D01*
X144516292Y-82949251D01*
X144752860Y-83065638D01*
X145522498Y-82296000D01*
X144752860Y-81526362D01*
X144516292Y-81642749D01*
X144383051Y-82279400D01*
X132429440Y-82279400D01*
X132429440Y-80860200D01*
X132385162Y-80624883D01*
X132316385Y-80518000D01*
X144595779Y-80518000D01*
X144663106Y-80680943D01*
X145122637Y-81141278D01*
X145635908Y-81354406D01*
X146050000Y-81768498D01*
X146464828Y-81353670D01*
X146974943Y-81142894D01*
X147435278Y-80683363D01*
X147574000Y-80349282D01*
X147574000Y-81637973D01*
G36*
X88776504Y-102472105D02*
X88880989Y-102628477D01*
X88880821Y-102820971D01*
X89038058Y-103201515D01*
X89328954Y-103492919D01*
X89709223Y-103650820D01*
X90120971Y-103651179D01*
X90501515Y-103493942D01*
X90792919Y-103203046D01*
X90868500Y-103021026D01*
X90868500Y-107443870D01*
X85567185Y-112745185D01*
X85402004Y-112992395D01*
X85344000Y-113284000D01*
X85344000Y-113607779D01*
X85181057Y-113675106D01*
X84835801Y-114019759D01*
X84493363Y-113676722D01*
X84328000Y-113608057D01*
X84328000Y-110043630D01*
X88519316Y-105852315D01*
X88650714Y-105655663D01*
X88684496Y-105605105D01*
X88742500Y-105313500D01*
X88742500Y-102398800D01*
X88761922Y-102398800D01*
X88776504Y-102472105D01*
X88776504Y-102472105D01*
G37*
X88776504Y-102472105D02*
X88880989Y-102628477D01*
X88880821Y-102820971D01*
X89038058Y-103201515D01*
X89328954Y-103492919D01*
X89709223Y-103650820D01*
X90120971Y-103651179D01*
X90501515Y-103493942D01*
X90792919Y-103203046D01*
X90868500Y-103021026D01*
X90868500Y-107443870D01*
X85567185Y-112745185D01*
X85402004Y-112992395D01*
X85344000Y-113284000D01*
X85344000Y-113607779D01*
X85181057Y-113675106D01*
X84835801Y-114019759D01*
X84493363Y-113676722D01*
X84328000Y-113608057D01*
X84328000Y-110043630D01*
X88519316Y-105852315D01*
X88650714Y-105655663D01*
X88684496Y-105605105D01*
X88742500Y-105313500D01*
X88742500Y-102398800D01*
X88761922Y-102398800D01*
X88776504Y-102472105D01*
G36*
X90252567Y-92617471D02*
X90233060Y-92713800D01*
X90233060Y-93013800D01*
X90252567Y-93117471D01*
X90233060Y-93213800D01*
X90233060Y-93513800D01*
X90252567Y-93617471D01*
X90233060Y-93713800D01*
X90233060Y-94013800D01*
X90252567Y-94117471D01*
X90233060Y-94213800D01*
X90233060Y-94513800D01*
X90252567Y-94617471D01*
X90233060Y-94713800D01*
X90233060Y-95013800D01*
X90252567Y-95117471D01*
X90233060Y-95213800D01*
X90233060Y-95513800D01*
X90252567Y-95617471D01*
X90233060Y-95713800D01*
X90233060Y-96013800D01*
X90252567Y-96117471D01*
X90233060Y-96213800D01*
X90233060Y-96513800D01*
X90252567Y-96617471D01*
X90233060Y-96713800D01*
X90233060Y-97013800D01*
X90252567Y-97117471D01*
X90233060Y-97213800D01*
X90233060Y-97513800D01*
X90252567Y-97617471D01*
X90233060Y-97713800D01*
X90233060Y-98013800D01*
X90252567Y-98117471D01*
X90233060Y-98213800D01*
X90233060Y-98513800D01*
X90252567Y-98617471D01*
X90233060Y-98713800D01*
X90233060Y-99013800D01*
X90277338Y-99249117D01*
X90416410Y-99465241D01*
X90628610Y-99610231D01*
X90868500Y-99658810D01*
X90868500Y-102210930D01*
X90793942Y-102030485D01*
X90503046Y-101739081D01*
X90277940Y-101645609D01*
X90277940Y-100263800D01*
X90242500Y-100075453D01*
X90242500Y-99132500D01*
X90184496Y-98840895D01*
X90019315Y-98593685D01*
X87376000Y-95950370D01*
X87376000Y-95450222D01*
X90245628Y-92580594D01*
X90252567Y-92617471D01*
X90252567Y-92617471D01*
G37*
X90252567Y-92617471D02*
X90233060Y-92713800D01*
X90233060Y-93013800D01*
X90252567Y-93117471D01*
X90233060Y-93213800D01*
X90233060Y-93513800D01*
X90252567Y-93617471D01*
X90233060Y-93713800D01*
X90233060Y-94013800D01*
X90252567Y-94117471D01*
X90233060Y-94213800D01*
X90233060Y-94513800D01*
X90252567Y-94617471D01*
X90233060Y-94713800D01*
X90233060Y-95013800D01*
X90252567Y-95117471D01*
X90233060Y-95213800D01*
X90233060Y-95513800D01*
X90252567Y-95617471D01*
X90233060Y-95713800D01*
X90233060Y-96013800D01*
X90252567Y-96117471D01*
X90233060Y-96213800D01*
X90233060Y-96513800D01*
X90252567Y-96617471D01*
X90233060Y-96713800D01*
X90233060Y-97013800D01*
X90252567Y-97117471D01*
X90233060Y-97213800D01*
X90233060Y-97513800D01*
X90252567Y-97617471D01*
X90233060Y-97713800D01*
X90233060Y-98013800D01*
X90252567Y-98117471D01*
X90233060Y-98213800D01*
X90233060Y-98513800D01*
X90252567Y-98617471D01*
X90233060Y-98713800D01*
X90233060Y-99013800D01*
X90277338Y-99249117D01*
X90416410Y-99465241D01*
X90628610Y-99610231D01*
X90868500Y-99658810D01*
X90868500Y-102210930D01*
X90793942Y-102030485D01*
X90503046Y-101739081D01*
X90277940Y-101645609D01*
X90277940Y-100263800D01*
X90242500Y-100075453D01*
X90242500Y-99132500D01*
X90184496Y-98840895D01*
X90019315Y-98593685D01*
X87376000Y-95950370D01*
X87376000Y-95450222D01*
X90245628Y-92580594D01*
X90252567Y-92617471D01*
G36*
X84836000Y-97936510D02*
X84808756Y-97925197D01*
X84357225Y-97924803D01*
X83939914Y-98097233D01*
X83738796Y-98298000D01*
X83312000Y-98298000D01*
X83020395Y-98356004D01*
X82922743Y-98421253D01*
X82773185Y-98521184D01*
X82441685Y-98852685D01*
X82276504Y-99099895D01*
X82218500Y-99391500D01*
X82218500Y-99628800D01*
X82191933Y-99628800D01*
X82130500Y-99616360D01*
X81830500Y-99616360D01*
X81595183Y-99660638D01*
X81379059Y-99799710D01*
X81234069Y-100011910D01*
X81183060Y-100263800D01*
X81183060Y-101333610D01*
X80592500Y-101924170D01*
X80592500Y-99658982D01*
X80815817Y-99616962D01*
X81031941Y-99477890D01*
X81176931Y-99265690D01*
X81227940Y-99013800D01*
X81227940Y-98713800D01*
X81208433Y-98610129D01*
X81227940Y-98513800D01*
X81227940Y-98213800D01*
X81211382Y-98125800D01*
X81706200Y-98125800D01*
X81997805Y-98067796D01*
X82245015Y-97902615D01*
X83119631Y-97028000D01*
X84836000Y-97028000D01*
X84836000Y-97936510D01*
X84836000Y-97936510D01*
G37*
X84836000Y-97936510D02*
X84808756Y-97925197D01*
X84357225Y-97924803D01*
X83939914Y-98097233D01*
X83738796Y-98298000D01*
X83312000Y-98298000D01*
X83020395Y-98356004D01*
X82922743Y-98421253D01*
X82773185Y-98521184D01*
X82441685Y-98852685D01*
X82276504Y-99099895D01*
X82218500Y-99391500D01*
X82218500Y-99628800D01*
X82191933Y-99628800D01*
X82130500Y-99616360D01*
X81830500Y-99616360D01*
X81595183Y-99660638D01*
X81379059Y-99799710D01*
X81234069Y-100011910D01*
X81183060Y-100263800D01*
X81183060Y-101333610D01*
X80592500Y-101924170D01*
X80592500Y-99658982D01*
X80815817Y-99616962D01*
X81031941Y-99477890D01*
X81176931Y-99265690D01*
X81227940Y-99013800D01*
X81227940Y-98713800D01*
X81208433Y-98610129D01*
X81227940Y-98513800D01*
X81227940Y-98213800D01*
X81211382Y-98125800D01*
X81706200Y-98125800D01*
X81997805Y-98067796D01*
X82245015Y-97902615D01*
X83119631Y-97028000D01*
X84836000Y-97028000D01*
X84836000Y-97936510D01*
G36*
X101739000Y-94335002D02*
X101874748Y-94335002D01*
X101739000Y-94470750D01*
X101739000Y-94788309D01*
X101823649Y-94992670D01*
X101777569Y-95060110D01*
X101726560Y-95312000D01*
X101726560Y-96712000D01*
X101770838Y-96947317D01*
X101909910Y-97163441D01*
X102122110Y-97308431D01*
X102235000Y-97331292D01*
X102235000Y-97466715D01*
X102138683Y-97484838D01*
X101922559Y-97623910D01*
X101777569Y-97836110D01*
X101726560Y-98088000D01*
X101726560Y-99488000D01*
X101770838Y-99723317D01*
X101828051Y-99812228D01*
X101777569Y-99886110D01*
X101726560Y-100138000D01*
X101726560Y-100407291D01*
X96479835Y-95160566D01*
X96597515Y-95111942D01*
X96648799Y-95060747D01*
X96902595Y-95314986D01*
X97282864Y-95472887D01*
X97694612Y-95473246D01*
X98075156Y-95316009D01*
X98366560Y-95025113D01*
X98524461Y-94644844D01*
X98524819Y-94234000D01*
X101346000Y-94234000D01*
X101637605Y-94175996D01*
X101739000Y-94108246D01*
X101739000Y-94335002D01*
X101739000Y-94335002D01*
G37*
X101739000Y-94335002D02*
X101874748Y-94335002D01*
X101739000Y-94470750D01*
X101739000Y-94788309D01*
X101823649Y-94992670D01*
X101777569Y-95060110D01*
X101726560Y-95312000D01*
X101726560Y-96712000D01*
X101770838Y-96947317D01*
X101909910Y-97163441D01*
X102122110Y-97308431D01*
X102235000Y-97331292D01*
X102235000Y-97466715D01*
X102138683Y-97484838D01*
X101922559Y-97623910D01*
X101777569Y-97836110D01*
X101726560Y-98088000D01*
X101726560Y-99488000D01*
X101770838Y-99723317D01*
X101828051Y-99812228D01*
X101777569Y-99886110D01*
X101726560Y-100138000D01*
X101726560Y-100407291D01*
X96479835Y-95160566D01*
X96597515Y-95111942D01*
X96648799Y-95060747D01*
X96902595Y-95314986D01*
X97282864Y-95472887D01*
X97694612Y-95473246D01*
X98075156Y-95316009D01*
X98366560Y-95025113D01*
X98524461Y-94644844D01*
X98524819Y-94234000D01*
X101346000Y-94234000D01*
X101637605Y-94175996D01*
X101739000Y-94108246D01*
X101739000Y-94335002D01*
G36*
X85852000Y-95134592D02*
X85852000Y-95504000D01*
X82804000Y-95504000D01*
X82512395Y-95562004D01*
X82430145Y-95616962D01*
X82265185Y-95727184D01*
X81390570Y-96601800D01*
X81215500Y-96601800D01*
X81215500Y-96575228D01*
X81227940Y-96513800D01*
X81227940Y-96213800D01*
X81208433Y-96110129D01*
X81227940Y-96013800D01*
X81227940Y-95713800D01*
X81208433Y-95610129D01*
X81227940Y-95513800D01*
X81227940Y-95213800D01*
X81211382Y-95125800D01*
X85853749Y-95125800D01*
X85852000Y-95134592D01*
X85852000Y-95134592D01*
G37*
X85852000Y-95134592D02*
X85852000Y-95504000D01*
X82804000Y-95504000D01*
X82512395Y-95562004D01*
X82430145Y-95616962D01*
X82265185Y-95727184D01*
X81390570Y-96601800D01*
X81215500Y-96601800D01*
X81215500Y-96575228D01*
X81227940Y-96513800D01*
X81227940Y-96213800D01*
X81208433Y-96110129D01*
X81227940Y-96013800D01*
X81227940Y-95713800D01*
X81208433Y-95610129D01*
X81227940Y-95513800D01*
X81227940Y-95213800D01*
X81211382Y-95125800D01*
X85853749Y-95125800D01*
X85852000Y-95134592D01*
G36*
X88330500Y-90611240D02*
X88630500Y-90611240D01*
X88655911Y-90606459D01*
X87568370Y-91694000D01*
X83713742Y-91694000D01*
X83838820Y-91392777D01*
X83839179Y-90981029D01*
X83682354Y-90601483D01*
X83734171Y-90591733D01*
X83830500Y-90611240D01*
X84130500Y-90611240D01*
X84234171Y-90591733D01*
X84330500Y-90611240D01*
X84630500Y-90611240D01*
X84734171Y-90591733D01*
X84830500Y-90611240D01*
X85130500Y-90611240D01*
X85234171Y-90591733D01*
X85330500Y-90611240D01*
X85630500Y-90611240D01*
X85734171Y-90591733D01*
X85830500Y-90611240D01*
X86130500Y-90611240D01*
X86234171Y-90591733D01*
X86330500Y-90611240D01*
X86630500Y-90611240D01*
X86734171Y-90591733D01*
X86830500Y-90611240D01*
X87130500Y-90611240D01*
X87234171Y-90591733D01*
X87330500Y-90611240D01*
X87630500Y-90611240D01*
X87734171Y-90591733D01*
X87830500Y-90611240D01*
X88130500Y-90611240D01*
X88234171Y-90591733D01*
X88330500Y-90611240D01*
X88330500Y-90611240D01*
G37*
X88330500Y-90611240D02*
X88630500Y-90611240D01*
X88655911Y-90606459D01*
X87568370Y-91694000D01*
X83713742Y-91694000D01*
X83838820Y-91392777D01*
X83839179Y-90981029D01*
X83682354Y-90601483D01*
X83734171Y-90591733D01*
X83830500Y-90611240D01*
X84130500Y-90611240D01*
X84234171Y-90591733D01*
X84330500Y-90611240D01*
X84630500Y-90611240D01*
X84734171Y-90591733D01*
X84830500Y-90611240D01*
X85130500Y-90611240D01*
X85234171Y-90591733D01*
X85330500Y-90611240D01*
X85630500Y-90611240D01*
X85734171Y-90591733D01*
X85830500Y-90611240D01*
X86130500Y-90611240D01*
X86234171Y-90591733D01*
X86330500Y-90611240D01*
X86630500Y-90611240D01*
X86734171Y-90591733D01*
X86830500Y-90611240D01*
X87130500Y-90611240D01*
X87234171Y-90591733D01*
X87330500Y-90611240D01*
X87630500Y-90611240D01*
X87734171Y-90591733D01*
X87830500Y-90611240D01*
X88130500Y-90611240D01*
X88234171Y-90591733D01*
X88330500Y-90611240D01*
G36*
X129637510Y-85033641D02*
X129849710Y-85178631D01*
X130101600Y-85229640D01*
X132101600Y-85229640D01*
X132336917Y-85185362D01*
X132400933Y-85144169D01*
X132764560Y-85507796D01*
X132764560Y-86348000D01*
X132808838Y-86583317D01*
X132947910Y-86799441D01*
X133160110Y-86944431D01*
X133412000Y-86995440D01*
X134812000Y-86995440D01*
X135047317Y-86951162D01*
X135136228Y-86893949D01*
X135210110Y-86944431D01*
X135255000Y-86953521D01*
X135255000Y-87030123D01*
X135208683Y-87038838D01*
X135125852Y-87092139D01*
X134920309Y-87007000D01*
X134602750Y-87007000D01*
X134444000Y-87165750D01*
X134444000Y-88019000D01*
X134487000Y-88019000D01*
X134487000Y-88765000D01*
X134444000Y-88765000D01*
X134444000Y-88785000D01*
X133744000Y-88785000D01*
X133744000Y-88765000D01*
X132917750Y-88765000D01*
X132759000Y-88923750D01*
X132759000Y-89268310D01*
X132855673Y-89501699D01*
X133034302Y-89680327D01*
X133267691Y-89777000D01*
X133585250Y-89777000D01*
X133720998Y-89641252D01*
X133720998Y-89777000D01*
X133731369Y-89777000D01*
X132576370Y-90932000D01*
X127315631Y-90932000D01*
X127538815Y-90708816D01*
X127703996Y-90461605D01*
X127707733Y-90442820D01*
X127762000Y-90170000D01*
X127762000Y-88915950D01*
X129466600Y-88915950D01*
X129466600Y-89208510D01*
X129563273Y-89441899D01*
X129741902Y-89620527D01*
X129975291Y-89717200D01*
X130569850Y-89717200D01*
X130728600Y-89558450D01*
X130728600Y-88757200D01*
X131474600Y-88757200D01*
X131474600Y-89558450D01*
X131633350Y-89717200D01*
X132227909Y-89717200D01*
X132461298Y-89620527D01*
X132639927Y-89441899D01*
X132736600Y-89208510D01*
X132736600Y-88915950D01*
X132577850Y-88757200D01*
X131474600Y-88757200D01*
X130728600Y-88757200D01*
X129625350Y-88757200D01*
X129466600Y-88915950D01*
X127762000Y-88915950D01*
X127762000Y-87655890D01*
X129466600Y-87655890D01*
X129466600Y-87948450D01*
X129625350Y-88107200D01*
X130728600Y-88107200D01*
X130728600Y-87305950D01*
X131474600Y-87305950D01*
X131474600Y-88107200D01*
X132577850Y-88107200D01*
X132736600Y-87948450D01*
X132736600Y-87655890D01*
X132678528Y-87515690D01*
X132759000Y-87515690D01*
X132759000Y-87860250D01*
X132917750Y-88019000D01*
X133744000Y-88019000D01*
X133744000Y-87165750D01*
X133585250Y-87007000D01*
X133267691Y-87007000D01*
X133034302Y-87103673D01*
X132855673Y-87282301D01*
X132759000Y-87515690D01*
X132678528Y-87515690D01*
X132639927Y-87422501D01*
X132461298Y-87243873D01*
X132227909Y-87147200D01*
X131633350Y-87147200D01*
X131474600Y-87305950D01*
X130728600Y-87305950D01*
X130569850Y-87147200D01*
X129975291Y-87147200D01*
X129741902Y-87243873D01*
X129563273Y-87422501D01*
X129466600Y-87655890D01*
X127762000Y-87655890D01*
X127762000Y-86253742D01*
X128063223Y-86378820D01*
X128474971Y-86379179D01*
X128855515Y-86221942D01*
X129146919Y-85931046D01*
X129304820Y-85550777D01*
X129304963Y-85386668D01*
X129570816Y-85120815D01*
X129633366Y-85027201D01*
X129637510Y-85033641D01*
X129637510Y-85033641D01*
G37*
X129637510Y-85033641D02*
X129849710Y-85178631D01*
X130101600Y-85229640D01*
X132101600Y-85229640D01*
X132336917Y-85185362D01*
X132400933Y-85144169D01*
X132764560Y-85507796D01*
X132764560Y-86348000D01*
X132808838Y-86583317D01*
X132947910Y-86799441D01*
X133160110Y-86944431D01*
X133412000Y-86995440D01*
X134812000Y-86995440D01*
X135047317Y-86951162D01*
X135136228Y-86893949D01*
X135210110Y-86944431D01*
X135255000Y-86953521D01*
X135255000Y-87030123D01*
X135208683Y-87038838D01*
X135125852Y-87092139D01*
X134920309Y-87007000D01*
X134602750Y-87007000D01*
X134444000Y-87165750D01*
X134444000Y-88019000D01*
X134487000Y-88019000D01*
X134487000Y-88765000D01*
X134444000Y-88765000D01*
X134444000Y-88785000D01*
X133744000Y-88785000D01*
X133744000Y-88765000D01*
X132917750Y-88765000D01*
X132759000Y-88923750D01*
X132759000Y-89268310D01*
X132855673Y-89501699D01*
X133034302Y-89680327D01*
X133267691Y-89777000D01*
X133585250Y-89777000D01*
X133720998Y-89641252D01*
X133720998Y-89777000D01*
X133731369Y-89777000D01*
X132576370Y-90932000D01*
X127315631Y-90932000D01*
X127538815Y-90708816D01*
X127703996Y-90461605D01*
X127707733Y-90442820D01*
X127762000Y-90170000D01*
X127762000Y-88915950D01*
X129466600Y-88915950D01*
X129466600Y-89208510D01*
X129563273Y-89441899D01*
X129741902Y-89620527D01*
X129975291Y-89717200D01*
X130569850Y-89717200D01*
X130728600Y-89558450D01*
X130728600Y-88757200D01*
X131474600Y-88757200D01*
X131474600Y-89558450D01*
X131633350Y-89717200D01*
X132227909Y-89717200D01*
X132461298Y-89620527D01*
X132639927Y-89441899D01*
X132736600Y-89208510D01*
X132736600Y-88915950D01*
X132577850Y-88757200D01*
X131474600Y-88757200D01*
X130728600Y-88757200D01*
X129625350Y-88757200D01*
X129466600Y-88915950D01*
X127762000Y-88915950D01*
X127762000Y-87655890D01*
X129466600Y-87655890D01*
X129466600Y-87948450D01*
X129625350Y-88107200D01*
X130728600Y-88107200D01*
X130728600Y-87305950D01*
X131474600Y-87305950D01*
X131474600Y-88107200D01*
X132577850Y-88107200D01*
X132736600Y-87948450D01*
X132736600Y-87655890D01*
X132678528Y-87515690D01*
X132759000Y-87515690D01*
X132759000Y-87860250D01*
X132917750Y-88019000D01*
X133744000Y-88019000D01*
X133744000Y-87165750D01*
X133585250Y-87007000D01*
X133267691Y-87007000D01*
X133034302Y-87103673D01*
X132855673Y-87282301D01*
X132759000Y-87515690D01*
X132678528Y-87515690D01*
X132639927Y-87422501D01*
X132461298Y-87243873D01*
X132227909Y-87147200D01*
X131633350Y-87147200D01*
X131474600Y-87305950D01*
X130728600Y-87305950D01*
X130569850Y-87147200D01*
X129975291Y-87147200D01*
X129741902Y-87243873D01*
X129563273Y-87422501D01*
X129466600Y-87655890D01*
X127762000Y-87655890D01*
X127762000Y-86253742D01*
X128063223Y-86378820D01*
X128474971Y-86379179D01*
X128855515Y-86221942D01*
X129146919Y-85931046D01*
X129304820Y-85550777D01*
X129304963Y-85386668D01*
X129570816Y-85120815D01*
X129633366Y-85027201D01*
X129637510Y-85033641D01*
G36*
X103765382Y-76574618D02*
X104053794Y-76767329D01*
X104394000Y-76835000D01*
X117094000Y-76835000D01*
X117094000Y-78740000D01*
X117152004Y-79031605D01*
X117284164Y-79229396D01*
X117317185Y-79278815D01*
X119349185Y-81310815D01*
X119596395Y-81475996D01*
X119888000Y-81534000D01*
X122234235Y-81534000D01*
X122348954Y-81648919D01*
X122729223Y-81806820D01*
X123140971Y-81807179D01*
X123521515Y-81649942D01*
X123812919Y-81359046D01*
X123970820Y-80978777D01*
X123971179Y-80567029D01*
X123813942Y-80186485D01*
X123523046Y-79895081D01*
X123142777Y-79737180D01*
X122731029Y-79736821D01*
X122350485Y-79894058D01*
X122234341Y-80010000D01*
X120203630Y-80010000D01*
X118618000Y-78424370D01*
X118618000Y-76708000D01*
X139892370Y-76708000D01*
X140442963Y-77258593D01*
X140442821Y-77420971D01*
X140600058Y-77801515D01*
X140890954Y-78092919D01*
X141225899Y-78232000D01*
X127254000Y-78232000D01*
X126962395Y-78290004D01*
X126715184Y-78455185D01*
X125445186Y-79725184D01*
X125445185Y-79725185D01*
X125280004Y-79972395D01*
X125222000Y-80264000D01*
X125222000Y-89346369D01*
X124398370Y-90170000D01*
X101873000Y-90170000D01*
X101873179Y-89965029D01*
X101870857Y-89959410D01*
X102043691Y-90031000D01*
X102361250Y-90031000D01*
X102520000Y-89872250D01*
X102520000Y-89019000D01*
X103220000Y-89019000D01*
X103220000Y-89872250D01*
X103378750Y-90031000D01*
X103696309Y-90031000D01*
X103929698Y-89934327D01*
X104090000Y-89774026D01*
X104114302Y-89798327D01*
X104347691Y-89895000D01*
X104942250Y-89895000D01*
X105101000Y-89736250D01*
X105101000Y-88935000D01*
X105847000Y-88935000D01*
X105847000Y-89736250D01*
X106005750Y-89895000D01*
X106600309Y-89895000D01*
X106833698Y-89798327D01*
X107012327Y-89619699D01*
X107109000Y-89386310D01*
X107109000Y-89093750D01*
X106950250Y-88935000D01*
X105847000Y-88935000D01*
X105101000Y-88935000D01*
X103997750Y-88935000D01*
X103913750Y-89019000D01*
X103220000Y-89019000D01*
X102520000Y-89019000D01*
X102477000Y-89019000D01*
X102477000Y-88273000D01*
X102520000Y-88273000D01*
X102520000Y-87419750D01*
X103220000Y-87419750D01*
X103220000Y-88273000D01*
X103985750Y-88273000D01*
X103997750Y-88285000D01*
X105101000Y-88285000D01*
X105101000Y-87483750D01*
X105847000Y-87483750D01*
X105847000Y-88285000D01*
X106950250Y-88285000D01*
X107109000Y-88126250D01*
X107109000Y-87960000D01*
X111826560Y-87960000D01*
X111826560Y-89260000D01*
X111870838Y-89495317D01*
X112009910Y-89711441D01*
X112222110Y-89856431D01*
X112474000Y-89907440D01*
X114474000Y-89907440D01*
X114709317Y-89863162D01*
X114925441Y-89724090D01*
X115070431Y-89511890D01*
X115121440Y-89260000D01*
X115121440Y-87960000D01*
X115087985Y-87782200D01*
X121454160Y-87782200D01*
X121454160Y-89082200D01*
X121498438Y-89317517D01*
X121637510Y-89533641D01*
X121849710Y-89678631D01*
X122101600Y-89729640D01*
X124101600Y-89729640D01*
X124336917Y-89685362D01*
X124553041Y-89546290D01*
X124698031Y-89334090D01*
X124749040Y-89082200D01*
X124749040Y-87782200D01*
X124704762Y-87546883D01*
X124565690Y-87330759D01*
X124353490Y-87185769D01*
X124101600Y-87134760D01*
X122101600Y-87134760D01*
X121866283Y-87179038D01*
X121650159Y-87318110D01*
X121505169Y-87530310D01*
X121454160Y-87782200D01*
X115087985Y-87782200D01*
X115077162Y-87724683D01*
X114938090Y-87508559D01*
X114725890Y-87363569D01*
X114474000Y-87312560D01*
X112474000Y-87312560D01*
X112238683Y-87356838D01*
X112022559Y-87495910D01*
X111877569Y-87708110D01*
X111826560Y-87960000D01*
X107109000Y-87960000D01*
X107109000Y-87833690D01*
X107012327Y-87600301D01*
X106833698Y-87421673D01*
X106600309Y-87325000D01*
X106005750Y-87325000D01*
X105847000Y-87483750D01*
X105101000Y-87483750D01*
X104942250Y-87325000D01*
X104347691Y-87325000D01*
X104114302Y-87421673D01*
X104054000Y-87481974D01*
X103929698Y-87357673D01*
X103696309Y-87261000D01*
X103378750Y-87261000D01*
X103220000Y-87419750D01*
X102520000Y-87419750D01*
X102361250Y-87261000D01*
X102043691Y-87261000D01*
X101839330Y-87345649D01*
X101771890Y-87299569D01*
X101709000Y-87286833D01*
X101709000Y-85435877D01*
X101755317Y-85427162D01*
X101844228Y-85369949D01*
X101918110Y-85420431D01*
X102170000Y-85471440D01*
X103570000Y-85471440D01*
X103805317Y-85427162D01*
X104021441Y-85288090D01*
X104053475Y-85241207D01*
X104222110Y-85356431D01*
X104474000Y-85407440D01*
X106474000Y-85407440D01*
X106709317Y-85363162D01*
X106925441Y-85224090D01*
X107070431Y-85011890D01*
X107121440Y-84760000D01*
X107121440Y-83460000D01*
X111826560Y-83460000D01*
X111826560Y-84760000D01*
X111870838Y-84995317D01*
X112009910Y-85211441D01*
X112222110Y-85356431D01*
X112474000Y-85407440D01*
X114474000Y-85407440D01*
X114709317Y-85363162D01*
X114925441Y-85224090D01*
X115070431Y-85011890D01*
X115121440Y-84760000D01*
X115121440Y-83460000D01*
X115087985Y-83282200D01*
X121454160Y-83282200D01*
X121454160Y-84582200D01*
X121498438Y-84817517D01*
X121637510Y-85033641D01*
X121849710Y-85178631D01*
X122101600Y-85229640D01*
X124101600Y-85229640D01*
X124336917Y-85185362D01*
X124553041Y-85046290D01*
X124698031Y-84834090D01*
X124749040Y-84582200D01*
X124749040Y-83282200D01*
X124704762Y-83046883D01*
X124565690Y-82830759D01*
X124353490Y-82685769D01*
X124101600Y-82634760D01*
X122101600Y-82634760D01*
X121866283Y-82679038D01*
X121650159Y-82818110D01*
X121505169Y-83030310D01*
X121454160Y-83282200D01*
X115087985Y-83282200D01*
X115077162Y-83224683D01*
X114938090Y-83008559D01*
X114725890Y-82863569D01*
X114474000Y-82812560D01*
X112474000Y-82812560D01*
X112238683Y-82856838D01*
X112022559Y-82995910D01*
X111877569Y-83208110D01*
X111826560Y-83460000D01*
X107121440Y-83460000D01*
X107077162Y-83224683D01*
X106938090Y-83008559D01*
X106725890Y-82863569D01*
X106474000Y-82812560D01*
X106436941Y-82812560D01*
X106452431Y-82789890D01*
X106503440Y-82538000D01*
X106503440Y-81038000D01*
X106459162Y-80802683D01*
X106320090Y-80586559D01*
X106107890Y-80441569D01*
X105856000Y-80390560D01*
X104456000Y-80390560D01*
X104220683Y-80434838D01*
X104131772Y-80492051D01*
X104057890Y-80441569D01*
X103806000Y-80390560D01*
X103015796Y-80390560D01*
X102526618Y-79901382D01*
X102515657Y-79894058D01*
X102375934Y-79800698D01*
X96393000Y-73817764D01*
X96393000Y-71759745D01*
X96428943Y-71744894D01*
X96889278Y-71285363D01*
X96905208Y-71247000D01*
X98437764Y-71247000D01*
X103765382Y-76574618D01*
X103765382Y-76574618D01*
G37*
X103765382Y-76574618D02*
X104053794Y-76767329D01*
X104394000Y-76835000D01*
X117094000Y-76835000D01*
X117094000Y-78740000D01*
X117152004Y-79031605D01*
X117284164Y-79229396D01*
X117317185Y-79278815D01*
X119349185Y-81310815D01*
X119596395Y-81475996D01*
X119888000Y-81534000D01*
X122234235Y-81534000D01*
X122348954Y-81648919D01*
X122729223Y-81806820D01*
X123140971Y-81807179D01*
X123521515Y-81649942D01*
X123812919Y-81359046D01*
X123970820Y-80978777D01*
X123971179Y-80567029D01*
X123813942Y-80186485D01*
X123523046Y-79895081D01*
X123142777Y-79737180D01*
X122731029Y-79736821D01*
X122350485Y-79894058D01*
X122234341Y-80010000D01*
X120203630Y-80010000D01*
X118618000Y-78424370D01*
X118618000Y-76708000D01*
X139892370Y-76708000D01*
X140442963Y-77258593D01*
X140442821Y-77420971D01*
X140600058Y-77801515D01*
X140890954Y-78092919D01*
X141225899Y-78232000D01*
X127254000Y-78232000D01*
X126962395Y-78290004D01*
X126715184Y-78455185D01*
X125445186Y-79725184D01*
X125445185Y-79725185D01*
X125280004Y-79972395D01*
X125222000Y-80264000D01*
X125222000Y-89346369D01*
X124398370Y-90170000D01*
X101873000Y-90170000D01*
X101873179Y-89965029D01*
X101870857Y-89959410D01*
X102043691Y-90031000D01*
X102361250Y-90031000D01*
X102520000Y-89872250D01*
X102520000Y-89019000D01*
X103220000Y-89019000D01*
X103220000Y-89872250D01*
X103378750Y-90031000D01*
X103696309Y-90031000D01*
X103929698Y-89934327D01*
X104090000Y-89774026D01*
X104114302Y-89798327D01*
X104347691Y-89895000D01*
X104942250Y-89895000D01*
X105101000Y-89736250D01*
X105101000Y-88935000D01*
X105847000Y-88935000D01*
X105847000Y-89736250D01*
X106005750Y-89895000D01*
X106600309Y-89895000D01*
X106833698Y-89798327D01*
X107012327Y-89619699D01*
X107109000Y-89386310D01*
X107109000Y-89093750D01*
X106950250Y-88935000D01*
X105847000Y-88935000D01*
X105101000Y-88935000D01*
X103997750Y-88935000D01*
X103913750Y-89019000D01*
X103220000Y-89019000D01*
X102520000Y-89019000D01*
X102477000Y-89019000D01*
X102477000Y-88273000D01*
X102520000Y-88273000D01*
X102520000Y-87419750D01*
X103220000Y-87419750D01*
X103220000Y-88273000D01*
X103985750Y-88273000D01*
X103997750Y-88285000D01*
X105101000Y-88285000D01*
X105101000Y-87483750D01*
X105847000Y-87483750D01*
X105847000Y-88285000D01*
X106950250Y-88285000D01*
X107109000Y-88126250D01*
X107109000Y-87960000D01*
X111826560Y-87960000D01*
X111826560Y-89260000D01*
X111870838Y-89495317D01*
X112009910Y-89711441D01*
X112222110Y-89856431D01*
X112474000Y-89907440D01*
X114474000Y-89907440D01*
X114709317Y-89863162D01*
X114925441Y-89724090D01*
X115070431Y-89511890D01*
X115121440Y-89260000D01*
X115121440Y-87960000D01*
X115087985Y-87782200D01*
X121454160Y-87782200D01*
X121454160Y-89082200D01*
X121498438Y-89317517D01*
X121637510Y-89533641D01*
X121849710Y-89678631D01*
X122101600Y-89729640D01*
X124101600Y-89729640D01*
X124336917Y-89685362D01*
X124553041Y-89546290D01*
X124698031Y-89334090D01*
X124749040Y-89082200D01*
X124749040Y-87782200D01*
X124704762Y-87546883D01*
X124565690Y-87330759D01*
X124353490Y-87185769D01*
X124101600Y-87134760D01*
X122101600Y-87134760D01*
X121866283Y-87179038D01*
X121650159Y-87318110D01*
X121505169Y-87530310D01*
X121454160Y-87782200D01*
X115087985Y-87782200D01*
X115077162Y-87724683D01*
X114938090Y-87508559D01*
X114725890Y-87363569D01*
X114474000Y-87312560D01*
X112474000Y-87312560D01*
X112238683Y-87356838D01*
X112022559Y-87495910D01*
X111877569Y-87708110D01*
X111826560Y-87960000D01*
X107109000Y-87960000D01*
X107109000Y-87833690D01*
X107012327Y-87600301D01*
X106833698Y-87421673D01*
X106600309Y-87325000D01*
X106005750Y-87325000D01*
X105847000Y-87483750D01*
X105101000Y-87483750D01*
X104942250Y-87325000D01*
X104347691Y-87325000D01*
X104114302Y-87421673D01*
X104054000Y-87481974D01*
X103929698Y-87357673D01*
X103696309Y-87261000D01*
X103378750Y-87261000D01*
X103220000Y-87419750D01*
X102520000Y-87419750D01*
X102361250Y-87261000D01*
X102043691Y-87261000D01*
X101839330Y-87345649D01*
X101771890Y-87299569D01*
X101709000Y-87286833D01*
X101709000Y-85435877D01*
X101755317Y-85427162D01*
X101844228Y-85369949D01*
X101918110Y-85420431D01*
X102170000Y-85471440D01*
X103570000Y-85471440D01*
X103805317Y-85427162D01*
X104021441Y-85288090D01*
X104053475Y-85241207D01*
X104222110Y-85356431D01*
X104474000Y-85407440D01*
X106474000Y-85407440D01*
X106709317Y-85363162D01*
X106925441Y-85224090D01*
X107070431Y-85011890D01*
X107121440Y-84760000D01*
X107121440Y-83460000D01*
X111826560Y-83460000D01*
X111826560Y-84760000D01*
X111870838Y-84995317D01*
X112009910Y-85211441D01*
X112222110Y-85356431D01*
X112474000Y-85407440D01*
X114474000Y-85407440D01*
X114709317Y-85363162D01*
X114925441Y-85224090D01*
X115070431Y-85011890D01*
X115121440Y-84760000D01*
X115121440Y-83460000D01*
X115087985Y-83282200D01*
X121454160Y-83282200D01*
X121454160Y-84582200D01*
X121498438Y-84817517D01*
X121637510Y-85033641D01*
X121849710Y-85178631D01*
X122101600Y-85229640D01*
X124101600Y-85229640D01*
X124336917Y-85185362D01*
X124553041Y-85046290D01*
X124698031Y-84834090D01*
X124749040Y-84582200D01*
X124749040Y-83282200D01*
X124704762Y-83046883D01*
X124565690Y-82830759D01*
X124353490Y-82685769D01*
X124101600Y-82634760D01*
X122101600Y-82634760D01*
X121866283Y-82679038D01*
X121650159Y-82818110D01*
X121505169Y-83030310D01*
X121454160Y-83282200D01*
X115087985Y-83282200D01*
X115077162Y-83224683D01*
X114938090Y-83008559D01*
X114725890Y-82863569D01*
X114474000Y-82812560D01*
X112474000Y-82812560D01*
X112238683Y-82856838D01*
X112022559Y-82995910D01*
X111877569Y-83208110D01*
X111826560Y-83460000D01*
X107121440Y-83460000D01*
X107077162Y-83224683D01*
X106938090Y-83008559D01*
X106725890Y-82863569D01*
X106474000Y-82812560D01*
X106436941Y-82812560D01*
X106452431Y-82789890D01*
X106503440Y-82538000D01*
X106503440Y-81038000D01*
X106459162Y-80802683D01*
X106320090Y-80586559D01*
X106107890Y-80441569D01*
X105856000Y-80390560D01*
X104456000Y-80390560D01*
X104220683Y-80434838D01*
X104131772Y-80492051D01*
X104057890Y-80441569D01*
X103806000Y-80390560D01*
X103015796Y-80390560D01*
X102526618Y-79901382D01*
X102515657Y-79894058D01*
X102375934Y-79800698D01*
X96393000Y-73817764D01*
X96393000Y-71759745D01*
X96428943Y-71744894D01*
X96889278Y-71285363D01*
X96905208Y-71247000D01*
X98437764Y-71247000D01*
X103765382Y-76574618D01*
G36*
X126605878Y-60338117D02*
X126605880Y-60338120D01*
X127136313Y-60692543D01*
X127762000Y-60817000D01*
X137549000Y-60817000D01*
X137549000Y-61505868D01*
X134149868Y-64905000D01*
X127978133Y-64905000D01*
X126786566Y-63713434D01*
X126691439Y-63649872D01*
X126418346Y-63467397D01*
X125984000Y-63381000D01*
X123691749Y-63381000D01*
X123230461Y-62918907D01*
X122537895Y-62631328D01*
X121787995Y-62630674D01*
X121094928Y-62917043D01*
X120564207Y-63446839D01*
X120276628Y-64139405D01*
X120275974Y-64889305D01*
X120562343Y-65582372D01*
X121092139Y-66113093D01*
X121784705Y-66400672D01*
X122534605Y-66401326D01*
X123227672Y-66114957D01*
X123692439Y-65651000D01*
X125513868Y-65651000D01*
X126283867Y-66421000D01*
X118478236Y-66421000D01*
X118159943Y-66102707D01*
X118678393Y-65585161D01*
X118965972Y-64892595D01*
X118966626Y-64142695D01*
X118680257Y-63449628D01*
X118150461Y-62918907D01*
X117457895Y-62631328D01*
X117190300Y-62631095D01*
X117190300Y-62067877D01*
X117236617Y-62059162D01*
X117325528Y-62001949D01*
X117399410Y-62052431D01*
X117651300Y-62103440D01*
X119051300Y-62103440D01*
X119286617Y-62059162D01*
X119502741Y-61920090D01*
X119647731Y-61707890D01*
X119670592Y-61595000D01*
X120060015Y-61595000D01*
X120078138Y-61691317D01*
X120217210Y-61907441D01*
X120429410Y-62052431D01*
X120681300Y-62103440D01*
X122081300Y-62103440D01*
X122316617Y-62059162D01*
X122399448Y-62005861D01*
X122604991Y-62091000D01*
X122922550Y-62091000D01*
X123081300Y-61932250D01*
X123081300Y-61079000D01*
X123781300Y-61079000D01*
X123781300Y-61932250D01*
X123940050Y-62091000D01*
X124257609Y-62091000D01*
X124490998Y-61994327D01*
X124669627Y-61815699D01*
X124766300Y-61582310D01*
X124766300Y-61237750D01*
X124607550Y-61079000D01*
X123781300Y-61079000D01*
X123081300Y-61079000D01*
X123038300Y-61079000D01*
X123038300Y-60333000D01*
X123081300Y-60333000D01*
X123081300Y-59479750D01*
X123781300Y-59479750D01*
X123781300Y-60333000D01*
X124607550Y-60333000D01*
X124766300Y-60174250D01*
X124766300Y-59829690D01*
X124669627Y-59596301D01*
X124490998Y-59417673D01*
X124257609Y-59321000D01*
X123940050Y-59321000D01*
X123781300Y-59479750D01*
X123081300Y-59479750D01*
X122922550Y-59321000D01*
X122604991Y-59321000D01*
X122400630Y-59405649D01*
X122333190Y-59359569D01*
X122081300Y-59308560D01*
X120681300Y-59308560D01*
X120445983Y-59352838D01*
X120229859Y-59491910D01*
X120084869Y-59704110D01*
X120062008Y-59817000D01*
X119672585Y-59817000D01*
X119654462Y-59720683D01*
X119515390Y-59504559D01*
X119303190Y-59359569D01*
X119051300Y-59308560D01*
X117651300Y-59308560D01*
X117415983Y-59352838D01*
X117327072Y-59410051D01*
X117253190Y-59359569D01*
X117001300Y-59308560D01*
X115601300Y-59308560D01*
X115365983Y-59352838D01*
X115149859Y-59491910D01*
X115004869Y-59704110D01*
X114953860Y-59956000D01*
X114953860Y-61456000D01*
X114998138Y-61691317D01*
X115137210Y-61907441D01*
X115349410Y-62052431D01*
X115412300Y-62065167D01*
X115412300Y-62873000D01*
X112620038Y-62873000D01*
X112601162Y-62772683D01*
X112462090Y-62556559D01*
X112249890Y-62411569D01*
X111998000Y-62360560D01*
X109998000Y-62360560D01*
X109762683Y-62404838D01*
X109546559Y-62543910D01*
X109465931Y-62661912D01*
X109371257Y-62567238D01*
X109227637Y-62710858D01*
X109111251Y-62474292D01*
X108474600Y-62341051D01*
X107835422Y-62461587D01*
X107804749Y-62474292D01*
X107688362Y-62710860D01*
X108458000Y-63480498D01*
X108472142Y-63466356D01*
X108999644Y-63993858D01*
X108985502Y-64008000D01*
X108999644Y-64022142D01*
X108472142Y-64549644D01*
X108458000Y-64535502D01*
X107688362Y-65305140D01*
X107804749Y-65541708D01*
X108441400Y-65674949D01*
X109080578Y-65554413D01*
X109111251Y-65541708D01*
X109227637Y-65305142D01*
X109371257Y-65448762D01*
X109466044Y-65353975D01*
X109533910Y-65459441D01*
X109746110Y-65604431D01*
X109863000Y-65628102D01*
X109863000Y-69760004D01*
X109826683Y-69766838D01*
X109743852Y-69820139D01*
X109538309Y-69735000D01*
X109220750Y-69735000D01*
X109062000Y-69893750D01*
X109062000Y-70747000D01*
X109105000Y-70747000D01*
X109105000Y-71493000D01*
X109062000Y-71493000D01*
X109062000Y-72346250D01*
X109220750Y-72505000D01*
X109538309Y-72505000D01*
X109742670Y-72420351D01*
X109810110Y-72466431D01*
X110059827Y-72517000D01*
X105790236Y-72517000D01*
X105778236Y-72505000D01*
X105935250Y-72505000D01*
X106094000Y-72346250D01*
X106094000Y-71493000D01*
X106794000Y-71493000D01*
X106794000Y-72346250D01*
X106952750Y-72505000D01*
X107270309Y-72505000D01*
X107503698Y-72408327D01*
X107578000Y-72334025D01*
X107652302Y-72408327D01*
X107885691Y-72505000D01*
X108203250Y-72505000D01*
X108362000Y-72346250D01*
X108362000Y-71493000D01*
X106794000Y-71493000D01*
X106094000Y-71493000D01*
X106051000Y-71493000D01*
X106051000Y-70747000D01*
X106094000Y-70747000D01*
X106094000Y-69893750D01*
X106794000Y-69893750D01*
X106794000Y-70747000D01*
X108362000Y-70747000D01*
X108362000Y-69893750D01*
X108203250Y-69735000D01*
X107885691Y-69735000D01*
X107652302Y-69831673D01*
X107578000Y-69905975D01*
X107503698Y-69831673D01*
X107270309Y-69735000D01*
X106952750Y-69735000D01*
X106794000Y-69893750D01*
X106094000Y-69893750D01*
X105935250Y-69735000D01*
X105617691Y-69735000D01*
X105413330Y-69819649D01*
X105345890Y-69773569D01*
X105283000Y-69760833D01*
X105283000Y-65900236D01*
X105555434Y-65627802D01*
X105591352Y-65642716D01*
X106241795Y-65643284D01*
X106842943Y-65394894D01*
X107303278Y-64935363D01*
X107516406Y-64422092D01*
X107930498Y-64008000D01*
X107515670Y-63593172D01*
X107304894Y-63083057D01*
X106845363Y-62622722D01*
X106244648Y-62373284D01*
X105888105Y-62372973D01*
X104495000Y-60979868D01*
X104495000Y-59519901D01*
X104710000Y-59563440D01*
X106110000Y-59563440D01*
X106345317Y-59519162D01*
X106561441Y-59380090D01*
X106671963Y-59218335D01*
X106767910Y-59367441D01*
X106980110Y-59512431D01*
X107232000Y-59563440D01*
X108632000Y-59563440D01*
X108867317Y-59519162D01*
X108950148Y-59465861D01*
X109155691Y-59551000D01*
X109473250Y-59551000D01*
X109632000Y-59392250D01*
X109632000Y-58539000D01*
X110332000Y-58539000D01*
X110332000Y-59392250D01*
X110490750Y-59551000D01*
X110808309Y-59551000D01*
X111041698Y-59454327D01*
X111220327Y-59275699D01*
X111317000Y-59042310D01*
X111317000Y-58697750D01*
X111158250Y-58539000D01*
X110332000Y-58539000D01*
X109632000Y-58539000D01*
X109589000Y-58539000D01*
X109589000Y-57793000D01*
X109632000Y-57793000D01*
X109632000Y-56939750D01*
X110332000Y-56939750D01*
X110332000Y-57793000D01*
X111158250Y-57793000D01*
X111317000Y-57634250D01*
X111317000Y-57289690D01*
X111220327Y-57056301D01*
X111041698Y-56877673D01*
X110808309Y-56781000D01*
X110490750Y-56781000D01*
X110332000Y-56939750D01*
X109632000Y-56939750D01*
X109473250Y-56781000D01*
X109155691Y-56781000D01*
X108951330Y-56865649D01*
X108883890Y-56819569D01*
X108632000Y-56768560D01*
X107232000Y-56768560D01*
X106996683Y-56812838D01*
X106780559Y-56951910D01*
X106670037Y-57113665D01*
X106574090Y-56964559D01*
X106361890Y-56819569D01*
X106110000Y-56768560D01*
X104710000Y-56768560D01*
X104474683Y-56812838D01*
X104385772Y-56870051D01*
X104311890Y-56819569D01*
X104060000Y-56768560D01*
X102660000Y-56768560D01*
X102424683Y-56812838D01*
X102208559Y-56951910D01*
X102154519Y-57031000D01*
X102130133Y-57031000D01*
X101344132Y-56245000D01*
X122512760Y-56245000D01*
X126605878Y-60338117D01*
X126605878Y-60338117D01*
G37*
X126605878Y-60338117D02*
X126605880Y-60338120D01*
X127136313Y-60692543D01*
X127762000Y-60817000D01*
X137549000Y-60817000D01*
X137549000Y-61505868D01*
X134149868Y-64905000D01*
X127978133Y-64905000D01*
X126786566Y-63713434D01*
X126691439Y-63649872D01*
X126418346Y-63467397D01*
X125984000Y-63381000D01*
X123691749Y-63381000D01*
X123230461Y-62918907D01*
X122537895Y-62631328D01*
X121787995Y-62630674D01*
X121094928Y-62917043D01*
X120564207Y-63446839D01*
X120276628Y-64139405D01*
X120275974Y-64889305D01*
X120562343Y-65582372D01*
X121092139Y-66113093D01*
X121784705Y-66400672D01*
X122534605Y-66401326D01*
X123227672Y-66114957D01*
X123692439Y-65651000D01*
X125513868Y-65651000D01*
X126283867Y-66421000D01*
X118478236Y-66421000D01*
X118159943Y-66102707D01*
X118678393Y-65585161D01*
X118965972Y-64892595D01*
X118966626Y-64142695D01*
X118680257Y-63449628D01*
X118150461Y-62918907D01*
X117457895Y-62631328D01*
X117190300Y-62631095D01*
X117190300Y-62067877D01*
X117236617Y-62059162D01*
X117325528Y-62001949D01*
X117399410Y-62052431D01*
X117651300Y-62103440D01*
X119051300Y-62103440D01*
X119286617Y-62059162D01*
X119502741Y-61920090D01*
X119647731Y-61707890D01*
X119670592Y-61595000D01*
X120060015Y-61595000D01*
X120078138Y-61691317D01*
X120217210Y-61907441D01*
X120429410Y-62052431D01*
X120681300Y-62103440D01*
X122081300Y-62103440D01*
X122316617Y-62059162D01*
X122399448Y-62005861D01*
X122604991Y-62091000D01*
X122922550Y-62091000D01*
X123081300Y-61932250D01*
X123081300Y-61079000D01*
X123781300Y-61079000D01*
X123781300Y-61932250D01*
X123940050Y-62091000D01*
X124257609Y-62091000D01*
X124490998Y-61994327D01*
X124669627Y-61815699D01*
X124766300Y-61582310D01*
X124766300Y-61237750D01*
X124607550Y-61079000D01*
X123781300Y-61079000D01*
X123081300Y-61079000D01*
X123038300Y-61079000D01*
X123038300Y-60333000D01*
X123081300Y-60333000D01*
X123081300Y-59479750D01*
X123781300Y-59479750D01*
X123781300Y-60333000D01*
X124607550Y-60333000D01*
X124766300Y-60174250D01*
X124766300Y-59829690D01*
X124669627Y-59596301D01*
X124490998Y-59417673D01*
X124257609Y-59321000D01*
X123940050Y-59321000D01*
X123781300Y-59479750D01*
X123081300Y-59479750D01*
X122922550Y-59321000D01*
X122604991Y-59321000D01*
X122400630Y-59405649D01*
X122333190Y-59359569D01*
X122081300Y-59308560D01*
X120681300Y-59308560D01*
X120445983Y-59352838D01*
X120229859Y-59491910D01*
X120084869Y-59704110D01*
X120062008Y-59817000D01*
X119672585Y-59817000D01*
X119654462Y-59720683D01*
X119515390Y-59504559D01*
X119303190Y-59359569D01*
X119051300Y-59308560D01*
X117651300Y-59308560D01*
X117415983Y-59352838D01*
X117327072Y-59410051D01*
X117253190Y-59359569D01*
X117001300Y-59308560D01*
X115601300Y-59308560D01*
X115365983Y-59352838D01*
X115149859Y-59491910D01*
X115004869Y-59704110D01*
X114953860Y-59956000D01*
X114953860Y-61456000D01*
X114998138Y-61691317D01*
X115137210Y-61907441D01*
X115349410Y-62052431D01*
X115412300Y-62065167D01*
X115412300Y-62873000D01*
X112620038Y-62873000D01*
X112601162Y-62772683D01*
X112462090Y-62556559D01*
X112249890Y-62411569D01*
X111998000Y-62360560D01*
X109998000Y-62360560D01*
X109762683Y-62404838D01*
X109546559Y-62543910D01*
X109465931Y-62661912D01*
X109371257Y-62567238D01*
X109227637Y-62710858D01*
X109111251Y-62474292D01*
X108474600Y-62341051D01*
X107835422Y-62461587D01*
X107804749Y-62474292D01*
X107688362Y-62710860D01*
X108458000Y-63480498D01*
X108472142Y-63466356D01*
X108999644Y-63993858D01*
X108985502Y-64008000D01*
X108999644Y-64022142D01*
X108472142Y-64549644D01*
X108458000Y-64535502D01*
X107688362Y-65305140D01*
X107804749Y-65541708D01*
X108441400Y-65674949D01*
X109080578Y-65554413D01*
X109111251Y-65541708D01*
X109227637Y-65305142D01*
X109371257Y-65448762D01*
X109466044Y-65353975D01*
X109533910Y-65459441D01*
X109746110Y-65604431D01*
X109863000Y-65628102D01*
X109863000Y-69760004D01*
X109826683Y-69766838D01*
X109743852Y-69820139D01*
X109538309Y-69735000D01*
X109220750Y-69735000D01*
X109062000Y-69893750D01*
X109062000Y-70747000D01*
X109105000Y-70747000D01*
X109105000Y-71493000D01*
X109062000Y-71493000D01*
X109062000Y-72346250D01*
X109220750Y-72505000D01*
X109538309Y-72505000D01*
X109742670Y-72420351D01*
X109810110Y-72466431D01*
X110059827Y-72517000D01*
X105790236Y-72517000D01*
X105778236Y-72505000D01*
X105935250Y-72505000D01*
X106094000Y-72346250D01*
X106094000Y-71493000D01*
X106794000Y-71493000D01*
X106794000Y-72346250D01*
X106952750Y-72505000D01*
X107270309Y-72505000D01*
X107503698Y-72408327D01*
X107578000Y-72334025D01*
X107652302Y-72408327D01*
X107885691Y-72505000D01*
X108203250Y-72505000D01*
X108362000Y-72346250D01*
X108362000Y-71493000D01*
X106794000Y-71493000D01*
X106094000Y-71493000D01*
X106051000Y-71493000D01*
X106051000Y-70747000D01*
X106094000Y-70747000D01*
X106094000Y-69893750D01*
X106794000Y-69893750D01*
X106794000Y-70747000D01*
X108362000Y-70747000D01*
X108362000Y-69893750D01*
X108203250Y-69735000D01*
X107885691Y-69735000D01*
X107652302Y-69831673D01*
X107578000Y-69905975D01*
X107503698Y-69831673D01*
X107270309Y-69735000D01*
X106952750Y-69735000D01*
X106794000Y-69893750D01*
X106094000Y-69893750D01*
X105935250Y-69735000D01*
X105617691Y-69735000D01*
X105413330Y-69819649D01*
X105345890Y-69773569D01*
X105283000Y-69760833D01*
X105283000Y-65900236D01*
X105555434Y-65627802D01*
X105591352Y-65642716D01*
X106241795Y-65643284D01*
X106842943Y-65394894D01*
X107303278Y-64935363D01*
X107516406Y-64422092D01*
X107930498Y-64008000D01*
X107515670Y-63593172D01*
X107304894Y-63083057D01*
X106845363Y-62622722D01*
X106244648Y-62373284D01*
X105888105Y-62372973D01*
X104495000Y-60979868D01*
X104495000Y-59519901D01*
X104710000Y-59563440D01*
X106110000Y-59563440D01*
X106345317Y-59519162D01*
X106561441Y-59380090D01*
X106671963Y-59218335D01*
X106767910Y-59367441D01*
X106980110Y-59512431D01*
X107232000Y-59563440D01*
X108632000Y-59563440D01*
X108867317Y-59519162D01*
X108950148Y-59465861D01*
X109155691Y-59551000D01*
X109473250Y-59551000D01*
X109632000Y-59392250D01*
X109632000Y-58539000D01*
X110332000Y-58539000D01*
X110332000Y-59392250D01*
X110490750Y-59551000D01*
X110808309Y-59551000D01*
X111041698Y-59454327D01*
X111220327Y-59275699D01*
X111317000Y-59042310D01*
X111317000Y-58697750D01*
X111158250Y-58539000D01*
X110332000Y-58539000D01*
X109632000Y-58539000D01*
X109589000Y-58539000D01*
X109589000Y-57793000D01*
X109632000Y-57793000D01*
X109632000Y-56939750D01*
X110332000Y-56939750D01*
X110332000Y-57793000D01*
X111158250Y-57793000D01*
X111317000Y-57634250D01*
X111317000Y-57289690D01*
X111220327Y-57056301D01*
X111041698Y-56877673D01*
X110808309Y-56781000D01*
X110490750Y-56781000D01*
X110332000Y-56939750D01*
X109632000Y-56939750D01*
X109473250Y-56781000D01*
X109155691Y-56781000D01*
X108951330Y-56865649D01*
X108883890Y-56819569D01*
X108632000Y-56768560D01*
X107232000Y-56768560D01*
X106996683Y-56812838D01*
X106780559Y-56951910D01*
X106670037Y-57113665D01*
X106574090Y-56964559D01*
X106361890Y-56819569D01*
X106110000Y-56768560D01*
X104710000Y-56768560D01*
X104474683Y-56812838D01*
X104385772Y-56870051D01*
X104311890Y-56819569D01*
X104060000Y-56768560D01*
X102660000Y-56768560D01*
X102424683Y-56812838D01*
X102208559Y-56951910D01*
X102154519Y-57031000D01*
X102130133Y-57031000D01*
X101344132Y-56245000D01*
X122512760Y-56245000D01*
X126605878Y-60338117D01*
G36*
X95092000Y-57793000D02*
X96424000Y-57793000D01*
X96424000Y-57777000D01*
X97124000Y-57777000D01*
X97124000Y-57793000D01*
X97167000Y-57793000D01*
X97167000Y-58539000D01*
X97124000Y-58539000D01*
X97124000Y-59392250D01*
X97282750Y-59551000D01*
X97600309Y-59551000D01*
X97689000Y-59514263D01*
X97689000Y-60579000D01*
X97551683Y-60604838D01*
X97335559Y-60743910D01*
X97190569Y-60956110D01*
X97139560Y-61208000D01*
X97139560Y-62208000D01*
X97183838Y-62443317D01*
X97322910Y-62659441D01*
X97535110Y-62804431D01*
X97787000Y-62855440D01*
X100037000Y-62855440D01*
X100103113Y-62843000D01*
X103147868Y-62843000D01*
X104283025Y-63978157D01*
X104282716Y-64331795D01*
X104298579Y-64370185D01*
X103765382Y-64903382D01*
X103572671Y-65191794D01*
X103505000Y-65532000D01*
X103505000Y-69758123D01*
X103458683Y-69766838D01*
X103242559Y-69905910D01*
X103097569Y-70118110D01*
X103046560Y-70370000D01*
X103046560Y-71817324D01*
X102997000Y-71767764D01*
X102997000Y-65571000D01*
X102929329Y-65230794D01*
X102736618Y-64942382D01*
X101173618Y-63379382D01*
X101127576Y-63348618D01*
X100885206Y-63186671D01*
X100545000Y-63119000D01*
X100541270Y-63119000D01*
X100501090Y-63056559D01*
X100288890Y-62911569D01*
X100037000Y-62860560D01*
X97787000Y-62860560D01*
X97720887Y-62873000D01*
X94884440Y-62873000D01*
X94884440Y-62258000D01*
X94840162Y-62022683D01*
X94701090Y-61806559D01*
X94488890Y-61661569D01*
X94237000Y-61610560D01*
X93827000Y-61610560D01*
X93827000Y-59514263D01*
X93915691Y-59551000D01*
X94233250Y-59551000D01*
X94392000Y-59392250D01*
X94392000Y-58539000D01*
X95092000Y-58539000D01*
X95092000Y-59392250D01*
X95250750Y-59551000D01*
X95568309Y-59551000D01*
X95758000Y-59472427D01*
X95947691Y-59551000D01*
X96265250Y-59551000D01*
X96424000Y-59392250D01*
X96424000Y-58539000D01*
X95092000Y-58539000D01*
X94392000Y-58539000D01*
X94349000Y-58539000D01*
X94349000Y-57793000D01*
X94392000Y-57793000D01*
X94392000Y-57777000D01*
X95092000Y-57777000D01*
X95092000Y-57793000D01*
X95092000Y-57793000D01*
G37*
X95092000Y-57793000D02*
X96424000Y-57793000D01*
X96424000Y-57777000D01*
X97124000Y-57777000D01*
X97124000Y-57793000D01*
X97167000Y-57793000D01*
X97167000Y-58539000D01*
X97124000Y-58539000D01*
X97124000Y-59392250D01*
X97282750Y-59551000D01*
X97600309Y-59551000D01*
X97689000Y-59514263D01*
X97689000Y-60579000D01*
X97551683Y-60604838D01*
X97335559Y-60743910D01*
X97190569Y-60956110D01*
X97139560Y-61208000D01*
X97139560Y-62208000D01*
X97183838Y-62443317D01*
X97322910Y-62659441D01*
X97535110Y-62804431D01*
X97787000Y-62855440D01*
X100037000Y-62855440D01*
X100103113Y-62843000D01*
X103147868Y-62843000D01*
X104283025Y-63978157D01*
X104282716Y-64331795D01*
X104298579Y-64370185D01*
X103765382Y-64903382D01*
X103572671Y-65191794D01*
X103505000Y-65532000D01*
X103505000Y-69758123D01*
X103458683Y-69766838D01*
X103242559Y-69905910D01*
X103097569Y-70118110D01*
X103046560Y-70370000D01*
X103046560Y-71817324D01*
X102997000Y-71767764D01*
X102997000Y-65571000D01*
X102929329Y-65230794D01*
X102736618Y-64942382D01*
X101173618Y-63379382D01*
X101127576Y-63348618D01*
X100885206Y-63186671D01*
X100545000Y-63119000D01*
X100541270Y-63119000D01*
X100501090Y-63056559D01*
X100288890Y-62911569D01*
X100037000Y-62860560D01*
X97787000Y-62860560D01*
X97720887Y-62873000D01*
X94884440Y-62873000D01*
X94884440Y-62258000D01*
X94840162Y-62022683D01*
X94701090Y-61806559D01*
X94488890Y-61661569D01*
X94237000Y-61610560D01*
X93827000Y-61610560D01*
X93827000Y-59514263D01*
X93915691Y-59551000D01*
X94233250Y-59551000D01*
X94392000Y-59392250D01*
X94392000Y-58539000D01*
X95092000Y-58539000D01*
X95092000Y-59392250D01*
X95250750Y-59551000D01*
X95568309Y-59551000D01*
X95758000Y-59472427D01*
X95947691Y-59551000D01*
X96265250Y-59551000D01*
X96424000Y-59392250D01*
X96424000Y-58539000D01*
X95092000Y-58539000D01*
X94392000Y-58539000D01*
X94349000Y-58539000D01*
X94349000Y-57793000D01*
X94392000Y-57793000D01*
X94392000Y-57777000D01*
X95092000Y-57777000D01*
X95092000Y-57793000D01*
G36*
X101219000Y-65939236D02*
X101219000Y-71513764D01*
X99434618Y-69729382D01*
X99424408Y-69722560D01*
X99146206Y-69536671D01*
X98806000Y-69469000D01*
X96905745Y-69469000D01*
X96890894Y-69433057D01*
X96431363Y-68972722D01*
X95830648Y-68723284D01*
X95180205Y-68722716D01*
X94579057Y-68971106D01*
X94512426Y-69037621D01*
X94428090Y-68906559D01*
X94215890Y-68761569D01*
X94099000Y-68737898D01*
X94099000Y-66716750D01*
X97152000Y-66716750D01*
X97152000Y-66934309D01*
X97248673Y-67167698D01*
X97427301Y-67346327D01*
X97660690Y-67443000D01*
X98380250Y-67443000D01*
X98539000Y-67284250D01*
X98539000Y-66558000D01*
X99285000Y-66558000D01*
X99285000Y-67284250D01*
X99443750Y-67443000D01*
X100163310Y-67443000D01*
X100396699Y-67346327D01*
X100575327Y-67167698D01*
X100672000Y-66934309D01*
X100672000Y-66716750D01*
X100513250Y-66558000D01*
X99285000Y-66558000D01*
X98539000Y-66558000D01*
X97310750Y-66558000D01*
X97152000Y-66716750D01*
X94099000Y-66716750D01*
X94099000Y-66405440D01*
X94237000Y-66405440D01*
X94472317Y-66361162D01*
X94688441Y-66222090D01*
X94833431Y-66009890D01*
X94884440Y-65758000D01*
X94884440Y-65681691D01*
X97152000Y-65681691D01*
X97152000Y-65899250D01*
X97310750Y-66058000D01*
X98539000Y-66058000D01*
X98539000Y-65331750D01*
X99285000Y-65331750D01*
X99285000Y-66058000D01*
X100513250Y-66058000D01*
X100672000Y-65899250D01*
X100672000Y-65681691D01*
X100575327Y-65448302D01*
X100396699Y-65269673D01*
X100163310Y-65173000D01*
X99443750Y-65173000D01*
X99285000Y-65331750D01*
X98539000Y-65331750D01*
X98380250Y-65173000D01*
X97660690Y-65173000D01*
X97427301Y-65269673D01*
X97248673Y-65448302D01*
X97152000Y-65681691D01*
X94884440Y-65681691D01*
X94884440Y-65143000D01*
X97725569Y-65143000D01*
X97787000Y-65155440D01*
X100037000Y-65155440D01*
X100272317Y-65111162D01*
X100344486Y-65064722D01*
X101219000Y-65939236D01*
X101219000Y-65939236D01*
G37*
X101219000Y-65939236D02*
X101219000Y-71513764D01*
X99434618Y-69729382D01*
X99424408Y-69722560D01*
X99146206Y-69536671D01*
X98806000Y-69469000D01*
X96905745Y-69469000D01*
X96890894Y-69433057D01*
X96431363Y-68972722D01*
X95830648Y-68723284D01*
X95180205Y-68722716D01*
X94579057Y-68971106D01*
X94512426Y-69037621D01*
X94428090Y-68906559D01*
X94215890Y-68761569D01*
X94099000Y-68737898D01*
X94099000Y-66716750D01*
X97152000Y-66716750D01*
X97152000Y-66934309D01*
X97248673Y-67167698D01*
X97427301Y-67346327D01*
X97660690Y-67443000D01*
X98380250Y-67443000D01*
X98539000Y-67284250D01*
X98539000Y-66558000D01*
X99285000Y-66558000D01*
X99285000Y-67284250D01*
X99443750Y-67443000D01*
X100163310Y-67443000D01*
X100396699Y-67346327D01*
X100575327Y-67167698D01*
X100672000Y-66934309D01*
X100672000Y-66716750D01*
X100513250Y-66558000D01*
X99285000Y-66558000D01*
X98539000Y-66558000D01*
X97310750Y-66558000D01*
X97152000Y-66716750D01*
X94099000Y-66716750D01*
X94099000Y-66405440D01*
X94237000Y-66405440D01*
X94472317Y-66361162D01*
X94688441Y-66222090D01*
X94833431Y-66009890D01*
X94884440Y-65758000D01*
X94884440Y-65681691D01*
X97152000Y-65681691D01*
X97152000Y-65899250D01*
X97310750Y-66058000D01*
X98539000Y-66058000D01*
X98539000Y-65331750D01*
X99285000Y-65331750D01*
X99285000Y-66058000D01*
X100513250Y-66058000D01*
X100672000Y-65899250D01*
X100672000Y-65681691D01*
X100575327Y-65448302D01*
X100396699Y-65269673D01*
X100163310Y-65173000D01*
X99443750Y-65173000D01*
X99285000Y-65331750D01*
X98539000Y-65331750D01*
X98380250Y-65173000D01*
X97660690Y-65173000D01*
X97427301Y-65269673D01*
X97248673Y-65448302D01*
X97152000Y-65681691D01*
X94884440Y-65681691D01*
X94884440Y-65143000D01*
X97725569Y-65143000D01*
X97787000Y-65155440D01*
X100037000Y-65155440D01*
X100272317Y-65111162D01*
X100344486Y-65064722D01*
X101219000Y-65939236D01*
G36*
X67677880Y-56501880D02*
X67323457Y-57032312D01*
X67198999Y-57658000D01*
X67199000Y-57658005D01*
X67199000Y-60790761D01*
X66632760Y-61357000D01*
X63923239Y-61357000D01*
X63357000Y-60790760D01*
X63357000Y-59454750D01*
X63893000Y-59454750D01*
X63893000Y-59772309D01*
X63989673Y-60005698D01*
X64168301Y-60184327D01*
X64401690Y-60281000D01*
X64746250Y-60281000D01*
X64905000Y-60122250D01*
X64905000Y-59296000D01*
X65651000Y-59296000D01*
X65651000Y-60122250D01*
X65809750Y-60281000D01*
X66154310Y-60281000D01*
X66387699Y-60184327D01*
X66566327Y-60005698D01*
X66663000Y-59772309D01*
X66663000Y-59454750D01*
X66504250Y-59296000D01*
X65651000Y-59296000D01*
X64905000Y-59296000D01*
X64051750Y-59296000D01*
X63893000Y-59454750D01*
X63357000Y-59454750D01*
X63357000Y-58421427D01*
X63357284Y-58096205D01*
X63108894Y-57495057D01*
X62649363Y-57034722D01*
X62048648Y-56785284D01*
X61578876Y-56784874D01*
X61579126Y-56498876D01*
X62045795Y-56499284D01*
X62646943Y-56250894D01*
X63107278Y-55791363D01*
X63123208Y-55753000D01*
X64062149Y-55753000D01*
X63931569Y-55944110D01*
X63880560Y-56196000D01*
X63880560Y-57596000D01*
X63924838Y-57831317D01*
X63978139Y-57914148D01*
X63893000Y-58119691D01*
X63893000Y-58437250D01*
X64051750Y-58596000D01*
X64905000Y-58596000D01*
X64905000Y-58553000D01*
X65651000Y-58553000D01*
X65651000Y-58596000D01*
X66504250Y-58596000D01*
X66663000Y-58437250D01*
X66663000Y-58119691D01*
X66578351Y-57915330D01*
X66624431Y-57847890D01*
X66675440Y-57596000D01*
X66675440Y-56196000D01*
X66631162Y-55960683D01*
X66492090Y-55744559D01*
X66279890Y-55599569D01*
X66167000Y-55576708D01*
X66167000Y-55372000D01*
X66099329Y-55031794D01*
X65906618Y-54743382D01*
X65398618Y-54235382D01*
X65222204Y-54117506D01*
X65110206Y-54042671D01*
X64770000Y-53975000D01*
X63123745Y-53975000D01*
X63108894Y-53939057D01*
X62856279Y-53686000D01*
X70493760Y-53686000D01*
X67677880Y-56501880D01*
X67677880Y-56501880D01*
G37*
X67677880Y-56501880D02*
X67323457Y-57032312D01*
X67198999Y-57658000D01*
X67199000Y-57658005D01*
X67199000Y-60790761D01*
X66632760Y-61357000D01*
X63923239Y-61357000D01*
X63357000Y-60790760D01*
X63357000Y-59454750D01*
X63893000Y-59454750D01*
X63893000Y-59772309D01*
X63989673Y-60005698D01*
X64168301Y-60184327D01*
X64401690Y-60281000D01*
X64746250Y-60281000D01*
X64905000Y-60122250D01*
X64905000Y-59296000D01*
X65651000Y-59296000D01*
X65651000Y-60122250D01*
X65809750Y-60281000D01*
X66154310Y-60281000D01*
X66387699Y-60184327D01*
X66566327Y-60005698D01*
X66663000Y-59772309D01*
X66663000Y-59454750D01*
X66504250Y-59296000D01*
X65651000Y-59296000D01*
X64905000Y-59296000D01*
X64051750Y-59296000D01*
X63893000Y-59454750D01*
X63357000Y-59454750D01*
X63357000Y-58421427D01*
X63357284Y-58096205D01*
X63108894Y-57495057D01*
X62649363Y-57034722D01*
X62048648Y-56785284D01*
X61578876Y-56784874D01*
X61579126Y-56498876D01*
X62045795Y-56499284D01*
X62646943Y-56250894D01*
X63107278Y-55791363D01*
X63123208Y-55753000D01*
X64062149Y-55753000D01*
X63931569Y-55944110D01*
X63880560Y-56196000D01*
X63880560Y-57596000D01*
X63924838Y-57831317D01*
X63978139Y-57914148D01*
X63893000Y-58119691D01*
X63893000Y-58437250D01*
X64051750Y-58596000D01*
X64905000Y-58596000D01*
X64905000Y-58553000D01*
X65651000Y-58553000D01*
X65651000Y-58596000D01*
X66504250Y-58596000D01*
X66663000Y-58437250D01*
X66663000Y-58119691D01*
X66578351Y-57915330D01*
X66624431Y-57847890D01*
X66675440Y-57596000D01*
X66675440Y-56196000D01*
X66631162Y-55960683D01*
X66492090Y-55744559D01*
X66279890Y-55599569D01*
X66167000Y-55576708D01*
X66167000Y-55372000D01*
X66099329Y-55031794D01*
X65906618Y-54743382D01*
X65398618Y-54235382D01*
X65222204Y-54117506D01*
X65110206Y-54042671D01*
X64770000Y-53975000D01*
X63123745Y-53975000D01*
X63108894Y-53939057D01*
X62856279Y-53686000D01*
X70493760Y-53686000D01*
X67677880Y-56501880D01*
G36*
X135336000Y-53928684D02*
X135336000Y-55198786D01*
X135219057Y-55247106D01*
X135155560Y-55310492D01*
X135246803Y-55090756D01*
X135247197Y-54639225D01*
X135074767Y-54221914D01*
X134755765Y-53902355D01*
X134338756Y-53729197D01*
X133887225Y-53728803D01*
X133469914Y-53901233D01*
X133150355Y-54220235D01*
X132977197Y-54637244D01*
X132977006Y-54856310D01*
X132334756Y-55498560D01*
X131888000Y-55498560D01*
X131652683Y-55542838D01*
X131569852Y-55596139D01*
X131364309Y-55511000D01*
X131046750Y-55511000D01*
X130888000Y-55669750D01*
X130888000Y-56523000D01*
X130931000Y-56523000D01*
X130931000Y-57269000D01*
X130888000Y-57269000D01*
X130888000Y-57289000D01*
X130188000Y-57289000D01*
X130188000Y-57269000D01*
X129361750Y-57269000D01*
X129203000Y-57427750D01*
X129203000Y-57547000D01*
X128439239Y-57547000D01*
X126911930Y-56019690D01*
X129203000Y-56019690D01*
X129203000Y-56364250D01*
X129361750Y-56523000D01*
X130188000Y-56523000D01*
X130188000Y-55669750D01*
X130029250Y-55511000D01*
X129711691Y-55511000D01*
X129478302Y-55607673D01*
X129299673Y-55786301D01*
X129203000Y-56019690D01*
X126911930Y-56019690D01*
X124578240Y-53686000D01*
X135093316Y-53686000D01*
X135336000Y-53928684D01*
X135336000Y-53928684D01*
G37*
X135336000Y-53928684D02*
X135336000Y-55198786D01*
X135219057Y-55247106D01*
X135155560Y-55310492D01*
X135246803Y-55090756D01*
X135247197Y-54639225D01*
X135074767Y-54221914D01*
X134755765Y-53902355D01*
X134338756Y-53729197D01*
X133887225Y-53728803D01*
X133469914Y-53901233D01*
X133150355Y-54220235D01*
X132977197Y-54637244D01*
X132977006Y-54856310D01*
X132334756Y-55498560D01*
X131888000Y-55498560D01*
X131652683Y-55542838D01*
X131569852Y-55596139D01*
X131364309Y-55511000D01*
X131046750Y-55511000D01*
X130888000Y-55669750D01*
X130888000Y-56523000D01*
X130931000Y-56523000D01*
X130931000Y-57269000D01*
X130888000Y-57269000D01*
X130888000Y-57289000D01*
X130188000Y-57289000D01*
X130188000Y-57269000D01*
X129361750Y-57269000D01*
X129203000Y-57427750D01*
X129203000Y-57547000D01*
X128439239Y-57547000D01*
X126911930Y-56019690D01*
X129203000Y-56019690D01*
X129203000Y-56364250D01*
X129361750Y-56523000D01*
X130188000Y-56523000D01*
X130188000Y-55669750D01*
X130029250Y-55511000D01*
X129711691Y-55511000D01*
X129478302Y-55607673D01*
X129299673Y-55786301D01*
X129203000Y-56019690D01*
X126911930Y-56019690D01*
X124578240Y-53686000D01*
X135093316Y-53686000D01*
X135336000Y-53928684D01*
M02*
