G04 #@! TF.FileFunction,Soldermask,Bot*
%FSLAX46Y46*%
G04 Gerber Fmt 4.6, Leading zero omitted, Abs format (unit mm)*
G04 Created by KiCad (PCBNEW 4.0.5+dfsg1-4) date Tue Aug 22 17:04:35 2017*
%MOMM*%
%LPD*%
G01*
G04 APERTURE LIST*
%ADD10C,0.100000*%
%ADD11C,4.000000*%
%ADD12R,1.500000X1.400000*%
%ADD13R,1.400000X1.500000*%
%ADD14R,1.400000X1.000000*%
%ADD15R,2.200000X4.000000*%
%ADD16R,0.620000X1.220000*%
%ADD17C,2.500000*%
%ADD18R,2.500000X2.500000*%
%ADD19C,3.508000*%
%ADD20R,1.000000X1.400000*%
%ADD21R,2.000000X2.000000*%
%ADD22C,2.000000*%
%ADD23R,1.600000X1.900000*%
%ADD24R,2.000000X4.000000*%
%ADD25R,4.000000X2.000000*%
%ADD26C,0.800000*%
G04 APERTURE END LIST*
D10*
D11*
X213360000Y-148844000D03*
X213360000Y-43180000D03*
X93980000Y-43180000D03*
D12*
X164846000Y-59690000D03*
X164846000Y-57640000D03*
D13*
X163086000Y-52324000D03*
X161036000Y-52324000D03*
D12*
X166878000Y-47988000D03*
X166878000Y-50038000D03*
X164846000Y-81788000D03*
X164846000Y-79738000D03*
D13*
X164828000Y-68834000D03*
X166878000Y-68834000D03*
X163086000Y-74422000D03*
X161036000Y-74422000D03*
X165100000Y-90932000D03*
X167150000Y-90932000D03*
D12*
X164846000Y-103886000D03*
X164846000Y-101836000D03*
D13*
X163086000Y-96520000D03*
X161036000Y-96520000D03*
D12*
X164846000Y-125984000D03*
X164846000Y-123934000D03*
D13*
X164846000Y-113030000D03*
X166896000Y-113030000D03*
X163086000Y-118618000D03*
X161036000Y-118618000D03*
D12*
X141986000Y-117856000D03*
X141986000Y-119906000D03*
D13*
X141986000Y-131064000D03*
X139936000Y-131064000D03*
X143746000Y-125222000D03*
X145796000Y-125222000D03*
X142004000Y-109728000D03*
X139954000Y-109728000D03*
D12*
X141986000Y-95758000D03*
X141986000Y-97808000D03*
D13*
X143510000Y-103124000D03*
X145560000Y-103124000D03*
D12*
X141986000Y-73660000D03*
X141986000Y-75710000D03*
D13*
X142004000Y-87376000D03*
X139954000Y-87376000D03*
X143746000Y-81026000D03*
X145796000Y-81026000D03*
D14*
X206672000Y-51054000D03*
X208872000Y-52004000D03*
X208872000Y-50104000D03*
D15*
X204216000Y-50546000D03*
X198816000Y-50546000D03*
D12*
X196088000Y-53104000D03*
X196088000Y-51054000D03*
D13*
X191498000Y-53086000D03*
X193548000Y-53086000D03*
D12*
X192278000Y-49004000D03*
X192278000Y-51054000D03*
X185928000Y-51798000D03*
X185928000Y-53848000D03*
X184658000Y-58184000D03*
X184658000Y-56134000D03*
X182118000Y-58184000D03*
X182118000Y-56134000D03*
X174752000Y-50056000D03*
X174752000Y-48006000D03*
X186690000Y-62502000D03*
X186690000Y-60452000D03*
D13*
X188722000Y-58166000D03*
X186672000Y-58166000D03*
D12*
X188722000Y-60452000D03*
X188722000Y-62502000D03*
X173990000Y-57930000D03*
X173990000Y-55880000D03*
D16*
X199330641Y-62531987D03*
X198380641Y-62531987D03*
X197430641Y-62531987D03*
X197430641Y-59911987D03*
X199330641Y-59911987D03*
X198380641Y-59911987D03*
D13*
X191752000Y-61722000D03*
X193802000Y-61722000D03*
X193802000Y-59690000D03*
X191752000Y-59690000D03*
X191244000Y-57150000D03*
X193294000Y-57150000D03*
X188214000Y-49022000D03*
X190264000Y-49022000D03*
X190264000Y-51308000D03*
X188214000Y-51308000D03*
D17*
X198826000Y-56238000D03*
D18*
X204326000Y-56238000D03*
D19*
X211626000Y-56238000D03*
D13*
X190264000Y-73406000D03*
X188214000Y-73406000D03*
D12*
X188722000Y-82550000D03*
X188722000Y-84600000D03*
D13*
X188722000Y-80264000D03*
X186672000Y-80264000D03*
X188214000Y-71120000D03*
X190264000Y-71120000D03*
D12*
X186690000Y-84600000D03*
X186690000Y-82550000D03*
X192278000Y-71102000D03*
X192278000Y-73152000D03*
X196088000Y-75202000D03*
X196088000Y-73152000D03*
D15*
X204216000Y-72644000D03*
X198816000Y-72644000D03*
D13*
X191498000Y-75184000D03*
X193548000Y-75184000D03*
D14*
X206672000Y-73152000D03*
X208872000Y-74102000D03*
X208872000Y-72202000D03*
D13*
X193802000Y-81788000D03*
X191752000Y-81788000D03*
X191244000Y-79248000D03*
X193294000Y-79248000D03*
X191752000Y-83820000D03*
X193802000Y-83820000D03*
D16*
X199330641Y-84629987D03*
X198380641Y-84629987D03*
X197430641Y-84629987D03*
X197430641Y-82009987D03*
X199330641Y-82009987D03*
X198380641Y-82009987D03*
D12*
X174752000Y-72154000D03*
X174752000Y-70104000D03*
X182118000Y-80282000D03*
X182118000Y-78232000D03*
X184658000Y-80282000D03*
X184658000Y-78232000D03*
X173990000Y-80028000D03*
X173990000Y-77978000D03*
X185928000Y-73896000D03*
X185928000Y-75946000D03*
D17*
X198826000Y-78336000D03*
D18*
X204326000Y-78336000D03*
D19*
X211626000Y-78336000D03*
D12*
X188722000Y-104648000D03*
X188722000Y-106698000D03*
D16*
X199330641Y-106727987D03*
X198380641Y-106727987D03*
X197430641Y-106727987D03*
X197430641Y-104107987D03*
X199330641Y-104107987D03*
X198380641Y-104107987D03*
D13*
X191244000Y-101346000D03*
X193294000Y-101346000D03*
D12*
X186690000Y-106698000D03*
X186690000Y-104648000D03*
D13*
X188722000Y-102362000D03*
X186672000Y-102362000D03*
X193802000Y-103886000D03*
X191752000Y-103886000D03*
X191752000Y-105918000D03*
X193802000Y-105918000D03*
D14*
X206672000Y-95250000D03*
X208872000Y-96200000D03*
X208872000Y-94300000D03*
D12*
X196088000Y-97300000D03*
X196088000Y-95250000D03*
D13*
X191498000Y-97282000D03*
X193548000Y-97282000D03*
D15*
X204216000Y-94742000D03*
X198816000Y-94742000D03*
D12*
X192278000Y-93200000D03*
X192278000Y-95250000D03*
X182118000Y-102380000D03*
X182118000Y-100330000D03*
X184658000Y-102380000D03*
X184658000Y-100330000D03*
X185928000Y-95994000D03*
X185928000Y-98044000D03*
D13*
X188214000Y-93218000D03*
X190264000Y-93218000D03*
D12*
X173990000Y-102126000D03*
X173990000Y-100076000D03*
D13*
X190264000Y-95504000D03*
X188214000Y-95504000D03*
D12*
X174752000Y-94252000D03*
X174752000Y-92202000D03*
D17*
X198826000Y-100434000D03*
D18*
X204326000Y-100434000D03*
D19*
X211626000Y-100434000D03*
D12*
X188722000Y-126746000D03*
X188722000Y-128796000D03*
X186690000Y-128796000D03*
X186690000Y-126746000D03*
D13*
X191752000Y-128016000D03*
X193802000Y-128016000D03*
X193802000Y-125984000D03*
X191752000Y-125984000D03*
D14*
X206672000Y-117348000D03*
X208872000Y-118298000D03*
X208872000Y-116398000D03*
D12*
X196088000Y-119398000D03*
X196088000Y-117348000D03*
X192278000Y-115298000D03*
X192278000Y-117348000D03*
D13*
X191498000Y-119380000D03*
X193548000Y-119380000D03*
D15*
X204216000Y-116840000D03*
X198816000Y-116840000D03*
D13*
X188722000Y-124460000D03*
X186672000Y-124460000D03*
X188214000Y-115316000D03*
X190264000Y-115316000D03*
X190264000Y-117602000D03*
X188214000Y-117602000D03*
D12*
X173990000Y-124224000D03*
X173990000Y-122174000D03*
X185928000Y-118092000D03*
X185928000Y-120142000D03*
X174752000Y-116350000D03*
X174752000Y-114300000D03*
X182118000Y-124478000D03*
X182118000Y-122428000D03*
X184658000Y-124478000D03*
X184658000Y-122428000D03*
D16*
X199330641Y-128825987D03*
X198380641Y-128825987D03*
X197430641Y-128825987D03*
X197430641Y-126205987D03*
X199330641Y-126205987D03*
X198380641Y-126205987D03*
D13*
X191244000Y-123444000D03*
X193294000Y-123444000D03*
D17*
X198826000Y-122532000D03*
D18*
X204326000Y-122532000D03*
D19*
X211626000Y-122532000D03*
D12*
X122174000Y-119362000D03*
X122174000Y-121412000D03*
X124714000Y-119362000D03*
X124714000Y-121412000D03*
X132080000Y-127490000D03*
X132080000Y-129540000D03*
X120904000Y-125748000D03*
X120904000Y-123698000D03*
X132842000Y-119616000D03*
X132842000Y-121666000D03*
D13*
X118110000Y-119380000D03*
X120160000Y-119380000D03*
X116568000Y-126238000D03*
X118618000Y-126238000D03*
X118618000Y-128524000D03*
X116568000Y-128524000D03*
D12*
X120142000Y-115044000D03*
X120142000Y-117094000D03*
X118110000Y-117094000D03*
X118110000Y-115044000D03*
D13*
X113030000Y-117856000D03*
X115080000Y-117856000D03*
X115588000Y-120396000D03*
X113538000Y-120396000D03*
X115080000Y-115824000D03*
X113030000Y-115824000D03*
D16*
X107501359Y-115014013D03*
X108451359Y-115014013D03*
X109401359Y-115014013D03*
X109401359Y-117634013D03*
X107501359Y-117634013D03*
X108451359Y-117634013D03*
D15*
X102616000Y-127000000D03*
X108016000Y-127000000D03*
D13*
X115334000Y-124460000D03*
X113284000Y-124460000D03*
D12*
X110744000Y-124442000D03*
X110744000Y-126492000D03*
X114554000Y-128542000D03*
X114554000Y-126492000D03*
D14*
X100160000Y-126492000D03*
X97960000Y-125542000D03*
X97960000Y-127442000D03*
D17*
X108006000Y-121308000D03*
D18*
X102506000Y-121308000D03*
D19*
X95206000Y-121308000D03*
D12*
X114554000Y-106444000D03*
X114554000Y-104394000D03*
X110744000Y-102344000D03*
X110744000Y-104394000D03*
D14*
X100160000Y-104394000D03*
X97960000Y-103444000D03*
X97960000Y-105344000D03*
D15*
X102616000Y-104902000D03*
X108016000Y-104902000D03*
D16*
X107501359Y-92916013D03*
X108451359Y-92916013D03*
X109401359Y-92916013D03*
X109401359Y-95536013D03*
X107501359Y-95536013D03*
X108451359Y-95536013D03*
D13*
X115334000Y-102362000D03*
X113284000Y-102362000D03*
X113030000Y-95758000D03*
X115080000Y-95758000D03*
X115080000Y-93726000D03*
X113030000Y-93726000D03*
X115588000Y-98298000D03*
X113538000Y-98298000D03*
X116568000Y-104140000D03*
X118618000Y-104140000D03*
D12*
X120142000Y-92946000D03*
X120142000Y-94996000D03*
X118110000Y-94996000D03*
X118110000Y-92946000D03*
D13*
X118110000Y-97282000D03*
X120160000Y-97282000D03*
D12*
X120904000Y-103650000D03*
X120904000Y-101600000D03*
D13*
X118618000Y-106426000D03*
X116568000Y-106426000D03*
D12*
X132080000Y-105392000D03*
X132080000Y-107442000D03*
X132842000Y-97518000D03*
X132842000Y-99568000D03*
X124714000Y-97264000D03*
X124714000Y-99314000D03*
X122174000Y-97264000D03*
X122174000Y-99314000D03*
D17*
X108006000Y-99210000D03*
D18*
X102506000Y-99210000D03*
D19*
X95206000Y-99210000D03*
D12*
X122174000Y-75166000D03*
X122174000Y-77216000D03*
X124714000Y-75166000D03*
X124714000Y-77216000D03*
X132842000Y-75420000D03*
X132842000Y-77470000D03*
X132080000Y-83294000D03*
X132080000Y-85344000D03*
X120904000Y-81552000D03*
X120904000Y-79502000D03*
D13*
X115588000Y-76200000D03*
X113538000Y-76200000D03*
X115080000Y-71628000D03*
X113030000Y-71628000D03*
X118110000Y-75184000D03*
X120160000Y-75184000D03*
D12*
X118110000Y-72898000D03*
X118110000Y-70848000D03*
X120142000Y-70848000D03*
X120142000Y-72898000D03*
D13*
X113030000Y-73660000D03*
X115080000Y-73660000D03*
D16*
X107501359Y-70818013D03*
X108451359Y-70818013D03*
X109401359Y-70818013D03*
X109401359Y-73438013D03*
X107501359Y-73438013D03*
X108451359Y-73438013D03*
D13*
X116568000Y-82042000D03*
X118618000Y-82042000D03*
D14*
X100160000Y-82296000D03*
X97960000Y-81346000D03*
X97960000Y-83246000D03*
D15*
X102616000Y-82804000D03*
X108016000Y-82804000D03*
D13*
X115334000Y-80264000D03*
X113284000Y-80264000D03*
X118618000Y-84328000D03*
X116568000Y-84328000D03*
D12*
X110744000Y-80246000D03*
X110744000Y-82296000D03*
X114554000Y-84346000D03*
X114554000Y-82296000D03*
D17*
X108006000Y-77112000D03*
D18*
X102506000Y-77112000D03*
D19*
X95206000Y-77112000D03*
D13*
X148100000Y-152400000D03*
X146050000Y-152400000D03*
X148100000Y-154940000D03*
X146050000Y-154940000D03*
X152527000Y-150495000D03*
X154577000Y-150495000D03*
X149588000Y-161290000D03*
X151638000Y-161290000D03*
X149588000Y-158750000D03*
X151638000Y-158750000D03*
X146322000Y-164084000D03*
X144272000Y-164084000D03*
X161036000Y-155956000D03*
X158986000Y-155956000D03*
X161054000Y-153416000D03*
X159004000Y-153416000D03*
X156228000Y-159258000D03*
X154178000Y-159258000D03*
D12*
X174244000Y-163812000D03*
X174244000Y-165862000D03*
D13*
X174988000Y-150368000D03*
X177038000Y-150368000D03*
X173246000Y-150368000D03*
X171196000Y-150368000D03*
X174262000Y-161290000D03*
X172212000Y-161290000D03*
X198392000Y-159004000D03*
X196342000Y-159004000D03*
X191788000Y-167386000D03*
X189738000Y-167386000D03*
X200678000Y-143764000D03*
X198628000Y-143764000D03*
X212870000Y-167386000D03*
X210820000Y-167386000D03*
D12*
X216662000Y-161054000D03*
X216662000Y-159004000D03*
X132080000Y-61196000D03*
X132080000Y-63246000D03*
D13*
X141986000Y-64516000D03*
X139936000Y-64516000D03*
D12*
X141986000Y-51562000D03*
X141986000Y-53612000D03*
X132842000Y-53322000D03*
X132842000Y-55372000D03*
D13*
X115080000Y-49530000D03*
X113030000Y-49530000D03*
D12*
X124714000Y-53068000D03*
X124714000Y-55118000D03*
D13*
X115588000Y-54102000D03*
X113538000Y-54102000D03*
X115334000Y-58166000D03*
X113284000Y-58166000D03*
D12*
X114554000Y-62248000D03*
X114554000Y-60198000D03*
D20*
X192090000Y-152232000D03*
X191140000Y-154432000D03*
X193040000Y-154432000D03*
D14*
X215476000Y-154940000D03*
X213276000Y-153990000D03*
X213276000Y-155890000D03*
D17*
X188722000Y-151384000D03*
X183642000Y-151384000D03*
D21*
X162052000Y-173736000D03*
D22*
X164592000Y-173736000D03*
X167132000Y-173736000D03*
X169672000Y-173736000D03*
X172212000Y-173736000D03*
X174752000Y-173736000D03*
D21*
X149352000Y-169418000D03*
D22*
X151892000Y-169418000D03*
X154432000Y-169418000D03*
D14*
X100160000Y-60198000D03*
X97960000Y-59248000D03*
X97960000Y-61148000D03*
D12*
X141986000Y-161544000D03*
X141986000Y-159494000D03*
D13*
X144254000Y-161544000D03*
X146304000Y-161544000D03*
X174734000Y-154940000D03*
X176784000Y-154940000D03*
X169146000Y-154940000D03*
X171196000Y-154940000D03*
X180086000Y-169672000D03*
X178036000Y-169672000D03*
D23*
X201220000Y-156210000D03*
X198120000Y-156210000D03*
D13*
X143746000Y-58928000D03*
X145796000Y-58928000D03*
D12*
X120904000Y-59454000D03*
X120904000Y-57404000D03*
X120142000Y-48750000D03*
X120142000Y-50800000D03*
X118110000Y-50800000D03*
X118110000Y-48750000D03*
X122174000Y-53068000D03*
X122174000Y-55118000D03*
D13*
X118110000Y-53086000D03*
X120160000Y-53086000D03*
D12*
X110744000Y-58148000D03*
X110744000Y-60198000D03*
D13*
X118618000Y-62230000D03*
X116568000Y-62230000D03*
D15*
X102616000Y-60706000D03*
X108016000Y-60706000D03*
D13*
X116568000Y-59944000D03*
X118618000Y-59944000D03*
D24*
X164338000Y-166432000D03*
X203962000Y-151192000D03*
X207772000Y-150052000D03*
X195326000Y-151192000D03*
D25*
X192848000Y-143764000D03*
D21*
X177292000Y-147574000D03*
D22*
X174752000Y-147574000D03*
X172212000Y-147574000D03*
D17*
X108006000Y-55014000D03*
D18*
X102506000Y-55014000D03*
D19*
X95206000Y-55014000D03*
D16*
X107501359Y-48720013D03*
X108451359Y-48720013D03*
X109401359Y-48720013D03*
X109401359Y-51340013D03*
X107501359Y-51340013D03*
X108451359Y-51340013D03*
D13*
X113030000Y-51562000D03*
X115080000Y-51562000D03*
D21*
X168148000Y-167132000D03*
D22*
X168148000Y-164592000D03*
D13*
X184640000Y-167386000D03*
X186690000Y-167386000D03*
X205722000Y-167386000D03*
X207772000Y-167386000D03*
D19*
X184640000Y-171704000D03*
D17*
X184640000Y-158904000D03*
X188840000Y-158904000D03*
X193040000Y-158904000D03*
D18*
X193040000Y-164404000D03*
D17*
X188840000Y-164404000D03*
X184640000Y-164404000D03*
D19*
X193040000Y-171704000D03*
X205604000Y-171704000D03*
D17*
X205604000Y-158904000D03*
X209804000Y-158904000D03*
X214004000Y-158904000D03*
D18*
X214004000Y-164404000D03*
D17*
X209804000Y-164404000D03*
X205604000Y-164404000D03*
D19*
X214004000Y-171704000D03*
D17*
X96266000Y-48768000D03*
X101346000Y-48768000D03*
X96266000Y-70866000D03*
X101346000Y-70866000D03*
X96266000Y-92964000D03*
X101346000Y-92964000D03*
X96266000Y-115062000D03*
X101346000Y-115062000D03*
X210566000Y-128778000D03*
X205486000Y-128778000D03*
X210566000Y-106680000D03*
X205486000Y-106680000D03*
X210566000Y-84582000D03*
X205486000Y-84582000D03*
X210566000Y-62484000D03*
X205486000Y-62484000D03*
D20*
X166116000Y-137076000D03*
X165166000Y-139276000D03*
X167066000Y-139276000D03*
D13*
X167132000Y-144272000D03*
X165082000Y-144272000D03*
D17*
X108006000Y-138684000D03*
D18*
X102506000Y-138684000D03*
D19*
X95206000Y-138684000D03*
D17*
X198826000Y-138684000D03*
D18*
X204326000Y-138684000D03*
D19*
X211626000Y-138684000D03*
D24*
X183642000Y-145858000D03*
D25*
X104586000Y-150622000D03*
D11*
X93980000Y-172720000D03*
D13*
X165100000Y-141605000D03*
X167150000Y-141605000D03*
D12*
X129794000Y-143637000D03*
X129794000Y-141587000D03*
X125095000Y-143637000D03*
X125095000Y-141587000D03*
X120396000Y-143655000D03*
X120396000Y-141605000D03*
D26*
X129286000Y-158877000D03*
X162432996Y-155956000D03*
X202692000Y-135890000D03*
X107188000Y-141986000D03*
X176530000Y-159258000D03*
X207264000Y-143002000D03*
X178054000Y-156972000D03*
X171958000Y-156972000D03*
X156718000Y-167640000D03*
X144526000Y-62738000D03*
X140462000Y-52070000D03*
X165354000Y-49530000D03*
X177292000Y-167386000D03*
X140208000Y-132842000D03*
X101600000Y-157226000D03*
X100330000Y-158242000D03*
X100330000Y-153162000D03*
X113284000Y-154178000D03*
X129286000Y-156972000D03*
X143002000Y-143510000D03*
X135128000Y-143510000D03*
X202438000Y-143764000D03*
X154178000Y-148590000D03*
X157480000Y-153416000D03*
X150876000Y-156210000D03*
X154178000Y-157734000D03*
X149606000Y-152400000D03*
X160192922Y-126231140D03*
X160198873Y-104085558D03*
X163322000Y-115316000D03*
X163576000Y-93218000D03*
X163322000Y-71120000D03*
X143510000Y-84074000D03*
X143510000Y-106426000D03*
X146812000Y-51562000D03*
X146812000Y-73660000D03*
X139954000Y-74676000D03*
X139954000Y-96520000D03*
X147320000Y-95504000D03*
X139954000Y-118872000D03*
X146812000Y-117856000D03*
X166878000Y-125222000D03*
X166878000Y-103124000D03*
X166878000Y-81026000D03*
X159766000Y-82042000D03*
X166878000Y-58928000D03*
X159766000Y-59690000D03*
X162433000Y-154686000D03*
X140144501Y-170433999D03*
X148844000Y-163322000D03*
X197104000Y-143764000D03*
X152908000Y-148590000D03*
X152907992Y-157226000D03*
X157226000Y-160782000D03*
X145288000Y-150368000D03*
X147066000Y-175768000D03*
X160274004Y-163322000D03*
X163322000Y-163322000D03*
X162704889Y-130595552D03*
X148336000Y-71628000D03*
X147320000Y-92710000D03*
X146812000Y-114808000D03*
X161544000Y-108458000D03*
X160020000Y-84836000D03*
X160020000Y-62738000D03*
X148082000Y-54102000D03*
X144526000Y-152400000D03*
X141986000Y-62992000D03*
X141986000Y-85090000D03*
X141986000Y-107188000D03*
X141986000Y-129286000D03*
X164846000Y-114554000D03*
X164846000Y-92456000D03*
X164846000Y-70358000D03*
X164846000Y-48260000D03*
X144875200Y-153670000D03*
X143764000Y-160020000D03*
X146304000Y-166370000D03*
X157480000Y-154686000D03*
X134909916Y-136997084D03*
X141351000Y-137033002D03*
X108204000Y-151384000D03*
X110236000Y-151384000D03*
X174244000Y-169672000D03*
X170434000Y-161290000D03*
X202692000Y-156210000D03*
X211836000Y-156464000D03*
X191008000Y-156210000D03*
X198882000Y-154432000D03*
X210566000Y-154432000D03*
X201676000Y-154432000D03*
X141986000Y-54991000D03*
X131318000Y-55880000D03*
X112677629Y-60775978D03*
X112522000Y-62591990D03*
X111760034Y-50038000D03*
X110490000Y-56134000D03*
X111252000Y-51816000D03*
X120904000Y-55372016D03*
X116586000Y-55372000D03*
X112268000Y-59690000D03*
X150113990Y-173736000D03*
X146304000Y-173736000D03*
X151892000Y-174752000D03*
X145288000Y-172466002D03*
X155448000Y-174752000D03*
X141986000Y-171450000D03*
X174752000Y-153162000D03*
X169164000Y-153162000D03*
X181610000Y-169672000D03*
X107696000Y-52577980D03*
X101854000Y-57658000D03*
X96483813Y-61294485D03*
X151130008Y-143891000D03*
X164973000Y-149351999D03*
X152019000Y-141732000D03*
X165354000Y-148336000D03*
X151130000Y-142621000D03*
X165607998Y-147320000D03*
X107442000Y-47498000D03*
X110744000Y-61976000D03*
X140970000Y-174752000D03*
X141986000Y-58928000D03*
X131826000Y-57912000D03*
X130556000Y-59182000D03*
X119666539Y-57372866D03*
X131064000Y-57150000D03*
X129898065Y-58358567D03*
X115824000Y-48005988D03*
X120142000Y-61976024D03*
X121168583Y-52092650D03*
X130556000Y-63246000D03*
X130048000Y-52578000D03*
X126492000Y-55626000D03*
X123698000Y-48514000D03*
X130556000Y-85344000D03*
X126492000Y-77724000D03*
X123698000Y-70612000D03*
X130048000Y-74676000D03*
X141986000Y-77089000D03*
X131318000Y-77978000D03*
X111252000Y-73914000D03*
X111760034Y-72136000D03*
X112522000Y-84689990D03*
X112677629Y-82873978D03*
X110490000Y-78232000D03*
X120904000Y-77470000D03*
X117094000Y-77216000D03*
X112268000Y-81788000D03*
X130556000Y-107442000D03*
X126492000Y-99822000D03*
X130048000Y-96774000D03*
X123698000Y-92710000D03*
X141986000Y-99187000D03*
X131318000Y-100076000D03*
X111760034Y-94234000D03*
X110490000Y-100330000D03*
X111252000Y-96012000D03*
X112677629Y-104971978D03*
X112522000Y-106787990D03*
X120904000Y-99568000D03*
X117602000Y-99314000D03*
X112268000Y-103886000D03*
X107696000Y-74675980D03*
X101854000Y-79756000D03*
X96483813Y-83392485D03*
X107696000Y-96773980D03*
X101854000Y-101854000D03*
X96483813Y-105490485D03*
X107442000Y-69596000D03*
X110744000Y-84074000D03*
X107442000Y-91694000D03*
X110744000Y-106172000D03*
X141986000Y-81026000D03*
X130556000Y-81280000D03*
X131826000Y-80010000D03*
X119666539Y-79470866D03*
X129898065Y-80456567D03*
X131064000Y-79248000D03*
X115824000Y-70103988D03*
X121168583Y-74190650D03*
X120142000Y-84074024D03*
X141986000Y-103124000D03*
X131826000Y-102108000D03*
X130556000Y-103378000D03*
X119666539Y-101568866D03*
X129898065Y-102554567D03*
X131064000Y-101346000D03*
X115824000Y-92201988D03*
X121168583Y-96288650D03*
X120142000Y-106172024D03*
X90169994Y-51816000D03*
X130556000Y-61961894D03*
X119971857Y-60707765D03*
X113538000Y-55626000D03*
X99822000Y-57912000D03*
X134112000Y-52578000D03*
X128270000Y-47752000D03*
X126492000Y-53848000D03*
X123698000Y-50546000D03*
X114515987Y-48006000D03*
X116840000Y-50038000D03*
X130556000Y-84059894D03*
X119971857Y-82805765D03*
X126492000Y-75946000D03*
X90169994Y-73914000D03*
X99822000Y-80010000D03*
X116840000Y-72136000D03*
X114515987Y-70104000D03*
X113538000Y-77724000D03*
X134112000Y-74676000D03*
X128270000Y-69850000D03*
X123698000Y-72644000D03*
X113538000Y-99822000D03*
X114515987Y-92202000D03*
X130556000Y-106157894D03*
X123698000Y-94742000D03*
X126492000Y-98044000D03*
X134112000Y-96774000D03*
X99822000Y-102108000D03*
X90169994Y-96012000D03*
X116840000Y-94234000D03*
X119971857Y-104903765D03*
X128270000Y-91948000D03*
X123698000Y-116840000D03*
X114515987Y-114300000D03*
X130556000Y-128255894D03*
X134112000Y-118872000D03*
X119971857Y-127001765D03*
X116840000Y-116332000D03*
X128270000Y-114046000D03*
X126492000Y-120142000D03*
X113538000Y-121920000D03*
X99822000Y-124206000D03*
X90169994Y-118110000D03*
X130556000Y-129540000D03*
X126492000Y-121920000D03*
X123698000Y-114808000D03*
X130048000Y-118872000D03*
X141986000Y-121285000D03*
X131318000Y-122174000D03*
X112522000Y-128885990D03*
X112677629Y-127069978D03*
X110490000Y-122428000D03*
X111252000Y-118110000D03*
X111760034Y-116332000D03*
X120904000Y-121666022D03*
X117602000Y-121412000D03*
X112268000Y-125984000D03*
X176276000Y-115584106D03*
X186860143Y-116838235D03*
X180340000Y-123698000D03*
X172720000Y-124968000D03*
X189992000Y-127508000D03*
X183134000Y-127000000D03*
X178562000Y-129794000D03*
X193294000Y-121920000D03*
X216662006Y-125730000D03*
X192316013Y-129540000D03*
X207010000Y-119634000D03*
X176276000Y-114300000D03*
X180340000Y-121920000D03*
X176784000Y-124968000D03*
X183134000Y-129032000D03*
X164846000Y-122555000D03*
X175514000Y-121666000D03*
X194310000Y-114954010D03*
X196342000Y-121412000D03*
X194154371Y-116770022D03*
X195071966Y-127508000D03*
X195580000Y-125730000D03*
X185928000Y-122173990D03*
X189230000Y-122682000D03*
X194564000Y-117856000D03*
X192316013Y-107442000D03*
X189992000Y-105410000D03*
X183134000Y-104902000D03*
X176276000Y-93486106D03*
X186860143Y-94740235D03*
X193294000Y-99822000D03*
X178562000Y-107696000D03*
X180340000Y-101600000D03*
X172720000Y-102870000D03*
X216662006Y-103632000D03*
X207010000Y-97536000D03*
X183134000Y-106934000D03*
X176276000Y-92202000D03*
X180340000Y-99822000D03*
X176784000Y-102870000D03*
X164846000Y-100457000D03*
X175514000Y-99568000D03*
X194310000Y-92856010D03*
X194154371Y-94672022D03*
X195071966Y-105410000D03*
X195580000Y-103632000D03*
X196342000Y-99314000D03*
X185928000Y-100076000D03*
X189230000Y-100584000D03*
X194564000Y-95758000D03*
X189992000Y-83312000D03*
X192316013Y-85344000D03*
X183134000Y-82804000D03*
X178562000Y-85598000D03*
X172720000Y-80772000D03*
X180340000Y-79502000D03*
X176276000Y-71388106D03*
X186860143Y-72642235D03*
X193294000Y-77724000D03*
X207010000Y-75438000D03*
X216662006Y-81534000D03*
X176784000Y-80772000D03*
X183134000Y-84836000D03*
X180340000Y-77724000D03*
X176276000Y-70104000D03*
X164846000Y-78359000D03*
X175514000Y-77470000D03*
X194310000Y-70758010D03*
X196342000Y-77216000D03*
X194154371Y-72574022D03*
X195071966Y-83312000D03*
X195580000Y-81534000D03*
X189484000Y-78486000D03*
X185928000Y-78232000D03*
X194564000Y-73660000D03*
X192316013Y-63246000D03*
X193294000Y-55626000D03*
X207010000Y-53340000D03*
X216662006Y-59436000D03*
X189992000Y-61214000D03*
X183134000Y-60706000D03*
X186860143Y-50544235D03*
X180340000Y-57404000D03*
X178562000Y-63500000D03*
X172720000Y-58674000D03*
X176276000Y-49290106D03*
X183134000Y-62738000D03*
X180340000Y-55626000D03*
X176784000Y-58674000D03*
X176276000Y-48006000D03*
X164846000Y-56261000D03*
X175514000Y-55372000D03*
X195580000Y-59436000D03*
X195071966Y-61214000D03*
X194310000Y-48660010D03*
X194154371Y-50476022D03*
X196342000Y-55118000D03*
X189230000Y-56388000D03*
X185928000Y-55880000D03*
X194564000Y-51562000D03*
X107696000Y-118871980D03*
X101854000Y-123952000D03*
X96483813Y-127588485D03*
X199136000Y-124968020D03*
X204978000Y-119888000D03*
X210348187Y-116251515D03*
X199136000Y-102870020D03*
X204978000Y-97790000D03*
X210348187Y-94153515D03*
X199136000Y-80772020D03*
X204978000Y-75692000D03*
X210348187Y-72055515D03*
X199136000Y-58674020D03*
X204978000Y-53594000D03*
X210348187Y-49957515D03*
X107442000Y-113792000D03*
X110744000Y-128270000D03*
X199390000Y-130048000D03*
X196088000Y-115570000D03*
X199390000Y-107950000D03*
X196088000Y-93472000D03*
X199390000Y-85852000D03*
X196088000Y-71374000D03*
X199390000Y-63754000D03*
X196088000Y-49276000D03*
X141986000Y-125222000D03*
X131826000Y-124206000D03*
X130556000Y-125476000D03*
X119666539Y-123666866D03*
X129898065Y-124652567D03*
X131064000Y-123444000D03*
X115824000Y-114299988D03*
X121168583Y-118386650D03*
X120142000Y-128270024D03*
X164337998Y-118618000D03*
X176276000Y-118364000D03*
X175006000Y-119634000D03*
X187165461Y-120173134D03*
X176933935Y-119187433D03*
X175768000Y-120396000D03*
X191008000Y-129540012D03*
X185663417Y-125453350D03*
X186690000Y-115569976D03*
X164846000Y-96520000D03*
X176276000Y-96266000D03*
X175006000Y-97536000D03*
X187165461Y-98075134D03*
X176933935Y-97089433D03*
X175768000Y-98298000D03*
X191008000Y-107442012D03*
X185663417Y-103355350D03*
X186690000Y-93471976D03*
X164846000Y-74422000D03*
X175006000Y-75438000D03*
X176276000Y-74168000D03*
X187165461Y-75977134D03*
X175768000Y-76200000D03*
X176933935Y-74991433D03*
X191008000Y-85344012D03*
X185663417Y-81257350D03*
X186690000Y-71373976D03*
X164846000Y-52324000D03*
X175006000Y-53340000D03*
X176276000Y-52070000D03*
X187165461Y-53879134D03*
X176933935Y-52893433D03*
X175768000Y-54102000D03*
X191008000Y-63246012D03*
X185663417Y-59159350D03*
X186690000Y-49275976D03*
X106172000Y-62095998D03*
X106172000Y-60706000D03*
X106172000Y-59182000D03*
X106172000Y-82804000D03*
X106172000Y-84193998D03*
X106172000Y-81280000D03*
X106172000Y-103378000D03*
X106172000Y-106291998D03*
X106172000Y-104902000D03*
X106172000Y-128389998D03*
X106172000Y-125476000D03*
X106172000Y-127000000D03*
X200660000Y-115450002D03*
X200660000Y-118364000D03*
X200660000Y-116840000D03*
X200660000Y-96266000D03*
X200660000Y-93352002D03*
X200660000Y-94742000D03*
X200660000Y-72644000D03*
X200660000Y-74168000D03*
X200660000Y-71254002D03*
X200660000Y-52070000D03*
X200660000Y-50546000D03*
X200660000Y-49156002D03*
X116293103Y-51839637D03*
X116293103Y-73937637D03*
X116293103Y-96035637D03*
X116293103Y-118133637D03*
X190538897Y-125706363D03*
X190538897Y-103608363D03*
X190538897Y-81510363D03*
X190538897Y-59412363D03*
X163830000Y-133858000D03*
X162814000Y-66293994D03*
X161544000Y-131572000D03*
X161798000Y-115316000D03*
X163322000Y-109982000D03*
X160274000Y-109982000D03*
X159512000Y-101346000D03*
X163576000Y-87630000D03*
X143764000Y-112014000D03*
X144367200Y-90170000D03*
X144018000Y-67818000D03*
X149352000Y-47244000D03*
X146812008Y-135636000D03*
X149860000Y-60198000D03*
X147320008Y-58928000D03*
X149606000Y-58928000D03*
X149352000Y-133604000D03*
X154178000Y-124968000D03*
X152400000Y-124968000D03*
X152400011Y-102870000D03*
X154178000Y-102870000D03*
X152400000Y-80772000D03*
X154178000Y-80772000D03*
X154178000Y-58928000D03*
X152400000Y-58928000D03*
X151892000Y-129540000D03*
X151638000Y-55118000D03*
X147570071Y-131060071D03*
X149352000Y-84836000D03*
X147319988Y-81026000D03*
X148844000Y-130810000D03*
X149352008Y-82042000D03*
X148590000Y-132080000D03*
X151130000Y-77724000D03*
X147574000Y-128524000D03*
X148590000Y-106172000D03*
X147066000Y-103124000D03*
X145034000Y-130556000D03*
X148336018Y-105156000D03*
X145288000Y-131826000D03*
X149860000Y-99314000D03*
X146050000Y-128524000D03*
X147320000Y-126492000D03*
X147320000Y-125222000D03*
X144780000Y-128524000D03*
X147320000Y-121412000D03*
X156718000Y-135890000D03*
X159512000Y-117348000D03*
X159766000Y-133858000D03*
X155702000Y-135127988D03*
X158083221Y-95250000D03*
X158489632Y-96774000D03*
X160528000Y-93726000D03*
X157226000Y-133604000D03*
X158896043Y-100330000D03*
X158496004Y-133858000D03*
X157480004Y-73152000D03*
X155194000Y-130048000D03*
X157784815Y-74587887D03*
X155956000Y-130810000D03*
X159512000Y-74422000D03*
X157676810Y-78304961D03*
X156464000Y-131826000D03*
X154432000Y-128016000D03*
X154940000Y-52578000D03*
X152654000Y-131064000D03*
X156464000Y-52832000D03*
X159512000Y-52324000D03*
X153473200Y-130048000D03*
X156051221Y-56642000D03*
X159258000Y-142240000D03*
X121030994Y-148717000D03*
X123190026Y-150622000D03*
X163449000Y-159258000D03*
X168402000Y-157226000D03*
X187706000Y-143256000D03*
X189992000Y-135890000D03*
X122237500Y-148399500D03*
X122237500Y-151828500D03*
X163449000Y-160274000D03*
X168401982Y-158496000D03*
X188468000Y-142240000D03*
X191008000Y-136906000D03*
X161798000Y-150241000D03*
X168148000Y-146050000D03*
X190500000Y-140970000D03*
X193294000Y-140970000D03*
X147066000Y-144526000D03*
X167894000Y-147066000D03*
X128016000Y-141605000D03*
X131445000Y-138557000D03*
X161925000Y-151637998D03*
X123190000Y-141605000D03*
X132676543Y-138087457D03*
X156083000Y-143129000D03*
X118491000Y-141605000D03*
X133477000Y-137286996D03*
X154813002Y-142748000D03*
M02*
