G04 #@! TF.FileFunction,Soldermask,Top*
%FSLAX46Y46*%
G04 Gerber Fmt 4.6, Leading zero omitted, Abs format (unit mm)*
G04 Created by KiCad (PCBNEW 4.0.5+dfsg1-4) date Tue Aug 22 16:41:13 2017*
%MOMM*%
%LPD*%
G01*
G04 APERTURE LIST*
%ADD10C,0.100000*%
%ADD11C,4.000000*%
%ADD12R,3.000000X1.700000*%
%ADD13R,1.400000X1.500000*%
%ADD14R,1.400000X1.000000*%
%ADD15R,0.620000X1.220000*%
%ADD16R,1.500000X1.400000*%
%ADD17C,2.500000*%
%ADD18R,2.500000X2.500000*%
%ADD19C,3.508000*%
%ADD20R,1.500000X0.550000*%
%ADD21R,1.000000X1.500000*%
%ADD22R,2.000000X0.750000*%
%ADD23R,1.000000X0.600000*%
%ADD24R,1.000000X1.000000*%
%ADD25R,2.000000X2.000000*%
%ADD26C,2.000000*%
%ADD27R,2.000000X1.300000*%
%ADD28R,2.000000X4.000000*%
%ADD29R,4.000000X2.000000*%
%ADD30R,1.000000X2.250000*%
%ADD31R,3.500000X2.250000*%
%ADD32R,0.750000X2.000000*%
%ADD33R,2.000000X1.600000*%
%ADD34R,2.500000X6.600000*%
%ADD35C,0.800000*%
G04 APERTURE END LIST*
D10*
D11*
X213360000Y-148844000D03*
X213360000Y-43180000D03*
X93980000Y-43180000D03*
D12*
X142060000Y-50546000D03*
X142060000Y-48006000D03*
X132260000Y-48006000D03*
X132260000Y-50546000D03*
D10*
G36*
X145956024Y-155106544D02*
X147016684Y-154045884D01*
X147228816Y-154258016D01*
X146168156Y-155318676D01*
X145956024Y-155106544D01*
X145956024Y-155106544D01*
G37*
G36*
X146309577Y-155460097D02*
X147370237Y-154399437D01*
X147582369Y-154611569D01*
X146521709Y-155672229D01*
X146309577Y-155460097D01*
X146309577Y-155460097D01*
G37*
G36*
X146663130Y-155813650D02*
X147723790Y-154752990D01*
X147935922Y-154965122D01*
X146875262Y-156025782D01*
X146663130Y-155813650D01*
X146663130Y-155813650D01*
G37*
G36*
X147016684Y-156167204D02*
X148077344Y-155106544D01*
X148289476Y-155318676D01*
X147228816Y-156379336D01*
X147016684Y-156167204D01*
X147016684Y-156167204D01*
G37*
G36*
X147370237Y-156520757D02*
X148430897Y-155460097D01*
X148643029Y-155672229D01*
X147582369Y-156732889D01*
X147370237Y-156520757D01*
X147370237Y-156520757D01*
G37*
G36*
X147723791Y-156874311D02*
X148784451Y-155813651D01*
X148996583Y-156025783D01*
X147935923Y-157086443D01*
X147723791Y-156874311D01*
X147723791Y-156874311D01*
G37*
G36*
X148077344Y-157227864D02*
X149138004Y-156167204D01*
X149350136Y-156379336D01*
X148289476Y-157439996D01*
X148077344Y-157227864D01*
X148077344Y-157227864D01*
G37*
G36*
X148430897Y-157581417D02*
X149491557Y-156520757D01*
X149703689Y-156732889D01*
X148643029Y-157793549D01*
X148430897Y-157581417D01*
X148430897Y-157581417D01*
G37*
G36*
X148784451Y-157934971D02*
X149845111Y-156874311D01*
X150057243Y-157086443D01*
X148996583Y-158147103D01*
X148784451Y-157934971D01*
X148784451Y-157934971D01*
G37*
G36*
X149138004Y-158288524D02*
X150198664Y-157227864D01*
X150410796Y-157439996D01*
X149350136Y-158500656D01*
X149138004Y-158288524D01*
X149138004Y-158288524D01*
G37*
G36*
X149491557Y-158642077D02*
X150552217Y-157581417D01*
X150764349Y-157793549D01*
X149703689Y-158854209D01*
X149491557Y-158642077D01*
X149491557Y-158642077D01*
G37*
G36*
X149845111Y-158995631D02*
X150905771Y-157934971D01*
X151117903Y-158147103D01*
X150057243Y-159207763D01*
X149845111Y-158995631D01*
X149845111Y-158995631D01*
G37*
G36*
X150198664Y-159349184D02*
X151259324Y-158288524D01*
X151471456Y-158500656D01*
X150410796Y-159561316D01*
X150198664Y-159349184D01*
X150198664Y-159349184D01*
G37*
G36*
X150552218Y-159702738D02*
X151612878Y-158642078D01*
X151825010Y-158854210D01*
X150764350Y-159914870D01*
X150552218Y-159702738D01*
X150552218Y-159702738D01*
G37*
G36*
X150905771Y-160056291D02*
X151966431Y-158995631D01*
X152178563Y-159207763D01*
X151117903Y-160268423D01*
X150905771Y-160056291D01*
X150905771Y-160056291D01*
G37*
G36*
X151259324Y-160409844D02*
X152319984Y-159349184D01*
X152532116Y-159561316D01*
X151471456Y-160621976D01*
X151259324Y-160409844D01*
X151259324Y-160409844D01*
G37*
G36*
X159249631Y-151712431D02*
X160310291Y-150651771D01*
X160522423Y-150863903D01*
X159461763Y-151924563D01*
X159249631Y-151712431D01*
X159249631Y-151712431D01*
G37*
G36*
X158896078Y-151358878D02*
X159956738Y-150298218D01*
X160168870Y-150510350D01*
X159108210Y-151571010D01*
X158896078Y-151358878D01*
X158896078Y-151358878D01*
G37*
G36*
X158542524Y-151005324D02*
X159603184Y-149944664D01*
X159815316Y-150156796D01*
X158754656Y-151217456D01*
X158542524Y-151005324D01*
X158542524Y-151005324D01*
G37*
G36*
X158188971Y-150651771D02*
X159249631Y-149591111D01*
X159461763Y-149803243D01*
X158401103Y-150863903D01*
X158188971Y-150651771D01*
X158188971Y-150651771D01*
G37*
G36*
X157835417Y-150298217D02*
X158896077Y-149237557D01*
X159108209Y-149449689D01*
X158047549Y-150510349D01*
X157835417Y-150298217D01*
X157835417Y-150298217D01*
G37*
G36*
X157481864Y-149944664D02*
X158542524Y-148884004D01*
X158754656Y-149096136D01*
X157693996Y-150156796D01*
X157481864Y-149944664D01*
X157481864Y-149944664D01*
G37*
G36*
X157128311Y-149591111D02*
X158188971Y-148530451D01*
X158401103Y-148742583D01*
X157340443Y-149803243D01*
X157128311Y-149591111D01*
X157128311Y-149591111D01*
G37*
G36*
X156774757Y-149237557D02*
X157835417Y-148176897D01*
X158047549Y-148389029D01*
X156986889Y-149449689D01*
X156774757Y-149237557D01*
X156774757Y-149237557D01*
G37*
G36*
X156421204Y-148884004D02*
X157481864Y-147823344D01*
X157693996Y-148035476D01*
X156633336Y-149096136D01*
X156421204Y-148884004D01*
X156421204Y-148884004D01*
G37*
G36*
X156067651Y-148530451D02*
X157128311Y-147469791D01*
X157340443Y-147681923D01*
X156279783Y-148742583D01*
X156067651Y-148530451D01*
X156067651Y-148530451D01*
G37*
G36*
X155714097Y-148176897D02*
X156774757Y-147116237D01*
X156986889Y-147328369D01*
X155926229Y-148389029D01*
X155714097Y-148176897D01*
X155714097Y-148176897D01*
G37*
G36*
X155360544Y-147823344D02*
X156421204Y-146762684D01*
X156633336Y-146974816D01*
X155572676Y-148035476D01*
X155360544Y-147823344D01*
X155360544Y-147823344D01*
G37*
G36*
X155006990Y-147469790D02*
X156067650Y-146409130D01*
X156279782Y-146621262D01*
X155219122Y-147681922D01*
X155006990Y-147469790D01*
X155006990Y-147469790D01*
G37*
G36*
X154653437Y-147116237D02*
X155714097Y-146055577D01*
X155926229Y-146267709D01*
X154865569Y-147328369D01*
X154653437Y-147116237D01*
X154653437Y-147116237D01*
G37*
G36*
X154299884Y-146762684D02*
X155360544Y-145702024D01*
X155572676Y-145914156D01*
X154512016Y-146974816D01*
X154299884Y-146762684D01*
X154299884Y-146762684D01*
G37*
G36*
X159603184Y-152065984D02*
X160663844Y-151005324D01*
X160875976Y-151217456D01*
X159815316Y-152278116D01*
X159603184Y-152065984D01*
X159603184Y-152065984D01*
G37*
G36*
X154299884Y-159561316D02*
X154512016Y-159349184D01*
X155572676Y-160409844D01*
X155360544Y-160621976D01*
X154299884Y-159561316D01*
X154299884Y-159561316D01*
G37*
G36*
X154653437Y-159207763D02*
X154865569Y-158995631D01*
X155926229Y-160056291D01*
X155714097Y-160268423D01*
X154653437Y-159207763D01*
X154653437Y-159207763D01*
G37*
G36*
X155006990Y-158854210D02*
X155219122Y-158642078D01*
X156279782Y-159702738D01*
X156067650Y-159914870D01*
X155006990Y-158854210D01*
X155006990Y-158854210D01*
G37*
G36*
X155360544Y-158500656D02*
X155572676Y-158288524D01*
X156633336Y-159349184D01*
X156421204Y-159561316D01*
X155360544Y-158500656D01*
X155360544Y-158500656D01*
G37*
G36*
X155714097Y-158147103D02*
X155926229Y-157934971D01*
X156986889Y-158995631D01*
X156774757Y-159207763D01*
X155714097Y-158147103D01*
X155714097Y-158147103D01*
G37*
G36*
X156067651Y-157793549D02*
X156279783Y-157581417D01*
X157340443Y-158642077D01*
X157128311Y-158854209D01*
X156067651Y-157793549D01*
X156067651Y-157793549D01*
G37*
G36*
X156421204Y-157439996D02*
X156633336Y-157227864D01*
X157693996Y-158288524D01*
X157481864Y-158500656D01*
X156421204Y-157439996D01*
X156421204Y-157439996D01*
G37*
G36*
X156774757Y-157086443D02*
X156986889Y-156874311D01*
X158047549Y-157934971D01*
X157835417Y-158147103D01*
X156774757Y-157086443D01*
X156774757Y-157086443D01*
G37*
G36*
X157128311Y-156732889D02*
X157340443Y-156520757D01*
X158401103Y-157581417D01*
X158188971Y-157793549D01*
X157128311Y-156732889D01*
X157128311Y-156732889D01*
G37*
G36*
X157481864Y-156379336D02*
X157693996Y-156167204D01*
X158754656Y-157227864D01*
X158542524Y-157439996D01*
X157481864Y-156379336D01*
X157481864Y-156379336D01*
G37*
G36*
X157835417Y-156025783D02*
X158047549Y-155813651D01*
X159108209Y-156874311D01*
X158896077Y-157086443D01*
X157835417Y-156025783D01*
X157835417Y-156025783D01*
G37*
G36*
X158188971Y-155672229D02*
X158401103Y-155460097D01*
X159461763Y-156520757D01*
X159249631Y-156732889D01*
X158188971Y-155672229D01*
X158188971Y-155672229D01*
G37*
G36*
X158542524Y-155318676D02*
X158754656Y-155106544D01*
X159815316Y-156167204D01*
X159603184Y-156379336D01*
X158542524Y-155318676D01*
X158542524Y-155318676D01*
G37*
G36*
X158896078Y-154965122D02*
X159108210Y-154752990D01*
X160168870Y-155813650D01*
X159956738Y-156025782D01*
X158896078Y-154965122D01*
X158896078Y-154965122D01*
G37*
G36*
X159249631Y-154611569D02*
X159461763Y-154399437D01*
X160522423Y-155460097D01*
X160310291Y-155672229D01*
X159249631Y-154611569D01*
X159249631Y-154611569D01*
G37*
G36*
X159603184Y-154258016D02*
X159815316Y-154045884D01*
X160875976Y-155106544D01*
X160663844Y-155318676D01*
X159603184Y-154258016D01*
X159603184Y-154258016D01*
G37*
G36*
X151259324Y-145914156D02*
X151471456Y-145702024D01*
X152532116Y-146762684D01*
X152319984Y-146974816D01*
X151259324Y-145914156D01*
X151259324Y-145914156D01*
G37*
G36*
X150905771Y-146267709D02*
X151117903Y-146055577D01*
X152178563Y-147116237D01*
X151966431Y-147328369D01*
X150905771Y-146267709D01*
X150905771Y-146267709D01*
G37*
G36*
X150552218Y-146621262D02*
X150764350Y-146409130D01*
X151825010Y-147469790D01*
X151612878Y-147681922D01*
X150552218Y-146621262D01*
X150552218Y-146621262D01*
G37*
G36*
X150198664Y-146974816D02*
X150410796Y-146762684D01*
X151471456Y-147823344D01*
X151259324Y-148035476D01*
X150198664Y-146974816D01*
X150198664Y-146974816D01*
G37*
G36*
X149845111Y-147328369D02*
X150057243Y-147116237D01*
X151117903Y-148176897D01*
X150905771Y-148389029D01*
X149845111Y-147328369D01*
X149845111Y-147328369D01*
G37*
G36*
X149491557Y-147681923D02*
X149703689Y-147469791D01*
X150764349Y-148530451D01*
X150552217Y-148742583D01*
X149491557Y-147681923D01*
X149491557Y-147681923D01*
G37*
G36*
X149138004Y-148035476D02*
X149350136Y-147823344D01*
X150410796Y-148884004D01*
X150198664Y-149096136D01*
X149138004Y-148035476D01*
X149138004Y-148035476D01*
G37*
G36*
X148784451Y-148389029D02*
X148996583Y-148176897D01*
X150057243Y-149237557D01*
X149845111Y-149449689D01*
X148784451Y-148389029D01*
X148784451Y-148389029D01*
G37*
G36*
X148430897Y-148742583D02*
X148643029Y-148530451D01*
X149703689Y-149591111D01*
X149491557Y-149803243D01*
X148430897Y-148742583D01*
X148430897Y-148742583D01*
G37*
G36*
X148077344Y-149096136D02*
X148289476Y-148884004D01*
X149350136Y-149944664D01*
X149138004Y-150156796D01*
X148077344Y-149096136D01*
X148077344Y-149096136D01*
G37*
G36*
X147723791Y-149449689D02*
X147935923Y-149237557D01*
X148996583Y-150298217D01*
X148784451Y-150510349D01*
X147723791Y-149449689D01*
X147723791Y-149449689D01*
G37*
G36*
X147370237Y-149803243D02*
X147582369Y-149591111D01*
X148643029Y-150651771D01*
X148430897Y-150863903D01*
X147370237Y-149803243D01*
X147370237Y-149803243D01*
G37*
G36*
X147016684Y-150156796D02*
X147228816Y-149944664D01*
X148289476Y-151005324D01*
X148077344Y-151217456D01*
X147016684Y-150156796D01*
X147016684Y-150156796D01*
G37*
G36*
X146663130Y-150510350D02*
X146875262Y-150298218D01*
X147935922Y-151358878D01*
X147723790Y-151571010D01*
X146663130Y-150510350D01*
X146663130Y-150510350D01*
G37*
G36*
X146309577Y-150863903D02*
X146521709Y-150651771D01*
X147582369Y-151712431D01*
X147370237Y-151924563D01*
X146309577Y-150863903D01*
X146309577Y-150863903D01*
G37*
G36*
X145956024Y-151217456D02*
X146168156Y-151005324D01*
X147228816Y-152065984D01*
X147016684Y-152278116D01*
X145956024Y-151217456D01*
X145956024Y-151217456D01*
G37*
D13*
X155194000Y-55118000D03*
X153144000Y-55118000D03*
X163068000Y-51054000D03*
X161018000Y-51054000D03*
X163086000Y-53594000D03*
X161036000Y-53594000D03*
X161018000Y-58420000D03*
X163068000Y-58420000D03*
X163068000Y-56134000D03*
X161018000Y-56134000D03*
X155194000Y-76962000D03*
X153144000Y-76962000D03*
X163068000Y-73152000D03*
X161018000Y-73152000D03*
X163068000Y-78232000D03*
X161018000Y-78232000D03*
X161018000Y-80518000D03*
X163068000Y-80518000D03*
X163086000Y-75692000D03*
X161036000Y-75692000D03*
X155212000Y-99060000D03*
X153162000Y-99060000D03*
X163068000Y-95250000D03*
X161018000Y-95250000D03*
X161018000Y-102616000D03*
X163068000Y-102616000D03*
X163086000Y-97790000D03*
X161036000Y-97790000D03*
X163068000Y-100330000D03*
X161018000Y-100330000D03*
X155194000Y-121158000D03*
X153144000Y-121158000D03*
X163068000Y-117348000D03*
X161018000Y-117348000D03*
X163068000Y-122428000D03*
X161018000Y-122428000D03*
X163086000Y-119888000D03*
X161036000Y-119888000D03*
X161018000Y-124714000D03*
X163068000Y-124714000D03*
X151112000Y-123444000D03*
X153162000Y-123444000D03*
X143764000Y-126492000D03*
X145814000Y-126492000D03*
X143764000Y-121412000D03*
X145814000Y-121412000D03*
X145814000Y-119126000D03*
X143764000Y-119126000D03*
X143746000Y-123952000D03*
X145796000Y-123952000D03*
X151130000Y-101346000D03*
X153180000Y-101346000D03*
X145814000Y-97028000D03*
X143764000Y-97028000D03*
X143764000Y-104394000D03*
X145814000Y-104394000D03*
X143764000Y-99314000D03*
X145814000Y-99314000D03*
X143746000Y-101854000D03*
X145796000Y-101854000D03*
X151130000Y-79248000D03*
X153180000Y-79248000D03*
X143764000Y-82296000D03*
X145814000Y-82296000D03*
X145814000Y-74930000D03*
X143764000Y-74930000D03*
X143764000Y-77216000D03*
X145814000Y-77216000D03*
X143746000Y-79756000D03*
X145796000Y-79756000D03*
D14*
X209380000Y-51054000D03*
X207180000Y-52004000D03*
X207180000Y-50104000D03*
D15*
X196982000Y-53420000D03*
X197932000Y-53420000D03*
X198882000Y-53420000D03*
X198882000Y-50800000D03*
X196982000Y-50800000D03*
X197932000Y-50800000D03*
D13*
X200896000Y-53340000D03*
X202946000Y-53340000D03*
D16*
X194818000Y-55136000D03*
X194818000Y-53086000D03*
D13*
X204978000Y-51054000D03*
X202928000Y-51054000D03*
X200134000Y-47752000D03*
X202184000Y-47752000D03*
D17*
X198826000Y-56238000D03*
D18*
X204326000Y-56238000D03*
D19*
X211626000Y-56238000D03*
D15*
X199462641Y-62531987D03*
X200412641Y-62531987D03*
X201362641Y-62531987D03*
X201362641Y-59911987D03*
X199462641Y-59911987D03*
X200412641Y-59911987D03*
D16*
X197176641Y-59911987D03*
X197176641Y-61961987D03*
X214122000Y-62738000D03*
X214122000Y-60688000D03*
X216662000Y-62756000D03*
X216662000Y-60706000D03*
X184658000Y-60688000D03*
X184658000Y-62738000D03*
D20*
X194136000Y-62164000D03*
X194136000Y-60264000D03*
X191436000Y-60264000D03*
X191436000Y-62164000D03*
X191436000Y-61214000D03*
D21*
X189484000Y-62764000D03*
X189484000Y-59664000D03*
D16*
X186944000Y-60688000D03*
X186944000Y-62738000D03*
D21*
X177292000Y-60426000D03*
X177292000Y-63526000D03*
D13*
X180340000Y-52324000D03*
X178290000Y-52324000D03*
D22*
X172372000Y-48641000D03*
X172372000Y-49911000D03*
X172372000Y-51181000D03*
X172372000Y-52451000D03*
X172372000Y-53721000D03*
X172372000Y-54991000D03*
X172372000Y-56261000D03*
X172372000Y-57531000D03*
X166972000Y-53721000D03*
X166972000Y-54991000D03*
X166972000Y-56261000D03*
X166972000Y-57531000D03*
X166972000Y-52451000D03*
X166972000Y-51181000D03*
X166972000Y-49911000D03*
X166972000Y-48641000D03*
D12*
X164772000Y-60706000D03*
X164772000Y-63246000D03*
X174572000Y-63246000D03*
X174572000Y-60706000D03*
D13*
X174988000Y-56642000D03*
X177038000Y-56642000D03*
D16*
X161544000Y-60688000D03*
X161544000Y-62738000D03*
X187198000Y-58692000D03*
X187198000Y-56642000D03*
D23*
X190584000Y-50688000D03*
X190584000Y-49388000D03*
D24*
X188384000Y-50538000D03*
D23*
X188384000Y-49388000D03*
D13*
X191244000Y-57150000D03*
X193294000Y-57150000D03*
D20*
X184484000Y-58354000D03*
X184484000Y-56454000D03*
X181784000Y-56454000D03*
X181784000Y-58354000D03*
X181784000Y-57404000D03*
D13*
X184422000Y-53848000D03*
X182372000Y-53848000D03*
X184422000Y-51054000D03*
X182372000Y-51054000D03*
D20*
X188388000Y-53152000D03*
X188388000Y-54102000D03*
X188388000Y-55052000D03*
X191088000Y-55052000D03*
X191088000Y-53152000D03*
X191088000Y-54102000D03*
D13*
X204978000Y-73152000D03*
X202928000Y-73152000D03*
X200896000Y-75438000D03*
X202946000Y-75438000D03*
D15*
X196982000Y-75518000D03*
X197932000Y-75518000D03*
X198882000Y-75518000D03*
X198882000Y-72898000D03*
X196982000Y-72898000D03*
X197932000Y-72898000D03*
X199462641Y-84629987D03*
X200412641Y-84629987D03*
X201362641Y-84629987D03*
X201362641Y-82009987D03*
X199462641Y-82009987D03*
X200412641Y-82009987D03*
D16*
X197176641Y-82009987D03*
X197176641Y-84059987D03*
D13*
X184422000Y-73152000D03*
X182372000Y-73152000D03*
X184422000Y-75946000D03*
X182372000Y-75946000D03*
D20*
X184484000Y-80452000D03*
X184484000Y-78552000D03*
X181784000Y-78552000D03*
X181784000Y-80452000D03*
X181784000Y-79502000D03*
X188388000Y-75250000D03*
X188388000Y-76200000D03*
X188388000Y-77150000D03*
X191088000Y-77150000D03*
X191088000Y-75250000D03*
X191088000Y-76200000D03*
D16*
X194818000Y-77234000D03*
X194818000Y-75184000D03*
D13*
X191244000Y-79248000D03*
X193294000Y-79248000D03*
D23*
X190584000Y-72786000D03*
X190584000Y-71486000D03*
D24*
X188384000Y-72636000D03*
D23*
X188384000Y-71486000D03*
D16*
X187198000Y-80790000D03*
X187198000Y-78740000D03*
X186944000Y-82786000D03*
X186944000Y-84836000D03*
D20*
X194136000Y-84262000D03*
X194136000Y-82362000D03*
X191436000Y-82362000D03*
X191436000Y-84262000D03*
X191436000Y-83312000D03*
D16*
X184658000Y-82786000D03*
X184658000Y-84836000D03*
D21*
X189484000Y-84862000D03*
X189484000Y-81762000D03*
D13*
X174988000Y-78740000D03*
X177038000Y-78740000D03*
D12*
X164772000Y-82804000D03*
X164772000Y-85344000D03*
X174572000Y-85344000D03*
X174572000Y-82804000D03*
D22*
X172372000Y-70739000D03*
X172372000Y-72009000D03*
X172372000Y-73279000D03*
X172372000Y-74549000D03*
X172372000Y-75819000D03*
X172372000Y-77089000D03*
X172372000Y-78359000D03*
X172372000Y-79629000D03*
X166972000Y-75819000D03*
X166972000Y-77089000D03*
X166972000Y-78359000D03*
X166972000Y-79629000D03*
X166972000Y-74549000D03*
X166972000Y-73279000D03*
X166972000Y-72009000D03*
X166972000Y-70739000D03*
D13*
X180340000Y-74422000D03*
X178290000Y-74422000D03*
D16*
X161544000Y-82786000D03*
X161544000Y-84836000D03*
D21*
X177292000Y-82524000D03*
X177292000Y-85624000D03*
D13*
X200134000Y-69850000D03*
X202184000Y-69850000D03*
D14*
X209380000Y-73152000D03*
X207180000Y-74102000D03*
X207180000Y-72202000D03*
D16*
X216662000Y-84854000D03*
X216662000Y-82804000D03*
X214122000Y-84836000D03*
X214122000Y-82786000D03*
D17*
X198826000Y-78336000D03*
D18*
X204326000Y-78336000D03*
D19*
X211626000Y-78336000D03*
D16*
X197176641Y-104107987D03*
X197176641Y-106157987D03*
D15*
X199462641Y-106727987D03*
X200412641Y-106727987D03*
X201362641Y-106727987D03*
X201362641Y-104107987D03*
X199462641Y-104107987D03*
X200412641Y-104107987D03*
D17*
X198826000Y-100434000D03*
D18*
X204326000Y-100434000D03*
D19*
X211626000Y-100434000D03*
D16*
X214122000Y-106934000D03*
X214122000Y-104884000D03*
X216662000Y-106952000D03*
X216662000Y-104902000D03*
D14*
X209380000Y-95250000D03*
X207180000Y-96200000D03*
X207180000Y-94300000D03*
D20*
X194136000Y-106360000D03*
X194136000Y-104460000D03*
X191436000Y-104460000D03*
X191436000Y-106360000D03*
X191436000Y-105410000D03*
D16*
X186944000Y-104884000D03*
X186944000Y-106934000D03*
X184658000Y-104884000D03*
X184658000Y-106934000D03*
D21*
X189484000Y-106960000D03*
X189484000Y-103860000D03*
D13*
X191244000Y-101346000D03*
X193294000Y-101346000D03*
D16*
X194818000Y-99332000D03*
X194818000Y-97282000D03*
D23*
X190584000Y-94884000D03*
X190584000Y-93584000D03*
D24*
X188384000Y-94734000D03*
D23*
X188384000Y-93584000D03*
D20*
X188388000Y-97348000D03*
X188388000Y-98298000D03*
X188388000Y-99248000D03*
X191088000Y-99248000D03*
X191088000Y-97348000D03*
X191088000Y-98298000D03*
D16*
X187198000Y-102888000D03*
X187198000Y-100838000D03*
D21*
X177292000Y-104622000D03*
X177292000Y-107722000D03*
D16*
X161544000Y-104884000D03*
X161544000Y-106934000D03*
D12*
X164772000Y-104902000D03*
X164772000Y-107442000D03*
X174572000Y-107442000D03*
X174572000Y-104902000D03*
D13*
X184422000Y-98044000D03*
X182372000Y-98044000D03*
D20*
X184484000Y-102550000D03*
X184484000Y-100650000D03*
X181784000Y-100650000D03*
X181784000Y-102550000D03*
X181784000Y-101600000D03*
D13*
X180340000Y-96520000D03*
X178290000Y-96520000D03*
D22*
X172372000Y-92837000D03*
X172372000Y-94107000D03*
X172372000Y-95377000D03*
X172372000Y-96647000D03*
X172372000Y-97917000D03*
X172372000Y-99187000D03*
X172372000Y-100457000D03*
X172372000Y-101727000D03*
X166972000Y-97917000D03*
X166972000Y-99187000D03*
X166972000Y-100457000D03*
X166972000Y-101727000D03*
X166972000Y-96647000D03*
X166972000Y-95377000D03*
X166972000Y-94107000D03*
X166972000Y-92837000D03*
D13*
X174988000Y-100838000D03*
X177038000Y-100838000D03*
X184422000Y-95250000D03*
X182372000Y-95250000D03*
X204978000Y-95250000D03*
X202928000Y-95250000D03*
D15*
X196982000Y-97616000D03*
X197932000Y-97616000D03*
X198882000Y-97616000D03*
X198882000Y-94996000D03*
X196982000Y-94996000D03*
X197932000Y-94996000D03*
D13*
X200896000Y-97536000D03*
X202946000Y-97536000D03*
X200134000Y-91948000D03*
X202184000Y-91948000D03*
X191244000Y-123444000D03*
X193294000Y-123444000D03*
D20*
X194136000Y-128458000D03*
X194136000Y-126558000D03*
X191436000Y-126558000D03*
X191436000Y-128458000D03*
X191436000Y-127508000D03*
D21*
X189484000Y-129058000D03*
X189484000Y-125958000D03*
D16*
X194818000Y-121430000D03*
X194818000Y-119380000D03*
D23*
X190584000Y-116982000D03*
X190584000Y-115682000D03*
D24*
X188384000Y-116832000D03*
D23*
X188384000Y-115682000D03*
D16*
X197176641Y-126205987D03*
X197176641Y-128255987D03*
D15*
X199462641Y-128825987D03*
X200412641Y-128825987D03*
X201362641Y-128825987D03*
X201362641Y-126205987D03*
X199462641Y-126205987D03*
X200412641Y-126205987D03*
D16*
X216662000Y-129050000D03*
X216662000Y-127000000D03*
X214122000Y-129050000D03*
X214122000Y-127000000D03*
D17*
X198826000Y-122532000D03*
D18*
X204326000Y-122532000D03*
D19*
X211626000Y-122532000D03*
D15*
X196982000Y-119714000D03*
X197932000Y-119714000D03*
X198882000Y-119714000D03*
X198882000Y-117094000D03*
X196982000Y-117094000D03*
X197932000Y-117094000D03*
D13*
X204978000Y-117348000D03*
X202928000Y-117348000D03*
X200896000Y-119634000D03*
X202946000Y-119634000D03*
X200134000Y-114046000D03*
X202184000Y-114046000D03*
D14*
X209380000Y-117348000D03*
X207180000Y-118298000D03*
X207180000Y-116398000D03*
D20*
X188388000Y-119446000D03*
X188388000Y-120396000D03*
X188388000Y-121346000D03*
X191088000Y-121346000D03*
X191088000Y-119446000D03*
X191088000Y-120396000D03*
D16*
X187198000Y-124986000D03*
X187198000Y-122936000D03*
X186944000Y-126982000D03*
X186944000Y-129032000D03*
D13*
X184422000Y-120142000D03*
X182372000Y-120142000D03*
D16*
X184658000Y-126982000D03*
X184658000Y-129032000D03*
D21*
X177292000Y-126720000D03*
X177292000Y-129820000D03*
D12*
X164772000Y-127000000D03*
X164772000Y-129540000D03*
X174572000Y-129540000D03*
X174572000Y-127000000D03*
D16*
X161544000Y-126982000D03*
X161544000Y-129032000D03*
D13*
X174988000Y-122936000D03*
X177038000Y-122936000D03*
X184422000Y-117348000D03*
X182372000Y-117348000D03*
D22*
X172372000Y-114935000D03*
X172372000Y-116205000D03*
X172372000Y-117475000D03*
X172372000Y-118745000D03*
X172372000Y-120015000D03*
X172372000Y-121285000D03*
X172372000Y-122555000D03*
X172372000Y-123825000D03*
X166972000Y-120015000D03*
X166972000Y-121285000D03*
X166972000Y-122555000D03*
X166972000Y-123825000D03*
X166972000Y-118745000D03*
X166972000Y-117475000D03*
X166972000Y-116205000D03*
X166972000Y-114935000D03*
D13*
X180340000Y-118618000D03*
X178290000Y-118618000D03*
D20*
X184484000Y-124648000D03*
X184484000Y-122748000D03*
X181784000Y-122748000D03*
X181784000Y-124648000D03*
X181784000Y-123698000D03*
D17*
X108006000Y-121308000D03*
D18*
X102506000Y-121308000D03*
D19*
X95206000Y-121308000D03*
D16*
X92710000Y-114790000D03*
X92710000Y-116840000D03*
X90170000Y-114790000D03*
X90170000Y-116840000D03*
D13*
X106698000Y-129794000D03*
X104648000Y-129794000D03*
X105936000Y-124206000D03*
X103886000Y-124206000D03*
X101854000Y-126492000D03*
X103904000Y-126492000D03*
D14*
X97452000Y-126492000D03*
X99652000Y-125542000D03*
X99652000Y-127442000D03*
D15*
X109850000Y-124126000D03*
X108900000Y-124126000D03*
X107950000Y-124126000D03*
X107950000Y-126746000D03*
X109850000Y-126746000D03*
X108900000Y-126746000D03*
X107369359Y-115014013D03*
X106419359Y-115014013D03*
X105469359Y-115014013D03*
X105469359Y-117634013D03*
X107369359Y-117634013D03*
X106419359Y-117634013D03*
D20*
X112696000Y-115382000D03*
X112696000Y-117282000D03*
X115396000Y-117282000D03*
X115396000Y-115382000D03*
X115396000Y-116332000D03*
D16*
X112014000Y-122410000D03*
X112014000Y-124460000D03*
D13*
X115588000Y-120396000D03*
X113538000Y-120396000D03*
D16*
X109655359Y-117634013D03*
X109655359Y-115584013D03*
D21*
X117348000Y-114782000D03*
X117348000Y-117882000D03*
D16*
X119634000Y-118854000D03*
X119634000Y-120904000D03*
X119888000Y-116858000D03*
X119888000Y-114808000D03*
X122174000Y-116858000D03*
X122174000Y-114808000D03*
D23*
X116248000Y-126858000D03*
X116248000Y-128158000D03*
D24*
X118448000Y-127008000D03*
D23*
X118448000Y-128158000D03*
D13*
X122410000Y-123698000D03*
X124460000Y-123698000D03*
D20*
X122348000Y-119192000D03*
X122348000Y-121092000D03*
X125048000Y-121092000D03*
X125048000Y-119192000D03*
X125048000Y-120142000D03*
D13*
X126492000Y-125222000D03*
X128542000Y-125222000D03*
X122410000Y-126492000D03*
X124460000Y-126492000D03*
D20*
X118444000Y-124394000D03*
X118444000Y-123444000D03*
X118444000Y-122494000D03*
X115744000Y-122494000D03*
X115744000Y-124394000D03*
X115744000Y-123444000D03*
D22*
X134460000Y-128905000D03*
X134460000Y-127635000D03*
X134460000Y-126365000D03*
X134460000Y-125095000D03*
X134460000Y-123825000D03*
X134460000Y-122555000D03*
X134460000Y-121285000D03*
X134460000Y-120015000D03*
X139860000Y-123825000D03*
X139860000Y-122555000D03*
X139860000Y-121285000D03*
X139860000Y-120015000D03*
X139860000Y-125095000D03*
X139860000Y-126365000D03*
X139860000Y-127635000D03*
X139860000Y-128905000D03*
D12*
X142060000Y-116840000D03*
X142060000Y-114300000D03*
X132260000Y-114300000D03*
X132260000Y-116840000D03*
D13*
X131844000Y-120904000D03*
X129794000Y-120904000D03*
D21*
X129540000Y-117120000D03*
X129540000Y-114020000D03*
D16*
X145288000Y-116858000D03*
X145288000Y-114808000D03*
D21*
X129540000Y-95022000D03*
X129540000Y-91922000D03*
D13*
X131844000Y-98806000D03*
X129794000Y-98806000D03*
D12*
X142060000Y-94742000D03*
X142060000Y-92202000D03*
X132260000Y-92202000D03*
X132260000Y-94742000D03*
D22*
X134460000Y-106807000D03*
X134460000Y-105537000D03*
X134460000Y-104267000D03*
X134460000Y-102997000D03*
X134460000Y-101727000D03*
X134460000Y-100457000D03*
X134460000Y-99187000D03*
X134460000Y-97917000D03*
X139860000Y-101727000D03*
X139860000Y-100457000D03*
X139860000Y-99187000D03*
X139860000Y-97917000D03*
X139860000Y-102997000D03*
X139860000Y-104267000D03*
X139860000Y-105537000D03*
X139860000Y-106807000D03*
D16*
X145288000Y-94760000D03*
X145288000Y-92710000D03*
X122174000Y-94760000D03*
X122174000Y-92710000D03*
X119888000Y-94760000D03*
X119888000Y-92710000D03*
D21*
X117348000Y-92684000D03*
X117348000Y-95784000D03*
D20*
X122348000Y-97094000D03*
X122348000Y-98994000D03*
X125048000Y-98994000D03*
X125048000Y-97094000D03*
X125048000Y-98044000D03*
D13*
X126492000Y-103124000D03*
X128542000Y-103124000D03*
D16*
X119634000Y-96756000D03*
X119634000Y-98806000D03*
D13*
X122410000Y-104394000D03*
X124460000Y-104394000D03*
X122410000Y-101600000D03*
X124460000Y-101600000D03*
D16*
X109655359Y-95536013D03*
X109655359Y-93486013D03*
X112014000Y-100312000D03*
X112014000Y-102362000D03*
D20*
X112696000Y-93284000D03*
X112696000Y-95184000D03*
X115396000Y-95184000D03*
X115396000Y-93284000D03*
X115396000Y-94234000D03*
X118444000Y-102296000D03*
X118444000Y-101346000D03*
X118444000Y-100396000D03*
X115744000Y-100396000D03*
X115744000Y-102296000D03*
X115744000Y-101346000D03*
D23*
X116248000Y-104760000D03*
X116248000Y-106060000D03*
D24*
X118448000Y-104910000D03*
D23*
X118448000Y-106060000D03*
D13*
X115588000Y-98298000D03*
X113538000Y-98298000D03*
D15*
X109850000Y-102028000D03*
X108900000Y-102028000D03*
X107950000Y-102028000D03*
X107950000Y-104648000D03*
X109850000Y-104648000D03*
X108900000Y-104648000D03*
X107369359Y-92916013D03*
X106419359Y-92916013D03*
X105469359Y-92916013D03*
X105469359Y-95536013D03*
X107369359Y-95536013D03*
X106419359Y-95536013D03*
D16*
X90170000Y-92692000D03*
X90170000Y-94742000D03*
D13*
X101854000Y-104394000D03*
X103904000Y-104394000D03*
X105936000Y-102108000D03*
X103886000Y-102108000D03*
D16*
X92710000Y-92710000D03*
X92710000Y-94760000D03*
D17*
X108006000Y-99210000D03*
D18*
X102506000Y-99210000D03*
D19*
X95206000Y-99210000D03*
D14*
X97452000Y-104394000D03*
X99652000Y-103444000D03*
X99652000Y-105344000D03*
D13*
X106698000Y-107696000D03*
X104648000Y-107696000D03*
X115588000Y-76200000D03*
X113538000Y-76200000D03*
D21*
X117348000Y-70586000D03*
X117348000Y-73686000D03*
D20*
X118444000Y-80198000D03*
X118444000Y-79248000D03*
X118444000Y-78298000D03*
X115744000Y-78298000D03*
X115744000Y-80198000D03*
X115744000Y-79248000D03*
X112696000Y-71186000D03*
X112696000Y-73086000D03*
X115396000Y-73086000D03*
X115396000Y-71186000D03*
X115396000Y-72136000D03*
D23*
X116248000Y-82662000D03*
X116248000Y-83962000D03*
D24*
X118448000Y-82812000D03*
D23*
X118448000Y-83962000D03*
D16*
X112014000Y-78214000D03*
X112014000Y-80264000D03*
D22*
X134460000Y-84709000D03*
X134460000Y-83439000D03*
X134460000Y-82169000D03*
X134460000Y-80899000D03*
X134460000Y-79629000D03*
X134460000Y-78359000D03*
X134460000Y-77089000D03*
X134460000Y-75819000D03*
X139860000Y-79629000D03*
X139860000Y-78359000D03*
X139860000Y-77089000D03*
X139860000Y-75819000D03*
X139860000Y-80899000D03*
X139860000Y-82169000D03*
X139860000Y-83439000D03*
X139860000Y-84709000D03*
D12*
X142060000Y-72644000D03*
X142060000Y-70104000D03*
X132260000Y-70104000D03*
X132260000Y-72644000D03*
D13*
X131844000Y-76708000D03*
X129794000Y-76708000D03*
D16*
X145288000Y-72662000D03*
X145288000Y-70612000D03*
D21*
X129540000Y-72924000D03*
X129540000Y-69824000D03*
D13*
X106698000Y-85598000D03*
X104648000Y-85598000D03*
D14*
X97452000Y-82296000D03*
X99652000Y-81346000D03*
X99652000Y-83246000D03*
D17*
X108006000Y-77112000D03*
D18*
X102506000Y-77112000D03*
D19*
X95206000Y-77112000D03*
D16*
X92710000Y-70612000D03*
X92710000Y-72662000D03*
X90170000Y-70594000D03*
X90170000Y-72644000D03*
D13*
X101854000Y-82296000D03*
X103904000Y-82296000D03*
D15*
X109850000Y-79930000D03*
X108900000Y-79930000D03*
X107950000Y-79930000D03*
X107950000Y-82550000D03*
X109850000Y-82550000D03*
X108900000Y-82550000D03*
D13*
X105936000Y-80010000D03*
X103886000Y-80010000D03*
D16*
X109655359Y-73438013D03*
X109655359Y-71388013D03*
D15*
X107369359Y-70818013D03*
X106419359Y-70818013D03*
X105469359Y-70818013D03*
X105469359Y-73438013D03*
X107369359Y-73438013D03*
X106419359Y-73438013D03*
D16*
X119634000Y-74658000D03*
X119634000Y-76708000D03*
D13*
X126492000Y-81026000D03*
X128542000Y-81026000D03*
X122410000Y-82296000D03*
X124460000Y-82296000D03*
X122410000Y-79502000D03*
X124460000Y-79502000D03*
D16*
X119888000Y-72662000D03*
X119888000Y-70612000D03*
D20*
X122348000Y-74996000D03*
X122348000Y-76896000D03*
X125048000Y-76896000D03*
X125048000Y-74996000D03*
X125048000Y-75946000D03*
D16*
X122174000Y-72662000D03*
X122174000Y-70612000D03*
X135128000Y-145016000D03*
X135128000Y-147066000D03*
X143002000Y-147084000D03*
X143002000Y-145034000D03*
X129286000Y-161272000D03*
X129286000Y-163322000D03*
X129286000Y-153398000D03*
X129286000Y-155448000D03*
D13*
X105174000Y-159004000D03*
X103124000Y-159004000D03*
D16*
X156464000Y-166134000D03*
X156464000Y-164084000D03*
D13*
X200678000Y-143764000D03*
X198628000Y-143764000D03*
D16*
X207264000Y-144508000D03*
X207264000Y-146558000D03*
X119888000Y-50564000D03*
X119888000Y-48514000D03*
X122174000Y-50564000D03*
X122174000Y-48514000D03*
X119634000Y-52560000D03*
X119634000Y-54610000D03*
D13*
X115588000Y-54102000D03*
X113538000Y-54102000D03*
D16*
X111506000Y-158659286D03*
X111506000Y-160709286D03*
X115951000Y-158659286D03*
X115951000Y-160709286D03*
X120396000Y-158750000D03*
X120396000Y-160800000D03*
D13*
X176784000Y-154940000D03*
X174734000Y-154940000D03*
X171196000Y-154940000D03*
X169146000Y-154940000D03*
X178036000Y-169672000D03*
X180086000Y-169672000D03*
D16*
X90170000Y-48496000D03*
X90170000Y-50546000D03*
D21*
X129540000Y-50826000D03*
X129540000Y-47726000D03*
X117348000Y-48488000D03*
X117348000Y-51588000D03*
D14*
X97452000Y-60198000D03*
X99652000Y-59248000D03*
X99652000Y-61148000D03*
D17*
X188722000Y-151384000D03*
X183642000Y-151384000D03*
D25*
X162052000Y-173736000D03*
D26*
X164592000Y-173736000D03*
X167132000Y-173736000D03*
X169672000Y-173736000D03*
X172212000Y-173736000D03*
X174752000Y-173736000D03*
D25*
X149352000Y-169418000D03*
D26*
X151892000Y-169418000D03*
X154432000Y-169418000D03*
D13*
X139464000Y-149860000D03*
X137414000Y-149860000D03*
D16*
X137160000Y-161272000D03*
X137160000Y-163322000D03*
X103124000Y-164338000D03*
X103124000Y-166388000D03*
D13*
X103106000Y-161798000D03*
X105156000Y-161798000D03*
D16*
X153924000Y-166134000D03*
X153924000Y-164084000D03*
X111506000Y-154160000D03*
X111506000Y-156210000D03*
X115951000Y-154160000D03*
X115951000Y-156210000D03*
X120396000Y-154160000D03*
X120396000Y-156210000D03*
X150622000Y-166134000D03*
X150622000Y-164084000D03*
X204724000Y-144508000D03*
X204724000Y-146558000D03*
X92710000Y-48514000D03*
X92710000Y-50564000D03*
X109655359Y-51340013D03*
X109655359Y-49290013D03*
X145288000Y-50564000D03*
X145288000Y-48514000D03*
D13*
X122410000Y-57404000D03*
X124460000Y-57404000D03*
X122410000Y-60198000D03*
X124460000Y-60198000D03*
X143746000Y-57658000D03*
X145796000Y-57658000D03*
X126492000Y-58928000D03*
X128542000Y-58928000D03*
X151112000Y-57404000D03*
X153162000Y-57404000D03*
X143764000Y-55118000D03*
X145814000Y-55118000D03*
X131844000Y-54610000D03*
X129794000Y-54610000D03*
X145814000Y-52832000D03*
X143764000Y-52832000D03*
D16*
X112014000Y-56116000D03*
X112014000Y-58166000D03*
D13*
X105936000Y-57912000D03*
X103886000Y-57912000D03*
X106698000Y-63500000D03*
X104648000Y-63500000D03*
D27*
X100330000Y-151638000D03*
X100330000Y-147138000D03*
X92330000Y-147138000D03*
X92330000Y-151638000D03*
X92330000Y-159766000D03*
X92330000Y-164266000D03*
X100330000Y-164266000D03*
X100330000Y-159766000D03*
D28*
X164338000Y-166432000D03*
X203962000Y-151192000D03*
X207772000Y-150052000D03*
X195326000Y-151192000D03*
D29*
X192848000Y-143764000D03*
D25*
X177292000Y-147574000D03*
D26*
X174752000Y-147574000D03*
X172212000Y-147574000D03*
D30*
X171958000Y-161290000D03*
X174258000Y-161290000D03*
D31*
X174258000Y-167090000D03*
D30*
X176558000Y-161290000D03*
D32*
X197739000Y-152052000D03*
X199009000Y-152052000D03*
X200279000Y-152052000D03*
X201549000Y-152052000D03*
X197739000Y-146652000D03*
X199009000Y-146652000D03*
X200279000Y-146652000D03*
X201549000Y-146652000D03*
D22*
X134460000Y-62611000D03*
X134460000Y-61341000D03*
X134460000Y-60071000D03*
X134460000Y-58801000D03*
X134460000Y-57531000D03*
X134460000Y-56261000D03*
X134460000Y-54991000D03*
X134460000Y-53721000D03*
X139860000Y-57531000D03*
X139860000Y-56261000D03*
X139860000Y-54991000D03*
X139860000Y-53721000D03*
X139860000Y-58801000D03*
X139860000Y-60071000D03*
X139860000Y-61341000D03*
X139860000Y-62611000D03*
D23*
X116248000Y-60564000D03*
X116248000Y-61864000D03*
D24*
X118448000Y-60714000D03*
D23*
X118448000Y-61864000D03*
D33*
X140716000Y-147128000D03*
X140716000Y-141478000D03*
X137416000Y-141478000D03*
X137416000Y-147128000D03*
D34*
X133096000Y-163416000D03*
X133096000Y-153416000D03*
D17*
X108006000Y-55014000D03*
D18*
X102506000Y-55014000D03*
D19*
X95206000Y-55014000D03*
D15*
X109850000Y-57832000D03*
X108900000Y-57832000D03*
X107950000Y-57832000D03*
X107950000Y-60452000D03*
X109850000Y-60452000D03*
X108900000Y-60452000D03*
X107369359Y-48720013D03*
X106419359Y-48720013D03*
X105469359Y-48720013D03*
X105469359Y-51340013D03*
X107369359Y-51340013D03*
X106419359Y-51340013D03*
D20*
X122348000Y-52898000D03*
X122348000Y-54798000D03*
X125048000Y-54798000D03*
X125048000Y-52898000D03*
X125048000Y-53848000D03*
X112696000Y-49088000D03*
X112696000Y-50988000D03*
X115396000Y-50988000D03*
X115396000Y-49088000D03*
X115396000Y-50038000D03*
X118444000Y-58100000D03*
X118444000Y-57150000D03*
X118444000Y-56200000D03*
X115744000Y-56200000D03*
X115744000Y-58100000D03*
X115744000Y-57150000D03*
D13*
X101854000Y-60198000D03*
X103904000Y-60198000D03*
X143764000Y-60198000D03*
X145814000Y-60198000D03*
D25*
X168148000Y-167132000D03*
D26*
X168148000Y-164592000D03*
D19*
X184640000Y-171704000D03*
D17*
X184640000Y-158904000D03*
X188840000Y-158904000D03*
X193040000Y-158904000D03*
D18*
X193040000Y-164404000D03*
D17*
X188840000Y-164404000D03*
X184640000Y-164404000D03*
D19*
X193040000Y-171704000D03*
X205604000Y-171704000D03*
D17*
X205604000Y-158904000D03*
X209804000Y-158904000D03*
X214004000Y-158904000D03*
D18*
X214004000Y-164404000D03*
D17*
X209804000Y-164404000D03*
X205604000Y-164404000D03*
D19*
X214004000Y-171704000D03*
D17*
X96266000Y-48768000D03*
X101346000Y-48768000D03*
X96266000Y-70866000D03*
X101346000Y-70866000D03*
X96266000Y-92964000D03*
X101346000Y-92964000D03*
X96266000Y-115062000D03*
X101346000Y-115062000D03*
X210566000Y-128778000D03*
X205486000Y-128778000D03*
X210566000Y-106680000D03*
X205486000Y-106680000D03*
X210566000Y-84582000D03*
X205486000Y-84582000D03*
X210566000Y-62484000D03*
X205486000Y-62484000D03*
D13*
X193784000Y-146558000D03*
X195834000Y-146558000D03*
D17*
X108006000Y-138684000D03*
D18*
X102506000Y-138684000D03*
D19*
X95206000Y-138684000D03*
D17*
X198826000Y-138684000D03*
D18*
X204326000Y-138684000D03*
D19*
X211626000Y-138684000D03*
D28*
X183642000Y-145858000D03*
D29*
X104586000Y-150622000D03*
D13*
X110744000Y-138684000D03*
X112794000Y-138684000D03*
X195852000Y-138684000D03*
X193802000Y-138684000D03*
D11*
X93980000Y-172720000D03*
D13*
X108694000Y-141986000D03*
X110744000Y-141986000D03*
X201186000Y-135890000D03*
X199136000Y-135890000D03*
D16*
X129794000Y-139446000D03*
X129794000Y-137396000D03*
X125095000Y-139319000D03*
X125095000Y-137269000D03*
X120396000Y-139319000D03*
X120396000Y-137269000D03*
D35*
X129286000Y-158877000D03*
X162432996Y-155956000D03*
X202692000Y-135890000D03*
X107188000Y-141986000D03*
X176530000Y-159258000D03*
X207264000Y-143002000D03*
X178054000Y-156972000D03*
X171958000Y-156972000D03*
X156718000Y-167640000D03*
X144526000Y-62738000D03*
X140462000Y-52070000D03*
X165354000Y-49530000D03*
X177292000Y-167386000D03*
X140208000Y-132842000D03*
X101600000Y-157226000D03*
X100330000Y-158242000D03*
X100330000Y-153162000D03*
X113284000Y-154178000D03*
X129286000Y-156972000D03*
X143002000Y-143510000D03*
X135128000Y-143510000D03*
X202438000Y-143764000D03*
X154178000Y-148590000D03*
X157480000Y-153416000D03*
X150876000Y-156210000D03*
X154178000Y-157734000D03*
X149606000Y-152400000D03*
X160192922Y-126231140D03*
X160198873Y-104085558D03*
X163322000Y-115316000D03*
X163576000Y-93218000D03*
X163322000Y-71120000D03*
X143510000Y-84074000D03*
X143510000Y-106426000D03*
X146812000Y-51562000D03*
X146812000Y-73660000D03*
X139954000Y-74676000D03*
X139954000Y-96520000D03*
X147320000Y-95504000D03*
X139954000Y-118872000D03*
X146812000Y-117856000D03*
X166878000Y-125222000D03*
X166878000Y-103124000D03*
X166878000Y-81026000D03*
X159766000Y-82042000D03*
X166878000Y-58928000D03*
X159766000Y-59690000D03*
X162433000Y-154686000D03*
X140144501Y-170433999D03*
X148844000Y-163322000D03*
X197104000Y-143764000D03*
X152908000Y-148590000D03*
X152907992Y-157226000D03*
X157226000Y-160782000D03*
X145288000Y-150368000D03*
X147066000Y-175768000D03*
X160274004Y-163322000D03*
X163322000Y-163322000D03*
X162704889Y-130595552D03*
X148336000Y-71628000D03*
X147320000Y-92710000D03*
X146812000Y-114808000D03*
X161544000Y-108458000D03*
X160020000Y-84836000D03*
X160020000Y-62738000D03*
X148082000Y-54102000D03*
X144526000Y-152400000D03*
X141986000Y-62992000D03*
X141986000Y-85090000D03*
X141986000Y-107188000D03*
X141986000Y-129286000D03*
X164846000Y-114554000D03*
X164846000Y-92456000D03*
X164846000Y-70358000D03*
X164846000Y-48260000D03*
X144875200Y-153670000D03*
X143764000Y-160020000D03*
X146304000Y-166370000D03*
X157480000Y-154686000D03*
X134909916Y-136997084D03*
X141351000Y-137033002D03*
X108204000Y-151384000D03*
X110236000Y-151384000D03*
X174244000Y-169672000D03*
X170434000Y-161290000D03*
X202692000Y-156210000D03*
X211836000Y-156464000D03*
X191008000Y-156210000D03*
X198882000Y-154432000D03*
X210566000Y-154432000D03*
X201676000Y-154432000D03*
X141986000Y-54991000D03*
X131318000Y-55880000D03*
X112677629Y-60775978D03*
X112522000Y-62591990D03*
X111760034Y-50038000D03*
X110490000Y-56134000D03*
X111252000Y-51816000D03*
X120904000Y-55372016D03*
X116586000Y-55372000D03*
X112268000Y-59690000D03*
X150113990Y-173736000D03*
X146304000Y-173736000D03*
X151892000Y-174752000D03*
X145288000Y-172466002D03*
X155448000Y-174752000D03*
X141986000Y-171450000D03*
X174752000Y-153162000D03*
X169164000Y-153162000D03*
X181610000Y-169672000D03*
X107696000Y-52577980D03*
X101854000Y-57658000D03*
X96483813Y-61294485D03*
X151130008Y-143891000D03*
X164973000Y-149351999D03*
X152019000Y-141732000D03*
X165354000Y-148336000D03*
X151130000Y-142621000D03*
X165607998Y-147320000D03*
X107442000Y-47498000D03*
X110744000Y-61976000D03*
X140970000Y-174752000D03*
X141986000Y-58928000D03*
X131826000Y-57912000D03*
X130556000Y-59182000D03*
X119666539Y-57372866D03*
X131064000Y-57150000D03*
X129898065Y-58358567D03*
X115824000Y-48005988D03*
X120142000Y-61976024D03*
X121168583Y-52092650D03*
X130556000Y-63246000D03*
X130048000Y-52578000D03*
X126492000Y-55626000D03*
X123698000Y-48514000D03*
X130556000Y-85344000D03*
X126492000Y-77724000D03*
X123698000Y-70612000D03*
X130048000Y-74676000D03*
X141986000Y-77089000D03*
X131318000Y-77978000D03*
X111252000Y-73914000D03*
X111760034Y-72136000D03*
X112522000Y-84689990D03*
X112677629Y-82873978D03*
X110490000Y-78232000D03*
X120904000Y-77470000D03*
X117094000Y-77216000D03*
X112268000Y-81788000D03*
X130556000Y-107442000D03*
X126492000Y-99822000D03*
X130048000Y-96774000D03*
X123698000Y-92710000D03*
X141986000Y-99187000D03*
X131318000Y-100076000D03*
X111760034Y-94234000D03*
X110490000Y-100330000D03*
X111252000Y-96012000D03*
X112677629Y-104971978D03*
X112522000Y-106787990D03*
X120904000Y-99568000D03*
X117602000Y-99314000D03*
X112268000Y-103886000D03*
X107696000Y-74675980D03*
X101854000Y-79756000D03*
X96483813Y-83392485D03*
X107696000Y-96773980D03*
X101854000Y-101854000D03*
X96483813Y-105490485D03*
X107442000Y-69596000D03*
X110744000Y-84074000D03*
X107442000Y-91694000D03*
X110744000Y-106172000D03*
X141986000Y-81026000D03*
X130556000Y-81280000D03*
X131826000Y-80010000D03*
X119666539Y-79470866D03*
X129898065Y-80456567D03*
X131064000Y-79248000D03*
X115824000Y-70103988D03*
X121168583Y-74190650D03*
X120142000Y-84074024D03*
X141986000Y-103124000D03*
X131826000Y-102108000D03*
X130556000Y-103378000D03*
X119666539Y-101568866D03*
X129898065Y-102554567D03*
X131064000Y-101346000D03*
X115824000Y-92201988D03*
X121168583Y-96288650D03*
X120142000Y-106172024D03*
X90169994Y-51816000D03*
X130556000Y-61961894D03*
X119971857Y-60707765D03*
X113538000Y-55626000D03*
X99822000Y-57912000D03*
X134112000Y-52578000D03*
X128270000Y-47752000D03*
X126492000Y-53848000D03*
X123698000Y-50546000D03*
X114515987Y-48006000D03*
X116840000Y-50038000D03*
X130556000Y-84059894D03*
X119971857Y-82805765D03*
X126492000Y-75946000D03*
X90169994Y-73914000D03*
X99822000Y-80010000D03*
X116840000Y-72136000D03*
X114515987Y-70104000D03*
X113538000Y-77724000D03*
X134112000Y-74676000D03*
X128270000Y-69850000D03*
X123698000Y-72644000D03*
X113538000Y-99822000D03*
X114515987Y-92202000D03*
X130556000Y-106157894D03*
X123698000Y-94742000D03*
X126492000Y-98044000D03*
X134112000Y-96774000D03*
X99822000Y-102108000D03*
X90169994Y-96012000D03*
X116840000Y-94234000D03*
X119971857Y-104903765D03*
X128270000Y-91948000D03*
X123698000Y-116840000D03*
X114515987Y-114300000D03*
X130556000Y-128255894D03*
X134112000Y-118872000D03*
X119971857Y-127001765D03*
X116840000Y-116332000D03*
X128270000Y-114046000D03*
X126492000Y-120142000D03*
X113538000Y-121920000D03*
X99822000Y-124206000D03*
X90169994Y-118110000D03*
X130556000Y-129540000D03*
X126492000Y-121920000D03*
X123698000Y-114808000D03*
X130048000Y-118872000D03*
X141986000Y-121285000D03*
X131318000Y-122174000D03*
X112522000Y-128885990D03*
X112677629Y-127069978D03*
X110490000Y-122428000D03*
X111252000Y-118110000D03*
X111760034Y-116332000D03*
X120904000Y-121666022D03*
X117602000Y-121412000D03*
X112268000Y-125984000D03*
X176276000Y-115584106D03*
X186860143Y-116838235D03*
X180340000Y-123698000D03*
X172720000Y-124968000D03*
X189992000Y-127508000D03*
X183134000Y-127000000D03*
X178562000Y-129794000D03*
X193294000Y-121920000D03*
X216662006Y-125730000D03*
X192316013Y-129540000D03*
X207010000Y-119634000D03*
X176276000Y-114300000D03*
X180340000Y-121920000D03*
X176784000Y-124968000D03*
X183134000Y-129032000D03*
X164846000Y-122555000D03*
X175514000Y-121666000D03*
X194310000Y-114954010D03*
X196342000Y-121412000D03*
X194154371Y-116770022D03*
X195071966Y-127508000D03*
X195580000Y-125730000D03*
X185928000Y-122173990D03*
X189230000Y-122682000D03*
X194564000Y-117856000D03*
X192316013Y-107442000D03*
X189992000Y-105410000D03*
X183134000Y-104902000D03*
X176276000Y-93486106D03*
X186860143Y-94740235D03*
X193294000Y-99822000D03*
X178562000Y-107696000D03*
X180340000Y-101600000D03*
X172720000Y-102870000D03*
X216662006Y-103632000D03*
X207010000Y-97536000D03*
X183134000Y-106934000D03*
X176276000Y-92202000D03*
X180340000Y-99822000D03*
X176784000Y-102870000D03*
X164846000Y-100457000D03*
X175514000Y-99568000D03*
X194310000Y-92856010D03*
X194154371Y-94672022D03*
X195071966Y-105410000D03*
X195580000Y-103632000D03*
X196342000Y-99314000D03*
X185928000Y-100076000D03*
X189230000Y-100584000D03*
X194564000Y-95758000D03*
X189992000Y-83312000D03*
X192316013Y-85344000D03*
X183134000Y-82804000D03*
X178562000Y-85598000D03*
X172720000Y-80772000D03*
X180340000Y-79502000D03*
X176276000Y-71388106D03*
X186860143Y-72642235D03*
X193294000Y-77724000D03*
X207010000Y-75438000D03*
X216662006Y-81534000D03*
X176784000Y-80772000D03*
X183134000Y-84836000D03*
X180340000Y-77724000D03*
X176276000Y-70104000D03*
X164846000Y-78359000D03*
X175514000Y-77470000D03*
X194310000Y-70758010D03*
X196342000Y-77216000D03*
X194154371Y-72574022D03*
X195071966Y-83312000D03*
X195580000Y-81534000D03*
X189484000Y-78486000D03*
X185928000Y-78232000D03*
X194564000Y-73660000D03*
X192316013Y-63246000D03*
X193294000Y-55626000D03*
X207010000Y-53340000D03*
X216662006Y-59436000D03*
X189992000Y-61214000D03*
X183134000Y-60706000D03*
X186860143Y-50544235D03*
X180340000Y-57404000D03*
X178562000Y-63500000D03*
X172720000Y-58674000D03*
X176276000Y-49290106D03*
X183134000Y-62738000D03*
X180340000Y-55626000D03*
X176784000Y-58674000D03*
X176276000Y-48006000D03*
X164846000Y-56261000D03*
X175514000Y-55372000D03*
X195580000Y-59436000D03*
X195071966Y-61214000D03*
X194310000Y-48660010D03*
X194154371Y-50476022D03*
X196342000Y-55118000D03*
X189230000Y-56388000D03*
X185928000Y-55880000D03*
X194564000Y-51562000D03*
X107696000Y-118871980D03*
X101854000Y-123952000D03*
X96483813Y-127588485D03*
X199136000Y-124968020D03*
X204978000Y-119888000D03*
X210348187Y-116251515D03*
X199136000Y-102870020D03*
X204978000Y-97790000D03*
X210348187Y-94153515D03*
X199136000Y-80772020D03*
X204978000Y-75692000D03*
X210348187Y-72055515D03*
X199136000Y-58674020D03*
X204978000Y-53594000D03*
X210348187Y-49957515D03*
X107442000Y-113792000D03*
X110744000Y-128270000D03*
X199390000Y-130048000D03*
X196088000Y-115570000D03*
X199390000Y-107950000D03*
X196088000Y-93472000D03*
X199390000Y-85852000D03*
X196088000Y-71374000D03*
X199390000Y-63754000D03*
X196088000Y-49276000D03*
X141986000Y-125222000D03*
X131826000Y-124206000D03*
X130556000Y-125476000D03*
X119666539Y-123666866D03*
X129898065Y-124652567D03*
X131064000Y-123444000D03*
X115824000Y-114299988D03*
X121168583Y-118386650D03*
X120142000Y-128270024D03*
X164337998Y-118618000D03*
X176276000Y-118364000D03*
X175006000Y-119634000D03*
X187165461Y-120173134D03*
X176933935Y-119187433D03*
X175768000Y-120396000D03*
X191008000Y-129540012D03*
X185663417Y-125453350D03*
X186690000Y-115569976D03*
X164846000Y-96520000D03*
X176276000Y-96266000D03*
X175006000Y-97536000D03*
X187165461Y-98075134D03*
X176933935Y-97089433D03*
X175768000Y-98298000D03*
X191008000Y-107442012D03*
X185663417Y-103355350D03*
X186690000Y-93471976D03*
X164846000Y-74422000D03*
X175006000Y-75438000D03*
X176276000Y-74168000D03*
X187165461Y-75977134D03*
X175768000Y-76200000D03*
X176933935Y-74991433D03*
X191008000Y-85344012D03*
X185663417Y-81257350D03*
X186690000Y-71373976D03*
X164846000Y-52324000D03*
X175006000Y-53340000D03*
X176276000Y-52070000D03*
X187165461Y-53879134D03*
X176933935Y-52893433D03*
X175768000Y-54102000D03*
X191008000Y-63246012D03*
X185663417Y-59159350D03*
X186690000Y-49275976D03*
X106172000Y-62095998D03*
X106172000Y-60706000D03*
X106172000Y-59182000D03*
X106172000Y-82804000D03*
X106172000Y-84193998D03*
X106172000Y-81280000D03*
X106172000Y-103378000D03*
X106172000Y-106291998D03*
X106172000Y-104902000D03*
X106172000Y-128389998D03*
X106172000Y-125476000D03*
X106172000Y-127000000D03*
X200660000Y-115450002D03*
X200660000Y-118364000D03*
X200660000Y-116840000D03*
X200660000Y-96266000D03*
X200660000Y-93352002D03*
X200660000Y-94742000D03*
X200660000Y-72644000D03*
X200660000Y-74168000D03*
X200660000Y-71254002D03*
X200660000Y-52070000D03*
X200660000Y-50546000D03*
X200660000Y-49156002D03*
X116293103Y-51839637D03*
X116293103Y-73937637D03*
X116293103Y-96035637D03*
X116293103Y-118133637D03*
X190538897Y-125706363D03*
X190538897Y-103608363D03*
X190538897Y-81510363D03*
X190538897Y-59412363D03*
X163830000Y-133858000D03*
X162814000Y-66293994D03*
X161544000Y-131572000D03*
X161798000Y-115316000D03*
X163322000Y-109982000D03*
X160274000Y-109982000D03*
X159512000Y-101346000D03*
X163576000Y-87630000D03*
X143764000Y-112014000D03*
X144367200Y-90170000D03*
X144018000Y-67818000D03*
X149352000Y-47244000D03*
X146812008Y-135636000D03*
X149860000Y-60198000D03*
X147320008Y-58928000D03*
X149606000Y-58928000D03*
X149352000Y-133604000D03*
X154178000Y-124968000D03*
X152400000Y-124968000D03*
X152400011Y-102870000D03*
X154178000Y-102870000D03*
X152400000Y-80772000D03*
X154178000Y-80772000D03*
X154178000Y-58928000D03*
X152400000Y-58928000D03*
X151892000Y-129540000D03*
X151638000Y-55118000D03*
X147570071Y-131060071D03*
X149352000Y-84836000D03*
X147319988Y-81026000D03*
X148844000Y-130810000D03*
X149352008Y-82042000D03*
X148590000Y-132080000D03*
X151130000Y-77724000D03*
X147574000Y-128524000D03*
X148590000Y-106172000D03*
X147066000Y-103124000D03*
X145034000Y-130556000D03*
X148336018Y-105156000D03*
X145288000Y-131826000D03*
X149860000Y-99314000D03*
X146050000Y-128524000D03*
X147320000Y-126492000D03*
X147320000Y-125222000D03*
X144780000Y-128524000D03*
X147320000Y-121412000D03*
X156718000Y-135890000D03*
X159512000Y-117348000D03*
X159766000Y-133858000D03*
X155702000Y-135127988D03*
X158083221Y-95250000D03*
X158489632Y-96774000D03*
X160528000Y-93726000D03*
X157226000Y-133604000D03*
X158896043Y-100330000D03*
X158496004Y-133858000D03*
X157480004Y-73152000D03*
X155194000Y-130048000D03*
X157784815Y-74587887D03*
X155956000Y-130810000D03*
X159512000Y-74422000D03*
X157676810Y-78304961D03*
X156464000Y-131826000D03*
X154432000Y-128016000D03*
X154940000Y-52578000D03*
X152654000Y-131064000D03*
X156464000Y-52832000D03*
X159512000Y-52324000D03*
X153473200Y-130048000D03*
X156051221Y-56642000D03*
X159258000Y-142240000D03*
X121030994Y-148717000D03*
X123190026Y-150622000D03*
X163449000Y-159258000D03*
X168402000Y-157226000D03*
X187706000Y-143256000D03*
X189992000Y-135890000D03*
X122237500Y-148399500D03*
X122237500Y-151828500D03*
X163449000Y-160274000D03*
X168401982Y-158496000D03*
X188468000Y-142240000D03*
X191008000Y-136906000D03*
X161798000Y-150241000D03*
X168148000Y-146050000D03*
X190500000Y-140970000D03*
X193294000Y-140970000D03*
X147066000Y-144526000D03*
X167894000Y-147066000D03*
X128016000Y-141605000D03*
X131445000Y-138557000D03*
X161925000Y-151637998D03*
X123190000Y-141605000D03*
X132676543Y-138087457D03*
X156083000Y-143129000D03*
X118491000Y-141605000D03*
X133477000Y-137286996D03*
X154813002Y-142748000D03*
M02*
