G04 #@! TF.FileFunction,Soldermask,Bot*
%FSLAX46Y46*%
G04 Gerber Fmt 4.6, Leading zero omitted, Abs format (unit mm)*
G04 Created by KiCad (PCBNEW 4.0.6) date 07/03/17 14:26:51*
%MOMM*%
%LPD*%
G01*
G04 APERTURE LIST*
%ADD10C,0.100000*%
%ADD11C,4.000000*%
%ADD12R,2.000000X3.000000*%
%ADD13C,2.500000*%
%ADD14R,2.500000X2.500000*%
%ADD15C,3.508000*%
%ADD16C,1.676400*%
%ADD17R,1.400000X1.500000*%
%ADD18C,2.032000*%
%ADD19C,1.905000*%
%ADD20R,1.500000X1.400000*%
%ADD21R,2.000000X2.000000*%
%ADD22C,2.000000*%
%ADD23R,1.500000X0.550000*%
%ADD24R,2.000000X4.000000*%
%ADD25R,4.000000X2.000000*%
%ADD26R,1.000000X1.400000*%
%ADD27R,1.400000X1.000000*%
%ADD28R,1.500000X1.000000*%
%ADD29O,2.006600X0.939800*%
%ADD30C,0.800000*%
G04 APERTURE END LIST*
D10*
D11*
X203200000Y-23000000D03*
X203200000Y-103000000D03*
X73200000Y-103000000D03*
D12*
X201750000Y-116800000D03*
X197000000Y-116800000D03*
D13*
X189128400Y-110400000D03*
D14*
X189128400Y-115900000D03*
D15*
X189128400Y-123200000D03*
D16*
X196669660Y-121000000D03*
X201749660Y-121000000D03*
D17*
X168028840Y-94376240D03*
X165978840Y-94376240D03*
D18*
X162966400Y-118618000D03*
X162966400Y-110998000D03*
X162966400Y-100838000D03*
X170586400Y-100838000D03*
X175818800Y-118618000D03*
X175818800Y-110998000D03*
X175818800Y-100838000D03*
X183438800Y-100838000D03*
D15*
X73787000Y-48875400D03*
D13*
X86587000Y-48875400D03*
X86587000Y-53075400D03*
X86587000Y-57275400D03*
X86587000Y-61475400D03*
X86587000Y-65675400D03*
X86587000Y-69875400D03*
X86587000Y-74075400D03*
X86587000Y-78275400D03*
X86587000Y-82475400D03*
X86587000Y-86675400D03*
X86587000Y-90875400D03*
X81087000Y-48875400D03*
X81087000Y-53075400D03*
X81087000Y-57275400D03*
X81087000Y-61475400D03*
X81087000Y-65675400D03*
X81087000Y-69875400D03*
X81087000Y-74075400D03*
D14*
X81087000Y-90875400D03*
D13*
X81087000Y-86675400D03*
X81087000Y-82475400D03*
X81087000Y-78275400D03*
D15*
X73787000Y-90875400D03*
D13*
X87171200Y-40335200D03*
D14*
X81671200Y-40335200D03*
D15*
X74371200Y-40335200D03*
D19*
X113155200Y-114935000D03*
X113155200Y-112395000D03*
X113155200Y-104775000D03*
X113155200Y-102235000D03*
X113155200Y-99695000D03*
D20*
X128903200Y-101549200D03*
X128903200Y-99499200D03*
D13*
X92413200Y-49203200D03*
X97493200Y-49203200D03*
D20*
X150317200Y-25349200D03*
X150317200Y-27399200D03*
X178765200Y-46177200D03*
X178765200Y-48227200D03*
D21*
X116751100Y-32486600D03*
D22*
X119291100Y-32486600D03*
X121831100Y-32486600D03*
D23*
X91795200Y-68158200D03*
X91795200Y-66258200D03*
X94495200Y-66258200D03*
X94495200Y-68158200D03*
X94495200Y-67208200D03*
X91695200Y-62558200D03*
X91695200Y-60658200D03*
X94395200Y-60658200D03*
X94395200Y-62558200D03*
X94395200Y-61608200D03*
D24*
X98255200Y-74337200D03*
X98255200Y-87161200D03*
X104097200Y-74337200D03*
X103843200Y-87161200D03*
X182239900Y-83796000D03*
X182239900Y-72112000D03*
X176651900Y-83796000D03*
X176905900Y-72112000D03*
X125095000Y-39686000D03*
X120523000Y-39686000D03*
X115824000Y-39686000D03*
X105829100Y-39660600D03*
X110998000Y-39686000D03*
D25*
X127721400Y-89053800D03*
X127721400Y-83592800D03*
X127721400Y-86259800D03*
D17*
X154940000Y-93980000D03*
X152890000Y-93980000D03*
X93953200Y-39453200D03*
X96003200Y-39453200D03*
X179019200Y-51003200D03*
X176969200Y-51003200D03*
X159207200Y-51765200D03*
X157157200Y-51765200D03*
D20*
X150986000Y-34116000D03*
X150986000Y-36166000D03*
D17*
X196799200Y-51257200D03*
X194749200Y-51257200D03*
D20*
X158953200Y-46939200D03*
X158953200Y-48989200D03*
X196799200Y-46177200D03*
X196799200Y-48227200D03*
X104203200Y-105203200D03*
X104203200Y-103153200D03*
D17*
X85674200Y-100660200D03*
X83624200Y-100660200D03*
X124077200Y-104343200D03*
X126127200Y-104343200D03*
X96469200Y-100914200D03*
X94419200Y-100914200D03*
X136523200Y-101930200D03*
X134473200Y-101930200D03*
D20*
X91262200Y-100660200D03*
X91262200Y-98610200D03*
X88595200Y-100660200D03*
X88595200Y-98610200D03*
X131570200Y-101549200D03*
X131570200Y-99499200D03*
D17*
X180680580Y-94510860D03*
X178630580Y-94510860D03*
D16*
X144760000Y-120900000D03*
X149840000Y-120900000D03*
D17*
X162803200Y-86981200D03*
X164853200Y-86981200D03*
X162803200Y-84181200D03*
X164853200Y-84181200D03*
X152857200Y-90367360D03*
X154907200Y-90367360D03*
X152857200Y-85896960D03*
X154907200Y-85896960D03*
X152801320Y-81091280D03*
X154851320Y-81091280D03*
X163057200Y-74035200D03*
X165107200Y-74035200D03*
X163057200Y-71235200D03*
X165107200Y-71235200D03*
D20*
X122490000Y-84395500D03*
X122490000Y-82345500D03*
D17*
X118857200Y-79883600D03*
X116807200Y-79883600D03*
D26*
X182321200Y-50579200D03*
X183271200Y-48379200D03*
X181371200Y-48379200D03*
X162509200Y-51341200D03*
X163459200Y-49141200D03*
X161559200Y-49141200D03*
X151079200Y-32037200D03*
X152029200Y-29837200D03*
X150129200Y-29837200D03*
X200863200Y-50325200D03*
X201813200Y-48125200D03*
X199913200Y-48125200D03*
D27*
X116857200Y-83483600D03*
X119057200Y-84433600D03*
X119057200Y-82533600D03*
D14*
X190303200Y-31903200D03*
D13*
X194503200Y-31903200D03*
X190303200Y-37403200D03*
X194503200Y-37403200D03*
D15*
X192403200Y-24603200D03*
D14*
X173103200Y-31903200D03*
D13*
X177303200Y-31903200D03*
X173103200Y-37403200D03*
X177303200Y-37403200D03*
D15*
X175203200Y-24603200D03*
D14*
X156192800Y-31887200D03*
D13*
X160392800Y-31887200D03*
X156192800Y-37387200D03*
X160392800Y-37387200D03*
D15*
X158292800Y-24587200D03*
D13*
X83769200Y-110466200D03*
D14*
X83769200Y-115966200D03*
D15*
X83769200Y-123266200D03*
D13*
X95199200Y-110466200D03*
D14*
X95199200Y-115966200D03*
D15*
X95199200Y-123266200D03*
D13*
X135700000Y-110500000D03*
D14*
X135700000Y-116000000D03*
D15*
X135700000Y-123300000D03*
D13*
X124400000Y-110400000D03*
D14*
X124400000Y-115900000D03*
D15*
X124400000Y-123200000D03*
D13*
X157200000Y-110400000D03*
D14*
X157200000Y-115900000D03*
D15*
X157200000Y-123200000D03*
X203203200Y-82003200D03*
D13*
X190403200Y-82003200D03*
X190403200Y-77803200D03*
X190403200Y-73603200D03*
D14*
X195903200Y-73603200D03*
D13*
X195903200Y-77803200D03*
X195903200Y-82003200D03*
D15*
X203203200Y-73603200D03*
D21*
X121412000Y-23876000D03*
D22*
X118872000Y-23876000D03*
D21*
X134569200Y-47955200D03*
D22*
X137109200Y-47955200D03*
X139649200Y-47955200D03*
X142189200Y-47955200D03*
X144729200Y-47955200D03*
X147269200Y-47955200D03*
D21*
X138887200Y-88849200D03*
D22*
X138887200Y-86309200D03*
X138887200Y-83769200D03*
D13*
X145313400Y-110566200D03*
X150393400Y-110566200D03*
X201650600Y-110617000D03*
X196570600Y-110617000D03*
X106845100Y-33502600D03*
X106845100Y-28422600D03*
X92405200Y-55321200D03*
X97485200Y-55321200D03*
D17*
X111270000Y-104394000D03*
X109220000Y-104394000D03*
D28*
X181153400Y-103860600D03*
X178053400Y-103860600D03*
X168377200Y-103924100D03*
X165277200Y-103924100D03*
D27*
X97577200Y-81003200D03*
X95377200Y-80053200D03*
X95377200Y-81953200D03*
X187149900Y-78016000D03*
X184949900Y-77066000D03*
X184949900Y-78966000D03*
D17*
X83642200Y-103327200D03*
X85692200Y-103327200D03*
X126109200Y-101676200D03*
X124059200Y-101676200D03*
D20*
X104203200Y-99203200D03*
X104203200Y-97153200D03*
D17*
X94437200Y-103581200D03*
X96487200Y-103581200D03*
X134491200Y-104470200D03*
X136541200Y-104470200D03*
D16*
X118953200Y-99703200D03*
X118953200Y-101703200D03*
D17*
X90881200Y-103454200D03*
X88831200Y-103454200D03*
X130935200Y-104343200D03*
X128885200Y-104343200D03*
D20*
X110107200Y-101981000D03*
X110107200Y-99931000D03*
X110107200Y-112649000D03*
X110107200Y-114699000D03*
X88087200Y-118694200D03*
X88087200Y-116644200D03*
X131443200Y-117424200D03*
X131443200Y-119474200D03*
D16*
X104265200Y-116189000D03*
X104265200Y-114189000D03*
D20*
X90881200Y-118694200D03*
X90881200Y-116644200D03*
X128649200Y-119456200D03*
X128649200Y-117406200D03*
X179699900Y-72936000D03*
X179699900Y-70886000D03*
X179445900Y-82588000D03*
X179445900Y-84638000D03*
X180969900Y-77254000D03*
X180969900Y-79304000D03*
X177667900Y-77254000D03*
X177667900Y-79304000D03*
D17*
X119291100Y-35280600D03*
X121341100Y-35280600D03*
X121069100Y-29184600D03*
X123119100Y-29184600D03*
X118021100Y-29184600D03*
X115971100Y-29184600D03*
X164803200Y-81581200D03*
X162753200Y-81581200D03*
X140411200Y-56337200D03*
X142461200Y-56337200D03*
X144983200Y-60909200D03*
X147033200Y-60909200D03*
X147142200Y-63449200D03*
X145092200Y-63449200D03*
X134061200Y-59893200D03*
X132011200Y-59893200D03*
X142189200Y-66751200D03*
X140139200Y-66751200D03*
X134061200Y-62306200D03*
X132011200Y-62306200D03*
X135458200Y-68783200D03*
X137508200Y-68783200D03*
X135458200Y-66243200D03*
X137508200Y-66243200D03*
X165057200Y-76835200D03*
X163007200Y-76835200D03*
D29*
X147726400Y-38100000D03*
X147726400Y-43180000D03*
X147726400Y-30480000D03*
X147726400Y-25400000D03*
X131826000Y-25400000D03*
X131826000Y-30480000D03*
X131826000Y-43180000D03*
X131826000Y-38100000D03*
D12*
X144850000Y-116800000D03*
X149600000Y-116800000D03*
D11*
X73200000Y-23000000D03*
D12*
X132300000Y-110610000D03*
X127550000Y-110610000D03*
X86944000Y-110744000D03*
X91694000Y-110744000D03*
D20*
X74930000Y-69342000D03*
X74930000Y-67292000D03*
X74930000Y-74440000D03*
X74930000Y-72390000D03*
X74930000Y-59182000D03*
X74930000Y-57132000D03*
X74930000Y-64280000D03*
X74930000Y-62230000D03*
X74930000Y-82278000D03*
X74930000Y-84328000D03*
X74930000Y-80028000D03*
X74930000Y-77978000D03*
D30*
X112014000Y-58928000D03*
X106426000Y-60706000D03*
X99060000Y-62737998D03*
X92710006Y-70358000D03*
X90932000Y-73914000D03*
X152874980Y-104556560D03*
X110998000Y-53848000D03*
X102108000Y-45974000D03*
X153797000Y-75565000D03*
X152908000Y-92202000D03*
X89197691Y-32601875D03*
X89197691Y-24676875D03*
X135813800Y-61658500D03*
X96837500Y-59728100D03*
X143902488Y-62059457D03*
X139720064Y-65288445D03*
X141033500Y-65239900D03*
X112268000Y-79679800D03*
X113432200Y-81737200D03*
X94819900Y-99264210D03*
X89916000Y-98653600D03*
X132778200Y-104978200D03*
X107983199Y-100068201D03*
X141173200Y-32715200D03*
X100090011Y-82306364D03*
X179781200Y-68783200D03*
X184099200Y-53289200D03*
X164033200Y-56591200D03*
X197840220Y-39546746D03*
X163525200Y-47447200D03*
X93421200Y-102311200D03*
X93167200Y-114249200D03*
X136633022Y-64342288D03*
X179019200Y-76149200D03*
X142627001Y-52711001D03*
X135331200Y-59893200D03*
X142951200Y-58369200D03*
X142163800Y-40360600D03*
X138430000Y-65024000D03*
X130556000Y-60706000D03*
X166014400Y-72466200D03*
X167081200Y-88849200D03*
X179019200Y-79705200D03*
X141556505Y-68744985D03*
X139882762Y-52856943D03*
X143459200Y-60909200D03*
X130230785Y-62148553D03*
X147269200Y-64751602D03*
X130758798Y-62941200D03*
X100629401Y-29672599D03*
X107125000Y-99203200D03*
X191287400Y-85979000D03*
X101650000Y-38275000D03*
X99034913Y-97960985D03*
X111239702Y-98031702D03*
X100081986Y-71520414D03*
X101295200Y-90119200D03*
X100990012Y-88290012D03*
X88825000Y-105175000D03*
X127886939Y-103067966D03*
X90551000Y-105474002D03*
X125171200Y-27635200D03*
X110744004Y-43688000D03*
X92964000Y-44958000D03*
X120650000Y-43942000D03*
X109220000Y-59690000D03*
X109094101Y-53923899D03*
X105664000Y-46736000D03*
X135255000Y-97028000D03*
X127711200Y-96839190D03*
X131267200Y-36525200D03*
X92022200Y-96723200D03*
X184607200Y-79959200D03*
X184353200Y-76149200D03*
X102185604Y-83135604D03*
X112471200Y-77673200D03*
X94437200Y-84023200D03*
X94945200Y-78435200D03*
X140550900Y-110375700D03*
X94945200Y-119075200D03*
X86309200Y-114712791D03*
X130073400Y-119684800D03*
X107899200Y-102819200D03*
X130262752Y-101850804D03*
X92684600Y-99364800D03*
X126441200Y-100305610D03*
X124155200Y-100025200D03*
X138886091Y-68631909D03*
X146812000Y-67310000D03*
X126252859Y-77569046D03*
X85039200Y-98247200D03*
X129743200Y-77165200D03*
X87122000Y-99415600D03*
X87071200Y-100787200D03*
X151117300Y-71145400D03*
X134039084Y-71311328D03*
X156235400Y-81051400D03*
X158529778Y-69573665D03*
X146761200Y-55067200D03*
X156107360Y-85922360D03*
X157357641Y-68302109D03*
X146906436Y-56645348D03*
X156183560Y-90392760D03*
X156592173Y-67735410D03*
X146827844Y-57594512D03*
X164185600Y-94358460D03*
X176916080Y-94528640D03*
X156210000Y-93980000D03*
X99051967Y-68399913D03*
X180086000Y-34239200D03*
X139141200Y-41859200D03*
X142443200Y-42113200D03*
X119075200Y-78225722D03*
X79756000Y-55372000D03*
X148234400Y-41960800D03*
X147751800Y-36753800D03*
X77470000Y-60706000D03*
X118110000Y-110490000D03*
X100584000Y-109982000D03*
X162077400Y-41427400D03*
X204419200Y-55321200D03*
X96293293Y-64170661D03*
X94386400Y-64059165D03*
X132861751Y-65383159D03*
X123423362Y-75278515D03*
X137617200Y-59385200D03*
X127146031Y-73463190D03*
X106928745Y-67721655D03*
X132035000Y-67900000D03*
X130810000Y-66675000D03*
X167081200Y-70561200D03*
X161315400Y-85928200D03*
X172053210Y-74263210D03*
X144696820Y-52273200D03*
X133200000Y-67900000D03*
X137890262Y-61525190D03*
X158978600Y-90561160D03*
X144482481Y-71074010D03*
X140624010Y-73454420D03*
X143764000Y-76200000D03*
X130437379Y-102831808D03*
X132334367Y-102961886D03*
X88823800Y-101930200D03*
X92405200Y-101295200D03*
X140624010Y-75193814D03*
X148692383Y-71542629D03*
X133071802Y-71522232D03*
X150633418Y-40905418D03*
X152349200Y-42113200D03*
X155397200Y-41859200D03*
X151841200Y-26619200D03*
X150615610Y-42114209D03*
X155397200Y-44399200D03*
X189465200Y-56591200D03*
X156921200Y-54051200D03*
X169875200Y-56889200D03*
X89150000Y-34525000D03*
X95758000Y-43942000D03*
X151638000Y-92964000D03*
X146830000Y-70420000D03*
X131700000Y-56340000D03*
X174982511Y-78649990D03*
X145491200Y-53543200D03*
X133300000Y-69000000D03*
X139141200Y-62179200D03*
X103000000Y-67000000D03*
X96696751Y-65074542D03*
X138101245Y-72485290D03*
X97536000Y-68579998D03*
X94742002Y-69088000D03*
X135585200Y-74117200D03*
X140208000Y-63500000D03*
X130810000Y-48260000D03*
X134493000Y-91059000D03*
X109169200Y-92531801D03*
X93599000Y-93853000D03*
X131953000Y-91059000D03*
X76708000Y-61976000D03*
X72644000Y-62738000D03*
X73406000Y-74422000D03*
X76708000Y-77216000D03*
X79756000Y-67818000D03*
X90170000Y-69850000D03*
M02*
