M48
;DRILL file {KiCad 4.0.6} date 07/03/17 14:26:57
;FORMAT={-:-/ absolute / inch / decimal}
FMAT,2
INCH,TZ
T1C0.016
T2C0.033
T3C0.035
T4C0.036
T5C0.039
T6C0.043
T7C0.049
T8C0.059
T9C0.071
T10C0.118
T11C0.138
%
G90
G05
M72
T1
X2.86Y-2.47
X2.89Y-2.93
X3.02Y-2.44
X3.02Y-3.04
X3.05Y-2.39
X3.14Y-2.18
X3.14Y-2.67
X3.348Y-3.868
X3.398Y-4.5163
X3.428Y-3.968
X3.43Y-3.914
X3.497Y-4.013
X3.497Y-4.1407
X3.5098Y-1.3593
X3.5117Y-0.9715
X3.5117Y-1.2835
X3.54Y-3.884
X3.55Y-2.75
X3.565Y-4.1525
X3.58Y-2.91
X3.6229Y-3.808
X3.638Y-3.988
X3.649Y-3.912
X3.65Y-2.77
X3.66Y-1.77
X3.668Y-4.498
X3.678Y-4.028
X3.685Y-3.695
X3.716Y-2.522
X3.718Y-3.308
X3.73Y-2.72
X3.7331Y-3.908
X3.738Y-3.088
X3.738Y-4.688
X3.77Y-1.73
X3.7911Y-2.5264
X3.807Y-2.562
X3.8125Y-2.3515
X3.84Y-2.7
X3.899Y-3.8567
X3.8997Y-2.6929
X3.9Y-2.47
X3.9402Y-2.8158
X3.9406Y-3.2404
X3.96Y-4.33
X3.9618Y-1.1682
X3.976Y-3.476
X3.988Y-3.548
X4.002Y-1.5069
X4.02Y-1.81
X4.0231Y-3.2731
X4.0551Y-2.6378
X4.16Y-1.84
X4.19Y-2.39
X4.2098Y-2.6662
X4.2175Y-3.9056
X4.248Y-4.048
X4.2513Y-3.9397
X4.295Y-2.123
X4.298Y-3.643
X4.3Y-2.35
X4.36Y-1.72
X4.37Y-2.12
X4.3795Y-3.8595
X4.41Y-2.32
X4.42Y-3.137
X4.428Y-3.058
X4.4658Y-3.218
X4.65Y-4.35
X4.688Y-3.0798
X4.75Y-1.73
X4.8592Y-2.9637
X4.888Y-3.938
X4.928Y-1.088
X4.9706Y-3.0539
X4.978Y-3.949
X5.0057Y-2.8923
X5.028Y-3.8126
X5.0349Y-4.0578
X5.108Y-3.038
X5.121Y-4.712
X5.1272Y-2.4468
X5.1285Y-4.0099
X5.1353Y-4.0485
X5.14Y-2.39
X5.148Y-2.478
X5.15Y-1.9
X5.15Y-2.625
X5.168Y-1.438
X5.185Y-2.2181
X5.195Y-3.585
X5.1982Y-2.6732
X5.21Y-4.0536
X5.2275Y-4.133
X5.2308Y-2.5741
X5.239Y-2.8158
X5.2441Y-2.6732
X5.248Y-2.7165
X5.2771Y-2.8075
X5.295Y-3.585
X5.325Y-3.82
X5.328Y-2.358
X5.338Y-2.918
X5.347Y-2.4275
X5.3793Y-2.5332
X5.418Y-2.338
X5.4288Y-2.4223
X5.4371Y-2.8538
X5.45Y-2.56
X5.468Y-2.702
X5.478Y-1.648
X5.478Y-2.448
X5.5008Y-2.5704
X5.5072Y-2.081
X5.52Y-2.5
X5.5335Y-4.3455
X5.5364Y-2.8919
X5.5364Y-2.9604
X5.5525Y-2.5685
X5.558Y-1.288
X5.5731Y-2.7065
X5.597Y-1.589
X5.608Y-1.658
X5.6152Y-2.0752
X5.628Y-2.298
X5.648Y-2.398
X5.66Y-3.
X5.6655Y-2.4433
X5.6883Y-2.7982
X5.6967Y-2.058
X5.728Y-2.108
X5.778Y-2.168
X5.78Y-2.65
X5.7806Y-2.2675
X5.7807Y-2.7724
X5.7837Y-2.2301
X5.798Y-2.5493
X5.817Y-1.447
X5.836Y-1.652
X5.854Y-2.8166
X5.9297Y-1.658
X5.9304Y-1.6104
X5.9495Y-2.801
X5.97Y-3.66
X5.978Y-1.048
X5.998Y-1.658
X6.0187Y-4.1164
X6.02Y-3.63
X6.055Y-2.975
X6.118Y-1.648
X6.118Y-1.748
X6.146Y-3.3828
X6.149Y-3.5588
X6.15Y-3.7
X6.151Y-3.191
X6.165Y-2.6667
X6.178Y-2.128
X6.1952Y-2.6891
X6.2413Y-2.7391
X6.259Y-3.5654
X6.351Y-3.383
X6.381Y-1.631
X6.438Y-1.868
X6.458Y-2.228
X6.464Y-3.7149
X6.536Y-2.853
X6.578Y-2.778
X6.578Y-3.498
X6.688Y-2.2397
X6.7737Y-2.9237
X6.8891Y-3.0965
X6.9652Y-3.7216
X7.048Y-2.998
X7.048Y-3.138
X7.078Y-2.708
X7.09Y-1.348
X7.248Y-2.098
X7.258Y-2.998
X7.268Y-3.148
X7.4593Y-2.228
X7.531Y-3.385
X7.789Y-1.557
X8.048Y-2.178
T2
X4.1049Y-4.4956
X4.1049Y-4.5744
X4.6832Y-3.9253
X4.6832Y-4.0041
X5.6992Y-4.7598
X5.8992Y-4.7598
X7.7429Y-4.7638
X7.9429Y-4.7638
T3
X4.68Y-0.94
X4.78Y-0.94
X5.298Y-1.888
X5.398Y-1.888
X5.468Y-3.298
X5.468Y-3.398
X5.468Y-3.498
X5.498Y-1.888
X5.598Y-1.888
X5.698Y-1.888
X5.798Y-1.888
T4
X6.416Y-3.97
X6.416Y-4.37
X6.416Y-4.67
X6.716Y-3.97
X6.922Y-3.97
X6.922Y-4.37
X6.922Y-4.67
X7.222Y-3.97
T5
X4.5965Y-1.279
X4.6965Y-1.279
X4.7965Y-1.279
T6
X3.8683Y-2.8991
X3.8683Y-3.4591
X4.0883Y-3.4591
X4.0983Y-2.8991
X4.1665Y-1.589
X4.37Y-1.59
X4.56Y-1.59
X4.745Y-1.59
X4.925Y-1.59
X5.0008Y-3.2911
X5.0008Y-3.3961
X5.0008Y-3.5061
X6.9548Y-3.2715
X6.9648Y-2.8115
X7.1748Y-2.8115
X7.1748Y-3.2715
T7
X4.4549Y-3.925
X4.4549Y-4.025
X4.4549Y-4.125
X4.4549Y-4.425
X4.4549Y-4.525
T8
X3.638Y-2.178
X3.6383Y-1.9371
X3.838Y-2.178
X3.8383Y-1.9371
X4.2065Y-1.119
X4.2065Y-1.319
X5.721Y-4.353
X5.921Y-4.353
X7.739Y-4.355
X7.939Y-4.355
T9
X3.1924Y-1.9242
X3.1924Y-2.0896
X3.1924Y-2.2549
X3.1924Y-2.4203
X3.1924Y-2.5856
X3.1924Y-2.751
X3.1924Y-2.9164
X3.1924Y-3.0817
X3.1924Y-3.2471
X3.1924Y-3.4124
X3.1924Y-3.5778
X3.2154Y-1.588
X3.298Y-4.3491
X3.298Y-4.5656
X3.4089Y-1.9242
X3.4089Y-2.0896
X3.4089Y-2.2549
X3.4089Y-2.4203
X3.4089Y-2.5856
X3.4089Y-2.751
X3.4089Y-2.9164
X3.4089Y-3.0817
X3.4089Y-3.2471
X3.4089Y-3.4124
X3.4089Y-3.5778
X3.4319Y-1.588
X3.748Y-4.3491
X3.748Y-4.5656
X4.8976Y-4.3465
X4.8976Y-4.563
X5.3425Y-4.3504
X5.3425Y-4.5669
X6.1493Y-1.2554
X6.1493Y-1.4719
X6.189Y-4.3465
X6.189Y-4.563
X6.3147Y-1.2554
X6.3147Y-1.4719
X6.8151Y-1.256
X6.8151Y-1.4726
X6.9804Y-1.256
X6.9804Y-1.4726
X7.446Y-4.3465
X7.446Y-4.563
X7.4923Y-1.256
X7.4923Y-1.4726
X7.4962Y-2.8978
X7.4962Y-3.0631
X7.4962Y-3.2285
X7.6576Y-1.256
X7.6576Y-1.4726
X7.7127Y-2.8978
X7.7127Y-3.0631
X7.7127Y-3.2285
T10
X2.905Y-1.9242
X2.905Y-3.5778
X2.928Y-1.588
X3.298Y-4.853
X3.748Y-4.853
X4.8976Y-4.8504
X5.3425Y-4.8543
X6.189Y-4.8504
X6.232Y-0.968
X6.8978Y-0.9686
X7.446Y-4.8504
X7.5749Y-0.9686
X8.0001Y-2.8978
X8.0001Y-3.2285
T11
X2.8819Y-0.9055
X2.8819Y-4.0551
X8.Y-0.9055
X8.Y-4.0551
T0
M30
