G04 #@! TF.GenerationSoftware,KiCad,Pcbnew,5.0.2-bee76a0~70~ubuntu18.04.1*
G04 #@! TF.CreationDate,2019-01-12T17:32:51-05:00*
G04 #@! TF.ProjectId,Master_Board,4d617374-6572-45f4-926f-6172642e6b69,rev?*
G04 #@! TF.SameCoordinates,Original*
G04 #@! TF.FileFunction,Soldermask,Bot*
G04 #@! TF.FilePolarity,Negative*
%FSLAX46Y46*%
G04 Gerber Fmt 4.6, Leading zero omitted, Abs format (unit mm)*
G04 Created by KiCad (PCBNEW 5.0.2-bee76a0~70~ubuntu18.04.1) date Sat 12 Jan 2019 05:32:51 PM EST*
%MOMM*%
%LPD*%
G01*
G04 APERTURE LIST*
%ADD10C,0.100000*%
G04 APERTURE END LIST*
D10*
G36*
X215325225Y-127432233D02*
X215486223Y-127464258D01*
X215674677Y-127542318D01*
X215941193Y-127652712D01*
X216350660Y-127926310D01*
X216698874Y-128274524D01*
X216972472Y-128683991D01*
X217082866Y-128950507D01*
X217144036Y-129098184D01*
X217160926Y-129138962D01*
X217257000Y-129621954D01*
X217257000Y-130114414D01*
X217201670Y-130392572D01*
X217160926Y-130597407D01*
X217092335Y-130763000D01*
X216972472Y-131052377D01*
X216698874Y-131461844D01*
X216350660Y-131810058D01*
X215941193Y-132083656D01*
X215749638Y-132163000D01*
X215486223Y-132272110D01*
X215325225Y-132304135D01*
X215003230Y-132368184D01*
X214510770Y-132368184D01*
X214188775Y-132304135D01*
X214027777Y-132272110D01*
X213764362Y-132163000D01*
X213572807Y-132083656D01*
X213163340Y-131810058D01*
X212815126Y-131461844D01*
X212541528Y-131052377D01*
X212421665Y-130763000D01*
X212353074Y-130597407D01*
X212312330Y-130392572D01*
X212257000Y-130114414D01*
X212257000Y-129621954D01*
X212353074Y-129138962D01*
X212369965Y-129098184D01*
X212431134Y-128950507D01*
X212541528Y-128683991D01*
X212815126Y-128274524D01*
X213163340Y-127926310D01*
X213572807Y-127652712D01*
X213839323Y-127542318D01*
X214027777Y-127464258D01*
X214188775Y-127432233D01*
X214510770Y-127368184D01*
X215003230Y-127368184D01*
X215325225Y-127432233D01*
X215325225Y-127432233D01*
G37*
G36*
X90230225Y-127432233D02*
X90391223Y-127464258D01*
X90579677Y-127542318D01*
X90846193Y-127652712D01*
X91255660Y-127926310D01*
X91603874Y-128274524D01*
X91877472Y-128683991D01*
X91987866Y-128950507D01*
X92049036Y-129098184D01*
X92065926Y-129138962D01*
X92162000Y-129621954D01*
X92162000Y-130114414D01*
X92106670Y-130392572D01*
X92065926Y-130597407D01*
X91997335Y-130763000D01*
X91877472Y-131052377D01*
X91603874Y-131461844D01*
X91255660Y-131810058D01*
X90846193Y-132083656D01*
X90654638Y-132163000D01*
X90391223Y-132272110D01*
X90230225Y-132304135D01*
X89908230Y-132368184D01*
X89415770Y-132368184D01*
X89093775Y-132304135D01*
X88932777Y-132272110D01*
X88669362Y-132163000D01*
X88477807Y-132083656D01*
X88068340Y-131810058D01*
X87720126Y-131461844D01*
X87446528Y-131052377D01*
X87326665Y-130763000D01*
X87258074Y-130597407D01*
X87217330Y-130392572D01*
X87162000Y-130114414D01*
X87162000Y-129621954D01*
X87258074Y-129138962D01*
X87274965Y-129098184D01*
X87336134Y-128950507D01*
X87446528Y-128683991D01*
X87720126Y-128274524D01*
X88068340Y-127926310D01*
X88477807Y-127652712D01*
X88744323Y-127542318D01*
X88932777Y-127464258D01*
X89093775Y-127432233D01*
X89415770Y-127368184D01*
X89908230Y-127368184D01*
X90230225Y-127432233D01*
X90230225Y-127432233D01*
G37*
G36*
X127242000Y-132163000D02*
X125742000Y-132163000D01*
X125742000Y-130763000D01*
X127242000Y-130763000D01*
X127242000Y-132163000D01*
X127242000Y-132163000D01*
G37*
G36*
X114791612Y-129555221D02*
X115019096Y-129649448D01*
X115223831Y-129786248D01*
X115397936Y-129960353D01*
X115534736Y-130165088D01*
X115628963Y-130392572D01*
X115677000Y-130634069D01*
X115677000Y-130880299D01*
X115628963Y-131121796D01*
X115534736Y-131349280D01*
X115397936Y-131554015D01*
X115223831Y-131728120D01*
X115019096Y-131864920D01*
X114791612Y-131959147D01*
X114550115Y-132007184D01*
X114303885Y-132007184D01*
X114062388Y-131959147D01*
X113834904Y-131864920D01*
X113630169Y-131728120D01*
X113456064Y-131554015D01*
X113319264Y-131349280D01*
X113225037Y-131121796D01*
X113177000Y-130880299D01*
X113177000Y-130634069D01*
X113225037Y-130392572D01*
X113319264Y-130165088D01*
X113456064Y-129960353D01*
X113630169Y-129786248D01*
X113834904Y-129649448D01*
X114062388Y-129555221D01*
X114303885Y-129507184D01*
X114550115Y-129507184D01*
X114791612Y-129555221D01*
X114791612Y-129555221D01*
G37*
G36*
X109711612Y-129555221D02*
X109939096Y-129649448D01*
X110143831Y-129786248D01*
X110317936Y-129960353D01*
X110454736Y-130165088D01*
X110548963Y-130392572D01*
X110597000Y-130634069D01*
X110597000Y-130880299D01*
X110548963Y-131121796D01*
X110454736Y-131349280D01*
X110317936Y-131554015D01*
X110143831Y-131728120D01*
X109939096Y-131864920D01*
X109711612Y-131959147D01*
X109470115Y-132007184D01*
X109223885Y-132007184D01*
X108982388Y-131959147D01*
X108754904Y-131864920D01*
X108550169Y-131728120D01*
X108376064Y-131554015D01*
X108239264Y-131349280D01*
X108145037Y-131121796D01*
X108097000Y-130880299D01*
X108097000Y-130634069D01*
X108145037Y-130392572D01*
X108239264Y-130165088D01*
X108376064Y-129960353D01*
X108550169Y-129786248D01*
X108754904Y-129649448D01*
X108982388Y-129555221D01*
X109223885Y-129507184D01*
X109470115Y-129507184D01*
X109711612Y-129555221D01*
X109711612Y-129555221D01*
G37*
G36*
X130667000Y-130545692D02*
X128667000Y-130545692D01*
X128667000Y-128545692D01*
X130667000Y-128545692D01*
X130667000Y-130545692D01*
X130667000Y-130545692D01*
G37*
G36*
X148197000Y-130258000D02*
X146697000Y-130258000D01*
X146697000Y-128858000D01*
X148197000Y-128858000D01*
X148197000Y-130258000D01*
X148197000Y-130258000D01*
G37*
G36*
X127242000Y-130113000D02*
X125742000Y-130113000D01*
X125742000Y-128713000D01*
X127242000Y-128713000D01*
X127242000Y-130113000D01*
X127242000Y-130113000D01*
G37*
G36*
X156452000Y-130113000D02*
X154952000Y-130113000D01*
X154952000Y-128713000D01*
X156452000Y-128713000D01*
X156452000Y-130113000D01*
X156452000Y-130113000D01*
G37*
G36*
X105772000Y-130048184D02*
X104372000Y-130048184D01*
X104372000Y-129048184D01*
X105772000Y-129048184D01*
X105772000Y-130048184D01*
X105772000Y-130048184D01*
G37*
G36*
X163687000Y-129778000D02*
X161687000Y-129778000D01*
X161687000Y-127778000D01*
X163687000Y-127778000D01*
X163687000Y-129778000D01*
X163687000Y-129778000D01*
G37*
G36*
X171942000Y-129598184D02*
X169942000Y-129598184D01*
X169942000Y-127598184D01*
X171942000Y-127598184D01*
X171942000Y-129598184D01*
X171942000Y-129598184D01*
G37*
G36*
X173657770Y-127613556D02*
X173773689Y-127636613D01*
X173955678Y-127711995D01*
X174119463Y-127821433D01*
X174258751Y-127960721D01*
X174368189Y-128124506D01*
X174443571Y-128306495D01*
X174482000Y-128499693D01*
X174482000Y-128696675D01*
X174443571Y-128889873D01*
X174368189Y-129071862D01*
X174258751Y-129235647D01*
X174119463Y-129374935D01*
X173955678Y-129484373D01*
X173773689Y-129559755D01*
X173657770Y-129582812D01*
X173580493Y-129598184D01*
X173383507Y-129598184D01*
X173306230Y-129582812D01*
X173190311Y-129559755D01*
X173008322Y-129484373D01*
X172844537Y-129374935D01*
X172705249Y-129235647D01*
X172595811Y-129071862D01*
X172520429Y-128889873D01*
X172482000Y-128696675D01*
X172482000Y-128499693D01*
X172520429Y-128306495D01*
X172595811Y-128124506D01*
X172705249Y-127960721D01*
X172844537Y-127821433D01*
X173008322Y-127711995D01*
X173190311Y-127636613D01*
X173306230Y-127613556D01*
X173383507Y-127598184D01*
X173580493Y-127598184D01*
X173657770Y-127613556D01*
X173657770Y-127613556D01*
G37*
G36*
X176197770Y-127613556D02*
X176313689Y-127636613D01*
X176495678Y-127711995D01*
X176659463Y-127821433D01*
X176798751Y-127960721D01*
X176908189Y-128124506D01*
X176983571Y-128306495D01*
X177022000Y-128499693D01*
X177022000Y-128696675D01*
X176983571Y-128889873D01*
X176908189Y-129071862D01*
X176798751Y-129235647D01*
X176659463Y-129374935D01*
X176495678Y-129484373D01*
X176313689Y-129559755D01*
X176197770Y-129582812D01*
X176120493Y-129598184D01*
X175923507Y-129598184D01*
X175846230Y-129582812D01*
X175730311Y-129559755D01*
X175548322Y-129484373D01*
X175384537Y-129374935D01*
X175245249Y-129235647D01*
X175135811Y-129071862D01*
X175060429Y-128889873D01*
X175022000Y-128696675D01*
X175022000Y-128499693D01*
X175060429Y-128306495D01*
X175135811Y-128124506D01*
X175245249Y-127960721D01*
X175384537Y-127821433D01*
X175548322Y-127711995D01*
X175730311Y-127636613D01*
X175846230Y-127613556D01*
X175923507Y-127598184D01*
X176120493Y-127598184D01*
X176197770Y-127613556D01*
X176197770Y-127613556D01*
G37*
G36*
X178737770Y-127613556D02*
X178853689Y-127636613D01*
X179035678Y-127711995D01*
X179199463Y-127821433D01*
X179338751Y-127960721D01*
X179448189Y-128124506D01*
X179523571Y-128306495D01*
X179562000Y-128499693D01*
X179562000Y-128696675D01*
X179523571Y-128889873D01*
X179448189Y-129071862D01*
X179338751Y-129235647D01*
X179199463Y-129374935D01*
X179035678Y-129484373D01*
X178853689Y-129559755D01*
X178737770Y-129582812D01*
X178660493Y-129598184D01*
X178463507Y-129598184D01*
X178386230Y-129582812D01*
X178270311Y-129559755D01*
X178088322Y-129484373D01*
X177924537Y-129374935D01*
X177785249Y-129235647D01*
X177675811Y-129071862D01*
X177600429Y-128889873D01*
X177562000Y-128696675D01*
X177562000Y-128499693D01*
X177600429Y-128306495D01*
X177675811Y-128124506D01*
X177785249Y-127960721D01*
X177924537Y-127821433D01*
X178088322Y-127711995D01*
X178270311Y-127636613D01*
X178386230Y-127613556D01*
X178463507Y-127598184D01*
X178660493Y-127598184D01*
X178737770Y-127613556D01*
X178737770Y-127613556D01*
G37*
G36*
X181277770Y-127613556D02*
X181393689Y-127636613D01*
X181575678Y-127711995D01*
X181739463Y-127821433D01*
X181878751Y-127960721D01*
X181988189Y-128124506D01*
X182063571Y-128306495D01*
X182102000Y-128499693D01*
X182102000Y-128696675D01*
X182063571Y-128889873D01*
X181988189Y-129071862D01*
X181878751Y-129235647D01*
X181739463Y-129374935D01*
X181575678Y-129484373D01*
X181393689Y-129559755D01*
X181277770Y-129582812D01*
X181200493Y-129598184D01*
X181003507Y-129598184D01*
X180926230Y-129582812D01*
X180810311Y-129559755D01*
X180628322Y-129484373D01*
X180464537Y-129374935D01*
X180325249Y-129235647D01*
X180215811Y-129071862D01*
X180140429Y-128889873D01*
X180102000Y-128696675D01*
X180102000Y-128499693D01*
X180140429Y-128306495D01*
X180215811Y-128124506D01*
X180325249Y-127960721D01*
X180464537Y-127821433D01*
X180628322Y-127711995D01*
X180810311Y-127636613D01*
X180926230Y-127613556D01*
X181003507Y-127598184D01*
X181200493Y-127598184D01*
X181277770Y-127613556D01*
X181277770Y-127613556D01*
G37*
G36*
X183817770Y-127613556D02*
X183933689Y-127636613D01*
X184115678Y-127711995D01*
X184279463Y-127821433D01*
X184418751Y-127960721D01*
X184528189Y-128124506D01*
X184603571Y-128306495D01*
X184642000Y-128499693D01*
X184642000Y-128696675D01*
X184603571Y-128889873D01*
X184528189Y-129071862D01*
X184418751Y-129235647D01*
X184279463Y-129374935D01*
X184115678Y-129484373D01*
X183933689Y-129559755D01*
X183817770Y-129582812D01*
X183740493Y-129598184D01*
X183543507Y-129598184D01*
X183466230Y-129582812D01*
X183350311Y-129559755D01*
X183168322Y-129484373D01*
X183004537Y-129374935D01*
X182865249Y-129235647D01*
X182755811Y-129071862D01*
X182680429Y-128889873D01*
X182642000Y-128696675D01*
X182642000Y-128499693D01*
X182680429Y-128306495D01*
X182755811Y-128124506D01*
X182865249Y-127960721D01*
X183004537Y-127821433D01*
X183168322Y-127711995D01*
X183350311Y-127636613D01*
X183466230Y-127613556D01*
X183543507Y-127598184D01*
X183740493Y-127598184D01*
X183817770Y-127613556D01*
X183817770Y-127613556D01*
G37*
G36*
X205097000Y-129128184D02*
X204097000Y-129128184D01*
X204097000Y-127728184D01*
X205097000Y-127728184D01*
X205097000Y-129128184D01*
X205097000Y-129128184D01*
G37*
G36*
X107972000Y-129098184D02*
X106572000Y-129098184D01*
X106572000Y-128098184D01*
X107972000Y-128098184D01*
X107972000Y-129098184D01*
X107972000Y-129098184D01*
G37*
G36*
X103162000Y-128458000D02*
X101562000Y-128458000D01*
X101562000Y-126558000D01*
X103162000Y-126558000D01*
X103162000Y-128458000D01*
X103162000Y-128458000D01*
G37*
G36*
X100062000Y-128458000D02*
X98462000Y-128458000D01*
X98462000Y-126558000D01*
X100062000Y-126558000D01*
X100062000Y-128458000D01*
X100062000Y-128458000D01*
G37*
G36*
X133592000Y-128208000D02*
X132092000Y-128208000D01*
X132092000Y-126808000D01*
X133592000Y-126808000D01*
X133592000Y-128208000D01*
X133592000Y-128208000D01*
G37*
G36*
X148197000Y-128208000D02*
X146697000Y-128208000D01*
X146697000Y-126808000D01*
X148197000Y-126808000D01*
X148197000Y-128208000D01*
X148197000Y-128208000D01*
G37*
G36*
X105772000Y-128148184D02*
X104372000Y-128148184D01*
X104372000Y-127148184D01*
X105772000Y-127148184D01*
X105772000Y-128148184D01*
X105772000Y-128148184D01*
G37*
G36*
X156452000Y-128063000D02*
X154952000Y-128063000D01*
X154952000Y-126663000D01*
X156452000Y-126663000D01*
X156452000Y-128063000D01*
X156452000Y-128063000D01*
G37*
G36*
X129842770Y-126021064D02*
X129958689Y-126044121D01*
X130140678Y-126119503D01*
X130304463Y-126228941D01*
X130443751Y-126368229D01*
X130553189Y-126532014D01*
X130628571Y-126714003D01*
X130667000Y-126907201D01*
X130667000Y-127104183D01*
X130628571Y-127297381D01*
X130553189Y-127479370D01*
X130443751Y-127643155D01*
X130304463Y-127782443D01*
X130140678Y-127891881D01*
X129958689Y-127967263D01*
X129842770Y-127990320D01*
X129765493Y-128005692D01*
X129568507Y-128005692D01*
X129491230Y-127990320D01*
X129375311Y-127967263D01*
X129193322Y-127891881D01*
X129029537Y-127782443D01*
X128890249Y-127643155D01*
X128780811Y-127479370D01*
X128705429Y-127297381D01*
X128667000Y-127104183D01*
X128667000Y-126907201D01*
X128705429Y-126714003D01*
X128780811Y-126532014D01*
X128890249Y-126368229D01*
X129029537Y-126228941D01*
X129193322Y-126119503D01*
X129375311Y-126044121D01*
X129491230Y-126021064D01*
X129568507Y-126005692D01*
X129765493Y-126005692D01*
X129842770Y-126021064D01*
X129842770Y-126021064D01*
G37*
G36*
X199727000Y-127443184D02*
X198327000Y-127443184D01*
X198327000Y-125943184D01*
X199727000Y-125943184D01*
X199727000Y-127443184D01*
X199727000Y-127443184D01*
G37*
G36*
X197677000Y-127443184D02*
X196277000Y-127443184D01*
X196277000Y-125943184D01*
X197677000Y-125943184D01*
X197677000Y-127443184D01*
X197677000Y-127443184D01*
G37*
G36*
X162857760Y-125252375D02*
X162978689Y-125276429D01*
X163160678Y-125351811D01*
X163324463Y-125461249D01*
X163463751Y-125600537D01*
X163573189Y-125764322D01*
X163648571Y-125946311D01*
X163660382Y-126005692D01*
X163687000Y-126139507D01*
X163687000Y-126336493D01*
X163680688Y-126368226D01*
X163648571Y-126529689D01*
X163573189Y-126711678D01*
X163463751Y-126875463D01*
X163324463Y-127014751D01*
X163160678Y-127124189D01*
X162978689Y-127199571D01*
X162862770Y-127222628D01*
X162785493Y-127238000D01*
X162588507Y-127238000D01*
X162511230Y-127222628D01*
X162395311Y-127199571D01*
X162213322Y-127124189D01*
X162049537Y-127014751D01*
X161910249Y-126875463D01*
X161800811Y-126711678D01*
X161725429Y-126529689D01*
X161693312Y-126368226D01*
X161687000Y-126336493D01*
X161687000Y-126139507D01*
X161713618Y-126005692D01*
X161725429Y-125946311D01*
X161800811Y-125764322D01*
X161910249Y-125600537D01*
X162049537Y-125461249D01*
X162213322Y-125351811D01*
X162395311Y-125276429D01*
X162516240Y-125252375D01*
X162588507Y-125238000D01*
X162785493Y-125238000D01*
X162857760Y-125252375D01*
X162857760Y-125252375D01*
G37*
G36*
X206047000Y-126928184D02*
X205047000Y-126928184D01*
X205047000Y-125528184D01*
X206047000Y-125528184D01*
X206047000Y-126928184D01*
X206047000Y-126928184D01*
G37*
G36*
X204147000Y-126928184D02*
X203147000Y-126928184D01*
X203147000Y-125528184D01*
X204147000Y-125528184D01*
X204147000Y-126928184D01*
X204147000Y-126928184D01*
G37*
G36*
X113857000Y-126353000D02*
X112457000Y-126353000D01*
X112457000Y-124853000D01*
X113857000Y-124853000D01*
X113857000Y-126353000D01*
X113857000Y-126353000D01*
G37*
G36*
X115907000Y-126353000D02*
X114507000Y-126353000D01*
X114507000Y-124853000D01*
X115907000Y-124853000D01*
X115907000Y-126353000D01*
X115907000Y-126353000D01*
G37*
G36*
X133592000Y-126158000D02*
X132092000Y-126158000D01*
X132092000Y-124758000D01*
X133592000Y-124758000D01*
X133592000Y-126158000D01*
X133592000Y-126158000D01*
G37*
G36*
X129842770Y-123481064D02*
X129958689Y-123504121D01*
X130140678Y-123579503D01*
X130304463Y-123688941D01*
X130443751Y-123828229D01*
X130553189Y-123992014D01*
X130628571Y-124174003D01*
X130667000Y-124367201D01*
X130667000Y-124564183D01*
X130628571Y-124757381D01*
X130553189Y-124939370D01*
X130443751Y-125103155D01*
X130304463Y-125242443D01*
X130140678Y-125351881D01*
X129958689Y-125427263D01*
X129842770Y-125450320D01*
X129765493Y-125465692D01*
X129568507Y-125465692D01*
X129491230Y-125450320D01*
X129375311Y-125427263D01*
X129193322Y-125351881D01*
X129029537Y-125242443D01*
X128890249Y-125103155D01*
X128780811Y-124939370D01*
X128705429Y-124757381D01*
X128667000Y-124564183D01*
X128667000Y-124367201D01*
X128705429Y-124174003D01*
X128780811Y-123992014D01*
X128890249Y-123828229D01*
X129029537Y-123688941D01*
X129193322Y-123579503D01*
X129375311Y-123504121D01*
X129491230Y-123481064D01*
X129568507Y-123465692D01*
X129765493Y-123465692D01*
X129842770Y-123481064D01*
X129842770Y-123481064D01*
G37*
G36*
X215099189Y-121977703D02*
X215268623Y-122011405D01*
X215587831Y-122143625D01*
X215874141Y-122334931D01*
X215875113Y-122335581D01*
X216119419Y-122579887D01*
X216119421Y-122579890D01*
X216311375Y-122867169D01*
X216410262Y-123105904D01*
X216443595Y-123186378D01*
X216511000Y-123525245D01*
X216511000Y-123870755D01*
X216486880Y-123992014D01*
X216443595Y-124209623D01*
X216311375Y-124528831D01*
X216158249Y-124758000D01*
X216119419Y-124816113D01*
X215875113Y-125060419D01*
X215875110Y-125060421D01*
X215587831Y-125252375D01*
X215268623Y-125384595D01*
X215099188Y-125418298D01*
X214929755Y-125452000D01*
X214584245Y-125452000D01*
X214414812Y-125418298D01*
X214245377Y-125384595D01*
X213926169Y-125252375D01*
X213638890Y-125060421D01*
X213638887Y-125060419D01*
X213394581Y-124816113D01*
X213355751Y-124758000D01*
X213202625Y-124528831D01*
X213070405Y-124209623D01*
X213027120Y-123992014D01*
X213003000Y-123870755D01*
X213003000Y-123525245D01*
X213070405Y-123186378D01*
X213103738Y-123105904D01*
X213202625Y-122867169D01*
X213394579Y-122579890D01*
X213394581Y-122579887D01*
X213638887Y-122335581D01*
X213639860Y-122334931D01*
X213926169Y-122143625D01*
X214245377Y-122011405D01*
X214414811Y-121977703D01*
X214584245Y-121944000D01*
X214929755Y-121944000D01*
X215099189Y-121977703D01*
X215099189Y-121977703D01*
G37*
G36*
X202321612Y-122496037D02*
X202549096Y-122590264D01*
X202753831Y-122727064D01*
X202927936Y-122901169D01*
X203064736Y-123105904D01*
X203158963Y-123333388D01*
X203207000Y-123574885D01*
X203207000Y-123821115D01*
X203158963Y-124062612D01*
X203064736Y-124290096D01*
X202927936Y-124494831D01*
X202753831Y-124668936D01*
X202549096Y-124805736D01*
X202321612Y-124899963D01*
X202080115Y-124948000D01*
X201833885Y-124948000D01*
X201592388Y-124899963D01*
X201364904Y-124805736D01*
X201160169Y-124668936D01*
X200986064Y-124494831D01*
X200849264Y-124290096D01*
X200755037Y-124062612D01*
X200707000Y-123821115D01*
X200707000Y-123574885D01*
X200755037Y-123333388D01*
X200849264Y-123105904D01*
X200986064Y-122901169D01*
X201160169Y-122727064D01*
X201364904Y-122590264D01*
X201592388Y-122496037D01*
X201833885Y-122448000D01*
X202080115Y-122448000D01*
X202321612Y-122496037D01*
X202321612Y-122496037D01*
G37*
G36*
X208707000Y-124948000D02*
X206207000Y-124948000D01*
X206207000Y-122448000D01*
X208707000Y-122448000D01*
X208707000Y-124948000D01*
X208707000Y-124948000D01*
G37*
G36*
X89750189Y-121425887D02*
X89919623Y-121459589D01*
X90238831Y-121591809D01*
X90525141Y-121783115D01*
X90526113Y-121783765D01*
X90770419Y-122028071D01*
X90770421Y-122028074D01*
X90962375Y-122315353D01*
X91094595Y-122634561D01*
X91112995Y-122727064D01*
X91147627Y-122901169D01*
X91162000Y-122973430D01*
X91162000Y-123318938D01*
X91094595Y-123657807D01*
X90962375Y-123977015D01*
X90806951Y-124209623D01*
X90770419Y-124264297D01*
X90526113Y-124508603D01*
X90526110Y-124508605D01*
X90238831Y-124700559D01*
X89919623Y-124832779D01*
X89750189Y-124866481D01*
X89580755Y-124900184D01*
X89235245Y-124900184D01*
X89065811Y-124866481D01*
X88896377Y-124832779D01*
X88577169Y-124700559D01*
X88289890Y-124508605D01*
X88289887Y-124508603D01*
X88045581Y-124264297D01*
X88009049Y-124209623D01*
X87853625Y-123977015D01*
X87721405Y-123657807D01*
X87654000Y-123318938D01*
X87654000Y-122973430D01*
X87668374Y-122901169D01*
X87703005Y-122727064D01*
X87721405Y-122634561D01*
X87853625Y-122315353D01*
X88045579Y-122028074D01*
X88045581Y-122028071D01*
X88289887Y-121783765D01*
X88290860Y-121783115D01*
X88577169Y-121591809D01*
X88896377Y-121459589D01*
X89065811Y-121425887D01*
X89235245Y-121392184D01*
X89580755Y-121392184D01*
X89750189Y-121425887D01*
X89750189Y-121425887D01*
G37*
G36*
X102572612Y-121944221D02*
X102800096Y-122038448D01*
X103004831Y-122175248D01*
X103178936Y-122349353D01*
X103315736Y-122554088D01*
X103409963Y-122781572D01*
X103458000Y-123023069D01*
X103458000Y-123269299D01*
X103409963Y-123510796D01*
X103315736Y-123738280D01*
X103178936Y-123943015D01*
X103004831Y-124117120D01*
X102800096Y-124253920D01*
X102572612Y-124348147D01*
X102331115Y-124396184D01*
X102084885Y-124396184D01*
X101843388Y-124348147D01*
X101615904Y-124253920D01*
X101411169Y-124117120D01*
X101237064Y-123943015D01*
X101100264Y-123738280D01*
X101006037Y-123510796D01*
X100958000Y-123269299D01*
X100958000Y-123023069D01*
X101006037Y-122781572D01*
X101100264Y-122554088D01*
X101237064Y-122349353D01*
X101411169Y-122175248D01*
X101615904Y-122038448D01*
X101843388Y-121944221D01*
X102084885Y-121896184D01*
X102331115Y-121896184D01*
X102572612Y-121944221D01*
X102572612Y-121944221D01*
G37*
G36*
X97958000Y-124396184D02*
X95458000Y-124396184D01*
X95458000Y-121896184D01*
X97958000Y-121896184D01*
X97958000Y-124396184D01*
X97958000Y-124396184D01*
G37*
G36*
X115907000Y-123813000D02*
X114507000Y-123813000D01*
X114507000Y-122313000D01*
X115907000Y-122313000D01*
X115907000Y-123813000D01*
X115907000Y-123813000D01*
G37*
G36*
X113857000Y-123813000D02*
X112457000Y-123813000D01*
X112457000Y-122313000D01*
X113857000Y-122313000D01*
X113857000Y-123813000D01*
X113857000Y-123813000D01*
G37*
G36*
X111367000Y-123273000D02*
X109867000Y-123273000D01*
X109867000Y-121873000D01*
X111367000Y-121873000D01*
X111367000Y-123273000D01*
X111367000Y-123273000D01*
G37*
G36*
X205097000Y-122143184D02*
X204097000Y-122143184D01*
X204097000Y-120743184D01*
X205097000Y-120743184D01*
X205097000Y-122143184D01*
X205097000Y-122143184D01*
G37*
G36*
X111367000Y-121223000D02*
X109867000Y-121223000D01*
X109867000Y-119823000D01*
X111367000Y-119823000D01*
X111367000Y-121223000D01*
X111367000Y-121223000D01*
G37*
G36*
X116447000Y-121223000D02*
X114947000Y-121223000D01*
X114947000Y-119823000D01*
X116447000Y-119823000D01*
X116447000Y-121223000D01*
X116447000Y-121223000D01*
G37*
G36*
X113907000Y-121223000D02*
X112407000Y-121223000D01*
X112407000Y-119823000D01*
X113907000Y-119823000D01*
X113907000Y-121223000D01*
X113907000Y-121223000D01*
G37*
G36*
X157767000Y-120253000D02*
X153767000Y-120253000D01*
X153767000Y-118253000D01*
X157767000Y-118253000D01*
X157767000Y-120253000D01*
X157767000Y-120253000D01*
G37*
G36*
X150147000Y-120253000D02*
X146147000Y-120253000D01*
X146147000Y-118253000D01*
X150147000Y-118253000D01*
X150147000Y-120253000D01*
X150147000Y-120253000D01*
G37*
G36*
X165387000Y-120253000D02*
X161387000Y-120253000D01*
X161387000Y-118253000D01*
X165387000Y-118253000D01*
X165387000Y-120253000D01*
X165387000Y-120253000D01*
G37*
G36*
X142527000Y-120253000D02*
X138527000Y-120253000D01*
X138527000Y-118253000D01*
X142527000Y-118253000D01*
X142527000Y-120253000D01*
X142527000Y-120253000D01*
G37*
G36*
X134907000Y-120253000D02*
X130907000Y-120253000D01*
X130907000Y-118253000D01*
X134907000Y-118253000D01*
X134907000Y-120253000D01*
X134907000Y-120253000D01*
G37*
G36*
X197677000Y-120246516D02*
X196277000Y-120246516D01*
X196277000Y-118746516D01*
X197677000Y-118746516D01*
X197677000Y-120246516D01*
X197677000Y-120246516D01*
G37*
G36*
X199727000Y-120246516D02*
X198327000Y-120246516D01*
X198327000Y-118746516D01*
X199727000Y-118746516D01*
X199727000Y-120246516D01*
X199727000Y-120246516D01*
G37*
G36*
X97072612Y-117744221D02*
X97300096Y-117838448D01*
X97504831Y-117975248D01*
X97678936Y-118149353D01*
X97815736Y-118354088D01*
X97909963Y-118581572D01*
X97958000Y-118823069D01*
X97958000Y-119069299D01*
X97909963Y-119310796D01*
X97815736Y-119538280D01*
X97678936Y-119743015D01*
X97504831Y-119917120D01*
X97300096Y-120053920D01*
X97072612Y-120148147D01*
X96831115Y-120196184D01*
X96584885Y-120196184D01*
X96343388Y-120148147D01*
X96115904Y-120053920D01*
X95911169Y-119917120D01*
X95737064Y-119743015D01*
X95600264Y-119538280D01*
X95506037Y-119310796D01*
X95458000Y-119069299D01*
X95458000Y-118823069D01*
X95506037Y-118581572D01*
X95600264Y-118354088D01*
X95737064Y-118149353D01*
X95911169Y-117975248D01*
X96115904Y-117838448D01*
X96343388Y-117744221D01*
X96584885Y-117696184D01*
X96831115Y-117696184D01*
X97072612Y-117744221D01*
X97072612Y-117744221D01*
G37*
G36*
X102572612Y-117744221D02*
X102800096Y-117838448D01*
X103004831Y-117975248D01*
X103178936Y-118149353D01*
X103315736Y-118354088D01*
X103409963Y-118581572D01*
X103458000Y-118823069D01*
X103458000Y-119069299D01*
X103409963Y-119310796D01*
X103315736Y-119538280D01*
X103178936Y-119743015D01*
X103004831Y-119917120D01*
X102800096Y-120053920D01*
X102572612Y-120148147D01*
X102331115Y-120196184D01*
X102084885Y-120196184D01*
X101843388Y-120148147D01*
X101615904Y-120053920D01*
X101411169Y-119917120D01*
X101237064Y-119743015D01*
X101100264Y-119538280D01*
X101006037Y-119310796D01*
X100958000Y-119069299D01*
X100958000Y-118823069D01*
X101006037Y-118581572D01*
X101100264Y-118354088D01*
X101237064Y-118149353D01*
X101411169Y-117975248D01*
X101615904Y-117838448D01*
X101843388Y-117744221D01*
X102084885Y-117696184D01*
X102331115Y-117696184D01*
X102572612Y-117744221D01*
X102572612Y-117744221D01*
G37*
G36*
X206047000Y-119943184D02*
X205047000Y-119943184D01*
X205047000Y-118543184D01*
X206047000Y-118543184D01*
X206047000Y-119943184D01*
X206047000Y-119943184D01*
G37*
G36*
X204147000Y-119943184D02*
X203147000Y-119943184D01*
X203147000Y-118543184D01*
X204147000Y-118543184D01*
X204147000Y-119943184D01*
X204147000Y-119943184D01*
G37*
G36*
X111367000Y-119318000D02*
X109867000Y-119318000D01*
X109867000Y-117918000D01*
X111367000Y-117918000D01*
X111367000Y-119318000D01*
X111367000Y-119318000D01*
G37*
G36*
X113907000Y-119173000D02*
X112407000Y-119173000D01*
X112407000Y-117773000D01*
X113907000Y-117773000D01*
X113907000Y-119173000D01*
X113907000Y-119173000D01*
G37*
G36*
X116447000Y-119173000D02*
X114947000Y-119173000D01*
X114947000Y-117773000D01*
X116447000Y-117773000D01*
X116447000Y-119173000D01*
X116447000Y-119173000D01*
G37*
G36*
X215099188Y-114992702D02*
X215268623Y-115026405D01*
X215587831Y-115158625D01*
X215856703Y-115338280D01*
X215875113Y-115350581D01*
X216119419Y-115594887D01*
X216119421Y-115594890D01*
X216311375Y-115882169D01*
X216443595Y-116201377D01*
X216511000Y-116540246D01*
X216511000Y-116885754D01*
X216443595Y-117224623D01*
X216311375Y-117543831D01*
X216177478Y-117744221D01*
X216119419Y-117831113D01*
X215875113Y-118075419D01*
X215875110Y-118075421D01*
X215587831Y-118267375D01*
X215268623Y-118399595D01*
X215099189Y-118433297D01*
X214929755Y-118467000D01*
X214584245Y-118467000D01*
X214414811Y-118433297D01*
X214245377Y-118399595D01*
X213926169Y-118267375D01*
X213638890Y-118075421D01*
X213638887Y-118075419D01*
X213394581Y-117831113D01*
X213336522Y-117744221D01*
X213202625Y-117543831D01*
X213070405Y-117224623D01*
X213003000Y-116885754D01*
X213003000Y-116540246D01*
X213070405Y-116201377D01*
X213202625Y-115882169D01*
X213394579Y-115594890D01*
X213394581Y-115594887D01*
X213638887Y-115350581D01*
X213657297Y-115338280D01*
X213926169Y-115158625D01*
X214245377Y-115026405D01*
X214414812Y-114992702D01*
X214584245Y-114959000D01*
X214929755Y-114959000D01*
X215099188Y-114992702D01*
X215099188Y-114992702D01*
G37*
G36*
X123584089Y-118056840D02*
X119584089Y-118056840D01*
X119584089Y-116056840D01*
X123584089Y-116056840D01*
X123584089Y-118056840D01*
X123584089Y-118056840D01*
G37*
G36*
X208707000Y-117963000D02*
X206207000Y-117963000D01*
X206207000Y-115463000D01*
X208707000Y-115463000D01*
X208707000Y-117963000D01*
X208707000Y-117963000D01*
G37*
G36*
X202321612Y-115511037D02*
X202549096Y-115605264D01*
X202753831Y-115742064D01*
X202927936Y-115916169D01*
X203064736Y-116120904D01*
X203158963Y-116348388D01*
X203207000Y-116589885D01*
X203207000Y-116836115D01*
X203158963Y-117077612D01*
X203064736Y-117305096D01*
X202927936Y-117509831D01*
X202753831Y-117683936D01*
X202549096Y-117820736D01*
X202321612Y-117914963D01*
X202080115Y-117963000D01*
X201833885Y-117963000D01*
X201592388Y-117914963D01*
X201364904Y-117820736D01*
X201160169Y-117683936D01*
X200986064Y-117509831D01*
X200849264Y-117305096D01*
X200755037Y-117077612D01*
X200707000Y-116836115D01*
X200707000Y-116589885D01*
X200755037Y-116348388D01*
X200849264Y-116120904D01*
X200986064Y-115916169D01*
X201160169Y-115742064D01*
X201364904Y-115605264D01*
X201592388Y-115511037D01*
X201833885Y-115463000D01*
X202080115Y-115463000D01*
X202321612Y-115511037D01*
X202321612Y-115511037D01*
G37*
G36*
X147367000Y-117463000D02*
X145967000Y-117463000D01*
X145967000Y-115963000D01*
X147367000Y-115963000D01*
X147367000Y-117463000D01*
X147367000Y-117463000D01*
G37*
G36*
X142432000Y-117463000D02*
X141032000Y-117463000D01*
X141032000Y-115963000D01*
X142432000Y-115963000D01*
X142432000Y-117463000D01*
X142432000Y-117463000D01*
G37*
G36*
X140382000Y-117463000D02*
X138982000Y-117463000D01*
X138982000Y-115963000D01*
X140382000Y-115963000D01*
X140382000Y-117463000D01*
X140382000Y-117463000D01*
G37*
G36*
X134812000Y-117463000D02*
X133412000Y-117463000D01*
X133412000Y-115963000D01*
X134812000Y-115963000D01*
X134812000Y-117463000D01*
X134812000Y-117463000D01*
G37*
G36*
X132762000Y-117463000D02*
X131362000Y-117463000D01*
X131362000Y-115963000D01*
X132762000Y-115963000D01*
X132762000Y-117463000D01*
X132762000Y-117463000D01*
G37*
G36*
X149417000Y-117463000D02*
X148017000Y-117463000D01*
X148017000Y-115963000D01*
X149417000Y-115963000D01*
X149417000Y-117463000D01*
X149417000Y-117463000D01*
G37*
G36*
X111367000Y-117268000D02*
X109867000Y-117268000D01*
X109867000Y-115868000D01*
X111367000Y-115868000D01*
X111367000Y-117268000D01*
X111367000Y-117268000D01*
G37*
G36*
X89750188Y-113025886D02*
X89919623Y-113059589D01*
X90238831Y-113191809D01*
X90525141Y-113383115D01*
X90526113Y-113383765D01*
X90770419Y-113628071D01*
X90770421Y-113628074D01*
X90962375Y-113915353D01*
X91094595Y-114234561D01*
X91162000Y-114573430D01*
X91162000Y-114918938D01*
X91094595Y-115257807D01*
X90962375Y-115577015D01*
X90777353Y-115853919D01*
X90770419Y-115864297D01*
X90526113Y-116108603D01*
X90526110Y-116108605D01*
X90238831Y-116300559D01*
X89919623Y-116432779D01*
X89750189Y-116466481D01*
X89580755Y-116500184D01*
X89235245Y-116500184D01*
X89065811Y-116466481D01*
X88896377Y-116432779D01*
X88577169Y-116300559D01*
X88289890Y-116108605D01*
X88289887Y-116108603D01*
X88045581Y-115864297D01*
X88038647Y-115853919D01*
X87853625Y-115577015D01*
X87721405Y-115257807D01*
X87654000Y-114918938D01*
X87654000Y-114573430D01*
X87721405Y-114234561D01*
X87853625Y-113915353D01*
X88045579Y-113628074D01*
X88045581Y-113628071D01*
X88289887Y-113383765D01*
X88290859Y-113383115D01*
X88577169Y-113191809D01*
X88896377Y-113059589D01*
X89065812Y-113025886D01*
X89235245Y-112992184D01*
X89580755Y-112992184D01*
X89750188Y-113025886D01*
X89750188Y-113025886D01*
G37*
G36*
X102572612Y-113544221D02*
X102800096Y-113638448D01*
X103004831Y-113775248D01*
X103178936Y-113949353D01*
X103315736Y-114154088D01*
X103409963Y-114381572D01*
X103458000Y-114623069D01*
X103458000Y-114869299D01*
X103409963Y-115110796D01*
X103315736Y-115338280D01*
X103178936Y-115543015D01*
X103004831Y-115717120D01*
X102800096Y-115853920D01*
X102572612Y-115948147D01*
X102331115Y-115996184D01*
X102084885Y-115996184D01*
X101843388Y-115948147D01*
X101615904Y-115853920D01*
X101411169Y-115717120D01*
X101237064Y-115543015D01*
X101100264Y-115338280D01*
X101006037Y-115110796D01*
X100958000Y-114869299D01*
X100958000Y-114623069D01*
X101006037Y-114381572D01*
X101100264Y-114154088D01*
X101237064Y-113949353D01*
X101411169Y-113775248D01*
X101615904Y-113638448D01*
X101843388Y-113544221D01*
X102084885Y-113496184D01*
X102331115Y-113496184D01*
X102572612Y-113544221D01*
X102572612Y-113544221D01*
G37*
G36*
X97072612Y-113544221D02*
X97300096Y-113638448D01*
X97504831Y-113775248D01*
X97678936Y-113949353D01*
X97815736Y-114154088D01*
X97909963Y-114381572D01*
X97958000Y-114623069D01*
X97958000Y-114869299D01*
X97909963Y-115110796D01*
X97815736Y-115338280D01*
X97678936Y-115543015D01*
X97504831Y-115717120D01*
X97300096Y-115853920D01*
X97072612Y-115948147D01*
X96831115Y-115996184D01*
X96584885Y-115996184D01*
X96343388Y-115948147D01*
X96115904Y-115853920D01*
X95911169Y-115717120D01*
X95737064Y-115543015D01*
X95600264Y-115338280D01*
X95506037Y-115110796D01*
X95458000Y-114869299D01*
X95458000Y-114623069D01*
X95506037Y-114381572D01*
X95600264Y-114154088D01*
X95737064Y-113949353D01*
X95911169Y-113775248D01*
X96115904Y-113638448D01*
X96343388Y-113544221D01*
X96584885Y-113496184D01*
X96831115Y-113496184D01*
X97072612Y-113544221D01*
X97072612Y-113544221D01*
G37*
G36*
X123584089Y-115549923D02*
X119584089Y-115549923D01*
X119584089Y-113549923D01*
X123584089Y-113549923D01*
X123584089Y-115549923D01*
X123584089Y-115549923D01*
G37*
G36*
X205097000Y-115158184D02*
X204097000Y-115158184D01*
X204097000Y-113758184D01*
X205097000Y-113758184D01*
X205097000Y-115158184D01*
X205097000Y-115158184D01*
G37*
G36*
X197677000Y-113049850D02*
X196277000Y-113049850D01*
X196277000Y-111549850D01*
X197677000Y-111549850D01*
X197677000Y-113049850D01*
X197677000Y-113049850D01*
G37*
G36*
X199727000Y-113049850D02*
X198327000Y-113049850D01*
X198327000Y-111549850D01*
X199727000Y-111549850D01*
X199727000Y-113049850D01*
X199727000Y-113049850D01*
G37*
G36*
X123584089Y-112976840D02*
X119584089Y-112976840D01*
X119584089Y-110976840D01*
X123584089Y-110976840D01*
X123584089Y-112976840D01*
X123584089Y-112976840D01*
G37*
G36*
X206047000Y-112958184D02*
X205047000Y-112958184D01*
X205047000Y-111558184D01*
X206047000Y-111558184D01*
X206047000Y-112958184D01*
X206047000Y-112958184D01*
G37*
G36*
X204147000Y-112958184D02*
X203147000Y-112958184D01*
X203147000Y-111558184D01*
X204147000Y-111558184D01*
X204147000Y-112958184D01*
X204147000Y-112958184D01*
G37*
G36*
X215099188Y-108007702D02*
X215268623Y-108041405D01*
X215587831Y-108173625D01*
X215874141Y-108364931D01*
X215875113Y-108365581D01*
X216119419Y-108609887D01*
X216119421Y-108609890D01*
X216311375Y-108897169D01*
X216443595Y-109216377D01*
X216511000Y-109555246D01*
X216511000Y-109900754D01*
X216443595Y-110239623D01*
X216311375Y-110558831D01*
X216217758Y-110698938D01*
X216119419Y-110846113D01*
X215875113Y-111090419D01*
X215875110Y-111090421D01*
X215587831Y-111282375D01*
X215268623Y-111414595D01*
X215099188Y-111448298D01*
X214929755Y-111482000D01*
X214584245Y-111482000D01*
X214414812Y-111448298D01*
X214245377Y-111414595D01*
X213926169Y-111282375D01*
X213638890Y-111090421D01*
X213638887Y-111090419D01*
X213394581Y-110846113D01*
X213296242Y-110698938D01*
X213202625Y-110558831D01*
X213070405Y-110239623D01*
X213003000Y-109900754D01*
X213003000Y-109555246D01*
X213070405Y-109216377D01*
X213202625Y-108897169D01*
X213394579Y-108609890D01*
X213394581Y-108609887D01*
X213638887Y-108365581D01*
X213639859Y-108364931D01*
X213926169Y-108173625D01*
X214245377Y-108041405D01*
X214414812Y-108007702D01*
X214584245Y-107974000D01*
X214929755Y-107974000D01*
X215099188Y-108007702D01*
X215099188Y-108007702D01*
G37*
G36*
X202321612Y-108526037D02*
X202549096Y-108620264D01*
X202753831Y-108757064D01*
X202927936Y-108931169D01*
X203064736Y-109135904D01*
X203158963Y-109363388D01*
X203207000Y-109604885D01*
X203207000Y-109851115D01*
X203158963Y-110092612D01*
X203064736Y-110320096D01*
X202927936Y-110524831D01*
X202753831Y-110698936D01*
X202549096Y-110835736D01*
X202321612Y-110929963D01*
X202080115Y-110978000D01*
X201833885Y-110978000D01*
X201592388Y-110929963D01*
X201364904Y-110835736D01*
X201160169Y-110698936D01*
X200986064Y-110524831D01*
X200849264Y-110320096D01*
X200755037Y-110092612D01*
X200707000Y-109851115D01*
X200707000Y-109604885D01*
X200755037Y-109363388D01*
X200849264Y-109135904D01*
X200986064Y-108931169D01*
X201160169Y-108757064D01*
X201364904Y-108620264D01*
X201592388Y-108526037D01*
X201833885Y-108478000D01*
X202080115Y-108478000D01*
X202321612Y-108526037D01*
X202321612Y-108526037D01*
G37*
G36*
X208707000Y-110978000D02*
X206207000Y-110978000D01*
X206207000Y-108478000D01*
X208707000Y-108478000D01*
X208707000Y-110978000D01*
X208707000Y-110978000D01*
G37*
G36*
X99651000Y-110679184D02*
X98251000Y-110679184D01*
X98251000Y-109179184D01*
X99651000Y-109179184D01*
X99651000Y-110679184D01*
X99651000Y-110679184D01*
G37*
G36*
X97601000Y-110679184D02*
X96201000Y-110679184D01*
X96201000Y-109179184D01*
X97601000Y-109179184D01*
X97601000Y-110679184D01*
X97601000Y-110679184D01*
G37*
G36*
X123584089Y-110436840D02*
X119584089Y-110436840D01*
X119584089Y-108436840D01*
X123584089Y-108436840D01*
X123584089Y-110436840D01*
X123584089Y-110436840D01*
G37*
G36*
X150615035Y-109291648D02*
X149115035Y-109291648D01*
X149115035Y-107891648D01*
X150615035Y-107891648D01*
X150615035Y-109291648D01*
X150615035Y-109291648D01*
G37*
G36*
X148075035Y-109291648D02*
X146575035Y-109291648D01*
X146575035Y-107891648D01*
X148075035Y-107891648D01*
X148075035Y-109291648D01*
X148075035Y-109291648D01*
G37*
G36*
X133488116Y-109154511D02*
X131988116Y-109154511D01*
X131988116Y-107754511D01*
X133488116Y-107754511D01*
X133488116Y-109154511D01*
X133488116Y-109154511D01*
G37*
G36*
X136028116Y-109154511D02*
X134528116Y-109154511D01*
X134528116Y-107754511D01*
X136028116Y-107754511D01*
X136028116Y-109154511D01*
X136028116Y-109154511D01*
G37*
G36*
X92952000Y-109123184D02*
X91452000Y-109123184D01*
X91452000Y-107723184D01*
X92952000Y-107723184D01*
X92952000Y-109123184D01*
X92952000Y-109123184D01*
G37*
G36*
X112145614Y-108831226D02*
X110745614Y-108831226D01*
X110745614Y-107331226D01*
X112145614Y-107331226D01*
X112145614Y-108831226D01*
X112145614Y-108831226D01*
G37*
G36*
X114195614Y-108831226D02*
X112795614Y-108831226D01*
X112795614Y-107331226D01*
X114195614Y-107331226D01*
X114195614Y-108831226D01*
X114195614Y-108831226D01*
G37*
G36*
X178292000Y-108438184D02*
X176292000Y-108438184D01*
X176292000Y-104438184D01*
X178292000Y-104438184D01*
X178292000Y-108438184D01*
X178292000Y-108438184D01*
G37*
G36*
X183372000Y-108438184D02*
X181372000Y-108438184D01*
X181372000Y-104438184D01*
X183372000Y-104438184D01*
X183372000Y-108438184D01*
X183372000Y-108438184D01*
G37*
G36*
X180832000Y-108438184D02*
X178832000Y-108438184D01*
X178832000Y-104438184D01*
X180832000Y-104438184D01*
X180832000Y-108438184D01*
X180832000Y-108438184D01*
G37*
G36*
X205097000Y-108173184D02*
X204097000Y-108173184D01*
X204097000Y-106773184D01*
X205097000Y-106773184D01*
X205097000Y-108173184D01*
X205097000Y-108173184D01*
G37*
G36*
X150615035Y-107241648D02*
X149115035Y-107241648D01*
X149115035Y-105841648D01*
X150615035Y-105841648D01*
X150615035Y-107241648D01*
X150615035Y-107241648D01*
G37*
G36*
X148075035Y-107241648D02*
X146575035Y-107241648D01*
X146575035Y-105841648D01*
X148075035Y-105841648D01*
X148075035Y-107241648D01*
X148075035Y-107241648D01*
G37*
G36*
X136028116Y-107104511D02*
X134528116Y-107104511D01*
X134528116Y-105704511D01*
X136028116Y-105704511D01*
X136028116Y-107104511D01*
X136028116Y-107104511D01*
G37*
G36*
X133488116Y-107104511D02*
X131988116Y-107104511D01*
X131988116Y-105704511D01*
X133488116Y-105704511D01*
X133488116Y-107104511D01*
X133488116Y-107104511D01*
G37*
G36*
X96108456Y-103651251D02*
X96426936Y-103783170D01*
X96713560Y-103974686D01*
X96957314Y-104218440D01*
X97148830Y-104505064D01*
X97280749Y-104823544D01*
X97348000Y-105161640D01*
X97348000Y-105506360D01*
X97280749Y-105844456D01*
X97148830Y-106162936D01*
X96957314Y-106449560D01*
X96713560Y-106693314D01*
X96426936Y-106884830D01*
X96108456Y-107016749D01*
X95770360Y-107084000D01*
X95425640Y-107084000D01*
X95087544Y-107016749D01*
X94769064Y-106884830D01*
X94482440Y-106693314D01*
X94238686Y-106449560D01*
X94047170Y-106162936D01*
X93915251Y-105844456D01*
X93848000Y-105506360D01*
X93848000Y-105161640D01*
X93915251Y-104823544D01*
X94047170Y-104505064D01*
X94238686Y-104218440D01*
X94482440Y-103974686D01*
X94769064Y-103783170D01*
X95087544Y-103651251D01*
X95425640Y-103584000D01*
X95770360Y-103584000D01*
X96108456Y-103651251D01*
X96108456Y-103651251D01*
G37*
G36*
X92952000Y-107073184D02*
X91452000Y-107073184D01*
X91452000Y-105673184D01*
X92952000Y-105673184D01*
X92952000Y-107073184D01*
X92952000Y-107073184D01*
G37*
G36*
X114195614Y-106356226D02*
X112795614Y-106356226D01*
X112795614Y-105356226D01*
X114195614Y-105356226D01*
X114195614Y-106356226D01*
X114195614Y-106356226D01*
G37*
G36*
X206047000Y-105973184D02*
X205047000Y-105973184D01*
X205047000Y-104573184D01*
X206047000Y-104573184D01*
X206047000Y-105973184D01*
X206047000Y-105973184D01*
G37*
G36*
X204147000Y-105973184D02*
X203147000Y-105973184D01*
X203147000Y-104573184D01*
X204147000Y-104573184D01*
X204147000Y-105973184D01*
X204147000Y-105973184D01*
G37*
G36*
X199727000Y-105853184D02*
X198327000Y-105853184D01*
X198327000Y-104353184D01*
X199727000Y-104353184D01*
X199727000Y-105853184D01*
X199727000Y-105853184D01*
G37*
G36*
X197677000Y-105853184D02*
X196277000Y-105853184D01*
X196277000Y-104353184D01*
X197677000Y-104353184D01*
X197677000Y-105853184D01*
X197677000Y-105853184D01*
G37*
G36*
X122072000Y-105468184D02*
X120072000Y-105468184D01*
X120072000Y-103468184D01*
X122072000Y-103468184D01*
X122072000Y-105468184D01*
X122072000Y-105468184D01*
G37*
G36*
X117672000Y-105468184D02*
X115672000Y-105468184D01*
X115672000Y-103468184D01*
X117672000Y-103468184D01*
X117672000Y-105468184D01*
X117672000Y-105468184D01*
G37*
G36*
X111995614Y-105406226D02*
X110595614Y-105406226D01*
X110595614Y-104406226D01*
X111995614Y-104406226D01*
X111995614Y-105406226D01*
X111995614Y-105406226D01*
G37*
G36*
X150075035Y-104751648D02*
X148675035Y-104751648D01*
X148675035Y-103251648D01*
X150075035Y-103251648D01*
X150075035Y-104751648D01*
X150075035Y-104751648D01*
G37*
G36*
X148025035Y-104751648D02*
X146625035Y-104751648D01*
X146625035Y-103251648D01*
X148025035Y-103251648D01*
X148025035Y-104751648D01*
X148025035Y-104751648D01*
G37*
G36*
X135978116Y-104614511D02*
X134578116Y-104614511D01*
X134578116Y-103114511D01*
X135978116Y-103114511D01*
X135978116Y-104614511D01*
X135978116Y-104614511D01*
G37*
G36*
X133928116Y-104614511D02*
X132528116Y-104614511D01*
X132528116Y-103114511D01*
X133928116Y-103114511D01*
X133928116Y-104614511D01*
X133928116Y-104614511D01*
G37*
G36*
X215096144Y-101022097D02*
X215268623Y-101056405D01*
X215587831Y-101188625D01*
X215874141Y-101379931D01*
X215875113Y-101380581D01*
X216119419Y-101624887D01*
X216119421Y-101624890D01*
X216311375Y-101912169D01*
X216443595Y-102231377D01*
X216511000Y-102570246D01*
X216511000Y-102915754D01*
X216443595Y-103254623D01*
X216311375Y-103573831D01*
X216217758Y-103713938D01*
X216119419Y-103861113D01*
X215875113Y-104105419D01*
X215875110Y-104105421D01*
X215587831Y-104297375D01*
X215268623Y-104429595D01*
X215134739Y-104456226D01*
X214929755Y-104497000D01*
X214584245Y-104497000D01*
X214379261Y-104456226D01*
X214245377Y-104429595D01*
X213926169Y-104297375D01*
X213638890Y-104105421D01*
X213638887Y-104105419D01*
X213394581Y-103861113D01*
X213296242Y-103713938D01*
X213202625Y-103573831D01*
X213070405Y-103254623D01*
X213003000Y-102915754D01*
X213003000Y-102570246D01*
X213070405Y-102231377D01*
X213202625Y-101912169D01*
X213394579Y-101624890D01*
X213394581Y-101624887D01*
X213638887Y-101380581D01*
X213639860Y-101379931D01*
X213926169Y-101188625D01*
X214245377Y-101056405D01*
X214417856Y-101022097D01*
X214584245Y-100989000D01*
X214929755Y-100989000D01*
X215096144Y-101022097D01*
X215096144Y-101022097D01*
G37*
G36*
X114195614Y-104456226D02*
X112795614Y-104456226D01*
X112795614Y-103456226D01*
X114195614Y-103456226D01*
X114195614Y-104456226D01*
X114195614Y-104456226D01*
G37*
G36*
X208707000Y-103993000D02*
X206207000Y-103993000D01*
X206207000Y-101493000D01*
X208707000Y-101493000D01*
X208707000Y-103993000D01*
X208707000Y-103993000D01*
G37*
G36*
X202321612Y-101541037D02*
X202549096Y-101635264D01*
X202753831Y-101772064D01*
X202927936Y-101946169D01*
X203064736Y-102150904D01*
X203158963Y-102378388D01*
X203207000Y-102619885D01*
X203207000Y-102866115D01*
X203158963Y-103107612D01*
X203064736Y-103335096D01*
X202927936Y-103539831D01*
X202753831Y-103713936D01*
X202549096Y-103850736D01*
X202321612Y-103944963D01*
X202080115Y-103993000D01*
X201833885Y-103993000D01*
X201592388Y-103944963D01*
X201364904Y-103850736D01*
X201160169Y-103713936D01*
X200986064Y-103539831D01*
X200849264Y-103335096D01*
X200755037Y-103107612D01*
X200707000Y-102866115D01*
X200707000Y-102619885D01*
X200755037Y-102378388D01*
X200849264Y-102150904D01*
X200986064Y-101946169D01*
X201160169Y-101772064D01*
X201364904Y-101635264D01*
X201592388Y-101541037D01*
X201833885Y-101493000D01*
X202080115Y-101493000D01*
X202321612Y-101541037D01*
X202321612Y-101541037D01*
G37*
G36*
X182547770Y-101578556D02*
X182663689Y-101601613D01*
X182845678Y-101676995D01*
X183009463Y-101786433D01*
X183148751Y-101925721D01*
X183258189Y-102089506D01*
X183333571Y-102271495D01*
X183372000Y-102464693D01*
X183372000Y-102661675D01*
X183333571Y-102854873D01*
X183258189Y-103036862D01*
X183148751Y-103200647D01*
X183009463Y-103339935D01*
X182845678Y-103449373D01*
X182663689Y-103524755D01*
X182547770Y-103547812D01*
X182470493Y-103563184D01*
X182273507Y-103563184D01*
X182196230Y-103547812D01*
X182080311Y-103524755D01*
X181898322Y-103449373D01*
X181734537Y-103339935D01*
X181595249Y-103200647D01*
X181485811Y-103036862D01*
X181410429Y-102854873D01*
X181372000Y-102661675D01*
X181372000Y-102464693D01*
X181410429Y-102271495D01*
X181485811Y-102089506D01*
X181595249Y-101925721D01*
X181734537Y-101786433D01*
X181898322Y-101676995D01*
X182080311Y-101601613D01*
X182196230Y-101578556D01*
X182273507Y-101563184D01*
X182470493Y-101563184D01*
X182547770Y-101578556D01*
X182547770Y-101578556D01*
G37*
G36*
X178292000Y-103563184D02*
X176292000Y-103563184D01*
X176292000Y-101563184D01*
X178292000Y-101563184D01*
X178292000Y-103563184D01*
X178292000Y-103563184D01*
G37*
G36*
X180007770Y-101578556D02*
X180123689Y-101601613D01*
X180305678Y-101676995D01*
X180469463Y-101786433D01*
X180608751Y-101925721D01*
X180718189Y-102089506D01*
X180793571Y-102271495D01*
X180832000Y-102464693D01*
X180832000Y-102661675D01*
X180793571Y-102854873D01*
X180718189Y-103036862D01*
X180608751Y-103200647D01*
X180469463Y-103339935D01*
X180305678Y-103449373D01*
X180123689Y-103524755D01*
X180007770Y-103547812D01*
X179930493Y-103563184D01*
X179733507Y-103563184D01*
X179656230Y-103547812D01*
X179540311Y-103524755D01*
X179358322Y-103449373D01*
X179194537Y-103339935D01*
X179055249Y-103200647D01*
X178945811Y-103036862D01*
X178870429Y-102854873D01*
X178832000Y-102661675D01*
X178832000Y-102464693D01*
X178870429Y-102271495D01*
X178945811Y-102089506D01*
X179055249Y-101925721D01*
X179194537Y-101786433D01*
X179358322Y-101676995D01*
X179540311Y-101601613D01*
X179656230Y-101578556D01*
X179733507Y-101563184D01*
X179930493Y-101563184D01*
X180007770Y-101578556D01*
X180007770Y-101578556D01*
G37*
G36*
X169102000Y-102170184D02*
X167702000Y-102170184D01*
X167702000Y-100670184D01*
X169102000Y-100670184D01*
X169102000Y-102170184D01*
X169102000Y-102170184D01*
G37*
G36*
X167052000Y-102170184D02*
X165652000Y-102170184D01*
X165652000Y-100670184D01*
X167052000Y-100670184D01*
X167052000Y-102170184D01*
X167052000Y-102170184D01*
G37*
G36*
X193522653Y-102043845D02*
X191522653Y-102043845D01*
X191522653Y-98043845D01*
X193522653Y-98043845D01*
X193522653Y-102043845D01*
X193522653Y-102043845D01*
G37*
G36*
X196062653Y-102043845D02*
X194062653Y-102043845D01*
X194062653Y-98043845D01*
X196062653Y-98043845D01*
X196062653Y-102043845D01*
X196062653Y-102043845D01*
G37*
G36*
X198602653Y-102043845D02*
X196602653Y-102043845D01*
X196602653Y-98043845D01*
X198602653Y-98043845D01*
X198602653Y-102043845D01*
X198602653Y-102043845D01*
G37*
G36*
X190982653Y-102043845D02*
X188982653Y-102043845D01*
X188982653Y-98043845D01*
X190982653Y-98043845D01*
X190982653Y-102043845D01*
X190982653Y-102043845D01*
G37*
G36*
X114791612Y-99128037D02*
X115019096Y-99222264D01*
X115223831Y-99359064D01*
X115397936Y-99533169D01*
X115534736Y-99737904D01*
X115628963Y-99965388D01*
X115677000Y-100206885D01*
X115677000Y-100453115D01*
X115628963Y-100694612D01*
X115534736Y-100922096D01*
X115397936Y-101126831D01*
X115223831Y-101300936D01*
X115019096Y-101437736D01*
X114791612Y-101531963D01*
X114550115Y-101580000D01*
X114303885Y-101580000D01*
X114062388Y-101531963D01*
X113834904Y-101437736D01*
X113630169Y-101300936D01*
X113456064Y-101126831D01*
X113319264Y-100922096D01*
X113225037Y-100694612D01*
X113177000Y-100453115D01*
X113177000Y-100206885D01*
X113225037Y-99965388D01*
X113319264Y-99737904D01*
X113456064Y-99533169D01*
X113630169Y-99359064D01*
X113834904Y-99222264D01*
X114062388Y-99128037D01*
X114303885Y-99080000D01*
X114550115Y-99080000D01*
X114791612Y-99128037D01*
X114791612Y-99128037D01*
G37*
G36*
X109711612Y-99128037D02*
X109939096Y-99222264D01*
X110143831Y-99359064D01*
X110317936Y-99533169D01*
X110454736Y-99737904D01*
X110548963Y-99965388D01*
X110597000Y-100206885D01*
X110597000Y-100453115D01*
X110548963Y-100694612D01*
X110454736Y-100922096D01*
X110317936Y-101126831D01*
X110143831Y-101300936D01*
X109939096Y-101437736D01*
X109711612Y-101531963D01*
X109470115Y-101580000D01*
X109223885Y-101580000D01*
X108982388Y-101531963D01*
X108754904Y-101437736D01*
X108550169Y-101300936D01*
X108376064Y-101126831D01*
X108239264Y-100922096D01*
X108145037Y-100694612D01*
X108097000Y-100453115D01*
X108097000Y-100206885D01*
X108145037Y-99965388D01*
X108239264Y-99737904D01*
X108376064Y-99533169D01*
X108550169Y-99359064D01*
X108754904Y-99222264D01*
X108982388Y-99128037D01*
X109223885Y-99080000D01*
X109470115Y-99080000D01*
X109711612Y-99128037D01*
X109711612Y-99128037D01*
G37*
G36*
X99048000Y-101294000D02*
X97548000Y-101294000D01*
X97548000Y-99794000D01*
X99048000Y-99794000D01*
X99048000Y-101294000D01*
X99048000Y-101294000D01*
G37*
G36*
X95244318Y-99808411D02*
X95316767Y-99822822D01*
X95373303Y-99846240D01*
X95453257Y-99879358D01*
X95576100Y-99961439D01*
X95680561Y-100065900D01*
X95762642Y-100188743D01*
X95819178Y-100325234D01*
X95848000Y-100470130D01*
X95848000Y-100617870D01*
X95839188Y-100662172D01*
X95823941Y-100738824D01*
X95819178Y-100762766D01*
X95762642Y-100899257D01*
X95680561Y-101022100D01*
X95576100Y-101126561D01*
X95453257Y-101208642D01*
X95384024Y-101237319D01*
X95316767Y-101265178D01*
X95244318Y-101279589D01*
X95171870Y-101294000D01*
X95024130Y-101294000D01*
X94951682Y-101279589D01*
X94879233Y-101265178D01*
X94811976Y-101237319D01*
X94742743Y-101208642D01*
X94619900Y-101126561D01*
X94515439Y-101022100D01*
X94433358Y-100899257D01*
X94376822Y-100762766D01*
X94372060Y-100738824D01*
X94356812Y-100662172D01*
X94348000Y-100617870D01*
X94348000Y-100470130D01*
X94376822Y-100325234D01*
X94433358Y-100188743D01*
X94515439Y-100065900D01*
X94619900Y-99961439D01*
X94742743Y-99879358D01*
X94822697Y-99846240D01*
X94879233Y-99822822D01*
X94951682Y-99808411D01*
X95024130Y-99794000D01*
X95171870Y-99794000D01*
X95244318Y-99808411D01*
X95244318Y-99808411D01*
G37*
G36*
X154247645Y-101237319D02*
X152247645Y-101237319D01*
X152247645Y-99637319D01*
X154247645Y-99637319D01*
X154247645Y-101237319D01*
X154247645Y-101237319D01*
G37*
G36*
X150947645Y-101237319D02*
X148947645Y-101237319D01*
X148947645Y-99637319D01*
X150947645Y-99637319D01*
X150947645Y-101237319D01*
X150947645Y-101237319D01*
G37*
G36*
X118541144Y-99908475D02*
X118569172Y-99916977D01*
X118594998Y-99930782D01*
X118617638Y-99949362D01*
X118636218Y-99972002D01*
X118650023Y-99997828D01*
X118658525Y-100025856D01*
X118662000Y-100061140D01*
X118662000Y-100598860D01*
X118658525Y-100634144D01*
X118650023Y-100662172D01*
X118636218Y-100687998D01*
X118617638Y-100710638D01*
X118594998Y-100729218D01*
X118569172Y-100743023D01*
X118541144Y-100751525D01*
X118505860Y-100755000D01*
X117968140Y-100755000D01*
X117932856Y-100751525D01*
X117904828Y-100743023D01*
X117879002Y-100729218D01*
X117856362Y-100710638D01*
X117837782Y-100687998D01*
X117823977Y-100662172D01*
X117815475Y-100634144D01*
X117812000Y-100598860D01*
X117812000Y-100061140D01*
X117815475Y-100025856D01*
X117823977Y-99997828D01*
X117837782Y-99972002D01*
X117856362Y-99949362D01*
X117879002Y-99930782D01*
X117904828Y-99916977D01*
X117932856Y-99908475D01*
X117968140Y-99905000D01*
X118505860Y-99905000D01*
X118541144Y-99908475D01*
X118541144Y-99908475D01*
G37*
G36*
X119841144Y-99908475D02*
X119869172Y-99916977D01*
X119894998Y-99930782D01*
X119917638Y-99949362D01*
X119936218Y-99972002D01*
X119950023Y-99997828D01*
X119958525Y-100025856D01*
X119962000Y-100061140D01*
X119962000Y-100598860D01*
X119958525Y-100634144D01*
X119950023Y-100662172D01*
X119936218Y-100687998D01*
X119917638Y-100710638D01*
X119894998Y-100729218D01*
X119869172Y-100743023D01*
X119841144Y-100751525D01*
X119805860Y-100755000D01*
X119268140Y-100755000D01*
X119232856Y-100751525D01*
X119204828Y-100743023D01*
X119179002Y-100729218D01*
X119156362Y-100710638D01*
X119137782Y-100687998D01*
X119123977Y-100662172D01*
X119115475Y-100634144D01*
X119112000Y-100598860D01*
X119112000Y-100061140D01*
X119115475Y-100025856D01*
X119123977Y-99997828D01*
X119137782Y-99972002D01*
X119156362Y-99949362D01*
X119179002Y-99930782D01*
X119204828Y-99916977D01*
X119232856Y-99908475D01*
X119268140Y-99905000D01*
X119805860Y-99905000D01*
X119841144Y-99908475D01*
X119841144Y-99908475D01*
G37*
G36*
X180978815Y-100545908D02*
X179478815Y-100545908D01*
X179478815Y-99145908D01*
X180978815Y-99145908D01*
X180978815Y-100545908D01*
X180978815Y-100545908D01*
G37*
G36*
X185423815Y-100545908D02*
X183923815Y-100545908D01*
X183923815Y-99145908D01*
X185423815Y-99145908D01*
X185423815Y-100545908D01*
X185423815Y-100545908D01*
G37*
G36*
X183201315Y-100545908D02*
X181701315Y-100545908D01*
X181701315Y-99145908D01*
X183201315Y-99145908D01*
X183201315Y-100545908D01*
X183201315Y-100545908D01*
G37*
G36*
X146097000Y-99503184D02*
X144697000Y-99503184D01*
X144697000Y-98003184D01*
X146097000Y-98003184D01*
X146097000Y-99503184D01*
X146097000Y-99503184D01*
G37*
G36*
X148147000Y-99503184D02*
X146747000Y-99503184D01*
X146747000Y-98003184D01*
X148147000Y-98003184D01*
X148147000Y-99503184D01*
X148147000Y-99503184D01*
G37*
G36*
X95244318Y-97308411D02*
X95316767Y-97322822D01*
X95373303Y-97346240D01*
X95453257Y-97379358D01*
X95576100Y-97461439D01*
X95680561Y-97565900D01*
X95762642Y-97688743D01*
X95819178Y-97825234D01*
X95848000Y-97970130D01*
X95848000Y-98117870D01*
X95819178Y-98262766D01*
X95762642Y-98399257D01*
X95680561Y-98522100D01*
X95576100Y-98626561D01*
X95453257Y-98708642D01*
X95373303Y-98741760D01*
X95316767Y-98765178D01*
X95244318Y-98779589D01*
X95171870Y-98794000D01*
X95024130Y-98794000D01*
X94951682Y-98779589D01*
X94879233Y-98765178D01*
X94822697Y-98741760D01*
X94742743Y-98708642D01*
X94619900Y-98626561D01*
X94515439Y-98522100D01*
X94433358Y-98399257D01*
X94376822Y-98262766D01*
X94348000Y-98117870D01*
X94348000Y-97970130D01*
X94376822Y-97825234D01*
X94433358Y-97688743D01*
X94515439Y-97565900D01*
X94619900Y-97461439D01*
X94742743Y-97379358D01*
X94822697Y-97346240D01*
X94879233Y-97322822D01*
X94951682Y-97308411D01*
X95024130Y-97294000D01*
X95171870Y-97294000D01*
X95244318Y-97308411D01*
X95244318Y-97308411D01*
G37*
G36*
X98444318Y-97308411D02*
X98516767Y-97322822D01*
X98573303Y-97346240D01*
X98653257Y-97379358D01*
X98776100Y-97461439D01*
X98880561Y-97565900D01*
X98962642Y-97688743D01*
X99019178Y-97825234D01*
X99048000Y-97970130D01*
X99048000Y-98117870D01*
X99019178Y-98262766D01*
X98962642Y-98399257D01*
X98880561Y-98522100D01*
X98776100Y-98626561D01*
X98653257Y-98708642D01*
X98573303Y-98741760D01*
X98516767Y-98765178D01*
X98444318Y-98779589D01*
X98371870Y-98794000D01*
X98224130Y-98794000D01*
X98151682Y-98779589D01*
X98079233Y-98765178D01*
X98022697Y-98741760D01*
X97942743Y-98708642D01*
X97819900Y-98626561D01*
X97715439Y-98522100D01*
X97633358Y-98399257D01*
X97576822Y-98262766D01*
X97548000Y-98117870D01*
X97548000Y-97970130D01*
X97576822Y-97825234D01*
X97633358Y-97688743D01*
X97715439Y-97565900D01*
X97819900Y-97461439D01*
X97942743Y-97379358D01*
X98022697Y-97346240D01*
X98079233Y-97322822D01*
X98151682Y-97308411D01*
X98224130Y-97294000D01*
X98371870Y-97294000D01*
X98444318Y-97308411D01*
X98444318Y-97308411D01*
G37*
G36*
X185423815Y-98495908D02*
X183923815Y-98495908D01*
X183923815Y-97095908D01*
X185423815Y-97095908D01*
X185423815Y-98495908D01*
X185423815Y-98495908D01*
G37*
G36*
X183201315Y-98495908D02*
X181701315Y-98495908D01*
X181701315Y-97095908D01*
X183201315Y-97095908D01*
X183201315Y-98495908D01*
X183201315Y-98495908D01*
G37*
G36*
X180978815Y-98495908D02*
X179478815Y-98495908D01*
X179478815Y-97095908D01*
X180978815Y-97095908D01*
X180978815Y-98495908D01*
X180978815Y-98495908D01*
G37*
G36*
X115762000Y-97905000D02*
X114362000Y-97905000D01*
X114362000Y-96405000D01*
X115762000Y-96405000D01*
X115762000Y-97905000D01*
X115762000Y-97905000D01*
G37*
G36*
X117812000Y-97905000D02*
X116412000Y-97905000D01*
X116412000Y-96405000D01*
X117812000Y-96405000D01*
X117812000Y-97905000D01*
X117812000Y-97905000D01*
G37*
G36*
X107585960Y-96447380D02*
X107621023Y-96458016D01*
X107653332Y-96475286D01*
X107681655Y-96498529D01*
X107704898Y-96526852D01*
X107722168Y-96559161D01*
X107732804Y-96594224D01*
X107737000Y-96636825D01*
X107737000Y-97649543D01*
X107732804Y-97692144D01*
X107722168Y-97727207D01*
X107704898Y-97759516D01*
X107681655Y-97787839D01*
X107653332Y-97811082D01*
X107621023Y-97828352D01*
X107585960Y-97838988D01*
X107543359Y-97843184D01*
X106930641Y-97843184D01*
X106888040Y-97838988D01*
X106852977Y-97828352D01*
X106820668Y-97811082D01*
X106792345Y-97787839D01*
X106769102Y-97759516D01*
X106751832Y-97727207D01*
X106741196Y-97692144D01*
X106737000Y-97649543D01*
X106737000Y-96636825D01*
X106741196Y-96594224D01*
X106751832Y-96559161D01*
X106769102Y-96526852D01*
X106792345Y-96498529D01*
X106820668Y-96475286D01*
X106852977Y-96458016D01*
X106888040Y-96447380D01*
X106930641Y-96443184D01*
X107543359Y-96443184D01*
X107585960Y-96447380D01*
X107585960Y-96447380D01*
G37*
G36*
X105685960Y-96447380D02*
X105721023Y-96458016D01*
X105753332Y-96475286D01*
X105781655Y-96498529D01*
X105804898Y-96526852D01*
X105822168Y-96559161D01*
X105832804Y-96594224D01*
X105837000Y-96636825D01*
X105837000Y-97649543D01*
X105832804Y-97692144D01*
X105822168Y-97727207D01*
X105804898Y-97759516D01*
X105781655Y-97787839D01*
X105753332Y-97811082D01*
X105721023Y-97828352D01*
X105685960Y-97838988D01*
X105643359Y-97843184D01*
X105030641Y-97843184D01*
X104988040Y-97838988D01*
X104952977Y-97828352D01*
X104920668Y-97811082D01*
X104892345Y-97787839D01*
X104869102Y-97759516D01*
X104851832Y-97727207D01*
X104841196Y-97692144D01*
X104837000Y-97649543D01*
X104837000Y-96636825D01*
X104841196Y-96594224D01*
X104851832Y-96559161D01*
X104869102Y-96526852D01*
X104892345Y-96498529D01*
X104920668Y-96475286D01*
X104952977Y-96458016D01*
X104988040Y-96447380D01*
X105030641Y-96443184D01*
X105643359Y-96443184D01*
X105685960Y-96447380D01*
X105685960Y-96447380D01*
G37*
G36*
X156792645Y-97187319D02*
X155292645Y-97187319D01*
X155292645Y-95787319D01*
X156792645Y-95787319D01*
X156792645Y-97187319D01*
X156792645Y-97187319D01*
G37*
G36*
X147902645Y-97042319D02*
X146402645Y-97042319D01*
X146402645Y-95642319D01*
X147902645Y-95642319D01*
X147902645Y-97042319D01*
X147902645Y-97042319D01*
G37*
G36*
X160067000Y-96328184D02*
X158667000Y-96328184D01*
X158667000Y-94828184D01*
X160067000Y-94828184D01*
X160067000Y-96328184D01*
X160067000Y-96328184D01*
G37*
G36*
X162117000Y-96328184D02*
X160717000Y-96328184D01*
X160717000Y-94828184D01*
X162117000Y-94828184D01*
X162117000Y-96328184D01*
X162117000Y-96328184D01*
G37*
G36*
X131528000Y-95820184D02*
X130128000Y-95820184D01*
X130128000Y-94320184D01*
X131528000Y-94320184D01*
X131528000Y-95820184D01*
X131528000Y-95820184D01*
G37*
G36*
X129478000Y-95820184D02*
X128078000Y-95820184D01*
X128078000Y-94320184D01*
X129478000Y-94320184D01*
X129478000Y-95820184D01*
X129478000Y-95820184D01*
G37*
G36*
X106005472Y-94249301D02*
X106059290Y-94265627D01*
X106108890Y-94292139D01*
X106152366Y-94327818D01*
X106188045Y-94371294D01*
X106214557Y-94420894D01*
X106230883Y-94474712D01*
X106237000Y-94536824D01*
X106237000Y-95349544D01*
X106230883Y-95411656D01*
X106214557Y-95465474D01*
X106188045Y-95515074D01*
X106152366Y-95558550D01*
X106108890Y-95594229D01*
X106059290Y-95620741D01*
X106005472Y-95637067D01*
X105943360Y-95643184D01*
X105130640Y-95643184D01*
X105068528Y-95637067D01*
X105014710Y-95620741D01*
X104965110Y-95594229D01*
X104921634Y-95558550D01*
X104885955Y-95515074D01*
X104859443Y-95465474D01*
X104843117Y-95411656D01*
X104837000Y-95349544D01*
X104837000Y-94536824D01*
X104843117Y-94474712D01*
X104859443Y-94420894D01*
X104885955Y-94371294D01*
X104921634Y-94327818D01*
X104965110Y-94292139D01*
X105014710Y-94265627D01*
X105068528Y-94249301D01*
X105130640Y-94243184D01*
X105943360Y-94243184D01*
X106005472Y-94249301D01*
X106005472Y-94249301D01*
G37*
G36*
X107585960Y-94247380D02*
X107621023Y-94258016D01*
X107653332Y-94275286D01*
X107681655Y-94298529D01*
X107704898Y-94326852D01*
X107722168Y-94359161D01*
X107732804Y-94394224D01*
X107737000Y-94436825D01*
X107737000Y-95449543D01*
X107732804Y-95492144D01*
X107722168Y-95527207D01*
X107704898Y-95559516D01*
X107681655Y-95587839D01*
X107653332Y-95611082D01*
X107621023Y-95628352D01*
X107585960Y-95638988D01*
X107543359Y-95643184D01*
X106930641Y-95643184D01*
X106888040Y-95638988D01*
X106852977Y-95628352D01*
X106820668Y-95611082D01*
X106792345Y-95587839D01*
X106769102Y-95559516D01*
X106751832Y-95527207D01*
X106741196Y-95492144D01*
X106737000Y-95449543D01*
X106737000Y-94436825D01*
X106741196Y-94394224D01*
X106751832Y-94359161D01*
X106769102Y-94326852D01*
X106792345Y-94298529D01*
X106820668Y-94275286D01*
X106852977Y-94258016D01*
X106888040Y-94247380D01*
X106930641Y-94243184D01*
X107543359Y-94243184D01*
X107585960Y-94247380D01*
X107585960Y-94247380D01*
G37*
G36*
X154247645Y-95587319D02*
X152247645Y-95587319D01*
X152247645Y-93987319D01*
X154247645Y-93987319D01*
X154247645Y-95587319D01*
X154247645Y-95587319D01*
G37*
G36*
X150947645Y-95587319D02*
X148947645Y-95587319D01*
X148947645Y-93987319D01*
X150947645Y-93987319D01*
X150947645Y-95587319D01*
X150947645Y-95587319D01*
G37*
G36*
X115762000Y-95492000D02*
X114362000Y-95492000D01*
X114362000Y-93992000D01*
X115762000Y-93992000D01*
X115762000Y-95492000D01*
X115762000Y-95492000D01*
G37*
G36*
X117812000Y-95492000D02*
X116412000Y-95492000D01*
X116412000Y-93992000D01*
X117812000Y-93992000D01*
X117812000Y-95492000D01*
X117812000Y-95492000D01*
G37*
G36*
X215902077Y-91703170D02*
X216095223Y-91741589D01*
X216414431Y-91873809D01*
X216700740Y-92065115D01*
X216701713Y-92065765D01*
X216946019Y-92310071D01*
X216946021Y-92310074D01*
X217137975Y-92597353D01*
X217236862Y-92836088D01*
X217270195Y-92916562D01*
X217337600Y-93255429D01*
X217337600Y-93600939D01*
X217305074Y-93764456D01*
X217270195Y-93939807D01*
X217137975Y-94259015D01*
X216981508Y-94493184D01*
X216946019Y-94546297D01*
X216701713Y-94790603D01*
X216701710Y-94790605D01*
X216414431Y-94982559D01*
X216095223Y-95114779D01*
X215981906Y-95137319D01*
X215756355Y-95182184D01*
X215410845Y-95182184D01*
X215185294Y-95137319D01*
X215071977Y-95114779D01*
X214752769Y-94982559D01*
X214465490Y-94790605D01*
X214465487Y-94790603D01*
X214221181Y-94546297D01*
X214185692Y-94493184D01*
X214029225Y-94259015D01*
X213897005Y-93939807D01*
X213862126Y-93764456D01*
X213829600Y-93600939D01*
X213829600Y-93255429D01*
X213897005Y-92916562D01*
X213930338Y-92836088D01*
X214029225Y-92597353D01*
X214221179Y-92310074D01*
X214221181Y-92310071D01*
X214465487Y-92065765D01*
X214466460Y-92065115D01*
X214752769Y-91873809D01*
X215071977Y-91741589D01*
X215265123Y-91703170D01*
X215410845Y-91674184D01*
X215756355Y-91674184D01*
X215902077Y-91703170D01*
X215902077Y-91703170D01*
G37*
G36*
X195822000Y-95153184D02*
X194322000Y-95153184D01*
X194322000Y-93753184D01*
X195822000Y-93753184D01*
X195822000Y-95153184D01*
X195822000Y-95153184D01*
G37*
G36*
X156792645Y-95137319D02*
X155292645Y-95137319D01*
X155292645Y-93737319D01*
X156792645Y-93737319D01*
X156792645Y-95137319D01*
X156792645Y-95137319D01*
G37*
G36*
X96108456Y-91571251D02*
X96426936Y-91703170D01*
X96713560Y-91894686D01*
X96957314Y-92138440D01*
X97148830Y-92425064D01*
X97280749Y-92743544D01*
X97348000Y-93081640D01*
X97348000Y-93426360D01*
X97280749Y-93764456D01*
X97148830Y-94082936D01*
X96957314Y-94369560D01*
X96713560Y-94613314D01*
X96426936Y-94804830D01*
X96108456Y-94936749D01*
X95770360Y-95004000D01*
X95425640Y-95004000D01*
X95087544Y-94936749D01*
X94769064Y-94804830D01*
X94482440Y-94613314D01*
X94238686Y-94369560D01*
X94047170Y-94082936D01*
X93915251Y-93764456D01*
X93848000Y-93426360D01*
X93848000Y-93081640D01*
X93915251Y-92743544D01*
X94047170Y-92425064D01*
X94238686Y-92138440D01*
X94482440Y-91894686D01*
X94769064Y-91703170D01*
X95087544Y-91571251D01*
X95425640Y-91504000D01*
X95770360Y-91504000D01*
X96108456Y-91571251D01*
X96108456Y-91571251D01*
G37*
G36*
X147902645Y-94992319D02*
X146402645Y-94992319D01*
X146402645Y-93592319D01*
X147902645Y-93592319D01*
X147902645Y-94992319D01*
X147902645Y-94992319D01*
G37*
G36*
X208648212Y-92226221D02*
X208875696Y-92320448D01*
X209080431Y-92457248D01*
X209254536Y-92631353D01*
X209391336Y-92836088D01*
X209485563Y-93063572D01*
X209533600Y-93305069D01*
X209533600Y-93551299D01*
X209485563Y-93792796D01*
X209391336Y-94020280D01*
X209254536Y-94225015D01*
X209080431Y-94399120D01*
X208875696Y-94535920D01*
X208648212Y-94630147D01*
X208406715Y-94678184D01*
X208160485Y-94678184D01*
X207918988Y-94630147D01*
X207691504Y-94535920D01*
X207486769Y-94399120D01*
X207312664Y-94225015D01*
X207175864Y-94020280D01*
X207081637Y-93792796D01*
X207033600Y-93551299D01*
X207033600Y-93305069D01*
X207081637Y-93063572D01*
X207175864Y-92836088D01*
X207312664Y-92631353D01*
X207486769Y-92457248D01*
X207691504Y-92320448D01*
X207918988Y-92226221D01*
X208160485Y-92178184D01*
X208406715Y-92178184D01*
X208648212Y-92226221D01*
X208648212Y-92226221D01*
G37*
G36*
X203148212Y-92226221D02*
X203375696Y-92320448D01*
X203580431Y-92457248D01*
X203754536Y-92631353D01*
X203891336Y-92836088D01*
X203985563Y-93063572D01*
X204033600Y-93305069D01*
X204033600Y-93551299D01*
X203985563Y-93792796D01*
X203891336Y-94020280D01*
X203754536Y-94225015D01*
X203580431Y-94399120D01*
X203375696Y-94535920D01*
X203148212Y-94630147D01*
X202906715Y-94678184D01*
X202660485Y-94678184D01*
X202418988Y-94630147D01*
X202191504Y-94535920D01*
X201986769Y-94399120D01*
X201812664Y-94225015D01*
X201675864Y-94020280D01*
X201581637Y-93792796D01*
X201533600Y-93551299D01*
X201533600Y-93305069D01*
X201581637Y-93063572D01*
X201675864Y-92836088D01*
X201812664Y-92631353D01*
X201986769Y-92457248D01*
X202191504Y-92320448D01*
X202418988Y-92226221D01*
X202660485Y-92178184D01*
X202906715Y-92178184D01*
X203148212Y-92226221D01*
X203148212Y-92226221D01*
G37*
G36*
X132318000Y-93960184D02*
X130318000Y-93960184D01*
X130318000Y-89960184D01*
X132318000Y-89960184D01*
X132318000Y-93960184D01*
X132318000Y-93960184D01*
G37*
G36*
X134858000Y-93960184D02*
X132858000Y-93960184D01*
X132858000Y-89960184D01*
X134858000Y-89960184D01*
X134858000Y-93960184D01*
X134858000Y-93960184D01*
G37*
G36*
X129778000Y-93960184D02*
X127778000Y-93960184D01*
X127778000Y-89960184D01*
X129778000Y-89960184D01*
X129778000Y-93960184D01*
X129778000Y-93960184D01*
G37*
G36*
X175121000Y-93682000D02*
X173621000Y-93682000D01*
X173621000Y-92282000D01*
X175121000Y-92282000D01*
X175121000Y-93682000D01*
X175121000Y-93682000D01*
G37*
G36*
X180201000Y-93682000D02*
X178701000Y-93682000D01*
X178701000Y-92282000D01*
X180201000Y-92282000D01*
X180201000Y-93682000D01*
X180201000Y-93682000D01*
G37*
G36*
X185281000Y-93682000D02*
X183781000Y-93682000D01*
X183781000Y-92282000D01*
X185281000Y-92282000D01*
X185281000Y-93682000D01*
X185281000Y-93682000D01*
G37*
G36*
X137148000Y-93230184D02*
X135648000Y-93230184D01*
X135648000Y-91830184D01*
X137148000Y-91830184D01*
X137148000Y-93230184D01*
X137148000Y-93230184D01*
G37*
G36*
X195822000Y-93103184D02*
X194322000Y-93103184D01*
X194322000Y-91703184D01*
X195822000Y-91703184D01*
X195822000Y-93103184D01*
X195822000Y-93103184D01*
G37*
G36*
X159213980Y-92926638D02*
X157813980Y-92926638D01*
X157813980Y-91426638D01*
X159213980Y-91426638D01*
X159213980Y-92926638D01*
X159213980Y-92926638D01*
G37*
G36*
X161263980Y-92926638D02*
X159863980Y-92926638D01*
X159863980Y-91426638D01*
X161263980Y-91426638D01*
X161263980Y-92926638D01*
X161263980Y-92926638D01*
G37*
G36*
X164707000Y-92468184D02*
X163207000Y-92468184D01*
X163207000Y-91068184D01*
X164707000Y-91068184D01*
X164707000Y-92468184D01*
X164707000Y-92468184D01*
G37*
G36*
X151517645Y-92012319D02*
X150117645Y-92012319D01*
X150117645Y-90512319D01*
X151517645Y-90512319D01*
X151517645Y-92012319D01*
X151517645Y-92012319D01*
G37*
G36*
X153567645Y-92012319D02*
X152167645Y-92012319D01*
X152167645Y-90512319D01*
X153567645Y-90512319D01*
X153567645Y-92012319D01*
X153567645Y-92012319D01*
G37*
G36*
X175121000Y-91632000D02*
X173621000Y-91632000D01*
X173621000Y-90232000D01*
X175121000Y-90232000D01*
X175121000Y-91632000D01*
X175121000Y-91632000D01*
G37*
G36*
X180201000Y-91632000D02*
X178701000Y-91632000D01*
X178701000Y-90232000D01*
X180201000Y-90232000D01*
X180201000Y-91632000D01*
X180201000Y-91632000D01*
G37*
G36*
X185281000Y-91632000D02*
X183781000Y-91632000D01*
X183781000Y-90232000D01*
X185281000Y-90232000D01*
X185281000Y-91632000D01*
X185281000Y-91632000D01*
G37*
G36*
X141652000Y-91248184D02*
X140252000Y-91248184D01*
X140252000Y-89748184D01*
X141652000Y-89748184D01*
X141652000Y-91248184D01*
X141652000Y-91248184D01*
G37*
G36*
X143702000Y-91248184D02*
X142302000Y-91248184D01*
X142302000Y-89748184D01*
X143702000Y-89748184D01*
X143702000Y-91248184D01*
X143702000Y-91248184D01*
G37*
G36*
X137148000Y-91180184D02*
X135648000Y-91180184D01*
X135648000Y-89780184D01*
X137148000Y-89780184D01*
X137148000Y-91180184D01*
X137148000Y-91180184D01*
G37*
G36*
X196577000Y-90678184D02*
X195177000Y-90678184D01*
X195177000Y-89678184D01*
X196577000Y-89678184D01*
X196577000Y-90678184D01*
X196577000Y-90678184D01*
G37*
G36*
X213602000Y-90563184D02*
X212102000Y-90563184D01*
X212102000Y-89163184D01*
X213602000Y-89163184D01*
X213602000Y-90563184D01*
X213602000Y-90563184D01*
G37*
G36*
X192541554Y-90480212D02*
X191041554Y-90480212D01*
X191041554Y-89080212D01*
X192541554Y-89080212D01*
X192541554Y-90480212D01*
X192541554Y-90480212D01*
G37*
G36*
X190107000Y-90480212D02*
X188607000Y-90480212D01*
X188607000Y-89080212D01*
X190107000Y-89080212D01*
X190107000Y-90480212D01*
X190107000Y-90480212D01*
G37*
G36*
X203148212Y-88026221D02*
X203375696Y-88120448D01*
X203580431Y-88257248D01*
X203754536Y-88431353D01*
X203891336Y-88636088D01*
X203985563Y-88863572D01*
X204033600Y-89105069D01*
X204033600Y-89351299D01*
X203985563Y-89592796D01*
X203891336Y-89820280D01*
X203754536Y-90025015D01*
X203580431Y-90199120D01*
X203375696Y-90335920D01*
X203148212Y-90430147D01*
X202906715Y-90478184D01*
X202660485Y-90478184D01*
X202418988Y-90430147D01*
X202191504Y-90335920D01*
X201986769Y-90199120D01*
X201812664Y-90025015D01*
X201675864Y-89820280D01*
X201581637Y-89592796D01*
X201533600Y-89351299D01*
X201533600Y-89105069D01*
X201581637Y-88863572D01*
X201675864Y-88636088D01*
X201812664Y-88431353D01*
X201986769Y-88257248D01*
X202191504Y-88120448D01*
X202418988Y-88026221D01*
X202660485Y-87978184D01*
X202906715Y-87978184D01*
X203148212Y-88026221D01*
X203148212Y-88026221D01*
G37*
G36*
X208648212Y-88026221D02*
X208875696Y-88120448D01*
X209080431Y-88257248D01*
X209254536Y-88431353D01*
X209391336Y-88636088D01*
X209485563Y-88863572D01*
X209533600Y-89105069D01*
X209533600Y-89351299D01*
X209485563Y-89592796D01*
X209391336Y-89820280D01*
X209254536Y-90025015D01*
X209080431Y-90199120D01*
X208875696Y-90335920D01*
X208648212Y-90430147D01*
X208406715Y-90478184D01*
X208160485Y-90478184D01*
X207918988Y-90430147D01*
X207691504Y-90335920D01*
X207486769Y-90199120D01*
X207312664Y-90025015D01*
X207175864Y-89820280D01*
X207081637Y-89592796D01*
X207033600Y-89351299D01*
X207033600Y-89105069D01*
X207081637Y-88863572D01*
X207175864Y-88636088D01*
X207312664Y-88431353D01*
X207486769Y-88257248D01*
X207691504Y-88120448D01*
X207918988Y-88026221D01*
X208160485Y-87978184D01*
X208406715Y-87978184D01*
X208648212Y-88026221D01*
X208648212Y-88026221D01*
G37*
G36*
X160657268Y-88739196D02*
X160725153Y-88759789D01*
X160787723Y-88793235D01*
X160842563Y-88838239D01*
X160887567Y-88893079D01*
X160921013Y-88955649D01*
X160941606Y-89023534D01*
X160949164Y-89100278D01*
X160949164Y-90062998D01*
X160941606Y-90139742D01*
X160921013Y-90207627D01*
X160887567Y-90270197D01*
X160842563Y-90325037D01*
X160787723Y-90370041D01*
X160725153Y-90403487D01*
X160657268Y-90424080D01*
X160580524Y-90431638D01*
X158917804Y-90431638D01*
X158841060Y-90424080D01*
X158773175Y-90403487D01*
X158710605Y-90370041D01*
X158655765Y-90325037D01*
X158610761Y-90270197D01*
X158577315Y-90207627D01*
X158556722Y-90139742D01*
X158549164Y-90062998D01*
X158549164Y-89100278D01*
X158556722Y-89023534D01*
X158577315Y-88955649D01*
X158610761Y-88893079D01*
X158655765Y-88838239D01*
X158710605Y-88793235D01*
X158773175Y-88759789D01*
X158841060Y-88739196D01*
X158917804Y-88731638D01*
X160580524Y-88731638D01*
X160657268Y-88739196D01*
X160657268Y-88739196D01*
G37*
G36*
X164707000Y-90418184D02*
X163207000Y-90418184D01*
X163207000Y-89018184D01*
X164707000Y-89018184D01*
X164707000Y-90418184D01*
X164707000Y-90418184D01*
G37*
G36*
X198777000Y-89728184D02*
X197377000Y-89728184D01*
X197377000Y-88728184D01*
X198777000Y-88728184D01*
X198777000Y-89728184D01*
X198777000Y-89728184D01*
G37*
G36*
X131782000Y-89470184D02*
X130382000Y-89470184D01*
X130382000Y-87970184D01*
X131782000Y-87970184D01*
X131782000Y-89470184D01*
X131782000Y-89470184D01*
G37*
G36*
X129732000Y-89470184D02*
X128332000Y-89470184D01*
X128332000Y-87970184D01*
X129732000Y-87970184D01*
X129732000Y-89470184D01*
X129732000Y-89470184D01*
G37*
G36*
X99887000Y-88962184D02*
X98487000Y-88962184D01*
X98487000Y-87462184D01*
X99887000Y-87462184D01*
X99887000Y-88962184D01*
X99887000Y-88962184D01*
G37*
G36*
X101937000Y-88962184D02*
X100537000Y-88962184D01*
X100537000Y-87462184D01*
X101937000Y-87462184D01*
X101937000Y-88962184D01*
X101937000Y-88962184D01*
G37*
G36*
X196577000Y-88778184D02*
X195177000Y-88778184D01*
X195177000Y-87778184D01*
X196577000Y-87778184D01*
X196577000Y-88778184D01*
X196577000Y-88778184D01*
G37*
G36*
X153372000Y-88708184D02*
X151972000Y-88708184D01*
X151972000Y-87208184D01*
X153372000Y-87208184D01*
X153372000Y-88708184D01*
X153372000Y-88708184D01*
G37*
G36*
X151322000Y-88708184D02*
X149922000Y-88708184D01*
X149922000Y-87208184D01*
X151322000Y-87208184D01*
X151322000Y-88708184D01*
X151322000Y-88708184D01*
G37*
G36*
X143847000Y-88708184D02*
X142447000Y-88708184D01*
X142447000Y-87208184D01*
X143847000Y-87208184D01*
X143847000Y-88708184D01*
X143847000Y-88708184D01*
G37*
G36*
X141797000Y-88708184D02*
X140397000Y-88708184D01*
X140397000Y-87208184D01*
X141797000Y-87208184D01*
X141797000Y-88708184D01*
X141797000Y-88708184D01*
G37*
G36*
X157087000Y-88658184D02*
X155587000Y-88658184D01*
X155587000Y-87258184D01*
X157087000Y-87258184D01*
X157087000Y-88658184D01*
X157087000Y-88658184D01*
G37*
G36*
X213602000Y-88513184D02*
X212102000Y-88513184D01*
X212102000Y-87113184D01*
X213602000Y-87113184D01*
X213602000Y-88513184D01*
X213602000Y-88513184D01*
G37*
G36*
X192541554Y-88430212D02*
X191041554Y-88430212D01*
X191041554Y-87030212D01*
X192541554Y-87030212D01*
X192541554Y-88430212D01*
X192541554Y-88430212D01*
G37*
G36*
X190107000Y-88430212D02*
X188607000Y-88430212D01*
X188607000Y-87030212D01*
X190107000Y-87030212D01*
X190107000Y-88430212D01*
X190107000Y-88430212D01*
G37*
G36*
X123382000Y-88380000D02*
X121982000Y-88380000D01*
X121982000Y-86880000D01*
X123382000Y-86880000D01*
X123382000Y-88380000D01*
X123382000Y-88380000D01*
G37*
G36*
X125432000Y-88380000D02*
X124032000Y-88380000D01*
X124032000Y-86880000D01*
X125432000Y-86880000D01*
X125432000Y-88380000D01*
X125432000Y-88380000D01*
G37*
G36*
X215793763Y-83281625D02*
X216095223Y-83341589D01*
X216414431Y-83473809D01*
X216700741Y-83665115D01*
X216701713Y-83665765D01*
X216946019Y-83910071D01*
X216946021Y-83910074D01*
X217137975Y-84197353D01*
X217251484Y-84471389D01*
X217270195Y-84516562D01*
X217337600Y-84855429D01*
X217337600Y-85200939D01*
X217303898Y-85370372D01*
X217270195Y-85539807D01*
X217137975Y-85859015D01*
X216986308Y-86086000D01*
X216946019Y-86146297D01*
X216701713Y-86390603D01*
X216701710Y-86390605D01*
X216414431Y-86582559D01*
X216095223Y-86714779D01*
X215925788Y-86748482D01*
X215756355Y-86782184D01*
X215410845Y-86782184D01*
X215241411Y-86748481D01*
X215071977Y-86714779D01*
X214752769Y-86582559D01*
X214465490Y-86390605D01*
X214465487Y-86390603D01*
X214221181Y-86146297D01*
X214180892Y-86086000D01*
X214029225Y-85859015D01*
X213897005Y-85539807D01*
X213863302Y-85370372D01*
X213829600Y-85200939D01*
X213829600Y-84855429D01*
X213897005Y-84516562D01*
X213915716Y-84471389D01*
X214029225Y-84197353D01*
X214221179Y-83910074D01*
X214221181Y-83910071D01*
X214465487Y-83665765D01*
X214466460Y-83665115D01*
X214752769Y-83473809D01*
X215071977Y-83341589D01*
X215373437Y-83281625D01*
X215410845Y-83274184D01*
X215756355Y-83274184D01*
X215793763Y-83281625D01*
X215793763Y-83281625D01*
G37*
G36*
X195822000Y-86753184D02*
X194322000Y-86753184D01*
X194322000Y-85353184D01*
X195822000Y-85353184D01*
X195822000Y-86753184D01*
X195822000Y-86753184D01*
G37*
G36*
X160657268Y-85039196D02*
X160725153Y-85059789D01*
X160787723Y-85093235D01*
X160842563Y-85138239D01*
X160887567Y-85193079D01*
X160921013Y-85255649D01*
X160941606Y-85323534D01*
X160949164Y-85400278D01*
X160949164Y-86362998D01*
X160941606Y-86439742D01*
X160921013Y-86507627D01*
X160887567Y-86570197D01*
X160842563Y-86625037D01*
X160787723Y-86670041D01*
X160725153Y-86703487D01*
X160657268Y-86724080D01*
X160580524Y-86731638D01*
X158917804Y-86731638D01*
X158841060Y-86724080D01*
X158773175Y-86703487D01*
X158710605Y-86670041D01*
X158655765Y-86625037D01*
X158610761Y-86570197D01*
X158577315Y-86507627D01*
X158556722Y-86439742D01*
X158549164Y-86362998D01*
X158549164Y-85400278D01*
X158556722Y-85323534D01*
X158577315Y-85255649D01*
X158610761Y-85193079D01*
X158655765Y-85138239D01*
X158710605Y-85093235D01*
X158773175Y-85059789D01*
X158841060Y-85039196D01*
X158917804Y-85031638D01*
X160580524Y-85031638D01*
X160657268Y-85039196D01*
X160657268Y-85039196D01*
G37*
G36*
X157087000Y-86608184D02*
X155587000Y-86608184D01*
X155587000Y-85208184D01*
X157087000Y-85208184D01*
X157087000Y-86608184D01*
X157087000Y-86608184D01*
G37*
G36*
X90639188Y-83115702D02*
X90808623Y-83149405D01*
X91127831Y-83281625D01*
X91414141Y-83472931D01*
X91415113Y-83473581D01*
X91659419Y-83717887D01*
X91659421Y-83717890D01*
X91851375Y-84005169D01*
X91983595Y-84324377D01*
X92051000Y-84663246D01*
X92051000Y-85008754D01*
X91983595Y-85347623D01*
X91851375Y-85666831D01*
X91666353Y-85943735D01*
X91659419Y-85954113D01*
X91415113Y-86198419D01*
X91415110Y-86198421D01*
X91127831Y-86390375D01*
X90808623Y-86522595D01*
X90707271Y-86542755D01*
X90469755Y-86590000D01*
X90124245Y-86590000D01*
X89886729Y-86542755D01*
X89785377Y-86522595D01*
X89466169Y-86390375D01*
X89178890Y-86198421D01*
X89178887Y-86198419D01*
X88934581Y-85954113D01*
X88927647Y-85943735D01*
X88742625Y-85666831D01*
X88610405Y-85347623D01*
X88543000Y-85008754D01*
X88543000Y-84663246D01*
X88610405Y-84324377D01*
X88742625Y-84005169D01*
X88934579Y-83717890D01*
X88934581Y-83717887D01*
X89178887Y-83473581D01*
X89179859Y-83472931D01*
X89466169Y-83281625D01*
X89785377Y-83149405D01*
X89954812Y-83115702D01*
X90124245Y-83082000D01*
X90469755Y-83082000D01*
X90639188Y-83115702D01*
X90639188Y-83115702D01*
G37*
G36*
X209533600Y-86278184D02*
X207033600Y-86278184D01*
X207033600Y-83778184D01*
X209533600Y-83778184D01*
X209533600Y-86278184D01*
X209533600Y-86278184D01*
G37*
G36*
X203148212Y-83826221D02*
X203375696Y-83920448D01*
X203580431Y-84057248D01*
X203754536Y-84231353D01*
X203891336Y-84436088D01*
X203985563Y-84663572D01*
X204033600Y-84905069D01*
X204033600Y-85151299D01*
X203985563Y-85392796D01*
X203891336Y-85620280D01*
X203754536Y-85825015D01*
X203580431Y-85999120D01*
X203375696Y-86135920D01*
X203148212Y-86230147D01*
X202906715Y-86278184D01*
X202660485Y-86278184D01*
X202418988Y-86230147D01*
X202191504Y-86135920D01*
X201986769Y-85999120D01*
X201812664Y-85825015D01*
X201675864Y-85620280D01*
X201581637Y-85392796D01*
X201533600Y-85151299D01*
X201533600Y-84905069D01*
X201581637Y-84663572D01*
X201675864Y-84436088D01*
X201812664Y-84231353D01*
X201986769Y-84057248D01*
X202191504Y-83920448D01*
X202418988Y-83826221D01*
X202660485Y-83778184D01*
X202906715Y-83778184D01*
X203148212Y-83826221D01*
X203148212Y-83826221D01*
G37*
G36*
X190742000Y-86263184D02*
X189242000Y-86263184D01*
X189242000Y-84863184D01*
X190742000Y-84863184D01*
X190742000Y-86263184D01*
X190742000Y-86263184D01*
G37*
G36*
X186247000Y-86168184D02*
X184847000Y-86168184D01*
X184847000Y-84668184D01*
X186247000Y-84668184D01*
X186247000Y-86168184D01*
X186247000Y-86168184D01*
G37*
G36*
X188297000Y-86168184D02*
X186897000Y-86168184D01*
X186897000Y-84668184D01*
X188297000Y-84668184D01*
X188297000Y-86168184D01*
X188297000Y-86168184D01*
G37*
G36*
X98847000Y-86086000D02*
X96347000Y-86086000D01*
X96347000Y-83586000D01*
X98847000Y-83586000D01*
X98847000Y-86086000D01*
X98847000Y-86086000D01*
G37*
G36*
X114791612Y-83634037D02*
X115019096Y-83728264D01*
X115223831Y-83865064D01*
X115397936Y-84039169D01*
X115534736Y-84243904D01*
X115628963Y-84471388D01*
X115677000Y-84712885D01*
X115677000Y-84959115D01*
X115628963Y-85200612D01*
X115534736Y-85428096D01*
X115397936Y-85632831D01*
X115223831Y-85806936D01*
X115019096Y-85943736D01*
X114791612Y-86037963D01*
X114550115Y-86086000D01*
X114303885Y-86086000D01*
X114062388Y-86037963D01*
X113834904Y-85943736D01*
X113630169Y-85806936D01*
X113456064Y-85632831D01*
X113319264Y-85428096D01*
X113225037Y-85200612D01*
X113177000Y-84959115D01*
X113177000Y-84712885D01*
X113225037Y-84471388D01*
X113319264Y-84243904D01*
X113456064Y-84039169D01*
X113630169Y-83865064D01*
X113834904Y-83728264D01*
X114062388Y-83634037D01*
X114303885Y-83586000D01*
X114550115Y-83586000D01*
X114791612Y-83634037D01*
X114791612Y-83634037D01*
G37*
G36*
X109711612Y-83634037D02*
X109939096Y-83728264D01*
X110143831Y-83865064D01*
X110317936Y-84039169D01*
X110454736Y-84243904D01*
X110548963Y-84471388D01*
X110597000Y-84712885D01*
X110597000Y-84959115D01*
X110548963Y-85200612D01*
X110454736Y-85428096D01*
X110317936Y-85632831D01*
X110143831Y-85806936D01*
X109939096Y-85943736D01*
X109711612Y-86037963D01*
X109470115Y-86086000D01*
X109223885Y-86086000D01*
X108982388Y-86037963D01*
X108754904Y-85943736D01*
X108550169Y-85806936D01*
X108376064Y-85632831D01*
X108239264Y-85428096D01*
X108145037Y-85200612D01*
X108097000Y-84959115D01*
X108097000Y-84712885D01*
X108145037Y-84471388D01*
X108239264Y-84243904D01*
X108376064Y-84039169D01*
X108550169Y-83865064D01*
X108754904Y-83728264D01*
X108982388Y-83634037D01*
X109223885Y-83586000D01*
X109470115Y-83586000D01*
X109711612Y-83634037D01*
X109711612Y-83634037D01*
G37*
G36*
X103461612Y-83634037D02*
X103689096Y-83728264D01*
X103893831Y-83865064D01*
X104067936Y-84039169D01*
X104204736Y-84243904D01*
X104298963Y-84471388D01*
X104347000Y-84712885D01*
X104347000Y-84959115D01*
X104298963Y-85200612D01*
X104204736Y-85428096D01*
X104067936Y-85632831D01*
X103893831Y-85806936D01*
X103689096Y-85943736D01*
X103461612Y-86037963D01*
X103220115Y-86086000D01*
X102973885Y-86086000D01*
X102732388Y-86037963D01*
X102504904Y-85943736D01*
X102300169Y-85806936D01*
X102126064Y-85632831D01*
X101989264Y-85428096D01*
X101895037Y-85200612D01*
X101847000Y-84959115D01*
X101847000Y-84712885D01*
X101895037Y-84471388D01*
X101989264Y-84243904D01*
X102126064Y-84039169D01*
X102300169Y-83865064D01*
X102504904Y-83728264D01*
X102732388Y-83634037D01*
X102973885Y-83586000D01*
X103220115Y-83586000D01*
X103461612Y-83634037D01*
X103461612Y-83634037D01*
G37*
G36*
X125337000Y-85808000D02*
X123837000Y-85808000D01*
X123837000Y-84408000D01*
X125337000Y-84408000D01*
X125337000Y-85808000D01*
X125337000Y-85808000D01*
G37*
G36*
X195822000Y-84703184D02*
X194322000Y-84703184D01*
X194322000Y-83303184D01*
X195822000Y-83303184D01*
X195822000Y-84703184D01*
X195822000Y-84703184D01*
G37*
G36*
X190742000Y-84213184D02*
X189242000Y-84213184D01*
X189242000Y-82813184D01*
X190742000Y-82813184D01*
X190742000Y-84213184D01*
X190742000Y-84213184D01*
G37*
G36*
X161408980Y-84036638D02*
X160008980Y-84036638D01*
X160008980Y-82536638D01*
X161408980Y-82536638D01*
X161408980Y-84036638D01*
X161408980Y-84036638D01*
G37*
G36*
X159358980Y-84036638D02*
X157958980Y-84036638D01*
X157958980Y-82536638D01*
X159358980Y-82536638D01*
X159358980Y-84036638D01*
X159358980Y-84036638D01*
G37*
G36*
X125337000Y-83758000D02*
X123837000Y-83758000D01*
X123837000Y-82358000D01*
X125337000Y-82358000D01*
X125337000Y-83758000D01*
X125337000Y-83758000D01*
G37*
G36*
X157258966Y-83158111D02*
X155758966Y-83158111D01*
X155758966Y-81758111D01*
X157258966Y-81758111D01*
X157258966Y-83158111D01*
X157258966Y-83158111D01*
G37*
G36*
X155182000Y-83088184D02*
X153682000Y-83088184D01*
X153682000Y-81688184D01*
X155182000Y-81688184D01*
X155182000Y-83088184D01*
X155182000Y-83088184D01*
G37*
G36*
X204762000Y-82558184D02*
X203162000Y-82558184D01*
X203162000Y-80658184D01*
X204762000Y-80658184D01*
X204762000Y-82558184D01*
X204762000Y-82558184D01*
G37*
G36*
X207862000Y-82558184D02*
X206262000Y-82558184D01*
X206262000Y-80658184D01*
X207862000Y-80658184D01*
X207862000Y-82558184D01*
X207862000Y-82558184D01*
G37*
G36*
X157258966Y-81108111D02*
X155758966Y-81108111D01*
X155758966Y-79708111D01*
X157258966Y-79708111D01*
X157258966Y-81108111D01*
X157258966Y-81108111D01*
G37*
G36*
X155182000Y-81038184D02*
X153682000Y-81038184D01*
X153682000Y-79638184D01*
X155182000Y-79638184D01*
X155182000Y-81038184D01*
X155182000Y-81038184D01*
G37*
G36*
X108052000Y-80943000D02*
X101752000Y-80943000D01*
X101752000Y-78743000D01*
X108052000Y-78743000D01*
X108052000Y-80943000D01*
X108052000Y-80943000D01*
G37*
G36*
X100522000Y-80633000D02*
X99122000Y-80633000D01*
X99122000Y-79133000D01*
X100522000Y-79133000D01*
X100522000Y-80633000D01*
X100522000Y-80633000D01*
G37*
G36*
X98472000Y-80633000D02*
X97072000Y-80633000D01*
X97072000Y-79133000D01*
X98472000Y-79133000D01*
X98472000Y-80633000D01*
X98472000Y-80633000D01*
G37*
G36*
X204712000Y-79133184D02*
X203212000Y-79133184D01*
X203212000Y-77733184D01*
X204712000Y-77733184D01*
X204712000Y-79133184D01*
X204712000Y-79133184D01*
G37*
G36*
X186932000Y-78678000D02*
X185432000Y-78678000D01*
X185432000Y-77278000D01*
X186932000Y-77278000D01*
X186932000Y-78678000D01*
X186932000Y-78678000D01*
G37*
G36*
X195822000Y-78678000D02*
X194322000Y-78678000D01*
X194322000Y-77278000D01*
X195822000Y-77278000D01*
X195822000Y-78678000D01*
X195822000Y-78678000D01*
G37*
G36*
X178042000Y-78678000D02*
X176542000Y-78678000D01*
X176542000Y-77278000D01*
X178042000Y-77278000D01*
X178042000Y-78678000D01*
X178042000Y-78678000D01*
G37*
G36*
X169152000Y-78678000D02*
X167652000Y-78678000D01*
X167652000Y-77278000D01*
X169152000Y-77278000D01*
X169152000Y-78678000D01*
X169152000Y-78678000D01*
G37*
G36*
X114958431Y-78093000D02*
X113558431Y-78093000D01*
X113558431Y-76593000D01*
X114958431Y-76593000D01*
X114958431Y-78093000D01*
X114958431Y-78093000D01*
G37*
G36*
X112908431Y-78093000D02*
X111508431Y-78093000D01*
X111508431Y-76593000D01*
X112908431Y-76593000D01*
X112908431Y-78093000D01*
X112908431Y-78093000D01*
G37*
G36*
X143013317Y-78093000D02*
X141613317Y-78093000D01*
X141613317Y-76593000D01*
X143013317Y-76593000D01*
X143013317Y-78093000D01*
X143013317Y-78093000D01*
G37*
G36*
X145063317Y-78093000D02*
X143663317Y-78093000D01*
X143663317Y-76593000D01*
X145063317Y-76593000D01*
X145063317Y-78093000D01*
X145063317Y-78093000D01*
G37*
G36*
X149467000Y-77673098D02*
X147967000Y-77673098D01*
X147967000Y-76273098D01*
X149467000Y-76273098D01*
X149467000Y-77673098D01*
X149467000Y-77673098D01*
G37*
G36*
X147077744Y-77668098D02*
X145577744Y-77668098D01*
X145577744Y-76268098D01*
X147077744Y-76268098D01*
X147077744Y-77668098D01*
X147077744Y-77668098D01*
G37*
G36*
X100572000Y-77553000D02*
X99072000Y-77553000D01*
X99072000Y-76153000D01*
X100572000Y-76153000D01*
X100572000Y-77553000D01*
X100572000Y-77553000D01*
G37*
G36*
X119696094Y-77127967D02*
X118196094Y-77127967D01*
X118196094Y-75727967D01*
X119696094Y-75727967D01*
X119696094Y-77127967D01*
X119696094Y-77127967D01*
G37*
G36*
X117400023Y-77127967D02*
X115900023Y-77127967D01*
X115900023Y-75727967D01*
X117400023Y-75727967D01*
X117400023Y-77127967D01*
X117400023Y-77127967D01*
G37*
G36*
X204712000Y-77083184D02*
X203212000Y-77083184D01*
X203212000Y-75683184D01*
X204712000Y-75683184D01*
X204712000Y-77083184D01*
X204712000Y-77083184D01*
G37*
G36*
X132957000Y-76918000D02*
X131457000Y-76918000D01*
X131457000Y-75518000D01*
X132957000Y-75518000D01*
X132957000Y-76918000D01*
X132957000Y-76918000D01*
G37*
G36*
X162802000Y-76918000D02*
X161302000Y-76918000D01*
X161302000Y-75518000D01*
X162802000Y-75518000D01*
X162802000Y-76918000D01*
X162802000Y-76918000D01*
G37*
G36*
X130197000Y-76888000D02*
X128797000Y-76888000D01*
X128797000Y-75888000D01*
X130197000Y-75888000D01*
X130197000Y-76888000D01*
X130197000Y-76888000D01*
G37*
G36*
X160042000Y-76636817D02*
X158642000Y-76636817D01*
X158642000Y-75636817D01*
X160042000Y-75636817D01*
X160042000Y-76636817D01*
X160042000Y-76636817D01*
G37*
G36*
X195822000Y-76628000D02*
X194322000Y-76628000D01*
X194322000Y-75228000D01*
X195822000Y-75228000D01*
X195822000Y-76628000D01*
X195822000Y-76628000D01*
G37*
G36*
X169152000Y-76628000D02*
X167652000Y-76628000D01*
X167652000Y-75228000D01*
X169152000Y-75228000D01*
X169152000Y-76628000D01*
X169152000Y-76628000D01*
G37*
G36*
X178042000Y-76628000D02*
X176542000Y-76628000D01*
X176542000Y-75228000D01*
X178042000Y-75228000D01*
X178042000Y-76628000D01*
X178042000Y-76628000D01*
G37*
G36*
X186932000Y-76628000D02*
X185432000Y-76628000D01*
X185432000Y-75228000D01*
X186932000Y-75228000D01*
X186932000Y-76628000D01*
X186932000Y-76628000D01*
G37*
G36*
X108052000Y-75943000D02*
X101752000Y-75943000D01*
X101752000Y-73743000D01*
X108052000Y-73743000D01*
X108052000Y-75943000D01*
X108052000Y-75943000D01*
G37*
G36*
X127997000Y-75938000D02*
X126597000Y-75938000D01*
X126597000Y-74938000D01*
X127997000Y-74938000D01*
X127997000Y-75938000D01*
X127997000Y-75938000D01*
G37*
G36*
X112908431Y-75796929D02*
X111508431Y-75796929D01*
X111508431Y-74296929D01*
X112908431Y-74296929D01*
X112908431Y-75796929D01*
X112908431Y-75796929D01*
G37*
G36*
X114958431Y-75796929D02*
X113558431Y-75796929D01*
X113558431Y-74296929D01*
X114958431Y-74296929D01*
X114958431Y-75796929D01*
X114958431Y-75796929D01*
G37*
G36*
X145063317Y-75704153D02*
X143663317Y-75704153D01*
X143663317Y-74204153D01*
X145063317Y-74204153D01*
X145063317Y-75704153D01*
X145063317Y-75704153D01*
G37*
G36*
X143013317Y-75704153D02*
X141613317Y-75704153D01*
X141613317Y-74204153D01*
X143013317Y-74204153D01*
X143013317Y-75704153D01*
X143013317Y-75704153D01*
G37*
G36*
X157842000Y-75686817D02*
X156442000Y-75686817D01*
X156442000Y-74686817D01*
X157842000Y-74686817D01*
X157842000Y-75686817D01*
X157842000Y-75686817D01*
G37*
G36*
X149467000Y-75623098D02*
X147967000Y-75623098D01*
X147967000Y-74223098D01*
X149467000Y-74223098D01*
X149467000Y-75623098D01*
X149467000Y-75623098D01*
G37*
G36*
X147077744Y-75618098D02*
X145577744Y-75618098D01*
X145577744Y-74218098D01*
X147077744Y-74218098D01*
X147077744Y-75618098D01*
X147077744Y-75618098D01*
G37*
G36*
X100572000Y-75503000D02*
X99072000Y-75503000D01*
X99072000Y-74103000D01*
X100572000Y-74103000D01*
X100572000Y-75503000D01*
X100572000Y-75503000D01*
G37*
G36*
X95019831Y-73252103D02*
X95019833Y-73252104D01*
X95019834Y-73252104D01*
X95193178Y-73323905D01*
X95349184Y-73428145D01*
X95481855Y-73560816D01*
X95586095Y-73716822D01*
X95594377Y-73736817D01*
X95657897Y-73890169D01*
X95694500Y-74074185D01*
X95694500Y-74261815D01*
X95660584Y-74432325D01*
X95657896Y-74445834D01*
X95586095Y-74619178D01*
X95481855Y-74775184D01*
X95349184Y-74907855D01*
X95193178Y-75012095D01*
X95019834Y-75083896D01*
X95019833Y-75083896D01*
X95019831Y-75083897D01*
X94835815Y-75120500D01*
X94648185Y-75120500D01*
X94464169Y-75083897D01*
X94464167Y-75083896D01*
X94464166Y-75083896D01*
X94290822Y-75012095D01*
X94134816Y-74907855D01*
X94002145Y-74775184D01*
X93897905Y-74619178D01*
X93826104Y-74445834D01*
X93823417Y-74432325D01*
X93789500Y-74261815D01*
X93789500Y-74074185D01*
X93826103Y-73890169D01*
X93889623Y-73736817D01*
X93897905Y-73716822D01*
X94002145Y-73560816D01*
X94134816Y-73428145D01*
X94290822Y-73323905D01*
X94464166Y-73252104D01*
X94464167Y-73252104D01*
X94464169Y-73252103D01*
X94648185Y-73215500D01*
X94835815Y-73215500D01*
X95019831Y-73252103D01*
X95019831Y-73252103D01*
G37*
G36*
X117400023Y-75077967D02*
X115900023Y-75077967D01*
X115900023Y-73677967D01*
X117400023Y-73677967D01*
X117400023Y-75077967D01*
X117400023Y-75077967D01*
G37*
G36*
X119696094Y-75077967D02*
X118196094Y-75077967D01*
X118196094Y-73677967D01*
X119696094Y-73677967D01*
X119696094Y-75077967D01*
X119696094Y-75077967D01*
G37*
G36*
X130197000Y-74988000D02*
X128797000Y-74988000D01*
X128797000Y-73988000D01*
X130197000Y-73988000D01*
X130197000Y-74988000D01*
X130197000Y-74988000D01*
G37*
G36*
X132957000Y-74868000D02*
X131457000Y-74868000D01*
X131457000Y-73468000D01*
X132957000Y-73468000D01*
X132957000Y-74868000D01*
X132957000Y-74868000D01*
G37*
G36*
X162802000Y-74868000D02*
X161302000Y-74868000D01*
X161302000Y-73468000D01*
X162802000Y-73468000D01*
X162802000Y-74868000D01*
X162802000Y-74868000D01*
G37*
G36*
X160042000Y-74736817D02*
X158642000Y-74736817D01*
X158642000Y-73736817D01*
X160042000Y-73736817D01*
X160042000Y-74736817D01*
X160042000Y-74736817D01*
G37*
G36*
X87366494Y-73092011D02*
X87519037Y-73155196D01*
X87656325Y-73246929D01*
X87773071Y-73363675D01*
X87864804Y-73500963D01*
X87927989Y-73653506D01*
X87960200Y-73815443D01*
X87960200Y-73980557D01*
X87927989Y-74142494D01*
X87864804Y-74295037D01*
X87773071Y-74432325D01*
X87656325Y-74549071D01*
X87519037Y-74640804D01*
X87366494Y-74703989D01*
X87204557Y-74736200D01*
X87039443Y-74736200D01*
X86877506Y-74703989D01*
X86724963Y-74640804D01*
X86587675Y-74549071D01*
X86470929Y-74432325D01*
X86379196Y-74295037D01*
X86316011Y-74142494D01*
X86283800Y-73980557D01*
X86283800Y-73815443D01*
X86316011Y-73653506D01*
X86379196Y-73500963D01*
X86470929Y-73363675D01*
X86587675Y-73246929D01*
X86724963Y-73155196D01*
X86877506Y-73092011D01*
X87039443Y-73059800D01*
X87204557Y-73059800D01*
X87366494Y-73092011D01*
X87366494Y-73092011D01*
G37*
G36*
X192012000Y-74378000D02*
X190512000Y-74378000D01*
X190512000Y-72978000D01*
X192012000Y-72978000D01*
X192012000Y-74378000D01*
X192012000Y-74378000D01*
G37*
G36*
X124702000Y-74378000D02*
X123202000Y-74378000D01*
X123202000Y-72978000D01*
X124702000Y-72978000D01*
X124702000Y-74378000D01*
X124702000Y-74378000D01*
G37*
G36*
X154547000Y-74378000D02*
X153047000Y-74378000D01*
X153047000Y-72978000D01*
X154547000Y-72978000D01*
X154547000Y-74378000D01*
X154547000Y-74378000D01*
G37*
G36*
X200902000Y-74378000D02*
X199402000Y-74378000D01*
X199402000Y-72978000D01*
X200902000Y-72978000D01*
X200902000Y-74378000D01*
X200902000Y-74378000D01*
G37*
G36*
X174232000Y-74378000D02*
X172732000Y-74378000D01*
X172732000Y-72978000D01*
X174232000Y-72978000D01*
X174232000Y-74378000D01*
X174232000Y-74378000D01*
G37*
G36*
X183122000Y-74378000D02*
X181622000Y-74378000D01*
X181622000Y-72978000D01*
X183122000Y-72978000D01*
X183122000Y-74378000D01*
X183122000Y-74378000D01*
G37*
G36*
X209792000Y-74198184D02*
X208292000Y-74198184D01*
X208292000Y-72798184D01*
X209792000Y-72798184D01*
X209792000Y-74198184D01*
X209792000Y-74198184D01*
G37*
G36*
X143117000Y-73108000D02*
X141617000Y-73108000D01*
X141617000Y-71708000D01*
X143117000Y-71708000D01*
X143117000Y-73108000D01*
X143117000Y-73108000D01*
G37*
G36*
X113272000Y-73108000D02*
X111772000Y-73108000D01*
X111772000Y-71708000D01*
X113272000Y-71708000D01*
X113272000Y-73108000D01*
X113272000Y-73108000D01*
G37*
G36*
X145657000Y-73108000D02*
X144157000Y-73108000D01*
X144157000Y-71708000D01*
X145657000Y-71708000D01*
X145657000Y-73108000D01*
X145657000Y-73108000D01*
G37*
G36*
X115812000Y-73108000D02*
X114312000Y-73108000D01*
X114312000Y-71708000D01*
X115812000Y-71708000D01*
X115812000Y-73108000D01*
X115812000Y-73108000D01*
G37*
G36*
X195942000Y-73078000D02*
X194542000Y-73078000D01*
X194542000Y-72078000D01*
X195942000Y-72078000D01*
X195942000Y-73078000D01*
X195942000Y-73078000D01*
G37*
G36*
X178162000Y-73078000D02*
X176762000Y-73078000D01*
X176762000Y-72078000D01*
X178162000Y-72078000D01*
X178162000Y-73078000D01*
X178162000Y-73078000D01*
G37*
G36*
X169272000Y-73078000D02*
X167872000Y-73078000D01*
X167872000Y-72078000D01*
X169272000Y-72078000D01*
X169272000Y-73078000D01*
X169272000Y-73078000D01*
G37*
G36*
X187052000Y-73078000D02*
X185652000Y-73078000D01*
X185652000Y-72078000D01*
X187052000Y-72078000D01*
X187052000Y-73078000D01*
X187052000Y-73078000D01*
G37*
G36*
X204832000Y-72898184D02*
X203432000Y-72898184D01*
X203432000Y-71898184D01*
X204832000Y-71898184D01*
X204832000Y-72898184D01*
X204832000Y-72898184D01*
G37*
G36*
X87366494Y-71092011D02*
X87519037Y-71155196D01*
X87656325Y-71246929D01*
X87773071Y-71363675D01*
X87864804Y-71500963D01*
X87927989Y-71653506D01*
X87960200Y-71815443D01*
X87960200Y-71980557D01*
X87927989Y-72142494D01*
X87864804Y-72295037D01*
X87773071Y-72432325D01*
X87656325Y-72549071D01*
X87519037Y-72640804D01*
X87366494Y-72703989D01*
X87204557Y-72736200D01*
X87039443Y-72736200D01*
X86877506Y-72703989D01*
X86724963Y-72640804D01*
X86587675Y-72549071D01*
X86470929Y-72432325D01*
X86379196Y-72295037D01*
X86316011Y-72142494D01*
X86283800Y-71980557D01*
X86283800Y-71815443D01*
X86316011Y-71653506D01*
X86379196Y-71500963D01*
X86470929Y-71363675D01*
X86587675Y-71246929D01*
X86724963Y-71155196D01*
X86877506Y-71092011D01*
X87039443Y-71059800D01*
X87204557Y-71059800D01*
X87366494Y-71092011D01*
X87366494Y-71092011D01*
G37*
G36*
X150217926Y-70638029D02*
X150283356Y-70651044D01*
X150430768Y-70712104D01*
X150468256Y-70727632D01*
X150634665Y-70838823D01*
X150776177Y-70980335D01*
X150887368Y-71146744D01*
X150963956Y-71331645D01*
X151003000Y-71527931D01*
X151003000Y-71728069D01*
X150963956Y-71924355D01*
X150887368Y-72109256D01*
X150776177Y-72275665D01*
X150634665Y-72417177D01*
X150634662Y-72417179D01*
X150468256Y-72528368D01*
X150283356Y-72604956D01*
X150217926Y-72617971D01*
X150087069Y-72644000D01*
X149886931Y-72644000D01*
X149756074Y-72617971D01*
X149690644Y-72604956D01*
X149505744Y-72528368D01*
X149339338Y-72417179D01*
X149339335Y-72417177D01*
X149197823Y-72275665D01*
X149086632Y-72109256D01*
X149010044Y-71924355D01*
X148971000Y-71728069D01*
X148971000Y-71527931D01*
X149010044Y-71331645D01*
X149086632Y-71146744D01*
X149197823Y-70980335D01*
X149339335Y-70838823D01*
X149505744Y-70727632D01*
X149543232Y-70712104D01*
X149690644Y-70651044D01*
X149756074Y-70638029D01*
X149886931Y-70612000D01*
X150087069Y-70612000D01*
X150217926Y-70638029D01*
X150217926Y-70638029D01*
G37*
G36*
X120372926Y-70638029D02*
X120438356Y-70651044D01*
X120585768Y-70712104D01*
X120623256Y-70727632D01*
X120789665Y-70838823D01*
X120931177Y-70980335D01*
X121042368Y-71146744D01*
X121118956Y-71331645D01*
X121158000Y-71527931D01*
X121158000Y-71728069D01*
X121118956Y-71924355D01*
X121042368Y-72109256D01*
X120931177Y-72275665D01*
X120789665Y-72417177D01*
X120789662Y-72417179D01*
X120623256Y-72528368D01*
X120438356Y-72604956D01*
X120372926Y-72617971D01*
X120242069Y-72644000D01*
X120041931Y-72644000D01*
X119911074Y-72617971D01*
X119845644Y-72604956D01*
X119660744Y-72528368D01*
X119494338Y-72417179D01*
X119494335Y-72417177D01*
X119352823Y-72275665D01*
X119241632Y-72109256D01*
X119165044Y-71924355D01*
X119126000Y-71728069D01*
X119126000Y-71527931D01*
X119165044Y-71331645D01*
X119241632Y-71146744D01*
X119352823Y-70980335D01*
X119494335Y-70838823D01*
X119660744Y-70727632D01*
X119698232Y-70712104D01*
X119845644Y-70651044D01*
X119911074Y-70638029D01*
X120041931Y-70612000D01*
X120242069Y-70612000D01*
X120372926Y-70638029D01*
X120372926Y-70638029D01*
G37*
G36*
X127992926Y-70638029D02*
X128058356Y-70651044D01*
X128205768Y-70712104D01*
X128243256Y-70727632D01*
X128409665Y-70838823D01*
X128551177Y-70980335D01*
X128662368Y-71146744D01*
X128738956Y-71331645D01*
X128778000Y-71527931D01*
X128778000Y-71728069D01*
X128738956Y-71924355D01*
X128662368Y-72109256D01*
X128551177Y-72275665D01*
X128409665Y-72417177D01*
X128409662Y-72417179D01*
X128243256Y-72528368D01*
X128058356Y-72604956D01*
X127992926Y-72617971D01*
X127862069Y-72644000D01*
X127661931Y-72644000D01*
X127531074Y-72617971D01*
X127465644Y-72604956D01*
X127280744Y-72528368D01*
X127114338Y-72417179D01*
X127114335Y-72417177D01*
X126972823Y-72275665D01*
X126861632Y-72109256D01*
X126785044Y-71924355D01*
X126746000Y-71728069D01*
X126746000Y-71527931D01*
X126785044Y-71331645D01*
X126861632Y-71146744D01*
X126972823Y-70980335D01*
X127114335Y-70838823D01*
X127280744Y-70727632D01*
X127318232Y-70712104D01*
X127465644Y-70651044D01*
X127531074Y-70638029D01*
X127661931Y-70612000D01*
X127862069Y-70612000D01*
X127992926Y-70638029D01*
X127992926Y-70638029D01*
G37*
G36*
X157837926Y-70638029D02*
X157903356Y-70651044D01*
X158050768Y-70712104D01*
X158088256Y-70727632D01*
X158254665Y-70838823D01*
X158396177Y-70980335D01*
X158507368Y-71146744D01*
X158583956Y-71331645D01*
X158623000Y-71527931D01*
X158623000Y-71728069D01*
X158583956Y-71924355D01*
X158507368Y-72109256D01*
X158396177Y-72275665D01*
X158254665Y-72417177D01*
X158254662Y-72417179D01*
X158088256Y-72528368D01*
X157903356Y-72604956D01*
X157837926Y-72617971D01*
X157707069Y-72644000D01*
X157506931Y-72644000D01*
X157376074Y-72617971D01*
X157310644Y-72604956D01*
X157125744Y-72528368D01*
X156959338Y-72417179D01*
X156959335Y-72417177D01*
X156817823Y-72275665D01*
X156706632Y-72109256D01*
X156630044Y-71924355D01*
X156591000Y-71728069D01*
X156591000Y-71527931D01*
X156630044Y-71331645D01*
X156706632Y-71146744D01*
X156817823Y-70980335D01*
X156959335Y-70838823D01*
X157125744Y-70727632D01*
X157163232Y-70712104D01*
X157310644Y-70651044D01*
X157376074Y-70638029D01*
X157506931Y-70612000D01*
X157707069Y-70612000D01*
X157837926Y-70638029D01*
X157837926Y-70638029D01*
G37*
G36*
X95019831Y-70712103D02*
X95019833Y-70712104D01*
X95019834Y-70712104D01*
X95193178Y-70783905D01*
X95349184Y-70888145D01*
X95481855Y-71020816D01*
X95586095Y-71176822D01*
X95615133Y-71246927D01*
X95657897Y-71350169D01*
X95693256Y-71527931D01*
X95694500Y-71534187D01*
X95694500Y-71721813D01*
X95657896Y-71905834D01*
X95586095Y-72079178D01*
X95481855Y-72235184D01*
X95349184Y-72367855D01*
X95193178Y-72472095D01*
X95019834Y-72543896D01*
X95019833Y-72543896D01*
X95019831Y-72543897D01*
X94835815Y-72580500D01*
X94648185Y-72580500D01*
X94464169Y-72543897D01*
X94464167Y-72543896D01*
X94464166Y-72543896D01*
X94290822Y-72472095D01*
X94134816Y-72367855D01*
X94002145Y-72235184D01*
X93897905Y-72079178D01*
X93826104Y-71905834D01*
X93789500Y-71721813D01*
X93789500Y-71534187D01*
X93790744Y-71527931D01*
X93826103Y-71350169D01*
X93868867Y-71246927D01*
X93897905Y-71176822D01*
X94002145Y-71020816D01*
X94134816Y-70888145D01*
X94290822Y-70783905D01*
X94464166Y-70712104D01*
X94464167Y-70712104D01*
X94464169Y-70712103D01*
X94648185Y-70675500D01*
X94835815Y-70675500D01*
X95019831Y-70712103D01*
X95019831Y-70712103D01*
G37*
G36*
X174232000Y-72328000D02*
X172732000Y-72328000D01*
X172732000Y-70928000D01*
X174232000Y-70928000D01*
X174232000Y-72328000D01*
X174232000Y-72328000D01*
G37*
G36*
X154547000Y-72328000D02*
X153047000Y-72328000D01*
X153047000Y-70928000D01*
X154547000Y-70928000D01*
X154547000Y-72328000D01*
X154547000Y-72328000D01*
G37*
G36*
X183122000Y-72328000D02*
X181622000Y-72328000D01*
X181622000Y-70928000D01*
X183122000Y-70928000D01*
X183122000Y-72328000D01*
X183122000Y-72328000D01*
G37*
G36*
X200902000Y-72328000D02*
X199402000Y-72328000D01*
X199402000Y-70928000D01*
X200902000Y-70928000D01*
X200902000Y-72328000D01*
X200902000Y-72328000D01*
G37*
G36*
X192012000Y-72328000D02*
X190512000Y-72328000D01*
X190512000Y-70928000D01*
X192012000Y-70928000D01*
X192012000Y-72328000D01*
X192012000Y-72328000D01*
G37*
G36*
X124702000Y-72328000D02*
X123202000Y-72328000D01*
X123202000Y-70928000D01*
X124702000Y-70928000D01*
X124702000Y-72328000D01*
X124702000Y-72328000D01*
G37*
G36*
X209792000Y-72148184D02*
X208292000Y-72148184D01*
X208292000Y-70748184D01*
X209792000Y-70748184D01*
X209792000Y-72148184D01*
X209792000Y-72148184D01*
G37*
G36*
X180362000Y-72128000D02*
X178962000Y-72128000D01*
X178962000Y-71128000D01*
X180362000Y-71128000D01*
X180362000Y-72128000D01*
X180362000Y-72128000D01*
G37*
G36*
X171472000Y-72128000D02*
X170072000Y-72128000D01*
X170072000Y-71128000D01*
X171472000Y-71128000D01*
X171472000Y-72128000D01*
X171472000Y-72128000D01*
G37*
G36*
X189252000Y-72128000D02*
X187852000Y-72128000D01*
X187852000Y-71128000D01*
X189252000Y-71128000D01*
X189252000Y-72128000D01*
X189252000Y-72128000D01*
G37*
G36*
X198142000Y-72128000D02*
X196742000Y-72128000D01*
X196742000Y-71128000D01*
X198142000Y-71128000D01*
X198142000Y-72128000D01*
X198142000Y-72128000D01*
G37*
G36*
X207032000Y-71948184D02*
X205632000Y-71948184D01*
X205632000Y-70948184D01*
X207032000Y-70948184D01*
X207032000Y-71948184D01*
X207032000Y-71948184D01*
G37*
G36*
X104332000Y-71743000D02*
X102932000Y-71743000D01*
X102932000Y-70243000D01*
X104332000Y-70243000D01*
X104332000Y-71743000D01*
X104332000Y-71743000D01*
G37*
G36*
X106382000Y-71743000D02*
X104982000Y-71743000D01*
X104982000Y-70243000D01*
X106382000Y-70243000D01*
X106382000Y-71743000D01*
X106382000Y-71743000D01*
G37*
G36*
X99252000Y-71743000D02*
X97852000Y-71743000D01*
X97852000Y-70243000D01*
X99252000Y-70243000D01*
X99252000Y-71743000D01*
X99252000Y-71743000D01*
G37*
G36*
X101302000Y-71743000D02*
X99902000Y-71743000D01*
X99902000Y-70243000D01*
X101302000Y-70243000D01*
X101302000Y-71743000D01*
X101302000Y-71743000D01*
G37*
G36*
X187052000Y-71178000D02*
X185652000Y-71178000D01*
X185652000Y-70178000D01*
X187052000Y-70178000D01*
X187052000Y-71178000D01*
X187052000Y-71178000D01*
G37*
G36*
X195942000Y-71178000D02*
X194542000Y-71178000D01*
X194542000Y-70178000D01*
X195942000Y-70178000D01*
X195942000Y-71178000D01*
X195942000Y-71178000D01*
G37*
G36*
X169272000Y-71178000D02*
X167872000Y-71178000D01*
X167872000Y-70178000D01*
X169272000Y-70178000D01*
X169272000Y-71178000D01*
X169272000Y-71178000D01*
G37*
G36*
X178162000Y-71178000D02*
X176762000Y-71178000D01*
X176762000Y-70178000D01*
X178162000Y-70178000D01*
X178162000Y-71178000D01*
X178162000Y-71178000D01*
G37*
G36*
X145657000Y-71058000D02*
X144157000Y-71058000D01*
X144157000Y-69658000D01*
X145657000Y-69658000D01*
X145657000Y-71058000D01*
X145657000Y-71058000D01*
G37*
G36*
X113272000Y-71058000D02*
X111772000Y-71058000D01*
X111772000Y-69658000D01*
X113272000Y-69658000D01*
X113272000Y-71058000D01*
X113272000Y-71058000D01*
G37*
G36*
X143117000Y-71058000D02*
X141617000Y-71058000D01*
X141617000Y-69658000D01*
X143117000Y-69658000D01*
X143117000Y-71058000D01*
X143117000Y-71058000D01*
G37*
G36*
X115812000Y-71058000D02*
X114312000Y-71058000D01*
X114312000Y-69658000D01*
X115812000Y-69658000D01*
X115812000Y-71058000D01*
X115812000Y-71058000D01*
G37*
G36*
X204832000Y-70998184D02*
X203432000Y-70998184D01*
X203432000Y-69998184D01*
X204832000Y-69998184D01*
X204832000Y-70998184D01*
X204832000Y-70998184D01*
G37*
G36*
X95019831Y-68172103D02*
X95019833Y-68172104D01*
X95019834Y-68172104D01*
X95193178Y-68243905D01*
X95349184Y-68348145D01*
X95481855Y-68480816D01*
X95586095Y-68636822D01*
X95657896Y-68810166D01*
X95694500Y-68994187D01*
X95694500Y-69181813D01*
X95657896Y-69365834D01*
X95586095Y-69539178D01*
X95481855Y-69695184D01*
X95349184Y-69827855D01*
X95193178Y-69932095D01*
X95019834Y-70003896D01*
X95019833Y-70003896D01*
X95019831Y-70003897D01*
X94835815Y-70040500D01*
X94648185Y-70040500D01*
X94464169Y-70003897D01*
X94464167Y-70003896D01*
X94464166Y-70003896D01*
X94290822Y-69932095D01*
X94134816Y-69827855D01*
X94002145Y-69695184D01*
X93897905Y-69539178D01*
X93826104Y-69365834D01*
X93789500Y-69181813D01*
X93789500Y-68994187D01*
X93826104Y-68810166D01*
X93897905Y-68636822D01*
X94002145Y-68480816D01*
X94134816Y-68348145D01*
X94290822Y-68243905D01*
X94464166Y-68172104D01*
X94464167Y-68172104D01*
X94464169Y-68172103D01*
X94648185Y-68135500D01*
X94835815Y-68135500D01*
X95019831Y-68172103D01*
X95019831Y-68172103D01*
G37*
G36*
X152997000Y-69588000D02*
X151497000Y-69588000D01*
X151497000Y-68588000D01*
X152997000Y-68588000D01*
X152997000Y-69588000D01*
X152997000Y-69588000D01*
G37*
G36*
X123152000Y-69588000D02*
X121652000Y-69588000D01*
X121652000Y-68588000D01*
X123152000Y-68588000D01*
X123152000Y-69588000D01*
X123152000Y-69588000D01*
G37*
G36*
X126252000Y-69588000D02*
X124752000Y-69588000D01*
X124752000Y-68588000D01*
X126252000Y-68588000D01*
X126252000Y-69588000D01*
X126252000Y-69588000D01*
G37*
G36*
X156097000Y-69588000D02*
X154597000Y-69588000D01*
X154597000Y-68588000D01*
X156097000Y-68588000D01*
X156097000Y-69588000D01*
X156097000Y-69588000D01*
G37*
G36*
X145117000Y-68568000D02*
X143717000Y-68568000D01*
X143717000Y-67068000D01*
X145117000Y-67068000D01*
X145117000Y-68568000D01*
X145117000Y-68568000D01*
G37*
G36*
X115272000Y-68568000D02*
X113872000Y-68568000D01*
X113872000Y-67068000D01*
X115272000Y-67068000D01*
X115272000Y-68568000D01*
X115272000Y-68568000D01*
G37*
G36*
X113222000Y-68568000D02*
X111822000Y-68568000D01*
X111822000Y-67068000D01*
X113222000Y-67068000D01*
X113222000Y-68568000D01*
X113222000Y-68568000D01*
G37*
G36*
X107652000Y-68568000D02*
X106252000Y-68568000D01*
X106252000Y-67068000D01*
X107652000Y-67068000D01*
X107652000Y-68568000D01*
X107652000Y-68568000D01*
G37*
G36*
X105602000Y-68568000D02*
X104202000Y-68568000D01*
X104202000Y-67068000D01*
X105602000Y-67068000D01*
X105602000Y-68568000D01*
X105602000Y-68568000D01*
G37*
G36*
X143067000Y-68568000D02*
X141667000Y-68568000D01*
X141667000Y-67068000D01*
X143067000Y-67068000D01*
X143067000Y-68568000D01*
X143067000Y-68568000D01*
G37*
G36*
X127992926Y-60478029D02*
X128058356Y-60491044D01*
X128205768Y-60552104D01*
X128243256Y-60567632D01*
X128409665Y-60678823D01*
X128551177Y-60820335D01*
X128662368Y-60986744D01*
X128738956Y-61171645D01*
X128778000Y-61367931D01*
X128778000Y-61568069D01*
X128738956Y-61764355D01*
X128662368Y-61949256D01*
X128551177Y-62115665D01*
X128409665Y-62257177D01*
X128409662Y-62257179D01*
X128243256Y-62368368D01*
X128058356Y-62444956D01*
X127992926Y-62457971D01*
X127862069Y-62484000D01*
X127661931Y-62484000D01*
X127531074Y-62457971D01*
X127465644Y-62444956D01*
X127280744Y-62368368D01*
X127114338Y-62257179D01*
X127114335Y-62257177D01*
X126972823Y-62115665D01*
X126861632Y-61949256D01*
X126785044Y-61764355D01*
X126746000Y-61568069D01*
X126746000Y-61367931D01*
X126785044Y-61171645D01*
X126861632Y-60986744D01*
X126972823Y-60820335D01*
X127114335Y-60678823D01*
X127280744Y-60567632D01*
X127318232Y-60552104D01*
X127465644Y-60491044D01*
X127531074Y-60478029D01*
X127661931Y-60452000D01*
X127862069Y-60452000D01*
X127992926Y-60478029D01*
X127992926Y-60478029D01*
G37*
G36*
X157837926Y-60478029D02*
X157903356Y-60491044D01*
X158050768Y-60552104D01*
X158088256Y-60567632D01*
X158254665Y-60678823D01*
X158396177Y-60820335D01*
X158507368Y-60986744D01*
X158583956Y-61171645D01*
X158623000Y-61367931D01*
X158623000Y-61568069D01*
X158583956Y-61764355D01*
X158507368Y-61949256D01*
X158396177Y-62115665D01*
X158254665Y-62257177D01*
X158254662Y-62257179D01*
X158088256Y-62368368D01*
X157903356Y-62444956D01*
X157837926Y-62457971D01*
X157707069Y-62484000D01*
X157506931Y-62484000D01*
X157376074Y-62457971D01*
X157310644Y-62444956D01*
X157125744Y-62368368D01*
X156959338Y-62257179D01*
X156959335Y-62257177D01*
X156817823Y-62115665D01*
X156706632Y-61949256D01*
X156630044Y-61764355D01*
X156591000Y-61568069D01*
X156591000Y-61367931D01*
X156630044Y-61171645D01*
X156706632Y-60986744D01*
X156817823Y-60820335D01*
X156959335Y-60678823D01*
X157125744Y-60567632D01*
X157163232Y-60552104D01*
X157310644Y-60491044D01*
X157376074Y-60478029D01*
X157506931Y-60452000D01*
X157707069Y-60452000D01*
X157837926Y-60478029D01*
X157837926Y-60478029D01*
G37*
G36*
X95019831Y-60552103D02*
X95019833Y-60552104D01*
X95019834Y-60552104D01*
X95193178Y-60623905D01*
X95349184Y-60728145D01*
X95481855Y-60860816D01*
X95586095Y-61016822D01*
X95626945Y-61115443D01*
X95657897Y-61190169D01*
X95694500Y-61374185D01*
X95694500Y-61561815D01*
X95660584Y-61732325D01*
X95657896Y-61745834D01*
X95586095Y-61919178D01*
X95481855Y-62075184D01*
X95349184Y-62207855D01*
X95193178Y-62312095D01*
X95019834Y-62383896D01*
X95019833Y-62383896D01*
X95019831Y-62383897D01*
X94835815Y-62420500D01*
X94648185Y-62420500D01*
X94464169Y-62383897D01*
X94464167Y-62383896D01*
X94464166Y-62383896D01*
X94290822Y-62312095D01*
X94134816Y-62207855D01*
X94002145Y-62075184D01*
X93897905Y-61919178D01*
X93826104Y-61745834D01*
X93823417Y-61732325D01*
X93789500Y-61561815D01*
X93789500Y-61374185D01*
X93826103Y-61190169D01*
X93857055Y-61115443D01*
X93897905Y-61016822D01*
X94002145Y-60860816D01*
X94134816Y-60728145D01*
X94290822Y-60623905D01*
X94464166Y-60552104D01*
X94464167Y-60552104D01*
X94464169Y-60552103D01*
X94648185Y-60515500D01*
X94835815Y-60515500D01*
X95019831Y-60552103D01*
X95019831Y-60552103D01*
G37*
G36*
X188152000Y-62218000D02*
X186752000Y-62218000D01*
X186752000Y-60718000D01*
X188152000Y-60718000D01*
X188152000Y-62218000D01*
X188152000Y-62218000D01*
G37*
G36*
X107652000Y-62218000D02*
X106252000Y-62218000D01*
X106252000Y-60718000D01*
X107652000Y-60718000D01*
X107652000Y-62218000D01*
X107652000Y-62218000D01*
G37*
G36*
X113712000Y-62218000D02*
X112312000Y-62218000D01*
X112312000Y-60718000D01*
X113712000Y-60718000D01*
X113712000Y-62218000D01*
X113712000Y-62218000D01*
G37*
G36*
X115762000Y-62218000D02*
X114362000Y-62218000D01*
X114362000Y-60718000D01*
X115762000Y-60718000D01*
X115762000Y-62218000D01*
X115762000Y-62218000D01*
G37*
G36*
X143557000Y-62218000D02*
X142157000Y-62218000D01*
X142157000Y-60718000D01*
X143557000Y-60718000D01*
X143557000Y-62218000D01*
X143557000Y-62218000D01*
G37*
G36*
X145607000Y-62218000D02*
X144207000Y-62218000D01*
X144207000Y-60718000D01*
X145607000Y-60718000D01*
X145607000Y-62218000D01*
X145607000Y-62218000D01*
G37*
G36*
X175452000Y-62218000D02*
X174052000Y-62218000D01*
X174052000Y-60718000D01*
X175452000Y-60718000D01*
X175452000Y-62218000D01*
X175452000Y-62218000D01*
G37*
G36*
X186102000Y-62218000D02*
X184702000Y-62218000D01*
X184702000Y-60718000D01*
X186102000Y-60718000D01*
X186102000Y-62218000D01*
X186102000Y-62218000D01*
G37*
G36*
X177502000Y-62218000D02*
X176102000Y-62218000D01*
X176102000Y-60718000D01*
X177502000Y-60718000D01*
X177502000Y-62218000D01*
X177502000Y-62218000D01*
G37*
G36*
X198312000Y-62218000D02*
X196912000Y-62218000D01*
X196912000Y-60718000D01*
X198312000Y-60718000D01*
X198312000Y-62218000D01*
X198312000Y-62218000D01*
G37*
G36*
X200362000Y-62218000D02*
X198962000Y-62218000D01*
X198962000Y-60718000D01*
X200362000Y-60718000D01*
X200362000Y-62218000D01*
X200362000Y-62218000D01*
G37*
G36*
X105602000Y-62218000D02*
X104202000Y-62218000D01*
X104202000Y-60718000D01*
X105602000Y-60718000D01*
X105602000Y-62218000D01*
X105602000Y-62218000D01*
G37*
G36*
X99302000Y-62168000D02*
X97802000Y-62168000D01*
X97802000Y-60768000D01*
X99302000Y-60768000D01*
X99302000Y-62168000D01*
X99302000Y-62168000D01*
G37*
G36*
X211792000Y-62038184D02*
X210392000Y-62038184D01*
X210392000Y-60538184D01*
X211792000Y-60538184D01*
X211792000Y-62038184D01*
X211792000Y-62038184D01*
G37*
G36*
X209742000Y-62038184D02*
X208342000Y-62038184D01*
X208342000Y-60538184D01*
X209742000Y-60538184D01*
X209742000Y-62038184D01*
X209742000Y-62038184D01*
G37*
G36*
X87366494Y-60392011D02*
X87519037Y-60455196D01*
X87656325Y-60546929D01*
X87773071Y-60663675D01*
X87864804Y-60800963D01*
X87927989Y-60953506D01*
X87960200Y-61115443D01*
X87960200Y-61280557D01*
X87927989Y-61442494D01*
X87864804Y-61595037D01*
X87773071Y-61732325D01*
X87656325Y-61849071D01*
X87519037Y-61940804D01*
X87366494Y-62003989D01*
X87204557Y-62036200D01*
X87039443Y-62036200D01*
X86877506Y-62003989D01*
X86724963Y-61940804D01*
X86587675Y-61849071D01*
X86470929Y-61732325D01*
X86379196Y-61595037D01*
X86316011Y-61442494D01*
X86283800Y-61280557D01*
X86283800Y-61115443D01*
X86316011Y-60953506D01*
X86379196Y-60800963D01*
X86470929Y-60663675D01*
X86587675Y-60546929D01*
X86724963Y-60455196D01*
X86877506Y-60392011D01*
X87039443Y-60359800D01*
X87204557Y-60359800D01*
X87366494Y-60392011D01*
X87366494Y-60392011D01*
G37*
G36*
X99302000Y-60118000D02*
X97802000Y-60118000D01*
X97802000Y-58718000D01*
X99302000Y-58718000D01*
X99302000Y-60118000D01*
X99302000Y-60118000D01*
G37*
G36*
X87366494Y-58392011D02*
X87519037Y-58455196D01*
X87656325Y-58546929D01*
X87773071Y-58663675D01*
X87864804Y-58800963D01*
X87927989Y-58953506D01*
X87960200Y-59115443D01*
X87960200Y-59280557D01*
X87927989Y-59442494D01*
X87864804Y-59595037D01*
X87773071Y-59732325D01*
X87656325Y-59849071D01*
X87519037Y-59940804D01*
X87366494Y-60003989D01*
X87204557Y-60036200D01*
X87039443Y-60036200D01*
X86877506Y-60003989D01*
X86724963Y-59940804D01*
X86587675Y-59849071D01*
X86470929Y-59732325D01*
X86379196Y-59595037D01*
X86316011Y-59442494D01*
X86283800Y-59280557D01*
X86283800Y-59115443D01*
X86316011Y-58953506D01*
X86379196Y-58800963D01*
X86470929Y-58663675D01*
X86587675Y-58546929D01*
X86724963Y-58455196D01*
X86877506Y-58392011D01*
X87039443Y-58359800D01*
X87204557Y-58359800D01*
X87366494Y-58392011D01*
X87366494Y-58392011D01*
G37*
G36*
X95019831Y-58012103D02*
X95019833Y-58012104D01*
X95019834Y-58012104D01*
X95193178Y-58083905D01*
X95349184Y-58188145D01*
X95481855Y-58320816D01*
X95586095Y-58476822D01*
X95615133Y-58546927D01*
X95657897Y-58650169D01*
X95694500Y-58834185D01*
X95694500Y-59021813D01*
X95657896Y-59205834D01*
X95586095Y-59379178D01*
X95481855Y-59535184D01*
X95349184Y-59667855D01*
X95193178Y-59772095D01*
X95019834Y-59843896D01*
X95019833Y-59843896D01*
X95019831Y-59843897D01*
X94835815Y-59880500D01*
X94648185Y-59880500D01*
X94464169Y-59843897D01*
X94464167Y-59843896D01*
X94464166Y-59843896D01*
X94290822Y-59772095D01*
X94134816Y-59667855D01*
X94002145Y-59535184D01*
X93897905Y-59379178D01*
X93826104Y-59205834D01*
X93789500Y-59021813D01*
X93789500Y-58834185D01*
X93826103Y-58650169D01*
X93868867Y-58546927D01*
X93897905Y-58476822D01*
X94002145Y-58320816D01*
X94134816Y-58188145D01*
X94290822Y-58083905D01*
X94464166Y-58012104D01*
X94464167Y-58012104D01*
X94464169Y-58012103D01*
X94648185Y-57975500D01*
X94835815Y-57975500D01*
X95019831Y-58012103D01*
X95019831Y-58012103D01*
G37*
G36*
X113712000Y-59678000D02*
X112312000Y-59678000D01*
X112312000Y-58178000D01*
X113712000Y-58178000D01*
X113712000Y-59678000D01*
X113712000Y-59678000D01*
G37*
G36*
X145607000Y-59678000D02*
X144207000Y-59678000D01*
X144207000Y-58178000D01*
X145607000Y-58178000D01*
X145607000Y-59678000D01*
X145607000Y-59678000D01*
G37*
G36*
X115762000Y-59678000D02*
X114362000Y-59678000D01*
X114362000Y-58178000D01*
X115762000Y-58178000D01*
X115762000Y-59678000D01*
X115762000Y-59678000D01*
G37*
G36*
X143557000Y-59678000D02*
X142157000Y-59678000D01*
X142157000Y-58178000D01*
X143557000Y-58178000D01*
X143557000Y-59678000D01*
X143557000Y-59678000D01*
G37*
G36*
X134476612Y-55741221D02*
X134704096Y-55835448D01*
X134908831Y-55972248D01*
X135082936Y-56146353D01*
X135219736Y-56351088D01*
X135313963Y-56578572D01*
X135362000Y-56820069D01*
X135362000Y-57066299D01*
X135313963Y-57307796D01*
X135219736Y-57535280D01*
X135082936Y-57740015D01*
X134908831Y-57914120D01*
X134704096Y-58050920D01*
X134476612Y-58145147D01*
X134235115Y-58193184D01*
X133988885Y-58193184D01*
X133747388Y-58145147D01*
X133519904Y-58050920D01*
X133315169Y-57914120D01*
X133141064Y-57740015D01*
X133004264Y-57535280D01*
X132910037Y-57307796D01*
X132862000Y-57066299D01*
X132862000Y-56820069D01*
X132910037Y-56578572D01*
X133004264Y-56351088D01*
X133141064Y-56146353D01*
X133315169Y-55972248D01*
X133519904Y-55835448D01*
X133747388Y-55741221D01*
X133988885Y-55693184D01*
X134235115Y-55693184D01*
X134476612Y-55741221D01*
X134476612Y-55741221D01*
G37*
G36*
X195876612Y-55741221D02*
X196104096Y-55835448D01*
X196308831Y-55972248D01*
X196482936Y-56146353D01*
X196619736Y-56351088D01*
X196713963Y-56578572D01*
X196762000Y-56820069D01*
X196762000Y-57066299D01*
X196713963Y-57307796D01*
X196619736Y-57535280D01*
X196482936Y-57740015D01*
X196308831Y-57914120D01*
X196104096Y-58050920D01*
X195876612Y-58145147D01*
X195635115Y-58193184D01*
X195388885Y-58193184D01*
X195147388Y-58145147D01*
X194919904Y-58050920D01*
X194715169Y-57914120D01*
X194541064Y-57740015D01*
X194404264Y-57535280D01*
X194310037Y-57307796D01*
X194262000Y-57066299D01*
X194262000Y-56820069D01*
X194310037Y-56578572D01*
X194404264Y-56351088D01*
X194541064Y-56146353D01*
X194715169Y-55972248D01*
X194919904Y-55835448D01*
X195147388Y-55741221D01*
X195388885Y-55693184D01*
X195635115Y-55693184D01*
X195876612Y-55741221D01*
X195876612Y-55741221D01*
G37*
G36*
X200076612Y-55741221D02*
X200304096Y-55835448D01*
X200508831Y-55972248D01*
X200682936Y-56146353D01*
X200819736Y-56351088D01*
X200913963Y-56578572D01*
X200962000Y-56820069D01*
X200962000Y-57066299D01*
X200913963Y-57307796D01*
X200819736Y-57535280D01*
X200682936Y-57740015D01*
X200508831Y-57914120D01*
X200304096Y-58050920D01*
X200076612Y-58145147D01*
X199835115Y-58193184D01*
X199588885Y-58193184D01*
X199347388Y-58145147D01*
X199119904Y-58050920D01*
X198915169Y-57914120D01*
X198741064Y-57740015D01*
X198604264Y-57535280D01*
X198510037Y-57307796D01*
X198462000Y-57066299D01*
X198462000Y-56820069D01*
X198510037Y-56578572D01*
X198604264Y-56351088D01*
X198741064Y-56146353D01*
X198915169Y-55972248D01*
X199119904Y-55835448D01*
X199347388Y-55741221D01*
X199588885Y-55693184D01*
X199835115Y-55693184D01*
X200076612Y-55741221D01*
X200076612Y-55741221D01*
G37*
G36*
X184446612Y-55741221D02*
X184674096Y-55835448D01*
X184878831Y-55972248D01*
X185052936Y-56146353D01*
X185189736Y-56351088D01*
X185283963Y-56578572D01*
X185332000Y-56820069D01*
X185332000Y-57066299D01*
X185283963Y-57307796D01*
X185189736Y-57535280D01*
X185052936Y-57740015D01*
X184878831Y-57914120D01*
X184674096Y-58050920D01*
X184446612Y-58145147D01*
X184205115Y-58193184D01*
X183958885Y-58193184D01*
X183717388Y-58145147D01*
X183489904Y-58050920D01*
X183285169Y-57914120D01*
X183111064Y-57740015D01*
X182974264Y-57535280D01*
X182880037Y-57307796D01*
X182832000Y-57066299D01*
X182832000Y-56820069D01*
X182880037Y-56578572D01*
X182974264Y-56351088D01*
X183111064Y-56146353D01*
X183285169Y-55972248D01*
X183489904Y-55835448D01*
X183717388Y-55741221D01*
X183958885Y-55693184D01*
X184205115Y-55693184D01*
X184446612Y-55741221D01*
X184446612Y-55741221D01*
G37*
G36*
X104631612Y-55741221D02*
X104859096Y-55835448D01*
X105063831Y-55972248D01*
X105237936Y-56146353D01*
X105374736Y-56351088D01*
X105468963Y-56578572D01*
X105517000Y-56820069D01*
X105517000Y-57066299D01*
X105468963Y-57307796D01*
X105374736Y-57535280D01*
X105237936Y-57740015D01*
X105063831Y-57914120D01*
X104859096Y-58050920D01*
X104631612Y-58145147D01*
X104390115Y-58193184D01*
X104143885Y-58193184D01*
X103902388Y-58145147D01*
X103674904Y-58050920D01*
X103470169Y-57914120D01*
X103296064Y-57740015D01*
X103159264Y-57535280D01*
X103065037Y-57307796D01*
X103017000Y-57066299D01*
X103017000Y-56820069D01*
X103065037Y-56578572D01*
X103159264Y-56351088D01*
X103296064Y-56146353D01*
X103470169Y-55972248D01*
X103674904Y-55835448D01*
X103902388Y-55741221D01*
X104143885Y-55693184D01*
X104390115Y-55693184D01*
X104631612Y-55741221D01*
X104631612Y-55741221D01*
G37*
G36*
X207306612Y-55741221D02*
X207534096Y-55835448D01*
X207738831Y-55972248D01*
X207912936Y-56146353D01*
X208049736Y-56351088D01*
X208143963Y-56578572D01*
X208192000Y-56820069D01*
X208192000Y-57066299D01*
X208143963Y-57307796D01*
X208049736Y-57535280D01*
X207912936Y-57740015D01*
X207738831Y-57914120D01*
X207534096Y-58050920D01*
X207306612Y-58145147D01*
X207065115Y-58193184D01*
X206818885Y-58193184D01*
X206577388Y-58145147D01*
X206349904Y-58050920D01*
X206145169Y-57914120D01*
X205971064Y-57740015D01*
X205834264Y-57535280D01*
X205740037Y-57307796D01*
X205692000Y-57066299D01*
X205692000Y-56820069D01*
X205740037Y-56578572D01*
X205834264Y-56351088D01*
X205971064Y-56146353D01*
X206145169Y-55972248D01*
X206349904Y-55835448D01*
X206577388Y-55741221D01*
X206818885Y-55693184D01*
X207065115Y-55693184D01*
X207306612Y-55741221D01*
X207306612Y-55741221D01*
G37*
G36*
X177216612Y-55741221D02*
X177444096Y-55835448D01*
X177648831Y-55972248D01*
X177822936Y-56146353D01*
X177959736Y-56351088D01*
X178053963Y-56578572D01*
X178102000Y-56820069D01*
X178102000Y-57066299D01*
X178053963Y-57307796D01*
X177959736Y-57535280D01*
X177822936Y-57740015D01*
X177648831Y-57914120D01*
X177444096Y-58050920D01*
X177216612Y-58145147D01*
X176975115Y-58193184D01*
X176728885Y-58193184D01*
X176487388Y-58145147D01*
X176259904Y-58050920D01*
X176055169Y-57914120D01*
X175881064Y-57740015D01*
X175744264Y-57535280D01*
X175650037Y-57307796D01*
X175602000Y-57066299D01*
X175602000Y-56820069D01*
X175650037Y-56578572D01*
X175744264Y-56351088D01*
X175881064Y-56146353D01*
X176055169Y-55972248D01*
X176259904Y-55835448D01*
X176487388Y-55741221D01*
X176728885Y-55693184D01*
X176975115Y-55693184D01*
X177216612Y-55741221D01*
X177216612Y-55741221D01*
G37*
G36*
X173016612Y-55741221D02*
X173244096Y-55835448D01*
X173448831Y-55972248D01*
X173622936Y-56146353D01*
X173759736Y-56351088D01*
X173853963Y-56578572D01*
X173902000Y-56820069D01*
X173902000Y-57066299D01*
X173853963Y-57307796D01*
X173759736Y-57535280D01*
X173622936Y-57740015D01*
X173448831Y-57914120D01*
X173244096Y-58050920D01*
X173016612Y-58145147D01*
X172775115Y-58193184D01*
X172528885Y-58193184D01*
X172287388Y-58145147D01*
X172059904Y-58050920D01*
X171855169Y-57914120D01*
X171681064Y-57740015D01*
X171544264Y-57535280D01*
X171450037Y-57307796D01*
X171402000Y-57066299D01*
X171402000Y-56820069D01*
X171450037Y-56578572D01*
X171544264Y-56351088D01*
X171681064Y-56146353D01*
X171855169Y-55972248D01*
X172059904Y-55835448D01*
X172287388Y-55741221D01*
X172528885Y-55693184D01*
X172775115Y-55693184D01*
X173016612Y-55741221D01*
X173016612Y-55741221D01*
G37*
G36*
X164321612Y-55741221D02*
X164549096Y-55835448D01*
X164753831Y-55972248D01*
X164927936Y-56146353D01*
X165064736Y-56351088D01*
X165158963Y-56578572D01*
X165207000Y-56820069D01*
X165207000Y-57066299D01*
X165158963Y-57307796D01*
X165064736Y-57535280D01*
X164927936Y-57740015D01*
X164753831Y-57914120D01*
X164549096Y-58050920D01*
X164321612Y-58145147D01*
X164080115Y-58193184D01*
X163833885Y-58193184D01*
X163592388Y-58145147D01*
X163364904Y-58050920D01*
X163160169Y-57914120D01*
X162986064Y-57740015D01*
X162849264Y-57535280D01*
X162755037Y-57307796D01*
X162707000Y-57066299D01*
X162707000Y-56820069D01*
X162755037Y-56578572D01*
X162849264Y-56351088D01*
X162986064Y-56146353D01*
X163160169Y-55972248D01*
X163364904Y-55835448D01*
X163592388Y-55741221D01*
X163833885Y-55693184D01*
X164080115Y-55693184D01*
X164321612Y-55741221D01*
X164321612Y-55741221D01*
G37*
G36*
X188646612Y-55741221D02*
X188874096Y-55835448D01*
X189078831Y-55972248D01*
X189252936Y-56146353D01*
X189389736Y-56351088D01*
X189483963Y-56578572D01*
X189532000Y-56820069D01*
X189532000Y-57066299D01*
X189483963Y-57307796D01*
X189389736Y-57535280D01*
X189252936Y-57740015D01*
X189078831Y-57914120D01*
X188874096Y-58050920D01*
X188646612Y-58145147D01*
X188405115Y-58193184D01*
X188158885Y-58193184D01*
X187917388Y-58145147D01*
X187689904Y-58050920D01*
X187485169Y-57914120D01*
X187311064Y-57740015D01*
X187174264Y-57535280D01*
X187080037Y-57307796D01*
X187032000Y-57066299D01*
X187032000Y-56820069D01*
X187080037Y-56578572D01*
X187174264Y-56351088D01*
X187311064Y-56146353D01*
X187485169Y-55972248D01*
X187689904Y-55835448D01*
X187917388Y-55741221D01*
X188158885Y-55693184D01*
X188405115Y-55693184D01*
X188646612Y-55741221D01*
X188646612Y-55741221D01*
G37*
G36*
X211506612Y-55741221D02*
X211734096Y-55835448D01*
X211938831Y-55972248D01*
X212112936Y-56146353D01*
X212249736Y-56351088D01*
X212343963Y-56578572D01*
X212392000Y-56820069D01*
X212392000Y-57066299D01*
X212343963Y-57307796D01*
X212249736Y-57535280D01*
X212112936Y-57740015D01*
X211938831Y-57914120D01*
X211734096Y-58050920D01*
X211506612Y-58145147D01*
X211265115Y-58193184D01*
X211018885Y-58193184D01*
X210777388Y-58145147D01*
X210549904Y-58050920D01*
X210345169Y-57914120D01*
X210171064Y-57740015D01*
X210034264Y-57535280D01*
X209940037Y-57307796D01*
X209892000Y-57066299D01*
X209892000Y-56820069D01*
X209940037Y-56578572D01*
X210034264Y-56351088D01*
X210171064Y-56146353D01*
X210345169Y-55972248D01*
X210549904Y-55835448D01*
X210777388Y-55741221D01*
X211018885Y-55693184D01*
X211265115Y-55693184D01*
X211506612Y-55741221D01*
X211506612Y-55741221D01*
G37*
G36*
X143557000Y-55868000D02*
X142157000Y-55868000D01*
X142157000Y-54368000D01*
X143557000Y-54368000D01*
X143557000Y-55868000D01*
X143557000Y-55868000D01*
G37*
G36*
X113712000Y-55868000D02*
X112312000Y-55868000D01*
X112312000Y-54368000D01*
X113712000Y-54368000D01*
X113712000Y-55868000D01*
X113712000Y-55868000D01*
G37*
G36*
X115762000Y-55868000D02*
X114362000Y-55868000D01*
X114362000Y-54368000D01*
X115762000Y-54368000D01*
X115762000Y-55868000D01*
X115762000Y-55868000D01*
G37*
G36*
X145607000Y-55868000D02*
X144207000Y-55868000D01*
X144207000Y-54368000D01*
X145607000Y-54368000D01*
X145607000Y-55868000D01*
X145607000Y-55868000D01*
G37*
G36*
X157837926Y-52858029D02*
X157903356Y-52871044D01*
X158088256Y-52947632D01*
X158254665Y-53058823D01*
X158396177Y-53200335D01*
X158507368Y-53366744D01*
X158583956Y-53551645D01*
X158623000Y-53747931D01*
X158623000Y-53948069D01*
X158583956Y-54144355D01*
X158507368Y-54329256D01*
X158396177Y-54495665D01*
X158254665Y-54637177D01*
X158254662Y-54637179D01*
X158088256Y-54748368D01*
X157903356Y-54824956D01*
X157837926Y-54837971D01*
X157707069Y-54864000D01*
X157506931Y-54864000D01*
X157376074Y-54837971D01*
X157310644Y-54824956D01*
X157125744Y-54748368D01*
X156959338Y-54637179D01*
X156959335Y-54637177D01*
X156817823Y-54495665D01*
X156706632Y-54329256D01*
X156630044Y-54144355D01*
X156591000Y-53948069D01*
X156591000Y-53747931D01*
X156630044Y-53551645D01*
X156706632Y-53366744D01*
X156817823Y-53200335D01*
X156959335Y-53058823D01*
X157125744Y-52947632D01*
X157310644Y-52871044D01*
X157376074Y-52858029D01*
X157506931Y-52832000D01*
X157707069Y-52832000D01*
X157837926Y-52858029D01*
X157837926Y-52858029D01*
G37*
G36*
X127992926Y-52858029D02*
X128058356Y-52871044D01*
X128243256Y-52947632D01*
X128409665Y-53058823D01*
X128551177Y-53200335D01*
X128662368Y-53366744D01*
X128738956Y-53551645D01*
X128778000Y-53747931D01*
X128778000Y-53948069D01*
X128738956Y-54144355D01*
X128662368Y-54329256D01*
X128551177Y-54495665D01*
X128409665Y-54637177D01*
X128409662Y-54637179D01*
X128243256Y-54748368D01*
X128058356Y-54824956D01*
X127992926Y-54837971D01*
X127862069Y-54864000D01*
X127661931Y-54864000D01*
X127531074Y-54837971D01*
X127465644Y-54824956D01*
X127280744Y-54748368D01*
X127114338Y-54637179D01*
X127114335Y-54637177D01*
X126972823Y-54495665D01*
X126861632Y-54329256D01*
X126785044Y-54144355D01*
X126746000Y-53948069D01*
X126746000Y-53747931D01*
X126785044Y-53551645D01*
X126861632Y-53366744D01*
X126972823Y-53200335D01*
X127114335Y-53058823D01*
X127280744Y-52947632D01*
X127465644Y-52871044D01*
X127531074Y-52858029D01*
X127661931Y-52832000D01*
X127862069Y-52832000D01*
X127992926Y-52858029D01*
X127992926Y-52858029D01*
G37*
G36*
X118352000Y-54058000D02*
X116852000Y-54058000D01*
X116852000Y-52658000D01*
X118352000Y-52658000D01*
X118352000Y-54058000D01*
X118352000Y-54058000D01*
G37*
G36*
X148197000Y-54058000D02*
X146697000Y-54058000D01*
X146697000Y-52658000D01*
X148197000Y-52658000D01*
X148197000Y-54058000D01*
X148197000Y-54058000D01*
G37*
G36*
X200076612Y-50241221D02*
X200304096Y-50335448D01*
X200508831Y-50472248D01*
X200682936Y-50646353D01*
X200819736Y-50851088D01*
X200913963Y-51078572D01*
X200962000Y-51320069D01*
X200962000Y-51566299D01*
X200913963Y-51807796D01*
X200819736Y-52035280D01*
X200682936Y-52240015D01*
X200508831Y-52414120D01*
X200304096Y-52550920D01*
X200076612Y-52645147D01*
X199835115Y-52693184D01*
X199588885Y-52693184D01*
X199347388Y-52645147D01*
X199119904Y-52550920D01*
X198915169Y-52414120D01*
X198741064Y-52240015D01*
X198604264Y-52035280D01*
X198510037Y-51807796D01*
X198462000Y-51566299D01*
X198462000Y-51320069D01*
X198510037Y-51078572D01*
X198604264Y-50851088D01*
X198741064Y-50646353D01*
X198915169Y-50472248D01*
X199119904Y-50335448D01*
X199347388Y-50241221D01*
X199588885Y-50193184D01*
X199835115Y-50193184D01*
X200076612Y-50241221D01*
X200076612Y-50241221D01*
G37*
G36*
X208192000Y-52693184D02*
X205692000Y-52693184D01*
X205692000Y-50193184D01*
X208192000Y-50193184D01*
X208192000Y-52693184D01*
X208192000Y-52693184D01*
G37*
G36*
X211506612Y-50241221D02*
X211734096Y-50335448D01*
X211938831Y-50472248D01*
X212112936Y-50646353D01*
X212249736Y-50851088D01*
X212343963Y-51078572D01*
X212392000Y-51320069D01*
X212392000Y-51566299D01*
X212343963Y-51807796D01*
X212249736Y-52035280D01*
X212112936Y-52240015D01*
X211938831Y-52414120D01*
X211734096Y-52550920D01*
X211506612Y-52645147D01*
X211265115Y-52693184D01*
X211018885Y-52693184D01*
X210777388Y-52645147D01*
X210549904Y-52550920D01*
X210345169Y-52414120D01*
X210171064Y-52240015D01*
X210034264Y-52035280D01*
X209940037Y-51807796D01*
X209892000Y-51566299D01*
X209892000Y-51320069D01*
X209940037Y-51078572D01*
X210034264Y-50851088D01*
X210171064Y-50646353D01*
X210345169Y-50472248D01*
X210549904Y-50335448D01*
X210777388Y-50241221D01*
X211018885Y-50193184D01*
X211265115Y-50193184D01*
X211506612Y-50241221D01*
X211506612Y-50241221D01*
G37*
G36*
X105517000Y-52693184D02*
X103017000Y-52693184D01*
X103017000Y-50193184D01*
X105517000Y-50193184D01*
X105517000Y-52693184D01*
X105517000Y-52693184D01*
G37*
G36*
X188646612Y-50241221D02*
X188874096Y-50335448D01*
X189078831Y-50472248D01*
X189252936Y-50646353D01*
X189389736Y-50851088D01*
X189483963Y-51078572D01*
X189532000Y-51320069D01*
X189532000Y-51566299D01*
X189483963Y-51807796D01*
X189389736Y-52035280D01*
X189252936Y-52240015D01*
X189078831Y-52414120D01*
X188874096Y-52550920D01*
X188646612Y-52645147D01*
X188405115Y-52693184D01*
X188158885Y-52693184D01*
X187917388Y-52645147D01*
X187689904Y-52550920D01*
X187485169Y-52414120D01*
X187311064Y-52240015D01*
X187174264Y-52035280D01*
X187080037Y-51807796D01*
X187032000Y-51566299D01*
X187032000Y-51320069D01*
X187080037Y-51078572D01*
X187174264Y-50851088D01*
X187311064Y-50646353D01*
X187485169Y-50472248D01*
X187689904Y-50335448D01*
X187917388Y-50241221D01*
X188158885Y-50193184D01*
X188405115Y-50193184D01*
X188646612Y-50241221D01*
X188646612Y-50241221D01*
G37*
G36*
X135362000Y-52693184D02*
X132862000Y-52693184D01*
X132862000Y-50193184D01*
X135362000Y-50193184D01*
X135362000Y-52693184D01*
X135362000Y-52693184D01*
G37*
G36*
X177216612Y-50241221D02*
X177444096Y-50335448D01*
X177648831Y-50472248D01*
X177822936Y-50646353D01*
X177959736Y-50851088D01*
X178053963Y-51078572D01*
X178102000Y-51320069D01*
X178102000Y-51566299D01*
X178053963Y-51807796D01*
X177959736Y-52035280D01*
X177822936Y-52240015D01*
X177648831Y-52414120D01*
X177444096Y-52550920D01*
X177216612Y-52645147D01*
X176975115Y-52693184D01*
X176728885Y-52693184D01*
X176487388Y-52645147D01*
X176259904Y-52550920D01*
X176055169Y-52414120D01*
X175881064Y-52240015D01*
X175744264Y-52035280D01*
X175650037Y-51807796D01*
X175602000Y-51566299D01*
X175602000Y-51320069D01*
X175650037Y-51078572D01*
X175744264Y-50851088D01*
X175881064Y-50646353D01*
X176055169Y-50472248D01*
X176259904Y-50335448D01*
X176487388Y-50241221D01*
X176728885Y-50193184D01*
X176975115Y-50193184D01*
X177216612Y-50241221D01*
X177216612Y-50241221D01*
G37*
G36*
X165207000Y-52693184D02*
X162707000Y-52693184D01*
X162707000Y-50193184D01*
X165207000Y-50193184D01*
X165207000Y-52693184D01*
X165207000Y-52693184D01*
G37*
G36*
X196762000Y-52693184D02*
X194262000Y-52693184D01*
X194262000Y-50193184D01*
X196762000Y-50193184D01*
X196762000Y-52693184D01*
X196762000Y-52693184D01*
G37*
G36*
X173902000Y-52693184D02*
X171402000Y-52693184D01*
X171402000Y-50193184D01*
X173902000Y-50193184D01*
X173902000Y-52693184D01*
X173902000Y-52693184D01*
G37*
G36*
X185332000Y-52693184D02*
X182832000Y-52693184D01*
X182832000Y-50193184D01*
X185332000Y-50193184D01*
X185332000Y-52693184D01*
X185332000Y-52693184D01*
G37*
G36*
X115292000Y-52143000D02*
X112292000Y-52143000D01*
X112292000Y-50143000D01*
X115292000Y-50143000D01*
X115292000Y-52143000D01*
X115292000Y-52143000D01*
G37*
G36*
X145137000Y-52143000D02*
X142137000Y-52143000D01*
X142137000Y-50143000D01*
X145137000Y-50143000D01*
X145137000Y-52143000D01*
X145137000Y-52143000D01*
G37*
G36*
X118352000Y-52008000D02*
X116852000Y-52008000D01*
X116852000Y-50608000D01*
X118352000Y-50608000D01*
X118352000Y-52008000D01*
X118352000Y-52008000D01*
G37*
G36*
X148197000Y-52008000D02*
X146697000Y-52008000D01*
X146697000Y-50608000D01*
X148197000Y-50608000D01*
X148197000Y-52008000D01*
X148197000Y-52008000D01*
G37*
G36*
X127327000Y-47728000D02*
X125327000Y-47728000D01*
X125327000Y-44728000D01*
X127327000Y-44728000D01*
X127327000Y-47728000D01*
X127327000Y-47728000D01*
G37*
G36*
X122577000Y-47728000D02*
X120577000Y-47728000D01*
X120577000Y-44728000D01*
X122577000Y-44728000D01*
X122577000Y-47728000D01*
X122577000Y-47728000D01*
G37*
G36*
X152422000Y-47728000D02*
X150422000Y-47728000D01*
X150422000Y-44728000D01*
X152422000Y-44728000D01*
X152422000Y-47728000D01*
X152422000Y-47728000D01*
G37*
G36*
X157172000Y-47728000D02*
X155172000Y-47728000D01*
X155172000Y-44728000D01*
X157172000Y-44728000D01*
X157172000Y-47728000D01*
X157172000Y-47728000D01*
G37*
G36*
X115292000Y-47393000D02*
X112292000Y-47393000D01*
X112292000Y-45393000D01*
X115292000Y-45393000D01*
X115292000Y-47393000D01*
X115292000Y-47393000D01*
G37*
G36*
X145137000Y-47393000D02*
X142137000Y-47393000D01*
X142137000Y-45393000D01*
X145137000Y-45393000D01*
X145137000Y-47393000D01*
X145137000Y-47393000D01*
G37*
G36*
X90230225Y-41072233D02*
X90391223Y-41104258D01*
X90579677Y-41182318D01*
X90846193Y-41292712D01*
X91255660Y-41566310D01*
X91603874Y-41914524D01*
X91877472Y-42323991D01*
X92065926Y-42778962D01*
X92162000Y-43261954D01*
X92162000Y-43754414D01*
X92065926Y-44237406D01*
X91877472Y-44692377D01*
X91603874Y-45101844D01*
X91255660Y-45450058D01*
X90846193Y-45723656D01*
X90589988Y-45829779D01*
X90391223Y-45912110D01*
X90230225Y-45944135D01*
X89908230Y-46008184D01*
X89415770Y-46008184D01*
X89093775Y-45944135D01*
X88932777Y-45912110D01*
X88734012Y-45829779D01*
X88477807Y-45723656D01*
X88068340Y-45450058D01*
X87720126Y-45101844D01*
X87446528Y-44692377D01*
X87258074Y-44237406D01*
X87162000Y-43754414D01*
X87162000Y-43261954D01*
X87258074Y-42778962D01*
X87446528Y-42323991D01*
X87720126Y-41914524D01*
X88068340Y-41566310D01*
X88477807Y-41292712D01*
X88744323Y-41182318D01*
X88932777Y-41104258D01*
X89093775Y-41072233D01*
X89415770Y-41008184D01*
X89908230Y-41008184D01*
X90230225Y-41072233D01*
X90230225Y-41072233D01*
G37*
G36*
X217865225Y-41072233D02*
X218026223Y-41104258D01*
X218214677Y-41182318D01*
X218481193Y-41292712D01*
X218890660Y-41566310D01*
X219238874Y-41914524D01*
X219512472Y-42323991D01*
X219700926Y-42778962D01*
X219797000Y-43261954D01*
X219797000Y-43754414D01*
X219700926Y-44237406D01*
X219512472Y-44692377D01*
X219238874Y-45101844D01*
X218890660Y-45450058D01*
X218481193Y-45723656D01*
X218224988Y-45829779D01*
X218026223Y-45912110D01*
X217865225Y-45944135D01*
X217543230Y-46008184D01*
X217050770Y-46008184D01*
X216728775Y-45944135D01*
X216567777Y-45912110D01*
X216369012Y-45829779D01*
X216112807Y-45723656D01*
X215703340Y-45450058D01*
X215355126Y-45101844D01*
X215081528Y-44692377D01*
X214893074Y-44237406D01*
X214797000Y-43754414D01*
X214797000Y-43261954D01*
X214893074Y-42778962D01*
X215081528Y-42323991D01*
X215355126Y-41914524D01*
X215703340Y-41566310D01*
X216112807Y-41292712D01*
X216379323Y-41182318D01*
X216567777Y-41104258D01*
X216728775Y-41072233D01*
X217050770Y-41008184D01*
X217543230Y-41008184D01*
X217865225Y-41072233D01*
X217865225Y-41072233D01*
G37*
G36*
X209384188Y-42422886D02*
X209553623Y-42456589D01*
X209872831Y-42588809D01*
X210157413Y-42778961D01*
X210160113Y-42780765D01*
X210404419Y-43025071D01*
X210404421Y-43025074D01*
X210596375Y-43312353D01*
X210728595Y-43631561D01*
X210796000Y-43970430D01*
X210796000Y-44315938D01*
X210728595Y-44654807D01*
X210596375Y-44974015D01*
X210510964Y-45101841D01*
X210404419Y-45261297D01*
X210160113Y-45505603D01*
X210160110Y-45505605D01*
X209872831Y-45697559D01*
X209553623Y-45829779D01*
X209384189Y-45863481D01*
X209214755Y-45897184D01*
X208869245Y-45897184D01*
X208699812Y-45863482D01*
X208530377Y-45829779D01*
X208211169Y-45697559D01*
X207923890Y-45505605D01*
X207923887Y-45505603D01*
X207679581Y-45261297D01*
X207573036Y-45101841D01*
X207487625Y-44974015D01*
X207355405Y-44654807D01*
X207288000Y-44315938D01*
X207288000Y-43970430D01*
X207355405Y-43631561D01*
X207487625Y-43312353D01*
X207679579Y-43025074D01*
X207679581Y-43025071D01*
X207923887Y-42780765D01*
X207926587Y-42778961D01*
X208211169Y-42588809D01*
X208530377Y-42456589D01*
X208699812Y-42422886D01*
X208869245Y-42389184D01*
X209214755Y-42389184D01*
X209384188Y-42422886D01*
X209384188Y-42422886D01*
G37*
G36*
X104609188Y-42422886D02*
X104778623Y-42456589D01*
X105097831Y-42588809D01*
X105382413Y-42778961D01*
X105385113Y-42780765D01*
X105629419Y-43025071D01*
X105629421Y-43025074D01*
X105821375Y-43312353D01*
X105953595Y-43631561D01*
X106021000Y-43970430D01*
X106021000Y-44315938D01*
X105953595Y-44654807D01*
X105821375Y-44974015D01*
X105735964Y-45101841D01*
X105629419Y-45261297D01*
X105385113Y-45505603D01*
X105385110Y-45505605D01*
X105097831Y-45697559D01*
X104778623Y-45829779D01*
X104609189Y-45863481D01*
X104439755Y-45897184D01*
X104094245Y-45897184D01*
X103924812Y-45863482D01*
X103755377Y-45829779D01*
X103436169Y-45697559D01*
X103148890Y-45505605D01*
X103148887Y-45505603D01*
X102904581Y-45261297D01*
X102798036Y-45101841D01*
X102712625Y-44974015D01*
X102580405Y-44654807D01*
X102513000Y-44315938D01*
X102513000Y-43970430D01*
X102580405Y-43631561D01*
X102712625Y-43312353D01*
X102904579Y-43025074D01*
X102904581Y-43025071D01*
X103148887Y-42780765D01*
X103151587Y-42778961D01*
X103436169Y-42588809D01*
X103755377Y-42456589D01*
X103924812Y-42422886D01*
X104094245Y-42389184D01*
X104439755Y-42389184D01*
X104609188Y-42422886D01*
X104609188Y-42422886D01*
G37*
G36*
X197954188Y-42422886D02*
X198123623Y-42456589D01*
X198442831Y-42588809D01*
X198727413Y-42778961D01*
X198730113Y-42780765D01*
X198974419Y-43025071D01*
X198974421Y-43025074D01*
X199166375Y-43312353D01*
X199298595Y-43631561D01*
X199366000Y-43970430D01*
X199366000Y-44315938D01*
X199298595Y-44654807D01*
X199166375Y-44974015D01*
X199080964Y-45101841D01*
X198974419Y-45261297D01*
X198730113Y-45505603D01*
X198730110Y-45505605D01*
X198442831Y-45697559D01*
X198123623Y-45829779D01*
X197954189Y-45863481D01*
X197784755Y-45897184D01*
X197439245Y-45897184D01*
X197269812Y-45863482D01*
X197100377Y-45829779D01*
X196781169Y-45697559D01*
X196493890Y-45505605D01*
X196493887Y-45505603D01*
X196249581Y-45261297D01*
X196143036Y-45101841D01*
X196057625Y-44974015D01*
X195925405Y-44654807D01*
X195858000Y-44315938D01*
X195858000Y-43970430D01*
X195925405Y-43631561D01*
X196057625Y-43312353D01*
X196249579Y-43025074D01*
X196249581Y-43025071D01*
X196493887Y-42780765D01*
X196496587Y-42778961D01*
X196781169Y-42588809D01*
X197100377Y-42456589D01*
X197269812Y-42422886D01*
X197439245Y-42389184D01*
X197784755Y-42389184D01*
X197954188Y-42422886D01*
X197954188Y-42422886D01*
G37*
G36*
X186524188Y-42422886D02*
X186693623Y-42456589D01*
X187012831Y-42588809D01*
X187297413Y-42778961D01*
X187300113Y-42780765D01*
X187544419Y-43025071D01*
X187544421Y-43025074D01*
X187736375Y-43312353D01*
X187868595Y-43631561D01*
X187936000Y-43970430D01*
X187936000Y-44315938D01*
X187868595Y-44654807D01*
X187736375Y-44974015D01*
X187650964Y-45101841D01*
X187544419Y-45261297D01*
X187300113Y-45505603D01*
X187300110Y-45505605D01*
X187012831Y-45697559D01*
X186693623Y-45829779D01*
X186524189Y-45863481D01*
X186354755Y-45897184D01*
X186009245Y-45897184D01*
X185839812Y-45863482D01*
X185670377Y-45829779D01*
X185351169Y-45697559D01*
X185063890Y-45505605D01*
X185063887Y-45505603D01*
X184819581Y-45261297D01*
X184713036Y-45101841D01*
X184627625Y-44974015D01*
X184495405Y-44654807D01*
X184428000Y-44315938D01*
X184428000Y-43970430D01*
X184495405Y-43631561D01*
X184627625Y-43312353D01*
X184819579Y-43025074D01*
X184819581Y-43025071D01*
X185063887Y-42780765D01*
X185066587Y-42778961D01*
X185351169Y-42588809D01*
X185670377Y-42456589D01*
X185839812Y-42422886D01*
X186009245Y-42389184D01*
X186354755Y-42389184D01*
X186524188Y-42422886D01*
X186524188Y-42422886D01*
G37*
G36*
X175094188Y-42422886D02*
X175263623Y-42456589D01*
X175582831Y-42588809D01*
X175867413Y-42778961D01*
X175870113Y-42780765D01*
X176114419Y-43025071D01*
X176114421Y-43025074D01*
X176306375Y-43312353D01*
X176438595Y-43631561D01*
X176506000Y-43970430D01*
X176506000Y-44315938D01*
X176438595Y-44654807D01*
X176306375Y-44974015D01*
X176220964Y-45101841D01*
X176114419Y-45261297D01*
X175870113Y-45505603D01*
X175870110Y-45505605D01*
X175582831Y-45697559D01*
X175263623Y-45829779D01*
X175094189Y-45863481D01*
X174924755Y-45897184D01*
X174579245Y-45897184D01*
X174409812Y-45863482D01*
X174240377Y-45829779D01*
X173921169Y-45697559D01*
X173633890Y-45505605D01*
X173633887Y-45505603D01*
X173389581Y-45261297D01*
X173283036Y-45101841D01*
X173197625Y-44974015D01*
X173065405Y-44654807D01*
X172998000Y-44315938D01*
X172998000Y-43970430D01*
X173065405Y-43631561D01*
X173197625Y-43312353D01*
X173389579Y-43025074D01*
X173389581Y-43025071D01*
X173633887Y-42780765D01*
X173636587Y-42778961D01*
X173921169Y-42588809D01*
X174240377Y-42456589D01*
X174409812Y-42422886D01*
X174579245Y-42389184D01*
X174924755Y-42389184D01*
X175094188Y-42422886D01*
X175094188Y-42422886D01*
G37*
G36*
X164299188Y-42422886D02*
X164468623Y-42456589D01*
X164787831Y-42588809D01*
X165072413Y-42778961D01*
X165075113Y-42780765D01*
X165319419Y-43025071D01*
X165319421Y-43025074D01*
X165511375Y-43312353D01*
X165643595Y-43631561D01*
X165711000Y-43970430D01*
X165711000Y-44315938D01*
X165643595Y-44654807D01*
X165511375Y-44974015D01*
X165425964Y-45101841D01*
X165319419Y-45261297D01*
X165075113Y-45505603D01*
X165075110Y-45505605D01*
X164787831Y-45697559D01*
X164468623Y-45829779D01*
X164299189Y-45863481D01*
X164129755Y-45897184D01*
X163784245Y-45897184D01*
X163614812Y-45863482D01*
X163445377Y-45829779D01*
X163126169Y-45697559D01*
X162838890Y-45505605D01*
X162838887Y-45505603D01*
X162594581Y-45261297D01*
X162488036Y-45101841D01*
X162402625Y-44974015D01*
X162270405Y-44654807D01*
X162203000Y-44315938D01*
X162203000Y-43970430D01*
X162270405Y-43631561D01*
X162402625Y-43312353D01*
X162594579Y-43025074D01*
X162594581Y-43025071D01*
X162838887Y-42780765D01*
X162841587Y-42778961D01*
X163126169Y-42588809D01*
X163445377Y-42456589D01*
X163614812Y-42422886D01*
X163784245Y-42389184D01*
X164129755Y-42389184D01*
X164299188Y-42422886D01*
X164299188Y-42422886D01*
G37*
G36*
X134454188Y-42422886D02*
X134623623Y-42456589D01*
X134942831Y-42588809D01*
X135227413Y-42778961D01*
X135230113Y-42780765D01*
X135474419Y-43025071D01*
X135474421Y-43025074D01*
X135666375Y-43312353D01*
X135798595Y-43631561D01*
X135866000Y-43970430D01*
X135866000Y-44315938D01*
X135798595Y-44654807D01*
X135666375Y-44974015D01*
X135580964Y-45101841D01*
X135474419Y-45261297D01*
X135230113Y-45505603D01*
X135230110Y-45505605D01*
X134942831Y-45697559D01*
X134623623Y-45829779D01*
X134454189Y-45863481D01*
X134284755Y-45897184D01*
X133939245Y-45897184D01*
X133769812Y-45863482D01*
X133600377Y-45829779D01*
X133281169Y-45697559D01*
X132993890Y-45505605D01*
X132993887Y-45505603D01*
X132749581Y-45261297D01*
X132643036Y-45101841D01*
X132557625Y-44974015D01*
X132425405Y-44654807D01*
X132358000Y-44315938D01*
X132358000Y-43970430D01*
X132425405Y-43631561D01*
X132557625Y-43312353D01*
X132749579Y-43025074D01*
X132749581Y-43025071D01*
X132993887Y-42780765D01*
X132996587Y-42778961D01*
X133281169Y-42588809D01*
X133600377Y-42456589D01*
X133769812Y-42422886D01*
X133939245Y-42389184D01*
X134284755Y-42389184D01*
X134454188Y-42422886D01*
X134454188Y-42422886D01*
G37*
G36*
X152122926Y-38888029D02*
X152188356Y-38901044D01*
X152207580Y-38909007D01*
X152373256Y-38977632D01*
X152539665Y-39088823D01*
X152681177Y-39230335D01*
X152792368Y-39396744D01*
X152868956Y-39581645D01*
X152908000Y-39777931D01*
X152908000Y-39978069D01*
X152868956Y-40174355D01*
X152792368Y-40359256D01*
X152681177Y-40525665D01*
X152539665Y-40667177D01*
X152539662Y-40667179D01*
X152373256Y-40778368D01*
X152188356Y-40854956D01*
X152122926Y-40867971D01*
X151992069Y-40894000D01*
X151791931Y-40894000D01*
X151661074Y-40867971D01*
X151595644Y-40854956D01*
X151410744Y-40778368D01*
X151244338Y-40667179D01*
X151244335Y-40667177D01*
X151102823Y-40525665D01*
X150991632Y-40359256D01*
X150915044Y-40174355D01*
X150876000Y-39978069D01*
X150876000Y-39777931D01*
X150915044Y-39581645D01*
X150991632Y-39396744D01*
X151102823Y-39230335D01*
X151244335Y-39088823D01*
X151410744Y-38977632D01*
X151576420Y-38909007D01*
X151595644Y-38901044D01*
X151661074Y-38888029D01*
X151791931Y-38862000D01*
X151992069Y-38862000D01*
X152122926Y-38888029D01*
X152122926Y-38888029D01*
G37*
G36*
X147042926Y-38888029D02*
X147108356Y-38901044D01*
X147127580Y-38909007D01*
X147293256Y-38977632D01*
X147459665Y-39088823D01*
X147601177Y-39230335D01*
X147712368Y-39396744D01*
X147788956Y-39581645D01*
X147828000Y-39777931D01*
X147828000Y-39978069D01*
X147788956Y-40174355D01*
X147712368Y-40359256D01*
X147601177Y-40525665D01*
X147459665Y-40667177D01*
X147459662Y-40667179D01*
X147293256Y-40778368D01*
X147108356Y-40854956D01*
X147042926Y-40867971D01*
X146912069Y-40894000D01*
X146711931Y-40894000D01*
X146581074Y-40867971D01*
X146515644Y-40854956D01*
X146330744Y-40778368D01*
X146164338Y-40667179D01*
X146164335Y-40667177D01*
X146022823Y-40525665D01*
X145911632Y-40359256D01*
X145835044Y-40174355D01*
X145796000Y-39978069D01*
X145796000Y-39777931D01*
X145835044Y-39581645D01*
X145911632Y-39396744D01*
X146022823Y-39230335D01*
X146164335Y-39088823D01*
X146330744Y-38977632D01*
X146496420Y-38909007D01*
X146515644Y-38901044D01*
X146581074Y-38888029D01*
X146711931Y-38862000D01*
X146912069Y-38862000D01*
X147042926Y-38888029D01*
X147042926Y-38888029D01*
G37*
G36*
X121962926Y-38708213D02*
X122028356Y-38721228D01*
X122213256Y-38797816D01*
X122379665Y-38909007D01*
X122521177Y-39050519D01*
X122632368Y-39216928D01*
X122708956Y-39401829D01*
X122748000Y-39598115D01*
X122748000Y-39798253D01*
X122708956Y-39994539D01*
X122632368Y-40179440D01*
X122521177Y-40345849D01*
X122379665Y-40487361D01*
X122379662Y-40487363D01*
X122213256Y-40598552D01*
X122028356Y-40675140D01*
X121962926Y-40688155D01*
X121832069Y-40714184D01*
X121631931Y-40714184D01*
X121501074Y-40688155D01*
X121435644Y-40675140D01*
X121250744Y-40598552D01*
X121084338Y-40487363D01*
X121084335Y-40487361D01*
X120942823Y-40345849D01*
X120831632Y-40179440D01*
X120755044Y-39994539D01*
X120716000Y-39798253D01*
X120716000Y-39598115D01*
X120755044Y-39401829D01*
X120831632Y-39216928D01*
X120942823Y-39050519D01*
X121084335Y-38909007D01*
X121250744Y-38797816D01*
X121435644Y-38721228D01*
X121501074Y-38708213D01*
X121631931Y-38682184D01*
X121832069Y-38682184D01*
X121962926Y-38708213D01*
X121962926Y-38708213D01*
G37*
G36*
X116882926Y-38708213D02*
X116948356Y-38721228D01*
X117133256Y-38797816D01*
X117299665Y-38909007D01*
X117441177Y-39050519D01*
X117552368Y-39216928D01*
X117628956Y-39401829D01*
X117668000Y-39598115D01*
X117668000Y-39798253D01*
X117628956Y-39994539D01*
X117552368Y-40179440D01*
X117441177Y-40345849D01*
X117299665Y-40487361D01*
X117299662Y-40487363D01*
X117133256Y-40598552D01*
X116948356Y-40675140D01*
X116882926Y-40688155D01*
X116752069Y-40714184D01*
X116551931Y-40714184D01*
X116421074Y-40688155D01*
X116355644Y-40675140D01*
X116170744Y-40598552D01*
X116004338Y-40487363D01*
X116004335Y-40487361D01*
X115862823Y-40345849D01*
X115751632Y-40179440D01*
X115675044Y-39994539D01*
X115636000Y-39798253D01*
X115636000Y-39598115D01*
X115675044Y-39401829D01*
X115751632Y-39216928D01*
X115862823Y-39050519D01*
X116004335Y-38909007D01*
X116170744Y-38797816D01*
X116355644Y-38721228D01*
X116421074Y-38708213D01*
X116551931Y-38682184D01*
X116752069Y-38682184D01*
X116882926Y-38708213D01*
X116882926Y-38708213D01*
G37*
M02*
